<?xml version="1.0" encoding="utf-8"?>
<!-- Generator: Adobe Illustrator 16.0.0, SVG Export Plug-In . SVG Version: 6.00 Build 0)  -->
<!DOCTYPE svg PUBLIC "-//W3C//DTD SVG 1.1//EN" "http://www.w3.org/Graphics/SVG/1.1/DTD/svg11.dtd">
<svg version="1.1" id="Layer_1" xmlns="http://www.w3.org/2000/svg" xmlns:xlink="http://www.w3.org/1999/xlink" x="0px" y="0px"
	 width="128px" height="128px" viewBox="0 0 128 128" enable-background="new 0 0 128 128" xml:space="preserve">
<g>
	<g>
		<g>
			<g>
				<path fill="#282D33" d="M25.383,59.742h-3.999V42.9c-0.582-3.258-2.881-6.663-6.076-6.664l-2.822,0.02l-0.179-3.996
					c0.165-0.015,0.286-0.023,0.416-0.023l2.585-0.001c5.514,0.002,9.229,5.12,10.049,10.174l0.026,0.321V59.742z"/>
			</g>
			<g>
				<path fill="#282D33" d="M52.667,96.313h-4V85.563l-0.883-13.81l-18.108-18.21c-0.533,0.508-1.02,0.973-1.02,0.973
					c-2.03,1.93-2.935,5.916-1.299,8.137l11.477,11.542l-2.833,2.823L24.759,65.768c-0.133-0.143-0.261-0.289-0.382-0.438
					l-6.47-6.507l-6.902-7.331V33.854c-0.58-3.256-2.878-6.659-6.075-6.661l-0.891,0l0.298,28.102l22.741,38.379l-3.441,2.039
					L0.351,56.41L0,23.339l1.894-0.119c0.19-0.016,0.317-0.025,0.451-0.025l2.586-0.002c5.517,0.002,9.231,5.119,10.049,10.172
					l0.026,0.32v16.221l5.777,6.137l1.877,1.888c0.399-2.414,1.568-4.722,3.238-6.31c2.402-2.292,2.468-2.349,2.521-2.394
					l1.409-1.202L51.68,69.998L52.667,85.5V96.313z"/>
			</g>
			<g>
				<polygon fill="#282D33" points="60.897,120.492 56.898,120.492 56.898,97.823 20.642,97.823 20.642,120.492 16.642,120.492 
					16.642,93.823 60.897,93.823 				"/>
			</g>
		</g>
		<g>
			<g>
				<path fill="#282D33" d="M106.64,59.742h-3.999l0.025-17.329c0.816-5.055,4.527-10.173,10.042-10.176l2.593,0.001
					c0.125,0,0.246,0.008,0.367,0.019l-0.132,4l-0.221-0.016l-2.607-0.004c-3.193,0.001-5.49,3.406-6.068,6.663V59.742z"/>
			</g>
			<g>
				<path fill="#282D33" d="M79.351,96.313h-4l0.004-10.94l0.986-15.374l21.851-21.972l1.409,1.202
					c0.089,0.076,0.147,0.126,2.5,2.55c1.637,1.554,2.788,3.835,3.188,6.226l1.989-2l5.737-6.097l0.025-16.54
					c0.816-5.054,4.529-10.17,10.046-10.173l2.59,0.002c0.131,0,0.26,0.009,0.388,0.02l1.894,0.121L128,25.237l-0.331,31.173
					l-23.287,39.303l-3.441-2.039l22.74-38.379l0.298-28.1l-0.893-0.002c-3.195,0.001-5.493,3.404-6.07,6.66v17.639l-6.863,7.292
					l-6.477,6.514c-0.141,0.18-0.291,0.354-0.45,0.523L91.942,77.118l-2.982-2.655l0.228-0.267l11.48-11.546
					c1.535-2.196,0.628-6.123-1.381-8.031c-0.026-0.027-0.486-0.5-0.994-1.023L80.236,71.754l-0.886,13.811V96.313z"/>
			</g>
			<g>
				<polygon fill="#282D33" points="111.377,120.492 107.378,120.492 107.378,97.823 71.118,97.823 71.118,120.492 67.119,120.492 
					67.119,93.823 111.377,93.823 				"/>
			</g>
		</g>
	</g>
	<g>
		<g>
			<g>
				<g>
					<path fill="#282D33" d="M64.359,65.041L38.232,38.763c-7.043-7.081-7.043-18.605,0.001-25.688l0.238-0.24
						c3.415-3.436,7.957-5.327,12.789-5.327c4.832,0,9.374,1.892,12.79,5.327l0.308,0.31l0.305-0.308
						c3.419-3.437,7.962-5.328,12.793-5.328c4.832,0,9.373,1.892,12.788,5.327l0.24,0.242c7.041,7.082,7.04,18.605-0.002,25.688
						L64.359,65.041z M51.26,11.507c-3.759,0-7.293,1.473-9.952,4.147l-0.239,0.24c-5.498,5.529-5.498,14.523,0,20.05l23.291,23.425
						l23.287-23.424c5.497-5.528,5.497-14.522,0.001-20.05l-0.24-0.242c-2.656-2.672-6.191-4.145-9.95-4.145
						c-3.76,0-7.295,1.473-9.956,4.147l-3.14,3.164l-3.146-3.165C58.555,12.98,55.02,11.507,51.26,11.507z"/>
				</g>
			</g>
		</g>
	</g>
</g>
</svg>
