<?xml version="1.0" encoding="utf-8"?>
<!-- Generator: Adobe Illustrator 21.0.0, SVG Export Plug-In . SVG Version: 6.00 Build 0)  -->
<svg version="1.1" id="Layer_1" xmlns="http://www.w3.org/2000/svg" xmlns:xlink="http://www.w3.org/1999/xlink" x="0px" y="0px"
	 viewBox="0 0 512 512" style="enable-background:new 0 0 512 512;" xml:space="preserve">
<style type="text/css">
	.st0{fill:#71CCE0;}
	.st1{fill:#DFDFDF;}
	.st2{fill:#4A555F;}
	.st3{fill:#FFD452;}
	.st4{fill:#F58E6F;}
	.st5{fill:#FFFFFF;}
	.st6{fill:none;}
</style>
<g>
	<g>
		<g>
			<path class="st1" d="M365.643,312.503l-6.009-16.866c-3.19-8.92-9.596-16.758-18.033-22.065l-18.184-11.421l-32.406-20.375
				c-9.373-5.893-15.045-16.202-15.007-27.273l0.051-14.823l3.038-12.634c1.394-5.796,8.953-7.272,12.424-2.426l16.263,22.702
				c0.197-0.336,0.316-0.815,0.316-1.287c0-0.489-0.124-0.965-0.277-1.224L265.74,136.4l0.019-6.327H233.67l-0.023,7.061
				l-11.128,14.027c-5.89,7.435-9.151,17.018-9.185,26.982l-0.065,21.471l-0.243,65.255l-14.101,7.345l-11.119,2.742
				c-6.35,1.566-11.615-5.034-8.676-10.877l11.832-23.525l-0.078-0.005c-0.382,0-0.813,0.116-1.151,0.293
				c-0.47,0.249-0.855,0.593-1.004,0.832l-41.01,69.059l-5.612,2.921l14.901,28.414l6.261-3.271l17.59,3.357
				c2.465,0.463,5.014,0.698,7.574,0.698c7.055,0,14.178-1.77,20.604-5.121l19.045-9.92l44.756-23.271l17.28,10.86l8.405,8.478
				c4.494,4.533,1.569,12.249-4.801,12.663l-26.848,1.746c0.134,0.265,0.446,0.65,0.88,0.924c0.421,0.26,0.901,0.415,1.365,0.44
				l80.169,0.468l5.362,3.368l16.974-27.225L365.643,312.503z"/>
		</g>
	</g>
	<g>
		<g>
			<g>
				<path class="st2" d="M199.085,57.21v65.344h102.973V57.21H199.085z M295.62,116.115h-90.095V63.649h90.095V116.115z"/>
			</g>
		</g>
	</g>
	<g>
		<g>
			<rect x="213.038" y="71.162" class="st3" width="75.07" height="37.441"/>
		</g>
	</g>
	<g>
		<g>
			<g>
				<path class="st2" d="M377.162,303.262l-4.391-12.324c-4.238-11.849-12.673-22.213-23.749-29.18L289.92,224.61l0.062-18.175
					l6.55,9.14c2.723,3.791,6.821,5.962,11.248,5.962c0.013,0,0.025,0,0.036,0c4.448-0.012,8.558-2.213,11.277-6.042
					c1.905-2.687,2.956-6.047,2.956-9.461c0-3.017-0.803-5.956-2.346-8.534l-40.002-65.029l0.052-16.351h-59.992l-0.051,16.131
					l-8.128,10.247c-7.823,9.875-12.155,22.517-12.202,35.602l-0.174,50.974c-1.803-1.222-3.926-2.029-6.246-2.338
					c-3.258-0.441-6.723,0.19-9.772,1.785c-2.666,1.415-4.888,3.485-6.456,6.028l-38.981,65.644l-14.501,7.551l27.876,53.138
					l14.298-7.469l12.859,2.453c12.401,2.331,25.61,0.282,37.2-5.76l40.689-21.175c-0.516,0.577-0.985,1.203-1.4,1.875
					c-2.339,3.782-2.637,8.432-0.823,12.74c1.247,3.008,3.536,5.678,6.479,7.539c2.544,1.569,5.443,2.44,8.454,2.518l76.354,0.446
					l13.849,8.7l31.739-50.904L377.162,303.262z M357.04,353.859l-9.931-6.239l-78.124-0.455c-1.807-0.047-3.599-0.588-5.146-1.543
					c-1.798-1.137-3.199-2.75-3.947-4.557c-1.002-2.38-0.87-4.885,0.358-6.872c1.23-1.988,3.41-3.225,5.984-3.391l26.843-1.748
					l-7.422-7.487l-13.17-8.374l-59.978,31.203c-10.315,5.379-22.049,7.208-33.024,5.144l-15.052-2.871l-10.592,5.533
					l-21.885-41.729l10.396-5.413l39.893-67.176c0.939-1.526,2.31-2.796,3.945-3.664c1.864-0.974,3.964-1.362,5.917-1.1
					c2.553,0.341,4.643,1.722,5.737,3.789c1.094,2.069,1.058,4.577-0.095,6.876l-12.053,23.955l10.183-2.51l9.655-4.926
					l0.287-82.181c0.042-11.646,3.88-22.877,10.808-31.624l9.514-11.993l0.038-11.945h47.114l-0.036,11.725l40.941,66.554
					c0.922,1.545,1.411,3.341,1.411,5.195c0,2.091-0.629,4.127-1.767,5.734c-1.499,2.11-3.702,3.323-6.043,3.33
					c-0.006,0-0.012,0-0.019,0c-2.329,0-4.521-1.195-6.016-3.276l-15.651-21.844l-2.461,10.238l-0.185,27.944l62.126,39.048
					c9.86,6.202,17.358,15.4,21.112,25.894l5.14,14.424l10.12,6.356L357.04,353.859z M264.723,324.486l7.46-3.879l4.838,3.04
					l-11.206,0.728C265.448,324.4,265.083,324.436,264.723,324.486z M199.111,255.402l-0.004,0.987l-0.667,0.347L199.111,255.402z"
					/>
			</g>
		</g>
	</g>
	<g>
		<g>
			<g>
				<path class="st2" d="M396.308,290.896l-54.484,87.378l55.45,34.574l54.482-87.377L396.308,290.896z M395.216,403.978
					l-44.521-27.76l47.671-76.451l44.52,27.761L395.216,403.978z"/>
			</g>
		</g>
	</g>
	<g>
		<g>
			
				<rect x="359.255" y="333.153" transform="matrix(0.5291 -0.8486 0.8486 0.5291 -111.7357 502.4004)" class="st3" width="75.07" height="37.44"/>
		</g>
	</g>
	<g>
		<g>
			<g>
				<path class="st2" d="M319.704,197.5l-40.002-65.029l0.052-16.351h-59.992l-0.051,16.131l-8.128,10.247
					c-7.823,9.875-12.155,22.517-12.202,35.602l-0.3,85.533c-0.027,8.24,6.121,14.965,13.703,14.992
					c2.698,0.113,5.198-0.824,7.324-2.273l-0.013,3.1c-0.027,8.21,6.114,14.937,13.702,14.992c0.017,0,0.034,0,0.05,0
					c3.27,0,6.292-1.252,8.664-3.349c2.226,4.96,6.909,8.394,12.321,8.414c0.017,0,0.033,0,0.05,0c3.721,0,7.202-1.581,9.812-4.455
					c1.57-1.732,2.708-3.815,3.35-6.084c2.229,1.721,4.947,2.738,7.877,2.748c3.544-0.006,6.764-1.351,9.315-3.875
					c2.838-2.808,4.475-6.813,4.488-10.988l0.258-70.425l6.552,9.143c2.723,3.791,6.821,5.962,11.248,5.962c0.013,0,0.025,0,0.036,0
					c4.448-0.012,8.558-2.213,11.277-6.042c1.905-2.687,2.956-6.047,2.956-9.461C322.049,203.017,321.247,200.078,319.704,197.5z
					 M313.843,211.769c-1.499,2.11-3.702,3.323-6.043,3.33c-0.006,0-0.012,0-0.019,0c-2.329,0-4.521-1.195-6.016-3.276
					l-15.647-21.839l-2.553,10.598l-0.281,76.254c-0.009,2.476-0.948,4.82-2.576,6.432c-1.314,1.3-2.979,2.013-4.706,2.013
					c-0.017,0-0.031,0-0.046,0c-4.019-0.015-7.288-3.828-7.288-8.5l-6.439-0.008v0.008c0,0.001,0,0.001,0,0.002l-0.021,7.821
					c-0.008,2.336-0.819,4.511-2.285,6.126c-1.371,1.511-3.161,2.342-5.043,2.342c-0.009,0-0.023,0-0.023,0
					c-4.035-0.015-7.303-3.842-7.288-8.529l0.021-4.854c0-0.046,0-0.093,0-0.139l-6.439-0.014l-0.036,0.616
					c-0.264,4.409-3.454,7.854-7.256,7.854c-0.008,0-0.017,0-0.025,0c-4.039-0.029-7.313-3.857-7.298-8.529l0.065-15.747
					l-6.439-0.022c-0.031,4.682-3.316,8.479-7.328,8.479c-0.008,0-0.023,0-0.023,0c-4.035-0.015-7.303-3.842-7.288-8.531l0.3-85.534
					c0.042-11.646,3.88-22.877,10.808-31.624l9.514-11.993l0.038-11.945h47.114l-0.036,11.725l40.941,66.554
					c0.922,1.545,1.411,3.341,1.411,5.195C315.61,208.125,314.981,210.162,313.843,211.769z"/>
			</g>
		</g>
	</g>
	<g>
		<g>
			<rect x="262.122" y="212.867" class="st2" width="6.439" height="63.878"/>
		</g>
	</g>
	<g>
		<g>
			<rect x="241.106" y="212.867" class="st2" width="6.439" height="69.081"/>
		</g>
	</g>
	<g>
		<g>
			<rect x="220.151" y="212.867" class="st2" width="6.439" height="51.484"/>
		</g>
	</g>
	<g>
		<g>
			<g>
				<path class="st2" d="M297.21,244.578c-1.972-3.779-5.664-6.315-10.124-6.955l-3.666-0.526l-0.09,30.251l6.978-3.658
					C297.609,259.889,300.707,251.319,297.21,244.578z M289.803,256.149l0.032-10.614c0.689,0.553,1.257,1.233,1.664,2.014
					C292.937,250.319,292.148,253.739,289.803,256.149z"/>
			</g>
		</g>
	</g>
	<g>
		<g>
			<g>
				<path class="st2" d="M292.842,286.093l2.744-1.432c7.286-3.793,10.386-12.351,6.907-19.091
					c-3.042-5.824-10.151-8.507-16.891-6.39l-2.245,0.705l-0.076,16.952c-0.008,2.476-0.947,4.82-2.576,6.432
					c-1.325,1.31-3.021,1.974-4.751,2.013c-4.021-0.016-7.291-3.828-7.291-8.5l-6.439-0.008l-0.021,7.832
					c-0.008,2.335-0.818,4.511-2.283,6.125c-1.371,1.511-3.161,2.342-5.043,2.342c-0.008,0-0.017,0-0.023,0
					c-4.035-0.015-7.305-3.841-7.29-8.542l0.023-4.828c0-0.05,0-0.102,0-0.152l-6.439-0.016l-0.04,0.636
					c-0.061,1.146-0.332,2.247-0.818,3.303c-1.251,2.798-3.712,4.533-6.45,4.533c-0.48-0.009-0.996-0.064-1.53-0.204
					c-3.364-0.842-5.796-4.343-5.781-8.32l0.065-15.751l-6.439-0.021c-0.029,4.681-3.316,8.479-7.326,8.479
					c-0.008,0-0.023,0-0.023,0c-4.035-0.016-7.305-3.843-7.29-8.529l0.046-10.635l-7.123,3.709l5.062-10.062
					c2.101-4.188,2.113-8.845,0.031-12.778c-2.077-3.93-5.934-6.54-10.572-7.159c-3.258-0.441-6.723,0.19-9.772,1.785
					c-2.666,1.415-4.888,3.485-6.456,6.028l-38.981,65.644l-14.501,7.551l27.87,53.141l14.304-7.473l12.859,2.453
					c12.401,2.331,25.61,0.282,37.2-5.76l75.875-39.473c3.477-1.811,6.125-4.757,7.451-8.296c1.373-3.661,1.178-7.502-0.545-10.81
					C297.032,289.15,295.123,287.308,292.842,286.093z M289.721,276.863l0.052-11.951c3.031-0.174,5.733,1.189,7.003,3.624
					c1.851,3.583-0.017,8.255-4.163,10.413l-3.373,1.76C289.553,279.464,289.717,278.172,289.721,276.863z M292.781,300.076
					c-0.769,2.049-2.331,3.77-4.396,4.844l-75.879,39.475c-10.315,5.379-22.049,7.208-33.024,5.144l-15.052-2.871l-10.594,5.534
					l-21.883-41.73l10.396-5.413l39.893-67.176c0.939-1.526,2.31-2.796,3.945-3.664c1.864-0.974,3.964-1.362,5.917-1.1
					c2.553,0.341,4.643,1.722,5.737,3.789c1.094,2.069,1.058,4.577-0.095,6.876l-12.053,23.955l10.183-2.51l3.199-1.564
					c-0.013,8.226,6.129,14.937,13.704,14.965c0.017,0,0.032,0,0.046,0c2.668,0,5.165-0.834,7.28-2.275l-0.017,3.1
					c-0.027,7.019,4.357,13.022,10.612,14.585c1.042,0.277,2.048,0.422,3.155,0.409c3.199,0,6.25-1.229,8.653-3.342
					c2.226,4.957,6.906,8.388,12.318,8.407c3.717,0.019,7.24-1.569,9.862-4.455c1.572-1.734,2.708-3.815,3.348-6.084
					c2.23,1.72,4.949,2.736,7.879,2.748c1.97,0.022,3.895-0.427,5.655-1.277l0.584,1.216c4.075-1.801,8.634-0.554,10.395,2.836
					C293.423,296.168,293.502,298.149,292.781,300.076z"/>
			</g>
		</g>
	</g>
	<g>
		<g>
			
				<rect x="232.162" y="297.529" transform="matrix(0.8854 -0.4648 0.4648 0.8854 -110.233 154.3274)" class="st2" width="51.485" height="6.439"/>
		</g>
	</g>
	<g>
		<g>
			<g>
				<path class="st2" d="M118.574,285.015l-57.859,30.371l47.858,91.175l57.859-30.372L118.574,285.015z M69.41,318.094
					l46.456-24.385l41.872,79.772l-46.456,24.385L69.41,318.094z"/>
			</g>
		</g>
	</g>
	<g>
		<g>
			
				<rect x="94.854" y="308.253" transform="matrix(0.8854 -0.4648 0.4648 0.8854 -147.7073 92.4097)" class="st3" width="37.441" height="75.07"/>
		</g>
	</g>
	<g>
		<g>
			<g>
				<path class="st2" d="M37.817,205.019l-6.271-1.461c-0.493,2.116-0.956,4.244-1.39,6.382l6.309,1.281
					C36.887,209.143,37.337,207.076,37.817,205.019z M41.047,192.746l-6.179-1.815c-0.612,2.084-1.197,4.182-1.75,6.29l6.225,1.639
					C39.884,196.811,40.452,194.772,41.047,192.746z M35.296,217.454l-6.347-1.096c-0.369,2.139-0.71,4.288-1.023,6.446l6.372,0.922
					C34.602,221.626,34.935,219.537,35.296,217.454z M32.38,242.662l-6.426-0.379c-0.128,2.167-0.227,4.341-0.292,6.523L32.097,249
					C32.162,246.879,32.256,244.766,32.38,242.662z M31.99,256v-0.661h-6.439V256c0,1.958,0.023,3.91,0.071,5.858l6.439-0.161
					C32.013,259.803,31.99,257.904,31.99,256z M44.976,180.659l-6.062-2.167c-0.733,2.053-1.44,4.121-2.117,6.202l6.125,1.99
					C43.578,184.663,44.263,182.654,44.976,180.659z M60.822,145.987l-5.605-3.171c-1.073,1.898-2.119,3.813-3.138,5.742
					l5.693,3.006C58.762,149.689,59.778,147.831,60.822,145.987z M49.598,168.802l-5.928-2.517c-0.854,2.01-1.675,4.034-2.467,6.071
					l5.999,2.337C47.973,172.715,48.77,170.752,49.598,168.802z M67.385,135.098l-5.421-3.477c-1.174,1.832-2.327,3.682-3.452,5.548
					l5.513,3.326C65.121,138.679,66.241,136.88,67.385,135.098z M82.299,114.543l-4.989-4.071c-1.377,1.687-2.729,3.395-4.058,5.121
					l5.102,3.928C79.645,117.843,80.959,116.184,82.299,114.543z M74.55,124.608l-5.211-3.781c-1.281,1.763-2.534,3.544-3.765,5.345
					l5.317,3.63C72.087,128.054,73.307,126.323,74.55,124.608z M32.307,268.041l-6.431,0.34c0.115,2.18,0.262,4.352,0.438,6.516
					l6.418-0.524C32.561,272.271,32.418,270.16,32.307,268.041z M54.886,157.23l-5.776-2.844c-0.964,1.956-1.899,3.927-2.807,5.913
					l5.857,2.677C53.042,161.046,53.951,159.131,54.886,157.23z M73.629,386.11l-5.24,3.744c1.266,1.77,2.555,3.521,3.867,5.253
					l5.131-3.892C76.109,389.531,74.857,387.83,73.629,386.11z M90.593,104.931l-4.754-4.343c-1.47,1.608-2.914,3.235-4.337,4.883
					l4.875,4.207C87.759,108.076,89.166,106.495,90.593,104.931z M33.336,280.692l-6.401,0.702c0.239,2.169,0.507,4.329,0.805,6.479
					l6.376-0.882C33.826,284.9,33.566,282.8,33.336,280.692z M81.284,396.21l-5.018,4.037c1.365,1.696,2.75,3.371,4.159,5.027
					l4.905-4.173C83.959,399.49,82.611,397.86,81.284,396.21z M60.082,364.698l-5.626,3.136c1.059,1.898,2.141,3.78,3.247,5.646
					l5.538-3.287C62.164,368.378,61.111,366.546,60.082,364.698z M93.729,419.629c1.545,1.534,3.113,3.046,4.702,4.534l4.402-4.699
					c-1.543-1.446-3.065-2.914-4.568-4.404L93.729,419.629z M89.507,405.872l-4.783,4.31c1.455,1.616,2.935,3.212,4.435,4.788
					l4.662-4.442C92.362,408.996,90.924,407.444,89.507,405.872z M66.551,375.594l-5.441,3.444c1.163,1.837,2.35,3.657,3.561,5.457
					l5.345-3.593C68.838,379.15,67.681,377.381,66.551,375.594z M54.247,353.465l-5.793,2.809c0.947,1.955,1.92,3.895,2.92,5.819
					l5.714-2.966C56.116,357.255,55.169,355.367,54.247,353.465z M37.526,305.716l-6.28,1.419c0.48,2.129,0.994,4.245,1.532,6.349
					l6.238-1.601C38.49,309.839,37.994,307.784,37.526,305.716z M35.071,293.257l-6.351,1.073c0.365,2.151,0.752,4.29,1.172,6.418
					l6.318-1.241C35.803,297.433,35.424,295.351,35.071,293.257z M40.681,318.002l-6.188,1.784c0.604,2.094,1.234,4.176,1.893,6.246
					l6.138-1.954C41.882,322.066,41.268,320.04,40.681,318.002z M44.533,330.093l-6.074,2.136c0.721,2.055,1.469,4.098,2.245,6.127
					l6.016-2.299C45.965,334.082,45.238,332.093,44.533,330.093z M49.061,341.925l-5.945,2.476c0.834,2.006,1.696,3.996,2.584,5.973
					l5.874-2.639C50.71,345.812,49.874,343.877,49.061,341.925z M360.844,50.729c-1.941-0.995-3.897-1.961-5.869-2.9l-2.767,5.814
					c1.914,0.913,3.815,1.852,5.702,2.817L360.844,50.729z M455.208,153.448l5.723-2.953c-0.998-1.931-2.019-3.845-3.067-5.744
					l-5.638,3.111C453.245,149.707,454.24,151.569,455.208,153.448z M460.692,164.852l5.882-2.62
					c-0.885-1.986-1.796-3.956-2.738-5.91l-5.802,2.791C458.946,161.011,459.833,162.925,460.692,164.852z M449.086,142.36
					l5.546-3.268c-1.103-1.874-2.234-3.731-3.392-5.569l-5.45,3.429C446.915,138.738,448.013,140.541,449.086,142.36z
					 M442.343,131.635l5.354-3.58c-1.209-1.808-2.444-3.598-3.702-5.369l-5.249,3.731
					C439.97,128.138,441.167,129.878,442.343,131.635z M465.52,176.566l6.02-2.281c-0.771-2.038-1.572-4.063-2.402-6.073
					l-5.953,2.455C463.989,172.621,464.769,174.587,465.52,176.566z M435.004,121.303l5.14-3.88c-1.312-1.736-2.643-3.452-4-5.15
					l-5.031,4.018C432.433,117.943,433.73,119.613,435.004,121.303z M477.975,225.669l6.38-0.859
					c-0.292-2.163-0.614-4.317-0.966-6.46l-6.355,1.046C477.377,221.478,477.691,223.569,477.975,225.669z M479.322,238.293
					l6.418-0.507c-0.172-2.175-0.371-4.341-0.602-6.497l-6.401,0.681C478.959,234.069,479.154,236.177,479.322,238.293z
					 M427.087,111.392l4.917-4.159c-1.407-1.661-2.834-3.303-4.287-4.923l-4.796,4.297
					C424.333,108.183,425.723,109.777,427.087,111.392z M479.955,250.97l6.439-0.145c-0.05-2.181-0.128-4.356-0.237-6.523
					l-6.431,0.322C479.832,246.731,479.909,248.848,479.955,250.97z M469.678,188.555l6.142-1.935
					c-0.654-2.079-1.339-4.146-2.052-6.199l-6.083,2.111C468.376,184.526,469.041,186.535,469.678,188.555z M475.918,213.148
					l6.322-1.224c-0.415-2.142-0.859-4.273-1.333-6.393l-6.284,1.406C475.084,208.996,475.516,211.066,475.918,213.148z
					 M473.147,200.763l6.242-1.583c-0.537-2.114-1.1-4.215-1.693-6.305l-6.196,1.759
					C472.076,196.665,472.627,198.708,473.147,200.763z M372.31,57.013c-1.88-1.099-3.775-2.175-5.688-3.224l-3.096,5.647
					c1.861,1.02,3.706,2.066,5.536,3.136L372.31,57.013z M324.512,35.908c-2.075-0.647-4.165-1.263-6.265-1.851l-1.736,6.2
					c2.042,0.571,4.069,1.171,6.085,1.798L324.512,35.908z M336.902,40.154c-2.04-0.766-4.096-1.504-6.165-2.212l-2.088,6.091
					c2.01,0.689,4.008,1.406,5.993,2.149L336.902,40.154z M311.936,32.388c-2.106-0.527-4.228-1.023-6.357-1.49l-1.379,6.29
					c2.071,0.453,4.129,0.936,6.177,1.446L311.936,32.388z M118.524,79.126l-3.958-5.081c-1.717,1.337-3.413,2.696-5.089,4.079
					l4.096,4.968C115.204,81.748,116.853,80.426,118.524,79.126z M349.03,45.1c-1.995-0.881-4.003-1.736-6.028-2.56l-2.432,5.963
					c1.966,0.802,3.92,1.631,5.857,2.487L349.03,45.1z M423.297,97.514c-1.495-1.58-3.016-3.139-4.557-4.676l-4.549,4.559
					c1.499,1.494,2.975,3.008,4.427,4.542L423.297,97.514z M108.735,87.197l-4.23-4.855c-1.641,1.432-3.259,2.885-4.858,4.362
					l4.368,4.731C105.568,90,107.14,88.587,108.735,87.197z M404.305,79.606c-1.667-1.401-3.352-2.78-5.056-4.135l-4.008,5.041
					c1.658,1.317,3.297,2.658,4.917,4.021L404.305,79.606z M394.076,71.478c-1.744-1.305-3.504-2.586-5.284-3.843l-3.714,5.259
					c1.729,1.223,3.444,2.469,5.138,3.738L394.076,71.478z M414.058,88.293c-1.585-1.493-3.19-2.965-4.817-4.413l-4.28,4.811
					c1.58,1.406,3.14,2.836,4.678,4.288L414.058,88.293z M99.42,95.805l-4.502-4.603c-1.555,1.522-3.09,3.065-4.603,4.628
					l4.628,4.477C96.414,98.785,97.906,97.284,99.42,95.805z M103.256,428.559c1.631,1.443,3.278,2.864,4.949,4.261l4.133-4.938
					c-1.624-1.359-3.23-2.741-4.814-4.144L103.256,428.559z M383.402,63.941c-1.813-1.205-3.645-2.386-5.494-3.541l-3.412,5.46
					c1.798,1.124,3.58,2.271,5.343,3.443L383.402,63.941z M33.482,230.018l-6.397-0.744c-0.25,2.159-0.47,4.324-0.658,6.499
					l6.414,0.557C33.026,234.219,33.237,232.114,33.482,230.018z M388.942,436.314l3.828,5.18c1.748-1.292,3.479-2.609,5.19-3.949
					l-3.97-5.068C392.325,433.779,390.645,435.057,388.942,436.314z M378.535,443.556l3.53,5.385
					c1.819-1.192,3.618-2.407,5.402-3.647l-3.677-5.286C382.057,441.213,380.304,442.396,378.535,443.556z M367.747,450.192
					l3.22,5.576c1.88-1.086,3.748-2.197,5.596-3.334l-3.375-5.485C371.39,448.054,369.576,449.136,367.747,450.192z
					 M398.926,428.495l4.112,4.957c1.675-1.39,3.327-2.802,4.961-4.236l-4.247-4.84
					C402.165,425.771,400.555,427.146,398.926,428.495z M408.459,420.125l4.385,4.716c1.591-1.481,3.165-2.984,4.716-4.509
					l-4.515-4.593C411.536,417.222,410.008,418.686,408.459,420.125z M356.604,456.204l2.897,5.75
					c1.941-0.977,3.867-1.981,5.775-3.01l-3.056-5.668C360.362,454.277,358.49,455.252,356.604,456.204z M296.703,476.321
					l1.166,6.332c2.145-0.394,4.278-0.817,6.401-1.27l-1.341-6.297C300.864,475.527,298.789,475.938,296.703,476.321z
					 M309.112,473.676l1.526,6.257c2.119-0.517,4.224-1.061,6.32-1.634l-1.698-6.211
					C313.223,472.645,311.173,473.174,309.112,473.676z M417.508,411.226l4.641,4.465c1.509-1.569,2.995-3.159,4.46-4.771
					l-4.767-4.331C420.419,408.155,418.976,409.701,417.508,411.226z M299.181,29.59c-2.136-0.403-4.278-0.779-6.431-1.124
					l-1.019,6.358c2.094,0.336,4.177,0.701,6.254,1.094L299.181,29.59z M345.146,461.571l2.562,5.907
					c1.995-0.866,3.972-1.759,5.936-2.678l-2.733-5.831C349.005,459.863,347.083,460.73,345.146,461.571z M284.16,478.256
					l0.801,6.389c2.165-0.27,4.322-0.572,6.466-0.904l-0.981-6.364C288.361,477.698,286.267,477.992,284.16,478.256z
					 M333.383,466.285l2.226,6.042c2.046-0.753,4.077-1.534,6.096-2.344l-2.398-5.976
					C337.347,464.793,335.37,465.553,333.383,466.285z M321.354,470.327l1.878,6.16c2.086-0.636,4.157-1.301,6.217-1.992
					l-2.05-6.104C325.397,469.064,323.38,469.71,321.354,470.327z M475.663,300.141l6.313,1.266
					c0.427-2.131,0.824-4.272,1.188-6.424l-6.347-1.08C476.461,295.993,476.078,298.072,475.663,300.141z M477.794,287.636
					l6.376,0.895c0.302-2.148,0.577-4.306,0.82-6.474l-6.397-0.721C478.354,283.445,478.088,285.544,477.794,287.636z
					 M472.822,312.509l6.234,1.62c0.545-2.102,1.062-4.216,1.551-6.341l-6.276-1.444
					C473.855,308.41,473.354,310.466,472.822,312.509z M426.048,401.832l4.884,4.194c1.419-1.652,2.813-3.323,4.184-5.016
					l-5.001-4.054C428.781,398.601,427.425,400.226,426.048,401.832z M480.01,256c0,2.122-0.029,4.237-0.088,6.346l6.435,0.182
					c0.063-2.169,0.092-4.345,0.092-6.528H480.01z M479.215,275.015l6.414,0.549c0.187-2.163,0.337-4.337,0.459-6.517l-6.431-0.359
					C479.54,270.806,479.394,272.915,479.215,275.015z M469.28,324.695l6.129,1.977c0.667-2.069,1.306-4.151,1.914-6.246
					l-6.184-1.796C470.548,320.663,469.93,322.685,469.28,324.695z M465.033,336.698l6.007,2.323
					c0.786-2.035,1.542-4.082,2.272-6.144l-6.07-2.148C466.534,332.733,465.798,334.722,465.033,336.698z M448.308,370.949
					l5.525,3.31c1.12-1.87,2.211-3.756,3.281-5.658l-5.618-3.15C450.461,367.3,449.398,369.132,448.308,370.949z M434.042,391.968
					l5.115,3.909c1.323-1.73,2.622-3.478,3.895-5.245l-5.224-3.765C436.589,388.585,435.327,390.285,434.042,391.968z
					 M441.473,381.663l5.329,3.614c1.222-1.802,2.421-3.621,3.595-5.458l-5.429-3.465
					C443.827,378.141,442.661,379.91,441.473,381.663z M460.111,348.435l5.865,2.656c0.899-1.984,1.773-3.983,2.618-5.996
					l-5.936-2.494C461.834,344.559,460.985,346.503,460.111,348.435z M454.529,359.863l5.702,2.989
					c1.012-1.929,1.998-3.876,2.956-5.837l-5.785-2.828C456.468,356.094,455.513,357.985,454.529,359.863z M169.616,469.709
					c2.021,0.82,4.056,1.609,6.106,2.371l2.243-6.037c-1.992-0.739-3.968-1.507-5.934-2.303L169.616,469.709z M170.914,41.769
					c-2.017,0.802-4.021,1.632-6.01,2.488l2.545,5.915c1.935-0.833,3.884-1.64,5.846-2.421L170.914,41.769z M157.629,464.456
					c1.97,0.931,3.955,1.835,5.955,2.712l2.586-5.898c-1.945-0.852-3.876-1.731-5.792-2.637L157.629,464.456z M113.273,436.942
					c1.708,1.35,3.438,2.675,5.184,3.976l3.849-5.163c-1.7-1.266-3.379-2.555-5.041-3.867L113.273,436.942z M195.684,33.526
					c-2.104,0.569-4.196,1.167-6.278,1.795l1.857,6.165c2.023-0.609,4.056-1.191,6.102-1.743L195.684,33.526z M158.96,46.918
					c-1.971,0.917-3.926,1.859-5.865,2.829l2.88,5.76c1.884-0.942,3.785-1.859,5.701-2.749L158.96,46.918z M181.893,474.272
					c2.065,0.701,4.144,1.375,6.238,2.017l1.891-6.154c-2.031-0.626-4.052-1.279-6.058-1.961L181.893,474.272z M183.182,37.293
					c-2.069,0.69-4.125,1.405-6.167,2.151l2.209,6.049c1.983-0.724,3.98-1.421,5.991-2.09L183.182,37.293z M123.75,444.746
					c1.784,1.252,3.586,2.48,5.406,3.681l3.546-5.375c-1.769-1.167-3.517-2.359-5.25-3.576L123.75,444.746z M125.083,66.327
					c-1.79,1.238-3.562,2.5-5.313,3.786l3.811,5.19c1.702-1.249,3.423-2.476,5.163-3.679L125.083,66.327z M136.009,59.219
					c-1.857,1.133-3.695,2.293-5.517,3.477l3.513,5.397c1.767-1.151,3.555-2.277,5.357-3.379L136.009,59.219z M145.962,458.529
					c1.914,1.043,3.844,2.057,5.789,3.047l2.918-5.741c-1.891-0.961-3.767-1.947-5.63-2.961L145.962,458.529z M147.312,52.742
					c-1.914,1.026-3.815,2.078-5.697,3.157l3.199,5.588c1.832-1.049,3.679-2.072,5.542-3.071L147.312,52.742z M134.66,451.952
					c1.849,1.149,3.718,2.272,5.605,3.369l3.236-5.565c-1.832-1.067-3.647-2.158-5.446-3.274L134.66,451.952z M221.225,28.158
					c-2.155,0.327-4.301,0.683-6.437,1.069l1.144,6.336c2.078-0.375,4.165-0.721,6.261-1.04L221.225,28.158z M260.263,25.589
					c-1.419-0.025-2.838-0.038-4.266-0.038l-2.262,0.011l0.062,6.439l2.203-0.011c1.386,0,2.767,0.013,4.144,0.037L260.263,25.589z
					 M245.879,486.229c2.169,0.094,4.343,0.158,6.527,0.192l0.096-6.439c-2.121-0.031-4.236-0.093-6.343-0.186L245.879,486.229z
					 M258.85,479.991l0.084,6.439c2.18-0.029,4.352-0.086,6.517-0.173l-0.26-6.435C263.084,479.907,260.971,479.964,258.85,479.991z
					 M271.529,479.48l0.44,6.425c2.178-0.149,4.347-0.329,6.506-0.538l-0.621-6.41C275.755,479.161,273.648,479.335,271.529,479.48z
					 M273.304,26.193c-2.163-0.162-4.334-0.292-6.517-0.394l-0.297,6.433c2.119,0.098,4.232,0.225,6.336,0.381L273.304,26.193z
					 M247.216,25.715c-2.182,0.083-4.356,0.195-6.521,0.337l0.423,6.425c2.106-0.138,4.222-0.246,6.341-0.327L247.216,25.715z
					 M232.86,485.301c2.159,0.215,4.327,0.4,6.504,0.556l0.457-6.423c-2.115-0.151-4.224-0.332-6.324-0.541L232.86,485.301z
					 M207.069,481.243c2.124,0.461,4.26,0.89,6.406,1.29l1.178-6.33c-2.083-0.388-4.157-0.806-6.217-1.252L207.069,481.243z
					 M208.38,30.478c-2.134,0.449-4.26,0.927-6.37,1.434l1.505,6.261c2.052-0.493,4.115-0.958,6.189-1.394L208.38,30.478z
					 M286.288,27.525c-2.15-0.283-4.312-0.536-6.483-0.759l-0.658,6.406c2.108,0.217,4.211,0.463,6.303,0.738L286.288,27.525z
					 M194.395,478.12c2.094,0.581,4.201,1.132,6.317,1.654l1.543-6.253c-2.059-0.507-4.106-1.042-6.142-1.606L194.395,478.12z
					 M234.187,26.57c-2.174,0.204-4.337,0.438-6.49,0.702l0.784,6.391c2.094-0.256,4.198-0.483,6.309-0.683L234.187,26.57z
					 M219.908,483.639c2.145,0.337,4.301,0.646,6.466,0.923l0.818-6.387c-2.103-0.269-4.197-0.569-6.282-0.898L219.908,483.639z"/>
			</g>
		</g>
	</g>
	<g>
		<g>
			<g>
				<path class="st2" d="M256.001,0C114.841,0,0,114.841,0,256s114.841,256,256.001,256c141.158,0,256-114.84,256-256
					S397.159,0,256.001,0z M256.001,505.561C118.392,505.561,6.438,393.609,6.438,256S118.392,6.439,256.001,6.439
					c137.607,0,249.561,111.953,249.561,249.561S393.608,505.561,256.001,505.561z"/>
			</g>
		</g>
	</g>
	<g>
		<g>
			<path class="st2" d="M325.587,111.267l-2.792,5.802c53.455,25.732,87.217,80.671,86.012,139.963
				c-0.155,7.691-0.891,15.399-2.188,22.912l6.347,1.094c1.35-7.83,2.117-15.862,2.281-23.876
				C416.5,195.356,381.309,138.089,325.587,111.267z"/>
		</g>
	</g>
	<g>
		<g>
			<path class="st2" d="M179.084,123.616l-3.31-5.523c-47.104,28.224-75.89,77.81-77.005,132.643
				c-0.13,6.505,0.136,13.066,0.792,19.5l6.406-0.654c-0.629-6.174-0.885-12.472-0.759-18.716
				C106.278,198.263,133.895,150.693,179.084,123.616z"/>
		</g>
	</g>
	<g>
		<g>
			<path class="st2" d="M331.125,386.488c-23.459,13.149-50.097,19.825-77.2,19.259c-26.23-0.533-51.945-7.855-74.366-21.176
				l-3.291,5.536c23.375,13.888,50.185,21.522,77.526,22.077c1.078,0.022,2.153,0.033,3.228,0.033
				c27.082,0,53.725-6.927,77.25-20.112L331.125,386.488z"/>
		</g>
	</g>
	<g>
		<g>
			<polygon class="st2" points="148.396,116.119 148.06,122.55 173.622,123.88 169.22,148.69 175.559,149.816 181.235,117.828 			
				"/>
		</g>
	</g>
	<g>
		<g>
			<polygon class="st2" points="429.024,258.776 410.029,275.934 395.572,255.297 390.298,258.993 408.939,285.598 433.342,263.555 
							"/>
		</g>
	</g>
	<g>
		<g>
			<polygon class="st2" points="201.119,383.396 199.295,377.221 173.215,384.925 183.101,411.663 189.142,409.43 181.642,389.15 
							"/>
		</g>
	</g>
</g>
</svg>
