<svg width="323" height="50" viewBox="0 0 323 50" fill="none" xmlns="http://www.w3.org/2000/svg">
<g clip-path="url(#clip0_4111_1929)">
<path d="M93.8663 2.14844L91.8386 1.79688V1.21094H96.1194C97.3586 1.21094 98.3725 1.5625 99.2738 2.14844C100.062 2.73438 100.626 3.55469 100.964 4.375L106.371 18.7891L109.525 9.17969L106.822 2.14844L104.794 1.79688V1.21094H109.075C110.314 1.21094 111.328 1.44531 112.116 2.03125C112.905 2.61719 113.468 3.4375 113.919 4.375L119.326 18.7891L124.508 2.96875L121.805 1.79688V1.21094H128.451V1.79688L125.635 2.96875L117.524 27.8125H116.397L109.976 10.7031L104.456 27.8125H103.329L93.8663 2.14844Z" fill="#284D7A"/>
<path d="M124.621 26.7578L127.437 25.5859L137.351 0.742188H138.477L148.616 26.1719L150.419 26.7578V27.3438H146.138C144.899 27.3438 143.885 27.1094 143.096 26.5234C142.308 25.9375 141.744 25.1172 141.294 24.1797L139.491 19.7266H130.93L128.564 25.7031L131.268 26.875V27.3438H124.621V26.7578ZM131.268 18.7891H139.153L135.211 8.94531L131.268 18.7891Z" fill="#284D7A"/>
<path d="M155.376 26.7578L157.516 26.1719V2.14844H153.348C153.348 3.67188 152.897 5.07813 152.109 6.48438C151.771 7.07031 151.433 7.53906 150.982 7.89063H149.856V1.21094H170.809V7.89063H169.683C169.232 7.53906 168.782 7.07031 168.444 6.48438C167.655 5.19531 167.317 3.67188 167.317 2.14844H163.149V26.1719L165.289 26.7578V27.3438H155.376V26.7578Z" fill="#284D7A"/>
<path d="M174.865 26.7578L177.005 26.1719V2.38281L174.865 1.79688V1.21094H194.016V7.89063H192.89C192.439 7.53906 191.988 7.07031 191.65 6.48438C190.862 5.19531 190.524 3.67188 190.524 2.14844H182.863V13.8672H187.032C187.144 12.9297 187.482 11.9922 187.933 11.1719C188.158 10.8203 188.383 10.4688 188.609 10.1172H189.735V18.5547H188.609C188.383 18.2031 188.158 17.8516 187.933 17.5C187.482 16.6797 187.144 15.7422 187.032 14.8047H182.863V26.4063H191.312C191.312 24.8828 191.65 23.3594 192.439 22.0703C192.777 21.4844 193.115 21.0156 193.678 20.6641H194.805V27.3438H174.865V26.7578Z" fill="#284D7A"/>
<path d="M198.297 26.7578L200.437 26.1719V2.38281L198.297 1.79688V1.21094H207.76C211.816 1.21094 214.745 1.79688 216.547 3.08594C218.349 4.375 219.251 6.13281 219.251 8.47656C219.251 10 218.8 11.2891 218.012 12.2266C217.223 13.1641 216.209 13.8672 214.97 14.3359C213.618 14.8047 212.266 15.1563 210.802 15.1563V15.3906C211.703 15.3906 212.491 15.625 213.167 15.8594C214.857 16.4453 215.984 17.3828 216.547 18.7891L219.814 26.2891L221.616 26.875V27.3438H216.547C214.632 27.3438 213.167 26.2891 212.266 24.1797L208.661 15.7422H206.295V26.1719L208.774 26.7578V27.3438H198.184V26.7578H198.297ZM207.873 14.8047C209.562 14.8047 210.914 14.2188 211.816 13.1641C212.717 12.1094 213.28 10.4688 213.28 8.47656C213.28 6.48438 212.829 4.84375 211.816 3.78906C210.914 2.73438 209.562 2.14844 207.873 2.14844H206.408V14.8047H207.873Z" fill="#284D7A"/>
<path d="M226.01 26.7578L228.15 26.1719V2.38281L226.01 1.79688V1.21094H235.698C239.303 1.21094 242.007 1.79688 243.697 2.96875C245.387 4.14063 246.288 5.78125 246.288 7.65625C246.288 8.94531 245.95 10.1172 245.161 10.9375C244.373 11.7578 243.471 12.3438 242.345 12.8125C241.106 13.2813 239.754 13.5156 238.402 13.5156V13.75C240.092 13.8672 241.669 14.1016 242.908 14.5703C244.26 15.0391 245.274 15.7422 246.175 16.6797C247.076 17.6172 247.527 18.7891 247.527 20.3125C247.527 22.5391 246.626 24.2969 244.936 25.4688C243.246 26.7578 240.317 27.3438 236.487 27.3438H226.123V26.7578H226.01ZM235.698 13.1641C236.487 13.1641 237.275 12.9297 237.951 12.4609C238.627 11.9922 239.191 11.4063 239.641 10.4688C240.092 9.64844 240.317 8.71094 240.317 7.65625C240.317 6.60156 240.092 5.54688 239.641 4.72656C239.191 3.90625 238.627 3.20313 237.951 2.73438C237.275 2.26563 236.487 2.03125 235.698 2.03125H234.121V13.0469H235.698V13.1641ZM236.374 26.4063C237.839 26.4063 239.078 25.8203 239.979 24.7656C240.88 23.7109 241.331 22.1875 241.331 20.1953C241.331 18.3203 240.88 16.7969 239.979 15.625C239.078 14.5703 237.839 13.9844 236.374 13.9844H234.008V26.2891H236.374V26.4063Z" fill="#284D7A"/>
<path d="M254.624 25.3516C252.822 23.5937 251.921 21.1328 251.921 18.0859V2.38281L249.78 1.79688V1.21094H260.032V1.79688L257.891 2.38281V17.9688C257.891 21.1328 258.342 23.4766 259.356 24.8828C260.257 26.2891 261.721 26.9922 263.524 26.9922C264.65 26.9922 265.664 26.6406 266.678 25.9375C267.692 25.2344 268.481 24.1797 269.044 22.7734C269.607 21.3672 269.945 19.8437 269.945 18.0859V2.85156L267.129 1.67969V1.09375H274.001V1.67969L271.184 2.85156V17.9688C271.184 19.9609 270.846 21.7188 270.058 23.2422C269.382 24.7656 268.368 25.9375 267.129 26.6406C265.89 27.4609 264.425 27.8125 262.848 27.8125C259.13 27.9297 256.427 26.9922 254.624 25.3516Z" fill="#284D7A"/>
<path d="M275.916 26.7578L278.056 26.1719V2.38281L275.916 1.79688V1.21094H285.379C289.434 1.21094 292.363 1.79688 294.166 3.08594C295.968 4.375 296.87 6.13281 296.87 8.47656C296.87 10 296.419 11.2891 295.63 12.2266C294.842 13.1641 293.828 13.8672 292.589 14.3359C291.237 14.8047 289.885 15.1563 288.421 15.1563V15.3906C289.322 15.3906 290.11 15.625 290.786 15.8594C292.476 16.4453 293.603 17.3828 294.166 18.7891L297.433 26.2891L299.235 26.875V27.3438H294.166C292.251 27.3438 290.786 26.2891 289.885 24.1797L286.28 15.7422H283.914V26.1719L286.393 26.7578V27.3438H275.916V26.7578ZM285.492 14.8047C287.181 14.8047 288.533 14.2188 289.434 13.1641C290.336 12.1094 290.899 10.4688 290.899 8.47656C290.899 6.48438 290.448 4.84375 289.434 3.78906C288.533 2.73438 287.181 2.14844 285.492 2.14844H284.027V14.8047H285.492Z" fill="#284D7A"/>
<path d="M305.093 26.7578L307.234 26.1719V17.6172L299.911 2.26563L298.109 1.67969V1.09375H302.615C303.854 1.09375 304.868 1.32812 305.657 1.91406C306.445 2.5 307.009 3.20312 307.459 4.25781L312.754 15.2734L318.161 2.73438L315.458 1.5625V0.976562H322.33V1.5625L319.513 2.73438L313.205 17.1484V26.1719L315.345 26.7578V27.3438H305.093V26.7578Z" fill="#284D7A"/>
<path d="M103.104 48.9062V35.5469H108.511C109.075 35.5469 109.638 35.6641 110.089 35.8984C110.539 36.1328 110.99 36.4844 111.328 36.8359C111.666 37.1875 112.004 37.6562 112.116 38.2422C112.342 38.7109 112.454 39.2969 112.454 39.8828C112.454 40.4688 112.342 40.9375 112.229 41.5234C112.004 41.9922 111.778 42.4609 111.44 42.9297C111.102 43.2812 110.652 43.6328 110.201 43.8672C109.751 44.1016 109.187 44.2188 108.624 44.2188H105.132V48.9062H103.104ZM105.132 42.4609H108.511C108.849 42.4609 109.075 42.3438 109.3 42.2266C109.525 42.1094 109.751 41.875 109.863 41.6406C109.976 41.4063 110.201 41.1719 110.314 40.8203C110.427 40.4687 110.427 40.2344 110.427 39.7656C110.427 39.4141 110.427 39.0625 110.314 38.7109C110.201 38.3594 110.089 38.125 109.863 37.8906C109.638 37.6562 109.413 37.5391 109.187 37.4219C108.962 37.3047 108.737 37.1875 108.399 37.1875H105.132V42.4609Z" fill="#9E1C42"/>
<path d="M120.227 47.1484C120.903 47.1484 121.467 47.0312 121.917 46.6797C122.368 46.4453 122.706 46.0937 123.044 45.625C123.269 45.1562 123.494 44.6875 123.607 44.1016C123.72 43.5156 123.832 42.9297 123.832 42.3437V35.5469H125.86V42.3437C125.86 43.2812 125.748 44.1016 125.522 44.9219C125.297 45.7422 124.959 46.4453 124.508 47.0312C124.058 47.6172 123.494 48.0859 122.819 48.4375C122.143 48.7891 121.241 49.0234 120.227 49.0234C119.214 49.0234 118.312 48.7891 117.636 48.4375C116.96 48.0859 116.397 47.6172 115.947 46.9141C115.496 46.3281 115.158 45.625 115.045 44.8047C114.82 43.9844 114.707 43.1641 114.707 42.3437V35.5469H116.735V42.3437C116.735 42.9297 116.848 43.5156 116.961 44.1016C117.073 44.6875 117.298 45.1562 117.524 45.625C117.749 46.0937 118.2 46.4453 118.65 46.6797C118.988 47.0312 119.552 47.1484 120.227 47.1484Z" fill="#9E1C42"/>
<path d="M139.379 45.5078C139.379 46.0937 139.266 46.5625 139.041 46.9141C138.815 47.3828 138.59 47.7344 138.14 47.9687C137.802 48.3203 137.351 48.4375 136.9 48.6719C136.45 48.7891 135.886 48.9062 135.323 48.9062H129.24V35.5469H135.886C136.337 35.5469 136.788 35.6641 137.126 35.8984C137.464 36.1328 137.802 36.3672 138.027 36.7187C138.252 37.0703 138.478 37.4219 138.59 37.7734C138.703 38.125 138.815 38.5937 138.815 39.0625C138.815 39.7656 138.703 40.3516 138.365 40.9375C138.027 41.5234 137.576 41.875 137.013 42.2266C137.802 42.4609 138.365 42.8125 138.815 43.5156C139.153 43.8672 139.379 44.6875 139.379 45.5078ZM131.268 37.4219V41.4062H134.985C135.211 41.4062 135.436 41.4063 135.661 41.2891C135.886 41.1719 136.112 41.0547 136.224 40.9375C136.337 40.8203 136.562 40.5859 136.562 40.3516C136.675 40.1172 136.675 39.8828 136.675 39.5313C136.675 38.9453 136.562 38.4766 136.224 38.125C135.886 37.7734 135.548 37.5391 134.985 37.5391H131.268V37.4219ZM137.238 45.1562C137.238 44.9219 137.238 44.5703 137.126 44.3359C137.013 44.1016 136.9 43.8672 136.788 43.6328C136.675 43.3984 136.45 43.2812 136.224 43.1641C135.999 43.0469 135.774 43.0469 135.548 43.0469H131.268V47.1484H135.323C135.548 47.1484 135.886 47.1484 136.112 47.0312C136.337 46.9141 136.562 46.7969 136.675 46.5625C136.788 46.3281 137.013 46.2109 137.126 45.9766C137.238 45.625 137.238 45.3906 137.238 45.1562Z" fill="#9E1C42"/>
<path d="M142.195 48.9062V35.5469H144.223V47.0312H151.095V48.9062H142.195Z" fill="#9E1C42"/>
<path d="M153.348 48.9062V35.5469H155.376V48.9062H153.348Z" fill="#9E1C42"/>
<path d="M158.192 42.1094C158.192 41.2891 158.305 40.4687 158.643 39.7656C158.868 38.9453 159.319 38.2422 159.882 37.6562C160.445 37.0703 161.121 36.4844 161.797 36.1328C162.586 35.7812 163.487 35.5469 164.388 35.5469C165.515 35.5469 166.528 35.7813 167.43 36.3672C168.218 36.9531 168.894 37.6562 169.345 38.4766L167.768 39.5313C167.542 39.1797 167.317 38.8281 167.092 38.4766C166.866 38.2422 166.528 38.0078 166.303 37.7734C165.965 37.6563 165.74 37.5391 165.402 37.4219C165.064 37.3047 164.726 37.3047 164.501 37.3047C163.825 37.3047 163.261 37.4219 162.698 37.7734C162.135 38.0078 161.797 38.4766 161.459 38.9453C161.121 39.4141 160.896 39.8828 160.67 40.4688C160.445 41.0547 160.445 41.6406 160.445 42.2266C160.445 42.9297 160.558 43.5156 160.783 44.1016C161.008 44.6875 161.234 45.1562 161.684 45.625C162.022 46.0937 162.473 46.4453 163.036 46.6797C163.599 46.9141 164.05 47.0312 164.726 47.0312C165.064 47.0312 165.402 47.0312 165.74 46.9141C166.078 46.7969 166.416 46.6797 166.754 46.5625C167.092 46.3281 167.317 46.0937 167.655 45.8594C167.88 45.625 168.106 45.2734 168.331 44.8047L170.021 45.8594C169.795 46.3281 169.57 46.7969 169.119 47.1484C168.782 47.5 168.331 47.8516 167.88 48.0859C167.43 48.3203 166.866 48.5547 166.416 48.6719C165.853 48.7891 165.402 48.9062 164.839 48.9062C163.937 48.9062 163.149 48.6719 162.36 48.3203C161.572 47.9688 161.008 47.3828 160.445 46.7969C159.882 46.0937 159.431 45.3906 159.206 44.5703C158.305 43.8672 158.192 43.0469 158.192 42.1094Z" fill="#9E1C42"/>
<path d="M185.342 38.7109C185.229 38.5937 185.004 38.4766 184.778 38.2422C184.553 38.125 184.328 37.8906 183.99 37.7734C183.652 37.6563 183.314 37.5391 182.976 37.4219C182.638 37.3047 182.187 37.3047 181.849 37.3047C180.948 37.3047 180.385 37.4219 179.934 37.7734C179.484 38.125 179.371 38.5937 179.371 39.1797C179.371 39.5312 179.484 39.7656 179.596 40C179.709 40.2344 179.934 40.3516 180.16 40.5859C180.385 40.7031 180.723 40.9375 181.174 41.0547C181.624 41.1719 182.075 41.2891 182.525 41.4062C183.201 41.5234 183.765 41.7578 184.328 41.9922C184.891 42.2266 185.342 42.4609 185.68 42.6953C186.018 42.9297 186.356 43.2812 186.468 43.75C186.694 44.2187 186.806 44.6875 186.806 45.2734C186.806 45.9766 186.694 46.5625 186.468 47.0312C186.243 47.5 185.905 47.9687 185.454 48.2031C185.004 48.5547 184.553 48.7891 183.99 48.9062C183.427 49.0234 182.863 49.1406 182.187 49.1406C181.174 49.1406 180.272 49.0234 179.371 48.6719C178.47 48.3203 177.681 47.9687 176.893 47.3828L177.794 45.625C177.907 45.7422 178.132 45.9766 178.47 46.2109C178.808 46.4453 179.146 46.5625 179.484 46.7969C179.822 46.9141 180.272 47.1484 180.723 47.2656C181.174 47.3828 181.624 47.5 182.187 47.5C182.976 47.5 183.652 47.3828 183.99 47.0312C184.441 46.7969 184.666 46.3281 184.666 45.7422C184.666 45.3906 184.553 45.1562 184.441 44.9219C184.328 44.6875 183.99 44.4531 183.765 44.3359C183.427 44.2187 183.089 43.9844 182.638 43.8672C182.187 43.75 181.737 43.6328 181.174 43.3984C180.498 43.2812 179.934 43.0469 179.484 42.8125C179.033 42.5781 178.582 42.3437 178.245 42.1094C177.907 41.875 177.681 41.5234 177.569 41.1719C177.456 40.8203 177.343 40.3516 177.343 39.8828C177.343 39.1797 177.456 38.5937 177.681 38.125C177.907 37.6562 178.245 37.1875 178.695 36.8359C179.146 36.4844 179.596 36.25 180.16 36.0156C180.723 35.8984 181.399 35.7812 181.962 35.7812C182.863 35.7812 183.652 35.8984 184.328 36.25C185.116 36.4844 185.68 36.9531 186.243 37.3047L185.342 38.7109Z" fill="#9E1C42"/>
<path d="M188.609 42.1094C188.609 41.2891 188.721 40.4687 189.059 39.7656C189.285 38.9453 189.735 38.2422 190.299 37.6562C190.862 37.0703 191.538 36.4844 192.214 36.1328C193.002 35.7812 193.903 35.5469 194.805 35.5469C195.931 35.5469 196.945 35.7813 197.846 36.3672C198.635 36.9531 199.311 37.6562 199.761 38.4766L198.184 39.5313C197.959 39.1797 197.734 38.8281 197.508 38.4766C197.283 38.2422 196.945 38.0078 196.72 37.7734C196.382 37.6563 196.157 37.5391 195.819 37.4219C195.481 37.3047 195.143 37.3047 194.917 37.3047C194.241 37.3047 193.678 37.4219 193.115 37.7734C192.552 38.0078 192.214 38.4766 191.876 38.9453C191.538 39.4141 191.312 39.8828 191.087 40.4688C190.862 41.0547 190.862 41.6406 190.862 42.2266C190.862 42.9297 190.974 43.5156 191.2 44.1016C191.425 44.6875 191.65 45.1562 192.101 45.625C192.439 46.0937 192.89 46.4453 193.453 46.6797C194.016 46.9141 194.467 47.0312 195.143 47.0312C195.481 47.0312 195.819 47.0312 196.157 46.9141C196.495 46.7969 196.832 46.6797 197.17 46.5625C197.508 46.3281 197.734 46.0937 198.072 45.8594C198.297 45.625 198.522 45.2734 198.748 44.8047L200.437 45.8594C200.212 46.3281 199.987 46.7969 199.536 47.1484C199.198 47.5 198.748 47.8516 198.297 48.0859C197.846 48.3203 197.283 48.5547 196.832 48.6719C196.269 48.7891 195.819 48.9062 195.255 48.9062C194.354 48.9062 193.566 48.6719 192.777 48.3203C191.988 47.9688 191.425 47.3828 190.862 46.7969C190.299 46.0937 189.848 45.3906 189.623 44.5703C188.721 43.8672 188.609 43.0469 188.609 42.1094Z" fill="#9E1C42"/>
<path d="M212.942 35.5469V48.9062H210.914V43.0469H204.38V48.9062H202.353V35.5469H204.38V41.1719H210.914V35.5469H212.942Z" fill="#9E1C42"/>
<path d="M221.842 49.0234C220.941 49.0234 220.039 48.7891 219.363 48.4375C218.687 48.0859 218.012 47.5 217.448 46.9141C216.885 46.3281 216.434 45.5078 216.209 44.6875C215.871 43.8672 215.758 43.0469 215.758 42.2266C215.758 41.2891 215.871 40.4687 216.209 39.6484C216.547 38.8281 216.998 38.125 217.448 37.5391C218.012 36.9531 218.687 36.3672 219.363 36.0156C220.152 35.6641 220.941 35.4297 221.842 35.4297C222.743 35.4297 223.644 35.6641 224.32 36.0156C225.109 36.3672 225.672 36.9531 226.235 37.5391C226.799 38.125 227.137 38.9453 227.474 39.7656C227.812 40.5859 227.925 41.4062 227.925 42.2266C227.925 43.1641 227.812 43.9844 227.474 44.8047C227.137 45.625 226.686 46.3281 226.235 46.9141C225.672 47.5 224.996 48.0859 224.32 48.4375C223.532 48.9062 222.743 49.0234 221.842 49.0234ZM217.786 42.2266C217.786 42.8125 217.899 43.5156 218.124 44.1016C218.349 44.6875 218.575 45.1562 218.913 45.625C219.251 46.0937 219.701 46.4453 220.152 46.6797C220.603 46.9141 221.278 47.0312 221.842 47.0312C222.518 47.0312 223.081 46.9141 223.532 46.5625C223.982 46.3281 224.433 45.8594 224.771 45.3906C225.109 44.9219 225.334 44.4531 225.559 43.8672C225.785 43.2812 225.785 42.6953 225.785 42.1094C225.785 41.5234 225.672 40.8203 225.447 40.2344C225.221 39.6484 224.996 39.1797 224.658 38.7109C224.32 38.2422 223.87 37.8906 223.419 37.6562C222.968 37.4219 222.405 37.3047 221.729 37.3047C221.053 37.3047 220.49 37.4219 220.039 37.7734C219.589 38.0078 219.138 38.4766 218.8 38.8281C218.462 39.2969 218.237 39.7656 218.012 40.3516C217.899 41.0547 217.786 41.6406 217.786 42.2266Z" fill="#9E1C42"/>
<path d="M236.262 49.0234C235.36 49.0234 234.459 48.7891 233.783 48.4375C233.107 48.0859 232.431 47.5 231.868 46.9141C231.305 46.3281 230.854 45.5078 230.629 44.6875C230.291 43.8672 230.178 43.0469 230.178 42.2266C230.178 41.2891 230.291 40.4687 230.629 39.6484C230.967 38.8281 231.417 38.125 231.868 37.5391C232.431 36.9531 233.107 36.3672 233.783 36.0156C234.572 35.6641 235.36 35.4297 236.262 35.4297C237.163 35.4297 238.064 35.6641 238.74 36.0156C239.529 36.3672 240.092 36.9531 240.655 37.5391C241.218 38.125 241.556 38.9453 241.894 39.7656C242.232 40.5859 242.345 41.4062 242.345 42.2266C242.345 43.1641 242.232 43.9844 241.894 44.8047C241.556 45.625 241.106 46.3281 240.655 46.9141C240.092 47.5 239.416 48.0859 238.74 48.4375C237.951 48.9062 237.163 49.0234 236.262 49.0234ZM232.093 42.2266C232.093 42.8125 232.206 43.5156 232.431 44.1016C232.657 44.6875 232.882 45.1562 233.22 45.625C233.558 46.0937 234.008 46.4453 234.459 46.6797C234.91 46.9141 235.586 47.0312 236.149 47.0312C236.825 47.0312 237.388 46.9141 237.839 46.5625C238.289 46.3281 238.74 45.8594 239.078 45.3906C239.416 44.9219 239.641 44.4531 239.866 43.8672C240.092 43.2812 240.092 42.6953 240.092 42.1094C240.092 41.5234 239.979 40.8203 239.754 40.2344C239.529 39.6484 239.303 39.1797 238.965 38.7109C238.627 38.2422 238.177 37.8906 237.726 37.6562C237.275 37.4219 236.712 37.3047 236.036 37.3047C235.36 37.3047 234.797 37.4219 234.346 37.7734C233.896 38.0078 233.445 38.4766 233.107 38.8281C232.769 39.2969 232.544 39.7656 232.319 40.3516C232.206 41.0547 232.093 41.6406 232.093 42.2266Z" fill="#9E1C42"/>
<path d="M245.161 48.9062V35.5469H247.189V47.0312H254.061V48.9062H245.161Z" fill="#9E1C42"/>
<path d="M264.425 38.7109C264.313 38.5937 264.087 38.4766 263.862 38.2422C263.637 38.125 263.411 37.8906 263.073 37.7734C262.735 37.6563 262.397 37.5391 262.059 37.4219C261.721 37.3047 261.271 37.3047 260.933 37.3047C260.032 37.3047 259.468 37.4219 259.018 37.7734C258.567 38.125 258.454 38.5937 258.454 39.1797C258.454 39.5312 258.567 39.7656 258.68 40C258.792 40.2344 259.018 40.3516 259.243 40.5859C259.468 40.7031 259.806 40.9375 260.257 41.0547C260.708 41.1719 261.158 41.2891 261.609 41.4062C262.285 41.5234 262.848 41.7578 263.411 41.9922C263.975 42.2266 264.425 42.4609 264.763 42.6953C265.101 42.9297 265.439 43.2812 265.552 43.75C265.777 44.2187 265.89 44.6875 265.89 45.2734C265.89 45.9766 265.777 46.5625 265.552 47.0312C265.326 47.5 264.988 47.9687 264.538 48.2031C264.087 48.5547 263.637 48.7891 263.073 48.9062C262.51 49.0234 261.947 49.1406 261.271 49.1406C260.257 49.1406 259.356 49.0234 258.454 48.6719C257.553 48.3203 256.765 47.9687 255.976 47.3828L256.877 45.625C256.99 45.7422 257.215 45.9766 257.553 46.2109C257.891 46.4453 258.229 46.5625 258.567 46.7969C258.905 46.9141 259.356 47.1484 259.806 47.2656C260.257 47.3828 260.708 47.5 261.271 47.5C262.059 47.5 262.735 47.3828 263.073 47.0312C263.524 46.7969 263.749 46.3281 263.749 45.7422C263.749 45.3906 263.637 45.1562 263.524 44.9219C263.411 44.6875 263.073 44.4531 262.848 44.3359C262.51 44.2187 262.172 43.9844 261.721 43.8672C261.271 43.75 260.82 43.6328 260.257 43.3984C259.581 43.2812 259.018 43.0469 258.567 42.8125C258.117 42.5781 257.666 42.3437 257.328 42.1094C256.99 41.875 256.765 41.5234 256.652 41.1719C256.539 40.8203 256.427 40.3516 256.427 39.8828C256.427 39.1797 256.539 38.5937 256.765 38.125C256.99 37.6562 257.328 37.1875 257.779 36.8359C258.229 36.4844 258.68 36.25 259.243 36.0156C259.806 35.8984 260.482 35.7812 261.046 35.7812C261.947 35.7812 262.735 35.8984 263.411 36.25C264.2 36.4844 264.763 36.9531 265.326 37.3047L264.425 38.7109Z" fill="#9E1C42"/>
<path d="M23.232 21.8359V21.4844C23.57 21.3672 23.7953 21.0156 23.7953 20.5469C23.7953 20.0781 23.57 19.7266 23.232 19.6094V16.7969H22.6688V19.6094C22.3308 19.7266 22.1055 20.0781 22.1055 20.5469C22.1055 21.0156 22.3308 21.3672 22.6688 21.4844V21.8359C22.2181 21.9531 21.8802 22.4219 21.8802 23.0078V27.4609H24.1333V23.0078C24.0206 22.4219 23.6826 22.0703 23.232 21.8359Z" fill="#284D7A"/>
<path d="M86.3185 35.1953C85.3046 35.1953 70.7722 36.6016 47.0021 46.5625C47.3401 46.3281 65.7027 30.5078 78.996 28.0469C80.5731 27.8125 81.8123 28.75 82.9389 29.9219C83.3895 30.3906 83.7274 30.8594 84.0654 31.4453L86.3185 35.1953Z" fill="#6097BD"/>
<path d="M7.68571 35.1953C8.6996 35.1953 23.232 36.6016 47.0021 46.5625C46.6641 46.3281 28.3015 30.5078 15.0083 28.0469C13.4311 27.8125 12.1919 28.75 11.0653 29.9219C10.6147 30.3906 10.2768 30.8594 9.9388 31.4453L7.68571 35.1953Z" fill="#6097BD"/>
<path d="M93.641 49.2578C92.6271 48.9062 78.32 45.3906 53.3108 47.1484C53.6487 47.0312 74.6024 37.8906 87.8957 40C89.4728 40.2344 90.4867 41.6406 91.3879 43.1641C91.7259 43.75 91.9512 44.3359 92.1765 45.0391L93.641 49.2578Z" fill="#9E1C42"/>
<path d="M0.47583 49.2578C1.48972 48.9062 15.7968 45.3906 40.8061 47.1484C40.4682 47.0312 19.5144 37.8906 6.10855 39.8828C4.53139 40.1172 3.5175 41.5234 2.61626 43.0469C2.2783 43.6328 2.05299 44.2187 1.82768 44.9219L0.47583 49.2578Z" fill="#9E1C42"/>
<path d="M47.1148 40.8203L67.5052 28.6328V20.1953C67.5052 20.1953 67.1673 20.4297 66.7166 20.6641C63.4497 22.6562 51.283 31.5625 47.1148 37.4219C42.9466 31.4453 30.4419 22.4219 27.4002 20.5469C26.9496 20.3125 26.7243 20.0781 26.7243 20.0781V28.5156L47.1148 40.8203Z" fill="#284D7A"/>
<path d="M47.0021 0.976562C36.5252 3.08594 26.2737 7.65625 16.2475 13.75L47.0021 29.9219L77.7568 13.75C67.7305 7.65625 57.479 3.08594 47.0021 0.976562ZM41.482 20.1953C41.482 19.6094 41.5947 19.1406 41.7073 18.6719C41.9327 17.7344 42.3833 16.9141 43.0592 16.2109C44.0731 15.1562 45.4249 14.4531 47.0021 14.4531C48.5793 14.4531 50.0438 15.1562 51.0577 16.3281C51.6209 17.0312 52.0716 17.7344 52.2969 18.6719C52.4095 19.1406 52.5222 19.7266 52.5222 20.1953C52.5222 21.0156 52.2969 21.9531 51.9589 22.6562C51.9589 22.7734 51.8462 22.8906 51.8462 23.0078C50.945 24.7656 49.1425 25.9375 47.0021 25.9375C44.9743 25.9375 43.2845 24.7656 42.2706 23.125C42.2706 23.0078 42.158 23.0078 42.158 22.8906C41.7073 22.0703 41.482 21.1328 41.482 20.1953Z" fill="#284D7A"/>
</g>
<defs>
<clipPath id="clip0_4111_1929">
<rect width="323" height="50" fill="white"/>
</clipPath>
</defs>
</svg>
