<svg class="svg-icon" style="width: 1em; height: 1em;vertical-align: middle;fill: currentColor;overflow: hidden;" viewBox="0 0 1024 1024" version="1.1" xmlns="http://www.w3.org/2000/svg"><path d="M798.677333 525.013333a42.666667 42.666667 0 0 1-1.024 60.330667l-156.501333 151.338667a112.64 112.64 0 0 1-155.861333 0l-0.384-0.341334-88.234667-87.338666a42.666667 42.666667 0 1 1 59.989333-60.672l88.064 87.125333a27.306667 27.306667 0 0 0 37.12-0.128l156.501334-151.338667a42.666667 42.666667 0 0 1 60.330666 1.024z" fill="#75C82B" /><path d="M384 384a42.666667 42.666667 0 0 0-42.666667 42.666667v426.666666a42.666667 42.666667 0 0 0 42.666667 42.666667h426.666667a42.666667 42.666667 0 0 0 42.666666-42.666667V426.666667a42.666667 42.666667 0 0 0-42.666666-42.666667H384z m-128 42.666667a128 128 0 0 1 128-128h426.666667a128 128 0 0 1 128 128v426.666666a128 128 0 0 1-128 128H384a128 128 0 0 1-128-128V426.666667z" fill="#75C82B" /><path d="M170.666667 170.666667a42.666667 42.666667 0 0 0-42.666667 42.666666v426.666667a42.666667 42.666667 0 0 0 42.666667 42.666667h14.208a42.666667 42.666667 0 1 1 0 85.333333H170.666667a128 128 0 0 1-128-128V213.333333a128 128 0 0 1 128-128h426.666666a128 128 0 0 1 128 128v14.208a42.666667 42.666667 0 1 1-85.333333 0V213.333333a42.666667 42.666667 0 0 0-42.666667-42.666666H170.666667z" fill="#75C82B" /></svg>