<?xml version="1.0" encoding="UTF-8" standalone="no"?>
<!-- Created with Inkscape (http://www.inkscape.org/) -->

<svg
   xmlns:dc="http://purl.org/dc/elements/1.1/"
   xmlns:cc="http://creativecommons.org/ns#"
   xmlns:rdf="http://www.w3.org/1999/02/22-rdf-syntax-ns#"
   xmlns:svg="http://www.w3.org/2000/svg"
   xmlns="http://www.w3.org/2000/svg"
   xmlns:xlink="http://www.w3.org/1999/xlink"
   xmlns:sodipodi="http://sodipodi.sourceforge.net/DTD/sodipodi-0.dtd"
   xmlns:inkscape="http://www.inkscape.org/namespaces/inkscape"
   width="210mm"
   height="297mm"
   id="svg2"
   version="1.1"
   inkscape:version="0.91 r13725"
   sodipodi:docname="chipsbag-english.svg">
  <defs
     id="defs4">
    <inkscape:path-effect
       effect="spiro"
       id="path-effect6982"
       is_visible="true" />
    <linearGradient
       gradientUnits="userSpaceOnUse"
       y2="839.98718"
       x2="226"
       y1="924.86218"
       x1="-155.5"
       id="linearGradient3849"
       xlink:href="#linearGradient3843"
       inkscape:collect="always"
       gradientTransform="translate(-20,0)" />
    <inkscape:path-effect
       is_visible="true"
       id="path-effect5139-2"
       effect="spiro" />
    <inkscape:path-effect
       is_visible="true"
       id="path-effect5143-9"
       effect="spiro" />
    <linearGradient
       gradientUnits="userSpaceOnUse"
       y2="533.06067"
       x2="300.84149"
       y1="547.36218"
       x1="28"
       id="linearGradient5040"
       xlink:href="#linearGradient5034"
       inkscape:collect="always"
       gradientTransform="translate(-20.000003,1.4285757)" />
    <linearGradient
       gradientUnits="userSpaceOnUse"
       y2="533.06067"
       x2="300.84149"
       y1="547.36218"
       x1="28"
       id="linearGradient5024"
       xlink:href="#linearGradient5018"
       inkscape:collect="always"
       gradientTransform="translate(-20.000003,1.4285757)" />
    <radialGradient
       gradientUnits="userSpaceOnUse"
       gradientTransform="matrix(1.632131,-1.1269728,1.3334119,1.9311054,-876.69733,62.333743)"
       r="103"
       fy="403.52139"
       fx="609.50464"
       cy="403.52139"
       cx="609.50464"
       id="radialGradient5016"
       xlink:href="#linearGradient5008"
       inkscape:collect="always" />
    <linearGradient
       gradientTransform="translate(-19.999999,1)"
       gradientUnits="userSpaceOnUse"
       y2="1057.4185"
       x2="304.5101"
       y1="923.86218"
       x1="-155.5"
       id="linearGradient3833"
       xlink:href="#linearGradient3823"
       inkscape:collect="always" />
    <linearGradient
       gradientUnits="userSpaceOnUse"
       y2="515.69458"
       x2="159.94919"
       y1="396.49655"
       x1="585.58136"
       id="linearGradient3864"
       xlink:href="#linearGradient3858"
       inkscape:collect="always"
       gradientTransform="translate(-20,0)" />
    <radialGradient
       gradientUnits="userSpaceOnUse"
       gradientTransform="matrix(1,0,0,0.99997303,-20,0.01206727)"
       r="192.6574"
       fy="447.35699"
       fx="-485"
       cy="447.35699"
       cx="-485"
       id="radialGradient3848"
       xlink:href="#linearGradient3842"
       inkscape:collect="always" />
    <filter
       id="filter3772"
       inkscape:collect="always">
      <feGaussianBlur
         id="feGaussianBlur3774"
         stdDeviation="4.2176493"
         inkscape:collect="always" />
    </filter>
    <inkscape:path-effect
       is_visible="true"
       id="path-effect3000"
       effect="spiro" />
    <inkscape:path-effect
       is_visible="true"
       id="path-effect3812"
       effect="spiro" />
    <inkscape:path-effect
       is_visible="true"
       id="path-effect3840"
       effect="spiro" />
    <linearGradient
       id="linearGradient3842">
      <stop
         id="stop3844"
         offset="0"
         style="stop-color:#fffff4;stop-opacity:1;" />
      <stop
         id="stop3846"
         offset="1"
         style="stop-color:#ffff00;stop-opacity:1;" />
    </linearGradient>
    <linearGradient
       id="linearGradient3858">
      <stop
         id="stop3860"
         offset="0"
         style="stop-color:#ffe9ef;stop-opacity:1;" />
      <stop
         id="stop3862"
         offset="1"
         style="stop-color:#ffe904;stop-opacity:1;" />
    </linearGradient>
    <linearGradient
       id="linearGradient3974">
      <stop
         id="stop3976"
         offset="0"
         style="stop-color:#b02ab0;stop-opacity:0.8097561;" />
      <stop
         id="stop3978"
         offset="1"
         style="stop-color:#802080;stop-opacity:0.69268292;" />
    </linearGradient>
    <inkscape:path-effect
       is_visible="true"
       id="path-effect3053"
       effect="spiro" />
    <linearGradient
       id="linearGradient3823">
      <stop
         id="stop3825"
         offset="0"
         style="stop-color:#e415ed;stop-opacity:0.06829268;" />
      <stop
         id="stop3827"
         offset="1"
         style="stop-color:#e400d5;stop-opacity:0;" />
    </linearGradient>
    <linearGradient
       id="linearGradient3835">
      <stop
         id="stop3837"
         offset="0"
         style="stop-color:#ff00ef;stop-opacity:0.04878049;" />
      <stop
         id="stop3839"
         offset="1"
         style="stop-color:#ce7ead;stop-opacity:0.03414634;" />
    </linearGradient>
    <inkscape:path-effect
       is_visible="true"
       id="path-effect3845"
       effect="spiro" />
    <inkscape:path-effect
       is_visible="true"
       id="path-effect5006"
       effect="spiro" />
    <linearGradient
       id="linearGradient5008"
       inkscape:collect="always">
      <stop
         id="stop5010"
         offset="0"
         style="stop-color:#802080;stop-opacity:1;" />
      <stop
         id="stop5012"
         offset="1"
         style="stop-color:#802080;stop-opacity:0;" />
    </linearGradient>
    <linearGradient
       id="linearGradient5018">
      <stop
         id="stop5020"
         offset="0"
         style="stop-color:#801580;stop-opacity:0.55121952;" />
      <stop
         id="stop5022"
         offset="1"
         style="stop-color:#801580;stop-opacity:0;" />
    </linearGradient>
    <linearGradient
       id="linearGradient5034">
      <stop
         id="stop5036"
         offset="0"
         style="stop-color:#ff00ff;stop-opacity:0;" />
      <stop
         id="stop5038"
         offset="1"
         style="stop-color:#ff00ff;stop-opacity:0;" />
    </linearGradient>
    <inkscape:path-effect
       is_visible="true"
       id="path-effect5119"
       effect="spiro" />
    <inkscape:path-effect
       is_visible="true"
       id="path-effect5139"
       effect="spiro" />
    <inkscape:path-effect
       is_visible="true"
       id="path-effect5143"
       effect="spiro" />
    <linearGradient
       id="linearGradient3843"
       inkscape:collect="always">
      <stop
         id="stop3845"
         offset="0"
         style="stop-color:#7d1d7d;stop-opacity:1;" />
      <stop
         id="stop3847"
         offset="1"
         style="stop-color:#7d1d7d;stop-opacity:0;" />
    </linearGradient>
  </defs>
  <sodipodi:namedview
     id="base"
     pagecolor="#ffffff"
     bordercolor="#666666"
     borderopacity="1.0"
     inkscape:pageopacity="0.0"
     inkscape:pageshadow="2"
     inkscape:zoom="0.7"
     inkscape:cx="133.53535"
     inkscape:cy="626.07857"
     inkscape:document-units="px"
     inkscape:current-layer="layer1-9"
     showgrid="false"
     inkscape:window-width="1916"
     inkscape:window-height="1035"
     inkscape:window-x="4"
     inkscape:window-y="1"
     inkscape:window-maximized="1" />
  <metadata
     id="metadata7">
    <rdf:RDF>
      <cc:Work
         rdf:about="">
        <dc:format>image/svg+xml</dc:format>
        <dc:type
           rdf:resource="http://purl.org/dc/dcmitype/StillImage" />
        <dc:title></dc:title>
        <dc:description>remix by j4p4n</dc:description>
        <cc:license
           rdf:resource="http://creativecommons.org/publicdomain/zero/1.0/" />
      </cc:Work>
      <cc:License
         rdf:about="http://creativecommons.org/publicdomain/zero/1.0/">
        <cc:permits
           rdf:resource="http://creativecommons.org/ns#Reproduction" />
        <cc:permits
           rdf:resource="http://creativecommons.org/ns#Distribution" />
        <cc:permits
           rdf:resource="http://creativecommons.org/ns#DerivativeWorks" />
      </cc:License>
    </rdf:RDF>
  </metadata>
  <g
     inkscape:label="Capa 1"
     inkscape:groupmode="layer"
     id="layer1">
    <g
       id="layer1-9"
       inkscape:label="Capa 1"
       transform="translate(-14.75,-21.499997)">
      <flowRoot
         style="font-size:8px;font-style:normal;font-variant:normal;font-weight:normal;font-stretch:normal;text-align:center;line-height:120.00000477%;letter-spacing:0px;word-spacing:0px;writing-mode:lr-tb;text-anchor:middle;fill:#000000;fill-opacity:1;stroke:none;font-family:Arial;-inkscape-font-specification:Arial"
         id="flowRoot3916"
         xml:space="preserve"><flowRegion
           id="flowRegion3918"><rect
             y="880.63623"
             x="478.81232"
             height="56.568542"
             width="159.6041"
             id="rect3920" /></flowRegion><flowPara
           id="flowPara3922" /></flowRoot>      <flowRoot
         style="font-size:40px;font-style:normal;font-variant:normal;font-weight:normal;font-stretch:normal;text-align:center;line-height:120.00000477%;letter-spacing:0px;word-spacing:0px;writing-mode:lr-tb;text-anchor:middle;fill:#000000;fill-opacity:1;stroke:none;font-family:Arial;-inkscape-font-specification:Arial"
         id="flowRoot3924"
         xml:space="preserve"><flowRegion
           id="flowRegion3926"><rect
             style="font-size:40px"
             y="858.4129"
             x="539.42145"
             height="56.568542"
             width="131.31982"
             id="rect3928" /></flowRegion><flowPara
           id="flowPara3930" /></flowRoot>      <flowRoot
         style="font-size:64px;font-style:normal;font-variant:normal;font-weight:normal;font-stretch:normal;text-align:center;line-height:120.00000477%;letter-spacing:0px;word-spacing:0px;writing-mode:lr-tb;text-anchor:middle;fill:#ffffff;fill-opacity:1;stroke:none;font-family:Arial;-inkscape-font-specification:Arial"
         id="flowRoot3932"
         xml:space="preserve"><flowRegion
           id="flowRegion3934"><rect
             style="font-size:64px;font-weight:normal;fill:#ffffff;-inkscape-font-specification:Arial"
             y="890.36218"
             x="526"
             height="38"
             width="152"
             id="rect3936" /></flowRegion><flowPara
           id="flowPara3938">280</flowPara></flowRoot>      <flowRoot
         style="font-size:8px;font-style:normal;font-variant:normal;font-weight:normal;font-stretch:normal;text-align:center;line-height:120.00000477%;letter-spacing:0px;word-spacing:0px;writing-mode:lr-tb;text-anchor:middle;fill:#000000;fill-opacity:1;stroke:none;font-family:Arial;-inkscape-font-specification:Arial"
         id="flowRoot3940"
         xml:space="preserve"><flowRegion
           id="flowRegion3942"><rect
             y="902.36218"
             x="532"
             height="52"
             width="126"
             id="rect3944" /></flowRegion><flowPara
           id="flowPara3946" /></flowRoot>      <g
         id="g6994"
         transform="translate(-6,0)">
        <path
           sodipodi:nodetypes="ccccccccccccccccccccccccccccccccccccccccccccccc"
           inkscape:connector-curvature="0"
           inkscape:original-d="m 64.184181,145.74032 12.6225,122.96899 7.21287,34.15805 -5.40962,134.35501 -7.21288,225.44316 -1.80319,36.43525 18.03213,77.42492 3.60644,40.98967 -12.6225,45.54407 -46.463582,126.265 32.037832,24.03046 7.21287,9.1088 32.457879,-18.2176 50.49001,-6.83167 48.68676,0 57.70289,0 18.03214,2.2772 18.4768,-18.48629 22.99714,13.93189 32.45786,2.2772 37.8675,-4.5544 59.50609,2.2772 52.29322,4.5544 46.88357,-9.1088 31.2393,19.42007 54.02643,2.2772 50.72463,7.7228 42.5279,-13.4796 27.65751,-22.85714 -0.07,-152.88393 -5.71429,-91.00303 -2.85714,-62.87052 -9.18068,-46.97264 -7.89215,-141.4553 -4.73036,-50.94712 1.49852,-160.83281 -4.35566,-127.25472 -24.91575,-26.60546 -115.50037,34.28571 -82.94787,2.27721 -73.9318,-2.27721 -81.14464,0 -126.22502,4.55441 -63.11251,-2.2772 -22.76254,12.50333 -29.53072,-17.05774 z"
           inkscape:path-effect="#path-effect6982"
           id="path6980"
           d="m 64.184181,145.74032 12.6225,122.96899 7.21287,34.15805 c -2.164766,44.76947 -3.968051,89.55642 -5.40962,134.35501 -2.418184,75.14814 -3.818703,150.33277 -7.21288,225.44316 -0.54894,12.14759 -1.15001,24.29282 -1.80319,36.43525 l 18.03213,77.42492 3.60644,40.98967 -12.6225,45.54407 -46.463582,126.265 32.037832,24.03046 7.21287,9.1088 32.457879,-18.2176 50.49001,-6.83167 48.68676,0 57.70289,0 18.03214,2.2772 18.4768,-18.48629 22.99714,13.93189 32.45786,2.2772 37.8675,-4.5544 c 19.85056,0.24627 39.69476,1.00567 59.50609,2.2772 17.46264,1.12078 34.89975,2.63944 52.29322,4.5544 l 46.88357,-9.1088 31.2393,19.42007 54.02643,2.2772 50.72463,7.7228 42.5279,-13.4796 27.65751,-22.85714 c 2.48959,-50.92115 2.46621,-101.96508 -0.07,-152.88393 -1.51204,-30.35677 -3.91609,-60.66186 -5.71429,-91.00303 -1.24117,-20.94239 -2.19367,-41.90188 -2.85714,-62.87052 l -9.18068,-46.97264 c -1.35358,-47.21147 -3.98558,-94.38627 -7.89215,-141.4553 -1.41071,-16.99725 -2.9876,-33.9807 -4.73036,-50.94712 1.80201,-53.58825 2.30171,-107.22029 1.49852,-160.83281 -0.63582,-42.44093 -2.08807,-84.86964 -4.35566,-127.25472 L 697.20717,122.84063 581.7068,157.12634 c -27.60046,1.93228 -55.28297,2.69226 -82.94787,2.27721 -24.65324,-0.36987 -49.28321,-1.6721 -73.9318,-2.27721 -27.04214,-0.66386 -54.09876,-0.48842 -81.14464,0 -42.0978,0.76024 -84.1819,2.27871 -126.22502,4.55441 l -63.11251,-2.2772 -22.76254,12.50333 -29.53072,-17.05774 -37.867519,-9.10882 z"
           style="fill:#8b569a;fill-opacity:1;stroke:none" />
        <path
           style="fill:#9451b0;fill-opacity:1;stroke:none"
           d="m 25.612749,118.59746 12.622501,122.96899 7.212876,34.15805 c -2.164769,44.76947 -3.968055,89.55642 -5.409625,134.35501 -2.418185,75.14814 -3.818703,150.33277 -7.212876,225.44316 -0.548939,12.14759 -1.150009,24.29282 -1.803188,36.43525 l 18.032128,77.42492 3.606438,40.98967 -12.622502,45.54407 -3.606438,81.97929 -10.819314,68.3162 7.212876,9.1088 32.45788,-18.2176 50.490005,-6.8317 48.68676,0 57.70289,0 18.03214,2.2772 18.4768,-18.48629 22.99714,13.93189 32.45786,2.2772 37.8675,-4.5544 c 19.85056,0.24627 39.69476,1.00567 59.50609,2.2772 17.46264,1.12078 34.89975,2.63944 52.29322,4.5544 l 46.88357,-9.1088 c 18.0347,0.69664 36.06699,1.45571 54.09644,2.2772 15.63009,0.71216 31.25804,1.47123 46.88358,2.2772 l 37.86748,-2.2772 39.67076,13.6633 16.22894,0 c -4.05585,-48.47985 -6.462,-97.09769 -7.21288,-145.7411 -0.5858,-37.9496 -0.16444,-75.9064 0,-113.86017 0.10524,-24.29002 0.10524,-48.5805 0,-72.87052 l 10.81932,-45.54407 -3.60644,-145.74102 -9.01607,-52.37569 7.21281,-159.40424 -7.21281,-122.969 -64.91575,9.10882 c -29.44389,-0.87251 -58.91362,-0.87251 -88.35751,0 -27.64955,0.81934 -55.28649,2.40803 -82.94787,2.27721 -24.65641,-0.11661 -49.28444,-1.59929 -73.9318,-2.27721 -27.04049,-0.74374 -54.0989,-0.51866 -81.14464,0 -42.09665,0.80729 -84.17966,2.32572 -126.22502,4.55441 l -63.11251,-2.2772 -22.762536,12.50333 -29.53072,-17.05774 -37.867505,-9.10882 z"
           id="path2998"
           inkscape:path-effect="#path-effect3000"
           inkscape:original-d="m 25.612749,118.59746 12.622501,122.96899 7.212876,34.15805 -5.409625,134.35501 -7.212876,225.44316 -1.803188,36.43525 18.032128,77.42492 3.606438,40.98967 -12.622502,45.54407 -3.606438,81.97929 -10.819314,68.3162 7.212876,9.1088 32.45788,-18.2176 50.490005,-6.8317 48.68676,0 57.70289,0 18.03214,2.2772 18.4768,-18.48629 22.99714,13.93189 32.45786,2.2772 37.8675,-4.5544 59.50609,2.2772 52.29322,4.5544 46.88357,-9.1088 54.09644,2.2772 46.88358,2.2772 37.86748,-2.2772 39.67076,13.6633 16.22894,0 -7.21288,-145.7411 0,-113.86017 0,-72.87052 10.81932,-45.54407 -3.60644,-145.74102 -9.01607,-52.37569 7.21281,-159.40424 -7.21281,-122.969 -64.91575,9.10882 -88.35751,0 -82.94787,2.27721 -73.9318,-2.27721 -81.14464,0 -126.22502,4.55441 -63.11251,-2.2772 -22.762536,12.50333 -29.53072,-17.05774 z"
           inkscape:connector-curvature="0"
           sodipodi:nodetypes="ccccccccccccccccccccccccccccccccccccccccccccccc" />
        <g
           id="flowRoot3818"
           style="font-style:normal;font-variant:normal;font-weight:normal;font-stretch:normal;font-size:72px;line-height:120.00000477%;font-family:Arial;-inkscape-font-specification:Arial;text-align:center;letter-spacing:0px;word-spacing:0px;writing-mode:lr-tb;text-anchor:middle;fill:#ffffff;fill-opacity:1;stroke:none"
           transform="translate(-18.263306,-14.285714)">
          <path
             id="path6936"
             style="font-style:italic;font-variant:normal;font-weight:normal;font-stretch:normal;font-family:Arial;-inkscape-font-specification:'Arial Italic'"
             d="m 291.74805,620.38069 10.79297,-51.53906 6.85546,0 -4.46484,21.41016 26.71875,0 4.46484,-21.41016 6.89063,0 -10.75781,51.53906 -6.89063,0 5.0625,-24.29296 -26.68359,0 -5.09766,24.29296 -6.89062,0 z"
             inkscape:connector-curvature="0" />
          <path
             id="path6938"
             style="font-style:italic;font-variant:normal;font-weight:normal;font-stretch:normal;font-family:Arial;-inkscape-font-specification:'Arial Italic'"
             d="m 344.27148,606.21273 q 0,-10.9336 6.4336,-18.10547 5.30859,-5.90625 13.92187,-5.90625 6.75,0 10.86328,4.21875 4.14844,4.21875 4.14844,11.39062 0,6.4336 -2.60156,11.98828 -2.60156,5.51953 -7.41797,8.47266 -4.78125,2.95312 -10.08984,2.95312 -4.35938,0 -7.94532,-1.86328 -3.55078,-1.86328 -5.44921,-5.27343 -1.86329,-3.41016 -1.86329,-7.875 z m 6.36329,-0.63282 q 0,5.27344 2.53125,8.01563 2.53125,2.70703 6.43359,2.70703 2.03906,0 4.04297,-0.80859 2.0039,-0.84375 3.72656,-2.53125 1.72266,-1.6875 2.91797,-3.83204 1.23047,-2.17968 1.96875,-4.67578 1.08984,-3.48047 1.08984,-6.67968 0,-5.0625 -2.5664,-7.83985 -2.53125,-2.8125 -6.39844,-2.8125 -2.98828,0 -5.44922,1.44141 -2.46094,1.40625 -4.46484,4.14844 -1.96875,2.74218 -2.91797,6.39843 -0.91406,3.6211 -0.91406,6.46875 z"
             inkscape:connector-curvature="0" />
          <path
             id="path6940"
             style="font-style:italic;font-variant:normal;font-weight:normal;font-stretch:normal;font-family:Arial;-inkscape-font-specification:'Arial Italic'"
             d="m 383.22461,620.38069 7.80469,-37.33593 5.76562,0 -1.37109,6.5039 q 3.76172,-3.83203 7.03125,-5.58984 3.26953,-1.75781 6.67969,-1.75781 4.53515,0 7.10156,2.46093 2.60156,2.46094 2.60156,6.57422 0,2.07422 -0.91406,6.53907 l -4.7461,22.60546 -6.36328,0 4.95703,-23.66015 q 0.73829,-3.44531 0.73829,-5.09766 0,-1.86328 -1.30079,-3.02344 -1.26562,-1.16015 -3.6914,-1.16015 -4.88672,0 -8.71875,3.51562 -3.79688,3.51563 -5.58985,12.0586 l -3.62109,17.36718 -6.36328,0 z"
             inkscape:connector-curvature="0" />
          <path
             id="path6942"
             style="font-style:italic;font-variant:normal;font-weight:normal;font-stretch:normal;font-family:Arial;-inkscape-font-specification:'Arial Italic'"
             d="m 450.72461,607.68929 6.1875,0.63281 q -1.33594,4.60547 -6.15234,8.75391 -4.78125,4.14843 -11.42579,4.14843 -4.14843,0 -7.6289,-1.89843 -3.44531,-1.9336 -5.27344,-5.58985 -1.79297,-3.65625 -1.79297,-8.33203 0,-6.11719 2.8125,-11.84765 2.84766,-5.76563 7.34766,-8.54297 4.5,-2.8125 9.73828,-2.8125 6.67969,0 10.65234,4.14843 4.00782,4.14844 4.00782,11.32032 0,2.74218 -0.49219,5.625 l -27.49219,0 q -0.14062,1.08984 -0.14062,1.96875 0,5.23828 2.39062,8.01562 2.42578,2.74219 5.90625,2.74219 3.26953,0 6.43359,-2.14453 3.16407,-2.14453 4.92188,-6.1875 z m -18.49219,-9.2461 20.95313,0 q 0.0352,-0.98437 0.0352,-1.40625 0,-4.78125 -2.39062,-7.3125 -2.39063,-2.5664 -6.15235,-2.5664 -4.07812,0 -7.45312,2.8125 -3.33984,2.8125 -4.99219,8.47265 z"
             inkscape:connector-curvature="0" />
          <path
             id="path6944"
             style="font-style:italic;font-variant:normal;font-weight:normal;font-stretch:normal;font-family:Arial;-inkscape-font-specification:'Arial Italic'"
             d="m 460.99023,634.79476 0.38672,-5.97657 q 1.96875,0.5625 3.83203,0.5625 1.9336,0 3.12891,-0.8789 1.54688,-1.16016 3.375,-4.35938 l 2.03906,-3.65625 -6.22265,-37.4414 6.25781,0 2.8125,18.8789 q 0.84375,5.58985 1.44141,11.17969 l 16.69921,-30.05859 6.64454,0 -23.80079,42.29297 q -3.44531,6.1875 -6.11718,8.1914 -2.67188,2.00391 -6.15235,2.00391 -2.21484,0 -4.32422,-0.73828 z"
             inkscape:connector-curvature="0" />
          <path
             id="path6946"
             style="font-style:italic;font-variant:normal;font-weight:normal;font-stretch:normal;font-family:Arial;-inkscape-font-specification:'Arial Italic'"
             d="m 328.45117,701.75337 q -4.39453,3.58594 -7.52344,4.88672 -3.1289,1.26563 -6.92578,1.26563 -7.03125,0 -11.32031,-4.11328 -4.28906,-4.14844 -4.28906,-10.40625 0,-4.07813 1.58203,-7.20703 1.61719,-3.12891 4.78125,-5.66016 2.42578,-1.89844 7.17187,-4.04297 -1.82812,-4.04297 -2.21484,-5.41406 -0.49219,-1.96875 -0.49219,-4.21875 0,-2.95313 1.65235,-5.97656 1.65234,-3.0586 4.67578,-4.78125 3.02344,-1.72266 6.57422,-1.72266 4.95703,0 7.98047,2.88281 3.05859,2.88281 3.05859,6.9961 0,3.48046 -2.60156,6.92578 -2.60157,3.41015 -10.23047,7.24218 4.60547,8.33204 8.85937,13.67579 2.56641,-3.12891 4.88672,-7.34766 l 5.55469,2.84766 q -2.32031,4.88671 -6.43359,9.5625 2.28515,2.91796 5.9414,7.03125 l -4.78125,3.83203 q -3.58594,-3.0586 -5.90625,-6.25782 z m -10.4414,-28.08984 q 5.16796,-2.63672 7.38281,-5.41406 1.54687,-1.89844 1.54687,-3.86719 0,-2.07422 -1.4414,-3.48047 -1.40625,-1.4414 -3.44532,-1.4414 -2.46093,0 -4.35937,2.0039 -1.86328,1.96875 -1.86328,4.71094 0,3.33984 2.17969,7.48828 z m 6.75,23.20313 q -6.57422,-8.61329 -10.23047,-15.4336 -4.78125,2.25 -6.82032,4.35938 -2.84765,2.95312 -2.84765,6.85547 0,4.00781 2.70703,6.78515 2.74219,2.74219 6.67969,2.74219 5.30859,0 10.51172,-5.30859 z"
             inkscape:connector-curvature="0" />
          <path
             id="path6948"
             style="font-style:italic;font-variant:normal;font-weight:normal;font-stretch:normal;font-family:Arial;-inkscape-font-specification:'Arial Italic'"
             d="m 363.81836,706.78072 10.79297,-51.53906 6.85547,0 -4.46485,21.41015 26.71875,0 4.46485,-21.41015 6.89062,0 -10.75781,51.53906 -6.89063,0 5.0625,-24.29297 -26.68359,0 -5.09766,24.29297 -6.89062,0 z"
             inkscape:connector-curvature="0" />
          <path
             id="path6950"
             style="font-style:italic;font-variant:normal;font-weight:normal;font-stretch:normal;font-family:Arial;-inkscape-font-specification:'Arial Italic'"
             d="m 440.38867,702.14009 q -3.30469,2.84766 -6.36328,4.1836 -3.05859,1.30078 -6.53906,1.30078 -5.16797,0 -8.33203,-3.02344 -3.16407,-3.05859 -3.16407,-7.80469 0,-3.1289 1.40625,-5.51953 1.44141,-2.42578 3.79688,-3.86719 2.35547,-1.47656 5.76562,-2.10937 2.14454,-0.42188 8.1211,-0.66797 6.01172,-0.24609 8.61328,-1.26562 0.73828,-2.60157 0.73828,-4.32422 0,-2.21485 -1.61719,-3.48047 -2.21484,-1.75781 -6.46875,-1.75781 -4.00781,0 -6.57422,1.79296 -2.53125,1.75782 -3.6914,5.02735 l -6.4336,-0.5625 q 1.96875,-5.55469 6.22266,-8.50781 4.28906,-2.95313 10.79297,-2.95313 6.92578,0 10.96875,3.30469 3.09375,2.46094 3.09375,6.39844 0,2.98828 -0.87891,6.92578 l -2.07422,9.28125 q -0.98437,4.42968 -0.98437,7.20703 0,1.75781 0.77344,5.0625 l -6.4336,0 q -0.52734,-1.82813 -0.73828,-4.64063 z m 2.35547,-14.27343 q -1.33594,0.52734 -2.88281,0.80859 -1.51172,0.28125 -5.09766,0.59766 -5.55469,0.49218 -7.83984,1.26562 -2.28516,0.73828 -3.44531,2.39063 -1.16016,1.65234 -1.16016,3.65625 0,2.67187 1.82812,4.39453 1.86329,1.72265 5.27344,1.72265 3.16406,0 6.08203,-1.65234 2.91797,-1.6875 4.60547,-4.67578 1.6875,-2.98828 2.63672,-8.50781 z"
             inkscape:connector-curvature="0" />
          <path
             id="path6952"
             style="font-style:italic;font-variant:normal;font-weight:normal;font-stretch:normal;font-family:Arial;-inkscape-font-specification:'Arial Italic'"
             d="m 455.25977,706.78072 7.80468,-37.33594 6.36328,0 -1.30078,6.15234 q 3.55078,-3.97265 6.32813,-5.48437 2.8125,-1.51172 6.08203,-1.51172 3.48047,0 5.80078,1.86328 2.35547,1.82813 3.09375,5.13281 2.84766,-3.51562 5.97656,-5.23828 3.16407,-1.75781 6.64453,-1.75781 4.67579,0 6.9961,2.21484 2.35547,2.21485 2.35547,6.22266 0,1.72266 -0.8086,5.69531 l -5.02734,24.04688 -6.36328,0 5.13281,-24.67969 q 0.66797,-3.02344 0.66797,-4.32422 0,-1.82812 -1.16016,-2.88281 -1.16015,-1.05469 -3.26953,-1.05469 -2.84765,0 -5.80078,1.72266 -2.95312,1.72265 -4.60547,4.53515 -1.61719,2.77735 -2.84765,8.57813 l -3.79688,18.10547 -6.36328,0 5.27344,-25.20703 q 0.5625,-2.56641 0.5625,-3.65625 0,-1.82813 -1.16016,-2.95313 -1.125,-1.125 -2.95312,-1.125 -2.70704,0 -5.69532,1.72266 -2.95312,1.72265 -4.8164,4.8164 -1.86328,3.0586 -3.0586,8.75391 l -3.6914,17.64844 -6.36328,0 z"
             inkscape:connector-curvature="0" />
        </g>
        <g
           id="g3814"
           transform="translate(20.597642,-130.44815)">
          <g
             id="g3876"
             transform="translate(-6.1908143,0)">
            <path
               sodipodi:type="arc"
               style="fill:url(#radialGradient3848);fill-opacity:1;fill-rule:evenodd;stroke:#ffffff;stroke-width:15;stroke-linecap:butt;stroke-linejoin:miter;stroke-miterlimit:4;stroke-dasharray:none;stroke-opacity:1;filter:url(#filter3772)"
               id="path3002"
               sodipodi:cx="-485"
               sodipodi:cy="447.36218"
               sodipodi:rx="175"
               sodipodi:ry="175"
               d="M -656.35441,482.89618 A 175,175 0 0 1 -525.12583,277.02452 175,175 0 0 1 -315.80212,402.6735 175,175 0 0 1 -435.78074,615.29808 175,175 0 0 1 -651.55262,501.07647"
               sodipodi:start="2.9371194"
               sodipodi:end="2.8296178"
               sodipodi:open="true"
               transform="translate(848.57143,5.7142857)" />
            <path
               style="fill:#e2494a;fill-opacity:1;stroke:url(#linearGradient3864);stroke-width:5;stroke-linecap:butt;stroke-linejoin:miter;stroke-miterlimit:4;stroke-dasharray:none;stroke-opacity:0.8317308"
               d="m 219.99999,358.79075 c -9.81069,3.32414 -19.41552,8.09086 -26.42857,15.71429 -7.42542,8.07168 -11.38648,18.70822 -14.28571,29.28571 -8.06061,29.40814 -9.19565,60.5115 -5,90.71429 2.85134,20.52562 8.1382,40.71182 15.71428,60 l 27.85715,-21.42857 c 20.16195,-9.17508 41.64104,-15.44988 63.57143,-18.57144 34.33348,-4.88701 69.34851,-2.03776 103.57142,3.57143 37.20979,6.09874 75.07192,15.46401 112.14287,8.57143 17.86606,-3.32183 35.01917,-10.42811 50,-20.71428 3.41502,-25.8293 2.9317,-52.17051 -1.42857,-77.85715 -3.68604,-21.71473 -10.31132,-43.32557 -22.85714,-61.42857 -2.41611,-3.48633 -5.04143,-6.82765 -7.85715,-10 -1.48995,7.04475 -5.99153,13.39992 -12.14285,17.14286 -6.56954,3.99741 -14.4917,4.94102 -22.14286,5.71429 -18.5155,1.87129 -37.19681,3.28008 -55.7143,1.42857 -18.18931,-1.8187 -35.90046,-6.74925 -53.57142,-11.42858 -19.60397,-5.19119 -39.30514,-10.10145 -59.28572,-13.57142 -30.59831,-5.31391 -62.72911,-7.10907 -92.14286,2.85714 z"
               id="path3810"
               inkscape:path-effect="#path-effect3812"
               inkscape:original-d="m 219.99999,358.79075 c -9.83942,2.869 -19.48669,8.17402 -26.42857,15.71429 -7.35657,7.99071 -11.55171,18.77401 -14.28571,29.28571 -7.62297,29.30888 -8.03976,60.58324 -5,90.71429 2.07521,20.57015 15.71428,60 15.71428,60 l 27.85715,-21.42857 c 0,0 41.66715,-15.82176 63.57143,-18.57144 34.27532,-4.30263 103.57142,3.57143 103.57142,3.57143 0,0 106.42859,7.14286 112.14287,8.57143 5.71429,1.42857 50,-20.71428 50,-20.71428 0,0 3.40432,-52.35429 -1.42857,-77.85715 -4.06784,-21.46572 -12.1707,-42.37275 -22.85714,-61.42857 -2.07351,-3.69744 -7.85715,-10 -7.85715,-10 0,0 -6.37734,13.16854 -12.14285,17.14286 -6.27612,4.3263 -14.59371,4.65742 -22.14286,5.71429 -18.39811,2.57572 -37.2158,3.14036 -55.7143,1.42857 -18.18129,-1.68243 -35.74307,-7.48652 -53.57142,-11.42858 -19.79496,-4.3769 -39.10798,-11.60761 -59.28572,-13.57142 -30.58454,-2.97666 -62.64231,-5.74471 -92.14286,2.85714 z"
               inkscape:connector-curvature="0"
               sodipodi:nodetypes="aaaaccacscaacaaaaaa" />
            <g
               id="flowRoot3866"
               style="font-style:normal;font-variant:normal;font-weight:normal;font-stretch:normal;font-size:100px;line-height:120.00000477%;font-family:Arial;-inkscape-font-specification:Arial;text-align:center;letter-spacing:0px;word-spacing:0px;writing-mode:lr-tb;text-anchor:middle;fill:#f2f2f2;fill-opacity:1;stroke:none"
               transform="matrix(1.0616049,0,0,1.2721088,-71.889528,26.857466)">
              <path
                 id="path6925"
                 style="font-style:normal;font-variant:normal;font-weight:normal;font-stretch:normal;font-size:100px;font-family:'Alex Brush';-inkscape-font-specification:'Alex Brush'"
                 d="m 358.88125,323.92344 q -6,0 -10.1,-2.7 -4.1,-2.8 -4.1,-7 0,-5.3 6.9,-10.6 1.2,-0.9 1.8,-0.9 0.6,0 0.6,0.4 0,1 -1.6,1.6 -5.6,4.5 -5.6,9.1 0,3.3 3,5.6 3,2.2 7.5,2.2 9.8,0 18.5,-9.4 4.5,-4.9 4.5,-11.3 0,-6.4 -4.8,-9.5 -4,-2.8 -10.8,-2.8 -9.8,0 -19.7,4.9 -12.2,5.9 -22.1,18.4 -9.8,12.4 -9.8,23.9 0,9.1 6.2,14.1 6.2,4.9 15.4,4.9 10.5,0 20.6,-5.1 7.7,-4 13.3,-10.2 1.6,-1.8 2.5,-1.8 0.6,0 0.6,1.1 0,1 -1.1,2.1 -5.3,5.6 -15.3,10.8 -12.3,6.5 -24.8,6.5 -12.4,0 -18.5,-8.2 -4.1,-5.4 -4.1,-12.9 0,-3.3 0.8,-7.1 2.7,-12.8 14.2,-24.9 8.3,-8.7 19.7,-13.5 11.4,-4.9 21.6,-4.9 5.4,0 9.4,1.3 10.9,3.4 10.9,13.7 0,6.3 -3.7,10.9 -9.2,11.3 -21.9,11.3 z"
                 inkscape:connector-curvature="0" />
              <path
                 id="path6927"
                 style="font-style:normal;font-variant:normal;font-weight:normal;font-stretch:normal;font-size:100px;font-family:'Alex Brush';-inkscape-font-specification:'Alex Brush'"
                 d="m 401.1375,351.32344 q -5.9,0 -5.9,-6.9 0,-3.9 2.7,-8.6 2.8,-4.8 6.8,-11.2 -12.8,6.4 -23.2,18.9 -5.8,8.7 -6.8,8.7 -2.9,0 -2.9,-1.7 0,-0.9 1.2,-3.2 9.7,-17.3 14.7,-25.3 11.9,-19.1 16.8,-20.7 0.2,-0.1 0.4,-0.1 1.3,0 1.8,2.1 -0.3,2.1 -10.4,15.2 -10.5,13.3 -11.9,17.4 3.7,-2.7 12.9,-9.1 9.9,-6.9 13.1,-6.9 3.2,0 3.2,2.5 0,0.4 -0.1,0.6 0,0.1 -6.9,9.4 -6.9,9.3 -6.9,13.7 0,2.3 1.7,2.3 5.4,-0.2 16.2,-13 0.9,-0.9 1.3,-0.9 0.5,0 0.5,0.6 0,2 -9.9,10.8 -6.2,5.4 -8.4,5.4 z"
                 inkscape:connector-curvature="0" />
              <path
                 id="path6929"
                 style="font-style:normal;font-variant:normal;font-weight:normal;font-stretch:normal;font-size:100px;font-family:'Alex Brush';-inkscape-font-specification:'Alex Brush'"
                 d="m 436.83281,310.92344 q 1.5,0 2.8,1 1.4,0.9 1.4,2.2 0,1.3 -1.3,2.3 -1.2,0.9 -2.7,0.9 -1.5,0 -2.8,-1.1 -1.2,-1.1 -1.2,-2.5 0,-2.8 3.8,-2.8 z m -18.1,41.9 q -5.1,0 -5.1,-6.6 0,-5.4 5.9,-14.9 5.9,-9.6 9.5,-9.7 1,0 2.2,0.8 1.3,0.8 1.3,1.6 -0.5,0.7 -1.2,1.6 -0.7,0.8 -1.5,1.8 -0.8,1 -2.2,2.9 -1.4,1.8 -2.7,3.5 -7.5,9.7 -7.5,13.4 0,3.6 2.5,3.6 2.1,0 5.7,-2.3 8.4,-5.2 13.3,-11.4 1.8,-2.3 2.4,-2.3 0.7,0 0.7,0.8 0,0.8 -2.3,3.2 -2.3,2.4 -3.7,3.8 -1.3,1.4 -1.8,1.9 -0.5,0.4 -1.9,1.7 -1.3,1.2 -2,1.7 -0.7,0.5 -2,1.5 -1.3,1 -2.3,1.5 -1,0.4 -2.3,1 -2.1,0.9 -5,0.9 z"
                 inkscape:connector-curvature="0" />
              <path
                 id="path6931"
                 style="font-style:normal;font-variant:normal;font-weight:normal;font-stretch:normal;font-size:100px;font-family:'Alex Brush';-inkscape-font-specification:'Alex Brush'"
                 d="m 475.48906,329.12344 q 0,8.1 -9.3,15.4 -9.2,7.2 -16,7.2 -4.5,0 -6.6,-0.6 -2,-0.6 -4.5,-3.6 -1.7,1.4 -4.6,7.1 -2.9,5.8 -2.9,9.9 0,1.9 1.9,5 0.2,0.5 -0.3,0.8 -0.5,0.4 -0.7,0.4 -0.3,0 -0.5,-0.1 -4.2,-2.3 -4.2,-9 0,-6.6 11,-22.9 11.1,-16.4 15.3,-17.8 1,-0.2 1.3,-0.2 1.7,0 1.7,3.7 1,-1 4.1,-1.9 3.8,-1 5.4,-1 3.6,0 6.2,2.1 2.7,2 2.7,5.5 z m -5.1,-1 q 0,-3.8 -4.5,-3.8 -4.5,0 -8.2,1.9 -1.7,0.8 -9.4,8.8 -7.7,8 -7.7,10.3 0,1.8 2.7,2.7 2.8,0.9 5.6,0.9 5.5,0 13.5,-6.2 8,-6.3 8,-14.6 z"
                 inkscape:connector-curvature="0" />
              <path
                 id="path6933"
                 style="font-style:normal;font-variant:normal;font-weight:normal;font-stretch:normal;font-size:100px;font-family:'Alex Brush';-inkscape-font-specification:'Alex Brush'"
                 d="m 493.88437,350.22344 q -2.9,1.7 -7.2,1.7 -4.2,0 -6.5,-2.8 -2.2,-2.8 -3.8,-8.9 -1.79999,1.8 -2.5,1.8 -0.5,0 -0.5,-0.7 0,-0.7 0.5,-1.2 3.3,-4.1 11.20001,-11.8 l 12.59999,-11.8 q 5.40001,-5.1 6.40001,-5.1 3.19999,0 3.19999,2.4 0,1.2 -1,2.4 -0.9,1.1 -1.4,1.8 -0.4,0.6 -0.9,1.2 -1.8,3.1 -3.7,12.8 -1.8,9.7 -2.8,13.5 8.3,-0.1 17.10001,-10.8 1,-1 1.5,-1 0.5,0 0.5,0.7 0,0.6 -0.9,1.7 -5.80001,6.8 -10.80001,9.5 -3,1.5 -7.79999,2.5 l -3.20001,2.1 z m -13.5,-11.1 q 0,3.4 2.20001,5.6 2.29999,2.1 5.09999,2.1 2.8,0 4.3,-1.1 2,-1.1 3.9,-9.2 2,-8.1 2.4,-14.3 l 0.4,-3.4 q -5.5,4.1 -11.8,10.6 -6.2,6.5 -6.4,8.6 -0.1,0.6 -0.1,1.1 z"
                 inkscape:connector-curvature="0" />
            </g>
          </g>
          <flowRoot
             xml:space="preserve"
             id="flowRoot3894"
             style="font-style:normal;font-variant:normal;font-weight:normal;font-stretch:normal;font-size:12px;line-height:120.00000477%;font-family:Arial;-inkscape-font-specification:Arial;text-align:center;letter-spacing:0px;word-spacing:0px;writing-mode:lr-tb;text-anchor:middle;fill:#000000;fill-opacity:1;stroke:none"
             transform="translate(-8.4758112,114.28571)"><flowRegion
               id="flowRegion3896"><rect
                 id="rect3898"
                 width="153.54318"
                 height="86.873116"
                 x="48.487324"
                 y="854.37225"
                 style="font-size:12px" /></flowRegion><flowPara
               id="flowPara3900" /></flowRoot>        </g>
        <g
           id="flowRoot3956"
           style="font-style:normal;font-variant:normal;font-weight:normal;font-stretch:normal;font-size:64px;line-height:120.00000477%;font-family:Arial;-inkscape-font-specification:Arial;text-align:center;letter-spacing:0px;word-spacing:0px;writing-mode:lr-tb;text-anchor:middle;fill:#ffffff;fill-opacity:1;stroke:none"
           transform="translate(-32,38)">
          <path
             id="path6955"
             d="m 556.03125,905.41674 0,5.40625 -30.28125,0 q -0.0625,-2.03125 0.65625,-3.90625 1.15625,-3.09375 3.6875,-6.09375 2.5625,-3 7.375,-6.9375 7.46875,-6.125 10.09375,-9.6875 2.625,-3.59375 2.625,-6.78125 0,-3.34375 -2.40625,-5.625 -2.375,-2.3125 -6.21875,-2.3125 -4.0625,0 -6.5,2.4375 -2.4375,2.4375 -2.46875,6.75 l -5.78125,-0.59375 q 0.59375,-6.46875 4.46875,-9.84375 3.875,-3.40625 10.40625,-3.40625 6.59375,0 10.4375,3.65625 3.84375,3.65625 3.84375,9.0625 0,2.75 -1.125,5.40625 -1.125,2.65625 -3.75,5.59375 -2.59375,2.9375 -8.65625,8.0625 -5.0625,4.25 -6.5,5.78125 -1.4375,1.5 -2.375,3.03125 l 22.46875,0 z"
             inkscape:connector-curvature="0" />
          <path
             id="path6957"
             d="m 570.75,885.97924 q -3.5,-1.28125 -5.1875,-3.65625 -1.6875,-2.375 -1.6875,-5.6875 0,-5 3.59375,-8.40625 3.59375,-3.40625 9.5625,-3.40625 6,0 9.65625,3.5 3.65625,3.46875 3.65625,8.46875 0,3.1875 -1.6875,5.5625 -1.65625,2.34375 -5.0625,3.625 4.21875,1.375 6.40625,4.4375 2.21875,3.0625 2.21875,7.3125 0,5.875 -4.15625,9.875 -4.15625,4 -10.9375,4 -6.78125,0 -10.9375,-4 -4.15625,-4.03125 -4.15625,-10.03125 0,-4.46875 2.25,-7.46875 2.28125,-3.03125 6.46875,-4.125 z m -1.125,-9.53125 q 0,3.25 2.09375,5.3125 2.09375,2.0625 5.4375,2.0625 3.25,0 5.3125,-2.03125 2.09375,-2.0625 2.09375,-5.03125 0,-3.09375 -2.15625,-5.1875 -2.125,-2.125 -5.3125,-2.125 -3.21875,0 -5.34375,2.0625 -2.125,2.0625 -2.125,4.9375 z m -1.8125,21.15625 q 0,2.40625 1.125,4.65625 1.15625,2.25 3.40625,3.5 2.25,1.21875 4.84375,1.21875 4.03125,0 6.65625,-2.59375 2.625,-2.59375 2.625,-6.59375 0,-4.0625 -2.71875,-6.71875 -2.6875,-2.65625 -6.75,-2.65625 -3.96875,0 -6.59375,2.625 -2.59375,2.625 -2.59375,6.5625 z"
             inkscape:connector-curvature="0" />
          <path
             id="path6959"
             d="m 597.71875,888.22924 q 0,-8.125 1.65625,-13.0625 1.6875,-4.96875 4.96875,-7.65625 3.3125,-2.6875 8.3125,-2.6875 3.6875,0 6.46875,1.5 2.78125,1.46875 4.59375,4.28125 1.8125,2.78125 2.84375,6.8125 1.03125,4 1.03125,10.8125 0,8.0625 -1.65625,13.03125 -1.65625,4.9375 -4.96875,7.65625 -3.28125,2.6875 -8.3125,2.6875 -6.625,0 -10.40625,-4.75 -4.53125,-5.71875 -4.53125,-18.625 z m 5.78125,0 q 0,11.28125 2.625,15.03125 2.65625,3.71875 6.53125,3.71875 3.875,0 6.5,-3.75 2.65625,-3.75 2.65625,-15 0,-11.3125 -2.65625,-15.03125 -2.625,-3.71875 -6.5625,-3.71875 -3.875,0 -6.1875,3.28125 -2.90625,4.1875 -2.90625,15.46875 z"
             inkscape:connector-curvature="0" />
          <path
             id="path6961"
             d="m 633.875,913.57299 5.46875,0.8125 q 0.34375,2.53125 1.90625,3.6875 2.09375,1.5625 5.71875,1.5625 3.90625,0 6.03125,-1.5625 2.125,-1.5625 2.875,-4.375 0.4375,-1.71875 0.40625,-7.21875 -3.6875,4.34375 -9.1875,4.34375 -6.84375,0 -10.59375,-4.9375 -3.75,-4.9375 -3.75,-11.84375 0,-4.75 1.71875,-8.75 1.71875,-4.03125 4.96875,-6.21875 3.28125,-2.1875 7.6875,-2.1875 5.875,0 9.6875,4.75 l 0,-4 5.1875,0 0,28.6875 q 0,7.75 -1.59375,10.96875 -1.5625,3.25 -5,5.125 -3.40625,1.875 -8.40625,1.875 -5.9375,0 -9.59375,-2.6875 -3.65625,-2.65625 -3.53125,-8.03125 z m 4.65625,-19.9375 q 0,6.53125 2.59375,9.53125 2.59375,3 6.5,3 3.875,0 6.5,-2.96875 2.625,-3 2.625,-9.375 0,-6.09375 -2.71875,-9.1875 -2.6875,-3.09375 -6.5,-3.09375 -3.75,0 -6.375,3.0625 -2.625,3.03125 -2.625,9.03125 z"
             inkscape:connector-curvature="0" />
        </g>
        <g
           id="flowRoot3964"
           style="font-style:normal;font-variant:normal;font-weight:normal;font-stretch:normal;font-size:16px;line-height:120.00000477%;font-family:Arial;-inkscape-font-specification:Arial;text-align:center;letter-spacing:0px;word-spacing:0px;writing-mode:lr-tb;text-anchor:middle;fill:#f2f2f2;fill-opacity:1;stroke:none"
           transform="matrix(1,0,0,1.3542494,12,-320.52036)">
          <path
             id="path6964"
             d="m 426.51562,914.47674 0,-11.45312 4.32032,0 q 1.14062,0 1.74218,0.10937 0.84375,0.14063 1.41407,0.53907 0.57031,0.39062 0.91406,1.10156 0.35156,0.71094 0.35156,1.5625 0,1.46094 -0.92969,2.47656 -0.92968,1.00781 -3.35937,1.00781 l -2.9375,0 0,4.65625 -1.51563,0 z m 1.51563,-6.00781 2.96094,0 q 1.46875,0 2.08593,-0.54687 0.61719,-0.54688 0.61719,-1.53907 0,-0.71875 -0.36719,-1.22656 -0.35937,-0.51562 -0.95312,-0.67969 -0.38281,-0.10156 -1.41406,-0.10156 l -2.92969,0 0,4.09375 z"
             inkscape:connector-curvature="0" />
          <path
             id="path6966"
             d="m 437.20312,914.47674 0,-11.45312 8.28125,0 0,1.35156 -6.76562,0 0,3.50781 6.33594,0 0,1.34375 -6.33594,0 0,3.89844 7.03125,0 0,1.35156 -8.54688,0 z"
             inkscape:connector-curvature="0" />
          <path
             id="path6968"
             d="m 447.3125,910.79706 1.42969,-0.125 q 0.10156,0.85937 0.46875,1.41406 0.375,0.54687 1.15625,0.89062 0.78125,0.33594 1.75781,0.33594 0.86719,0 1.53125,-0.25781 0.66406,-0.25781 0.98437,-0.70313 0.32813,-0.45312 0.32813,-0.98437 0,-0.53906 -0.3125,-0.9375 -0.3125,-0.40625 -1.03125,-0.67969 -0.46094,-0.17969 -2.03906,-0.55469 -1.57813,-0.38281 -2.21094,-0.71875 -0.82031,-0.42968 -1.22656,-1.0625 -0.39844,-0.64062 -0.39844,-1.42968 0,-0.86719 0.49219,-1.61719 0.49218,-0.75781 1.4375,-1.14844 0.94531,-0.39062 2.10156,-0.39062 1.27344,0 2.24219,0.41406 0.97656,0.40625 1.5,1.20312 0.52343,0.79688 0.5625,1.80469 l -1.45313,0.10938 q -0.11719,-1.08594 -0.79687,-1.64063 -0.67188,-0.55469 -1.99219,-0.55469 -1.375,0 -2.00781,0.50782 -0.625,0.5 -0.625,1.21093 0,0.61719 0.44531,1.01563 0.4375,0.39844 2.28125,0.82031 1.85156,0.41406 2.53906,0.72656 1,0.46094 1.47656,1.17188 0.47657,0.70312 0.47657,1.625 0,0.91406 -0.52344,1.72656 -0.52344,0.80469 -1.50781,1.25781 -0.97657,0.44532 -2.20313,0.44532 -1.55469,0 -2.60937,-0.45313 -1.04688,-0.45312 -1.64844,-1.35937 -0.59375,-0.91407 -0.625,-2.0625 z"
             inkscape:connector-curvature="0" />
          <path
             id="path6970"
             d="m 458.02344,908.89862 q 0,-2.85156 1.53125,-4.46094 1.53125,-1.61719 3.95312,-1.61719 1.58594,0 2.85938,0.75782 1.27343,0.75781 1.9375,2.11718 0.67187,1.35157 0.67187,3.07032 0,1.74218 -0.70312,3.11718 -0.70313,1.375 -1.99219,2.08594 -1.28906,0.70313 -2.78125,0.70313 -1.61719,0 -2.89063,-0.78125 -1.27343,-0.78125 -1.92968,-2.13282 -0.65625,-1.35156 -0.65625,-2.85937 z m 1.5625,0.0234 q 0,2.07031 1.10937,3.26562 1.11719,1.1875 2.79688,1.1875 1.71093,0 2.8125,-1.20312 1.10937,-1.20313 1.10937,-3.41407 0,-1.39843 -0.47656,-2.4375 -0.46875,-1.04687 -1.38281,-1.61718 -0.90625,-0.57813 -2.03907,-0.57813 -1.60937,0 -2.77343,1.10938 -1.15625,1.10156 -1.15625,3.6875 z"
             inkscape:connector-curvature="0" />
          <path
             id="path6972"
             d="m 426.625,933.67675 0,-11.45312 1.55469,0 6.01562,8.99219 0,-8.99219 1.45313,0 0,11.45312 -1.55469,0 -6.01563,-9 0,9 -1.45312,0 z"
             inkscape:connector-curvature="0" />
          <path
             id="path6974"
             d="m 438.23437,933.67675 0,-11.45312 8.28125,0 0,1.35156 -6.76562,0 0,3.50781 6.33594,0 0,1.34375 -6.33594,0 0,3.89844 7.03125,0 0,1.35156 -8.54688,0 z"
             inkscape:connector-curvature="0" />
          <path
             id="path6976"
             d="m 451.77344,933.67675 0,-10.10156 -3.77344,0 0,-1.35156 9.07812,0 0,1.35156 -3.78906,0 0,10.10156 -1.51562,0 z"
             inkscape:connector-curvature="0" />
          <path
             id="path6978"
             d="m 457.89844,928.09863 q 0,-2.85156 1.53125,-4.46094 1.53125,-1.61719 3.95312,-1.61719 1.58594,0 2.85938,0.75782 1.27343,0.75781 1.9375,2.11718 0.67187,1.35157 0.67187,3.07032 0,1.74218 -0.70312,3.11718 -0.70313,1.375 -1.99219,2.08594 -1.28906,0.70313 -2.78125,0.70313 -1.61719,0 -2.89063,-0.78125 -1.27343,-0.78125 -1.92968,-2.13282 -0.65625,-1.35156 -0.65625,-2.85937 z m 1.5625,0.0234 q 0,2.07031 1.10937,3.26562 1.11719,1.1875 2.79688,1.1875 1.71093,0 2.8125,-1.20312 1.10937,-1.20313 1.10937,-3.41407 0,-1.39843 -0.47656,-2.4375 -0.46875,-1.04687 -1.38281,-1.61718 -0.90625,-0.57813 -2.03907,-0.57813 -1.60937,0 -2.77343,1.10938 -1.15625,1.10156 -1.15625,3.6875 z"
             inkscape:connector-curvature="0" />
        </g>
        <g
           id="g5145"
           transform="matrix(1.3621502,0,0,1.6391763,2381.0935,375.0078)">
          <path
             sodipodi:nodetypes="ccssc"
             inkscape:connector-curvature="0"
             inkscape:original-d="m -1444.5,284.86218 26.5,-69 c 0,0 11.6376,-20.7834 24.5,-17.5 13.6206,3.477 20.2316,53.6591 13.5,66 -8.1223,14.8903 -64.5,20.5 -64.5,20.5 z"
             inkscape:path-effect="#path-effect5143-9"
             id="path5141"
             d="m -1444.5,284.86218 26.5,-69 c 1.6433,-5.1205 4.9743,-9.68388 9.3503,-12.80961 4.376,-3.12573 9.773,-4.79667 15.1497,-4.69039 7.0958,0.14026 13.9978,3.38361 18.9564,8.46114 4.9587,5.07754 8.0038,11.88974 8.9268,18.92663 0.923,7.03689 -0.2176,14.27489 -2.8394,20.87004 -2.6218,6.59515 -6.6914,12.56299 -11.5438,17.74219 -8.0572,8.5999 -18.3458,15.09124 -29.5768,18.66078 -11.231,3.56954 -23.3794,4.20933 -34.9232,1.83922 z"
             style="fill:#f3a84a;fill-opacity:1;stroke:#000000;stroke-width:0;stroke-linecap:butt;stroke-linejoin:miter;stroke-miterlimit:4;stroke-dasharray:none;stroke-opacity:1" />
          <path
             sodipodi:nodetypes="ssascccs"
             inkscape:connector-curvature="0"
             inkscape:original-d="m -1486,303.86218 c -1.6824,2.10221 -68.3183,-58.71911 -56.5,-85.5 7.5759,-17.16733 44.9626,-5.25283 67.5,-4.5 13.7814,0.46035 38,5.5 41,5.5 3,0 11.8011,-6.83709 11.8011,-6.83709 l 15.5426,-10.78791 3.8126,-1.78125 z"
             inkscape:path-effect="#path-effect5139-2"
             id="path5137"
             d="m -1486,303.86218 c -11.1978,0.77034 -22.608,-0.58698 -33.0898,-4.60139 -10.4818,-4.0144 -20.0036,-10.74555 -26.7663,-19.70381 -6.7627,-8.95826 -10.6591,-20.17217 -10.258,-31.38926 0.401,-11.21709 5.2405,-22.33116 13.6141,-29.80554 8.8349,-7.88609 20.9852,-11.35042 32.8276,-11.40896 11.8424,-0.0585 23.4846,3.02592 34.6724,6.90896 6.6593,2.31131 13.2495,4.92236 20.1517,6.35352 6.9022,1.43115 14.2486,1.62287 20.8483,-0.85352 4.268,-1.60147 8.0562,-4.2378 11.8011,-6.83709 l 15.5426,-10.78791 3.8126,-1.78125 c 3.7809,24.63942 -3.1996,50.73968 -18.7754,70.20218 -15.5759,19.46249 -39.5119,31.99323 -64.3809,33.70407 z"
             style="fill:#fbd07b;fill-opacity:1;stroke:#000000;stroke-width:1px;stroke-linecap:butt;stroke-linejoin:miter;stroke-opacity:0" />
        </g>
        <path
           style="fill:url(#linearGradient5024);fill-opacity:1;stroke:url(#linearGradient5040);stroke-width:0;stroke-linecap:butt;stroke-linejoin:miter;stroke-miterlimit:4;stroke-dasharray:none;stroke-opacity:0"
           d="m 25.499997,120.29076 36.75,8.5 31.25,17.5 22.250003,-12.5 628.25,-20 -182.5757,750.87002 -523.424303,-368.87002 8,-214 -18,-128 -2.5,-33.5 z"
           id="path3843"
           inkscape:path-effect="#path-effect3845"
           inkscape:original-d="m 25.499997,120.29076 36.75,8.5 31.25,17.5 22.250003,-12.5 628.25,-20 -182.5757,750.87002 -523.424303,-368.87002 8,-214 -18,-128 z"
           inkscape:connector-curvature="0"
           sodipodi:nodetypes="cccccccccc" />
        <path
           style="fill:url(#linearGradient3849);fill-opacity:1;stroke:url(#linearGradient3833);stroke-width:0;stroke-linecap:butt;stroke-linejoin:miter;stroke-miterlimit:4;stroke-dasharray:none;stroke-opacity:1"
           d="m 31.250001,672.61218 19.75,78.75 3,39 -13,44 -6,88 -9,64 8,9 32,-18 46.999999,-5 111,-2 17,3 19,-18 -40,-53 L 195.4386,833.32055 122.45585,769.59263 89.970564,729.39162 70.31371,692.11954 31.250001,672.61218 Z"
           id="path3051"
           inkscape:path-effect="#path-effect3053"
           inkscape:original-d="m 31.250001,672.61218 19.75,78.75 3,39 -13,44 -6,88 -9,64 8,9 32,-18 46.999999,-5 111,-2 17,3 19,-18 -40,-53 c -36,-15 -224.5920629,-204.81455 -24.5614,-69.04163 L 122.45585,769.59263 89.970564,729.39162 70.31371,692.11954 Z"
           inkscape:connector-curvature="0"
           sodipodi:nodetypes="cccccccccccccccccc" />
      </g>
    </g>
  </g>
</svg>
