<?xml version="1.0" encoding="UTF-8" standalone="no"?>
<svg
   xmlns:dc="http://purl.org/dc/elements/1.1/"
   xmlns:cc="http://creativecommons.org/ns#"
   xmlns:rdf="http://www.w3.org/1999/02/22-rdf-syntax-ns#"
   xmlns:svg="http://www.w3.org/2000/svg"
   xmlns="http://www.w3.org/2000/svg"
   version="1.1"
   id="svg4168"
   viewBox="0 0 589.40077 1788.7867"
   height="504.83536mm"
   width="166.342mm">
  <defs
     id="defs4170" />
  <metadata
     id="metadata4173">
    <rdf:RDF>
      <cc:Work
         rdf:about="">
        <dc:format>image/svg+xml</dc:format>
        <dc:type
           rdf:resource="http://purl.org/dc/dcmitype/StillImage" />
        <dc:title></dc:title>
      </cc:Work>
    </rdf:RDF>
  </metadata>
  <g
     transform="translate(222.92427,382.15814)"
     id="layer1">
    <path
       id="path4753"
       d="m 55.77783,1406.2814 c -0.1528,-0.1274 -12.29629,-0.4766 -26.98553,-0.776 -14.68923,-0.2993 -27.18048,-0.8365 -27.75834,-1.1936 -0.57785,-0.3571 -8.35939,-0.8807 -17.2923,-1.1634 -8.93291,-0.2828 -18.78162,-1.1539 -21.886,-1.9358 -3.18767,-0.803 -10.45663,-1.4218 -16.70078,-1.4218 -11.67224,0 -19.69168,-1.2322 -24.65488,-3.7882 -1.6712,-0.8607 -6.1004,-1.6483 -10,-1.7782 -10.1656,-0.3386 -17.8651,-2.0746 -24.2043,-5.4574 -3.0675,-1.6369 -6.4356,-2.9762 -7.4848,-2.9762 -3.0781,0 -22.3993,-10.3731 -26.8109,-14.3941 -1.375,-1.2532 -4.525,-3.4677 -7,-4.9211 -7.3824,-4.3351 -9.4157,-6.6566 -18.5543,-21.1848 -1.0379,-1.65 -4.1965,-7.275 -7.019,-12.5 -15.9561,-29.5374 -14.7586,-26.7088 -16.935,-40 -0.7655,-4.675 -1.8751,-11.2 -2.4659,-14.5 -0.5907,-3.3 -1.7235,-11.85 -2.5173,-19 -0.7937,-7.15 -1.9358,-16.825 -2.5378,-21.5 -0.602,-4.675 -0.8649,-9.9941 -0.5841,-11.8203 0.2807,-1.8261 0.1104,-4.3725 -0.3786,-5.6587 -0.7866,-2.0689 -1.0069,-15.3201 -0.8816,-53.021 0.073,-21.9648 -1.7145,-114.4346 -2.513,-130 -1.1684,-22.7785 -2.0061,-43.6026 -2.0112,-50 0,-3.85 0.092,-29.725 0.2114,-57.5 0.1194,-27.775 -0.025,-65.575 -0.32,-84 -0.4333,-27.0215 -0.5804,-85.6272 -0.3703,-147.50003 0.039,-11.5695 -1.5023,-158.8271 -2.6067,-249 -0.6639,-54.19961 -1.7556,-144.14354 -1.9178,-158 -0.064,-5.5 -0.5042,-12.15518 -0.9774,-14.78929 -0.6733,-3.7482 -0.535,-5.16115 0.6362,-6.5 1.9104,-2.18395 3.3742,-6.75896 5.2372,-16.36856 0.8165,-4.21182 3.1158,-12.98682 5.1095,-19.5 1.9938,-6.51318 4.0473,-13.41715 4.5634,-15.34215 0.5161,-1.925 2.0395,-5.5859 3.3853,-8.13533 1.3459,-2.54943 2.447,-5.52624 2.447,-6.61514 0,-1.0889 0.9,-3.12398 2,-4.5224 1.5246,-1.93817 2,-4.05678 2,-8.91235 0,-3.86459 0.5549,-7.16195 1.4108,-8.38399 2.1033,-3.0028 3.3648,-11.99292 2.8332,-20.19019 -0.4464,-6.88431 -0.607,-7.28731 -3.1074,-7.79943 -13.0901,-2.68109 -14.129,-3.77602 -15.1553,-15.97323 -1.6492,-19.59939 -1.6933,-19.73634 -9.9821,-30.96794 -8.7025,-11.79234 -9.2416,-27.57812 -1.3874,-40.63081 1.8635,-3.09695 3.3882,-6.19993 3.3882,-6.89552 0,-0.6956 5.0296,-6.26173 11.177,-12.36919 9.4875,-9.42593 19.127,-20.44364 27.7306,-31.69554 2.8461,-3.72216 14.0924,-25.41247 14.0924,-27.17952 0,-1.74218 3.8416,-10.80511 8.0442,-18.97722 1.6257,-3.16129 2.9558,-6.38733 2.9558,-7.16896 0,-0.78164 0.6665,-2.69513 1.4811,-4.2522 0.8147,-1.55707 3.3757,-7.7289 5.6912,-13.71517 2.3155,-5.98627 5.4658,-12.73627 7.0007,-15 1.5348,-2.26373 2.7988,-4.61768 2.8088,-5.23101 0.01,-0.61333 0.8658,-2.19271 1.9018,-3.50973 1.0359,-1.31702 3.6296,-5.76521 5.7637,-9.88486 5.5743,-10.76083 24.6538,-35.02264 31.3649,-39.88412 2.1201,-1.53585 6.0223,-5.30899 8.6713,-8.38475 4.911,-5.70199 13.62987,-13.17302 20.8165,-17.8372 2.2,-1.42782 5.43633,-3.94197 7.19185,-5.587 7.23738,-6.78191 23.51371,-16.20536 36.30815,-21.02122 3.575,-1.34564 7.01483,-2.87376 7.64407,-3.39583 0.62924,-0.52206 3.94729,-2.30711 7.37345,-3.96676 14.90687,-7.22099 18.11053,-13.11084 18.68935,-34.35991 0.26444,-9.70806 -0.0285,-14.08554 -1.17111,-17.5 -9.25161,-27.64675 -14.08668,-56.22125 -12.27672,-72.55348 0.48761,-4.4 0.83655,-9.5094 0.77542,-11.35422 -0.17398,-5.25025 13.0689,-31.61601 18.32336,-36.48068 13.28526,-12.29974 17.00257,-14.62286 26.64218,-16.64993 3.025,-0.63611 6.85,-1.61062 8.5,-2.16557 1.65,-0.55495 7.96576,-1.25664 14.03502,-1.5593 9.92625,-0.495 11.45454,-0.33627 15.21017,1.5797 2.29632,1.1715 4.85257,2.13 5.68055,2.13 2.11023,0 13.91536,6.61444 16.0861,9.01309 0.98898,1.0928 2.38434,1.98691 3.10081,1.98691 3.12314,0 22.38735,22.94746 22.38735,26.66773 0,0.74474 0.872,3.26166 1.93777,5.59317 2.54536,5.56825 4.48466,24.68761 3.64585,35.94405 -0.35677,4.78772 -2.20977,14.84925 -4.11777,22.35895 -4.07793,16.05032 -5.28614,26.05331 -4.88411,40.4361 0.45367,16.22988 2.65134,26.74872 7.13819,34.166 3.5555,5.87764 12.02906,13.88985 18.28007,17.28478 1.375,0.74677 5.425,2.90445 9,4.79485 16.33164,8.63589 20.73468,11.12997 23.99746,13.59323 1.92361,1.45223 6.42361,4.13059 10,5.9519 9.62051,4.89934 12.85113,6.99961 22.63164,14.71311 4.879,3.84787 11.3646,8.63524 14.41245,10.6386 3.04785,2.00336 6.64785,4.90697 8,6.45245 1.35215,1.54549 4.50382,4.85638 7.00371,7.35753 2.4999,2.50115 7.20956,7.86757 10.46591,11.92537 3.25636,4.05779 8.06561,9.68279 10.68723,12.5 2.62162,2.8172 4.77446,5.43911 4.78409,5.82647 0.01,0.38736 2.30614,3.76236 5.10336,7.5 2.79722,3.73764 6.67653,9.72071 8.62069,13.29571 1.94417,3.575 4.41393,7.76445 5.48836,9.30988 1.07444,1.54543 4.42793,10.54543 7.45222,20 6.39407,19.98924 9.19132,27.80393 14.38592,40.19012 2.07596,4.95 5.27193,12.6 7.10215,17 5.02051,12.06975 8.42935,17.09314 18.66137,27.5 5.13721,5.225 10.25913,11.4125 11.38204,13.75 1.12291,2.3375 2.37375,4.25 2.77965,4.25 1.62716,0 4.05545,7.97213 4.87357,16 0.71412,7.00731 0.557,9.55366 -0.89472,14.5 -3.68467,12.55454 -5.76827,16.46625 -8.80954,16.53885 -0.93635,0.0223 -2.63221,2.10416 -3.99315,4.90192 -1.91912,3.94524 -2.46157,7.00481 -2.87417,16.21114 -0.77567,17.30722 -2.88382,20.79975 -12.57598,20.83444 -5.84423,0.0209 -7.68426,1.43664 -7.68426,5.91234 0,6.10593 1.74508,13.6728 4.58108,19.8641 1.4454,3.15547 3.32437,7.47359 4.1755,9.59584 0.85113,2.12224 3.50489,7.48926 5.89725,11.9267 2.39236,4.43744 4.77736,9.61678 5.30001,11.50965 0.52264,1.89286 1.5743,4.17585 2.33702,5.0733 0.76271,0.89744 2.16559,4.33172 3.11751,7.63172 0.95191,3.3 2.38962,8.15593 3.1949,10.79095 0.80528,2.63503 1.24063,5.15261 0.96745,5.59462 -0.27318,0.44202 0.34345,4.36109 1.3703,8.70905 4.72943,20.02571 6.00143,28.96601 7.88293,55.40538 0.56404,7.92604 0.64076,44.35484 0.18532,88 -0.0545,5.225 0.0242,12.65 0.17494,16.5 0.15075,3.85 0.0868,9.7 -0.14215,13 -0.22892,3.3 -0.13427,9.375 0.21035,13.5 2.27291,27.20653 2.52515,44.02172 0.83183,55.45364 -0.89119,6.01657 -1.07456,11.75712 -0.55902,17.5 1.19502,13.31196 0.6062,29.12216 -1.18811,31.90106 -1.57525,2.4396 -1.11284,9.1453 0.63065,9.1453 2.54267,0 3.19208,7.9883 2.98904,36.7674 -0.11537,16.3529 0.0856,31.9826 0.44667,34.7326 1.04751,7.9788 0.81844,37.5529 -0.33056,42.6772 -0.75186,3.3531 -0.72607,6.184 0.0911,10 1.35023,6.3053 1.34977,6.2714 0.33765,24.8424 -0.67787,12.438 -0.56092,14.9651 0.81573,17.6272 1.3699,2.6491 1.46037,4.4908 0.61309,12.48053 -0.54667,5.155 -1.4207,13.6477 -1.94228,18.8727 -1.29786,13.0015 -3.48862,188.6732 -2.76228,221.5 0.14603,6.6 0.2317,16.95 0.19037,23 -0.0413,6.05 -0.35524,50.825 -0.69756,99.5 -0.34233,48.675 -0.6146,90.9294 -0.60505,93.8987 0.01,2.9693 -0.44526,10.1693 -1.01067,16 -0.56541,5.8307 -1.27841,20.5013 -1.58443,32.6013 -0.62634,24.7651 -3.76808,59.5686 -6.36408,70.5 -0.58777,2.475 -1.79925,7.875 -2.69218,12 -1.98199,9.156 -10.70421,27.6659 -16.83606,35.7288 -7.54908,9.9264 -19.02386,19.2276 -34.85622,28.2537 -3.99851,2.2795 -8.79907,5.241 -10.6679,6.5811 -1.95051,1.3986 -4.79803,2.4364 -6.6849,2.4364 -1.80786,0 -4.41255,0.4279 -5.78819,0.9509 -1.37565,0.5231 -7.36744,1.4482 -13.3151,2.0559 -5.94766,0.6076 -12.83893,1.7577 -15.31393,2.5557 -6.92741,2.2335 -20.54163,4.4375 -27.41047,4.4375 -3.40424,0 -6.61703,0.4116 -7.13953,0.9146 -0.5225,0.503 -8.6,1.4295 -17.95,2.0588 -10.01593,0.6741 -18.25599,1.718 -20.05722,2.5408 -2.26863,1.0364 -8.07241,1.4097 -22.5,1.4471 -10.69353,0.028 -23.06408,0.4677 -27.49011,0.9777 -6.74343,0.777 -65.81857,1.2657 -66.67484,0.5516 z M 68,1396.8558 c 6.80801,0.4837 10.10556,0.2294 11.19868,-0.8637 0.93509,-0.9351 -0.11735,-1.2013 -4.74905,-1.2013 -3.27271,0 -8.87521,-0.6682 -12.45,-1.4848 -11.98947,-2.7389 -19.49719,-4.8701 -19.80881,-5.6231 -0.17004,-0.4109 -1.74504,-0.5353 -3.5,-0.2763 C 33.3178,1388.1994 19,1381.2881 19,1377.9017 c 0,-3.0107 4.62901,-3.4165 35.97125,-3.1539 17.34081,0.1453 33.10375,0.2275 35.02875,0.1827 1.925,-0.045 10.12833,-0.132 18.22962,-0.194 8.1013,-0.062 17.3263,-0.5372 20.5,-1.056 9.56316,-1.5633 27.29699,-3.2283 35.27038,-3.3115 6.79819,-0.071 7.5,0.1044 7.5,1.8735 0,1.1337 -1.67657,3.1504 -4,4.8117 -5.27374,3.7706 -21.69928,11.7366 -24.20055,11.7366 -1.08302,0 -4.63096,0.852 -7.88429,1.8933 -6.57726,2.1051 -17.08832,3.1759 -31.44953,3.2037 -9.09178,0.018 -14.46379,1.1327 -10.9376,2.2703 6.42305,2.0723 39.47756,1.2164 55.97197,-1.4492 9.89389,-1.599 32.12031,-5.9274 35.5,-6.9133 1.65,-0.4814 5.925,-1.6435 9.5,-2.5825 3.575,-0.939 13.78553,-4.1182 22.69006,-7.0648 8.90454,-2.9466 16.90787,-5.3575 17.78518,-5.3575 0.87732,0 2.59179,-0.6469 3.80994,-1.4377 1.21815,-0.7907 5.58982,-3.2368 9.71482,-5.4357 8.14183,-4.3403 9.678,-6.4886 5.40624,-7.5608 l -2.69381,-0.6761 2.22283,-1.5569 c 1.48724,-1.0417 5.38823,-1.7107 11.78824,-2.0215 12.28206,-0.5966 23.09383,-4.0694 38.00521,-12.2074 6.15132,-3.3571 11.5987,-6.1039 12.10531,-6.1039 0.5066,0 1.48129,-0.675 2.16598,-1.5 1.41694,-1.7073 3,-1.9791 3,-0.515 0,1.8189 -6.41938,11.4806 -9.97699,15.0161 -1.93765,1.9257 -5.28861,4.8507 -7.44657,6.5 -2.15796,1.6494 -5.35631,4.2267 -7.10745,5.7273 -3.78171,3.2408 -13.74643,8.6904 -17.96899,9.8271 -5.18254,1.3952 -11.86596,3.9208 -15.5,5.8573 -1.925,1.0258 -6.57696,2.5545 -10.3377,3.3972 -7.0639,1.5827 -8.4642,2.2214 -7.3385,3.3471 0.8562,0.8562 15.50033,-1.2241 21.50426,-3.0549 2.56957,-0.7835 7.14694,-2.177 10.17194,-3.0965 5.46757,-1.6621 13.13299,-4.8085 16,-6.5675 0.825,-0.5062 3.525,-2.0667 6,-3.4678 6.96396,-3.9423 10.76271,-6.935 17.01646,-13.406 11.54053,-11.9415 17.27418,-20.96 22.04124,-34.669 6.52201,-18.7559 11.27283,-55.2543 12.98712,-99.7743 0.54807,-14.2334 1.27512,-26.3298 1.61567,-26.8808 0.5159,-0.8347 0.51407,-26.5544 -0.01,-137.2403 -0.0182,-3.85 0.0395,-14.65 0.12831,-24 0.0888,-9.35 0.11969,-26.9 0.0687,-39 -0.051,-12.1 0.005,-23.35 0.12485,-25 0.1197,-1.65 0.23929,-16.275 0.26576,-32.5 0.0529,-32.4198 0.51024,-83.9205 0.80813,-91 0.30304,-7.2018 0.33091,-100.153 0.036,-120 -0.0531,-3.575 0.63958,-11.22503 1.53934,-17.00003 1.34722,-8.6469 1.42818,-11.5589 0.45875,-16.5 -0.82314,-4.1955 -0.90364,-8.7068 -0.26763,-15 0.88592,-8.7662 0.83945,-18.6423 -0.17406,-36.9897 -0.27312,-4.9443 -0.0568,-12.5943 0.48068,-17 1.04417,-8.5586 1.10959,-15.8607 0.38985,-43.5103 -0.25055,-9.625 -0.68654,-41.8 -0.96887,-71.5 -0.28234,-29.7 -1.00968,-61.65 -1.61632,-71 -0.60664,-9.35 -1.51056,-24.875 -2.00871,-34.5 -0.49816,-9.625 -1.32256,-24.475 -1.83202,-33 -0.50946,-8.525 -1.19643,-31.925 -1.52661,-52 -0.87555,-53.23367 -1.25041,-61.73896 -3.06311,-69.5 -0.89923,-3.85 -2.04649,-8.94947 -2.54949,-11.33215 -0.50299,-2.38268 -2.23586,-6.88268 -3.85082,-10 -1.61496,-3.11732 -3.80345,-7.69285 -4.86332,-10.16785 -1.05987,-2.475 -3.5628,-6.44618 -5.56206,-8.82485 -1.99926,-2.37867 -4.27214,-6.4703 -5.05086,-9.09251 -1.78042,-5.99533 -5.18285,-12.72725 -6.96416,-13.77901 C 313.52349,181.83703 312,178.24382 312,174.47864 c 0,-1.89399 -0.675,-5.05912 -1.5,-7.03363 -0.825,-1.9745 -1.5,-5.6029 -1.5,-8.0631 0,-2.46021 -0.36988,-4.70171 -0.82197,-4.98111 -1.51687,-0.93748 -8.60365,-0.74658 -18.17803,0.48965 -5.225,0.67465 -14.45,1.33452 -20.5,1.46638 -15.78028,0.34393 -23.53939,1.88556 -23.46673,4.6625 0.0431,1.64771 2.9454,5.10051 5.4791,6.51839 2.78637,1.55927 7.51801,5.68474 15.2004,13.25305 11.05463,10.89047 15.03037,22.58574 11.55812,34 -0.75291,2.475 -1.52021,5.4 -1.70511,6.5 -0.43934,2.61362 -5.38466,13.57402 -6.99358,15.5 -0.68919,0.825 -2.97994,6 -5.09057,11.5 -2.11063,5.5 -4.20621,10.49464 -4.65685,11.09919 -0.45064,0.60456 -1.26522,3.45028 -1.81018,6.32383 -0.54496,2.87355 -1.65852,6.65391 -2.47458,8.40081 -0.81605,1.74689 -2.36015,6.77617 -3.43133,11.17617 -1.07117,4.4 -2.60085,9.8 -3.39928,12 -0.81358,2.24174 -1.74557,9.93412 -2.12027,17.5 -0.36771,7.425 -1.08389,15.075 -1.5915,17 -0.50761,1.925 -1.08829,6.77605 -1.2904,10.78012 -0.20211,4.00406 -0.88322,7.79586 -1.51356,8.4262 -0.75787,0.75787 -0.81465,1.54546 -0.16762,2.32508 1.49867,1.80578 1.54418,17.56608 0.0587,20.32474 -0.93106,1.72905 -1.00921,3.45904 -0.29363,6.5 1.40622,5.97595 1.47763,14.69087 0.16315,19.91116 -0.85189,3.38317 -0.85114,5.05689 0.003,6.65284 0.75946,1.41906 1.12405,9.39959 1.08987,23.85614 -0.0604,25.52991 0.92077,43.07935 2.05312,36.72372 0.39196,-2.2 0.73218,-12.55 0.75605,-23 0.14199,-62.16023 1.27328,-92.66457 3.57466,-96.38829 0.37789,-0.61144 1.33552,-1.11171 2.12806,-1.11171 1.77266,0 1.85035,6.03828 0.35386,27.5 -0.57526,8.25 -0.9452,30.075 -0.82208,48.5 0.72357,108.2847 -0.63009,198.535 -3.02103,201.4159 -0.78277,0.9432 -0.80983,2.1376 -0.0913,4.0276 0.56183,1.4777 1.0215,9.4432 1.0215,17.7011 l 0,15.0143 -2.935,-0.6446 c -2.73329,-0.6004 -3.00781,-0.3825 -3.99442,3.1705 -0.58269,2.0984 -1.06194,4.5659 -1.065,5.4834 -0.009,2.6545 -1.1148,4.8318 -2.45428,4.8318 -2.49363,0 -3.26731,-7.6748 -2.97384,-29.5 0.62705,-46.6326 1.58101,-169.64473 1.4153,-182.5 -0.0957,-7.425 -0.32213,-21.15 -0.50315,-30.5 -0.19866,-10.26069 0.11527,-18.90193 0.79189,-21.79763 0.8844,-3.78499 0.83546,-5.47357 -0.23187,-8 -1.59473,-3.77485 -1.56865,-2.76565 -0.72894,-28.20237 0.56814,-17.21017 0.8983,-20.17498 2.36691,-21.25439 1.59413,-1.17168 1.55987,-1.55654 -0.51954,-5.83659 -2.3902,-4.91976 -2.19535,-10.73474 0.40854,-12.19195 1.12812,-0.63133 1.11854,-1.42294 -0.0586,-4.83954 -0.9286,-2.69529 -1.20789,-6.09047 -0.82106,-9.98114 0.32243,-3.24302 0.50913,-9.17357 0.41488,-13.17901 -0.0942,-4.00543 0.28662,-8.98343 0.84638,-11.06221 0.55975,-2.07877 1.47634,-8.02659 2.03685,-13.21738 0.74039,-6.85662 2.49397,-13.76185 6.41177,-25.24827 2.96596,-8.69577 6.05401,-16.57077 6.86234,-17.5 0.80832,-0.92924 1.69782,-2.81452 1.97666,-4.18952 0.27884,-1.375 1.26801,-6.0466 2.19816,-10.38134 3.40958,-15.88956 1.30542,-27.82209 -7.73471,-43.86296 -3.63967,-6.45831 -11.22365,-13.7557 -14.2959,-13.7557 -0.71447,0 -3.01226,-1.0125 -5.1062,-2.25 -2.49731,-1.47589 -5.69944,-2.32186 -9.30716,-2.45885 -20.77824,-0.78902 -29.79133,-0.82775 -31.74801,-0.13642 -1.23641,0.43684 -4.42198,0.38197 -7.07906,-0.12193 -6.1676,-1.16967 -10.80725,-1.23975 -37.67293,-0.56909 -21.0333,0.52507 -61.30523,0.72002 -74,0.35823 -3.3,-0.0941 -13.425,0.0914 -22.5,0.41208 -17.91714,0.63316 -21.67916,1.47417 -32.34866,7.23169 -3.38324,1.82568 -7.82284,3.84738 -9.86578,4.49267 -2.04294,0.64529 -6.19557,3.05613 -9.22806,5.35744 -3.03249,2.3013 -8.111,6.056 -11.28556,8.34378 -5.47631,3.94655 -5.92314,4.59862 -8.72396,12.73111 l -2.95203,8.57151 2.01956,2.76889 c 3.96859,5.4411 3.71001,9.26889 -0.62615,9.26889 -4.70621,0 -19.8689,20.03952 -29.61883,39.14523 -1.30379,2.55487 -2.37053,5.17196 -2.37053,5.81574 0,0.64378 -0.54184,2.15343 -1.20409,3.35477 -0.66225,1.20134 -2.37322,6.68426 -3.80216,12.18426 -3.39793,13.07865 -5.27437,13.54624 -6.01957,1.5 -0.28921,-4.675 -0.19802,-10.075 0.20264,-12 0.40066,-1.925 0.29571,-9.35 -0.23323,-16.5 -0.52893,-7.15 -1.15412,-17.05 -1.38931,-22 -0.50588,-10.64702 -2.08505,-19.79902 -3.93828,-22.82409 -0.73315,-1.19675 -2.38433,-5.07605 -3.66927,-8.62067 -1.28494,-3.54462 -3.14861,-7.25712 -4.14153,-8.25 -0.9928,-0.99288 -1.8052,-2.6355 -1.8052,-3.65025 0,-1.01476 -0.968,-2.70226 -2.1511,-3.75 -1.183,-1.04775 -3.3981,-4.60499 -4.9222,-7.90499 -1.7162,-3.71573 -4.7996,-7.93219 -8.099,-11.0752 -8.1347,-7.74914 -9.3972,-8.29785 -19.4601,-8.45777 -4.8772,-0.0775 -14.4273,-0.5677 -21.2226,-1.08932 -13.9481,-1.0707 -15.145,-0.69217 -15.145,4.78967 0,5.28484 -4.684,22.97634 -6.9019,26.06855 -1.0903,1.52024 -2.736,5.46407 -3.6569,8.76407 -0.9209,3.3 -2.2365,6.675 -2.9235,7.5 -0.687,0.825 -1.5258,2.66843 -1.8639,4.09651 -0.3382,1.42808 -2.1986,5.22661 -4.1343,8.44117 -4.0854,6.78439 -4.2661,8.9075 -1.442,16.94243 1.5316,4.35777 2.0725,8.32219 2.0586,15.08853 -0.017,8.21286 -0.3561,9.90073 -3.2273,16.05455 -1.7646,3.78225 -3.4043,7.10181 -3.6437,7.37681 -0.6868,0.789 -5.2651,-4.94621 -5.2651,-6.5956 0,-2.79492 -4.015,-9.35559 -7.1175,-11.63046 -5.6077,-4.11161 -5.5354,-9.01209 0.2261,-15.32952 2.7464,-3.01137 7.2489,-12.74842 10.3803,-22.44824 1.5085,-4.6729 4.4636,-13.72845 6.5668,-20.12345 4.3989,-13.37508 7.1779,-34.86993 5.0982,-39.43425 -1.1206,-2.45952 -5.2273,-3.34336 -7.7743,-1.67317 -0.7162,0.46968 -1.2853,6.50598 -1.5776,16.73469 -0.3374,11.80683 -0.879,16.91726 -2.0665,19.5 -0.8851,1.925 -3.4907,8.9 -5.7902,15.5 -6.0464,17.3544 -6.9986,19.85928 -8.0148,21.08377 -2.8601,3.44623 -8.3161,26.95863 -7.2673,31.31823 0.3438,1.4289 2.5942,5.86765 5.0009,9.8639 7.8765,13.07859 8.812,16.65444 8.8247,33.7341 0.01,8.25 -0.3635,22.2 -0.8214,31 -1.623,31.18983 -1.9097,38.13351 -2.0649,50 -0.086,6.6 -0.6868,21.9 -1.3343,34 -2.8322,52.92148 -4.6451,243.0133 -2.4089,252.5727 0.5883,2.515 1.3293,17.14 1.6465,32.5 0.3172,15.36 0.9414,34.90233 1.3871,43.42733 0.4457,8.525 0.8047,17.075 0.7977,19 -0.01,1.925 0.4895,10.925 1.1033,20 0.6138,9.075 1.6166,27.3 2.2284,40.5 0.6117,13.2 1.4737,26.475 1.9154,29.5 0.4418,3.025 0.4221,8.875 -0.044,13 -0.4658,4.125 -0.5609,8.4 -0.2113,9.5 0.7667,2.4129 0.9724,11.1003 1.9413,82 1.0591,77.4942 1.0936,74.947 -1.7199,127 -1.1426,21.139 -1.6353,33.0595 -1.9039,46.0602 -0.069,3.3331 -0.5963,7.8331 -1.172,10 -0.9687,3.6457 -1.8789,14.2855 -3.4381,40.1898 -0.7315,12.1544 0.8502,14.0207 2.5426,3 0.6123,-3.9875 1.5529,-9.6876 2.0903,-12.6668 0.5374,-2.9792 0.977,-7.5853 0.977,-10.2356 0,-2.6504 0.4277,-6.7379 0.9503,-9.0832 0.5227,-2.3454 1.6361,-11.9144 2.4742,-21.2644 0.8381,-9.35 1.8163,-20.15 2.1738,-24 0.3575,-3.85 0.6329,-11.3875 0.6121,-16.75 -0.028,-7.3238 0.2837,-9.75 1.2545,-9.75 3.2321,0 3.7644,5.307 2.5771,25.6931 -0.6344,10.8938 -1.5423,26.5569 -2.0174,34.8069 -0.4752,8.25 -1.5517,20.5146 -2.3923,27.2547 -2.0765,16.6501 -2.5971,91.0866 -0.7186,102.7453 1.5914,9.8767 5.9131,23.4439 10.0797,31.6431 3.7684,7.4158 12.291,17.0401 20.5066,23.1575 5.5014,4.0964 21.5,13.1299 21.5,12.1398 0,-0.2328 2.9786,0.6979 6.6191,2.0682 3.6405,1.3703 7.353,2.4942 8.25,2.4976 0.897,0 2.9199,0.6783 4.4952,1.5 1.5754,0.8216 4.0504,1.495 5.5,1.4965 1.4497,0 7.8107,1.3002 14.1357,2.8861 11.8378,2.968 19.5601,3.6325 21.75004,1.8715 4.10099,-3.2978 -1.21421,-8.9507 -15.27394,-16.2446 -24.3752,-12.6453 -44.9479,-32.1713 -42.7502,-40.5753 0.8837,-3.3792 9.8754,-6.3432 20.4819,-6.7515 l 9.7078,-0.3737 0.6895,2.7472 c 0.9919,3.9522 -0.6691,5.8898 -5.3492,6.2398 -2.4599,0.184 -4.7428,1.0784 -5.8359,2.2863 -1.6051,1.7736 -1.6531,2.3778 -0.4527,5.6977 2.0572,5.6897 5.0799,9.1872 10.1817,11.7813 2.557,1.3001 6.6722,3.7293 9.145,5.3982 2.4729,1.6688 4.9588,3.0343 5.5243,3.0343 0.5656,0 2.33043,1.0957 3.92194,2.4348 1.5915,1.3392 4.88853,3.2138 7.32672,4.1657 2.43819,0.952 5.66177,2.5807 7.16349,3.6193 5.33303,3.6886 22.01905,11.0023 26.11247,11.4456 2.28641,0.2475 6.40712,1.0574 9.15712,1.7996 15.14684,4.0883 31.49729,6.4769 48,7.0124 2.75,0.089 7.475,0.4557 10.5,0.8145 21.8263,2.5889 66.88285,2.639 99,0.1103 1.925,-0.1516 10.25,-0.7737 18.5,-1.3825 8.25,-0.6088 17.475,-1.7285 20.5,-2.4882 3.025,-0.7597 8.33741,-1.6502 11.80537,-1.9788 4.04474,-0.3833 7.62998,-1.431 10,-2.9224 5.7528,-3.62 10.63292,-4.1665 14.24428,-1.5949 2.87077,2.0441 3.22248,2.0709 8.22468,0.6255 2.87412,-0.8305 9.27567,-2.0329 14.22567,-2.672 4.95,-0.6391 10.81504,-1.7981 13.03343,-2.5755 2.21839,-0.7774 5.90894,-1.4134 8.20121,-1.4134 2.29228,0 6.77724,-0.7236 9.96657,-1.6081 3.18933,-0.8845 8.11841,-1.9648 10.95349,-2.4008 2.83509,-0.436 6.66009,-1.2519 8.5,-1.813 1.83992,-0.5612 6.7203,-2.0224 10.8453,-3.2471 4.125,-1.2246 8.18721,-2.8141 9.02712,-3.5321 0.83992,-0.718 4.01964,-2.4466 7.06603,-3.8413 4.61798,-2.1141 6.29721,-3.6599 10.09974,-9.2967 6.38254,-9.4614 10.357,-20.5811 12.26028,-34.3018 0.87426,-6.3025 1.78327,-12.1341 2.02004,-12.9591 0.23676,-0.825 0.93221,-9.6 1.54545,-19.5 0.61323,-9.9 1.55596,-19.998 2.09495,-22.4399 2.63874,-11.9551 4.45642,-183.6417 2.01415,-190.2438 -0.83216,-2.2495 -0.85572,-2.2424 -2.3487,0.7057 -2.64412,5.2213 -4.68912,12.6963 -6.28622,22.978 -0.85435,5.5 -1.82891,10.675 -2.16571,11.5 -0.67719,1.6588 -0.82035,3.2603 -2.10063,23.5 -0.89954,14.2206 -2.11086,18.8653 -4.66444,17.8854 -2.26737,-0.87 -2.66946,-3.2785 -1.56459,-9.3715 1.17783,-6.4953 0.0271,-17.3175 -2.4792,-23.3159 -1.74628,-4.1795 -2.474,-4.407 -6.30345,-1.9711 -3.41385,2.1716 -4.18032,3.2426 -4.19951,5.8681 -0.008,1.1523 -0.91531,2.9095 -2.01531,3.905 -1.1,0.9955 -2,2.6869 -2,3.7586 0,2.4287 -4.60256,18.0293 -6.70928,22.7414 -0.86065,1.925 -2.35129,7.325 -3.31254,12 -2.07822,10.1074 -3.46169,15.617 -6.77971,27 -1.69538,5.8163 -2.75295,12.7624 -3.34958,22 -0.94702,14.6626 -1.88625,18.8188 -4.86111,21.5111 -1.85972,1.683 -1.97248,1.6579 -2.82884,-0.6291 -1.14303,-3.0526 -2.13555,-29.9538 -2.38242,-64.5727 -0.22124,-31.0257 -0.66362,-29.3252 8.79223,-33.7985 2.89111,-1.3677 5.40837,-2.8447 5.59391,-3.2822 0.18554,-0.4376 3.93734,-3.8716 8.33734,-7.6312 11.44005,-9.7751 19.24498,-18.0513 21.0122,-22.2808 0.84163,-2.0143 3.03107,-5.4971 4.86543,-7.7395 4.23616,-5.1785 6.7011,-10.0493 10.15283,-20.0625 1.51399,-4.392 3.78461,-9.567 5.04582,-11.5 2.65054,-4.0624 2.89952,-9.3909 1.93979,-41.5146 -0.50289,-16.8325 -0.54792,-36.4776 -0.12951,-56.5 0.0747,-3.575 -0.2454,-11.225 -0.71135,-17 -0.70973,-8.7966 -1.08024,-34.3177 -1.62595,-112 -0.0367,-5.225 -0.0538,-21.2 -0.038,-35.5 0.0272,-24.5126 -0.64554,-45.44163 -1.55113,-48.25963 -0.22262,-0.6928 0.0322,-3.5636 0.56622,-6.3796 1.13644,-5.9924 1.32094,-22.3699 0.36457,-32.3608 -0.36853,-3.85 -0.82715,-12.175 -1.01915,-18.5 -0.192,-6.325 -0.48802,-13.75 -0.65781,-16.5 -0.1698,-2.75 0.27991,-6.2245 0.99935,-7.7211 1.01467,-2.1107 1.06302,-3.793 0.21556,-7.5 -0.65427,-2.8618 -0.84698,-8.7904 -0.48042,-14.7789 0.66173,-10.8105 0.66839,-13.2357 0.28448,-103.5 -0.14152,-33.275 0.0542,-67.025 0.43485,-75 0.44837,-9.39277 0.30131,-16.49051 -0.41752,-20.15129 -0.9524,-4.85026 -0.87196,-6.01411 0.56749,-8.21099 1.49233,-2.27758 1.53178,-3.19774 0.35789,-8.34871 -0.83089,-3.6459 -1.02064,-7.08472 -0.51255,-9.28901 0.44372,-1.925 0.92603,-29.825 1.07181,-62 0.27378,-60.42609 0.12406,-63 -3.66448,-63 -1.10101,0 -1.25782,2.3467 -0.8256,12.35494 0.36738,8.50667 0.18787,12.5686 -0.57633,13.0409 -1.36466,0.8434 -1.61227,-0.28738 -3.80919,-17.39584 -1.40782,-10.96332 -2.35606,-14.81002 -5.04645,-20.47179 -1.8221,-3.83448 -3.3129,-7.55704 -3.3129,-8.27234 0,-1.93034 -7.99753,-10.25235 -9.87736,-10.27811 -0.89245,-0.0122 -2.69718,-0.84846 -4.01051,-1.8583 -2.00655,-1.54285 -2.28315,-2.39433 -1.73205,-5.33192 0.70219,-3.74299 6.14383,-10.60198 8.61992,-10.86511 3.87768,-0.41206 5.75879,0.35128 9,3.65212 1.925,1.96042 4.69591,4.77063 6.15759,6.24492 1.46167,1.47429 3.33278,4.98535 4.15803,7.80235 0.82525,2.817 2.22839,6.5295 3.11809,8.25 0.88971,1.7205 1.31135,3.12818 0.93698,3.12818 -0.37436,0 -0.009,0.7875 0.81205,1.75 0.82099,0.9625 2.43931,6.25 3.59626,11.75 2.77948,13.21334 4.95264,62.77075 3.44233,78.5 -0.64489,6.71627 -0.66222,10.92624 -0.0481,11.68283 0.52807,0.65055 0.8608,6.72555 0.73938,13.5 -0.12141,6.77444 0.1326,17.74896 0.56448,24.38781 0.56542,8.69171 0.45563,12.6865 -0.39219,14.27067 -0.64758,1.21001 -0.8432,2.7408 -0.43471,3.40175 0.40849,0.66095 0.8657,9.31415 1.01602,19.22933 0.15032,9.91519 0.52834,22.75261 0.84003,28.52761 0.31169,5.775 0.78703,15.675 1.0563,22 0.26926,6.325 0.75394,15.325 1.07704,20 0.95686,13.84457 1.12788,76.7996 0.27166,100 -0.91063,24.6748 -0.97687,32.2297 -0.51288,58.5 0.18456,10.45 -0.0801,23.725 -0.58818,29.5 -1.39524,15.8592 -1.48236,20.6305 -0.56603,31 0.51758,5.8571 0.37163,19.66923 -0.38062,36.01923 -0.83901,18.2359 -0.90176,27.4503 -0.2009,29.5 0.60925,1.7818 0.67913,4.1876 0.17374,5.9808 -0.72596,2.5759 -0.97948,46.3239 -0.49838,86 0.08,6.6 0.0558,18.3 -0.0538,26 -0.10961,7.7 -0.14094,15.8 -0.0696,18 0.0713,2.2 -0.009,9.85 -0.17811,17 -0.16929,7.15 0.12076,16.0206 0.64457,19.7125 0.58142,4.098 0.60353,9.7101 0.0568,14.4083 -0.53709,4.6151 -0.52796,9.3336 0.0228,11.7875 0.53618,2.3889 0.72838,35.5123 0.46182,79.5917 -0.44087,72.9043 -0.43404,92.2544 0.0341,96.5 0.25972,2.3555 -1.23362,47.5064 -1.83563,55.5 -0.22781,3.025 -0.58678,10.5182 -0.79771,16.6516 -0.21094,6.1333 -0.77296,11.7583 -1.24895,12.5 -0.47599,0.7416 -1.15231,5.1734 -1.50292,9.8484 -1.92259,25.6355 -3.81237,36.3544 -9.50093,53.8893 -1.85372,5.7141 -3.37041,10.9877 -3.37041,11.7192 0,3.1409 -7.50118,15.3825 -9.43806,15.4025 -0.58407,0.01 -4.42966,2.3608 -8.54577,5.2328 -4.11611,2.872 -9.74111,6.0561 -12.5,7.0757 -21.47859,7.9377 -30.49909,10.9557 -33.51617,11.2132 -1.925,0.1644 -5.10866,0.9849 -7.07481,1.8233 -1.96615,0.8384 -6.69115,2.0326 -10.5,2.6537 -3.80885,0.6211 -8.05019,1.5102 -9.42519,1.9757 -4.835,1.6372 -17.63869,3.9373 -31,5.5691 -7.425,0.9068 -17.325,2.4679 -22,3.4692 -4.675,1.0012 -11.92442,2.1275 -16.10983,2.5027 -4.18541,0.3753 -8.19784,1.0457 -8.91653,1.4899 -0.71868,0.4442 -2.36521,0.4051 -3.65896,-0.087 -1.56552,-0.5952 -4.26916,-0.3876 -8.08348,0.6208 -3.15216,0.8333 -8.4312,1.4757 -11.7312,1.4276 -5.97446,-0.087 -19.94491,0.3091 -58,1.6451 -20.17801,0.7083 -24.08572,0.7006 -35,-0.07 -3.3,-0.2328 -12.3,-0.4795 -20,-0.5481 -19.65958,-0.1752 -58.4854,-2.6691 -61.92745,-3.9777 -1.5821,-0.6015 -8.09564,-1.7819 -14.47454,-2.6231 -6.37891,-0.8412 -13.59067,-2.1763 -16.02615,-2.967 -2.43548,-0.7906 -5.67147,-1.4375 -7.19097,-1.4375 -1.5196,0 -3.0197,-0.4156 -3.3336,-0.9235 -1.1903,-1.9258 -19.4865,-6.8734 -27.5473,-7.4492 -4.3666,-0.312 -6.6046,-0.984 -16,-4.8046 -16.108,-6.5502 -24.6504,-10.3393 -28.1614,-12.4916 -5.6282,-3.45 -15.9175,-13.4659 -17.4169,-16.9541 -1.5675,-3.6466 -5.4217,-5.2965 -5.4217,-2.3209 0,3.2452 3.8021,12.1503 8.8182,20.6536 8.2472,13.9809 24.3382,29.2524 36.1818,34.3392 1.375,0.5905 3.8066,1.7211 5.4036,2.5124 1.597,0.7913 3.708,1.4387 4.691,1.4387 0.9831,0 2.0521,0.4283 2.3756,0.9517 0.3235,0.5235 3.8375,1.9287 7.809,3.1227 3.9714,1.194 9.0208,2.9809 11.2208,3.9707 6.609,2.9737 33.99206,7.4924 50.58796,8.3479 6.37338,0.3285 13.79838,1.0137 16.5,1.5227 2.70163,0.509 15.71205,1.4316 28.91205,2.0503 13.2,0.6187 29.85,1.6098 37,2.2025 7.15,0.5927 16.58688,1.2716 20.97084,1.5087 4.38396,0.2371 8.2064,0.6667 8.49431,0.9546 0.28791,0.2879 1.87603,0.2382 3.52916,-0.1105 1.65313,-0.3487 4.13069,-0.5541 5.50569,-0.4563 z m 158.59759,-32.9071 c -1.27954,-2.0703 10.3739,-6.5427 14.6187,-5.6104 2.82667,0.6208 3.90016,2.4525 1.43735,2.4525 -0.7405,0 -2.653,0.6518 -4.25,1.4483 -4.03652,2.0135 -10.99546,3.0212 -11.80605,1.7096 z M 246,1357.7908 c 0,-0.55 0.675,-1 1.5,-1 0.825,0 1.5,0.45 1.5,1 0,0.55 -0.675,1 -1.5,1 -0.825,0 -1.5,-0.45 -1.5,-1 z M 64.5,1342.8039 c -8.99546,-0.332 -15.87437,-1.0459 -17.18426,-1.7834 -1.20134,-0.6763 -3.70868,-1.2297 -5.57186,-1.2297 -3.65191,0 -10.82887,-2.0703 -17.24388,-4.9742 -2.2,-0.9959 -9.175,-3.9609 -15.5,-6.5888 -6.325,-2.628 -12.21043,-5.3764 -13.07874,-6.1076 -0.86831,-0.7312 -2.01278,-1.3294 -2.54327,-1.3294 -1.59477,0 -10.5399,-10.0176 -10.09518,-11.3056 0.22683,-0.6569 1.4935,-1.1463 2.81481,-1.0875 2.32288,0.1034 10.58524,2.7475 14.13881,4.5247 0.95504,0.4776 2.74272,0.8684 3.97262,0.8684 1.90544,0 1.5007,-0.6589 -2.73643,-4.4552 -2.73494,-2.4503 -5.55305,-4.4753 -6.26246,-4.5 -0.70941,-0.025 -3.18441,-1.0147 -5.5,-2.2002 -2.31559,-1.1855 -5.56016,-2.5123 -7.21016,-2.9485 -7.11362,-1.8805 -16.13339,-5.2767 -17.75,-6.6834 -0.9625,-0.8374 -1.75,-2.3529 -1.75,-3.3677 0,-1.523 0.79406,-1.845 4.54966,-1.845 2.50231,0 5.76481,0.6283 7.25,1.3963 4.04796,2.0931 18.32382,6.6037 20.90044,6.6037 1.24058,0 4.85306,1.193 8.02775,2.6512 6.93607,3.1858 8.66456,3.8712 13.44216,5.3303 2.0185,0.6164 4.1705,1.7239 4.78222,2.4609 0.61172,0.7371 3.02487,1.627 5.36257,1.9776 2.33769,0.3505 5.59427,1.4546 7.23683,2.4535 3.06612,1.8646 7.65208,3.0481 20.04089,5.172 8.23651,1.412 32.64589,0.8058 41.90748,-1.0407 24.72958,-4.9305 42.01213,-11.6167 53.73448,-20.7886 4.78701,-3.7455 5.98488,-4.279 7.25,-3.2291 0.83354,0.6918 1.51552,2.7113 1.51552,4.4878 0,2.7708 -0.88631,3.9265 -6.23283,8.1276 -6.7383,5.2947 -11.95748,8.3975 -14.12523,8.3975 -0.75092,0 -4.38673,1.37 -8.07957,3.0444 -3.69285,1.6744 -8.59259,3.4502 -10.88832,3.9463 -21.7918,4.7085 -30.48961,5.602 -51.67405,5.3082 -15.63815,-0.2169 -31,-2.7067 -31,-5.0243 0,-1.5425 -1.69049,-1.7031 -2.18888,-0.208 -0.23365,0.701 -2.9123,0.3581 -7.81323,-1 C 18.28863,1315.444 16,1315.2927 16,1317.1303 c 0,1.8486 4.22727,3.6041 12.5,5.1909 3.85,0.7384 9.7,2.3346 13,3.5471 5.82235,2.1392 25.96015,4.6948 40,5.0763 7.99278,0.2172 26.7488,-1.8156 38.5,-4.1727 5.225,-1.0481 10.4,-1.8935 11.5,-1.8787 9.65247,0.1295 30.75868,-8.9667 39.5,-17.0234 11.37354,-10.4828 13.77409,-13.2679 16.81959,-19.5141 3.6056,-7.3949 4.67349,-8.3806 6.13024,-5.6586 1.53632,2.8706 1.30632,4.8617 -1.12356,9.7271 -1.19555,2.3939 -1.88459,4.6416 -1.53121,4.995 1.13492,1.1349 5.67249,-2.5786 9.27076,-7.5871 3.37814,-4.7022 8.4679,-7.7565 10.66379,-6.3994 2.20867,1.365 0.1715,9.7952 -3.6537,15.1196 -2.06994,2.8812 -4.32444,5.2385 -5.01,5.2385 -0.68557,0 -2.44073,1.6875 -3.90035,3.75 -5.91842,8.3629 -22.50316,18.8935 -36.16556,22.9636 -2.75,0.8192 -6.92752,2.3619 -9.28337,3.4282 -2.35586,1.0662 -6.85586,2.3823 -10,2.9247 -3.14415,0.5423 -7.63559,1.4242 -9.98098,1.9598 -2.34539,0.5355 -6.2536,0.9737 -8.6849,0.9737 -2.4313,0 -5.64936,0.4672 -7.15123,1.0382 -5.19917,1.9767 -28.89067,2.8612 -52.89952,1.9749 z M 14,1315.3978 c 0,-0.2162 -0.69837,-0.661 -1.55194,-0.9886 -0.88992,-0.3415 -1.29132,-0.1738 -0.94098,0.3931 0.58726,0.9502 2.49292,1.4054 2.49292,0.5955 z m 219.66667,17.7263 c -1.21843,-1.2184 -0.68945,-3.1106 1.05695,-3.7807 1.62373,-0.6231 4.27638,1.6339 4.27638,3.6385 0,0.9716 -4.38702,1.0885 -5.33333,0.1422 z m 7.16589,-1.8014 c -1.01355,-2.2245 -0.71213,-2.8909 3.05321,-6.75 2.29777,-2.3551 4.44338,-5.3188 4.76802,-6.5861 0.98413,-3.8419 -0.22698,-11.9118 -2.06327,-13.7481 -1.09447,-1.0945 -1.3714,-2.0668 -0.76217,-2.6761 1.75307,-1.753 5.10565,1.1558 8.08633,7.0161 2.47496,4.8659 3.58555,5.9863 7.49539,7.5614 3.88998,1.567 4.58993,2.2678 4.58993,4.595 0,1.5102 -0.86469,3.5285 -1.92153,4.4849 -1.49592,1.3538 -19.77125,8.571 -21.70337,8.571 -0.22989,0 -0.92403,-1.1107 -1.54254,-2.4681 z m -258.64825,-6.2819 c -12.44768,-10.9986 -16.83086,-15.4969 -20.2191,-20.75 -4.93456,-7.6506 -7.49278,-10.1555 -11.11049,-10.8791 -3.56427,-0.7128 -4.63971,-3.096 -2.476,-5.4869 1.99655,-2.2061 2.07574,-4.5119 0.2082,-6.0619 -0.7772,-0.645 -1.72156,-3.5126 -2.09858,-6.3724 -0.37702,-2.8598 -1.54114,-7.1694 -2.58692,-9.5768 -1.04578,-2.4074 -1.90142,-5.1934 -1.90142,-6.191 0,-0.9976 -0.424,-2.0759 -0.94222,-2.3962 -1.13232,-0.6998 -1.50346,-3.5864 -3.54037,-27.5357 -0.86539,-10.175 -2.02852,-21.875 -2.58473,-26 -0.78076,-5.7903 -1.61349,-158.1148 -0.92662,-169.5 0.0664,-1.1 -0.19912,-11.9428 -0.58997,-24.0952 -0.82029,-25.5047 -0.55228,-27.67 3.36879,-27.2179 l 2.71512,0.3131 0.11814,24 c 0.065,13.2 0.47244,35.925 0.90547,50.5 0.43304,14.575 0.85795,52.15 0.94424,83.5 0.10036,36.4632 0.57119,60.0625 1.30678,65.5 0.63244,4.675 1.64764,13.9 2.25601,20.5 1.37027,14.8656 2.15608,19.8515 4.72817,30 1.11517,4.4 3.24109,13.175 4.72427,19.5 3.03044,12.9232 7.49542,22.2138 13.6185,28.3369 2.14413,2.1441 3.89842,4.4681 3.89842,5.1644 0,1.6552 7.5903,8.4987 9.42616,8.4987 1.90992,0 7.57384,4.8473 7.57384,6.4819 0,1.0411 -2.0139,2.5181 -3.43347,2.5181 -0.14845,0 -1.67045,-1.2375 -3.38222,-2.75 z m -68.67071,-19 c -4.6108,-4.939 -6.3718,-13.2559 -6.9861,-32.9948 -0.3047,-9.7888 -0.9971,-24.3132 -1.5387,-32.2765 -1.6426,-24.1512 -3.077,-70.4298 -3.3778,-108.9787 -0.1566,-20.075 -0.5955,-59.45 -0.9752,-87.5 -0.3798,-28.05 -0.8459,-73.3378 -1.0359,-100.6395 -0.1899,-27.3017 -0.6963,-50.2074 -1.1253,-50.9016 -1.2364,-2.0006 -1.5993,-86.9423 -0.4868,-113.9589 1.6941,-41.1437 1.8029,-49.9985 0.7799,-63.50003 -0.5417,-7.15 -0.9054,-16.9071 -0.8083,-21.6824 0.1691,-8.3084 0.066,-8.7548 -2.3914,-10.365 -2.9126,-1.9084 -3.3032,-4.5745 -1.0066,-6.8711 0.8588,-0.8588 1.5762,-2.3534 1.5943,-3.3215 0.3776,-20.1872 -1.3773,-156.2687 -2.1312,-165.26 -0.5765,-6.875 -1.2729,-26.225 -1.5476,-43 -0.5235,-31.972 -0.7304,-34.7312 -3.1348,-41.81338 -1.3075,-3.85115 -1.3095,-4.8109 -0.016,-8.04258 1.2092,-3.02206 1.2926,-5.60836 0.4728,-14.65681 -1.0672,-11.77814 -2.0642,-27.41735 -3.7287,-58.48723 -0.5745,-10.725 -1.7311,-23.1 -2.5701,-27.5 -0.8391,-4.4 -1.985,-12.5 -2.5465,-18 -0.5616,-5.5 -1.8696,-12.7 -2.9068,-16 -1.0372,-3.3 -2.2149,-7.8 -2.6171,-10 -0.4022,-2.2 -1.524,-5.85802 -2.4928,-8.12894 -1.6532,-3.87486 -2.3049,-7.11869 -2.0472,-10.19061 0.064,-0.76895 1.0307,-1.18621 2.3156,-1 4.2183,0.61137 20.7026,36.05778 20.8432,44.81955 0.022,1.375 0.6326,4.75 1.3567,7.5 1.6906,6.42083 4.114,6.708 7.3349,0.86919 2.0584,-3.73156 2.2814,-5.47126 2.3072,-18 0.041,-19.85816 -1.8611,-28.81703 -9.4199,-44.36919 -5.9203,-12.1807 -11.6039,-21.13622 -16.358,-25.77478 -3.4949,-3.4099 -3.553,-5.22522 -0.1671,-5.22522 2.6132,0 11.2554,8.15796 15.3385,14.47906 6.6962,10.36633 8.8954,15.12434 14.0365,30.36747 3.1935,9.46854 5.7931,15.65347 6.5794,15.65347 1.7213,0 2.6693,-3.84337 4.0697,-16.5 1.39311,-12.59029 2.16842,-15 4.8262,-15 3.94212,0 5.20208,4.04009 6.1216,19.62913 0.47564,8.06366 0.68312,14.95517 0.46106,15.31446 -0.49174,0.79566 -1.83128,53.60649 -1.90379,75.05641 -0.0288,8.525 0.30878,30.35 0.75022,48.5 0.44144,18.15 0.66056,38.4 0.48692,45 -0.55145,20.96066 -0.0433,147.326 0.77405,192.5 1.10552,61.099 1.08645,64.252 -0.39173,64.7475 -0.68721,0.2303 -1.51552,-0.4061 -1.84068,-1.4143 -0.32516,-1.0083 -0.96828,-2.7332 -1.42916,-3.8332 -2.86439,-6.8366 -5.04512,-76.7449 -3.17056,-101.6392 0.59344,-7.8809 0.66704,-15.2693 0.17433,-17.5 -0.469,-2.1235 -1.15667,-24.5608 -1.52816,-49.8608 -0.37148,-25.3 -0.69404,-47.125 -0.7168,-48.5 -0.0228,-1.375 0.0699,-12.4 0.20585,-24.5 0.13598,-12.1 -0.0459,-22.72655 -0.40407,-23.61455 -0.35822,-0.888 -1.75158,-2.11586 -3.09628,-2.72856 -3.4195,-1.55801 -3.2461,-5.45028 0.3571,-8.01596 l 2.80206,-1.99525 -0.16819,-17.32284 c -0.15706,-16.17726 -1.72387,-37.86164 -2.86967,-39.71556 -0.2775,-0.44894 -0.7215,-4.81923 -0.9868,-9.71177 -0.464,-8.5597 -3.1683,-25.9776 -5.9018,-38.01357 -1.3503,-5.94571 -3.171,-7.91758 -4.3536,-4.7151 -0.3723,1.00824 -1.835,3.37251 -3.2505,5.25393 -2.5438,3.38111 -2.5736,3.63036 -2.5736,21.5 0,19.45404 1.0302,45.38802 2.5058,63.07923 1.2048,14.4443 1.5114,30.85412 0.604,32.32236 -0.3974,0.64294 -0.033,7.35843 0.8096,14.92331 1.5497,13.91229 3.581,39.91362 4.1213,52.75433 0.669,15.9005 2.6076,40.3936 3.6409,46 0.6081,3.3 1.2132,9.375 1.3445,13.5 1.46,45.8635 1.5729,58 0.5393,58 -2.5545,0 -2.7285,-1.5192 -6.0708,-53 -1.0127,-15.5988 -1.7729,-21.6783 -2.9909,-23.9179 -1.8547,-3.4103 -2.1419,10.423 -1.4259,68.6829 0.4173,33.9543 0.6645,63.803 0.5494,66.3305 l -0.2094,4.5955 5.6301,2.1545 c 3.0965,1.185 7.1169,2.1545 8.9341,2.1545 4.59395,0 6.18918,4.4959 2.88909,8.1424 -1.56696,1.7315 -1.7215,1.7271 -4.06379,-0.1153 -1.3392,-1.0535 -3.087,-1.6651 -3.8839,-1.3593 -0.7969,0.3058 -2.129,-0.01 -2.9603,-0.6984 -0.8313,-0.6899 -1.825,-0.9408 -2.2083,-0.5575 -0.3833,0.3833 -0.2148,1.0099 0.3745,1.3925 0.5892,0.3826 1.6538,1.8206 2.3657,3.1956 0.7119,1.375 2.548,4.1003 4.0803,6.0562 1.5322,1.956 3.5786,5.556 4.54752,8 0.96893,2.4441 3.87701,7.3688 6.4624,10.9438 5.43943,7.52153 11.1908,21.63303 12.63453,31.00003 1.12354,7.2896 1.0148,49.7071 -0.1404,54.7674 -0.86372,3.7835 -4.11613,5.8464 -10.05434,6.3773 -3.30175,0.2951 -4.04066,0.024 -4.36267,-1.599 -0.24922,-1.2563 0.63473,-2.7689 2.47499,-4.2352 l 2.86267,-2.281 0.30698,-19.7647 c 0.39048,-25.1411 -1.42237,-41.6492 -5.17124,-47.09 -1.3926,-2.0211 -4.80294,-8.824 -7.57854,-15.11753 -6.076,-13.7771 -9.7752,-19.7393 -11.3006,-18.2139 -0.7562,0.7562 -0.7489,8.8758 0.025,27.86193 0.6006,14.7371 1.1714,41.8697 1.2684,60.2947 0.097,18.425 0.3408,40.925 0.5418,50 0.2011,9.075 0.3048,47.1 0.2306,84.5 -0.1854,93.3866 -0.057,125.2641 0.7598,188.5 0.3871,29.975 0.6897,74.075 0.6724,98 -0.026,36.4007 0.2091,43.9676 1.4421,46.3649 2.5086,4.8774 3.414,1.6748 4.0256,-14.2389 0.4279,-11.1345 0.949,-15.4383 1.972,-16.2873 3.40939,-2.8295 3.79184,0.3687 3.82126,31.9548 0.0173,18.5878 0.50782,34.0611 1.24284,39.2065 1.51524,10.6071 1.13389,12 -3.2853,12 -2.4115,0 -4.1343,-0.795 -5.9594,-2.75 z M 265,1304.0968 c -3.82907,-1.3685 -4.84917,-6.3846 -3.19237,-15.698 l 0.69237,-3.8921 4.40011,5.884 c 3.09745,4.142 4.54219,7.1446 4.88005,10.142 0.46774,4.1498 0.40669,4.2561 -2.40011,4.1792 -1.58403,-0.043 -3.55505,-0.3202 -4.38005,-0.6151 z m -15.8437,-9.4703 c -3.80462,-2.6935 -4.25552,-3.4015 -3.63321,-5.7054 0.39077,-1.4467 0.91986,-5.6678 1.17576,-9.3803 0.52283,-7.5851 1.09854,-7.9821 6.74399,-4.6512 l 3.55716,2.0988 0,7.2762 c 0,8.7311 -0.84754,13.5422 -2.375,13.4816 -0.61875,-0.024 -3.07966,-1.4284 -5.4687,-3.1197 z m -397.3426,-1.0907 c -7.6206,-6.3688 -15.1357,-17.9518 -18.6499,-28.745 -4.243,-13.0316 -5.2235,-20.6732 -5.2107,-40.6107 0.015,-22.8865 0.9613,-55.637 1.6275,-56.3032 0.249,-0.249 1.0077,0.1014 1.6861,0.7786 0.9012,0.8999 1.3756,9.6324 1.7616,32.4333 0.2906,17.1611 0.8892,31.78 1.3303,32.4864 0.4411,0.7065 1.2299,4.3058 1.7528,7.9986 1.1677,8.2453 3.6312,13.5928 10.5399,22.879 l 5.3284,7.162 11.7941,4.588 c 6.6029,2.5686 13.4619,4.588 15.5834,4.588 3.072,0 3.725,0.3313 3.449,1.75 -0.2601,1.3374 -1.3973,1.7726 -4.8233,1.8458 -7.0288,0.1503 -14.0763,3.3584 -16.9004,7.6933 -2.819,4.3271 -5.3564,4.7256 -9.2688,1.4559 z m 382.31798,-10.245 c -2.13074,-1.925 -4.12182,-3.5 -4.42462,-3.5 -0.3028,0 -3.52561,-1.995 -7.16182,-4.4333 -3.6362,-2.4384 -8.28168,-4.9847 -10.32329,-5.6585 -2.04161,-0.6738 -5.69377,-2.2788 -8.11592,-3.5666 -2.42215,-1.2879 -5.80605,-2.3416 -7.51978,-2.3416 -1.71373,0 -4.9092,-0.9734 -7.10106,-2.163 -2.88006,-1.5632 -6.14892,-2.253 -11.78778,-2.4874 -4.29142,-0.1784 -10.14142,-0.9785 -13,-1.7781 -3.35183,-0.9375 -9.63611,-1.4323 -17.69741,-1.3932 -15.27471,0.074 -28.61659,-0.9027 -31.1973,-2.2839 -1.19569,-0.6399 -1.80646,-1.8559 -1.61338,-3.2121 0.29963,-2.1047 0.73757,-2.1823 12.31068,-2.181 31.52625,0 61.58645,2.2115 63.08337,4.6336 0.29407,0.4758 2.55545,0.8651 5.02531,0.8651 2.46985,0 5.70579,0.6177 7.19098,1.3726 1.48519,0.7549 5.40034,1.6693 8.70034,2.0318 3.3,0.3626 8.025,1.4983 10.5,2.5237 2.475,1.0255 7.54827,3.0913 11.27393,4.5909 8.75504,3.5237 10.72607,6.0108 10.72607,13.5341 0,3.1808 -0.27314,6.4951 -0.60699,7.3651 -0.9814,2.5575 -4.11182,1.8306 -8.26133,-1.9182 z m 44.09083,-16.0567 c -2.59978,-1.821 -2.94225,-3.7321 -0.58537,-3.2666 0.90043,0.1778 2.01093,1.3358 2.46778,2.5733 0.98763,2.6753 0.96117,2.685 -1.88241,0.6933 z m -35.12476,-16.2606 c -0.56967,-1.0645 -1.22223,-22.9181 -1.57515,-52.75 -0.3314,-28.013 -1.07207,-60.1577 -1.64594,-71.4327 -1.22152,-23.9999 -1.54319,-36.753 -2.3709,-94 -0.60898,-42.1187 -0.7528,-47.3792 -2.03683,-74.5 -1.09252,-23.0756 -0.67818,-149.8194 0.49989,-152.918 0.65225,-1.7155 1.6459,-2.6078 2.67811,-2.4048 3.34706,0.6583 5.2911,5.1198 6.34079,14.552 1.34412,12.0779 2.50968,51.658 1.95153,66.2708 -0.87047,22.7898 0.0774,63.2416 1.68245,71.797 0.42502,2.2656 1.10935,3.2089 2.17854,3.003 1.39546,-0.2688 1.54436,-7.5331 1.4205,-69.3001 -0.0761,-37.95 0.10386,-70.2374 0.39991,-71.7499 0.29604,-1.5125 0.93667,-2.75 1.42362,-2.75 1.82294,0 3.12693,4.4033 3.50419,11.8329 0.21413,4.2169 0.66862,10.3671 1.00997,13.6671 0.34135,3.3 0.13865,8.7 -0.45045,12 -0.58909,3.3 -1.03316,11.625 -0.98682,18.5 0.0463,6.875 0.0713,14.3 0.0554,16.5 -0.0159,2.2 -0.0186,5.575 -0.006,7.5 0.0126,1.925 -0.0351,4.4 -0.10601,5.5 -0.0709,1.1 -0.0596,5.375 0.025,9.5 0.77253,37.6545 1.89838,136.6383 2.37931,209.1876 0.18481,27.8782 0.59652,51.1091 0.9149,51.6243 0.31839,0.5152 0.79869,17.8244 1.06733,38.465 0.4192,32.2095 0.28012,37.7013 -0.98133,38.7482 -0.80836,0.6709 -1.50725,0.8272 -1.55308,0.3473 -0.0458,-0.4798 -0.3023,-1.9974 -0.56993,-3.3724 -0.26762,-1.375 -0.64665,-13.975 -0.84228,-28 -0.19563,-14.025 -0.66996,-35.175 -1.05407,-47 -0.38411,-11.825 -0.83798,-28.025 -1.00861,-36 -0.17062,-7.975 -0.57141,-19.225 -0.89065,-25 -0.31924,-5.775 -0.78594,-32.0044 -1.03711,-58.2875 -0.44184,-46.2364 -1.00952,-54.4946 -3.34705,-48.6907 -1.00691,2.5001 -3.15905,17.6384 -5.25701,36.9782 -0.85713,7.9014 -0.84272,23.2454 0.0582,62 0.6585,28.325 1.33736,64.1 1.5086,79.5 0.17123,15.4 0.63347,36.8848 1.02719,47.744 0.39372,10.8592 0.43281,20.8717 0.0869,22.25 -0.73527,2.9296 -3.09985,3.292 -4.49311,0.6887 z m -67.44935,-28.0278 c -1.54824,-1.616 -4.12725,-3.2007 -5.73112,-3.5214 -4.03096,-0.8062 -6.90877,-5.7957 -6.91354,-11.9866 -0.003,-4.3596 0.46266,-5.3718 4.58325,-9.9549 2.52284,-2.806 5.72414,-7.3721 7.114,-10.1469 1.38985,-2.7748 3.13055,-5.7333 3.86822,-6.5743 0.73766,-0.8411 2.02034,-3.9911 2.85039,-7 0.83005,-3.009 2.42345,-8.1228 3.5409,-11.3642 2.38425,-6.9161 5.0395,-22.4786 5.0395,-29.5368 0,-10.0305 3.77544,-6.3692 4.17609,4.0497 0.54995,14.3019 -3.515,42.4157 -6.87409,47.5423 -0.80094,1.2224 -1.30905,3.2357 -1.12913,4.474 0.23366,1.6081 1.11291,0.2307 3.07713,-4.8205 1.5125,-3.8896 2.75,-7.9367 2.75,-8.9936 0,-1.0569 0.41892,-2.3492 0.93094,-2.8717 1.35951,-1.3873 4.80981,-15.253 6.05066,-24.3156 0.59032,-4.3115 1.48528,-9.2755 1.98878,-11.0311 0.86809,-3.0269 0.65224,-62.8056 -0.44539,-123.3502 -0.33684,-18.5795 -0.14292,-27.4975 0.63504,-29.205 0.84479,-1.8541 0.8124,-3.2005 -0.13184,-5.48 -0.9182,-2.2168 -1.23303,-11.4894 -1.18141,-34.7951 0.0387,-17.4752 0.16011,-32.898 0.26979,-34.273 0.10967,-1.375 -0.14038,-9.475 -0.55568,-18 -0.4153,-8.525 -0.78459,-17.3 -0.82065,-19.5 -0.1282,-7.8228 1.57117,-27.5744 2.41743,-28.0974 0.47313,-0.2925 1.6437,-0.283 2.60128,0.021 1.60538,0.5095 1.71859,2.56 1.45282,26.3145 -0.3409,30.4693 -0.35917,24.1042 0.15712,54.762 0.23155,13.75 0.94069,36.0415 1.57586,49.5366 0.72645,15.4346 0.99781,48.6353 0.73149,89.5 -0.57744,88.6055 -0.58612,89.104 -1.67994,96.4634 -0.53135,3.575 -1.12382,8.975 -1.31659,12 -0.19278,3.025 -0.84681,7.075 -1.45341,9 -0.6066,1.925 -2.07585,7.319 -3.265,11.9866 -1.18915,4.6677 -3.01691,10.1623 -4.0617,12.2102 -1.04478,2.0479 -1.8996,4.3467 -1.8996,5.1084 0,0.7616 -0.95404,2.2421 -2.12008,3.2898 -1.16604,1.0478 -3.08237,3.93 -4.25851,6.405 -1.86903,3.9331 -2.5806,4.5374 -5.64823,4.7966 -2.79764,0.2363 -4.08097,-0.2997 -6.32478,-2.6417 z m -13.98173,-40.8216 c -1.63157,-1.6315 -0.57946,-6.3443 1.75829,-7.8761 2.7261,-1.7862 10.7054,-13.3696 12.3699,-17.9572 0.59867,-1.65 2.11743,-7.05 3.37502,-12 2.24981,-8.8554 2.28241,-9.7952 2.02983,-58.5 -0.14119,-27.225 -0.68043,-62.55 -1.19832,-78.5 -0.51788,-15.95 -0.707,-64.775 -0.42026,-108.5 0.28673,-43.725 0.47845,-81.7811 0.42604,-84.569 -0.12297,-6.5408 1.34734,-10.431 3.9424,-10.431 4.66323,0 6.74109,11.1923 4.91974,26.5 -0.65441,5.5 -1.06345,18.55 -0.90898,29 0.15448,10.45 0.24299,20.35 0.1967,22 -0.4891,17.4345 -0.0843,128.5258 0.49737,136.5 0.98788,13.5426 1.04896,59.2143 0.11769,88 -0.7143,22.079 -1.46776,28.1814 -5.92656,48 -2.3797,10.5773 -3.22056,12.5549 -9.46065,22.25 -3.94405,6.1278 -4.65367,6.75 -7.69804,6.75 -1.84443,0 -3.65351,-0.3 -4.02017,-0.6667 z M 199.96861,838.253 c -1.8873,-2.2741 -0.58355,-29.2758 1.51487,-31.3743 1.06056,-1.0605 1.81468,-1.1897 2.56491,-0.4395 1.32326,1.3232 3.1301,13.5731 2.14702,14.5562 -0.39657,0.3966 -0.48484,3.8999 -0.19616,7.7853 0.28868,3.8853 0.19645,7.952 -0.20496,9.0372 -0.86985,2.3514 -4.03885,2.5881 -5.82568,0.4351 z M 157.2,808.5908 c -2.08719,-2.0872 -1.31156,-4.6131 2.25091,-7.3304 4.56417,-3.4812 4.68013,-4.49 4.82602,-41.9838 0.15936,-40.95523 -0.899,-61.48403 -3.4874,-67.64473 -1.58204,-3.7654 -1.73411,-5.0761 -0.79299,-6.8346 1.61891,-3.025 6.93682,-5.0065 13.43616,-5.0065 7.45394,0 8.06214,-1.2403 7.60073,-15.5 -0.19577,-6.05 -0.34624,-12.8 -0.33439,-15 0.0118,-2.2 0.0543,-8.95 0.0944,-15 0.0401,-6.05 0.082,-17.0048 0.0932,-24.344 0.0222,-14.6023 1.16072,-20.156 4.13189,-20.156 1.02488,0 2.08521,0.3588 2.35627,0.7974 0.27107,0.4386 0.72743,20.0055 1.01414,43.4819 0.32447,26.5686 0.91334,43.417 1.55967,44.6247 0.9157,1.711 2.17188,1.9425 10.63289,1.9599 5.27698,0.011 10.60497,-0.3645 11.83997,-0.834 1.24128,-0.472 2.86395,-0.4715 3.62846,0.001 0.76064,0.4701 1.84808,0.4724 2.41652,0.01 1.10232,-0.9061 5.37813,-1.302 12.28354,-1.1374 3.86286,0.092 4.25,0.3337 4.25,2.6523 0,4.1514 -6.58397,6.1541 -17.5,5.3229 -1.1,-0.084 -4.79819,0.3331 -8.2182,0.9262 -4.08761,0.709 -7.34267,0.7507 -9.5,0.1217 -2.16155,-0.6302 -5.67126,-0.5824 -10.2818,0.1402 -4.29045,0.6724 -7.91555,0.7509 -9.36527,0.2028 -2.98752,-1.1295 -8.96738,0.6326 -9.67106,2.8497 -0.28243,0.8898 -0.022,5.8406 0.57869,11.0017 1.35699,11.6587 2.0176,73.35843 0.90896,84.89533 -1.0001,10.4073 -3.55828,16.6886 -8.25621,20.2719 -3.99631,3.0481 -4.78049,3.2312 -6.49511,1.5166 z m 96.18493,-9.2393 c -0.78565,-2.0473 0.5925,-4.0713 4.61706,-6.7805 1.92391,-1.2952 4.39801,-3.829 5.49801,-5.6308 1.1,-1.8017 3.4625,-5.2763 5.25,-7.7213 1.7875,-2.445 3.25,-5.1497 3.25,-6.0104 0,-2.0033 4.86955,-16.5556 5.9928,-17.909 1.15392,-1.3904 3.93467,-9.0658 5.1602,-14.2431 0.83496,-3.5274 0.64624,-5.1862 -1.13016,-9.9341 -2.41819,-6.4632 -8.83105,-16.85503 -17.27284,-27.99003 -3.1625,-4.1715 -5.75,-8.0015 -5.75,-8.5113 0,-0.5097 -3.19964,-4.0511 -7.11032,-7.8698 -4.13168,-4.0345 -6.89337,-7.5084 -6.59244,-8.2926 0.34072,-0.8879 4.08296,-1.7894 10.93945,-2.6353 12.17752,-1.5024 15.09648,-0.7443 14.57324,3.7848 -0.27856,2.4112 -0.76541,2.7144 -4.80993,2.9958 -5.48064,0.3814 -6.88362,1.5138 -4.84815,3.9133 0.82752,0.9755 2.49988,3.5173 3.71635,5.6485 1.21647,2.1312 4.38763,6.4062 7.04702,9.5 4.71867,5.4895 6.62037,8.1806 14.35147,20.30923 3.16858,4.9708 3.86455,7.0667 4.38294,13.1993 0.65709,7.7733 0.38584,8.8198 -6.51034,25.1166 -4.07244,9.6238 -6.9359,15.2563 -8.13191,15.9954 -0.55406,0.3425 -1.00906,2.0586 -1.01112,3.8136 -0.003,2.789 -2.98246,9.2563 -4.92489,10.691 -0.37232,0.275 -1.67779,2.1477 -2.90105,4.1616 -3.0684,5.0514 -12.39318,8.0272 -13.78539,4.3991 z M 186.25,793.678 c -2.02598,-2.0863 -1.47997,-5.4614 1.07159,-6.624 1.27687,-0.5817 4.36823,-0.8271 6.86968,-0.5451 3.06095,0.345 4.8029,0.1003 5.32736,-0.7482 0.87896,-1.4222 0.95465,-28.1566 0.0903,-31.8923 -0.83419,-3.6053 0.33957,-7.0776 2.39249,-7.0776 2.63542,0 3.04658,1.9358 4.14168,19.5 0.54867,8.8 1.40628,17.0125 1.9058,18.25 0.7807,1.9341 1.64868,2.25 6.18164,2.25 2.90038,0 9.97849,-0.8965 15.72913,-1.9923 5.75063,-1.0958 10.82896,-1.6191 11.28518,-1.1629 0.45621,0.4563 0.39866,1.9626 -0.12788,3.3475 -1.45261,3.8207 -8.67209,6.1218 -20.11697,6.4121 -5.225,0.1326 -14.9,0.54 -21.5,0.9055 -9.18171,0.5084 -12.29357,0.3622 -13.25,-0.6227 z m -370.7851,-9.944 c -0.9592,-1.552 0.4226,-6.1404 2.2519,-7.478 2.3349,-1.7074 3.7536,-22.036 2.4401,-34.9652 -0.5587,-5.5 -1.0524,-18.775 -1.0971,-29.50003 -0.1356,-32.5425 -1.429,-42.0847 -6.525,-48.141 -2.9056,-3.4531 -3.0555,-4.182 -1.1803,-5.7383 1.301,-1.0796 10.302,-0.069 12.7256,1.4288 0.5089,0.3145 3.7018,0.8101 7.0953,1.1013 3.3934,0.2911 7.1047,1.1327 8.2473,1.8701 2.2045,1.4229 12.0639,4.8568 17.0773,5.9479 1.65,0.3591 4.5809,1.6864 6.5131,2.9495 1.9322,1.2631 4.6322,2.6448 6,3.0703 6.4614,2.0104 18.3474,13.5489 19.9683,19.3846 1.4088,5.0718 1.2411,18.1288 -0.2713,21.1179 -0.6932,1.3702 -1.9896,2.6316 -2.8809,2.8033 -1.3024,0.2508 -1.7516,-0.925 -2.2887,-5.9912 -1.5337,-14.4679 -2.5403,-17.589 -7.3688,-22.8474 -2.5029,-2.7257 -4.9336,-4.9558 -5.4017,-4.9558 -0.468,0 -2.099,-0.9227 -3.6244,-2.0505 -3.8896,-2.8757 -21.4339,-8.9818 -38.6456,-13.4502 -4.1173,-1.0689 -4.3834,0.1617 -3.4624,16.0083 0.778,13.3872 1.8171,46.02153 2.117,66.49243 0.113,7.7156 -0.8846,23.7395 -1.7293,27.7754 -0.9905,4.7332 -7.9859,8.3626 -9.9604,5.1678 z m 497.63423,0.1392 c -1.03874,-0.6576 -1.24703,-2.1858 -0.80576,-5.9116 0.52603,-4.4416 0.26564,-5.4795 -2.24374,-8.9436 -1.56136,-2.1554 -3.56425,-5.2258 -4.45086,-6.823 -0.88662,-1.5973 -2.47446,-4.0292 -3.52855,-5.4042 -1.05408,-1.375 -2.21186,-3.9625 -2.57282,-5.75 -0.55593,-2.7529 -0.36688,-3.25 1.23605,-3.25 2.04392,0 7.26655,4.8692 7.26655,6.7748 0,0.6409 1.34078,2.1566 2.97951,3.3682 1.63874,1.2115 3.49563,3.8125 4.12643,5.7799 0.6308,1.9674 1.81824,4.3463 2.63875,5.2865 2.32914,2.6689 2.8222,10.2765 0.8601,13.271 -1.73621,2.6498 -3.18496,3.0714 -5.50566,1.602 z M -81,782.3498 c 0,-0.8574 0.45,-1.559 1,-1.559 0.55,0 1,0.4234 1,0.941 0,0.5175 -0.45,1.2191 -1,1.559 -0.55,0.3399 -1,-0.083 -1,-0.941 z m 335.05703,-3.9903 c -1.24949,-1.5055 -1.36879,-9.2904 -0.67005,-43.7245 0.20822,-10.2607 0.68288,-19.14823 1.05481,-19.75003 1.14257,-1.8487 3.56399,-1.2154 4.41925,1.1558 0.44635,1.2375 0.90931,10.57503 1.02881,20.75003 0.1195,10.175 0.35524,20.525 0.52388,23 0.16863,2.475 -0.15611,7.425 -0.72164,11 -1.35401,8.5594 -2.98964,10.7563 -5.63506,7.5687 z M -51.33333,743.1241 c -1.41184,-1.4118 -0.54663,-4.019 2.40682,-7.2526 4.94894,-5.4184 11.01819,-13.994 14.52065,-20.51693 7.34356,-13.6767 7.64716,-14.5564 7.57753,-21.9566 -0.0938,-9.9683 0.65809,-10.6072 12.48332,-10.6072 5.13975,0 9.34501,0.2182 9.34501,0.485 0,0.2667 -1.3886,2.7417 -3.08577,5.5 -2.5564,4.1547 -3.58246,5.015 -5.98095,5.015 -2.34653,0 -3.00866,0.5211 -3.49403,2.75 -0.96578,4.4349 -5.34279,14.3829 -8.50828,19.3375 -1.61203,2.5232 -2.93097,4.94453 -2.93097,5.38063 0,0.4362 -1.575,2.9853 -3.5,5.6648 -1.925,2.6794 -3.5,5.2159 -3.5,5.6366 0,0.4207 -2.0599,3.1196 -4.57755,5.9977 -3.44412,3.9371 -5.25989,5.2328 -7.33333,5.2328 -1.51568,0 -3.05579,-0.3 -3.42245,-0.6667 z M 185.25,737.3023 c -2.14489,-1.549 -3.08979,-4.4344 -1.5,-4.5804 0.4125,-0.038 2.1,-0.2784 3.75,-0.5344 1.65,-0.2561 5.41812,-0.5626 8.37359,-0.6811 l 5.37359,-0.2156 -1.1e-4,-16.00003 c -6e-5,-8.8 -0.16818,-17.575 -0.37359,-19.5 -0.31294,-2.9327 -0.0351,-3.5483 1.71403,-3.7983 1.14812,-0.164 2.62716,0.352 3.28673,1.1468 1.65042,1.9886 2.91118,17.8026 1.91649,24.0389 -0.44851,2.8119 -1.09704,7.30093 -1.44117,9.97543 l -0.6257,4.8629 5.38807,-0.7037 c 2.96344,-0.387 8.08404,-1.957 11.37912,-3.4889 6.43628,-2.9923 8.07728,-2.9685 9.06118,0.1315 1.43918,4.5344 -0.22516,6.5553 -7.29928,8.8629 -5.8815,1.9185 -7.9789,2.1133 -16.25295,1.5093 -11.71242,-0.855 -10.60784,-0.8508 -16,-0.06 -3.36885,0.494 -5.06557,0.2514 -6.75,-0.9651 z m -338.9593,-1.4262 C -159.3801,735.1869 -165,731.0537 -165,727.5723 c 0,-2.7947 2.2271,-3.1018 8.9048,-1.2282 7.1951,2.0189 15.2097,1.558 18.0801,-1.0396 3.2749,-2.9638 5.9733,-9.76453 6.5742,-16.56913 0.8095,-9.166 1.2868,-10.9446 2.9369,-10.9446 4.4106,0 6.5748,15.8653 3.1426,23.03713 -3.1237,6.5273 -9.7516,12.622 -15.6221,14.3654 -2.9587,0.8786 -5.8603,1.5341 -6.448,1.4567 -0.5877,-0.077 -3.4127,-0.4257 -6.2778,-0.7739 z m 95.39163,-12.5458 c -1.42666,-1.4267 -1.70079,-4.14113 -1.80381,-17.86093 -1.68226,-224.04034 -1.37769,-312.38868 1.14517,-332.1786 0.56092,-4.4 1.18726,-12.05 1.39186,-17 0.41369,-10.00887 1.76741,-18.51008 4.04703,-25.41495 0.83256,-2.52178 1.92581,-7.28505 2.42943,-10.58505 0.50363,-3.3 1.14824,-6.9 1.43247,-8 0.28422,-1.1 1.22749,-4.68204 2.09615,-7.9601 1.79953,-6.79093 2.01813,-10.5399 0.61455,-10.5399 -2.37862,0 -5.2709,9.69375 -8.6526,29 -1.30057,7.425 -2.65929,17.20211 -3.01938,21.72692 -0.49019,6.15958 -1.12066,8.64859 -2.50895,9.90498 -1.01984,0.92294 -1.85425,2.54583 -1.85425,3.60642 0,1.10891 -0.53118,1.74278 -1.25,1.49166 -1.4977,-0.52323 -1.33009,-14.15698 0.31632,-25.72998 0.58684,-4.125 1.45912,-11.1 1.9384,-15.5 1.52187,-13.97133 2.96944,-21.62502 4.50455,-23.8167 0.8199,-1.17057 1.49073,-3.71885 1.49073,-5.66284 0,-11.45124 11.56101,-38.80935 21.47506,-50.81884 6.20071,-7.5113 12.90744,-12.03629 16.05145,-10.82982 2.06117,0.79094 1.27837,5.07523 -1.48515,8.1282 -0.9957,1.1 -3.22023,4.87457 -4.94339,8.38794 -1.72316,3.51337 -4.4562,7.89496 -6.07341,9.73687 -1.61722,1.84191 -3.4505,5.26734 -4.07396,7.61206 -0.62346,2.34472 -2.10489,5.83813 -3.29208,7.76313 -1.18719,1.925 -2.68855,4.85 -3.33637,6.5 -4.14755,10.56383 -5.68774,15.46774 -5.05633,16.09916 0.99995,0.99995 4.734,-2.55207 4.73497,-4.50415 4.3e-4,-0.87725 1.27871,-4.29501 2.84061,-7.59501 2.83901,-5.99829 16.3235,-29.668 18.51505,-32.5 0.63843,-0.825 2.01585,-3.18858 3.06093,-5.25241 1.04509,-2.06382 3.40371,-4.89923 5.24139,-6.30089 C -10.50355,233.8358 -9,232.30948 -9,231.84563 c 0,-1.64554 5.6857,-6.89768 9.06741,-8.37596 1.88792,-0.8253 6.45009,-4.15411 10.13815,-7.39737 3.68806,-3.24326 10.11738,-7.62859 14.28739,-9.74518 4.17001,-2.11659 7.81657,-4.22814 8.10346,-4.69235 0.28689,-0.4642 1.19476,-0.844 2.01747,-0.844 0.82272,0 3.60866,-0.99486 6.19098,-2.21079 3.9678,-1.86831 6.16273,-2.17447 14.1688,-1.97634 5.21052,0.12895 9.88277,0.64356 10.38279,1.14358 1.83949,1.83949 -0.35201,3.87687 -5.31504,4.94125 -5.84984,1.25456 -23.86715,9.94741 -34.04141,16.42403 -1.925,1.22539 -4.2281,2.6668 -5.118,3.20313 -0.88991,0.53633 -3.90564,2.77514 -6.70164,4.97514 -2.796,2.2 -6.60744,5.125 -8.46987,6.5 -3.30767,2.442 -7.13832,6.62312 -15.18966,16.57937 -2.18855,2.70635 -5.45105,6.35291 -7.25,8.10348 -1.79896,1.75056 -3.27083,3.55121 -3.27083,4.00144 0,0.80471 -6.41295,12.9055 -10.66939,20.13237 -1.19316,2.02584 -2.20566,4.70195 -2.25,5.94691 -0.0737,2.07003 -0.90794,4.1771 -3.26094,8.23643 -3.74968,6.46885 -5.11543,10.89897 -4.93148,15.99634 0.10944,3.0327 -0.52137,7.52684 -1.40429,10.00482 -0.88164,2.47436 -2.47416,8.70104 -3.53894,13.83705 -1.06478,5.13602 -2.18493,9.74105 -2.48922,10.23341 -0.3043,0.49236 -0.77374,7.26479 -1.0432,15.04984 -0.26946,7.78505 -0.97276,15.05679 -1.56287,16.15944 -0.61698,1.15283 -1.26263,10.76211 -1.51931,22.61195 -0.24551,11.33393 -0.83927,30.05715 -1.31948,41.60715 -0.48021,11.55 -0.66995,48 -0.42166,81 0.39061,51.9134 0.67636,165.779 0.47696,190.0589 -0.0772,9.40293 -1.56786,12.79663 -4.38385,9.98063 z M 294,722.0133 c 0,-1.5276 0.59656,-3.66513 1.32569,-4.75003 0.72913,-1.0849 2.13206,-4.6725 3.11762,-7.9725 0.98555,-3.3 2.8257,-7.8148 4.0892,-10.0329 2.97013,-5.214 6.46853,-15.1903 6.46375,-18.4324 -0.002,-1.3941 -0.90205,-4.0081 -2,-5.8089 -2.13562,-3.5027 -2.58308,-6.7451 -1.06068,-7.686 0.51457,-0.318 5.03532,-1.2824 10.04611,-2.1432 7.18846,-1.2348 9.41986,-1.3082 10.57675,-0.3481 1.1069,0.9186 1.19036,1.5492 0.34058,2.5732 -0.6191,0.7459 -1.49498,1.128 -1.94641,0.849 -1.22988,-0.7601 -8.94505,2.572 -9.00206,3.8879 -0.0272,0.6278 -0.18206,4.7414 -0.34414,9.1414 -0.16207,4.4 -0.98583,9.575 -1.83057,11.5 -0.84475,1.925 -2.10797,5.3 -2.80716,7.5 -1.93205,6.0792 -9.06121,20.59253 -11.13302,22.66433 C 296.95809,725.8327 294,725.3553 294,722.0133 Z m -40.11072,-66.42943 c -0.85413,-1.5959 -0.97848,-6.2328 -0.4492,-16.75 0.40255,-7.9987 0.92111,-28.9431 1.15236,-46.5431 0.23126,-17.6 0.8491,-37.3603 1.37299,-43.9119 0.52389,-6.5515 0.75235,-12.2357 0.50769,-12.6316 -0.84933,-1.3742 -0.54077,-50.57539 0.45126,-71.9565 1.42578,-30.72952 1.66313,-123.30416 0.31729,-123.75278 -0.58212,-0.19404 -1.35118,0.12096 -1.70905,0.69999 -0.35786,0.57904 -1.57914,1.05279 -2.71396,1.05279 -1.96349,0 -2.04026,-0.42327 -1.58694,-8.75 0.26199,-4.8125 1.2471,-10.775 2.18911,-13.25 0.94202,-2.475 2.10004,-7.2 2.57337,-10.5 1.48243,-10.33528 3.84472,-19.79473 8.49073,-34 0.71954,-2.2 1.86358,-6.025 2.54232,-8.5 0.67874,-2.475 3.15392,-9.225 5.5004,-15 2.34648,-5.775 4.60254,-11.625 5.01347,-13 1.1052,-3.69809 3.49856,-7 5.07389,-7 2.16589,0 1.67992,5.31392 -1.11501,12.19228 -1.375,3.38389 -2.50277,6.86245 -2.50616,7.73013 -0.003,0.86767 -0.7164,2.92759 -1.58446,4.57759 -0.86807,1.65 -2.01177,5.65985 -2.54157,8.91079 -0.5298,3.25093 -1.84179,8.41033 -2.91554,11.46534 -1.07375,3.055 -1.95227,8.10851 -1.95227,11.23001 0,3.45301 -0.75649,7.36514 -1.93186,9.9904 -1.06252,2.37322 -1.7569,4.59805 -1.54305,4.94406 0.21385,0.34601 -0.0722,8.69092 -0.63564,18.54425 -0.56345,9.85333 -1.00932,43.79015 -0.99081,75.41515 0.0185,31.625 -0.42178,64.925 -0.9784,74 -0.55662,9.075 -1.16879,35.4 -1.36037,58.5 -0.19158,23.1 -0.9029,51.45 -1.58071,63 -1.2254,20.8809 -1.31539,30.0136 -0.48149,48.8611 0.3137,7.0901 0.0384,10.8135 -0.97965,13.25 -1.62696,3.8939 -3.91973,4.3753 -5.62874,1.182 z M 224.96754,297.73012 c -0.60655,-1.13336 -2.21047,-5.0034 -3.56426,-8.60009 -2.64782,-7.03459 -9.97098,-20.95405 -11.53157,-21.91855 -0.85457,-0.52815 -2.12324,-2.29658 -8.10347,-11.29563 -3.08016,-4.63502 -20.40952,-21.55121 -24.71432,-24.12508 -2.2997,-1.375 -6.28186,-4.1875 -8.84926,-6.25 -2.5674,-2.0625 -5.24703,-3.75 -5.95473,-3.75 -1.60581,0 -11.14326,-4.82023 -13.49993,-6.82287 -4.02198,-3.41777 -1.08034,-5.94003 7.32592,-6.2815 12.76665,-0.51859 23.35859,2.60224 28.84839,8.49993 1.33338,1.43244 3.15218,2.60444 4.0418,2.60444 4.71388,0 23.72479,25.6731 29.19205,39.42212 1.11056,2.79283 2.94195,7.32788 4.06975,10.07788 4.92251,12.00287 7.73099,21.33333 7.75079,25.75 0.0182,4.06221 -0.2632,4.75 -1.94352,4.75 -1.08065,0 -2.46108,-0.92729 -3.06764,-2.06065 z M -176,288.52406 c 0,-2.24549 3.5703,-15.50267 6.5263,-24.23329 2.2885,-6.759 2.6259,-9.1105 2.1752,-15.15876 -0.2934,-3.93731 -1.0213,-8.07023 -1.6175,-9.18426 -1.5329,-2.8643 -1.2685,-9.95107 0.5468,-14.65698 0.8487,-2.2 3.479,-9.4 5.8452,-16 6.51,-18.15868 6.6512,-18.5 7.6532,-18.5 1.771,0 2.0259,2.87967 0.9077,10.25635 -0.6169,4.07021 -1.266,15.91511 -1.4423,26.32201 -0.3452,20.38065 -1.9093,29.22015 -7.0639,39.92164 -1.3246,2.75 -3.5812,7.7 -5.0146,11 -1.4335,3.3 -3.164,7.12182 -3.8456,8.49292 -1.3691,2.75413 -4.6705,3.98432 -4.6705,1.74037 z m -15,920.91344 c 0,-1.2943 0.2891,-5.1193 0.6425,-8.5 0.6805,-6.5115 -0.4248,-8.1146 -2.482,-3.5996 -1.891,4.1504 -1.2095,14.4529 0.9561,14.4529 0.4859,0 0.8834,-1.059 0.8834,-2.3533 z m -5.5176,-69.6942 c 0.2681,-4.0989 0.904,-10.8231 1.4131,-14.9427 0.5091,-4.1196 0.7892,-7.7196 0.6226,-8 -0.1667,-0.2804 -0.5938,-17.3848 -0.9491,-38.0098 -0.3553,-20.625 -0.9282,-45.6 -1.2732,-55.5 -0.3449,-9.9 -0.6211,-19.575 -0.6138,-21.5 0.01,-1.925 0.027,-8.675 0.044,-15 0.017,-6.325 0.1269,-21.175 0.2441,-33 0.1173,-11.825 -0.3098,-30.5 -0.9492,-41.5 -1.4938,-25.7024 -1.5514,-30.2146 -0.6697,-52.5 0.7317,-18.4956 0.01,-30.8673 -1.8264,-31.2806 -0.6147,-0.1383 -1.0786,12.8934 -1.2561,35.2806 -0.1548,19.525 -0.4102,46.4282 -0.5676,59.7849 -0.1575,13.3568 0.048,30.0068 0.4556,37 0.408,6.9933 0.9833,31.1651 1.2783,53.7151 0.9683,74.0054 1.5975,125.9234 1.5808,130.45 -0.027,7.3008 1.9197,3.3561 2.4661,-4.9975 z M -200,802.8498 c 0,-1.0675 -0.45,-2.2191 -1,-2.559 -0.5672,-0.3505 -1,0.4896 -1,1.941 0,1.4074 0.45,2.559 1,2.559 0.55,0 1,-0.8734 1,-1.941 z m -0.5426,-11.309 c -0.3113,-7.2617 -0.3181,-7.2893 -1.5112,-6.0962 -1.1409,1.1409 -0.2199,11.3462 1.0239,11.3462 0.3918,0 0.6111,-2.3625 0.4873,-5.25 z M 244.68933,474.04077 c -0.25153,-0.9625 -0.45733,-0.175 -0.45733,1.75 0,1.925 0.2058,2.7125 0.45733,1.75 0.25152,-0.9625 0.25152,-2.5375 0,-3.5 z M -203,444.01454 c 0,-3.72693 0.4277,-10.36443 0.9505,-14.75 1.5948,-13.3778 2.3336,-79.43577 0.9518,-85.09674 -3.2344,-13.25064 -5.3162,-10.5014 -5.6147,7.41498 -0.1256,7.53939 -0.2172,14.15799 -0.2034,14.70799 0.014,0.55 0.2079,18.325 0.4314,39.5 0.2235,21.175 0.6693,39.9625 0.9907,41.75 1.0119,5.62798 2.4937,3.53255 2.4937,-3.52623 z m 10.9544,-122.22377 c -0.021,-11.70665 -5.1108,-30.12454 -8.988,-32.52074 -0.5763,-0.35617 -0.7741,-1.5097 -0.4397,-2.56342 0.4579,-1.44273 0.1243,-1.91584 -1.3509,-1.91584 -2.1974,0 -2.7257,1.49603 -3.7077,10.5 -0.6292,5.7685 -0.5186,6.17727 2.8658,10.59444 3.5704,4.66007 8.6661,18.16115 8.6661,22.96115 0,1.43609 0.3068,2.91784 0.6817,3.29277 1.4737,1.47374 2.287,-2.22928 2.2727,-10.34836 z M -184,248.34979 c 0,-0.79254 -0.4189,-1.69988 -0.9309,-2.01631 -1.1889,-0.73478 -2.3846,1.13777 -1.5691,2.45729 0.9196,1.48787 2.5,1.20909 2.5,-0.44098 z M -37.32143,212.1804 c 1.39127,-1.03929 3.34596,-3.46463 4.34375,-5.38963 2.65157,-5.1156 7.97768,-16.85584 7.97768,-17.58506 0,-0.34492 1.39547,-2.38905 3.10104,-4.54251 3.92846,-4.96009 9.74978,-9.06254 21.81328,-15.37243 8.92054,-4.66595 11.96158,-7.64105 8.88477,-8.69213 -0.7145,-0.24409 -11.64909,-0.0522 -24.29909,0.42633 -16.40647,0.62068 -24.43338,0.54558 -28,-0.26197 -8.97098,-2.0312 -19.39958,1.99437 -22.87352,8.82946 -1.93968,3.8164 0.44535,17.20484 4.94154,27.73945 1.88759,4.42263 3.43198,8.53277 3.43198,9.13364 0,0.60087 1.85845,2.7715 4.12989,4.82361 3.84326,3.47214 4.47308,3.69813 9.07449,3.25599 2.71953,-0.26131 6.08292,-1.32545 7.47419,-2.36475 z m 99.13019,-61.155 C 62.16158,147.47004 56.22975,133.73961 52.70934,129.96296 46.81853,123.64336 26,118.16297 26,122.93183 c 0,0.5099 2.8125,3.86545 6.25,7.45678 7.16868,7.48949 9.64861,11.58725 9.70808,16.04138 0.0729,5.45928 2.57695,7.27215 10.54192,7.6321 9.27237,0.41903 8.95557,0.52237 9.30876,-3.03669 z m -50.96348,-0.18095 c 0.58583,-4.15068 -2.77644,-14.5248 -5.66298,-17.47286 -7.35419,-7.51094 -18.29029,-12.92245 -25.66184,-12.69826 -2.18875,0.0666 -5.33875,-0.294 -7,-0.80127 -1.66125,-0.50726 -9.68983,-1.22232 -17.84127,-1.58901 -14.46154,-0.65055 -14.83404,-0.61612 -15.36663,1.4205 -0.67291,2.57321 -0.81995,2.57418 -4.39419,0.0291 -2.10032,-1.49557 -4.3292,-2.0315 -8.15437,-1.96073 -2.8952,0.0536 -8.189,-0.35521 -11.764,-0.90837 -3.575,-0.55317 -15.275,-1.23713 -26,-1.5199 -10.725,-0.28278 -23.775,-0.94869 -29,-1.4798 -18.1096,-1.8408 -35.9039,0.54454 -41.0839,5.50734 -3.4559,3.31097 -6.4444,10.79633 -7.4165,18.57616 l -0.7023,5.62142 3.3513,0.98711 c 1.8433,0.54292 4.7014,1.02865 6.3514,1.07942 1.65,0.0508 9.525,0.52399 17.5,1.05162 7.975,0.52763 15.175,0.96916 16,0.98119 3.0623,0.0446 12.6598,0.94909 17.038,1.60564 4.8819,0.73209 14.1829,0.96891 78.32838,1.9944 23.02651,0.36812 44.62651,1.03941 48,1.49176 10.13765,1.35934 13.07561,0.94183 13.4789,-1.91546 z M 296,125.79077 c 0,-0.55 -0.45,-1 -1,-1 -0.55,0 -1,0.45 -1,1 0,0.55 0.45,1 1,1 0.55,0 1,-0.45 1,-1 z M 15,110.84979 c 0,-0.51754 -0.45,-1.2191 -1,-1.55902 -0.55,-0.33992 -1,0.0835 -1,0.94098 0,0.85746 0.45,1.55902 1,1.55902 0.55,0 1,-0.42344 1,-0.94098 z M 63,74.15903 C 75.44609,70.07899 79.7017,66.3447 78.59967,60.47034 77.76764,56.03528 73.94741,52.57086 64.95089,48.09282 57.27408,44.27167 54.08891,43.63263 34,41.88312 c -12.02632,-1.04735 -52.5497,-0.42584 -58.45003,0.89645 -2.70972,0.60726 -5.37952,0.6463 -6.81722,0.0997 -1.29975,-0.49416 -7.47681,-0.72792 -13.7268,-0.51946 -6.30908,0.21043 -11.87151,-0.0425 -12.50544,-0.56861 -0.628,-0.52119 -6.6161,-1.072 -13.30689,-1.22402 -9.70812,-0.22057 -12.28252,-0.57936 -12.74662,-1.7764 -0.5012,-1.29279 -0.71,-1.27122 -1.5114,0.15614 -0.8266,1.47215 -2.7912,1.59837 -17.6828,1.13607 -17.2993,-0.53704 -32.5612,-0.49403 -56.7528,0.15995 -13.438,0.36327 -17.9891,1.22554 -23,4.35761 -1.1,0.68755 -4.025,2.24913 -6.5,3.47017 -5.103,2.51754 -8.5844,8.25546 -7.5382,12.42403 0.6819,2.71675 7.2605,6.23756 11.7231,6.27407 1.4767,0.0121 3.9068,0.48652 5.4002,1.05432 2.59,0.98471 36.1777,4.77827 41.4149,4.6776 1.375,-0.0264 7.225,0.26411 13,0.64564 17.264,1.14056 36.6516,1.58663 94.46005,2.17335 30.22802,0.3068 55.05284,0.65079 55.16625,0.76443 0.11341,0.11364 7.78139,0.0589 17.03995,-0.12166 C 52.99362,75.7416 59.97197,75.15168 63,74.15904 Z m 36.42208,-7.54826 c 4.12273,-4.81649 4.38903,-6.95453 1.47222,-11.82 -3.83471,-6.39662 -6.87163,-8.95453 -9.90993,-8.34687 -1.5134,0.30268 -3.0466,0.0552 -3.42211,-0.55239 C 86.37477,43.97011 85,44.702 85,47.25559 c 0,1.47472 0.83738,2.91297 2.08466,3.58049 2.6159,1.39998 4.48394,5.86596 5.41872,12.95469 1.13583,8.61327 1.74674,8.86227 6.9187,2.82 z M 199,63.79077 c 0,-0.55 -0.19844,-1 -0.44098,-1 -0.24254,0 -0.7191,0.45 -1.05902,1 -0.33992,0.55 -0.14148,1 0.44098,1 0.58246,0 1.05902,-0.45 1.05902,-1 z m -58,-3 c 0,-0.55 -0.42344,-1 -0.94098,-1 -0.51754,0 -1.2191,0.45 -1.55902,1 -0.33992,0.55 0.0835,1 0.94098,1 0.85746,0 1.55902,-0.45 1.55902,-1 z m 158,-32.5 c 0,-0.825 -0.45,-1.5 -1,-1.5 -0.55,0 -1,0.675 -1,1.5 0,0.825 0.45,1.5 1,1.5 0.55,0 1,-0.675 1,-1.5 z m -347.06911,-6.9621 c 4.09316,-1.34615 12.06592,-2.86176 22.06911,-4.19532 1.925,-0.25663 4.4,-0.81651 5.5,-1.24418 1.1,-0.42766 7.4,-2.49463 14,-4.59325 C 0.1,9.1973 7.075,6.68606 9,5.7154 10.925,4.74473 15.74628,2.50546 19.71395,0.73924 c 3.96767,-1.76622 7.97491,-4.05217 8.90498,-5.07989 0.93008,-1.02772 2.30312,-1.86858 3.05121,-1.86858 1.84373,0 12.23494,-5.79376 15.32986,-8.54738 1.375,-1.22336 3.85,-2.91695 5.5,-3.76353 3.58418,-1.83896 17.5,-15.19589 17.5,-16.79716 0,-0.61763 1.98402,-4.10848 4.40893,-7.75745 4.75401,-7.15376 4.78384,-7.21575 9.92904,-20.63448 6.49241,-16.93225 8.49056,-24.00614 9.46271,-33.5 1.13565,-11.09049 0.1517,-28.89967 -2.07184,-37.5 -0.85319,-3.3 -1.81608,-7.20282 -2.13976,-8.67293 -0.32367,-1.47011 -1.71591,-4.01278 -3.09387,-5.65039 -3.55016,-4.21912 -4.29615,-8.67766 -1.68569,-10.07474 1.75707,-0.94035 2.6102,-0.42897 6.49763,3.89479 10.92969,12.15645 21.554,42.27092 21.65609,61.38394 0.086,16.09542 -6.93166,44.6791 -13.33858,54.32961 -1.71856,2.58861 -4.35329,6.9492 -5.85495,9.69021 -1.50167,2.74101 -4.53917,6.82675 -6.75,9.07943 C 84.80887,-18.47663 83,-16.09962 83,-15.44706 c 0,0.65256 -1.2375,1.83463 -2.75,2.62683 -1.5125,0.7922 -4.325,3.09394 -6.25,5.11497 -1.925,2.02104 -5.55327,4.72433 -8.06281,6.00731 -5.83367,2.98242 -7.32566,4.80478 -6.52981,7.97573 0.49913,1.98867 1.25961,2.51299 3.64492,2.51299 3.74142,0 12.5291,-4.34931 13.87722,-6.8683 0.55073,-1.02905 2.50255,-2.58338 4.33737,-3.45406 5.28181,-2.50638 17.42272,-15.47071 25.38649,-27.10826 5.99142,-8.75532 17.45874,-32.21685 18.60721,-38.06938 0.53965,-2.75 0.91669,-8.375 0.83788,-12.5 -0.16077,-8.41448 -2.82593,-25.91093 -4.20519,-27.60657 -0.49505,-0.60861 -1.32164,-3.08361 -1.83687,-5.5 -2.77233,-13.00217 -8.16731,-26.41002 -13.38356,-33.26144 -1.31147,-1.72259 -3.57945,-5.60699 -5.03995,-8.63199 -1.4605,-3.025 -5.26102,-8.29983 -8.4456,-11.72184 -5.40245,-5.80524 -7.96417,-10.22887 -17.534,-30.27816 -1.18136,-2.475 -3.01209,-5.80043 -4.06829,-7.38985 -2.16375,-3.25611 -4.34929,-17.44637 -5.03158,-32.66905 -0.38675,-8.62875 -0.1426,-10.37562 2.50906,-17.95195 1.61563,-4.61618 2.93751,-9.40061 2.93751,-10.63208 0,-1.23147 0.40478,-2.48921 0.89952,-2.79497 0.49474,-0.30576 1.44153,-2.91982 2.10399,-5.80902 0.66246,-2.88919 1.85608,-7.25025 2.65249,-9.69123 0.79642,-2.44098 2.14232,-9.64098 2.9909,-16 1.42138,-10.65145 1.40098,-13.76805 -0.18054,-27.58246 -0.1902,-1.66133 -1.49354,-5.48633 -2.89632,-8.5 -1.40277,-3.01366 -2.5549,-6.03713 -2.56027,-6.7188 -0.01,-1.21161 -6.92118,-9.52889 -13.30677,-16.01302 -1.76165,-1.78884 -5.13277,-3.99407 -7.49137,-4.90051 -3.74783,-1.44035 -4.97838,-1.48255 -9.76262,-0.33483 -3.01084,0.72229 -5.97367,1.91502 -6.58407,2.65051 -0.61041,0.73549 -1.68282,1.33726 -2.38314,1.33726 -2.11046,0 -8.1046,10.11737 -14.51527,24.5 -3.11249,6.98302 -4.76612,20.87915 -3.86885,32.51161 0.86163,11.17037 4.92067,27.70667 7.77864,31.68979 1.10443,1.53923 2.75519,5.4986 3.66834,8.7986 0.91316,3.3 2.75906,7.91406 4.102,10.25347 4.67207,8.13876 5.3428,28.65267 1.24649,38.12365 -1.04123,2.40741 -1.89315,5.01726 -1.89315,5.79966 0,2.4022 -2.97153,7.32322 -4.42209,7.32322 -0.7539,0 -2.75463,1.6875 -4.44607,3.75 -5.25182,6.40393 -9.43393,10.09681 -14.62924,12.91786 -2.75143,1.49402 -6.3526,3.97786 -8.0026,5.51964 -1.65,1.54179 -3.46241,2.80533 -4.02757,2.80787 -1.59239,0.007 -11.83096,5.514 -18.55179,9.97809 -3.33414,2.2146 -6.30502,4.02654 -6.60196,4.02654 -0.29693,0 -3.52761,2.10252 -7.17928,4.67226 -3.65167,2.56974 -8.6644,6.03377 -11.1394,7.69785 -2.475,1.66408 -7.46378,5.63656 -11.08618,8.82774 -3.6224,3.19118 -6.86445,5.80215 -7.20455,5.80215 -0.3401,0 -1.86527,1.2375 -3.38928,2.75 -2.38403,2.36604 -2.81948,2.50566 -3.11877,1 -0.19133,-0.9625 -0.81736,-1.75 -1.39118,-1.75 -0.57381,0 -0.81705,0.86519 -0.54052,1.92264 0.735,2.81065 -2.22078,7.02785 -9.14962,13.0544 -3.366,2.92759 -6.1199,5.70081 -6.1199,6.1627 0,1.24825 -8.3569,13.87069 -11.6449,17.5887 -5.2915,5.98349 -7.3017,9.01086 -11.2261,16.90686 -6.9182,13.91955 -11.8766,25.737 -12.9504,30.8647 -1.156,5.5204 -4.8399,20.3052 -6.2293,25 -0.4883,1.65 -0.9701,6.825 -1.0707,11.5 -0.1473,6.84644 0.2358,9.41338 1.9693,13.19514 1.1836,2.58232 2.1521,5.01484 2.1521,5.40561 0,2.02652 5.6686,7.69 9.3232,9.31474 4.5002,2.00066 20.056,4.95033 28.1768,5.34284 10.56913,0.51085 37.94201,-1.24415 42.43089,-2.72043 z M 151,-7.32726 c 0,-0.55 -0.45,-0.72189 -1,-0.38197 -0.55,0.33992 -1,1.06803 -1,1.61803 0,0.55 0.45,0.72189 1,0.38197 0.55,-0.33992 1,-1.06803 1,-1.61803 z m -286,-18.88197 c 0,-0.55 -0.45,-1 -1,-1 -0.55,0 -1,0.45 -1,1 0,0.55 0.45,1 1,1 0.55,0 1,-0.45 1,-1 z m 290,-34.44098 c 0,-0.24254 -0.45,-0.7191 -1,-1.05902 -0.55,-0.33992 -1,-0.14148 -1,0.44098 0,0.58246 0.45,1.05902 1,1.05902 0.55,0 1,-0.19844 1,-0.44098 z M 19,-271.20923 c 0,-0.55 -0.45,-1 -1,-1 -0.55,0 -1,0.45 -1,1 0,0.55 0.45,1 1,1 0.55,0 1,-0.45 1,-1 z m -13,-24.5 c 0,-0.825 -0.45,-1.5 -1,-1.5 -0.55,0 -1,0.675 -1,1.5 0,0.825 0.45,1.5 1,1.5 0.55,0 1,-0.675 1,-1.5 z m 120.36971,-0.75 c 0.88679,-3.30903 0.78452,-3.75 -0.86971,-3.75 -1,0 -1.5,1 -1.5,3 0,3.51794 1.50065,3.99289 2.36971,0.75 z"
       style="fill:#000000" />
  </g>
</svg>
