<svg id="Layer_1" data-name="Layer 1" xmlns="http://www.w3.org/2000/svg" viewBox="0 0 500 500"><path d="M130.2,348.26c-9.27,0-18.33-2-25.74-6.3-38.3-22.14-18.62-94.31-17.76-97.37a148.43,148.43,0,0,1,26.94-51.86c11.11-13.89,24.17-25,35.81-30.46,8.67-4.07,16.23-4.89,21.86-2.37,6.56,2.93,9.05,9.58,11.67,16.62,3,8.11,6.46,17.29,16.65,24.06,5.54,3.68,9.91,4.49,15,5.42,5.62,1,12,2.21,20.32,7.82,5.6,3.76,20.49,13.76,22.82,31.11h0c2.29,17-9.11,36.62-25.41,43.8-9.15,4-16.7,2.72-23.37,1.55-6.42-1.13-11.49-2-17.08,1.58-6,3.85-7.21,9.49-8.74,16.64-1.43,6.64-3,14.16-9,21.43C164.46,341.66,147,348.26,130.2,348.26Zm33.89-184.8c-3.55,0-7.78,1.12-12.51,3.34-21.17,9.93-49.41,41-60.07,79.14a175.13,175.13,0,0,0-5.61,40.15C85.57,312,92.66,329.37,107,337.63c18.92,10.94,49.69,5.66,63.29-10.88,5.22-6.33,6.63-12.92,8-19.3,1.64-7.62,3.18-14.82,10.93-19.8,7.23-4.64,14-3.45,20.65-2.3,6.25,1.1,12.72,2.24,20.48-1.19,14.4-6.35,24.49-23.65,22.48-38.56-2-15.12-15.57-24.21-20.66-27.63-7.48-5-13-6.06-18.43-7.05-5.14-.95-10.44-1.93-16.83-6.18-11.55-7.66-15.44-18.09-18.57-26.47-2.45-6.55-4.38-11.73-9-13.81A12.66,12.66,0,0,0,164.09,163.46Z"/><path d="M215.69,199.9a2.53,2.53,0,0,1-1.19-.3C198.78,191.09,193.38,178,189,167.54c-3.41-8.26-6.11-14.77-12.53-17a2.5,2.5,0,0,1,1.63-4.73c8.55,2.93,11.93,11.12,15.52,19.79,4.25,10.27,9.06,21.91,23.22,29.57a2.5,2.5,0,0,1-1.19,4.7Z"/><path d="M125.25,366.13c-11.9,0-23.52-2.59-33-8.08a2.5,2.5,0,0,1,2.5-4.33c24.8,14.34,65.12,7.4,83-14.27a2.5,2.5,0,1,1,3.86,3.18C169.17,357.67,146.76,366.13,125.25,366.13Z"/><path d="M146.56,284.53a30.25,30.25,0,1,1,30.25-30.25A30.28,30.28,0,0,1,146.56,284.53Zm0-55.5a25.25,25.25,0,1,0,25.25,25.25A25.27,25.27,0,0,0,146.56,229Z"/><path d="M309.54,390.78c-7.5,0-14.08-2-18.6-5.9-3.84-3.3-8-9.6-6.24-20.84a265.93,265.93,0,0,0,3.12-31.42,186.6,186.6,0,0,0-2.74-42.07c-1.48-9.27-2.88-18-2.5-31.22.5-17.54,3.69-27.28,6.77-36.7s6-18.22,5.8-34.43a140.22,140.22,0,0,0-10.3-50.73,2.48,2.48,0,0,1-.18-.93,28.09,28.09,0,0,1,8-19.32,27.14,27.14,0,0,1,19.32-8H325.2a27.35,27.35,0,0,1,27.31,27.32,2.59,2.59,0,0,1-.17.92,159.22,159.22,0,0,0-9.28,33.32c-2.58,15.71-1.8,26-.89,37.85.35,4.69.72,9.54.92,15.07.86,24.6-2.57,39-5.6,51.63s-5.6,23.43-2.81,41.29a122.61,122.61,0,0,0,10.92,34.5c.79,1.64,1.56,3,2.23,4.18,2.34,4.14,4,7.13,1.42,13.39-3.57,8.53-12.76,15.86-24.59,19.62l-.76-2.38.76,2.38A50.15,50.15,0,0,1,309.54,390.78Zm-19.86-254.7a145,145,0,0,1,10.47,52.07c.17,17-2.85,26.27-6,36-3,9.08-6,18.46-6.52,35.28-.37,12.72,1,21.26,2.44,30.3a190.75,190.75,0,0,1,2.79,43,271.64,271.64,0,0,1-3.17,32c-1.15,7.2.39,12.67,4.56,16.26,6,5.17,17.37,6.13,28.94,2.46h0c10.46-3.32,18.49-9.6,21.5-16.79,1.67-4,1-5.16-1.16-9-.71-1.25-1.52-2.67-2.38-4.46a127.63,127.63,0,0,1-11.36-35.91c-2.94-18.84-.24-30.14,2.89-43.22,2.95-12.36,6.3-26.37,5.46-50.29-.19-5.43-.56-10.23-.91-14.87-.93-12.2-1.73-22.73.94-39a165.46,165.46,0,0,1,9.39-33.9,22.34,22.34,0,0,0-22.31-21.85H312a22.15,22.15,0,0,0-15.78,6.54A22.9,22.9,0,0,0,289.68,136.08Z"/><path d="M393.55,378h-11.3a23.75,23.75,0,0,1-23.72-23.72,2.43,2.43,0,0,1,.18-.92,136.16,136.16,0,0,0,7.91-28.42c2.2-13.39,1.53-22.14.76-32.28-.31-4-.62-8.16-.79-12.9-.74-21.09,2.2-33.39,4.8-44.25,2.56-10.71,4.77-20,2.39-35.17a104.65,104.65,0,0,0-9.3-29.41c-.68-1.39-1.32-2.53-1.9-3.55-2.05-3.63-3.54-6.25-1.23-11.77,3.09-7.39,11-13.74,21.26-17h0c11.57-3.68,22.75-2.53,29.17,3,3.35,2.89,7,8.38,5.46,18.16a226.74,226.74,0,0,0-2.66,26.83,159.27,159.27,0,0,0,2.34,35.9c1.27,7.95,2.46,15.45,2.14,26.77-.43,15-3.17,23.4-5.81,31.48s-5.08,15.52-4.94,29.33a119.45,119.45,0,0,0,8.78,43.25,2.48,2.48,0,0,1,.18.93,24,24,0,0,1-6.95,16.78A23.56,23.56,0,0,1,393.55,378Zm-30-23.25A18.74,18.74,0,0,0,382.25,373h11.3a18.59,18.59,0,0,0,13.24-5.48,19.21,19.21,0,0,0,5.47-12.78,124.61,124.61,0,0,1-8.95-44.59c-.15-14.63,2.44-22.55,5.19-30.94,2.53-7.74,5.15-15.74,5.56-30.07.31-10.84-.85-18.12-2.08-25.84a163.35,163.35,0,0,1-2.4-36.88A234.63,234.63,0,0,1,412.3,159c1-6-.31-10.59-3.78-13.58-5-4.34-14.62-5.13-24.4-2h0c-8.84,2.81-15.63,8.1-18.16,14.15-1.36,3.26-.86,4.13,1,7.38.61,1.08,1.3,2.3,2.05,3.83a109.35,109.35,0,0,1,9.74,30.82c2.53,16.18.21,25.87-2.47,37.1-2.52,10.55-5.38,22.5-4.66,42.91.16,4.64.47,8.74.78,12.7.79,10.46,1.48,19.49-.81,33.47A141.82,141.82,0,0,1,363.53,354.75Z"/><path d="M309.8,303a2.5,2.5,0,0,1-2.2-1.3c-.69-1.26-16.71-31.13-4.05-50.53,11.36-17.4,7.12-53.07,7.08-53.43a2.5,2.5,0,1,1,5-.61c.19,1.54,4.5,37.85-7.85,56.77-11,16.89,4.1,45.12,4.25,45.41a2.5,2.5,0,0,1-1,3.39A2.56,2.56,0,0,1,309.8,303Z"/></svg>