<svg id="Layer_1" data-name="Layer 1" xmlns="http://www.w3.org/2000/svg" viewBox="0 0 500 500"><path d="M360.43,217.68H143.31a3.72,3.72,0,0,1-3.72-3.71c0-14.24,6.44-28.09,18.13-39,4.94-4.6,19.17-14.18,19.94-14.61,12.81-7.14,28.25-12.39,44.68-15.21a175.65,175.65,0,0,1,29.53-2.48c61.91,0,112.28,32,112.28,71.29A3.72,3.72,0,0,1,360.43,217.68Zm-215.82-5H359.13c-1.11-36-48.8-65-107.26-65a169.74,169.74,0,0,0-28.68,2.41c-15.88,2.72-30.78,7.78-43.09,14.65-.94.57-14.56,9.79-19,13.9C150.67,188.39,145,200.14,144.61,212.68Z"/><path d="M352.48,347.54H151.26a11.69,11.69,0,0,1-11.67-11.67V309.09a11.69,11.69,0,0,1,11.67-11.67H352.48a11.68,11.68,0,0,1,11.67,11.67v26.78A11.68,11.68,0,0,1,352.48,347.54ZM151.26,302.42a6.68,6.68,0,0,0-6.67,6.67v26.78a6.67,6.67,0,0,0,6.67,6.67H352.48a6.67,6.67,0,0,0,6.67-6.67V309.09a6.68,6.68,0,0,0-6.67-6.67Z"/><path d="M185.32,357.32H141.39a13.21,13.21,0,0,1-13.2-13.2,2.5,2.5,0,0,1,5,0,8.21,8.21,0,0,0,8.2,8.2h43.93a2.5,2.5,0,0,1,0,5Z"/><path d="M295.94,197.19a2.48,2.48,0,0,1-1.33-.39,57.28,57.28,0,0,1-25.16-34.64,2.5,2.5,0,0,1,3.55-2.84c20.41,10.34,24.58,28,25.42,35.07a2.5,2.5,0,0,1-2.48,2.8ZM276.23,167a52.07,52.07,0,0,0,16,22A39,39,0,0,0,276.23,167Z"/><path d="M196.91,203.92a2.6,2.6,0,0,1-1.15-.28,2.49,2.49,0,0,1-1.35-2.34c1.08-22.86,15.46-33.88,21.59-37.55a2.5,2.5,0,0,1,3.76,2.49,57.35,57.35,0,0,1-21.3,37.14A2.54,2.54,0,0,1,196.91,203.92Zm16.7-32.36a39,39,0,0,0-13.5,23.65A52.12,52.12,0,0,0,213.61,171.56Z"/><path d="M353.65,290.55a2.59,2.59,0,0,1-.48,0,242.29,242.29,0,0,0-39.7-4.41,218.21,218.21,0,0,0-28.28,1.12h-.11a174.26,174.26,0,0,1-31.61.61,116.27,116.27,0,0,1-22.26-3.43,93,93,0,0,0-16.89-2.73A139.46,139.46,0,0,0,179,283.59l-19.63,4.87c-1.85.59-3.75,1.22-5.64,1.88a3.65,3.65,0,0,1-1.2.21,17.38,17.38,0,0,1-13.07-6.39,22.78,22.78,0,0,1-5.11-14.59v-6.08c0-11.57,8.15-21,18.18-21a3.71,3.71,0,0,1,1.64.4,92.2,92.2,0,0,0,24.13,8c17.24,3.12,27.75-.56,38.88-4.45,9.63-3.38,20.6-7.22,36.55-7.09,13.75.1,22.17,2.94,30.31,5.68,8.88,3,17.24,5.78,32.45,5l36.63-7.56a2.38,2.38,0,0,1,.53-.05,17.35,17.35,0,0,1,13,6.39,22.69,22.69,0,0,1,5.12,14.59v6.08C371.81,281.14,363.66,290.55,353.65,290.55Zm-46-9.53c1.9,0,3.89,0,6,.08a247,247,0,0,1,40.27,4.45c7.15-.15,12.93-7.26,12.93-16v-6.08a17.63,17.63,0,0,0-3.95-11.37,12.6,12.6,0,0,0-9-4.61l-36.54,7.55a2.73,2.73,0,0,1-.5.05c-16.16.82-25-2.14-34.32-5.27-7.8-2.63-15.83-5.33-28.78-5.43-15.14-.12-25.17,3.41-34.87,6.81-11.77,4.11-22.88,8-41.42,4.65a97.24,97.24,0,0,1-25.21-8.36c-7.12.21-12.85,7.3-12.85,16v6.08a17.74,17.74,0,0,0,4,11.38,12.57,12.57,0,0,0,9,4.6c1.88-.65,3.78-1.29,5.64-1.88l.16-.05,19.78-4.9.16,0a144.09,144.09,0,0,1,36.64-2,99.28,99.28,0,0,1,17.69,2.86,110.54,110.54,0,0,0,21.43,3.31,171.15,171.15,0,0,0,30.81-.61h.11C291.43,281.64,298.3,281,307.6,281ZM152,247.39h0Z"/><path d="M354.6,233.74H149.14a6,6,0,1,1,0-12.06H354.6a6,6,0,0,1,0,12.06Zm-205.46-7.06a1,1,0,1,0,0,2.06H354.6a1,1,0,0,0,0-2.06Z"/></svg>