<svg id="Layer_1" data-name="Layer 1" xmlns="http://www.w3.org/2000/svg" viewBox="0 0 500 500"><path d="M292.94,371.15H207.06a16.47,16.47,0,0,1-16.45-16.45V230.14a2.5,2.5,0,0,1,2.5-2.5H204.5A11.47,11.47,0,0,0,216,216.18V179.42a2.26,2.26,0,0,1,0-.26v-22.7A33.92,33.92,0,0,1,273.6,132.2l.29.27a33.84,33.84,0,0,1,9.91,22.69v61a11.47,11.47,0,0,0,11.45,11.46h11.64a2.5,2.5,0,0,1,2.5,2.5V354.7A16.47,16.47,0,0,1,292.94,371.15ZM195.61,232.64V354.7a11.46,11.46,0,0,0,11.45,11.45h85.88a11.46,11.46,0,0,0,11.45-11.45V232.64h-9.14a16.48,16.48,0,0,1-16.45-16.46V155.25A28.73,28.73,0,0,0,270.35,136l-.2-.2A28.94,28.94,0,0,0,221,156.46v23a2.09,2.09,0,0,1,0,.25v36.51a16.48,16.48,0,0,1-16.45,16.46Z"/><path d="M257.9,200.93h-16a16.47,16.47,0,0,1-16.45-16.45V156a24.46,24.46,0,1,1,48.91,0v28.49A16.47,16.47,0,0,1,257.9,200.93Zm-8-64.38A19.47,19.47,0,0,0,230.44,156v28.49a11.47,11.47,0,0,0,11.45,11.45h16a11.47,11.47,0,0,0,11.45-11.45V156a19.44,19.44,0,0,0-19.45-19.44Z"/><path d="M348.48,377.47c-2.16,0-4.32-1.15-6.47-3.43-8.93-9.49-18.92-24.32-15.73-41.11,1.72-9,7.74-15.21,13.55-21.17,1.81-1.85,3.67-3.76,5.34-5.7,6.82-7.95,8.24-20.6,3.61-32.22-4.12-10.37-12.17-17.14-21.51-18.11-3.75-.39-7.76.47-11.64,1.3l-1.37.3c-.51.11-1.2.34-1.92.58a13.54,13.54,0,0,1-5.8,1,2.5,2.5,0,0,1-2.15-2.48V248.6a2.51,2.51,0,0,1,2.88-2.47c.91.15,2.76-.53,4.11-1a28.21,28.21,0,0,1,2.81-.9,49.43,49.43,0,0,1,16.67-1.31c12.25,1.4,23,10.51,28.8,24.37,6.82,16.34,5.19,35.23-4.07,47a74.27,74.27,0,0,1-7.38,7.84c-5.29,5.05-9.11,8.7-9.4,17.49-.47,13.91,4.95,20,16.51,27.62a2.5,2.5,0,0,1,1,2.82c-.19.64-2,6.25-6.45,7.28A6.09,6.09,0,0,1,348.48,377.47ZM325.3,250.63c.82,0,1.66,0,2.49.12,11.23,1.18,20.81,9.12,25.64,21.25,5.3,13.32,3.55,28-4.47,37.32-1.76,2.06-3.69,4-5.55,5.93-5.54,5.69-10.78,11.05-12.21,18.61-2.8,14.72,6.31,28.11,14.45,36.76,1.25,1.32,2.38,2,3.09,1.81s1.54-1.19,2.09-2.22c-11.46-7.87-17.54-15.46-17-30.8.36-10.82,5.5-15.73,10.94-20.93a69.24,69.24,0,0,0,6.91-7.32c8.17-10.38,9.53-27.25,3.39-42-5.16-12.34-14.18-20.11-24.75-21.32a44.28,44.28,0,0,0-15,1.22,21.3,21.3,0,0,0-2.22.72,24.84,24.84,0,0,1-3.7,1.14v2.66c.47-.14.95-.3,1.37-.44a23.62,23.62,0,0,1,2.46-.72l1.36-.29A50.94,50.94,0,0,1,325.3,250.63Z"/><path d="M151.52,377.47a6.09,6.09,0,0,1-1.4-.17c-4.42-1-6.26-6.64-6.45-7.28a2.5,2.5,0,0,1,1-2.82c11.56-7.63,17-13.72,16.51-27.62-.29-8.79-4.11-12.44-9.4-17.49a74.27,74.27,0,0,1-7.38-7.84c-9.26-11.76-10.89-30.65-4.07-47,5.78-13.87,16.55-23,28.8-24.37a49.44,49.44,0,0,1,16.67,1.31,28.21,28.21,0,0,1,2.81.9c1.35.5,3.2,1.18,4.11,1a2.51,2.51,0,0,1,2.88,2.47v7.85a2.5,2.5,0,0,1-2.15,2.48c-1.92.27-4-.42-5.8-1-.72-.24-1.41-.47-1.92-.58l-1.38-.3c-3.87-.83-7.88-1.7-11.63-1.3-9.35,1-17.39,7.74-21.52,18.11-4.62,11.62-3.2,24.27,3.62,32.22,1.66,1.94,3.53,3.85,5.34,5.7,5.81,6,11.83,12.13,13.55,21.17,3.19,16.79-6.8,31.62-15.73,41.11C155.84,376.32,153.67,377.47,151.52,377.47Zm-2.36-7.26c.58,1.07,1.36,2.06,2.1,2.23s1.84-.5,3.09-1.82c8.14-8.65,17.25-22,14.45-36.76-1.43-7.56-6.67-12.92-12.21-18.61-1.86-1.9-3.79-3.87-5.55-5.93-8-9.35-9.77-24-4.47-37.32,4.83-12.13,14.41-20.07,25.64-21.25,4.55-.47,8.95.48,13.21,1.4l1.36.29a23.62,23.62,0,0,1,2.46.72c.42.14.9.3,1.37.44v-2.66a24.84,24.84,0,0,1-3.7-1.14,21.3,21.3,0,0,0-2.22-.72,44.28,44.28,0,0,0-15-1.22c-10.57,1.21-19.59,9-24.75,21.32-6.14,14.73-4.78,31.6,3.39,42a69.24,69.24,0,0,0,6.91,7.32c5.44,5.2,10.58,10.11,10.94,20.93C166.71,354.76,160.63,362.34,149.16,370.21Zm44-113.76h0Z"/><path d="M281.36,305.21H269.52a2.5,2.5,0,0,1-2.5-2.5V270.05a2.5,2.5,0,0,1,2.5-2.5h22.69a2.5,2.5,0,0,1,2.5,2.5v21.81A13.37,13.37,0,0,1,281.36,305.21Zm-9.34-5h9.34a8.36,8.36,0,0,0,8.35-8.35V272.55H272Z"/></svg>