<svg id="Layer_1" data-name="Layer 1" xmlns="http://www.w3.org/2000/svg" viewBox="0 0 500 500"><path d="M185.9,375.06a20.34,20.34,0,0,1-6.05-.93c-14.31-4.48-23.87-23.65-30.2-36.34-.57-1.14-1.11-2.23-1.62-3.22-8.87-17.45-13.2-38.56-12.54-61.06.41-14.2,4-28.13,7.58-41.61,1.84-7.06,3.75-14.36,5.14-21.52,2.23-11.51,2.84-21.34,1.89-30.07a62.32,62.32,0,0,0-3.17-12.48c-1.71-5.25-3.48-10.69-3.54-16.39-.09-10.37,8.19-18.55,16.43-22,9.18-3.9,19.9-5.22,32.76-4.06,9.9.9,19.63,3.11,28.75,5.3,24.58,5.89,43.85,7.09,64.44,4,3.61-.54,7.27-1.43,11.13-2.36,11-2.65,22.32-5.39,33.35-.18h0c10,4.73,16.48,12.63,19.28,23.5,5.42,21.06-4.83,50.67-17.22,67.83-17.43,24.14-41.35,41.34-68.53,59.76-22.73,15.41-43.61,31.22-49.28,55l-.37,1.57c-2.62,11.08-6.22,26.27-17,32.21A23.21,23.21,0,0,1,185.9,375.06Zm-2-245.12A55.94,55.94,0,0,0,161.78,134c-6.71,2.85-13.46,9.33-13.39,17.4.05,4.93,1.63,9.76,3.3,14.88a67.13,67.13,0,0,1,3.38,13.49c1,9.23.37,19.55-1.95,31.56-1.42,7.32-3.35,14.7-5.22,21.84-3.45,13.2-7,26.86-7.42,40.49-.63,21.67,3.52,41.94,12,58.64l1.64,3.26c5.58,11.2,14.93,30,27.21,33.79,4.35,1.36,8.72.79,13.36-1.77,8.86-4.87,12.16-18.8,14.56-29l.38-1.57c6.08-25.5,27.75-42,51.33-58,26.78-18.15,50.33-35.07,67.29-58.55,15.71-21.76,20.19-49,16.42-63.66a29.5,29.5,0,0,0-16.56-20.22h0c-9.44-4.46-19.45-2-30,.52-3.8.92-7.74,1.87-11.57,2.44-21.27,3.18-41.11,2-66.35-4.1-8.94-2.15-18.46-4.31-28-5.17Q187.86,129.94,183.93,129.94Z"/><path d="M234.14,220.3a24.68,24.68,0,1,1,24.68-24.69A24.71,24.71,0,0,1,234.14,220.3Zm0-44.36a19.68,19.68,0,1,0,19.68,19.67A19.7,19.7,0,0,0,234.14,175.94Z"/><path d="M187.75,363.65a2.46,2.46,0,0,1-.6-.07c-23.7-5.84-34.69-46.57-38.31-60-.41-1.52-.83-3.08-1-3.62a2.5,2.5,0,0,1,3.51-3.4c1,.65,1.1,1.13,2.34,5.72,3.42,12.68,13.84,51.27,34.67,56.4a2.5,2.5,0,0,1-.59,4.93Zm-39.19-62.89h0Z"/><path d="M322,252.91a2.5,2.5,0,0,1-1.45-4.54c20.35-14.44,32.93-33.23,37.38-55.84,3.34-16.93.62-29.79.59-29.91a2.5,2.5,0,1,1,4.88-1.08c.12.56,3,13.83-.52,31.73-3.21,16.5-12.65,40.17-39.43,59.18A2.52,2.52,0,0,1,322,252.91Z"/></svg>