<svg id="Layer_1" data-name="Layer 1" xmlns="http://www.w3.org/2000/svg" viewBox="0 0 500 500"><path d="M137.09,296.3h0l-32.95-.44a2.51,2.51,0,0,1-2.47-2.62c1.2-26.47,15.54-51.17,40.38-69.54s57.21-28.34,91.54-28.34c29.88,0,58,7.46,81.44,21.59,3.51,2.11,6.93,4.4,10.17,6.8a2.5,2.5,0,1,1-3,4c-3.11-2.3-6.39-4.5-9.77-6.53-22.63-13.66-49.89-20.87-78.86-20.87-33.27,0-64.72,9.71-88.57,27.36-22.79,16.86-36.27,39.21-38.19,63.17l30.33.41a2.5,2.5,0,0,1,0,5Z"/><path d="M97.39,255.41a2.54,2.54,0,0,1-1.29-.36,2.5,2.5,0,0,1-.85-3.43c25.94-43.15,82.7-71,144.6-71a2.5,2.5,0,0,1,0,5c-60.18,0-115.26,26.93-140.31,68.61A2.5,2.5,0,0,1,97.39,255.41Z"/><path d="M350.52,238.91a2.43,2.43,0,0,1-1.75-.73l0,0a2.48,2.48,0,1,1,1.77.75Z"/><path d="M366,250.47a2.53,2.53,0,0,1-1.71-.67c-.24-.23-24.82-22.93-53-25a2.5,2.5,0,0,1-1.85-4c.44-.61,11-15,24.12-11.35,2.71.76,6.8,1.91,8.4,6.47a6.56,6.56,0,0,1,.3,2.12,4.06,4.06,0,0,0,0,.59,6.32,6.32,0,0,0,2.52,2.06,21.93,21.93,0,0,1,1.9,1.24,23.74,23.74,0,0,1,4.62,4.88l.48.63c2.27,3,3.47,4.41,6,4.14a7.78,7.78,0,0,1,6.06,1.84c2.86,2.49,4.36,7.2,4.6,14.38a2.51,2.51,0,0,1-1.47,2.36A2.48,2.48,0,0,1,366,250.47Zm-10.74-14c3,2,5.57,4,7.57,5.53-.64-2.9-1.58-4.17-2.22-4.73a2.71,2.71,0,0,0-2.25-.64A9.48,9.48,0,0,1,355.28,236.48Zm-38.75-16.09c12.76,1.88,24.39,7.27,33.33,12.64-.73-.81-1.38-1.67-2-2.48l-.46-.6a19.11,19.11,0,0,0-3.65-3.93c-.43-.32-.94-.62-1.48-1a10.5,10.5,0,0,1-4.44-4.15,5.88,5.88,0,0,1-.54-2.69,3.91,3.91,0,0,0,0-.58c-.63-1.8-2-2.45-5-3.3C325.88,212.57,320,217,316.53,220.39Z"/><path d="M145.47,302.51a2.64,2.64,0,0,1-.73-.11,21.28,21.28,0,0,1-4.8-2.31,15.76,15.76,0,0,1-4.49-4.23c-2-2.91-3.72-7.84,0-14.74,1.83-3.38,3.27-5.75,4.33-7.48,2.71-4.44,2.71-4.44,1.42-10.24-.39-1.78-1.7-11,11.14-18.3l0,0a6,6,0,0,1,1.41-.56,13.24,13.24,0,0,1,5.84,0l.38.07.26.06a2.5,2.5,0,0,1-.9,4.92l-.38-.08-.26-.05a8.57,8.57,0,0,0-3.59-.07,1.46,1.46,0,0,0-.31.11l0,0c-.42.23-10.26,5.92-8.73,12.87,1.61,7.26,1.48,8.17-2,13.93-1,1.68-2.43,4-4.21,7.26-2.05,3.78-2.16,6.88-.32,9.49a10.81,10.81,0,0,0,3.1,2.88c.41.27.82.5,1.2.7.28-.94.58-1.88.89-2.81a101.48,101.48,0,0,1,21.83-36.83,91,91,0,0,1,17.57-15.07,2.5,2.5,0,0,1,4.49,1.89,3.05,3.05,0,0,1-1.44,2.11l-.08,0a84,84,0,0,0-16.86,14.41,96.57,96.57,0,0,0-20.77,35c-.58,1.73-1.11,3.51-1.59,5.3a2.54,2.54,0,0,1-2.42,1.85Z"/><path d="M165.73,258.94a7,7,0,0,1-2.52-.44c-3.17-1.19-5-4.49-5.52-9.81h0c-.5-5.42,4-19.14,15.14-21.12a93.06,93.06,0,0,1,12.71-1.09c2-.07,4.08-.15,6.08-.3.73-.05,1.53-.1,2.39-.14,4.93-.27,12.39-.68,15-3.94a14.77,14.77,0,0,0,1.89-3.53,16.12,16.12,0,0,1,3.71-5.86A24.56,24.56,0,0,1,224.77,207c4.61-1.27,8.9-.2,13,.83,1.51.37,2.93.73,4.33,1a18.17,18.17,0,0,0,14.63-3.65c5.7-4.5,14.41-2.08,19.61-.63a40.34,40.34,0,0,1,5.48,2.1c3.08,1.35,6,2.62,9,2.25,11.9-1.45,17.06,3.77,23.57,11.9a2.5,2.5,0,0,1-2.67,4c-.18-.05-17.6-5.2-42.85-4.21a163.18,163.18,0,0,0-92,32.86C175.93,254.35,170.73,258.94,165.73,258.94Zm-3.06-10.71c.29,3.11,1.13,5.15,2.3,5.59,2.07.78,6.39-2,8.66-4.16l.21-.18a168.17,168.17,0,0,1,95.09-33.95,162.24,162.24,0,0,1,36.54,2.61c-3.87-3.71-7.52-5.07-14-4.28-4.37.53-8.21-1.16-11.6-2.64a37.38,37.38,0,0,0-4.82-1.86c-4.29-1.2-11.47-3.19-15.18-.27a23.3,23.3,0,0,1-18.54,4.66c-1.6-.27-3.18-.66-4.71-1-3.69-.92-7.18-1.78-10.52-.86a19.5,19.5,0,0,0-8.09,4.49,11.62,11.62,0,0,0-2.54,4.19,19.38,19.38,0,0,1-2.57,4.67c-4,5-12.44,5.49-18.62,5.83l-2.3.14c-2.08.15-4.2.23-6.25.31a90.22,90.22,0,0,0-12,1c-7.94,1.42-11.35,12.37-11,15.74Z"/><path d="M402.61,319.41h0l-258.93-3.47a2.51,2.51,0,0,1-1.78-.79,2.48,2.48,0,0,1-.68-1.83c1.2-26.47,15.53-51.17,40.37-69.55s57.22-28.34,91.55-28.34c29.88,0,58,7.47,81.45,21.59,32.13,19.38,50.56,48.5,50.56,79.89a2.49,2.49,0,0,1-.75,1.78A2.45,2.45,0,0,1,402.61,319.41ZM146.34,311l253.72,3.41c-1-28.64-18.38-55.15-48.1-73.08-22.62-13.65-49.9-20.87-78.86-20.87-33.27,0-64.72,9.72-88.57,27.36C161.74,264.65,148.26,287,146.34,311Z"/><path d="M318.65,285.55A16.75,16.75,0,1,1,335.4,268.8,16.78,16.78,0,0,1,318.65,285.55Zm0-28.5A11.75,11.75,0,1,0,330.4,268.8,11.76,11.76,0,0,0,318.65,257.05Z"/><path d="M217.75,294.2a11,11,0,0,1-1.62-.12,10.73,10.73,0,1,1,1.62.12Zm0-16.52a5.72,5.72,0,1,0,.87.06A6.36,6.36,0,0,0,217.71,277.68Z"/><path d="M143.68,315.94a2.39,2.39,0,0,1-1.13-.28L103,295.58a2.5,2.5,0,1,1,2.26-4.45l39.54,20.08a2.5,2.5,0,0,1-1.13,4.73Z"/></svg>