<svg id="Layer_1" data-name="Layer 1" xmlns="http://www.w3.org/2000/svg" viewBox="0 0 500 500"><path d="M327.53,330.9H93.7a2.49,2.49,0,0,1-2.5-2.5V171.6a2.49,2.49,0,0,1,2.5-2.5H327.53a2.49,2.49,0,0,1,2.5,2.5V328.4A2.49,2.49,0,0,1,327.53,330.9Zm-231.33-5H325V174.1H96.2Z"/><path d="M406.3,330.9H327.53a2.49,2.49,0,0,1-2.5-2.5V171.6a2.49,2.49,0,0,1,2.5-2.5H406.3a2.49,2.49,0,0,1,2.5,2.5V328.4A2.49,2.49,0,0,1,406.3,330.9Zm-76.27-5H403.8V174.1H330Z"/><path d="M301.79,303.77H119.44a2.5,2.5,0,0,1-2.5-2.5V198.73a2.5,2.5,0,0,1,2.5-2.5H301.79a2.5,2.5,0,0,1,2.5,2.5V301.27A2.5,2.5,0,0,1,301.79,303.77Zm-179.85-5H299.29V201.23H121.94Z"/><path d="M347.63,258.37a8.1,8.1,0,1,1,8.1-8.1A8.1,8.1,0,0,1,347.63,258.37Zm0-11.2a3.1,3.1,0,1,0,3.1,3.1A3.1,3.1,0,0,0,347.63,247.17Z"/><path d="M366.91,258.37a8.1,8.1,0,1,1,8.1-8.1A8.11,8.11,0,0,1,366.91,258.37Zm0-11.2a3.1,3.1,0,1,0,3.1,3.1A3.1,3.1,0,0,0,366.91,247.17Z"/><path d="M386.2,258.37a8.1,8.1,0,1,1,8.1-8.1A8.1,8.1,0,0,1,386.2,258.37Zm0-11.2a3.1,3.1,0,1,0,3.1,3.1A3.1,3.1,0,0,0,386.2,247.17Z"/><path d="M347.63,278.7a8.1,8.1,0,1,1,8.1-8.1A8.1,8.1,0,0,1,347.63,278.7Zm0-11.19a3.1,3.1,0,1,0,3.1,3.09A3.1,3.1,0,0,0,347.63,267.51Z"/><path d="M366.91,278.7a8.1,8.1,0,1,1,8.1-8.1A8.11,8.11,0,0,1,366.91,278.7Zm0-11.19a3.1,3.1,0,1,0,3.1,3.09A3.1,3.1,0,0,0,366.91,267.51Z"/><path d="M386.2,278.7a8.1,8.1,0,1,1,8.1-8.1A8.1,8.1,0,0,1,386.2,278.7Zm0-11.19a3.1,3.1,0,1,0,3.1,3.09A3.1,3.1,0,0,0,386.2,267.51Z"/><path d="M391.8,233.28H342a2.5,2.5,0,0,1-2.5-2.5V195.6a2.5,2.5,0,0,1,2.5-2.5H391.8a2.5,2.5,0,0,1,2.5,2.5v35.18A2.5,2.5,0,0,1,391.8,233.28Zm-47.27-5H389.3V198.1H344.53Z"/><path d="M391.8,317.82H342a2.5,2.5,0,0,1-2.5-2.5V299.77a2.5,2.5,0,0,1,2.5-2.5H391.8a2.5,2.5,0,0,1,2.5,2.5v15.55A2.5,2.5,0,0,1,391.8,317.82Zm-47.27-5H389.3V302.27H344.53Z"/><path d="M258.62,292.19H163.16a2.5,2.5,0,0,1-2.45-2l-4.37-20.4a2.54,2.54,0,0,1,.5-2.09,2.5,2.5,0,0,1,1.95-.93H262.44a2.49,2.49,0,0,1,1.92.9,2.52,2.52,0,0,1,.54,2.06l-3.83,20.4A2.5,2.5,0,0,1,258.62,292.19Zm-93.44-5h91.36l2.89-15.4H161.88Z"/><path d="M270.68,265.22H150.55a2.5,2.5,0,0,1,0-5H270.68a2.5,2.5,0,1,1,0,5Z"/><path d="M208.11,255.05a2.49,2.49,0,0,1-2-4.06c2-2.56,2.89-4.84,2.55-6.78a6.46,6.46,0,0,0-1.67-3,8.5,8.5,0,0,1-2.41-5.67,8.65,8.65,0,0,1,2.55-5.77,6.13,6.13,0,0,0,1.69-3c.27-1.8-.62-3.91-2.65-6.26a2.5,2.5,0,1,1,3.78-3.27c3,3.51,4.31,7,3.82,10.27a10.63,10.63,0,0,1-2.8,5.48c-.94,1.12-1.39,1.71-1.39,2.59s.39,1.39,1.3,2.51a11.08,11.08,0,0,1,2.71,5.32c.6,3.41-.61,7-3.57,10.76A2.51,2.51,0,0,1,208.11,255.05Z"/><path d="M220.69,256.74a2.49,2.49,0,0,1-2.26-1.44,14.21,14.21,0,0,1-1.41-7,12.59,12.59,0,0,1,1.45-5.08,5,5,0,0,0,.74-2.72,4.25,4.25,0,0,0-.77-2.14,10.8,10.8,0,0,1-1.57-4.22,13.9,13.9,0,0,1,1.6-8.42,2.5,2.5,0,0,1,4.45,2.28,9,9,0,0,0-1.1,5.41,6.18,6.18,0,0,0,.94,2.45,9,9,0,0,1,1.44,4.35,9.79,9.79,0,0,1-1.22,5.18,7.61,7.61,0,0,0-1,3.21,9.31,9.31,0,0,0,1,4.53,2.51,2.51,0,0,1-2.27,3.56Z"/></svg>