<svg id="Layer_1" data-name="Layer 1" xmlns="http://www.w3.org/2000/svg" viewBox="0 0 500 500"><path d="M276,180.8c-38.5,0-82.7-3.34-88.76-10.67a4.23,4.23,0,0,1-1-2.73,4.3,4.3,0,0,1,1.31-3C194.24,157.25,238.11,154,276,154s81.76,3.25,88.5,10.4a4.12,4.12,0,0,1,.25,5.73C358.7,177.46,314.51,180.8,276,180.8Zm-84.39-13.39c5.19,3.67,35.88,8.39,84.39,8.39s79.17-4.72,84.36-8.38C354.45,163.26,321.59,159,276,159S197.38,163.28,191.63,167.41Zm169.3.47h0Z"/><path d="M276,346c-33.75,0-59.38-9.66-74.77-56.84-9.84-30.13-15-65.33-15-101.81,0-6.36.16-12.74.47-18.94v-.14c0-.77.09-1.55.13-2.31a2.55,2.55,0,0,1,.68-1.56c6.74-7.15,50.61-10.4,88.52-10.4s81.76,3.25,88.5,10.4a2.55,2.55,0,0,1,.68,1.56c0,.69.08,1.4.12,2.1l0,.34c.31,6.2.47,12.57.47,18.95,0,35.48-4.94,69.88-14.28,99.48C335.11,338.83,305.53,346,276,346ZM191.75,167.33l-.06,1.2v.14c-.31,6.11-.47,12.4-.47,18.68,0,36,5.12,70.62,14.79,100.26C220.51,332.07,243.55,341,276,341c31.91,0,56.15-9.47,70.74-55.67,9.19-29.12,14.05-63,14.05-98,0-6.29-.16-12.58-.47-18.69v-.33l-.06-1C354.2,163.23,321.42,159,276,159S197.82,163.23,191.75,167.33Z"/><path d="M239.88,321.41a2.43,2.43,0,0,1-1.36-.41c-16.21-10.59-27.79-34.55-34.42-71.21A344.34,344.34,0,0,1,199,198.25a2.51,2.51,0,0,1,2.48-2.53h0a2.5,2.5,0,0,1,2.5,2.48c0,1,1.21,95,37.29,118.61a2.5,2.5,0,0,1-1.37,4.6Z"/><path d="M203.62,290.89a2.48,2.48,0,0,1-1.09-.25c-.57-.28-58.2-29.82-67.13-58.81-2.07-6.7-1.48-13,1.75-18.57,5.28-9.21,12.2-14.56,20.59-15.92,16.62-2.71,32.72,11.45,33.4,12.06a2.48,2.48,0,0,1,.83,2,55.4,55.4,0,0,0,.78,9.69,66,66,0,0,1,.75,7.46,2.5,2.5,0,0,1-4.22,1.85c-.15-.15-15.37-14.43-26.31-13.9a8.32,8.32,0,0,0-6.18,2.91,8.81,8.81,0,0,0-2.41,7.27c1.15,8.42,13.09,16.36,13.21,16.44L198.52,265a2.59,2.59,0,0,1,1,1.39c3.44,12.74,5.88,19.74,6.32,20.75a2.5,2.5,0,0,1-2.19,3.71Zm2-4a1,1,0,0,1,.14.22A1.05,1.05,0,0,0,205.65,286.93ZM162,202a21.86,21.86,0,0,0-3.51.28c-6.81,1.11-12.55,5.64-17,13.46-2.54,4.42-3,9.18-1.33,14.55,6.31,20.7,42.41,43.74,59,52.92-1.26-3.95-2.8-9.21-4.28-14.61l-30.12-21.35c-.49-.32-13.88-9.21-15.34-19.89a13.67,13.67,0,0,1,3.6-11.24,13.2,13.2,0,0,1,9.7-4.61c8.86-.43,19.26,6.51,25.19,11.18l-.12-.93a68.86,68.86,0,0,1-.86-9.36C183.87,209.93,173.15,202,162,202Z"/></svg>