<svg id="Layer_1" data-name="Layer 1" xmlns="http://www.w3.org/2000/svg" viewBox="0 0 500 500"><path d="M270.09,193.9h-6.43a2.49,2.49,0,0,1-2.5-2.5V162.27a.86.86,0,0,1,0-.16,2.49,2.49,0,0,1,1.43-2.43l51-24a2.49,2.49,0,0,1,3.32,1.2l2.74,5.83a2.5,2.5,0,0,1-1.21,3.32l-45.91,21.54V191.4A2.49,2.49,0,0,1,270.09,193.9Zm-3.93-5h1.43V166a2.49,2.49,0,0,1,1.44-2.26l45.09-21.15-.61-1.3-47.35,22.21Z"/><path d="M246,288.73a13.35,13.35,0,1,1,13.35-13.35A13.37,13.37,0,0,1,246,288.73Zm0-21.7a8.35,8.35,0,1,0,8.35,8.35A8.36,8.36,0,0,0,246,267Z"/><path d="M267.71,288.73a13.35,13.35,0,1,1,13.35-13.35A13.37,13.37,0,0,1,267.71,288.73Zm0-21.7a8.35,8.35,0,1,0,8.35,8.35A8.36,8.36,0,0,0,267.71,267Z"/><path d="M257.34,301.41a10.11,10.11,0,1,1,10.11-10.11A10.13,10.13,0,0,1,257.34,301.41Zm0-15.22a5.11,5.11,0,1,0,5.11,5.11A5.11,5.11,0,0,0,257.34,286.19Z"/><path d="M270.15,299.09a7.59,7.59,0,1,1,7.58-7.58A7.6,7.6,0,0,1,270.15,299.09Zm0-10.17a2.59,2.59,0,1,0,2.58,2.59A2.59,2.59,0,0,0,270.15,288.92Z"/><path d="M265.06,309.26a7.59,7.59,0,1,1,7.59-7.58A7.59,7.59,0,0,1,265.06,309.26Zm0-10.17a2.59,2.59,0,1,0,2.59,2.59A2.59,2.59,0,0,0,265.06,299.09Z"/><path d="M310.18,377.4H208.91a2.5,2.5,0,0,1-2.5-2.5V200.34a2.5,2.5,0,0,1,2.5-2.5H310.18a2.49,2.49,0,0,1,2.5,2.5V374.9A2.49,2.49,0,0,1,310.18,377.4Zm-98.77-5h96.27V202.84H211.41Z"/><path d="M310.19,202.84H208.91a2.51,2.51,0,0,1-1.38-.41L181.18,185.1a2.5,2.5,0,0,1,1.38-4.59h81.1a2.5,2.5,0,0,1,0,5H190.91l18.75,12.33h92.18l-18.75-12.33h-13a2.5,2.5,0,0,1,0-5h13.75a2.47,2.47,0,0,1,1.37.41l26.35,17.33a2.5,2.5,0,0,1-1.37,4.59Z"/><path d="M208.91,377.4a2.56,2.56,0,0,1-1.38-.41l-26.35-17.33a2.52,2.52,0,0,1-1.12-2.09V183a2.5,2.5,0,0,1,3.87-2.09l26.35,17.33a2.51,2.51,0,0,1,1.13,2.09V374.9a2.51,2.51,0,0,1-2.5,2.5Zm-23.85-21.18,21.35,14V201.69l-21.35-14.05Z"/></svg>