<svg id="Layer_1" data-name="Layer 1" xmlns="http://www.w3.org/2000/svg" viewBox="0 0 500 500"><path d="M250,299.8c-35.86,0-69.6-2.72-95-7.66-27.33-5.31-41.18-12.32-41.18-20.84,0-6.41,7.54-11.79,23.05-16.46,1.48-.45,2.81-.82,4-1.15a2.5,2.5,0,0,1,1.26,4.84c-1.18.31-2.45.67-3.87,1.1-18.08,5.44-19.49,10.31-19.49,11.67,0,9.61,46.71,23.5,131.18,23.5s131.18-13.89,131.18-23.5c0-3.14-6.14-8.15-23.38-12.77-.76-.21-1.53-.42-2.32-.61a2.5,2.5,0,1,1,1.22-4.85c.81.2,1.62.42,2.41.63,18.21,4.89,27.07,10.65,27.07,17.6,0,8.52-13.85,15.53-41.18,20.84C319.6,297.08,285.86,299.8,250,299.8Z"/><path d="M338.18,282.85c-5.39,0-10.95-3.13-11.75-3.6a2.36,2.36,0,0,1-.71-.62s-.52-.66-1.35-1.55a2.5,2.5,0,0,1,3.64-3.42c.58.62,1,1.15,1.32,1.49,2.39,1.29,8.45,3.87,11.52,2.11,1.55-.89,2.34-3.06,2.34-6.44,0-2.31.28-5.53,2.72-6.76,2.66-1.34,5.38.67,8,2.62a24.66,24.66,0,0,0,2.86,1.92c.24-1,.49-3.94-.71-11.51l-.09-.57c-.05-.34-.09-.63-.15-.91-1.25-7.38-3.77-12.31-7.49-14.7-3.09-2-7.18-2.3-12.16-1a2.89,2.89,0,0,1-.65.08h0a2.47,2.47,0,0,1-1.68-.65,2.5,2.5,0,0,1-.17-3.53,2.53,2.53,0,0,1,1.35-.77c6.34-1.67,11.73-1.13,16,1.62,5,3.18,8.23,9.25,9.71,18,.06.28.11.61.16.94l0,.1.08.53c1.68,10.59,1.24,15.17-1.6,16.9s-5.81-.54-8.47-2.51a29.08,29.08,0,0,0-2.62-1.8,11.4,11.4,0,0,0-.13,1.92c0,5.31-1.63,8.93-4.86,10.78A10.25,10.25,0,0,1,338.18,282.85Z"/><path d="M307.25,264.81a2.56,2.56,0,0,1-.47,0,2.51,2.51,0,0,1-2-2.93c.11-.52.23-1.07.37-1.62a2.5,2.5,0,0,1,2.4-1.86c7.38-.05,13.44-4.77,16.39-7.57a2.5,2.5,0,1,1,3.44,3.62c-3.23,3.07-9.66,8.08-17.83,8.85A2.49,2.49,0,0,1,307.25,264.81Z"/><path d="M298.13,261.17a2.47,2.47,0,0,1-1.71-.69h0a2.49,2.49,0,1,1,1.72.7Z"/><path d="M307.58,263.36a2.5,2.5,0,0,1,0-5c7.38-.05,13.44-4.77,16.39-7.57.86-.82,1.46-1.45,1.81-1.84a2.5,2.5,0,0,1,3.7,3.36c-.59.65-1.3,1.38-2.07,2.11-3.49,3.31-10.69,8.87-19.79,8.94Z"/><path d="M270.6,252h-.22a2.51,2.51,0,0,1-2.27-2.73c0-.18,0-.34.07-.51a18.43,18.43,0,0,1,1.79-5.62,21.34,21.34,0,0,1,1.46-2.56c2.31-3.54,6.56-8.07,11.65-12.4a90.66,90.66,0,0,1,7.25-5.58c15.83-10.95,29.07-12.51,36.32-4.28,4.08,4.63,5.31,7.51,4.24,9.92-1.24,2.82-4.69,2.87-7.72,2.92-.67,0-1.63,0-2.35.09a41.37,41.37,0,0,0,2,4.11,2.5,2.5,0,0,1-4.38,2.42,43.22,43.22,0,0,1-2.64-5.55,4.11,4.11,0,0,1,.31-3.95c1.4-2,4.22-2.08,6.95-2.12a22.17,22.17,0,0,0,3-.17,19.3,19.3,0,0,0-3.16-4.36c-7.65-8.68-23.34.67-29.73,5.09a84.76,84.76,0,0,0-6.85,5.27c-4.67,4-8.67,8.21-10.7,11.33a16.11,16.11,0,0,0-1.15,2,13.49,13.49,0,0,0-1.34,4.19s0,.08,0,.11l0,.13A2.49,2.49,0,0,1,270.6,252Z"/><path d="M269.23,251.79a17,17,0,0,1-7.61-1.93l-.63-.33a27.68,27.68,0,0,0-8.9-3,17.82,17.82,0,0,1-2.83-.68,2.54,2.54,0,0,1-1-.62A2.5,2.5,0,0,1,250,241h0a2.62,2.62,0,0,1,.91.17,13,13,0,0,0,2.09.48,32.81,32.81,0,0,1,10.39,3.55l.4.21a11.38,11.38,0,0,0,6.55,1.36,2.5,2.5,0,1,1,.6,5A14.06,14.06,0,0,1,269.23,251.79Z"/><path d="M291.75,227.19a2.48,2.48,0,0,1-1.72-.69,24,24,0,0,0-2.79-2c-3-2-6.67-4.45-7.22-8.58,0,0,0-.07,0-.1-.45.07-1.09.26-1.56.39-1.9.54-4.5,1.28-6.74-.2-1.58-1-2.52-2.88-2.88-5.61a10.12,10.12,0,0,0-.76-3.22c-.3,0-.79.15-1.17.23a11.25,11.25,0,0,1-7.22-.23,1.12,1.12,0,0,0-1,0c-2,1-3.87,5.78-4.6,8.87l-1.58,9a2.5,2.5,0,1,1-4.92-.86l1.59-9.06s0-.09,0-.13c.38-1.62,2.48-9.79,7.17-12.24a6.12,6.12,0,0,1,5.22-.25,6.55,6.55,0,0,0,4.24,0c1.5-.35,3.37-.78,5.11.43,1.57,1.09,2.41,3.06,2.9,6.79.22,1.74.66,2.07.67,2.07.33.22,1.94-.24,2.63-.43,1.76-.5,4-1.12,5.8.1a5,5,0,0,1,2.09,3.76c.25,1.88,2.79,3.58,5,5.08a25.73,25.73,0,0,1,3.46,2.58,2.5,2.5,0,0,1-1.72,4.31Z"/><path d="M250,249.4h0a2.5,2.5,0,1,1,2.51-2.5A2.5,2.5,0,0,1,250,249.4Z"/><path d="M266.33,281.64a16.27,16.27,0,0,1-4.7-.61,7.19,7.19,0,0,1-4.81-4c-.52-1.21-2.3-4-8.38-8.8a2.51,2.51,0,0,1,3.12-3.92c5.36,4.27,8.58,7.78,9.86,10.76.08.19.33.76,1.68,1.18,5.39,1.65,17.94-2.1,23-5.33,4.2-2.71,8.83-1.59,13.61-.08a2.5,2.5,0,0,1-1.5,4.77c-4.53-1.43-7.22-1.9-9.4-.49C284.45,277.9,274.09,281.64,266.33,281.64Z"/><path d="M306.87,265a2.5,2.5,0,0,1-1.36-.4c-.29-.19-.54-.34-.74-.45a2.34,2.34,0,0,1-.58.26c-1.53.52-3.36.05-7.72-3.86a71.2,71.2,0,0,1-8.28-8.83c-2.61-3.38-3.1-5-3.25-5.89-.09-.13-.95-.7-3.32-.75a26,26,0,0,0-8.59,1.58,2.5,2.5,0,1,1-1.64-4.72,31.44,31.44,0,0,1,10.32-1.86c6.68.13,7.94,3.51,8.17,5,0,0,.2.95,2.27,3.62a66.19,66.19,0,0,0,7.64,8.16,26.17,26.17,0,0,0,2.94,2.34L303,259c1.35-.57,2.92-.16,5.27,1.35a2.5,2.5,0,0,1-1.36,4.6Zm-5.63-3.84v0Z"/><path d="M192.82,265.18a2.51,2.51,0,0,1-2.46-2q-.15-.81-.36-1.65a2.5,2.5,0,1,1,4.84-1.25c.16.62.31,1.27.44,2a2.51,2.51,0,0,1-2,2.92A2.45,2.45,0,0,1,192.82,265.18Z"/><path d="M161.82,282.85a10.25,10.25,0,0,1-5.15-1.25c-3.23-1.85-4.86-5.47-4.86-10.78a11.4,11.4,0,0,0-.13-1.92,29.08,29.08,0,0,0-2.62,1.8c-2.66,2-5.68,4.2-8.47,2.51s-3.28-6.31-1.6-16.9l.07-.42c.06-.38.12-.76.19-1.16,1.66-9.83,5.54-16.23,11.53-19,6.67-3.12,15.77-1.52,26.31,4.62a2.5,2.5,0,1,1-2.52,4.32c-6.32-3.68-15.21-7.44-21.67-4.42-4.42,2.07-7.35,7.23-8.73,15.35-.06.37-.12.74-.17,1.1l-.07.43c-1.2,7.56-1,10.46-.71,11.5a24.66,24.66,0,0,0,2.86-1.92c2.63-1.95,5.35-4,8-2.62,2.44,1.23,2.72,4.45,2.72,6.76,0,3.38.79,5.55,2.34,6.44,3.06,1.75,9.11-.81,11.51-2.11,1.65-2,8.2-9.35,15.28-8.11a2.5,2.5,0,0,1-.86,4.92c-4.07-.71-9.29,4.7-10.79,6.66a2.56,2.56,0,0,1-.72.63C172.77,279.72,167.21,282.85,161.82,282.85Z"/><path d="M229.4,252a2.5,2.5,0,0,1-2.49-2.25,1,1,0,0,0,0-.12,2.5,2.5,0,1,1,4.92-.9c0,.21.06.37.08.55a2.49,2.49,0,0,1-2.27,2.71Z"/><path d="M192.55,263.36h-.15c-9.1-.07-16.3-5.63-19.79-9a31.58,31.58,0,0,1-3.35-3.61,2.49,2.49,0,0,1,0-3s2.15-3,4.5-6.69a72,72,0,0,0,5.47-9.86c-.73-.07-1.69-.08-2.36-.09-3-.05-6.48-.1-7.72-2.92-1.07-2.41.16-5.29,4.24-9.92,6.44-7.31,17.51-7,31.18,1a2.5,2.5,0,1,1-2.52,4.32c-6.59-3.83-18.58-9.2-24.9-2a19.33,19.33,0,0,0-3.17,4.37,22.17,22.17,0,0,0,3,.17c2.73,0,5.55.08,7,2.12a4.13,4.13,0,0,1,.32,3.95,67.74,67.74,0,0,1-6.24,11.56c-1.38,2.17-2.66,4.06-3.53,5.32.44.47,1,1,1.63,1.64,3,2.81,9,7.53,16.4,7.58h.11a18.94,18.94,0,0,0,8.18-1.92,2.5,2.5,0,0,1,2.86,4,3,3,0,0,1-.65.46A24.09,24.09,0,0,1,192.55,263.36Z"/><path d="M230.77,251.79a14.06,14.06,0,0,1-1.72-.11c-4.29-.5-8.37-2.88-12.44-7.29l-.17-.18c-.12-.14-.25-.29-.39-.43a2.5,2.5,0,0,1,3.66-3.42l.36.41a1.14,1.14,0,0,1,.11.11c3.26,3.57,6.36,5.48,9.46,5.84a11.32,11.32,0,0,0,6.5-1.33l.43-.22A32.84,32.84,0,0,1,247,241.6a13,13,0,0,0,2.09-.48l.1,0,.14-.08c.78-1.15-.64-9.36-1.79-16l-1.58-9c-.73-3.08-2.63-7.84-4.6-8.87a1.09,1.09,0,0,0-1,0,11.32,11.32,0,0,1-7.22.23,10.74,10.74,0,0,0-1.16-.23,4.4,4.4,0,0,0-.36,1,2.5,2.5,0,0,1-4.84-1.25c1.5-5.79,5.39-4.89,7.48-4.41a6.55,6.55,0,0,0,4.24,0,6.08,6.08,0,0,1,5.22.25c4.69,2.45,6.79,10.62,7.17,12.24,0,0,0,.09,0,.13l1.59,9.06c2.56,14.72,3.42,19.68-1.55,21.6l-.14.06a18.23,18.23,0,0,1-2.86.68,27.83,27.83,0,0,0-8.93,3l-.66.34A16.91,16.91,0,0,1,230.77,251.79Z"/><path d="M211.55,224.75h0a2.5,2.5,0,1,1,2.5-2.5A2.5,2.5,0,0,1,211.54,224.75Z"/><path d="M233.67,281.64c-7.76,0-18.12-3.74-22.43-6.52-2.5-1.6-5.67-.71-10.65.89-4.1,1.31-8.75,2.8-14,2.51-3.28-.19-4.62-1.65-5.17-2.85-1-2.07-.25-4.58,2.13-7.69a36.09,36.09,0,0,1,7.89-7.37,2.5,2.5,0,1,1,2.79,4.15A31.19,31.19,0,0,0,187.5,271a8.81,8.81,0,0,0-1.43,2.41,4.86,4.86,0,0,0,.78.1c4.35.24,8.35-1,12.22-2.28,5.28-1.7,10.27-3.3,14.87-.33,5,3.23,17.57,7,23,5.33,1.35-.42,1.6-1,1.68-1.18,1.28-3,4.5-6.49,9.86-10.76,3.09-2.44,6.12-4.52,7.91-5.7a20.1,20.1,0,0,0-4.6-7.38l-.13-.11a12.13,12.13,0,0,0-2.67-1.94l-.15-.08a10.42,10.42,0,0,0-1.2-.55c-3-1.14-4.15-.59-5.87.25a10.5,10.5,0,0,1-4.36,1.32,2.5,2.5,0,1,1-.22-5,6,6,0,0,0,2.38-.82c2-1,4.81-2.35,9.86-.42a14.87,14.87,0,0,1,1.65.74l.12.06a17.06,17.06,0,0,1,3.76,2.67l.14.12a25.53,25.53,0,0,1,6.67,11.62,2.5,2.5,0,0,1-1.1,2.69c-.05,0-4.58,2.88-9.08,6.44-6.07,4.83-7.85,7.59-8.37,8.81a7.21,7.21,0,0,1-4.81,4A16.27,16.27,0,0,1,233.67,281.64Z"/><path d="M201.86,261.16a2.49,2.49,0,0,1-1.72-4.3h0a66.11,66.11,0,0,0,7.7-8.21,24.44,24.44,0,0,0,1.74-2.51,2.5,2.5,0,0,1,4.32,2.52,29.3,29.3,0,0,1-2.1,3,71.2,71.2,0,0,1-8.28,8.83A2.5,2.5,0,0,1,201.86,261.16Z"/><path d="M217.53,245.1a2.5,2.5,0,0,1-.2-5l.82,0h.17a2.5,2.5,0,0,1,0,5l-.61,0Z"/><path d="M206.23,251.06a16.19,16.19,0,1,1,16.19-16.19A16.21,16.21,0,0,1,206.23,251.06Zm0-27.38a11.19,11.19,0,1,0,11.19,11.19A11.2,11.2,0,0,0,206.23,223.68Z"/><path d="M312.5,291.14A16.19,16.19,0,1,1,328.7,275,16.21,16.21,0,0,1,312.5,291.14Zm0-27.38A11.19,11.19,0,1,0,323.7,275,11.2,11.2,0,0,0,312.5,263.76Z"/><path d="M332,253.13h-9.63a8.29,8.29,0,0,1-8.28-8.28v-2.73a8.29,8.29,0,0,1,8.28-8.28H332a8.28,8.28,0,0,1,8.27,8.28v2.73A8.28,8.28,0,0,1,332,253.13Zm-9.63-14.29a3.28,3.28,0,0,0-3.28,3.28v2.73a3.28,3.28,0,0,0,3.28,3.28H332a3.28,3.28,0,0,0,3.27-3.28v-2.73a3.28,3.28,0,0,0-3.27-3.28Z"/><path d="M226.25,230.41H218a2.5,2.5,0,0,1,0-5h8.23a3.28,3.28,0,0,0,3.28-3.28v-9.62a3.24,3.24,0,0,0-1.62-2.81,3.15,3.15,0,0,0-1.66-.47h-9.62a3.28,3.28,0,0,0-3.28,3.28V222a2.5,2.5,0,0,1-5,0v-9.47a8.29,8.29,0,0,1,8.28-8.28h9.62a8.31,8.31,0,0,1,8.28,8.28v9.62A8.28,8.28,0,0,1,226.25,230.41Z"/><path d="M339.48,226.21a2.5,2.5,0,0,1-.18-5c2.69-.2,3.15-.7,3.17-.73h0s.44-1.93-5.79-9c-9.45-10.73-25.62-5.67-37.52.47a2.5,2.5,0,1,1-2.29-4.45c19.33-10,34.4-9.73,43.56.68,6,6.77,8,11,6.65,14.22-1.36,3.36-5.6,3.67-7.41,3.8Z"/><path d="M131.84,241.87a2.45,2.45,0,0,1-.83-.14,2.51,2.51,0,0,1-1.53-3.19c3-8.63,7.82-14.16,14.2-16.44,10.08-3.61,20.2,2.41,20.63,2.67a2.5,2.5,0,0,1-2.59,4.28c-.14-.08-8.6-5.05-16.38-2.23-4.88,1.75-8.63,6.26-11.14,13.38A2.5,2.5,0,0,1,131.84,241.87Z"/></svg>