<svg id="Layer_1" data-name="Layer 1" xmlns="http://www.w3.org/2000/svg" viewBox="0 0 500 500"><path d="M237.56,321.57a2.52,2.52,0,0,1-1.37-.41,2.49,2.49,0,0,1-1.13-2c0-.14-1.12-16.65-29.89-31.16-8.55-4.31-13.68-10.36-15.24-18-3.24-15.9,10.37-32.83,11.78-34.53L238,180.88l.13-.18,12.32-15.33.24-.26a72.36,72.36,0,1,1,75,120.49l-87.2,35.78A2.54,2.54,0,0,1,237.56,321.57Zm4.51-137.83-36.27,54.6c-.05.08-.11.15-.17.23S192,255,194.83,269c1.24,6.05,5.48,10.94,12.59,14.52,24,12.12,30.38,25.82,32,32.06L323.87,281A67.05,67.05,0,0,0,346.26,267h0a67.36,67.36,0,0,0-92-98.36Z"/><path d="M176.74,356.92a2.5,2.5,0,0,1-1.5-4.51L233.53,309a2.5,2.5,0,1,1,3,4l-58.28,43.4A2.47,2.47,0,0,1,176.74,356.92Z"/><path d="M155.11,334a2.45,2.45,0,0,1-1.64-.62,2.5,2.5,0,0,1-.25-3.52l44-50.55a2.51,2.51,0,0,1,3.78,3.29L157,333.1A2.5,2.5,0,0,1,155.11,334Z"/><path d="M145.08,360.3a17.58,17.58,0,1,1,11.69-30.71,2.5,2.5,0,0,1-3.33,3.73,12.59,12.59,0,1,0,3.75,12.81,2.5,2.5,0,0,1,4.82,1.35,17.6,17.6,0,0,1-16.93,12.82Z"/><path d="M165.72,382.3a17.58,17.58,0,0,1-3.67-34.78,2.5,2.5,0,0,1,1,4.89,12.59,12.59,0,1,0,11.82,3.72,2.5,2.5,0,1,1,3.65-3.42,17.58,17.58,0,0,1-12.84,29.59Z"/><path d="M301,275a2.5,2.5,0,0,1-.81-4.86c43.46-14.79,41.81-65.42,41.79-65.93a2.49,2.49,0,0,1,2.39-2.6,2.52,2.52,0,0,1,2.61,2.39,88.27,88.27,0,0,1-4.73,29.27c-7,20.59-21,35-40.45,41.6A2.44,2.44,0,0,1,301,275Z"/><path d="M195.68,205.06a2.54,2.54,0,0,1-1.37-.4,2.5,2.5,0,0,1-.72-3.47c.46-.71,11.79-17.88,46.56-57.81,18.73-21.51,42.36-25.83,58.87-25.67a95.83,95.83,0,0,1,31.56,5.55,2.5,2.5,0,1,1-1.84,4.65,92.81,92.81,0,0,0-29.94-5.21h-.72c-22.09,0-40.31,8.06-54.16,24-34.48,39.6-46,57.09-46.15,57.26A2.48,2.48,0,0,1,195.68,205.06Z"/></svg>