<svg id="Layer_1" data-name="Layer 1" xmlns="http://www.w3.org/2000/svg" viewBox="0 0 500 500"><path d="M152,389.63h-6.2a22.37,22.37,0,0,1-22.35-22.34,2.32,2.32,0,0,1,0-.46l22.32-121.89a2.5,2.5,0,0,1,2.46-2h23.58a2.49,2.49,0,0,1,2.5,2.5V367.29A22.37,22.37,0,0,1,152,389.63ZM128.43,367.5a17.37,17.37,0,0,0,17.35,17.13H152a17.36,17.36,0,0,0,17.35-17.34V247.9h-19Z"/><path d="M171.83,240.42H146.14a2.49,2.49,0,0,1-2.37-1.71c-4.15-12.5-10.87-37.64-9.32-65.44,1.35-24.21,25.75-60.29,26.79-61.81a2.49,2.49,0,0,1,2.07-1.09,9.19,9.19,0,0,1,6.89,2.79c4.8,4.94,4.5,15.15,4.24,24.15-.06,1.85-.11,3.6-.11,5.17v95.44A2.49,2.49,0,0,1,171.83,240.42Zm-23.88-5h21.38V142.48c0-1.64,0-3.43.11-5.32.21-7.21.5-17.09-2.82-20.52a4,4,0,0,0-2.06-1.15c-4.27,6.52-24,37.61-25.11,58.05C138,199.31,143.91,222.77,148,235.42Z"/><path d="M142.69,378.86c-.64,0-1.3,0-2-.05a2.5,2.5,0,1,1,.26-5c6.32.33,11-1.11,14-4.26,4.51-4.76,3.77-12.12,3.76-12.19s0-.19,0-.28V261.35a2.5,2.5,0,0,1,5,0V357c.12,1.32.65,9.89-5.08,16C155,376.87,149.61,378.86,142.69,378.86Z"/><path d="M249.84,389.63h-6.21a22.37,22.37,0,0,1-22.35-22.35c0-.08,0-.17,0-.25L233.8,245.14a2.5,2.5,0,0,1,2.49-2.24h23.22a2.49,2.49,0,0,1,2.49,2.29l10.18,121.88c0,.07,0,.14,0,.21A22.37,22.37,0,0,1,249.84,389.63Zm-23.56-22.22a17.37,17.37,0,0,0,17.35,17.22h6.21a17.38,17.38,0,0,0,17.35-17.25l-10-119.48H238.54Z"/><path d="M239.54,376.86c-.64,0-1.29,0-2-.05a2.51,2.51,0,0,1-2.37-2.63,2.48,2.48,0,0,1,2.62-2.37c6.33.32,11-1.11,14-4.26,4.5-4.76,3.77-12.12,3.76-12.19l-8-95.8a2.5,2.5,0,1,1,5-.42l8,95.74c0,.31,1,9.59-5.06,16.07C251.83,374.87,246.46,376.86,239.54,376.86Z"/><path d="M229.56,241.06a2.51,2.51,0,0,1-2.34-1.61,31.44,31.44,0,0,0-5.75-9.18c-4.95-6.08-10.07-12.37-8.89-33.59,1.32-23.72,9.34-60.57,9.42-60.94a2.49,2.49,0,0,1,2.44-2,9.22,9.22,0,0,1,6.87,2.78c4.37,4.47,4.52,13.39,4.33,21.41v0c0,1.08,0,25.82,0,38.83a.24.24,0,0,0,.24.24.25.25,0,0,0,.23-.16.28.28,0,0,0,0-.09V195.4c.9-14.75,3.31-33.37,4.3-40.69,3.22-23.84,4-24.29,5.05-25a2.54,2.54,0,0,1,1.34-.38,2.45,2.45,0,0,1,1.36.37c1.13.7,1.82,1.12,5,24.34,1,7.13,3.34,25.31,4.3,40.15a1,1,0,0,1,0,.17v2.43l0,.12a.29.29,0,0,0,.36.08l-.2-39.93c-.19-9.46.48-16.59,4.36-20.55a9.23,9.23,0,0,1,6.86-2.76,2.5,2.5,0,0,1,2.44,2c.08.37,8.1,37.22,9.42,60.94,1.17,21.22-3.94,27.51-8.89,33.59a32.56,32.56,0,0,0-5.53,8.6v0c-.08.18-.15.36-.21.53a2.51,2.51,0,0,1-2.34,1.62H229.56ZM264,237.92h0Zm-32.74-1.86h30.82a38.16,38.16,0,0,1,5.88-8.94c4.55-5.59,8.84-10.87,7.77-30.17-1.1-19.91-7.05-49.42-8.81-57.83a3.94,3.94,0,0,0-1.34.91c-2.83,2.88-3.07,10.2-2.93,17l.2,40.53a2.59,2.59,0,0,1-.09.68,5.28,5.28,0,0,1-5.06,3.85,5.19,5.19,0,0,1-4.85-3.28,4.91,4.91,0,0,1-.39-2v-2.35c-1-15.33-3.64-36.2-5.62-49.31-2,13.29-4.75,34.65-5.72,50.48v1.18a5.6,5.6,0,0,1-.2,1.47.56.56,0,0,0,0,.12,5.24,5.24,0,0,1-10.24-1.59c0-26.72,0-35.15,0-37.9,0-.1,0-.21,0-.32,0-.4,0-.66,0-.82.12-4.72.34-14.41-2.9-17.73a4,4,0,0,0-1.35-.92c-1.76,8.41-7.71,37.92-8.81,57.83-1.08,19.29,3.22,24.57,7.77,30.16A38.56,38.56,0,0,1,231.23,236.06Z"/><path d="M146.85,204.89a2.5,2.5,0,0,1-2.48-2.16c-1.17-8.7-2.07-21.47.33-32.92a105.29,105.29,0,0,1,14.75-35.31,2.5,2.5,0,0,1,4.19,2.73,100.28,100.28,0,0,0-14,33.61c-2.25,10.75-1.38,22.91-.26,31.22a2.5,2.5,0,0,1-2.15,2.81A1.83,1.83,0,0,1,146.85,204.89Z"/><path d="M260.9,229.08a2.5,2.5,0,0,1-1.46-4.53c10.65-7.64,7.6-36.86,5.53-47.48a2.5,2.5,0,1,1,4.9-1c.33,1.69,7.9,41.45-7.51,52.5A2.47,2.47,0,0,1,260.9,229.08Z"/><path d="M346.14,389.63h-6.21a22.37,22.37,0,0,1-22.35-22.35,2.11,2.11,0,0,1,0-.25l12.5-121.89a2.5,2.5,0,0,1,2.49-2.24h23.22a2.49,2.49,0,0,1,2.49,2.29l10.18,121.88a1.48,1.48,0,0,1,0,.21A22.37,22.37,0,0,1,346.14,389.63Zm-23.56-22.22a17.37,17.37,0,0,0,17.35,17.22h6.21a17.38,17.38,0,0,0,17.35-17.25l-10-119.48H334.85Z"/><path d="M335.85,377.86c-.65,0-1.3,0-2-.05a2.5,2.5,0,0,1,.25-5c6.33.32,11-1.11,14-4.26,4.5-4.76,3.77-12.12,3.76-12.19l-8-95.8a2.5,2.5,0,0,1,5-.42l8,95.74c0,.31,1,9.59-5.07,16.07C348.13,375.87,342.76,377.86,335.85,377.86Z"/><path d="M342.61,241h-16.7a2.48,2.48,0,0,1-2.28-1.5,47.68,47.68,0,0,0-5.65-8.94,56.71,56.71,0,0,1-5.78-9c-4-8.28-3.88-17.58-3.16-26.4a201.56,201.56,0,0,1,5-31.38c2.4-10,5.17-19.62,12.58-28.1a26.8,26.8,0,0,1,12.89-8.56,10,10,0,0,1,3.13-.36,9.74,9.74,0,0,1,3.1.36,26.78,26.78,0,0,1,12.9,8.56c7.4,8.47,10.18,18.12,12.59,28.1a203.68,203.68,0,0,1,5,31.38c.71,8.83.81,18.14-3.17,26.4h0a56.4,56.4,0,0,1-5.79,9,47.87,47.87,0,0,0-5.64,8.93,2.5,2.5,0,0,1-2.29,1.5Zm16.69-2.51h0ZM327.5,236h30.21a59.41,59.41,0,0,1,5.5-8.41,52.35,52.35,0,0,0,5.31-8.19h0c3.46-7.19,3.34-15.7,2.69-23.83A198.74,198.74,0,0,0,366.35,165c-2.35-9.7-4.83-18.35-11.49-26-2.2-2.51-5.78-5.76-10.43-7a4.78,4.78,0,0,0-1.56-.2,2.09,2.09,0,0,1-.5,0,4.77,4.77,0,0,0-1.6.2c-4.63,1.26-8.22,4.51-10.41,7-6.67,7.64-9.15,16.28-11.48,26A197.62,197.62,0,0,0,314,195.6c-.66,8.12-.79,16.63,2.68,23.83a53.41,53.41,0,0,0,5.3,8.18A59.51,59.51,0,0,1,327.5,236Z"/><path d="M357.93,222.76a2.44,2.44,0,0,1-1.29-.37,2.49,2.49,0,0,1-.84-3.43c2-3.35,3.53-8,4.44-13.67,3.59-22.43-7-48.52-7.09-48.78a2.5,2.5,0,0,1,4.63-1.9c.46,1.12,11.21,27.67,7.4,51.47-1,6.36-2.74,11.57-5.11,15.47A2.49,2.49,0,0,1,357.93,222.76Z"/><path d="M325.31,168.79a2.74,2.74,0,0,1-.56-.06,2.5,2.5,0,0,1-1.87-3c5.9-25.37,19.61-28.68,20.19-28.81a2.5,2.5,0,0,1,1.11,4.87c-.24.07-11.34,3.18-16.43,25.07A2.51,2.51,0,0,1,325.31,168.79Z"/></svg>