<svg id="Layer_1" data-name="Layer 1" xmlns="http://www.w3.org/2000/svg" viewBox="0 0 500 500"><path d="M242.76,391.89a6.09,6.09,0,0,1-5.74-4l-16.93-47.73a2.5,2.5,0,1,1,4.72-1.67l16.93,47.74a1.06,1.06,0,0,0,1.33.65l1-.34a1.08,1.08,0,0,0,.67-1.35l-14.6-43.76a2.5,2.5,0,0,1,4.74-1.58l14.6,43.76a6.08,6.08,0,0,1-3.83,7.67l-1,.34A5.94,5.94,0,0,1,242.76,391.89Z"/><path d="M197.88,272.46a2.51,2.51,0,0,1-2.36-1.66L132,91.68a6.08,6.08,0,0,1,3.8-7.78l6.58-2.19a6.05,6.05,0,0,1,7.66,3.83l60.74,182a2.5,2.5,0,1,1-4.74,1.58l-60.74-182a1,1,0,0,0-.53-.61,1.08,1.08,0,0,0-.81-.06l-6.58,2.19a1.07,1.07,0,0,0-.62.55,1,1,0,0,0-.05.81l63.52,179.13a2.5,2.5,0,0,1-1.53,3.19A2.37,2.37,0,0,1,197.88,272.46Z"/><path d="M117.59,404.29a6.27,6.27,0,0,1-1.14-.1l-1-.2a6.08,6.08,0,0,1-4.87-7L152.4,148.31a2.5,2.5,0,0,1,5,.36,3.11,3.11,0,0,1,0,.43L115.47,397.86a1.07,1.07,0,0,0,.85,1.22l1.05.19a1.06,1.06,0,0,0,.8-.16,1,1,0,0,0,.45-.69l42.38-226a2.5,2.5,0,0,1,4.92.92l-42.39,226a6,6,0,0,1-5.94,4.94Z"/><path d="M170.26,156.28a2.45,2.45,0,0,1-.46,0,2.51,2.51,0,0,1-2-2.92l10.81-57.65a1,1,0,0,0-.16-.8,1.08,1.08,0,0,0-.69-.45L171,93.15a1.05,1.05,0,0,0-.81.17,1,1,0,0,0-.43.69L164,128a2.48,2.48,0,0,1-2.88,2.05,2.51,2.51,0,0,1-2-2.88l5.73-34a6,6,0,0,1,7.09-5l6.81,1.27a6.08,6.08,0,0,1,4.85,7.08l-10.81,57.65A2.51,2.51,0,0,1,170.26,156.28Z"/><path d="M254.18,345.92l-.32,0L152.39,332.67a2.5,2.5,0,0,1-2.17-2.29,26.76,26.76,0,0,1,2.21-13.31,20.57,20.57,0,0,1,4.28-6.08,22.71,22.71,0,0,0,3.51-4.52,14.48,14.48,0,0,0,2.16-7.32,14.65,14.65,0,0,1,2.84-8.45,7.61,7.61,0,0,1,5.74-3.37c1.93-.33,4.33-.74,9-4.49a27.46,27.46,0,0,0,7.21-8.46c1.25-2.12,2.44-4.12,5-5.28a20.84,20.84,0,0,1,8.31-1.88,26,26,0,0,0,8.32-1.65,27.55,27.55,0,0,0,5.6-2.71,16.65,16.65,0,0,1,6.47-2.59,17.34,17.34,0,0,1,7.55.13,16.49,16.49,0,0,0,6,.28,18.11,18.11,0,0,0,6.34-1.93,16,16,0,0,1,7.93-1.89,14.44,14.44,0,0,1,5.4,1,16.15,16.15,0,0,0,5,1.05,20.34,20.34,0,0,0,5.71-.34,14.7,14.7,0,0,1,6.28-.05,14.16,14.16,0,0,1,5.76,2.49,20.37,20.37,0,0,0,4.58,2.38,20.7,20.7,0,0,0,6.86,1.33,36.15,36.15,0,0,1,5.77.73,2.41,2.41,0,0,1,1,.46c.08.06,7.85,6.05,11.33,8.09a18.25,18.25,0,0,0,8.86,2.66c2.25.19,4.58.38,6.53,2.53a12.28,12.28,0,0,1,3,5.93,11.89,11.89,0,0,0,2.35,5.05,11.18,11.18,0,0,0,3.35,3,11.53,11.53,0,0,1,4.15,4.12A13.07,13.07,0,0,1,336.6,304a13.74,13.74,0,0,0,1.24,5.3,12.19,12.19,0,0,0,2.73,3.88,21,21,0,0,1,3.2,4.09c2.57,4.3,3.73,9.56,3.46,15.62a2.5,2.5,0,0,1-2.5,2.39h0L324.94,335l-70.37,10.89A2.56,2.56,0,0,1,254.18,345.92ZM155.13,328l99,12.91L324.39,330a2.73,2.73,0,0,1,.41,0l17.45.24a21.27,21.27,0,0,0-2.77-10.41,16.08,16.08,0,0,0-2.53-3.21,17,17,0,0,1-3.66-5.26,18.53,18.53,0,0,1-1.67-7,8.24,8.24,0,0,0-1.22-4.41,6.69,6.69,0,0,0-2.58-2.51,15.85,15.85,0,0,1-4.62-4.19,16.7,16.7,0,0,1-3.23-6.87,7.41,7.41,0,0,0-1.83-3.79c-.57-.62-1.16-.73-3.24-.91a23.09,23.09,0,0,1-11-3.33c-3.28-1.92-9.62-6.73-11.39-8.09a31.93,31.93,0,0,0-4.5-.51,25.54,25.54,0,0,1-8.29-1.64,24.58,24.58,0,0,1-5.59-2.9,9.47,9.47,0,0,0-4-1.75,10,10,0,0,0-4.42.07,25.22,25.22,0,0,1-6.94.4,20.69,20.69,0,0,1-6.38-1.33,9.79,9.79,0,0,0-3.77-.73,11.15,11.15,0,0,0-5.75,1.42,23.29,23.29,0,0,1-7.85,2.36,21,21,0,0,1-7.6-.34,12.59,12.59,0,0,0-5.66-.11,11.85,11.85,0,0,0-4.79,1.93,33.9,33.9,0,0,1-16.22,5.09,15.71,15.71,0,0,0-6.55,1.45c-1.08.49-1.63,1.35-2.75,3.26a32.43,32.43,0,0,1-8.4,9.83c-5.68,4.55-9.06,5.13-11.29,5.51-1.5.26-1.77.3-2.52,1.35a9.78,9.78,0,0,0-1.91,5.92,19.46,19.46,0,0,1-2.84,9.47,28.13,28.13,0,0,1-4.17,5.41,15.71,15.71,0,0,0-3.39,4.75A20.91,20.91,0,0,0,155.13,328Z"/><path d="M170.15,323.81a2.43,2.43,0,0,1-1.16-.29,2.51,2.51,0,0,1-1.05-3.38c.24-.45,6-11.23,19.29-22.25,12.2-10.13,33.31-22.34,64.59-23h.05a2.5,2.5,0,0,1,0,5c-57,1.18-79.34,42.16-79.56,42.58A2.48,2.48,0,0,1,170.15,323.81Z"/><path d="M269.81,279.09h-.27a2.5,2.5,0,0,1-2.21-2.76l1-9.47a2.5,2.5,0,0,1,5,.54l-1,9.47A2.51,2.51,0,0,1,269.81,279.09Z"/><path d="M284.19,284.17a2.53,2.53,0,0,1-1-.21,2.5,2.5,0,0,1-1.29-3.29l4.24-9.64a2.5,2.5,0,0,1,4.58,2l-4.24,9.64A2.51,2.51,0,0,1,284.19,284.17Z"/><path d="M300.05,292.36a2.59,2.59,0,0,1-1.31-.36,2.51,2.51,0,0,1-.82-3.44l5-8.19a2.5,2.5,0,1,1,4.26,2.61l-5,8.19A2.49,2.49,0,0,1,300.05,292.36Z"/><path d="M311.81,303.34a2.5,2.5,0,0,1-1.39-4.58l7.46-5a2.5,2.5,0,1,1,2.79,4.15l-7.47,5A2.54,2.54,0,0,1,311.81,303.34Z"/><path d="M330.4,316.94H318.65a2.5,2.5,0,0,1,0-5H330.4a2.5,2.5,0,0,1,0,5Z"/><path d="M386.81,371.06a2.6,2.6,0,0,1-.82-.13,2.51,2.51,0,0,1-1.67-2.23c0-.32,0-.65-.07-1a2.5,2.5,0,0,1,4.16-2.08,3.24,3.24,0,0,1,1.13,2.41,3.18,3.18,0,0,1-.85,2.15A2.5,2.5,0,0,1,386.81,371.06Zm-1.87-4.15a1.88,1.88,0,0,0,.14,2.48l1.18-1.32Z"/><path d="M332.33,418.6c-10.06,0-19.79-2.22-25.84-18.53a29,29,0,0,0-4.05-7.79c-2.3-3.23-3.4-5.25-3.4-15.62,0-2.89.07-5.67.23-8.25a2.5,2.5,0,0,1,4.25-1.63c2.16,1.47,17.44,3.48,40.77,3.48s38.62-2,40.77-3.48a2.5,2.5,0,0,1,4.25,1.64c.16,2.75.23,5.53.23,8.24,0,10-1,11.87-3.19,14.84a25.69,25.69,0,0,0-3.89,7.56c-7.24,20.17-20,19.75-32.44,19.34-3.9-.13-8.07-.12-12,.05C336.15,418.53,334.24,418.6,332.33,418.6ZM304.1,372.28c0,1.42-.06,2.89-.06,4.38,0,9.24.82,10.4,2.47,12.72a34,34,0,0,1,4.67,8.95c5.93,16,14.62,15.62,26.67,15.12,2.08-.09,4.23-.18,6.44-.18,2,0,4,.07,5.89.13,12.52.41,21.56.71,27.57-16a30.7,30.7,0,0,1,4.56-8.82c1.49-2,2.23-3.07,2.23-11.89,0-1.44,0-2.91-.06-4.38A74.32,74.32,0,0,1,373.26,374c-8,.79-18.25,1.22-29,1.22s-21-.43-29-1.22A74.32,74.32,0,0,1,304.1,372.28Zm-.55-5.46,0,0Zm81.48,0,0,0Z"/><path d="M344.29,375.26c-10.73,0-21-.43-29-1.22-13.06-1.3-14.62-3-15.38-3.76a2.51,2.51,0,0,1-.67-1.86l.06-1.05a2.47,2.47,0,0,1,.79-1.67c.73-.69,2.68-2.51,17.42-3.8,34.23-3.8,53.27-.24,55.27.17,13.11,1.26,14.89,2.92,15.64,3.63a2.53,2.53,0,0,1,.79,1.6c0,.34.05.69.07,1a2.67,2.67,0,0,1-.68,1.95c-.75.8-2.32,2.46-15.37,3.76C365.3,374.83,355,375.26,344.29,375.26Zm-36-7.18c6.55,1.14,19.18,2.18,36,2.18s29.46-1,36-2.18c-1.9-.34-4.51-.7-8.11-1.05l-.29,0c-.18,0-19.28-3.95-53.85-.12H318C313.56,367.27,310.44,367.69,308.28,368.08Zm9.51-3.7Z"/></svg>