<svg id="Layer_1" data-name="Layer 1" xmlns="http://www.w3.org/2000/svg" viewBox="0 0 500 500"><path d="M318.75,329.74c-15.53,0-41.82-2.49-41.82-11.82s26.29-11.81,41.82-11.81,41.81,2.49,41.81,11.81S334.28,329.74,318.75,329.74Zm0-18.63c-24.45,0-36.25,4.91-36.82,6.86.57,1.86,12.35,6.77,36.82,6.77,24.26,0,36.05-4.83,36.8-6.82C354.8,315.94,343,311.11,318.75,311.11ZM355.56,318h0Z"/><path d="M177.83,281.14a4.9,4.9,0,0,1-4.83-4.23L146,70a4.87,4.87,0,0,1,4.29-5.46l4.58-.51a4.88,4.88,0,0,1,5.37,4.29l23.1,207.32a4.85,4.85,0,0,1-4.29,5.37h0l-.7.08Zm1-2.59h0ZM151,69.51l26.94,206.62.44-.05L155.31,69Z"/><path d="M164.79,281.14a4.91,4.91,0,0,1-4.35-2.63L64.84,93.06A4.86,4.86,0,0,1,67,86.47l4.13-2a4.88,4.88,0,0,1,6.52,2.21l92.11,187.17a4.87,4.87,0,0,1-2.22,6.51h0l-.64.31A4.71,4.71,0,0,1,164.79,281.14Zm1.66-3.06h0ZM69.34,90.9l95.49,185.2.4-.2L73.23,89Zm96,184.94h0Z"/><path d="M261.7,341.63c-61.76,0-128.86-9.18-137.58-26.72a8.85,8.85,0,0,1,.29-8.65c3.82-6.73,16.41-12.52,37.41-17.19a2.51,2.51,0,1,1,1.09,4.89c-18.74,4.16-31.19,9.55-34.16,14.79a3.85,3.85,0,0,0-.15,3.94c3,6,18.75,12.25,42.16,16.66,24.91,4.7,57.21,7.28,90.94,7.28s66-2.58,90.94-7.28c23.4-4.41,39.16-10.64,42.15-16.66a3.84,3.84,0,0,0-.14-3.92c-6.6-11.67-58.13-23.71-132.95-23.71a594.55,594.55,0,0,0-62.39,3.15,2.5,2.5,0,1,1-.53-5,599.2,599.2,0,0,1,62.92-3.18c60.84,0,127.54,9,137.29,26.22a8.84,8.84,0,0,1,.28,8.63c-4.87,9.79-27.54,15.93-45.7,19.35C328.36,339,295.74,341.63,261.7,341.63Z"/><path d="M261.7,355.63c-51.56,0-98.33-5.95-122-15.55a2.5,2.5,0,1,1,1.88-4.63c23.15,9.37,69.2,15.18,120.16,15.18a2.5,2.5,0,0,1,0,5Z"/><path d="M261.7,436c-41.65,0-88.3-3.09-114.86-40a123.93,123.93,0,0,1-23.71-72.81c0-3.51.14-7,.42-10.32a2.5,2.5,0,0,1,5,.42c-.28,3.2-.41,6.53-.41,9.9a119,119,0,0,0,22.76,69.89C173.54,424.54,211.57,431,261.7,431c50.67,0,89.09-6.71,111.93-39.49a118.92,118.92,0,0,0,21.63-68.29c0-3.37-.14-6.7-.41-9.9a2.5,2.5,0,1,1,5-.42c.28,3.34.43,6.81.43,10.32a123.9,123.9,0,0,1-22.53,71.15c-11.6,16.65-27.81,27.87-49.55,34.32S281.18,436,261.7,436Z"/><path d="M261.7,427.7a2.5,2.5,0,0,1,0-5c43.58,0,76.63-5.77,96.24-33.91a2.5,2.5,0,1,1,4.1,2.86C352,406.07,338,415.79,319.13,421.38S278.52,427.7,261.7,427.7Z"/><path d="M312.78,276.7c-3.87,0-6.8-.91-7.77-3.31a2.5,2.5,0,0,1,4.55-2.07c2.09,1.32,14.81-.09,33.59-7.67,9.06-3.66,20.34-8.22,27.81-15.49,1.1-1.07,1.68-2,1.57-2.6a2.5,2.5,0,0,1,4.93-.86c.41,2.33-.61,4.7-3,7.05-8.17,7.95-19.95,12.71-29.42,16.53C342.28,269.39,323.75,276.7,312.78,276.7Zm-3.13-5.19h0Z"/><path d="M375,247.61a2.5,2.5,0,0,1-2.46-2.05,2.53,2.53,0,0,1,2-2.94,2.46,2.46,0,0,1,2.9,2v.07a2.48,2.48,0,0,1-2,2.9A2.28,2.28,0,0,1,375,247.61Z"/><path d="M307.33,275a2.51,2.51,0,0,1-2.1-1.14l-15-23.12,0-.05-.27-.42a2.5,2.5,0,0,1,4.19-2.73l.31.47,0,0,15,23.08a2.5,2.5,0,0,1-2.1,3.86Z"/><path d="M297.14,252.89c-3.76,0-6.53-.87-7.43-3.1-1.37-3.39,1.81-7.31,10.29-12.71a173.39,173.39,0,0,1,27-13.4c12.72-5.13,24.8-8.73,33.16-9.86a2.5,2.5,0,0,1,1.38,4.76h0a2.32,2.32,0,0,1-.65.18c-7.85,1.06-19.81,4.63-32,9.56-21.4,8.64-32.36,16.57-34.21,19.47,3.34.81,16.74-1.1,38.14-9.75a168.7,168.7,0,0,0,26-12.83l.1-.07.07,0,0,0c1.23-.79,2.27-1.49,3.17-2.14a21.86,21.86,0,0,0,4.65-4.13,2.5,2.5,0,1,1,4,3,26.78,26.78,0,0,1-5.72,5.19c-1,.71-2.09,1.46-3.4,2.3l0,0h0l-.13.09h0a173.89,173.89,0,0,1-26.82,13.28C329.5,244.77,308.66,252.89,297.14,252.89Z"/><path d="M336.66,225.19a2.53,2.53,0,1,1,1.13-.28.69.69,0,0,1-.15.07A2.43,2.43,0,0,1,336.66,225.19Z"/><path d="M375.13,247.57a2.92,2.92,0,0,1-.5,0l-.12,0a2.49,2.49,0,0,1-1.95-3,2.52,2.52,0,0,1,.46-1c.1-.39.22-.94.33-1.45,5.35-24.12,18.9-42.61,40.28-55,.23-.14.57-.33,1-.56,15.86-8.82,16.1-12,16.08-12.29-1.4-1.56-7.16.16-9,.73l-.56.17c-9.4,2.76-18.45,8.75-25.29,13.67-7.21,5.18-14.07,11.66-21.57,20.39a33.87,33.87,0,0,1-12.68,9.33l-2-4.58h0a29.09,29.09,0,0,0,10.88-8c7.77-9,14.9-15.78,22.44-21.19,7.16-5.15,16.68-11.44,26.8-14.41l.54-.16C424,169.1,431,167,434.44,171a4.93,4.93,0,0,1,1.19,4.23c-.73,4.19-6.28,8.89-18.57,15.73-.4.22-.72.39-.93.52-30.32,17.5-36,43.24-37.9,51.7a9.83,9.83,0,0,1-1,3.32A2.5,2.5,0,0,1,375.13,247.57Z"/><path d="M368.81,222.8a2.47,2.47,0,0,1-1.87-.84,2.5,2.5,0,0,1,.21-3.53c7-6.21,15.18-13.65,22.7-21.73a2.5,2.5,0,1,1,3.66,3.41c-7.67,8.23-15.95,15.77-23,22.06A2.51,2.51,0,0,1,368.81,222.8Z"/><path d="M360.16,229.79a2.5,2.5,0,0,1-1.4-4.57l.07-.05.09-.06a2.5,2.5,0,0,1,2.91,4.07l-.18.12h0a3,3,0,0,1-.58.31A2.36,2.36,0,0,1,360.16,229.79Z"/><path d="M232,335.52h-.83c-6.36-.17-9.51-1-11.23-3s-1.41-4.65-1-7.36a23.6,23.6,0,0,0-.1-9.13,57.52,57.52,0,0,1-1.62,7.38,2.5,2.5,0,0,1-4.8-1.42,49.59,49.59,0,0,0,1.16-5l-.54.68c-5.13,6.7-13.67,6.17-19.11,2.28-4-2.9-6.65-8-4.23-13.48a15.61,15.61,0,0,1-5.78,0,8.08,8.08,0,0,1-6.65-6.5,7.38,7.38,0,0,1,3-7.44l-2.6.67c-7.25,1.91-13.5,3.55-16.15,0-2.13-2.86-.09-7,1.62-9.79,6.77-11.17,14.17-10.18,20.12-9.38,3.33.45,6.21.83,8.91-.69,3.88-2.18,6.28-.26,7.14.66,2.14,2.32,2.72,7.22,2.2,12.76a11.18,11.18,0,0,1,4.34,4.21,6.91,6.91,0,0,1,1.13,5.37c3.14-.44,6-.14,8.34,1.68s3.38,4.67,3.82,7.86a10.48,10.48,0,0,1,1,1,14.85,14.85,0,0,1,9.42.06,8.2,8.2,0,0,1,5.26,8.9c-.27,2.61.27,3.13.29,3.15.81.71,4.81-.23,7.74-.91,1.49-.35,3-.71,4.69-1,3.54-.69,5.29.51,6.14,1.63.68.9,1.57,2.89,0,6C251.31,329.13,243.73,335.52,232,335.52Zm-9.37-24.09c.06.15.11.31.17.46a26.9,26.9,0,0,1,1,13.9c-.19,1.44-.42,3.07-.1,3.44s1.59,1.13,7.55,1.28c7.63.19,13.39-3,16.28-6a7.93,7.93,0,0,0,1.79-2.63,5.09,5.09,0,0,0-.94.11c-1.58.31-3.07.66-4.52,1-5.27,1.23-9.44,2.2-12.17-.21-1.68-1.48-2.33-3.91-2-7.41a3.23,3.23,0,0,0-2.13-3.74A8.93,8.93,0,0,0,222.63,311.43Zm-26.18-6.78a28.76,28.76,0,0,1-1.53,2.6c-3.06,4.56.67,7.75,1.88,8.62,3.53,2.53,9,2.95,12.23-1.25a22.37,22.37,0,0,1,5.29-5v-.91a4.72,4.72,0,0,0-.53-.18c-3.6-.92-8.55,2.53-10.16,3.95a2.5,2.5,0,0,1-3.31-3.75c.72-.64,6.75-5.82,13-5.32a4.14,4.14,0,0,0-1.12-1.45c-2.41-1.9-7.9,0-13.21,1.82Zm-12.89-8.08a1,1,0,0,0-.57.15,2.49,2.49,0,0,0-.83,2.43c.15.87.75,2,2.78,2.45s4.73-.11,7.65-1a19.66,19.66,0,0,1-7.06-3.2A3.88,3.88,0,0,0,183.56,296.57Zm17.07-4.19c-.27,1.27-.57,2.54-.92,3.78a4.38,4.38,0,0,0,2.24-.85c.1-.1.42-.39-.38-1.65A9.24,9.24,0,0,0,200.63,292.38Zm-16-.73a8.74,8.74,0,0,1,3.94,1.76,15.32,15.32,0,0,0,6,2.53,52.08,52.08,0,0,0,1.27-5.14c-.83.07-1.76.22-2.82.4a21.86,21.86,0,0,1-7,.4A5.55,5.55,0,0,0,184.58,291.65Zm-19-1.44c1.66.57,7.57-1,10.8-1.82,4.26-1.13,7.95-2.09,10.38-1.74a17.85,17.85,0,0,0,5.41-.38,28.87,28.87,0,0,1,4.37-.52,23.17,23.17,0,0,0-.19-6.51,3.48,3.48,0,0,0-.8-1.87,2.37,2.37,0,0,0-.95.36c-4.16,2.34-8.34,1.78-12,1.29-5.64-.76-10.1-1.36-15.17,7C165.83,288.58,165.59,289.79,165.56,290.21Z"/></svg>