<svg id="Layer_1" data-name="Layer 1" xmlns="http://www.w3.org/2000/svg" viewBox="0 0 500 500"><path d="M152.86,282.9a23.75,23.75,0,0,1-9.49-1.95c-14.43-6.29-19.86-25.9-12.1-43.71a40.64,40.64,0,0,1,13.53-17c1.32-1.23,14.06-13.74,17.64-40.76a40.74,40.74,0,0,1,3.27-21.29,39.71,39.71,0,0,1,17.36-19.39c7.67-4.07,15.8-4.61,22.89-1.52s12.23,9.41,14.47,17.8A39.69,39.69,0,0,1,218.05,181a40.61,40.61,0,0,1-13.36,16.89c-2,2.46-19.73,24.6-18.14,38.82a14.47,14.47,0,0,0,.25,1.49,1.7,1.7,0,0,1,0,.22A40.61,40.61,0,0,1,183.62,260C177.5,274.1,165,282.9,152.86,282.9ZM148,224.11l-.15.12a35.56,35.56,0,0,0-11.95,15c-6.66,15.29-2.39,32,9.51,37.13s27-3,33.66-18.32a35.53,35.53,0,0,0,2.87-18.86,19.31,19.31,0,0,1-.32-2c-1.88-16.81,17.94-41,19.41-42.73a2.56,2.56,0,0,1,.53-.51,35.6,35.6,0,0,0,11.95-15,34.67,34.67,0,0,0,2.13-22.62c-1.84-6.89-6-12-11.64-14.5s-12.25-2-18.55,1.35a34.71,34.71,0,0,0-15.12,17,35.7,35.7,0,0,0-2.85,19,2.49,2.49,0,0,1,0,.77c-3.83,29.34-17.79,42.68-19.37,44.11Z"/><path d="M152.9,186.58a2.46,2.46,0,0,1-1.05-.23,2.52,2.52,0,0,1-1.45-2.12,56.6,56.6,0,0,1,4.52-30c10.78-24.74,35.77-37.81,55.72-29.12a2.5,2.5,0,0,1-2,4.59c-17.42-7.59-39.46,4.31-49.14,26.53a51.64,51.64,0,0,0-4.12,27.47,2.35,2.35,0,0,1-.21,1.38A2.5,2.5,0,0,1,152.9,186.58Z"/><path d="M241.13,285.77c-6,0-11.46-1.81-13-7.87-2.85-11.46,9-15.92,18.52-19.5,2.7-1,5.26-2,7.4-3,13-6.39,18.41-19.19,13.83-32.62a40,40,0,0,0-9-15,31.75,31.75,0,0,0-4.43-3.4c-3.88-2.65-8.28-5.65-8.55-10.71a9.27,9.27,0,0,1,2.61-7.1c2.69-2.8,7.44-4.42,12.69-4.37a21.54,21.54,0,0,1,8.16,1.63c7.78,3.33,14.23,9.27,19.91,14.51l.47.43C302.41,210.42,307,225.41,302.57,241c-6,21.22-27.48,38.89-53.43,44A42.78,42.78,0,0,1,241.13,285.77Zm19.75-98.6c-3.74,0-7.08,1.07-8.76,2.83a4.26,4.26,0,0,0-1.23,3.36c.14,2.6,3.17,4.67,6.38,6.86a35.67,35.67,0,0,1,5.16,4,44.65,44.65,0,0,1,10.21,16.89c5.45,16-1,31.16-16.35,38.73-2.36,1.16-5,2.16-7.85,3.23-10.39,3.91-17.08,7-15.43,13.61,1,4,6.09,5.08,15.17,3.31,24.15-4.72,44.07-21,49.58-40.41,3.86-13.63-.2-26.83-11.41-37.17l-.47-.43c-5.39-5-11.5-10.6-18.49-13.6a16.77,16.77,0,0,0-6.25-1.22h-.26Z"/><path d="M235.73,377.54l-.66,0c-18.15-1-34.91-11.23-46-28-2.39-3.63-17.47-35-12.1-46a7.05,7.05,0,0,1,6-4.12,8.59,8.59,0,0,1,4,.77c15,5.79,29.06,15.75,40.71,28.82,8.14,9.13,25.91,31.85,15,45.39h0A8.59,8.59,0,0,1,235.73,377.54Zm5-4.75h0Zm-57.2-68.43h-.08a2.12,2.12,0,0,0-2,1.33c-3.67,7.54,8.07,35.49,11.77,41.09,10.19,15.43,25.53,24.81,42.09,25.75a3.73,3.73,0,0,0,3.45-1.31c8.76-10.86-9.14-32.54-14.84-38.93-11.12-12.47-24.53-22-38.77-27.48A5.73,5.73,0,0,0,183.54,304.36Z"/><path d="M321.56,376.57c-2.46,0-4.34-1.83-6-3.44a10,10,0,0,0-2.32-1.91c-19-4.15-32.78-22.18-32.78-42.85,0-19.49,12.28-36.8,29.87-42.1.86-.26,2.32-1.8,3.49-3,2.18-2.29,4.65-4.89,7.74-4.89,3.24,0,5.9,2.67,8.24,5,1.33,1.34,2.84,2.85,3.84,3.18,17.35,5.67,29,22.48,29,41.83,0,20-12.68,37.41-30.84,42.37a12.07,12.07,0,0,0-3.2,2.22C326.6,374.66,324.32,376.57,321.56,376.57Zm0-93.23c-.94,0-2.85,2-4.11,3.33-1.75,1.84-3.55,3.74-5.68,4.39-15.49,4.67-26.31,20-26.31,37.31,0,18.34,12.13,34.31,28.85,38,1.86.4,3.32,1.83,4.74,3.2a9.39,9.39,0,0,0,2.53,2c.91,0,2.52-1.35,3.82-2.44a14.49,14.49,0,0,1,5.09-3.21c16-4.37,27.16-19.81,27.16-37.55,0-17.18-10.27-32.08-25.56-37.08-2.15-.7-4-2.58-5.83-4.4C324.77,285.39,322.72,283.34,321.56,283.34Z"/><path d="M321.56,358.22a2.46,2.46,0,0,1-.6-.07,2.5,2.5,0,0,1-1.83-3c4.43-18.08,4.23-32.06,3.28-40.61-1-9.25-3.13-14.31-3.16-14.36a2.5,2.5,0,0,1,4.6-2c.38.87,9,21.77.13,58.12A2.49,2.49,0,0,1,321.56,358.22Z"/><path d="M312.56,230.2a2.57,2.57,0,0,1-.55-.06,2.5,2.5,0,0,1-1.89-3c4.72-21-24.37-39.76-24.66-40a2.5,2.5,0,0,1,2.67-4.22,82.81,82.81,0,0,1,15.34,13.1c9.84,10.8,13.83,21.92,11.53,32.17A2.52,2.52,0,0,1,312.56,230.2Z"/><path d="M344.18,377.54a2.5,2.5,0,0,1-.73-4.89c21.32-6.58,23.73-29.39,23.83-30.35a2.5,2.5,0,1,1,5,.46c-.1,1.1-2.76,27.08-27.33,34.66A2.34,2.34,0,0,1,344.18,377.54Z"/><path d="M367.75,302.62a2.49,2.49,0,0,1-2.44-2c-2.73-13.13-21.83-22.09-22-22.18a2.5,2.5,0,0,1,2.09-4.54c.88.41,21.58,10.09,24.83,25.7a2.51,2.51,0,0,1-1.95,3A2.94,2.94,0,0,1,367.75,302.62Z"/><path d="M237.76,328.38a2.5,2.5,0,0,1-2.18-1.26c-10.77-19-41.43-30-41.74-30.13a2.5,2.5,0,0,1,1.67-4.71c1.33.46,32.72,11.73,44.42,32.37a2.49,2.49,0,0,1-2.17,3.73Z"/></svg>