<svg id="Layer_1" data-name="Layer 1" xmlns="http://www.w3.org/2000/svg" viewBox="0 0 500 500"><path d="M142,335.65a57.56,57.56,0,1,1,57.56-57.56A57.63,57.63,0,0,1,142,335.65Zm0-110.12a52.56,52.56,0,1,0,52.56,52.56A52.62,52.62,0,0,0,142,225.53Z"/><path d="M357.93,344.65h0c-15.07,0-29.46-6.33-40.5-17.81S299.86,300.11,300.37,287c.24-6.42,2.17-9.14,6.81-15.73A311.93,311.93,0,0,0,325.09,243c3.37-5.92,6.15-11.1,8.6-15.66,8.78-16.34,13.18-24.54,23.65-27,8.09-1.93,17.68.37,24.42,5.88,7.06,5.77,8.21,13,9.67,22.08A124.55,124.55,0,0,0,395.55,247,66,66,0,0,0,408,270.45c3.7,4.73,6.89,8.82,7.45,16.45h0c.9,12.24-5.39,27.54-16,39C388.22,338,373.47,344.65,357.93,344.65Zm5.25-140a20.44,20.44,0,0,0-4.67.53c-8.29,2-12.09,9-20.41,24.54-2.47,4.6-5.26,9.8-8.67,15.78a318.12,318.12,0,0,1-18.16,28.67c-4.51,6.39-5.72,8.11-5.91,13-.44,11.63,5.71,25.84,15.67,36.2s23.2,16.27,36.9,16.27h0c14.13,0,27.58-6.1,37.87-17.18,9.73-10.47,15.5-24.28,14.69-35.2h0c-.45-6.12-2.82-9.15-6.4-13.74a70.52,70.52,0,0,1-13.31-25.06A130.06,130.06,0,0,1,386.49,229c-1.39-8.69-2.31-14.43-7.89-19A25.07,25.07,0,0,0,363.18,204.62Z"/><path d="M265.75,229.46c-19.87,0-31.29-10.55-39.83-20.86-9.21-11.11-17.73-23.25-17.73-36.7a57.73,57.73,0,0,1,24-46.77c6.43-4.63,13.35-1.28,20.05,2,4.44,2.16,9,4.38,13.51,4.38,4.29,0,8.73-2.37,13-4.66,6.34-3.37,12.91-6.87,19.16-2.64a57.52,57.52,0,0,1,25.37,47.73c0,15-10.24,28.41-19.17,38.38S284.4,229.46,265.75,229.46Zm-26.53-101.6a6.75,6.75,0,0,0-4.11,1.33,52.71,52.71,0,0,0-21.92,42.71c0,11.86,8,23.12,16.58,33.51,11.21,13.53,21.63,19.05,36,19.05,15.76,0,25.25-7,34.66-17.52,8.34-9.3,17.9-21.7,17.9-35a52.54,52.54,0,0,0-23.17-43.59c-3.51-2.37-7.63-.48-14,2.92-4.62,2.45-9.84,5.24-15.38,5.24s-11-2.59-15.69-4.88C245.56,129.42,242.13,127.86,239.22,127.86Z"/><path d="M265.75,136.47a2.31,2.31,0,0,1-.52-.06,2.5,2.5,0,0,1-1.93-2.94c0-.21,1.7-10.16-10.23-25.63a2.5,2.5,0,0,1,4-3c13.57,17.59,11.27,29.22,11.17,29.7A2.51,2.51,0,0,1,265.75,136.47Z"/><path d="M287,119.32c-2.49,0-4.39-.44-5.22-1.09a2.62,2.62,0,0,1-.54-3.58h0c8.91-12.62,18.67-17.51,24.39-16.76a5.66,5.66,0,0,1,4.85,3.51c.54,1.46.87,4.54-3,8.81A28.52,28.52,0,0,1,287,119.32Zm-1.67-1.79Zm19.06-14.72c-3.31,0-9.75,3-16.6,11.45a22.82,22.82,0,0,0,16-7.39c2-2.21,2.07-3.51,2-3.73,0,0-.21-.21-.8-.29A5.66,5.66,0,0,0,304.38,102.81Z"/><path d="M355.69,196.59a28.44,28.44,0,0,1-20.52-9.11c-3.83-4.26-3.49-7.35-2.95-8.81a5.67,5.67,0,0,1,4.84-3.5c5.73-.75,15.49,4.14,24.39,16.75h0a2.61,2.61,0,0,1-.54,3.58C360.08,196.16,358.19,196.59,355.69,196.59Zm-17.38-16.5a3.86,3.86,0,0,0-.6,0c-.6.07-.79.25-.8.28-.09.23,0,1.53,2,3.73a22.81,22.81,0,0,0,16,7.4C348.05,183.09,341.61,180.09,338.31,180.09Z"/><path d="M187.69,402.18a29.05,29.05,0,0,1-13.16-2.84,41.07,41.07,0,0,1-4.78-3,36.11,36.11,0,0,0-4.05-2.55c-4.71-2.42-8-6.61-8.48-10.93a11,11,0,0,1,4.14-9.73c4.86-4.19,11.34-3.61,17.61-3.05,4.65.42,9,.82,12.52-.65,21.48-9.07,41.13-31.19,51.07-49.09,3.8-6.84,5.47-14.25,7.24-22.1a119.92,119.92,0,0,1,4.71-16.92c2.26-5.83,2.15-10.37,2-16.12,0-1.53-.07-3.12-.07-4.8,0-9.38,4.66-10.81,11.7-11.93a2.5,2.5,0,0,1,2.25,4.15c-3.86,4.29.85,13.82,4.64,21.48.58,1.17,1.14,2.3,1.66,3.39h0a36.92,36.92,0,0,1,2.77,7.17c8.08,36.74-6.77,75-37,95.29C229,389.09,206.23,402.18,187.69,402.18Zm-15.2-27.46c-3.1,0-5.85.49-7.86,2.23-1.86,1.6-2.68,3.4-2.45,5.35.32,2.65,2.6,5.42,5.8,7.07a40.44,40.44,0,0,1,4.61,2.88,36.32,36.32,0,0,0,4.18,2.62c7.4,3.71,25.41,6.17,63-19,28.49-19.13,42.49-55.32,34.86-90.06a33.63,33.63,0,0,0-2.4-6.09h0c-.51-1.07-1.06-2.19-1.63-3.33-3.46-7-7.57-15.32-6.38-21.87-2.28.85-2.71,2.29-2.73,6,0,1.63,0,3.18.07,4.66.13,5.8.26,11.28-2.35,18a114.72,114.72,0,0,0-4.5,16.22c-1.77,7.85-3.6,16-7.75,23.43-9.6,17.29-29.37,41.08-53.49,51.26-4.63,2-9.86,1.49-14.92,1C176.44,374.91,174.4,374.72,172.49,374.72Z"/><path d="M364.4,204.64a2.5,2.5,0,0,1-2.48-2.18,28.52,28.52,0,0,1,10.74-24.32,2.5,2.5,0,1,1,3.16,3.88,23.44,23.44,0,0,0-8.93,19.83,2.5,2.5,0,0,1-2.19,2.77A1.51,1.51,0,0,1,364.4,204.64Z"/></svg>