<svg id="Layer_1" data-name="Layer 1" xmlns="http://www.w3.org/2000/svg" viewBox="0 0 500 500"><path d="M263.83,326c-43.33,0-84.1-3.94-114.79-11.11-22.46-5.24-49.24-14.54-49.24-29.09,0-17.17,37.74-27.07,60.24-31.44a2.5,2.5,0,1,1,1,4.91c-41.43,8.05-56.19,19-56.19,26.53,0,8.54,17,17.59,45.38,24.23,30.33,7.07,70.69,11,113.65,11s83.32-3.9,113.64-11c28.42-6.64,45.38-15.69,45.38-24.23,0-7.59-14.91-18.58-56.75-26.65a2.5,2.5,0,1,1,.95-4.91c22.71,4.38,60.8,14.3,60.8,31.56,0,14.55-26.78,23.85-49.24,29.09C347.92,322.05,307.16,326,263.83,326Z"/><path d="M263.83,340.71c-50.72,0-98.43-4.62-134.34-13-26.16-6.1-57.34-16.9-57.34-33.65a2.5,2.5,0,0,1,5,0c0,20.11,75,41.65,186.68,41.65a2.5,2.5,0,0,1,0,5Z"/><path d="M303.45,277.57c-6.31,0-16.58-5.14-31.11-12.7-3.92-2-8-4.14-11.74-6-19.14-9.36-42,4.16-53,10.66l-.41.24c-7.88,4.67-17.57,2.62-20.65-2.27-1-1.54-3.43-7,5.46-13,2.18-1.44,3.63-3.72-.37-10.52a2.49,2.49,0,1,1,4.3-2.53c4.62,7.84,4.23,13.63-1.15,17.22-1.3.86-5.43,3.86-4,6.13,1.59,2.53,8.27,3.94,13.87.62l.4-.24c11.73-6.94,36.13-21.39,57.7-10.84,3.81,1.86,7.9,4,11.84,6,10.77,5.6,27.05,14.06,30.16,11.87.21-.15.4-.78.22-2.06a11.26,11.26,0,0,1,5.41-11.52c7.94-5,22.18-3.67,29.13.85,1.84,1.19,5.31.45,8.27-1.77s5.49-5.92,4.72-10.3a245.83,245.83,0,0,0-37.47-11.66A2.5,2.5,0,1,1,316.2,231a238.84,238.84,0,0,1,39.35,12.37,2.54,2.54,0,0,1,1.53,1.63c2.19,7.31-1.79,13.49-6.25,16.83-4.73,3.54-10.35,4.33-14,2-5.44-3.53-17.71-4.62-23.74-.81a6.24,6.24,0,0,0-3.12,6.62c.53,3.93-1,5.88-2.31,6.83A7.16,7.16,0,0,1,303.45,277.57Z"/><path d="M254.25,230a2.5,2.5,0,0,1-.12-5c5.38-.27,11-.31,16.78-.1a2.5,2.5,0,1,1-.18,5c-5.6-.19-11.11-.16-16.35.1Z"/><path d="M196.22,242.72a2.5,2.5,0,0,1-1-4.8c7.43-3.22,15.76-5.43,23.12-7.38l1.11-.29a2.58,2.58,0,0,1,3.11,1.81,2.44,2.44,0,0,1-1.76,3l-.59-2.43.56,2.44-1.15.31c-7.19,1.9-15.33,4.06-22.41,7.13A2.56,2.56,0,0,1,196.22,242.72Z"/><path d="M358.8,301c-7.46,0-15.55-.3-23.85-.68-5.12-.23-9.55-.43-12.7-.44-4.91,0-9.77-1.54-15.92-3.49-14.44-4.58-36.25-11.5-78.92-2.33-60.57,13-89.75.38-91-.16a2.86,2.86,0,0,1-.73-.5c-3.61-3.55-5-7.13-4.25-10.62,1.24-5.46,7.78-10.07,20.6-14.51,9.87-3.41,12.93-5.36,13.87-6.3a8.66,8.66,0,0,0-1.38-.61c-7.35-2.65-8.08-6.22-7.85-8.11.32-2.78,3.14-6.36,14.68-7.65,10.37-1.14,17.86-2.9,21.11-5,1.06-.66,1.24-1.11,1.26-1.16a1.23,1.23,0,0,1,.12-.26,2.78,2.78,0,0,1,.75-1,2.5,2.5,0,0,1,3.66,3.32,7.92,7.92,0,0,1-3.13,3.29c-4,2.5-11.8,4.42-23.21,5.68-7.93.89-10.13,2.82-10.28,3.29.06.2,1,1.5,4.59,2.79,3.32,1.2,5,2.94,5,5.18,0,4.28-6.44,7.33-17.52,11.17-13.36,4.62-16.81,8.47-17.36,10.88-.36,1.61.5,3.51,2.56,5.63,10.26,4.33,41.07,9.62,87.45-.34,44-9.45,66.54-2.29,81.48,2.45,5.74,1.82,10.28,3.26,14.41,3.26,3.27,0,7.75.21,12.93.45,17.53.79,50.17,2.27,55.77-5.21,1.48-2,3.75-5.83,2.31-9.33-1.21-2.93-5.52-6.84-19.23-8.86-1.87-.28-3.91-.49-5.88-.7a68.24,68.24,0,0,1-11.48-1.84c-1.69-.49-5.67-1.64-5.86-4.85-.21-3.56,4.38-5.5,9.69-7.74,1.12-.47,2.17-.91,3-1.33a9.17,9.17,0,0,0,3.07-2c-.51-.69-2.64-2.27-11.35-5l-1.32-.42h0l-.18-.06-.26-.11a2.5,2.5,0,0,1,2-4.58l1.27.4c9.23,2.91,14.63,5.4,14.91,9.49.23,3.44-3.31,5.52-6,6.79-1,.45-2.07.92-3.23,1.41a51.68,51.68,0,0,0-5.78,2.72c.35.13.81.29,1.4.46a65.91,65.91,0,0,0,10.6,1.67c2,.21,4.11.43,6.08.72,12.88,1.9,20.66,5.9,23.13,11.91,2.39,5.78-.81,11.39-2.93,14.22C390.29,299.35,376.33,301,358.8,301Zm-5.24-53.08h0Z"/><path d="M254.05,230.35a2.5,2.5,0,0,1-.1-5c3.53-.2,7-.3,10.21-.28,2.18,0,4.5.07,6.88.18a2.5,2.5,0,1,1-.22,5c-2.31-.1-4.56-.16-6.69-.17-3.16,0-6.5.07-9.94.27Z"/><path d="M220.17,235.15a2.53,2.53,0,0,1-2.46-1.9,2.46,2.46,0,0,1,1.8-3l.16,0c3.16-.72,6.48-1.39,9.85-2a2.5,2.5,0,0,1,.88,4.93c-3.3.58-6.54,1.23-9.63,1.93A2.47,2.47,0,0,1,220.17,235.15Z"/><path d="M294.56,247.74a27.21,27.21,0,1,1,27.2-27.21A27.25,27.25,0,0,1,294.56,247.74Zm0-49.41a22.21,22.21,0,1,0,22.2,22.2A22.23,22.23,0,0,0,294.56,198.33Z"/><path d="M241,238.07a19.17,19.17,0,0,1-2.26-.14h0a17.45,17.45,0,1,1,2.26.14ZM241,208.26A12.41,12.41,0,0,0,239.41,233h0a12.4,12.4,0,0,0,3.17-24.6A12.56,12.56,0,0,0,241,208.26Z"/><path d="M264.77,203.08a2.66,2.66,0,0,1-2.68-2.32h0c-2.77-21.26,2.47-35.35,8.9-39.89,2.44-1.72,5.11-2.05,7.34-.92,3,1.55,4.74,5.49,4.81,11.1.26,18.8-14.44,31.75-18.16,32Zm10.77-38.79a3.25,3.25,0,0,0-1.67.67c-3.94,2.78-8.83,13.34-7.23,31.46,4.07-3.55,11.68-12.37,11.5-25.3-.05-4.2-1.16-6.24-2.08-6.71A1.07,1.07,0,0,0,275.54,164.29Z"/><path d="M260.87,203.74a28.44,28.44,0,0,1-20.52-9.11c-3.83-4.27-3.49-7.35-2.95-8.81a5.64,5.64,0,0,1,4.84-3.5c5.72-.75,15.49,4.14,24.39,16.75h0a2.61,2.61,0,0,1-.54,3.58C265.26,203.31,263.36,203.74,260.87,203.74Zm-17.38-16.5a3.7,3.7,0,0,0-.6,0c-.6.07-.79.25-.81.28-.08.23,0,1.53,2,3.73a22.84,22.84,0,0,0,16,7.4C253.23,190.24,246.79,187.24,243.49,187.24Z"/></svg>