<svg id="Layer_1" data-name="Layer 1" xmlns="http://www.w3.org/2000/svg" viewBox="0 0 500 500"><path d="M323.81,388.57H142a2.5,2.5,0,0,1-1.82-4.21l10.38-11.12c-4-25.65-12.52-82.62-10.92-87.35,1.12-3.32,7.73-51.31,11.9-82.76a2.49,2.49,0,0,1,1.07-1.74,2.47,2.47,0,0,1,2-.35L314,240.9a2.46,2.46,0,0,1,1.65,1.35,2.51,2.51,0,0,1,0,2.14L290.9,296.76l24.71,76,10.09,11.63a2.5,2.5,0,0,1-1.89,4.14Zm-176.06-5H318.33l-6.83-7.88a2.51,2.51,0,0,1-.48-.86l-25.18-77.47a2.44,2.44,0,0,1,.12-1.84L309.83,245,156.12,206.57c-2,15.32-10.14,75.68-11.73,80.83-.79,4.73,6.5,55.37,11.29,86.27a2.48,2.48,0,0,1-.65,2.09Zm-3.37-96.13,0,.05Z"/><path d="M277.59,297.27h-.12l-53.77-2.49a2.53,2.53,0,0,1-.91-.22l-43-19.35a2.5,2.5,0,0,1,2-4.56l42.55,19.15,53.31,2.48a2.5,2.5,0,0,1-.12,5Z"/><path d="M274.28,373.56H168.42a2.5,2.5,0,0,1,0-5H274.28a2.5,2.5,0,0,1,0,5Z"/><path d="M294,210.79a25,25,0,0,1-19.74-9.3c-6.43-8.3-5.62-19.33-2.14-26.06,2.12-4.12,4.72-5.75,7.72-7.63a45.72,45.72,0,0,0,10-8,45.16,45.16,0,0,0,6.06-7.84,18,18,0,0,1,6.47-6.78c6.57-4,16.81-5.92,24.88-1.21,5.2,3,8.92,8.41,10.45,15.12,1.58,6.88.56,14.13-2.66,18.92h0c-2.41,3.59-5.31,4.66-8.11,5.69a22.53,22.53,0,0,0-8.71,5.1,24.19,24.19,0,0,0-6.48,10.1c-1.29,3.27-2.63,6.66-6.78,9.16A21.41,21.41,0,0,1,294,210.79Zm22.45-64.65a22.83,22.83,0,0,0-11.51,3.27c-2.54,1.55-3.36,2.84-4.85,5.19A53.56,53.56,0,0,1,282.45,172c-2.76,1.73-4.43,2.78-5.93,5.68-2.77,5.37-3.43,14.14,1.65,20.7,6,7.75,17.69,9.19,24.14,5.31,2.7-1.62,3.5-3.65,4.71-6.71a29.24,29.24,0,0,1,7.72-11.92A27.38,27.38,0,0,1,325.13,179c2.52-.93,4.18-1.54,5.69-3.79h0c2.44-3.62,3.2-9.52,1.94-15s-4.1-9.58-8.1-11.92A16.21,16.21,0,0,0,316.41,146.14Z"/><path d="M225.21,193a13.46,13.46,0,0,1-7.58-2.12c-3.85-2.56-4.44-6.36-5-9.7-.49-3.13-.91-5.83-3.57-8.15s-6.25-3.07-9.43-3.75c-3.82-.82-7.77-1.66-8.64-5.47a6.84,6.84,0,0,1,.56-4.18c1.18-3.06,3.79-5,7.75-8A131.66,131.66,0,0,0,217.21,136c1.87-2,3.4-3.63,4.63-5,4-4.41,6-6.61,9.69-6.37,11.47.75,15.47,26.83,15.53,38.61h0c0,8.12.09,17.32-6.75,23.67A23.39,23.39,0,0,1,225.21,193Zm5.85-63.39c-1.09,0-2.05.93-5.53,4.75-1.24,1.37-2.79,3.08-4.71,5.08a138.78,138.78,0,0,1-18.48,16.21c-3.38,2.53-5.42,4.06-6.07,5.76a3.43,3.43,0,0,0-.37,1.29c.16.7,2.85,1.27,4.81,1.69,3.59.76,8,1.72,11.67,4.87,4,3.51,4.7,7.75,5.23,11.15.49,3.17.87,5,2.79,6.31,3.89,2.59,11.76.94,16.51-3.47s5.2-10.85,5.15-20h0C242,147,236.49,130,231.2,129.64Z"/><path d="M271.39,147.29a9.56,9.56,0,0,1-1.69-.14c-2.87-.5-5-2.56-9-6.31-5.17-4.94-7.77-7.42-8.34-11-.87-5.54,3-11,7-14.31,4.1-3.42,8.43-4.8,11.6-3.7,2.25.79,3.08,2.51,3.82,4a16.63,16.63,0,0,0,3.05,4.6,16.82,16.82,0,0,0,5.49,4c1.78.89,3.63,1.81,4.45,4.26h0c1.09,3.29-.37,7.71-3.92,11.84C280.89,143.91,276.21,147.29,271.39,147.29Zm-2.78-30.87c-1.37,0-3.66.91-6.06,2.92-3.56,3-5.66,6.87-5.22,9.7.31,1.93,2.63,4.15,6.85,8.18,3.23,3.07,5,4.77,6.37,5,2.7.47,6.52-1.54,9.5-5,2.51-2.91,3.39-5.72,3-7h0c-.14-.42-.43-.62-1.93-1.38A22,22,0,0,1,270.27,118c-.6-1.25-.72-1.4-1-1.49A2.29,2.29,0,0,0,268.61,116.42Z"/><path d="M338.88,238.43a8.22,8.22,0,0,1-1.39-.11c-5.54-.9-9.54-6.31-11.44-11.07-2-5-1.93-9.51.1-12.17,1.45-1.9,3.34-2.15,5-2.38a17.13,17.13,0,0,0,10.78-5.45c1.4-1.42,2.85-2.89,5.44-2.9h0c3.45,0,7.18,2.76,10,7.4,2.62,4.33,4.51,10.69,1.94,15.53-1.36,2.57-4,4-8.78,6.54C345.08,236.77,342,238.43,338.88,238.43Zm8.53-29.08c-.44,0-.73.21-1.91,1.41a22.09,22.09,0,0,1-13.66,6.89c-1.38.19-1.56.26-1.71.47-.77,1-.81,3.81.57,7.28,1.72,4.32,4.77,7.53,7.59,8,1.93.32,4.76-1.2,9.9-3.95,3.94-2.11,6.09-3.27,6.74-4.5,1.29-2.42.57-6.68-1.8-10.59-2-3.28-4.37-5-5.71-5Zm0-2.5h0Z"/></svg>