<svg id="Layer_1" data-name="Layer 1" xmlns="http://www.w3.org/2000/svg" viewBox="0 0 500 500"><path d="M281.54,392H218.46A29.46,29.46,0,0,1,189,362.57V193.84c0-7.6,5.74-19.76,14.61-31,3.57-4.51,16.07-19.22,27.18-19.22H266.6c11.16,0,24.56,14.66,28.4,19.15,7.71,9,16,21.91,16,31.05V362.57A29.46,29.46,0,0,1,281.54,392ZM230.83,148.64c-5.81,0-14.93,6.8-23.26,17.33C199.48,176.19,194,187.39,194,193.84V362.57A24.45,24.45,0,0,0,218.46,387h63.08A24.45,24.45,0,0,0,306,362.57V193.84c0-13.14-25.83-45.2-39.36-45.2Z"/><path d="M269.78,142.3H228.35a7.71,7.71,0,0,1-7.7-7.71v-1.78a7.71,7.71,0,0,1,7.7-7.7h41.43a7.71,7.71,0,0,1,7.7,7.7v1.78A7.71,7.71,0,0,1,269.78,142.3Zm-41.43-12.19a2.7,2.7,0,0,0-2.7,2.7v1.78a2.71,2.71,0,0,0,2.7,2.71h41.43a2.71,2.71,0,0,0,2.7-2.71v-1.78a2.7,2.7,0,0,0-2.7-2.7Z"/><path d="M269.78,125.2H228.35a7.7,7.7,0,0,1-7.7-7.7v-1.78a7.71,7.71,0,0,1,7.7-7.71h41.43a7.71,7.71,0,0,1,7.7,7.71v1.78A7.7,7.7,0,0,1,269.78,125.2ZM228.35,113a2.71,2.71,0,0,0-2.7,2.71v1.78a2.7,2.7,0,0,0,2.7,2.7h41.43a2.7,2.7,0,0,0,2.7-2.7v-1.78a2.71,2.71,0,0,0-2.7-2.71Z"/><path d="M250,303.56a24,24,0,0,1-21.26-35.13l.37-.67,18.69-34.38a2.49,2.49,0,0,1,4.39,0l18.58,34.16a24,24,0,0,1-20.77,36Zm0-63.76-16.85,31a18.54,18.54,0,0,0-2.14,8.76A19,19,0,1,0,266.42,270Z"/></svg>