<svg id="Layer_1" data-name="Layer 1" xmlns="http://www.w3.org/2000/svg" viewBox="0 0 500 500"><path d="M271,219.39a2.52,2.52,0,0,1-1.29-.36,65.31,65.31,0,0,0-17.1-7.16,2.5,2.5,0,0,1,1.28-4.84,70.51,70.51,0,0,1,18.4,7.72,2.5,2.5,0,0,1-1.29,4.64Z"/><path d="M231.59,293c-.88,0-1.75,0-2.62,0l-1,0c-1.43-.06-2.5-.13-3.51-.21l-1.92-.18-.45-.05-.34,0c-1.51-.18-2.63-.32-3.67-.49l-1-.17-.82-.14-.21,0-.13,0c-.65-.13-1.31-.25-2-.39l-.16,0-2-.44c-1-.23-1.94-.47-2.89-.74-.41-.11-.88-.24-1.36-.39l-1.4-.42-.51-.17-1-.34c-.52-.17-1.1-.38-1.66-.58-1.63-.58-3.25-1.24-5-2l-1.36-.65c-.38-.17-.83-.39-1.27-.61l-.89-.46c-.36-.19-.78-.41-1.18-.64-.67-.35-1.42-.78-2.29-1.32-.24-.13-.54-.32-.83-.5l-.27-.17q-2.24-1.41-4.13-2.87c-.35-.26-.72-.55-1.08-.85-.78-.62-1.58-1.3-2.35-2-.55-.49-1.09-1-1.61-1.51-.32-.31-.63-.63-.93-.95-.46-.49-.85-.9-1.24-1.34s-.8-.92-1.17-1.38-.58-.72-.88-1.11c-.73-1-1.35-1.85-1.89-2.71-.18-.29-.37-.58-.54-.87-.31-.52-.73-1.23-1.13-2s-.76-1.52-1.12-2.35c-.2-.46-.4-.94-.59-1.42l0-.13c-.18-.47-.35-.94-.51-1.42h0l-.06-.18c-.17-.55-.33-1.05-.47-1.56-.3-1.15-.53-2.19-.69-3.19-.06-.33-.11-.7-.17-1.08-.08-.53-.13-1.1-.17-1.67,0-.24,0-.54-.06-.86,0-.53-.05-1.12-.05-1.72,0-9,3.73-17.62,10.78-25A57.79,57.79,0,0,1,198,211.07a82.27,82.27,0,0,1,33.64-6.92c1.36,0,2.81,0,4.3.1a2.5,2.5,0,0,1-.22,5c-1.42-.06-2.8-.09-4.08-.09A77.23,77.23,0,0,0,200,215.63a52.67,52.67,0,0,0-16.64,11.43c-6.14,6.42-9.39,13.86-9.39,21.53,0,.49,0,1,0,1.44,0,.29,0,.51,0,.73,0,.49.08.93.14,1.36s.09.65.15,1a27.19,27.19,0,0,0,.59,2.74c.13.46.28.93.43,1.4,0,0,0,.06,0,.09.15.43.3.85.46,1.26a.88.88,0,0,1,0,.15c.15.36.3.73.46,1.09.32.74.64,1.4,1,2s.64,1.18,1,1.75l.47.75c.47.75,1,1.52,1.65,2.36.25.32.49.64.75,1s.71.86,1.07,1.26.71.78,1.07,1.16l.83.85c.49.48,1,.95,1.49,1.41.69.63,1.41,1.24,2.13,1.81.33.27.65.52,1,.76q1.74,1.35,3.75,2.61l.28.18c.23.14.46.29.7.42.86.53,1.53.91,2.17,1.25.4.23.76.42,1.11.6l.79.41c.39.19.78.39,1.18.57s.88.42,1.28.6c1.57.71,3.08,1.33,4.59,1.87l1.59.56.93.31.51.17,1.28.38,1.25.35c.93.27,1.82.49,2.72.7l1.85.41.24.05c.53.12,1.14.23,1.74.35.12,0,.23,0,.35.06l.74.12,1,.17c1,.16,2,.3,3.4.45l.75.08,1.86.17c1,.09,2,.15,3.3.21l1,0c1.6.05,3.26.05,4.88,0l1.17,0h.91l1.41-.09,2.57-.22c1.32-.13,2.72-.31,4.28-.55l.61-.1.61-.09.84-.16,2.11-.41c1.44-.32,2.77-.64,4-1l1.46-.4,1.47-.44c.92-.29,1.87-.61,2.8-.94,1.51-.55,3-1.13,4.3-1.72.52-.23,1-.46,1.52-.7l.2-.09.44-.22.19-.08.38-.19.42-.21.58-.3.12-.06.92-.49a53.11,53.11,0,0,0,6.53-4.16c.59-.44,1.18-.89,1.74-1.36l.9-.73c.55-.47,1.1-1,1.61-1.44.28-.26.51-.49.74-.72s.52-.5.75-.75c.49-.51,1-1,1.42-1.54s.76-.9,1-1.26.6-.75.87-1.12.4-.55.56-.79.42-.61.61-.89a6.89,6.89,0,0,0,.44-.68c.23-.36.42-.68.6-1a31.28,31.28,0,0,0,1.72-3.42l.33-.81c.3-.77.56-1.5.78-2.25l.11-.37c.08-.25.12-.4.16-.56l0-.12c.05-.17.09-.34.13-.52s.12-.51.17-.73c.1-.52.19-1,.26-1.44s.12-.83.17-1.23l0-.31v-.19c0-.1,0-.22,0-.34l0-.23c.05-.66.07-1.3.07-1.93,0-7.65-3.23-15.07-9.34-21.48a2.5,2.5,0,1,1,3.62-3.45c7,7.35,10.72,16,10.72,24.93,0,.75,0,1.51-.08,2.25,0,.1,0,.23,0,.37l0,.2c0,.14,0,.25,0,.36l0,.2a.49.49,0,0,1,0,.12c-.05.49-.12,1-.2,1.49s-.18,1.1-.3,1.67c-.05.24-.12.54-.19.83s-.11.46-.18.71-.13.53-.22.81l-.1.33c-.28.94-.59,1.83-.93,2.71-.12.3-.26.63-.39.94a34.12,34.12,0,0,1-2,4c-.2.35-.43.73-.66,1.09a9.51,9.51,0,0,1-.6.92c-.16.25-.37.56-.59.88s-.44.64-.7,1-.61.8-.95,1.23-.74.92-1.23,1.46-1,1.1-1.54,1.67q-.42.45-.87.87c-.24.25-.53.53-.83.81-.54.52-1.16,1.07-1.81,1.61-.31.26-.62.52-.94.77-.58.49-1.25,1-1.91,1.5a56.76,56.76,0,0,1-7.12,4.53c-.32.18-.67.37-1,.55s-.51.27-.77.4l-.36.18c-.19.1-.39.2-.6.29l-.57.28-.15.07c-.54.26-1.12.52-1.69.77-1.43.63-3,1.25-4.6,1.84-1,.37-2.05.71-3,1l-.12,0-1.41.42-1.57.43c-1.33.36-2.73.7-4.28,1l-2.19.43-.49.09-.41.07-.13,0-.59.09-.66.1c-1.63.25-3.11.44-4.53.58-.88.09-1.76.17-2.65.23-.54,0-1,.08-1.54.1h-1l-1.23.05C233.31,293,232.45,293,231.59,293Zm-15.7-1.41Zm0,0Zm75.64-39.81h0Z"/><path d="M231.58,398.19c-30.35,0-62.6-7.31-62.6-20.86V248.59a2.5,2.5,0,0,1,5,0c0,21.74,25.84,39.44,57.6,39.44s57.61-17.7,57.61-39.44a2.5,2.5,0,1,1,5,0V377.33C294.19,390.88,261.93,398.19,231.58,398.19ZM174,266V377.33c0,6.63,21.91,15.86,57.6,15.86,15.82,0,30.66-1.87,41.78-5.27,11.67-3.56,15.83-7.81,15.83-10.59V266c-9.55,15.88-31.78,27-57.61,27S183.53,281.87,174,266Z"/><path d="M231.59,293c-.88,0-1.75,0-2.62,0l-1,0c-1.43-.06-2.5-.13-3.51-.21l-1.92-.18-.45-.05-.34,0c-1.51-.18-2.63-.32-3.67-.49l-1-.17-.82-.14-.21,0-.13,0c-.65-.13-1.31-.25-2-.39l-.16,0-2-.44c-1-.23-1.94-.47-2.89-.74-.41-.11-.88-.24-1.36-.39l-1.4-.42-.51-.17-1-.34c-.52-.17-1.1-.38-1.66-.58-1.63-.58-3.25-1.24-5-2l-1.36-.65c-.38-.17-.83-.39-1.27-.61l-.89-.46c-.36-.19-.78-.41-1.18-.64-.67-.35-1.42-.78-2.29-1.32-.24-.13-.54-.32-.83-.5l-.27-.17q-2.24-1.41-4.13-2.87c-.35-.26-.72-.55-1.08-.85-.78-.62-1.58-1.3-2.35-2-.55-.49-1.09-1-1.61-1.51-.32-.31-.63-.63-.93-.95-.46-.49-.85-.9-1.24-1.34s-.8-.92-1.17-1.38-.58-.72-.88-1.11c-.73-1-1.35-1.85-1.89-2.71-.18-.29-.37-.58-.54-.87-.31-.52-.73-1.23-1.13-2s-.76-1.52-1.12-2.35c-.2-.46-.4-.94-.59-1.42l0-.13c-.18-.47-.35-.94-.51-1.42h0l-.06-.18c-.17-.55-.33-1.05-.47-1.56-.3-1.15-.53-2.19-.69-3.19-.06-.33-.11-.7-.17-1.08-.08-.53-.13-1.1-.17-1.67,0-.24,0-.54-.06-.86,0-.53-.05-1.12-.05-1.72,0-9,3.73-17.62,10.78-25A57.79,57.79,0,0,1,198,211.07a82.27,82.27,0,0,1,33.64-6.92c1.36,0,2.81,0,4.3.1a2.5,2.5,0,0,1-.22,5c-1.42-.06-2.8-.09-4.08-.09A77.23,77.23,0,0,0,200,215.63a52.67,52.67,0,0,0-16.64,11.43c-6.14,6.42-9.39,13.86-9.39,21.53,0,.49,0,1,0,1.44,0,.29,0,.51,0,.73,0,.49.08.93.14,1.36s.09.65.15,1a27.19,27.19,0,0,0,.59,2.74c.13.46.28.93.43,1.4,0,0,0,.06,0,.09.15.43.3.85.46,1.26a.88.88,0,0,1,0,.15c.15.36.3.73.46,1.09.32.74.64,1.4,1,2s.64,1.18,1,1.75l.47.75c.47.75,1,1.52,1.65,2.36.25.32.49.64.75,1s.71.86,1.07,1.26.71.78,1.07,1.16l.83.85c.49.48,1,.95,1.49,1.41.69.63,1.41,1.24,2.13,1.81.33.27.65.52,1,.76q1.74,1.35,3.75,2.61l.28.18c.23.14.46.29.7.42.86.53,1.53.91,2.17,1.25.4.23.76.42,1.11.6l.79.41c.39.19.78.39,1.18.57s.88.42,1.28.6c1.57.71,3.08,1.33,4.59,1.87l1.59.56.93.31.51.17,1.28.38,1.25.35c.93.27,1.82.49,2.72.7l1.85.41.24.05c.53.12,1.14.23,1.74.35.12,0,.23,0,.35.06l.74.12,1,.17c1,.16,2,.3,3.4.45l.75.08,1.86.17c1,.09,2,.15,3.3.21l1,0c1.6.05,3.26.05,4.88,0l1.17,0h.91l1.41-.09,2.57-.22c1.32-.13,2.72-.31,4.28-.55l.61-.1.61-.09.84-.16,2.11-.41c1.44-.32,2.77-.64,4-1l1.46-.4,1.47-.44c.92-.29,1.87-.61,2.8-.94,1.51-.55,3-1.13,4.3-1.72.52-.23,1-.46,1.52-.7l.2-.09.44-.22.19-.08.38-.19.42-.21.58-.3.12-.06.92-.49a53.11,53.11,0,0,0,6.53-4.16c.59-.44,1.18-.89,1.74-1.36l.9-.73c.55-.47,1.1-1,1.61-1.44.28-.26.51-.49.74-.72s.52-.5.75-.75c.49-.51,1-1,1.42-1.54s.76-.9,1-1.26.6-.75.87-1.12.4-.55.56-.79.42-.61.61-.89a6.89,6.89,0,0,0,.44-.68c.23-.36.42-.68.6-1a31.28,31.28,0,0,0,1.72-3.42l.33-.81c.3-.77.56-1.5.78-2.25l.11-.37c.08-.25.12-.4.16-.56l0-.12c.05-.17.09-.34.13-.52s.12-.51.17-.73c.1-.52.19-1,.26-1.44s.12-.83.17-1.23l0-.31v-.19c0-.1,0-.22,0-.34l0-.23c.05-.66.07-1.3.07-1.93,0-7.65-3.23-15.07-9.34-21.48a2.5,2.5,0,1,1,3.62-3.45c7,7.35,10.72,16,10.72,24.93,0,.75,0,1.51-.08,2.25,0,.1,0,.23,0,.37l0,.2c0,.14,0,.25,0,.36l0,.2a.49.49,0,0,1,0,.12c-.05.49-.12,1-.2,1.49s-.18,1.1-.3,1.67c-.05.24-.12.54-.19.83s-.11.46-.18.71-.13.53-.22.81l-.1.33c-.28.94-.59,1.83-.93,2.71-.12.3-.26.63-.39.94a34.12,34.12,0,0,1-2,4c-.2.35-.43.73-.66,1.09a9.51,9.51,0,0,1-.6.92c-.16.25-.37.56-.59.88s-.44.64-.7,1-.61.8-.95,1.23-.74.92-1.23,1.46-1,1.1-1.54,1.67q-.42.45-.87.87c-.24.25-.53.53-.83.81-.54.52-1.16,1.07-1.81,1.61-.31.26-.62.52-.94.77-.58.49-1.25,1-1.91,1.5a56.76,56.76,0,0,1-7.12,4.53c-.32.18-.67.37-1,.55s-.51.27-.77.4l-.36.18c-.19.1-.39.2-.6.29l-.57.28-.15.07c-.54.26-1.12.52-1.69.77-1.43.63-3,1.25-4.6,1.84-1,.37-2.05.71-3,1l-.12,0-1.41.42-1.57.43c-1.33.36-2.73.7-4.28,1l-2.19.43-.49.09-.41.07-.13,0-.59.09-.66.1c-1.63.25-3.11.44-4.53.58-.88.09-1.76.17-2.65.23-.54,0-1,.08-1.54.1h-1l-1.23.05C233.31,293,232.45,293,231.59,293Zm-15.7-1.41Zm0,0Zm75.64-39.81h0Z"/><path d="M244.48,184.58c-14.17,0-25.27-18.18-25.27-41.39a66.72,66.72,0,0,1,.94-11.28c3.06-18,12.83-30.1,24.33-30.1s21.28,12.09,24.34,30.1a66.89,66.89,0,0,1,.94,11.28C269.76,166.4,258.66,184.58,244.48,184.58Zm0-77.77c-8.83,0-16.81,10.66-19.4,25.94a61.11,61.11,0,0,0-.87,10.44c0,19.72,9.28,36.39,20.27,36.39s20.28-16.67,20.28-36.39a61,61,0,0,0-.87-10.43C261.3,117.47,253.31,106.81,244.48,106.81Z"/><path d="M235.78,292.93a2.5,2.5,0,0,1-2.5-2.5V182.33a2.5,2.5,0,0,1,2.5-2.5H253.2a2.5,2.5,0,0,1,2.5,2.5V287.72a2.5,2.5,0,0,1-5,0V184.83H238.28v105.6A2.5,2.5,0,0,1,235.78,292.93Z"/><path d="M199,286.33a2.5,2.5,0,0,1-2.5-2.5V200.54H184.06v71.3a2.5,2.5,0,0,1-5,0V198a2.5,2.5,0,0,1,2.5-2.5H199a2.5,2.5,0,0,1,2.5,2.5v85.79A2.5,2.5,0,0,1,199,286.33Z"/><path d="M208.14,200.54H171.56a8.64,8.64,0,0,1-8.64-8.62V133.08a8.64,8.64,0,0,1,8.64-8.63h36.58a8.65,8.65,0,0,1,8.64,8.63v58.84A8.64,8.64,0,0,1,208.14,200.54Zm-36.58-71.09a3.64,3.64,0,0,0-3.64,3.63v58.84a3.63,3.63,0,0,0,3.64,3.62h36.58a3.63,3.63,0,0,0,3.64-3.62V133.08a3.64,3.64,0,0,0-3.64-3.63Z"/><path d="M201.7,184.3a2.5,2.5,0,0,1-2.5-2.5V141.31a2.5,2.5,0,0,1,5,0V181.8A2.5,2.5,0,0,1,201.7,184.3Z"/><path d="M190.27,184.3a2.5,2.5,0,0,1-2.5-2.5V141.31a2.5,2.5,0,0,1,5,0V181.8A2.5,2.5,0,0,1,190.27,184.3Z"/><path d="M179.05,184.3a2.49,2.49,0,0,1-2.5-2.5V141.31a2.5,2.5,0,0,1,5,0V181.8A2.5,2.5,0,0,1,179.05,184.3Z"/><path d="M259.13,288.38a2.15,2.15,0,0,1-.43,0,2.49,2.49,0,0,1-2-2.88l25.45-148.54a2.5,2.5,0,0,1,2.82-2l3.88.57a2.5,2.5,0,0,1-.73,4.95l-1.45-.22-25,146.13A2.5,2.5,0,0,1,259.13,288.38Z"/><path d="M306.35,319.64a2.5,2.5,0,0,1-2.48-2.2L282.22,138.76a2.49,2.49,0,0,1,2.12-2.77l7.62-1.12a2.51,2.51,0,0,1,2.83,2.06l30.39,177.4a2.5,2.5,0,0,1-4.93.84l-30-175-2.8.41,21.37,176.26a2.5,2.5,0,0,1-2.19,2.78A1.51,1.51,0,0,1,306.35,319.64Z"/><path d="M321.64,363.58a7.13,7.13,0,0,1-4.05-1.57,20.54,20.54,0,0,0-5.61-2.75c-.61-.2-1.15-.35-1.62-.49-1.66-.47-3.22-.92-4.39-2.62a6.14,6.14,0,0,1-.81-4.81,6.37,6.37,0,0,0,.06-2.31c-.24-1.24-.81-1.77-2-2.75a10,10,0,0,1-3.66-5.19,8,8,0,0,1,.26-5.07,20.35,20.35,0,0,0,.93-5.17h0a19.09,19.09,0,0,0-.19-4.3,9.33,9.33,0,0,1,.06-3.93c1.26-5.44,6.88-10.48,12.51-11.24h.24l.08,0,.15,0c5.51-1.34,12.57,1.32,15.73,5.93a9.43,9.43,0,0,1,1.48,3.64,18.72,18.72,0,0,0,1.38,4.07,20.31,20.31,0,0,0,2.74,4.49,8,8,0,0,1,2.08,4.64,9.91,9.91,0,0,1-1.53,6.16c-.73,1.34-1.07,2-.84,3.27a6.1,6.1,0,0,0,.89,2.14,6.15,6.15,0,0,1,1,4.78c-.47,2-1.77,3-3.14,4-.39.3-.83.63-1.33,1a20.67,20.67,0,0,0-4.24,4.59c-1,1.4-2,2.84-4.34,3.25l-.34.06-.36.08A6,6,0,0,1,321.64,363.58Zm.21-5-.13.05a2.5,2.5,0,0,1,.85-.19h.05c.26-.05.32-.06,1.12-1.2a25.72,25.72,0,0,1,5.15-5.58c.55-.45,1.05-.83,1.48-1.16,1-.79,1.25-1,1.3-1.2s0-.28-.46-1.15a11,11,0,0,1-1.47-3.71,9.25,9.25,0,0,1,1.37-6.58,5.07,5.07,0,0,0,.95-3.26c-.08-.8-.25-1-1.05-2.06a24.91,24.91,0,0,1-3.34-5.49,23.09,23.09,0,0,1-1.71-5,4.76,4.76,0,0,0-.74-1.95c-2-2.92-6.87-4.74-10.41-3.89l-.1,0h0l.07,0a2.6,2.6,0,0,1-.87.18h-.11c-3.61.49-7.49,4-8.29,7.41a4.66,4.66,0,0,0,0,2.07,23.08,23.08,0,0,1,.24,5.31h0a24.7,24.7,0,0,1-1.13,6.32c-.37,1.24-.44,1.53-.23,2.29a5.08,5.08,0,0,0,2.07,2.71,9.23,9.23,0,0,1,3.66,5.63,11.34,11.34,0,0,1,0,4c-.15,1-.13,1.08,0,1.24s.39.29,1.65.65c.52.15,1.12.32,1.8.54a25.84,25.84,0,0,1,6.82,3.33c1.16.78,1.22.77,1.49.72Zm.86-.14h0ZM303.26,331h0Zm10.56-14.66Zm1-.18h0Z"/><path d="M319.93,352.47a2.49,2.49,0,0,1-2.45-2.06l-5.35-30.2a2.5,2.5,0,1,1,4.92-.87l5.35,30.2a2.5,2.5,0,0,1-2,2.89A2.12,2.12,0,0,1,319.93,352.47Z"/><path d="M274.38,279.81l-.34,0A2.5,2.5,0,0,1,271.9,277l14.37-105.41a2.5,2.5,0,1,1,5,.68L276.85,277.65A2.5,2.5,0,0,1,274.38,279.81Z"/></svg>