<svg id="Layer_1" data-name="Layer 1" xmlns="http://www.w3.org/2000/svg" viewBox="0 0 500 500"><path d="M328.2,409.66H171.8a2.5,2.5,0,0,1-2.5-2.5V121.63a2.5,2.5,0,0,1,2.5-2.5H328.2a2.5,2.5,0,0,1,2.5,2.5V407.16A2.5,2.5,0,0,1,328.2,409.66Zm-153.9-5H325.7V124.13H174.3Z"/><path d="M250,317.57H171.8a2.5,2.5,0,0,1-2.5-2.5V121.63a2.5,2.5,0,0,1,2.5-2.5H250a2.5,2.5,0,0,1,2.5,2.5V315.07A2.5,2.5,0,0,1,250,317.57Zm-75.7-5h73.2V124.13H174.3Z"/><path d="M220.64,256.52H191.8a2.5,2.5,0,0,1-2.5-2.5v-32.4a2.5,2.5,0,0,1,2.5-2.5h28.84a2.5,2.5,0,0,1,2.5,2.5V254A2.5,2.5,0,0,1,220.64,256.52Zm-26.34-5h23.84v-27.4H194.3Z"/><path d="M220.64,237.61H191.8a2.5,2.5,0,0,1-2.5-2.5V221.62a2.5,2.5,0,0,1,2.5-2.5h28.84a2.5,2.5,0,0,1,2.5,2.5v13.49A2.5,2.5,0,0,1,220.64,237.61Zm-26.34-5h23.84v-8.49H194.3Z"/><path d="M210.06,248.68h-7.69a2.5,2.5,0,0,1-2.5-2.5V235.11a2.5,2.5,0,0,1,2.5-2.5h7.69a2.5,2.5,0,0,1,2.5,2.5v11.07A2.5,2.5,0,0,1,210.06,248.68Zm-5.19-5h2.69v-6.07h-2.69Z"/><path d="M171.8,409.66a2.5,2.5,0,0,1-2.5-2.5V315.07a2.5,2.5,0,0,1,2.5-2.5H328.2a2.5,2.5,0,0,1,0,5H174.3v89.59A2.5,2.5,0,0,1,171.8,409.66Z"/><path d="M260.16,290.14a2.51,2.51,0,0,1-2.45-3c10.2-46.81.16-80.18.06-80.51a2.5,2.5,0,1,1,4.77-1.48c.44,1.4,10.54,35,.06,83.05A2.51,2.51,0,0,1,260.16,290.14Z"/><path d="M252.49,333.41a203.31,203.31,0,0,1-43.22-4.74,2.5,2.5,0,0,1,1.06-4.89,193.92,193.92,0,0,0,58,3.9,122.57,122.57,0,0,0,22.55-3.84,2.5,2.5,0,1,1,1.48,4.78C291.39,328.9,276.42,333.41,252.49,333.41Z"/><path d="M238.87,290.14a2.51,2.51,0,0,1-2.44-2c-10.48-48.08-.38-81.65.06-83.05a2.5,2.5,0,1,1,4.77,1.48,123.21,123.21,0,0,0-3.83,22.55,193.86,193.86,0,0,0,3.89,58,2.51,2.51,0,0,1-2.45,3Z"/><path d="M317.35,264.11a2.5,2.5,0,0,1-2.5-2.5V133.29h-20.8a2.5,2.5,0,0,1,0-5h23.3a2.5,2.5,0,0,1,2.5,2.5V261.61A2.5,2.5,0,0,1,317.35,264.11Z"/></svg>