<svg id="Layer_1" data-name="Layer 1" xmlns="http://www.w3.org/2000/svg" viewBox="0 0 500 500"><path d="M355.7,339.37H144.3a2.5,2.5,0,0,1-2.5-2.5V180.06a2.5,2.5,0,0,1,2.5-2.5H355.7a2.5,2.5,0,0,1,2.5,2.5V336.87A2.5,2.5,0,0,1,355.7,339.37Zm-208.9-5H353.2V182.56H146.8Z"/><path d="M355.7,382.46H144.3a2.5,2.5,0,0,1-2.5-2.5V336.7a2.5,2.5,0,0,1,2.5-2.5H355.7a2.5,2.5,0,0,1,2.5,2.5V380A2.5,2.5,0,0,1,355.7,382.46Zm-208.9-5H353.2V339.2H146.8Z"/><path d="M332.43,322.1H167.57a2.5,2.5,0,0,1-2.5-2.5V217.06a2.5,2.5,0,0,1,2.5-2.5H332.43a2.5,2.5,0,0,1,2.5,2.5V319.6A2.5,2.5,0,0,1,332.43,322.1Zm-162.36-5H329.93V219.56H170.07Z"/><path d="M355.7,183.3H144.3a2.5,2.5,0,0,1-2.5-2.5V146.05a2.5,2.5,0,0,1,2.5-2.5H355.7a2.5,2.5,0,0,1,2.5,2.5V180.8A2.5,2.5,0,0,1,355.7,183.3Zm-208.9-5H353.2V148.55H146.8Z"/><path d="M355.7,149.22H144.3a2.5,2.5,0,0,1-2.5-2.5V120a2.5,2.5,0,0,1,2.5-2.5H355.7a2.5,2.5,0,0,1,2.5,2.5v26.68A2.5,2.5,0,0,1,355.7,149.22Zm-208.9-5H353.2V122.54H146.8Z"/><path d="M326.56,203.18H173.44a2.5,2.5,0,0,1-2.5-2.5V195a2.5,2.5,0,0,1,2.5-2.5H326.56a2.5,2.5,0,0,1,2.5,2.5v5.72A2.5,2.5,0,0,1,326.56,203.18Zm-150.62-5H324.06v-.72H175.94Z"/><path d="M201.56,171.63a199.09,199.09,0,0,1-23.64-1.23c-8.75-1.09-11.85-2.51-11.85-5.4s3.1-4.31,11.85-5.41a201.24,201.24,0,0,1,23.64-1.23,201.12,201.12,0,0,1,23.64,1.23c8.75,1.1,11.85,2.51,11.85,5.41s-3.1,4.31-11.85,5.4A199,199,0,0,1,201.56,171.63ZM175.43,165a174.47,174.47,0,0,0,26.13,1.63A174.37,174.37,0,0,0,227.69,165a172.69,172.69,0,0,0-26.13-1.64A172.8,172.8,0,0,0,175.43,165Zm57.17,1.31h0Z"/><path d="M300.44,171.63a199,199,0,0,1-23.64-1.23c-8.75-1.09-11.85-2.51-11.85-5.4s3.1-4.31,11.85-5.41a227.79,227.79,0,0,1,47.28,0c8.75,1.1,11.85,2.51,11.85,5.41s-3.1,4.31-11.85,5.4A199.09,199.09,0,0,1,300.44,171.63ZM274.31,165a174.37,174.37,0,0,0,26.13,1.63A174.47,174.47,0,0,0,326.57,165a172.8,172.8,0,0,0-26.13-1.64A172.69,172.69,0,0,0,274.31,165Zm57.17,1.31h0Z"/><path d="M174.36,141.41a8.1,8.1,0,1,1,8.09-8.1A8.1,8.1,0,0,1,174.36,141.41Zm0-11.2a3.1,3.1,0,1,0,3.09,3.1A3.1,3.1,0,0,0,174.36,130.21Z"/><path d="M194.68,141.41a8.1,8.1,0,1,1,8.1-8.1A8.1,8.1,0,0,1,194.68,141.41Zm0-11.2a3.1,3.1,0,1,0,3.1,3.1A3.1,3.1,0,0,0,194.68,130.21Z"/><path d="M308.49,141.41a8.1,8.1,0,1,1,8.1-8.1A8.1,8.1,0,0,1,308.49,141.41Zm0-11.2a3.1,3.1,0,1,0,3.1,3.1A3.1,3.1,0,0,0,308.49,130.21Z"/><path d="M328.82,141.41a8.1,8.1,0,1,1,8.1-8.1A8.1,8.1,0,0,1,328.82,141.41Zm0-11.2a3.1,3.1,0,1,0,3.1,3.1A3.1,3.1,0,0,0,328.82,130.21Z"/><path d="M274.88,141.41H225.11a2.5,2.5,0,0,1-2.5-2.5v-11.2a2.5,2.5,0,0,1,2.5-2.5h49.77a2.49,2.49,0,0,1,2.5,2.5v11.2A2.49,2.49,0,0,1,274.88,141.41Zm-47.27-5h44.77v-6.2H227.61Z"/><path d="M254,280a4.81,4.81,0,0,1-3.67-2c-.61-.69-.66-.69-1-.67h-.18c-.37,0-.42,0-1,.67a4.63,4.63,0,0,1-4.42,1.91,6.28,6.28,0,0,1-4.22-2.86c-.52-.7-.63-.78-.81-.81s-.27-.05-1.07.58a7.09,7.09,0,0,1-5,1.86,6.19,6.19,0,0,1-4.48-2.2,3,3,0,0,0-2-1.14,2.92,2.92,0,0,0-2.23.54,6.23,6.23,0,0,1-4.92.84,5.21,5.21,0,0,1-3.58-2.75c-.3-.51-.4-.69-1.33-1a6.67,6.67,0,0,0-2.46-.15,7.5,7.5,0,0,1-4.66-.81,4.34,4.34,0,0,1-2.21-3.46,9.32,9.32,0,0,0-1,.05c-1.26.1-3.15.25-4.59-1.24a3.79,3.79,0,0,1-1.05-2.57,3.28,3.28,0,0,1-3.26-1.31,5.08,5.08,0,0,1-.58-4.38c.94-2.68,3.66-3,6.06-3.3.64-.07,1.34-.16,2.08-.29,3-.53,4-.7,6.07-2,18.07-11.55,33.27-13.28,40.74-13.28a0,0,0,0,1,0,0c13.44,0,26.76,4.34,40.73,13.28,2.05,1.31,3.06,1.48,6,2,.77.13,1.47.22,2.12.29,2.39.29,5.11.62,6.05,3.29a5.13,5.13,0,0,1-.57,4.39,3.31,3.31,0,0,1-3.27,1.31,3.74,3.74,0,0,1-1.05,2.57c-1.43,1.49-3.33,1.34-4.58,1.24a9.5,9.5,0,0,0-1-.05,4.32,4.32,0,0,1-2.2,3.46,7.51,7.51,0,0,1-4.66.81,6.65,6.65,0,0,0-2.46.15c-.94.29-1,.47-1.33,1a5.23,5.23,0,0,1-3.58,2.75,6.3,6.3,0,0,1-4.93-.84,2.92,2.92,0,0,0-2.23-.54,3,3,0,0,0-2,1.14,6.21,6.21,0,0,1-4.48,2.2,7.08,7.08,0,0,1-5-1.86c-.79-.62-.85-.62-1.06-.58s-.26.07-.81.81a6.31,6.31,0,0,1-4.23,2.86A4.81,4.81,0,0,1,254,280Zm-15.49-8.74a6.35,6.35,0,0,1,.95.07,6,6,0,0,1,4,2.77,3.34,3.34,0,0,0,.71.81l.17-.19a6.17,6.17,0,0,1,9.71,0l.18.19a3.58,3.58,0,0,0,.71-.81,5.72,5.72,0,0,1,9-1.18c.77.61,1.05.83,1.68.8.4,0,.48-.07,1.12-.72a7.87,7.87,0,0,1,4.83-2.58,7.79,7.79,0,0,1,5.36,1.11c.8.44.89.47,1.29.37a1.26,1.26,0,0,0,.31-.11,1.87,1.87,0,0,1,.16-.3,6.5,6.5,0,0,1,4.15-3.24,11.12,11.12,0,0,1,4.28-.37,5.23,5.23,0,0,0,1.6,0,4,4,0,0,1,2.36-3.71,7.8,7.8,0,0,1,4-.48h.15a3.71,3.71,0,0,1,1-3l-1.09-.17c-3.24-.57-5-.88-7.9-2.73-13.15-8.41-25.59-12.49-38-12.49h0c-6.92,0-21.05,1.62-38.05,12.49-2.89,1.85-4.66,2.16-7.87,2.72l-1.11.18a3.74,3.74,0,0,1,1,3h.14a7.83,7.83,0,0,1,4,.48,4,4,0,0,1,2.36,3.7,4.89,4.89,0,0,0,1.6,0,11.12,11.12,0,0,1,4.28.37,6.51,6.51,0,0,1,4.14,3.24l.2.33h0l.28.08c.39.1.48.07,1.29-.37A8,8,0,0,1,231.64,273c.65.65.72.7,1.13.72.62,0,.91-.19,1.68-.8A6.23,6.23,0,0,1,238.46,271.29Z"/><path d="M249.21,296.29h-.79a310.81,310.81,0,0,1-41.23-2.86,2.5,2.5,0,0,1-2.09-1.86l-6.38-25a2.5,2.5,0,1,1,4.85-1.23q3,11.7,6,23.4a305.25,305.25,0,0,0,38.91,2.59A309.09,309.09,0,0,0,289,288.7l6-23.54a2.5,2.5,0,1,1,4.84,1.23l-6.42,25.18a2.48,2.48,0,0,1-2.08,1.86A311.94,311.94,0,0,1,249.21,296.29Z"/></svg>