<svg id="Layer_1" data-name="Layer 1" xmlns="http://www.w3.org/2000/svg" viewBox="0 0 500 500"><defs><style>.cls-1{fill:#b97c00;}</style></defs><path class="cls-1" d="M200.49,230.59c-.24-.22-.47-.46-.71-.7l.93.39h0Z"/><path d="M225.21,249.35l-1.14,0h-.17l-.92-.06-.66-.06-1.1-.14h0l-.44-.07-.56-.1-1.16-.23-1-.26-.69-.2c-.2,0-.45-.13-.7-.21l-.11,0-.45-.16a4,4,0,0,1-.45-.16h0l-.05,0-.42-.15-.48-.2c-.14-.06-.32-.13-.5-.22a2.07,2.07,0,0,1-.34-.15c-.72-.32-1.45-.69-2.21-1.12l-.16-.1c-.35-.2-.65-.39-1-.58l-.13-.08c-.38-.25-.77-.5-1.13-.77s-.71-.52-1.07-.81-.74-.59-1.1-.91-.66-.59-1-.92l-.6-.59L155.6,219.33a27.54,27.54,0,0,1-27-27.5c0-.7,0-1.42.08-2.11,0-.36.06-.71.11-1.05s.07-.63.12-1,.09-.56.15-.84.08-.45.13-.68.15-.7.23-1c0-.11.07-.28.12-.46s.13-.48.21-.72v0a2.41,2.41,0,0,1,.08-.25c.1-.33.19-.61.29-.89l.16-.45c0-.15.14-.39.24-.63.22-.57.47-1.15.8-1.82.1-.23.23-.48.36-.73s.32-.61.5-.91.33-.57.52-.87.3-.5.49-.77a26.68,26.68,0,0,1,2.12-2.79l.16-.18c.1-.11.2-.23.31-.34.43-.49.94-1,1.46-1.49.27-.26.57-.53.88-.8l.53-.44c.29-.25.64-.52,1-.79l.14-.1.94-.67.24-.16c.38-.24.74-.48,1.11-.69s.81-.48,1.23-.69.56-.3.85-.43l.83-.38.57-.25c.55-.22,1-.41,1.52-.58.15-.05.36-.13.58-.19l.22-.07.7-.21.69-.19c.33-.09.72-.17,1.11-.26l.14,0c.43-.09.83-.16,1.23-.22s1-.15,1.47-.19l.67-.07H154l.8,0,.39,0c.35,0,.62,0,.9,0H285.07l.36,0h.15l1.09.07.17,0,.9.1.78.11.63.1h.08l.34.07.56.11q.45.09.9.21l.22.06q.28.06.57.15l.66.19h0l.11,0,.74.24c.53.19,1.05.38,1.55.6l.52.22.26.12.59.27h0l.08,0,.42.21.07,0,.11.06.16.08.14.07,57.23,27a2.5,2.5,0,0,1-2.13,4.52L295,172l-.14-.07-.06,0-.11-.06,0,0-.19-.09-.3-.16-.08,0-.53-.23h.05l-.27-.11L293,171c-.43-.19-.84-.34-1.24-.48l-.63-.21-.07,0-.61-.18-.38-.1-.28-.07-.56-.13-.11,0-.39-.08-.14,0-.14,0-.19,0-.36-.06-.12,0a5.17,5.17,0,0,0-.55-.07l-.87-.1-.9-.06h-130l-.4,0-.65,0h-.1l-.51,0h-.11c-.38,0-.75.08-1.11.14l-1,.18-.1,0-1,.23-.53.14-.54.16-.27.09-.4.13c-.45.16-.85.31-1.24.47l-.48.21-.76.35c-.26.12-.44.22-.62.31-.4.21-.73.4-1.06.6s-.6.36-.88.55l-.21.14-.77.54-.08.07c-.3.22-.58.43-.85.66s-.28.23-.4.33l-.73.67c-.45.42-.85.83-1.22,1.24-.11.11-.17.19-.23.26l-.17.19a21.12,21.12,0,0,0-1.73,2.29c-.17.24-.27.42-.38.59s-.31.51-.44.74-.27.49-.39.71l-.28.57c-.29.59-.49,1.06-.66,1.51l0,.1c-.05.12-.09.24-.13.37l-.17.45c-.07.22-.15.44-.22.67l0,.06a2,2,0,0,1-.07.26,4.12,4.12,0,0,0-.13.47l-.06.21c0,.06,0,.12,0,.19a.36.36,0,0,1,0,.1c-.06.23-.12.46-.16.69s-.08.38-.1.52l0,.16c-.05.22-.08.44-.11.65s-.08.55-.11.81-.06.58-.08.84c-.05.57-.07,1.15-.07,1.73a22.53,22.53,0,0,0,22.51,22.5,2.41,2.41,0,0,1,1,.21l50.8,22.07.1,0a2.66,2.66,0,0,1,.76.57c.25.27.52.53.78.79s.54.51.82.75.57.5.85.72l.9.68c.32.23.61.42.89.61l0,0h0c.36.22.65.41,1,.58h0c.66.38,1.28.69,1.9,1l0,0,.14.06.49.21.31.13.1,0,.24.09.13,0,.12.05.07,0,.12,0,.53.18.5.15.53.16.89.22.9.19.72.12H222l.83.11.59.06.77.05h.11l1,0a2.5,2.5,0,0,1,0,5Zm-90.53-64.7h0Zm0,0Zm159-13.32Z"/><path d="M225.21,338.25a2.49,2.49,0,0,1-1-.21l-69-30a2.52,2.52,0,0,1-1-.68,2.45,2.45,0,0,1-.6-1.6h0V219.22a27.55,27.55,0,0,1-25-27.39c0-.7,0-1.42.08-2.11,0-.36.06-.71.11-1.05s.07-.63.12-1,.1-.61.16-.92.08-.44.14-.69.13-.61.21-.93c0-.11.07-.28.12-.46s.13-.48.21-.72v0a2.41,2.41,0,0,1,.08-.25c.1-.33.19-.61.29-.89l.16-.45c0-.15.14-.39.24-.63.22-.57.47-1.15.8-1.82.1-.23.23-.48.36-.73l.47-.86c.17-.3.36-.62.55-.92s.3-.5.49-.77a26.68,26.68,0,0,1,2.12-2.79c.13-.16.3-.34.47-.52s.41-.45.66-.69.49-.51.79-.79.58-.54.89-.81l.53-.45c.29-.24.64-.51,1-.78l.14-.1.94-.67.24-.16c.38-.24.74-.48,1.11-.69s.79-.46,1.2-.67.54-.28.82-.42l.89-.41.57-.25c.55-.22,1-.41,1.52-.58l.58-.19.22-.07.7-.21.69-.19c.41-.1.86-.21,1.31-.3s.77-.15,1.17-.21,1-.15,1.47-.19l.7-.07.91,0,.38,0c.35,0,.62,0,.9,0H285.07l.4,0h.11l1.09.07.17,0,.9.1.78.11.63.1h0l.14,0,.31.05.53.11q.45.09.9.21l.22.06q.28.06.57.15l.66.19h0l.11,0,.74.24c.53.19,1.05.38,1.55.6a7,7,0,0,1,.75.32l.62.29h0l.08,0,.39.2.22.11.15.08.14.07,57.23,27a2.5,2.5,0,0,1-1.07,4.76H225.27c-1.45.09-22,1.7-22.57,22.58-.2,6.55,1.83,11.2,4.75,14.48l.47.21.1,0a2.55,2.55,0,0,1,1.33,1.62c6.46,5.52,15.38,6,16,6.08a2.51,2.51,0,0,1,2.39,2.5v88.9a2.5,2.5,0,0,1-2.5,2.5Zm-66.58-34.16,64.08,27.84V249.14c-5.62-.73-12.94-3.19-18.21-8.56l-45.87-19.93Zm-1.46-89.53L199.52,233a27.63,27.63,0,0,1-1.82-11.19c.78-25.84,27.12-27.41,27.38-27.43H342.27L295,172l-.14-.07-.06,0-.11-.06-.06,0-.18-.09-.3-.16-.08,0-.53-.23-.1-.05a4.84,4.84,0,0,0-.47-.21c-.47-.2-.88-.35-1.28-.49l-.63-.21-.07,0-.61-.18-.38-.1-.28-.07-.56-.13-.11,0-.39-.08-.44-.08h0l-.36-.06-.12,0a5.17,5.17,0,0,0-.55-.07l-.87-.1-.9-.06h-130l-.4,0-.72,0-.54.06h-.11c-.38,0-.75.08-1.11.14l-1,.18c-.36.07-.72.16-1.07.25l-.52.14-.54.16-.27.09-.34.11-.09,0c-.42.14-.82.29-1.21.45l-.48.21-.76.35-.66.33c-.34.18-.68.38-1,.58s-.6.36-.88.55l-.21.14-.77.54-.08.07c-.3.22-.58.43-.85.66s-.28.23-.4.33l-.73.67c-.24.23-.45.43-.65.64s-.4.41-.56.59l-.36.4a21.67,21.67,0,0,0-1.78,2.35c-.17.24-.27.42-.38.59s-.31.51-.44.74l-.39.71-.28.57c-.29.59-.49,1.06-.66,1.51l0,.1c-.05.12-.09.24-.13.37l-.17.45c-.07.22-.15.44-.22.67l0,.06a2,2,0,0,1-.07.26,4.12,4.12,0,0,0-.13.47l-.06.21c0,.06,0,.12,0,.19a.36.36,0,0,1,0,.1c-.06.23-.12.46-.16.69s-.08.41-.12.6-.09.52-.12.73-.08.55-.11.81-.06.58-.08.84c-.05.57-.07,1.15-.07,1.73a22.52,22.52,0,0,0,22.5,22.5h.09A2.5,2.5,0,0,1,157.17,214.56Zm-22.49-29.91h0Zm0,0Z"/><path d="M225.21,308.23a2.49,2.49,0,0,1-2.5-2.5V246.85a2.5,2.5,0,0,1,5,0v58.88A2.5,2.5,0,0,1,225.21,308.23Z"/><path d="M353.41,338.25H225.21a2.49,2.49,0,0,1-2.5-2.5v-30a2.5,2.5,0,0,1,5,0v27.52h123.2v-86.4a2.5,2.5,0,0,1,2.5-2.5,22.51,22.51,0,1,0,0-45H225.21a22.51,22.51,0,0,0-16.56,37.75.8.8,0,0,1,.13.13c.25.27.52.53.78.79s.54.51.82.75.57.5.85.72l.9.68c.32.23.61.42.89.61l0,0h0c.36.22.65.41,1,.58h0l0,0c.64.36,1.27.68,1.88.95l.05,0,.14.06.49.21.31.13.1,0,.24.09.13,0,.12.05.07,0,.12,0,.53.18.5.15.53.16.89.22.9.19.72.12H222l.83.11.59.06.77.05h.11l1,0a2.5,2.5,0,0,1,0,5l-1.14,0h-.17l-.92-.06-.66-.06-1.1-.14h0l-.44-.07-.56-.1-1.16-.23-1-.26-.69-.2c-.2,0-.45-.13-.7-.21l-.11,0-.45-.16a4,4,0,0,1-.45-.16h0l-.05,0-.42-.15-.48-.2c-.14-.06-.32-.13-.5-.22l-.34-.14c-.72-.33-1.47-.71-2.21-1.14l-.16-.09c-.35-.2-.65-.39-1-.58l-.13-.08c-.38-.25-.77-.5-1.13-.77s-.71-.52-1.07-.81-.74-.59-1.1-.91-.66-.59-1-.92-.58-.57-.85-.86l-.12-.12a27.5,27.5,0,0,1,20.11-46.27h128.2a27.51,27.51,0,0,1,2.5,54.9v86.51A2.5,2.5,0,0,1,353.41,338.25Z"/><path d="M206.93,241.41a2.42,2.42,0,0,1-1-.23l-50.76-22.05a2.5,2.5,0,1,1,2-4.59l50.8,22.07.1,0a2.51,2.51,0,0,1-1.09,4.76Z"/><path d="M121.58,178l-.38,0a2.5,2.5,0,0,1-2.09-2.85c1.33-8.56,5.07-15,11.1-19.32,10.43-7.37,24.07-5.44,26.13-5.1H228a2.5,2.5,0,0,1,0,5h-71.9a3.73,3.73,0,0,1-.47,0c-.12,0-13.28-2.36-22.58,4.24-4.88,3.46-7.91,8.83-9,16A2.49,2.49,0,0,1,121.58,178Z"/><path d="M368,349.83H341.59a2.5,2.5,0,0,1,0-5h23.86v-42.1a2.5,2.5,0,0,1,5,0v44.6A2.5,2.5,0,0,1,368,349.83Z"/></svg>