<svg id="Layer_1" data-name="Layer 1" xmlns="http://www.w3.org/2000/svg" viewBox="0 0 500 500"><path d="M326.33,239.07a57.62,57.62,0,0,1-57.56-57.56c0-25.72,16.64-30.16,34.62-31.13,3.74-.21,7.54,1.1,11.22,2.36,3.44,1.17,7,2.38,10.45,2.38,2.59,0,5.29-1.13,8.15-2.34,3.1-1.31,6.3-2.67,9.62-2.57,19.87.54,41.06,3.45,41.06,31.3A57.62,57.62,0,0,1,326.33,239.07Zm-22.15-83.71h-.52c-18.93,1-29.89,5.62-29.89,26.14a52.56,52.56,0,0,0,105.12,0c0-21.29-12.72-25.66-36.2-26.3-2.23-.07-4.81,1-7.53,2.18-3.2,1.34-6.5,2.73-10.1,2.73-4.29,0-8.24-1.35-12.07-2.65C309.83,156.39,306.83,155.36,304.18,155.36Z"/><path d="M202.38,135.08h0c-4.36,0-22.52-14.17-23.66-36.35-.33-6.51,1.32-11.19,4.65-13.17,2.44-1.45,5.4-1.26,8.32.53,7.9,4.84,15.13,21.09,13.48,46.48A2.7,2.7,0,0,1,202.38,135.08Zm-2.23-2.84ZM186.87,89.6a1.92,1.92,0,0,0-1,.26c-1.24.74-2.47,3.39-2.21,8.62.83,16,11.47,26.67,16.62,30.3.32-13.62-2.29-32.94-11.25-38.43A4.45,4.45,0,0,0,186.87,89.6Z"/><path d="M210.38,140.68a2.57,2.57,0,0,1-.51,0,2.63,2.63,0,0,1-2.09-3h0c2.73-17.35,10.18-27.24,16.34-29.35a6.14,6.14,0,0,1,6.4,1.07c1.23,1.17,3,4,1.34,10.2C227.8,134.06,214.36,140.68,210.38,140.68Zm2.34-2.26Zm13.89-25.56a2.74,2.74,0,0,0-.87.17c-3.52,1.19-9.38,7.88-12.3,21.51A26.77,26.77,0,0,0,227,118.21c.92-3.29.43-4.85,0-5.22A.71.71,0,0,0,226.61,112.86Z"/><path d="M325.05,153.86a2.6,2.6,0,0,1-2.44-1.66h0c-6.41-16.36-5-28.66-.73-33.59a6.13,6.13,0,0,1,6.06-2.31c1.66.38,4.68,2,6.31,8.12,4,15.29-5.27,28.3-8.32,29.3A2.74,2.74,0,0,1,325.05,153.86Zm2.21-3.49Zm-.54-29.21c-.32,0-.74.36-1.05.72-2.43,2.81-4.11,11.54.25,24.77a26.72,26.72,0,0,0,3.49-21c-.87-3.3-2.08-4.4-2.6-4.52Z"/><path d="M337.87,148.06a3.05,3.05,0,0,1-.85-.1,2.58,2.58,0,0,1-1.8-3.09h0c3.07-12.83,9.08-18.64,13.29-19.72a5,5,0,0,1,5.09,1.3c.9,1,2.16,3.34.52,7.83C350.66,143.73,341.51,148.06,337.87,148.06Zm12-18.11c-1.36.15-5.61,3.11-8.59,11.81a17.31,17.31,0,0,0,8.11-9.2A5.72,5.72,0,0,0,349.9,130Z"/><path d="M314.58,148.06c-3.65,0-12.8-4.33-16.26-13.78-1.64-4.49-.37-6.83.53-7.83a4.94,4.94,0,0,1,5.08-1.3c4.21,1.08,10.23,6.89,13.29,19.72h0a2.58,2.58,0,0,1-1.8,3.09A3,3,0,0,1,314.58,148.06Zm-12-18.11a5.87,5.87,0,0,0,.48,2.61,17.31,17.31,0,0,0,8.11,9.2C308.16,133.07,303.9,130.1,302.54,130Z"/><path d="M140.52,300.68a28.82,28.82,0,0,1-11-2.45h0l-.38-.15c-7.3-3-11.59-8.12-12.74-15.16-.92-5.65.27-12.55,3.53-20.5l27.34-116.88a22.09,22.09,0,0,1,30-15.38l38.49,15.92a22.75,22.75,0,0,1,10.63,33L163.61,280.25C157.91,293.91,150.3,300.68,140.52,300.68Zm-9.08-7.07c12.7,5.26,21,.64,27.63-15.46a2,2,0,0,1,.18-.36l62.86-101.34a17.75,17.75,0,0,0-8.29-25.75l-38.49-15.92a17.1,17.1,0,0,0-23.18,11.9L124.76,263.75a2.22,2.22,0,0,1-.12.39c-3,7.16-4.07,13.21-3.29,18,.86,5.28,4,9,9.72,11.34Z"/><path d="M226.61,349.87a40.3,40.3,0,1,1,31-66.08,2.5,2.5,0,0,1-3.84,3.2,35.3,35.3,0,1,0-10.56,53.75,2.5,2.5,0,0,1,2.35,4.42A40.43,40.43,0,0,1,226.61,349.87Z"/><path d="M308.27,306.64a2.38,2.38,0,0,1-1-.2,2.5,2.5,0,0,1-1.34-3.27,35.3,35.3,0,0,0-32.55-49,35.41,35.41,0,0,0-32.14,20.68,2.5,2.5,0,1,1-4.55-2.08,40.31,40.31,0,0,1,77,16.7,40,40,0,0,1-3.14,15.6A2.51,2.51,0,0,1,308.27,306.64Z"/><path d="M273.41,359.07a40.32,40.32,0,0,1-37.16-55.9,2.5,2.5,0,1,1,4.61,1.94,35.3,35.3,0,1,0,65.1,0,2.5,2.5,0,1,1,4.61-1.94,40.3,40.3,0,0,1-37.16,55.9Z"/><path d="M255.67,415.41a2.4,2.4,0,0,1-.46-.05l-48.6-9.08a2.49,2.49,0,0,1-1.66-3.77c.17-.27,16.89-27.75,8.82-54.42a15.7,15.7,0,0,1-.46-1.88,2.5,2.5,0,1,1,4.92-.85,13,13,0,0,0,.33,1.3c7.16,23.66-3.22,47-7.6,55.35l42,7.85c-2-44.39,18.41-55.09,19.3-55.53a2.5,2.5,0,0,1,2.23,4.48c-.18.09-19.26,10.48-16.36,53.93a2.52,2.52,0,0,1-.84,2A2.49,2.49,0,0,1,255.67,415.41Z"/></svg>