<svg id="Layer_1" data-name="Layer 1" xmlns="http://www.w3.org/2000/svg" viewBox="0 0 500 500"><path d="M361.09,292.16h-19a2.52,2.52,0,0,1-2.51-2.51,2.58,2.58,0,0,1,.3-1.18c.18-.33.34-.68.49-1l9-27.11a22,22,0,0,0,.65-4.52c0-.41,0-.77,0-1.15-.08-4.14-1.34-7.43-3.75-9.84a.86.86,0,0,1-.13-.14l.08.07a2.45,2.45,0,0,1-.87-1.8v0a2.65,2.65,0,0,1,.07-.69c.53-2,1.87-2.35,2.61-2.35h13a26.15,26.15,0,0,1,0,52.29Zm-15.37-5h15.37a21.15,21.15,0,1,0,0-42.29h-8.52a20.05,20.05,0,0,1,2.48,9.62,13.92,13.92,0,0,1,0,1.58,26.83,26.83,0,0,1-.81,5.55,1.66,1.66,0,0,0-.06.21Zm.54-42.41Z"/><path d="M378.52,270c-5,0-13.17-3.4-19.83-6.63a2.5,2.5,0,0,1-1.3-3c1.37-4.34,8.79-6,14.89-5.09,6.91,1.07,11,5.09,11,10.77a3.74,3.74,0,0,1-1.77,3.26A5.65,5.65,0,0,1,378.52,270Zm-13.92-9.41c5.82,2.55,11.34,4.37,13.63,4.49-.51-2.88-3.31-4.12-5.69-4.66A16.75,16.75,0,0,0,364.6,260.55Z"/><path d="M361.09,292.16h-19a2.52,2.52,0,0,1-2.51-2.51,2.58,2.58,0,0,1,.3-1.18c.18-.33.34-.68.49-1l9-27.11a22,22,0,0,0,.65-4.52c0-.41,0-.77,0-1.15-.08-4.14-1.34-7.43-3.75-9.84a.86.86,0,0,1-.13-.14l.08.07a2.45,2.45,0,0,1-.87-1.8v0a2.65,2.65,0,0,1,.07-.69c.53-2,1.87-2.35,2.61-2.35h13a26.15,26.15,0,0,1,0,52.29Zm-15.37-5h15.37a21.15,21.15,0,1,0,0-42.29h-8.52a20.05,20.05,0,0,1,2.48,9.62,13.92,13.92,0,0,1,0,1.58,26.83,26.83,0,0,1-.81,5.55,1.66,1.66,0,0,0-.06.21Zm.54-42.41Z"/><path d="M378.52,270c-5,0-13.17-3.4-19.83-6.63a2.5,2.5,0,0,1-1.3-3c1.37-4.34,8.79-6,14.89-5.09,6.91,1.07,11,5.09,11,10.77a3.74,3.74,0,0,1-1.77,3.26A5.65,5.65,0,0,1,378.52,270Zm-13.92-9.41c5.82,2.55,11.34,4.37,13.63,4.49-.51-2.88-3.31-4.12-5.69-4.66A16.75,16.75,0,0,0,364.6,260.55Z"/><path d="M157.92,292.16h-19a26.15,26.15,0,1,1,0-52.29h13c.93,0,2.15.43,2.64,2.48a2.49,2.49,0,0,1-.63,2.33l-.13.14a13.67,13.67,0,0,0-3.75,9.77c0,.42,0,.81,0,1.2a21.7,21.7,0,0,0,.65,4.54l9,27.11a10,10,0,0,0,.43.94,2.62,2.62,0,0,1-2.27,3.78Zm-19-47.29a21.15,21.15,0,0,0,0,42.29h15.48l-8.45-25.33a1.21,1.21,0,0,1-.05-.18,26.73,26.73,0,0,1-.82-5.65c0-.48,0-1,0-1.51a20.05,20.05,0,0,1,2.48-9.62Zm15.13-.33Z"/><path d="M121.49,270a5.65,5.65,0,0,1-3-.69A3.74,3.74,0,0,1,116.7,266c0-5.68,4.12-9.7,11-10.77,6.09-.93,13.51.75,14.88,5.09a2.5,2.5,0,0,1-1.3,3C134.65,266.56,126.45,270,121.49,270Zm9.6-10a16.51,16.51,0,0,0-3.62.4c-2.38.54-5.18,1.78-5.69,4.66,2.29-.12,7.81-1.94,13.63-4.49A16.21,16.21,0,0,0,131.09,260Z"/><path d="M325.16,302.63H175a21.44,21.44,0,0,1-19.84-13.35,1.22,1.22,0,0,1-.07-.17l-9.1-27.28a1.21,1.21,0,0,1-.05-.18,26.73,26.73,0,0,1-.82-5.65c0-.48,0-1,0-1.51a18.74,18.74,0,0,1,5.14-13.14A21.33,21.33,0,0,1,166.34,234H333.76a21.33,21.33,0,0,1,16.15,7.37,18.74,18.74,0,0,1,5.14,13.11,14.37,14.37,0,0,1,0,1.61,26.83,26.83,0,0,1-.81,5.55,1.66,1.66,0,0,0-.06.21l-9.1,27.28a1.22,1.22,0,0,1-.07.17A21.44,21.44,0,0,1,325.16,302.63Zm-165.4-15.19A16.46,16.46,0,0,0,175,297.63H325.16a16.46,16.46,0,0,0,15.19-10.19l9-27.11a22,22,0,0,0,.65-4.52c0-.41,0-.77,0-1.15v-.07a13.67,13.67,0,0,0-3.75-9.77l-.13-.14a16.33,16.33,0,0,0-12.42-5.7H166.34a16.33,16.33,0,0,0-12.41,5.7l-.13.14a13.67,13.67,0,0,0-3.75,9.77c0,.42,0,.81,0,1.2a21.7,21.7,0,0,0,.65,4.54Zm192-26.4h0Z"/><path d="M180.62,294a17.24,17.24,0,0,1-15.63-9.3l0-.09-7.19-17.36a2.5,2.5,0,0,1,4.62-1.91l7.16,17.29a12.41,12.41,0,0,0,12,6.34h.13l31,0a2.5,2.5,0,1,1,0,5h0l-30.9,0Z"/><path d="M191.59,215.15A2.56,2.56,0,0,1,190,210.6c1.29-1,2.6-2.27,3.94-3.53,4.21-3.93,9-8.39,14.88-9.28s10,2.43,13.68,5.37c2.23,1.77,4.33,3.44,6.65,4.19,2.67.85,5.16.37,8.64-1.71,1.3-.78,2.58-1.68,3.87-2.58,4.73-3.32,10.11-7.08,16.85-5.18,3.54,1,6.47,3.07,9.3,5.07,4.11,2.9,7.66,5.41,12.26,4.13a41.22,41.22,0,0,0,9-4.2c4.76-2.69,9.82-5.42,16-5.31,5.55.14,9.84,3.42,13.62,6.3,3.08,2.35,6,4.58,9.25,5,2.44.37,4.74-.22,7.41-1.88a2.56,2.56,0,1,1,2.7,4.34A15.53,15.53,0,0,1,327.23,214c-4.58-.66-8.16-3.4-11.63-6s-6.75-5.15-10.64-5.25c-4.86-.2-9,2.19-13.36,4.65A45.55,45.55,0,0,1,281.41,212c-7,1.92-12.07-1.69-16.59-4.88-2.59-1.84-5-3.57-7.73-4.32-4.39-1.26-8.17,1.38-12.52,4.44-1.39,1-2.78,1.94-4.19,2.79-3.19,1.91-7.54,3.89-12.83,2.19-3.21-1-5.78-3.09-8.27-5.07-3.27-2.61-6-4.84-9.72-4.31-4.34.66-8.31,4.37-12.15,8-1.43,1.34-2.83,2.64-4.21,3.76A2.51,2.51,0,0,1,191.59,215.15Z"/></svg>