<svg id="Layer_1" data-name="Layer 1" xmlns="http://www.w3.org/2000/svg" viewBox="0 0 500 500"><path d="M249.77,363.13h-.9c-1.69,0-3.48-.14-5.45-.3l-.45-.05h-.15a126.22,126.22,0,0,1-14.1-2.22c-10.76-2.24-18.76-5.4-25.19-10-3.32-2.36-4.88-5.27-4.2-7.79.43-1.56,1.81-3.49,6-3.86,7.73-.67,26-5.57,33.54-7.65a2.5,2.5,0,0,1,1.34,4.82c-9.5,2.62-26.59,7.13-34.44,7.81a5.13,5.13,0,0,0-1.53.32,6.65,6.65,0,0,0,2.16,2.27c5.85,4.14,13.26,7,23.32,9.14a120.7,120.7,0,0,0,13.56,2.13l.21,0,.29,0c1.91.16,3.59.25,5.19.29h2c1.56,0,3.25-.13,5.11-.29l.54-.05a120.85,120.85,0,0,0,13.57-2.13c10.06-2.1,17.47-5,23.33-9.14a6.41,6.41,0,0,0,2.15-2.27,5.59,5.59,0,0,0-1.54-.32c-8.47-.74-28-6-36.07-8.27a2.5,2.5,0,1,1,1.35-4.81c6.15,1.72,26.88,7.38,35.16,8.1,4.21.37,5.6,2.31,6,3.86.68,2.53-.88,5.44-4.19,7.79-6.44,4.55-14.45,7.71-25.2,10a126.51,126.51,0,0,1-14.12,2.22l-.56.05c-2,.17-3.78.27-5.49.31h-1.34ZM296,344.36h0Z"/><path d="M249.08,339c-3.55,0-6.6-3-8-7.74a19.2,19.2,0,0,1-.73-5.35v-68a2.5,2.5,0,1,1,5,0v68a14.64,14.64,0,0,0,.53,4c.78,2.71,2.18,4.12,3.17,4.12s2.52-1.58,3.27-4.5a15,15,0,0,0,.43-3.59V258.14a2.5,2.5,0,1,1,5,0V325.9a19.52,19.52,0,0,1-.59,4.82C255.91,335.75,252.73,339,249.08,339Z"/><path d="M249.18,259.19c-4.34,0-9.16-1.58-13.88-6.3L151,168.59a2.47,2.47,0,0,1-.56-2.68,2.5,2.5,0,0,1,2.24-1.59l4.84-.16H347.24a2.49,2.49,0,0,1,1.76,4.26l-84.46,84.47C264.41,253,257.76,259.19,249.18,259.19Zm-90.55-90,80.2,80.2c10.68,10.67,21.75.39,22.22-.05l80.15-80.15Z"/><path d="M285.51,179.86a2.52,2.52,0,0,1-1.61-.59,2.49,2.49,0,0,1-.3-3.52l32-38a2.5,2.5,0,0,1,3.82,3.22l-32,38A2.51,2.51,0,0,1,285.51,179.86Z"/><path d="M275.75,211.49a19.82,19.82,0,1,1,19.82-19.82A19.84,19.84,0,0,1,275.75,211.49Zm0-34.64a14.82,14.82,0,1,0,14.82,14.82A14.83,14.83,0,0,0,275.75,176.85Z"/><path d="M225.32,230.54a2.48,2.48,0,0,1-1.76-.73l-42.13-42.13a2.5,2.5,0,0,1,1.77-4.27h65.88a2.5,2.5,0,0,1,0,5H189.23l37.86,37.86a2.5,2.5,0,0,1-1.77,4.27Z"/></svg>