<svg id="Layer_1" data-name="Layer 1" xmlns="http://www.w3.org/2000/svg" viewBox="0 0 500 500"><path d="M85.65,366.62H80.43A19.24,19.24,0,0,1,61.21,347.4a3.42,3.42,0,0,1,0-.45l18.8-102.63a2.5,2.5,0,0,1,2.46-2h19.85a2.5,2.5,0,0,1,2.5,2.5V347.4A19.24,19.24,0,0,1,85.65,366.62Zm-19.44-19a14.24,14.24,0,0,0,14.22,14h5.22A14.24,14.24,0,0,0,99.86,347.4V247.27H84.59Z"/><path d="M102.36,241H80.73a2.5,2.5,0,0,1-2.37-1.71c-3.5-10.55-9.17-31.77-7.86-55.25,1.13-20.49,21.74-51,22.62-52.24a2.52,2.52,0,0,1,2.07-1.09,8.15,8.15,0,0,1,6.08,2.47c4.16,4.28,3.91,13,3.68,20.62,0,1.54-.09,3-.09,4.35v80.35A2.49,2.49,0,0,1,102.36,241Zm-19.81-5H99.86V158.13c0-1.38,0-2.91.09-4.5.18-6,.42-14.22-2.26-17a3,3,0,0,0-1.27-.78c-3.88,5.94-20,31.56-20.93,48.44C74.29,205.75,79.15,225.29,82.55,236Z"/><path d="M76.51,357.54c-.55,0-1.11,0-1.68,0a2.5,2.5,0,1,1,.26-5c5.19.27,9.06-.89,11.49-3.46,3.66-3.87,3.07-9.89,3.06-10a2.62,2.62,0,0,1,0-.28v-80.6a2.5,2.5,0,0,1,5,0v80.48c.1,1.22.52,8.53-4.38,13.75C87.06,355.83,82.45,357.54,76.51,357.54Z"/><path d="M83.64,212.38a2.5,2.5,0,0,1-2.47-2.16c-1-7.35-1.75-18.15.28-27.85a89,89,0,0,1,12.27-29.55,2.5,2.5,0,1,1,4.2,2.71,84.11,84.11,0,0,0-11.58,27.86c-1.88,9-1.16,19.2-.22,26.16A2.49,2.49,0,0,1,84,212.36,2,2,0,0,1,83.64,212.38Z"/><path d="M412.26,366.61H407a19.23,19.23,0,0,1-19.21-19.21,2.09,2.09,0,0,1,0-.25l10.53-102.63a2.5,2.5,0,0,1,2.49-2.24h19.55a2.49,2.49,0,0,1,2.49,2.29l8.57,102.62a1.48,1.48,0,0,1,0,.21A19.23,19.23,0,0,1,412.26,366.61Zm-19.43-19.09A14.22,14.22,0,0,0,407,361.61h5.22a14.23,14.23,0,0,0,14.22-14.11l-8.37-100.22h-15Z"/><path d="M403.13,357.54c-.55,0-1.11,0-1.68,0a2.5,2.5,0,0,1,.25-5c5.2.27,9.07-.89,11.49-3.46,3.67-3.87,3.07-9.89,3.07-10l-6.74-80.67a2.5,2.5,0,1,1,5-.42l6.73,80.61c0,.26.88,8.24-4.37,13.83C413.68,355.83,409.06,357.54,403.13,357.54Z"/><path d="M395.19,241.52a2.5,2.5,0,0,1-2.33-1.61,26.33,26.33,0,0,0-4.79-7.62c-4.21-5.18-8.57-10.54-7.57-28.56,1.11-20,7.66-50.1,7.94-51.37a2.5,2.5,0,0,1,2.44-2,8.15,8.15,0,0,1,6.07,2.45c3.78,3.88,3.92,11.49,3.76,18.32v0c0,.8,0,15,0,26.12.92-11.28,2.52-23.64,3.24-28.95,2.74-20.25,3.34-20.63,4.44-21.31a2.51,2.51,0,0,1,1.33-.38A2.48,2.48,0,0,1,411,147c1.13.69,1.69,1,4.38,20.78.68,5,2.17,16.41,3.13,27.31l-.13-24.72c-.16-8,.42-14.14,3.78-17.57a8.18,8.18,0,0,1,6.07-2.44,2.5,2.5,0,0,1,2.44,2c.28,1.27,6.82,31.37,7.93,51.37,1,18-3.35,23.38-7.57,28.56a27.08,27.08,0,0,0-4.59,7.14l0,0c-.06.14-.11.29-.17.43a2.51,2.51,0,0,1-2.34,1.62H395.19Zm29-3h0Zm-27.31-2h25.44a33,33,0,0,1,4.91-7.39c3.77-4.64,7.34-9,6.45-25.12-.91-16.36-5.71-40.44-7.31-48.13a3,3,0,0,0-.56.46c-2.59,2.63-2.43,10.6-2.36,14l.17,34.13a2.59,2.59,0,0,1-.09.68,4.82,4.82,0,0,1-4.64,3.53,4.76,4.76,0,0,1-4.45-3,4.41,4.41,0,0,1-.36-1.8v-2c-.8-12.21-2.75-27.87-4.34-38.76-1.64,11.25-3.67,27.56-4.41,39.75v1a5.1,5.1,0,0,1-.19,1.34s0,.09,0,.14a4.81,4.81,0,0,1-9.39-1.48c0-22.35,0-29.51,0-31.89a2.64,2.64,0,0,1,0-.29c0-.35,0-.57,0-.72.09-3.93.27-11.95-2.34-14.63a2.8,2.8,0,0,0-.57-.46c-1.6,7.69-6.4,31.77-7.3,48.13-.9,16.09,2.67,20.48,6.45,25.12A33.15,33.15,0,0,1,396.85,236.52Z"/><path d="M244.08,369.31A118.29,118.29,0,1,1,362.37,251,118.42,118.42,0,0,1,244.08,369.31Zm0-231.57A113.29,113.29,0,1,0,357.37,251,113.42,113.42,0,0,0,244.08,137.74Z"/><path d="M324.2,299.32A2.45,2.45,0,0,1,323,299a2.5,2.5,0,0,1-.92-3.41A89.81,89.81,0,0,0,205.67,169.86a2.5,2.5,0,1,1-2.14-4.52A94.82,94.82,0,0,1,326.38,298.07,2.52,2.52,0,0,1,324.2,299.32Z"/><path d="M151.81,253.53a2.49,2.49,0,0,1-2.5-2.5,94.79,94.79,0,0,1,11.53-45.34,2.49,2.49,0,1,1,4.38,2.39A89.93,89.93,0,0,0,154.31,251,2.5,2.5,0,0,1,151.81,253.53Z"/><path d="M244.08,345.8a94.79,94.79,0,0,1-83.62-50.12,2.5,2.5,0,1,1,4.41-2.36,89.84,89.84,0,0,0,126,34.33,2.5,2.5,0,0,1,2.61,4.26A94.55,94.55,0,0,1,244.08,345.8Z"/></svg>