<svg id="Layer_1" data-name="Layer 1" xmlns="http://www.w3.org/2000/svg" viewBox="0 0 500 500"><path d="M235.75,192.29c-1.25,0-2.49,0-3.72,0-3.41,0-6.91-.13-10.39-.28-5.62-.24-11-.63-16.08-1.15-1.84-.18-3.61-.38-5.25-.6-3.07-.39-6-.83-8.77-1.33-23.28-4.18-23.28-10-23.28-11.93,0-4.58,5.55-8,17.46-10.75,1.13-.26,2.33-.52,3.58-.77h0c11.71-2.32,23.93-2.69,36.47-2.89,13.34-.2,25.37-.31,37.47.51,10.6.72,21.77,1.93,31.66,5.88l.12,0c2.67,1.06,8.22,3.27,8.22,8,0,6.08-10.73,10.54-31.9,13.24-3.89.5-8,.91-12.14,1.22l-.55,0c-3.51.26-7.1.46-10.66.59C244,192.22,239.87,192.29,235.75,192.29Zm-45.47-21.92c-1.2.24-2.34.48-3.43.73-11.29,2.61-13.59,5.3-13.59,5.88,0,.75,3.25,4.15,19.16,7,2.66.48,5.53.91,8.52,1.29,1.61.21,3.33.41,5.13.59,5,.51,10.26.89,15.79,1.13,3.42.15,6.86.24,10.23.27,5.31.08,10.6,0,15.71-.2,3.5-.13,7-.32,10.49-.57l.54,0c4.08-.31,8.08-.71,11.88-1.2,22.63-2.89,27.53-7.34,27.53-8.28,0-.6-.88-1.66-5.07-3.33l-.13-.05c-9.24-3.69-20-4.84-30.14-5.53-11.91-.81-23.83-.7-37-.5-12.77.2-24.26.55-35.57,2.8Z"/><path d="M235.75,398.06c-.93,0-1.86,0-2.79,0-2.44,0-5-.14-7.65-.32-4.19-.28-8.2-.73-11.91-1.33-1.26-.19-2.58-.43-3.91-.7-2.35-.47-4.55-1-6.52-1.54-11.38-3.2-17.39-7.8-17.39-13.3a2.5,2.5,0,0,1,5,0c0,2.13,3.6,5.63,13.74,8.48,1.85.52,3.92,1,6.16,1.46,1.26.25,2.5.47,3.69.66,3.59.58,7.44,1,11.48,1.28,2.52.18,5,.28,7.43.31.92,0,1.79,0,2.67,0,3.05,0,6-.08,8.76-.25s5.25-.38,7.62-.65h.1l.1,0,.28,0c2.87-.35,5.77-.8,8.53-1.35,13.59-2.73,19.78-7.06,19.78-9.92a2.5,2.5,0,0,1,5,0c0,8.74-14.91,13-23.8,14.82-2.89.58-5.92,1-9,1.42l-.2,0-.23,0c-2.46.28-5.1.51-7.86.67S238.9,398.06,235.75,398.06Z"/><path d="M235.75,383.54c-.87,0-1.73,0-2.59,0-2.29,0-4.7-.13-7.13-.3-3.89-.26-7.62-.68-11.07-1.24-1.17-.18-2.4-.4-3.64-.65-2.19-.43-4.23-.92-6.07-1.43-10.66-3-16.29-7.33-16.29-12.53a2.5,2.5,0,0,1,5,0c0,2.07,3.91,5.26,12.64,7.71,1.72.48,3.64.94,5.71,1.35,1.17.24,2.32.44,3.42.61,3.33.54,6.9.94,10.65,1.2,2.33.16,4.65.25,6.89.28.86,0,1.65,0,2.48,0,2.83,0,5.57-.08,8.13-.23s4.86-.35,7.07-.61l.47,2.46-.3-2.48.22,0c2.75-.33,5.42-.75,8-1.26,12.53-2.51,18.24-6.45,18.24-9a2.5,2.5,0,0,1,5,0c0,8.25-14,12.28-22.26,13.94-2.68.54-5.5,1-8.39,1.33h-.1l-.36,0c-2.2.26-4.68.48-7.26.63S238.68,383.54,235.75,383.54Z"/><path d="M283.42,383.34h-.21a2.5,2.5,0,0,1-2.28-2.7l17.32-203.09a2.5,2.5,0,0,1,5,.42L285.91,381.05A2.5,2.5,0,0,1,283.42,383.34Z"/><path d="M188.07,383.34a2.49,2.49,0,0,1-2.48-2.29L168.27,178a2.5,2.5,0,0,1,5-.42l17.32,203.09a2.5,2.5,0,0,1-2.28,2.7Z"/><path d="M259.05,369.86h-9.53a2.5,2.5,0,0,1-2.5-2.5V140.43a2.5,2.5,0,0,1,2.5-2.5h.23a2.5,2.5,0,0,1,2.5,2.5,2.45,2.45,0,0,1-.23,1V364.86h4.53V146a2.5,2.5,0,0,1,5,0V367.36A2.5,2.5,0,0,1,259.05,369.86Z"/><path d="M259.05,148.5a2.5,2.5,0,0,1-1.06-4.76l67.93-31.86L324,107.77l-72,33.77a2.44,2.44,0,0,1-1.18,1.15,2.49,2.49,0,0,1-3.32-1.2l-.23-.49a2.49,2.49,0,0,1,1.2-3.32l75.67-35.5a2.48,2.48,0,0,1,1.91-.09,2.54,2.54,0,0,1,1.42,1.29l4.05,8.64a2.5,2.5,0,0,1-1.21,3.32l-70.19,32.92A2.34,2.34,0,0,1,259.05,148.5Z"/><path d="M205.25,247a11.25,11.25,0,1,1,11.24-11.25A11.27,11.27,0,0,1,205.25,247Zm0-17.49a6.25,6.25,0,1,0,6.24,6.24A6.25,6.25,0,0,0,205.25,229.54Z"/><path d="M221.18,257.87a6.64,6.64,0,1,1,6.64-6.64A6.65,6.65,0,0,1,221.18,257.87Zm0-8.28a1.64,1.64,0,1,0,1.64,1.64A1.65,1.65,0,0,0,221.18,249.59Z"/></svg>