<svg id="Layer_1" data-name="Layer 1" xmlns="http://www.w3.org/2000/svg" viewBox="0 0 500 500"><path d="M327.85,270a2.49,2.49,0,0,1-2.3-1.53c-5.37-12.68-20.49-24.74-33.82-35.37-7.49-6-14.56-11.62-19.48-17a28.83,28.83,0,0,1-5.61-9.32,2.5,2.5,0,1,1,4.71-1.66,24.11,24.11,0,0,0,4.58,7.6c4.66,5.07,11.59,10.59,18.92,16.44,13.8,11,29.44,23.48,35.3,37.33a2.5,2.5,0,0,1-1.32,3.28A2.6,2.6,0,0,1,327.85,270Z"/><path d="M294.91,282.65a2.5,2.5,0,0,1-2.32-1.58c-5.12-12.94-20.51-25.22-34.09-36.06-7.5-6-14.57-11.63-19.5-17-6.12-6.66-9.07-17.26-8.76-31.51a2.5,2.5,0,0,1,2.5-2.44h.06a2.49,2.49,0,0,1,2.44,2.55c-.28,12.91,2.22,22.34,7.44,28,4.67,5.08,11.6,10.61,18.94,16.46,14.06,11.23,30,24,35.62,38.13a2.51,2.51,0,0,1-1.41,3.24A2.47,2.47,0,0,1,294.91,282.65Z"/><path d="M253.4,293.13a2.51,2.51,0,0,1-2.11-1.16c-6.79-10.66-19.6-20.87-30.9-29.89-7.49-6-14.56-11.61-19.49-17-11.63-12.66-9.6-37-5.85-55.13a2.5,2.5,0,0,1,4.9,1c-2.88,13.94-6.1,39,4.63,50.74,4.67,5.07,11.59,10.59,18.93,16.44,11.6,9.26,24.76,19.75,32,31.11a2.51,2.51,0,0,1-.76,3.46A2.57,2.57,0,0,1,253.4,293.13Z"/><path d="M213.65,307a2.48,2.48,0,0,1-1.9-.88c-7.07-8.33-16.79-16.08-26.19-23.58-7.49-6-14.57-11.62-19.49-17-16-17.44-5.89-57.15-2.41-68.9a2.5,2.5,0,1,1,4.8,1.42c-2.35,7.91-13.32,48.19,1.29,64.1,4.67,5.07,11.59,10.6,18.93,16.45,9.59,7.65,19.5,15.56,26.88,24.25a2.51,2.51,0,0,1-1.91,4.12Z"/><path d="M161.05,304a2.53,2.53,0,0,1-1.57-.55c-1.42-1.15-2.84-2.28-4.24-3.4-7.41-5.92-14.41-11.51-19.29-16.82-16.82-18.3-4.67-61.58-2.07-70.08l.35-1.11a2.5,2.5,0,0,1,4.76,1.55s-.12.37-.33,1c-1.51,4.9-14.32,48.57,1,65.21,4.62,5,11.48,10.5,18.73,16.29l4.26,3.41a2.5,2.5,0,0,1-1.57,4.45Z"/><path d="M194.09,310.62a90.11,90.11,0,0,1-30.9-5.62c-13.72-5-27.3-13.15-41.51-25-11.28-9.37-24.18-22-23.87-36.37.13-6,3.22-11.89,9.18-17.53,30.83-29.16,79.53-53.43,118.85-41.94,12.16,3.55,24.76,6.76,36.94,9.85,32.06,8.15,62.36,15.85,78.08,28.39,1.2-.24,2.61-.53,4.11-.88,12.42-2.89,29.94-9.06,42.88-22,9.88-9.87,16.85-13.24,20.72-10,8.32,6.94-10.83,36.15-16.89,44.94-1.35,1.95-2.76,3.81-4.2,5.55,1.45,1.75,2.86,3.62,4.2,5.56h0c.23.33,22.7,33.3,18.58,42.89a5.26,5.26,0,0,1-4.15,3.16,8.05,8.05,0,0,1-4.21-.69c-5.54-2.21-9.81-6.2-14-10.44a79.33,79.33,0,0,0-34.49-19.85,21,21,0,0,0-7.2-1c-3.45.31-7.79,3.5-11.62,6.31a56.92,56.92,0,0,1-6.52,4.36c-16.38,8.73-34.5,13-52,17.11q-4.17,1-8.33,2A342.27,342.27,0,0,0,230.06,301c-2.11.77-4.26,1.61-6.34,2.43-8.8,3.43-17.9,7-27.83,7.2C195.29,310.62,194.69,310.62,194.09,310.62Zm10.53-124.35c-12.73,0-26.6,3-41,8.89a179.74,179.74,0,0,0-53.17,34.59c-5,4.69-7.52,9.4-7.62,14-.26,12.26,11.65,23.76,22.07,32.42,13.76,11.45,26.85,19.34,40,24.13a85.25,85.25,0,0,0,30.88,5.29c9-.19,17.72-3.58,26.12-6.86,2.1-.82,4.28-1.67,6.43-2.46a345.8,345.8,0,0,1,38.15-11.74c2.78-.68,5.57-1.33,8.36-2,17.22-4.05,35-8.23,50.83-16.65a55.08,55.08,0,0,0,5.92-4c4.35-3.19,9.29-6.81,14.13-7.25a25.5,25.5,0,0,1,9,1.17A84.46,84.46,0,0,1,391.39,277c4,4,7.7,7.47,12.36,9.34a4,4,0,0,0,1.59.38c.26,0,.28-.07.33-.19,2-4.73-10.89-27.63-18.11-38.07h0a72.8,72.8,0,0,0-5.25-6.75,2.5,2.5,0,0,1,0-3.31,71.83,71.83,0,0,0,5.24-6.73c17.46-25.29,19.16-36.89,17.8-38.26-.59-.27-4.77.5-14,9.71-13.78,13.77-32.23,20.29-45.28,23.33-2.1.49-4,.87-5.46,1.14a2.5,2.5,0,0,1-2.16-.61c-14.59-12.21-44.87-19.91-76.94-28.06-12.22-3.11-24.86-6.32-37.11-9.9A70.52,70.52,0,0,0,204.62,186.27Zm134.1,40.84h0Z"/><path d="M91.74,222.71a2.5,2.5,0,0,1-1.62-4.4A297.41,297.41,0,0,1,150.69,179c18.06-8.82,45.86-17.5,75.76-8.75a2.5,2.5,0,0,1-1.4,4.8c-28.37-8.3-54.9,0-72.17,8.44a292.94,292.94,0,0,0-59.53,38.67A2.47,2.47,0,0,1,91.74,222.71Z"/><path d="M193.75,333.43a91.18,91.18,0,0,1-28.63-4.73,28.66,28.66,0,0,0-3.57-1,2.45,2.45,0,0,1-2.67-2.27,2.54,2.54,0,0,1,2.31-2.71c1.23-.12,2.72.35,5.42,1.2,10.25,3.21,34.26,10.72,68.79-5.37,43.06-20.07,67.11-23.16,68.11-23.28a2.5,2.5,0,1,1,.61,5c-.24,0-24.37,3.16-66.6,22.85C220.5,331,205.69,333.43,193.75,333.43Z"/></svg>