<svg id="Layer_1" data-name="Layer 1" xmlns="http://www.w3.org/2000/svg" viewBox="0 0 500 500"><path d="M371.9,238.5a1.9,1.9,0,0,1-.41,0L126.24,198a2.5,2.5,0,0,1-.1-4.92l174.11-36.19a2.49,2.49,0,0,1,2.34.74l71.14,76.71a2.5,2.5,0,0,1-1.83,4.2ZM140.29,195.21,365.1,232.34,299.89,162Z"/><path d="M371.9,343.21a2.31,2.31,0,0,1-.37,0L126.28,306.65a2.5,2.5,0,0,1-2.13-2.47V195.49a2.5,2.5,0,0,1,2.91-2.47L372.3,233.53a2.5,2.5,0,0,1,2.1,2.47V340.71a2.5,2.5,0,0,1-.87,1.89A2.53,2.53,0,0,1,371.9,343.21ZM129.15,302,369.4,337.81V238.12L129.15,198.44Z"/><path d="M178.36,273.15a19.83,19.83,0,1,1,19.82-19.83A19.85,19.85,0,0,1,178.36,273.15Zm0-34.65a14.83,14.83,0,1,0,14.82,14.82A14.84,14.84,0,0,0,178.36,238.5Z"/><path d="M212.43,295.47a9,9,0,1,1,8.95-9A9,9,0,0,1,212.43,295.47Zm0-12.91a4,4,0,1,0,3.95,4A4,4,0,0,0,212.43,282.56Z"/><path d="M320.2,286.06a13.46,13.46,0,1,1,13.46-13.46A13.47,13.47,0,0,1,320.2,286.06Zm0-21.92a8.46,8.46,0,1,0,8.46,8.46A8.47,8.47,0,0,0,320.2,264.14Z"/><path d="M278.31,188.93c-9.35,0-18.78-2.47-18.78-8s9.43-8,18.78-8,18.79,2.47,18.79,8S287.66,188.93,278.31,188.93Zm-13.67-8c1,1,5.57,3,13.67,3S291,182,292,181c-1-1-5.57-3-13.67-3S265.61,179.93,264.64,181Zm27.49.2h0Z"/><path d="M230,201.52c-6,0-13-1.58-13-6s7-6,13-6,13,1.58,13,6S236,201.52,230,201.52Zm-7-6a24.13,24.13,0,0,0,13.95,0,24.13,24.13,0,0,0-13.95,0Zm15.16.65h0Z"/><path d="M391.46,308a2.5,2.5,0,0,1-2.5-2.5V237l-43.68-48.86a2.5,2.5,0,0,1,3.73-3.33l44.32,49.57A2.5,2.5,0,0,1,394,236v69.54A2.5,2.5,0,0,1,391.46,308Z"/><path d="M108.54,236.12a2.5,2.5,0,0,1-2.5-2.5V190.43a2.48,2.48,0,0,1,1.57-2.32l49.6-19.78a2.5,2.5,0,1,1,1.85,4.64l-48,19.15v41.5A2.5,2.5,0,0,1,108.54,236.12Z"/></svg>