<svg id="Layer_1" data-name="Layer 1" xmlns="http://www.w3.org/2000/svg" viewBox="0 0 500 500"><path d="M308.73,288.93H191.27a2.5,2.5,0,0,1-1.91-.89,2.54,2.54,0,0,1-.55-2l7.34-42a2.5,2.5,0,0,1,2.46-2.07H301.39a2.5,2.5,0,0,1,2.46,2.07l7.34,42a2.54,2.54,0,0,1-.55,2A2.5,2.5,0,0,1,308.73,288.93Zm-114.48-5h111.5l-6.46-37H200.71Z"/><path d="M276.83,389.25H220.42a2.5,2.5,0,0,1-2.47-2.12l-15.59-99.88a2.49,2.49,0,0,1,2.47-2.88h90.34a2.5,2.5,0,0,1,2.46,2.95L279.28,387.2A2.5,2.5,0,0,1,276.83,389.25Zm-54.27-5h52.18l17.43-94.88H207.75Z"/><path d="M249.27,181.38A58.32,58.32,0,0,1,232.41,179a2.5,2.5,0,0,1,1.47-4.78,56.92,56.92,0,0,0,30.78,0,2.5,2.5,0,0,1,1.47,4.78A58.32,58.32,0,0,1,249.27,181.38Z"/><path d="M249.27,219.31c-10.86,0-21.1-1.22-27.39-3.26a2.5,2.5,0,1,1,1.54-4.76c5.82,1.89,15.49,3,25.85,3s20-1.13,25.85-3a2.5,2.5,0,1,1,1.54,4.76C270.37,218.09,260.13,219.31,249.27,219.31Z"/><path d="M198.61,246.94a2.5,2.5,0,0,1-2.38-1.76c-3.47-11.16-1.27-21,6.71-30,1.92-2.17,7.76-8.78,5-12a13.09,13.09,0,0,1-2.71-11.47,9.81,9.81,0,0,1,6.28-6.88c3.48-1.27,7.72-3.71,8.21-8.12a21.76,21.76,0,0,0-.32-5.26c-.4-2.78-.84-5.94.24-9.16,2.18-6.51,7.07-9.22,11.8-11.84a35.79,35.79,0,0,0,6.53-4.25c2.44-2.16,8.93-7.91,7.59-12.55a3,3,0,0,0-.18-.49c-1.19.21-4,2.58-5.06,3.51a24.41,24.41,0,0,1-2.39,1.89c-2.41,1.54-3.93.52-4.47,0-2.64-2.49.85-8.83,1-9.1,2.73-4.89,7.95-7.62,14.28-7.54,7.94.12,15.69,4.46,18.85,10.56,1.79,3.45,1.5,6.9,1.25,10a23.42,23.42,0,0,0-.08,4.79,7,7,0,0,0,3.73,5.58,18.3,18.3,0,0,1,8.84,12.76,28.84,28.84,0,0,1,.39,4.85c0,2.28.09,4.25,1.13,6.12a23.66,23.66,0,0,0,4.21,5c.42.43.85.85,1.26,1.28,4.65,4.81,8.73,10.75,3.77,18.42-.39.6-.85,1.24-1.33,1.9-3.07,4.23-3.47,5.7-2,7.14a9.43,9.43,0,0,0,3.52,1.74A25.35,25.35,0,0,1,295,213c10.67,5.14,9.8,17.43,9.16,26.4-.13,1.81-.25,3.52-.28,5.09a2.5,2.5,0,0,1-5-.12c0-1.68.16-3.45.29-5.32.75-10.47.73-18.14-6.34-21.55a21.25,21.25,0,0,0-2.16-.83,13.84,13.84,0,0,1-5.33-2.85c-5.06-4.83-1-10.37,1.36-13.69.42-.59.83-1.15,1.18-1.69,2.6-4,1.8-7.09-3.16-12.22-.39-.41-.8-.82-1.21-1.22a28.52,28.52,0,0,1-5-6.11c-1.65-3-1.71-5.89-1.76-8.46a25.28,25.28,0,0,0-.3-4,13.12,13.12,0,0,0-6.37-9.32,12,12,0,0,1-6.25-9.31,27.68,27.68,0,0,1,.05-5.84c.23-2.72.43-5.07-.7-7.24-2.28-4.39-8.5-7.77-14.48-7.86-2.4,0-6.6.46-9.19,4,2.36-1.81,5-3.28,7.45-2.54a5.21,5.21,0,0,1,3.44,3.93c2.2,7.68-5.71,14.68-9.09,17.67a39.68,39.68,0,0,1-7.42,4.88c-4.25,2.36-7.92,4.39-9.48,9.06-.7,2.1-.38,4.42,0,6.88a25.76,25.76,0,0,1,.34,6.5c-.6,5.43-4.67,9.79-11.46,12.27a4.81,4.81,0,0,0-3.17,3.46,8.1,8.1,0,0,0,1.7,7c5.55,6.56-2.16,15.29-5.07,18.58-6.92,7.84-8.67,15.62-5.69,25.24a2.5,2.5,0,0,1-1.65,3.13A2.33,2.33,0,0,1,198.61,246.94Z"/><path d="M198.61,246.94a2.5,2.5,0,0,1-2.38-1.76c-3.47-11.16-1.27-21,6.71-30,1.92-2.17,7.76-8.78,5-12a13.09,13.09,0,0,1-2.71-11.47,9.81,9.81,0,0,1,6.28-6.88c3.48-1.27,7.72-3.71,8.21-8.12a21.76,21.76,0,0,0-.32-5.26c-.4-2.78-.84-5.94.24-9.16,2.18-6.51,7.07-9.22,11.8-11.84a35.79,35.79,0,0,0,6.53-4.25c2.44-2.16,8.93-7.91,7.59-12.55a3,3,0,0,0-.18-.49c-1.19.21-4,2.58-5.06,3.51a24.41,24.41,0,0,1-2.39,1.89c-2.41,1.54-3.93.52-4.47,0-2.64-2.49.85-8.83,1-9.1,2.73-4.89,7.95-7.62,14.28-7.54,7.94.12,15.69,4.46,18.85,10.56,1.79,3.45,1.5,6.9,1.25,10a23.42,23.42,0,0,0-.08,4.79,7,7,0,0,0,3.73,5.58,18.3,18.3,0,0,1,8.84,12.76,28.84,28.84,0,0,1,.39,4.85c0,2.28.09,4.25,1.13,6.12a23.66,23.66,0,0,0,4.21,5c.42.43.85.85,1.26,1.28,4.65,4.81,8.73,10.75,3.77,18.42-.39.6-.85,1.24-1.33,1.9-3.07,4.23-3.47,5.7-2,7.14a9.43,9.43,0,0,0,3.52,1.74A25.35,25.35,0,0,1,295,213c10.67,5.14,9.8,17.43,9.16,26.4-.13,1.81-.25,3.52-.28,5.09a2.5,2.5,0,0,1-5-.12c0-1.68.16-3.45.29-5.32.75-10.47.73-18.14-6.34-21.55a21.25,21.25,0,0,0-2.16-.83,13.84,13.84,0,0,1-5.33-2.85c-5.06-4.83-1-10.37,1.36-13.69.42-.59.83-1.15,1.18-1.69,2.6-4,1.8-7.09-3.16-12.22-.39-.41-.8-.82-1.21-1.22a28.52,28.52,0,0,1-5-6.11c-1.65-3-1.71-5.89-1.76-8.46a25.28,25.28,0,0,0-.3-4,13.12,13.12,0,0,0-6.37-9.32,12,12,0,0,1-6.25-9.31,27.68,27.68,0,0,1,.05-5.84c.23-2.72.43-5.07-.7-7.24-2.28-4.39-8.5-7.77-14.48-7.86-2.4,0-6.6.46-9.19,4,2.36-1.81,5-3.28,7.45-2.54a5.21,5.21,0,0,1,3.44,3.93c2.2,7.68-5.71,14.68-9.09,17.67a39.68,39.68,0,0,1-7.42,4.88c-4.25,2.36-7.92,4.39-9.48,9.06-.7,2.1-.38,4.42,0,6.88a25.76,25.76,0,0,1,.34,6.5c-.6,5.43-4.67,9.79-11.46,12.27a4.81,4.81,0,0,0-3.17,3.46,8.1,8.1,0,0,0,1.7,7c5.55,6.56-2.16,15.29-5.07,18.58-6.92,7.84-8.67,15.62-5.69,25.24a2.5,2.5,0,0,1-1.65,3.13A2.33,2.33,0,0,1,198.61,246.94Z"/><path d="M281.42,142.08h-.16a2.5,2.5,0,0,1-2.33-2.66C280,123,265,115.82,264.35,115.53a2.5,2.5,0,0,1,2.08-4.55c.77.35,18.76,8.83,17.49,28.76A2.5,2.5,0,0,1,281.42,142.08Z"/><path d="M196.86,207.83a2.49,2.49,0,0,1-2.17-1.26c-3.21-5.62-4-11.18-2.44-16.52,3-10,13.36-15.4,13.8-15.62a2.5,2.5,0,0,1,2.28,4.44h0c-.09,0-9,4.71-11.3,12.63-1.17,4-.5,8.21,2,12.59a2.5,2.5,0,0,1-.93,3.41A2.53,2.53,0,0,1,196.86,207.83Z"/><rect x="268.31" y="185.64" width="4.47" height="12.46" rx="2.23"/><rect x="239.07" y="191.87" width="4.47" height="12.46" rx="2.23" transform="translate(-61.26 275.09) rotate(-53.66)"/><rect x="255.91" y="149.25" width="4.47" height="12.46" rx="2.23" transform="translate(-39.12 106.02) rotate(-21.61)"/><rect x="233.61" y="158.08" width="4.47" height="12.46" rx="2.23" transform="translate(274.62 -120.5) rotate(62.89)"/><rect x="276.34" y="218.88" width="4.47" height="12.46" rx="2.23" transform="translate(351.99 -125.44) rotate(62.89)"/></svg>