<svg id="Layer_1" data-name="Layer 1" xmlns="http://www.w3.org/2000/svg" viewBox="0 0 500 500"><path d="M216.23,359.56a2.69,2.69,0,0,1-.4,0l-63-10.12a2.51,2.51,0,0,1-2.07-2.87L176.5,186.27a2.5,2.5,0,0,1,2.87-2.07l63,10.12a2.52,2.52,0,0,1,2.08,2.87L218.7,357.46A2.5,2.5,0,0,1,216.23,359.56Zm-60.15-14.69,58.08,9.33,25-155.34L181,189.53Z"/><path d="M284.31,416.6a2.49,2.49,0,0,1-2.44-2l-33.2-158.89a2.51,2.51,0,0,1,1.94-3l62.47-13a2.48,2.48,0,0,1,2.95,1.93l33.2,158.9a2.51,2.51,0,0,1-1.94,3l-62.47,13.05A2.94,2.94,0,0,1,284.31,416.6ZM254.08,257.14l32.17,154,57.57-12-32.17-154Z"/><path d="M228.24,196.85a2.6,2.6,0,0,1-.4,0l-35.44-5.7a2.5,2.5,0,0,1-2.08-2.86l2.47-15.37a2.49,2.49,0,0,1,1-1.63,2.51,2.51,0,0,1,1.86-.45l35.44,5.7a2.49,2.49,0,0,1,2.07,2.86l-2.46,15.38a2.49,2.49,0,0,1-1,1.62A2.43,2.43,0,0,1,228.24,196.85Zm-32.58-10.27,30.5,4.9,1.68-10.43-30.51-4.9Z"/><path d="M220,179.2l-.4,0-13.91-2.24a2.5,2.5,0,0,1-2-3.22l8.07-25.45a2.49,2.49,0,0,1,2.78-1.71l6.16,1a2.5,2.5,0,0,1,2.1,2.5l-.31,26.69a2.48,2.48,0,0,1-.89,1.88A2.44,2.44,0,0,1,220,179.2Zm-10.66-6.74,8.19,1.31.26-21.64-1.91-.3Z"/><path d="M272.11,236.61a2.55,2.55,0,0,1-1.52-.51,2.5,2.5,0,0,1-1-1.84l-1.56-26.65a2.49,2.49,0,0,1,2-2.59l6.12-1.28a2.49,2.49,0,0,1,2.85,1.58l9.24,25a2.49,2.49,0,0,1-1.83,3.32l-13.8,2.88A2.94,2.94,0,0,1,272.11,236.61Zm1.07-27.14,1.26,21.6,8.12-1.69-7.49-20.31Z"/><path d="M264.78,254.85a2.52,2.52,0,0,1-1.37-.41,2.47,2.47,0,0,1-1.07-1.58l-3.19-15.24a2.51,2.51,0,0,1,1.94-3l35.14-7.34a2.51,2.51,0,0,1,3,1.94l3.18,15.24a2.5,2.5,0,0,1-1.94,3l-35.14,7.34A2.76,2.76,0,0,1,264.78,254.85Zm-.22-15.8,2.16,10.34L297,243.07l-2.17-10.34Z"/><path d="M221.12,143.16a1.45,1.45,0,0,1-1.2.76,2.46,2.46,0,0,1-2.44-1.45c-.39-1.06-.91-2.2-1.43-3.36-1.65-3.66-3.51-7.8-2.57-11.32s4.4-4.6,7.45-5.59a13.73,13.73,0,0,0,4.73-2.16c1.31-1.16,1.64-2.69,1.11-5.3-.21-1-.5-2-.79-3-1.07-3.72-2.29-7.95.85-11a18,18,0,0,1,6.07-3.31c3.14-1.23,5.86-2.29,6.18-5.24a22.49,22.49,0,0,0-.54-6.38c-.62-3.53,3.25-3,3.82.17a25.36,25.36,0,0,1,.57,7.17c-.51,4.45-4.42,6-7.88,7.34a15.4,15.4,0,0,0-5.12,2.71c-2.05,2-1.2,4.93-.21,8.35.31,1.1.63,2.19.84,3.24.49,2.41.73,5.46-1.88,7.75a16,16,0,0,1-5.79,2.74c-2.71.89-5,1.62-5.64,3.81-.69,2.58.87,6,2.37,9.37.56,1.24,1.1,2.45,1.52,3.59A1.32,1.32,0,0,1,221.12,143.16Z"/><path d="M255.16,141.7a1.45,1.45,0,0,1,.56-1.3,2.43,2.43,0,0,1,2.83-.2c.93.65,2,1.29,3.09,2,3.43,2.07,7.32,4.41,8.55,7.84s-1,6.28-2.94,8.83a14,14,0,0,0-2.66,4.48c-.42,1.7.19,3.14,2.11,5,.72.69,1.54,1.36,2.35,2,3,2.45,6.41,5.24,5.54,9.5a17.85,17.85,0,0,1-3.1,6.17c-1.88,2.8-3.51,5.22-2.1,7.84a22.73,22.73,0,0,0,4.07,4.93c2.52,2.55-.93,4.35-3.23,2a25.21,25.21,0,0,1-4.55-5.57c-2.11-3.95.23-7.43,2.3-10.52a15.34,15.34,0,0,0,2.66-5.14c.58-2.78-1.81-4.73-4.58-7-.88-.72-1.76-1.44-2.54-2.18-1.77-1.7-3.7-4.07-2.85-7.44a15.92,15.92,0,0,1,3.19-5.55c1.72-2.27,3.21-4.19,2.47-6.34-.9-2.52-4.14-4.47-7.28-6.36-1.17-.7-2.3-1.39-3.3-2.08A1.35,1.35,0,0,1,255.16,141.7Z"/></svg>