<svg id="Layer_1" data-name="Layer 1" xmlns="http://www.w3.org/2000/svg" viewBox="0 0 500 500"><path d="M240.89,379.14a122.72,122.72,0,0,1-12.77-244.77,2.51,2.51,0,0,1,2.74,2.78,28.3,28.3,0,0,0-.2,3.35,29.32,29.32,0,0,0,29.28,29.28,29,29,0,0,0,11.17-2.21,2.52,2.52,0,0,1,2.47.31l2.24,1.69a2.5,2.5,0,0,1,.59,3.35,29.29,29.29,0,0,0,46.6,35.2l5.3-5.74a2.51,2.51,0,0,1,4.33,1.48c.09,1.07.15,2.13.2,3.2a46.78,46.78,0,0,0,.5,5.43,19,19,0,0,0,2.58,6.54,29.74,29.74,0,0,0,9.49,9.77,29.17,29.17,0,0,0,14.06,4.51,2.49,2.49,0,0,1,2.32,2.07,122.76,122.76,0,0,1-120.9,143.76ZM225.67,139.69a117.66,117.66,0,1,0,131.51,98.44,34.27,34.27,0,0,1-25.55-16.54,23.82,23.82,0,0,1-3.22-8.26c-.19-1.09-.31-2.18-.39-3.26l-1.3,1.4a34.29,34.29,0,0,1-56.18-38.36,34.31,34.31,0,0,1-44.88-32.61C225.66,140.23,225.66,140,225.67,139.69Z"/><path d="M201.29,225h-13A8.29,8.29,0,0,1,180,216.7V199a8.29,8.29,0,0,1,8.27-8.28h13a8.29,8.29,0,0,1,8.27,8.28V216.7A8.29,8.29,0,0,1,201.29,225Zm-13-29.27A3.28,3.28,0,0,0,185,199V216.7a3.28,3.28,0,0,0,3.27,3.28h13a3.28,3.28,0,0,0,3.27-3.28V199a3.28,3.28,0,0,0-3.27-3.28Z"/><path d="M175.05,320.36h-.37a8.23,8.23,0,0,1-5.74-2.68l-12.88-14.08a8.26,8.26,0,0,1,.52-11.7L175,275.08a8.28,8.28,0,0,1,11.69.52l12.88,14.08a8.28,8.28,0,0,1-.52,11.69l-18.38,16.82A8.26,8.26,0,0,1,175.05,320.36Zm5.49-42.45a3.25,3.25,0,0,0-2.21.86L160,295.58a3.28,3.28,0,0,0-1.06,2.27,3.21,3.21,0,0,0,.86,2.36l12.88,14.08h0a3.22,3.22,0,0,0,2.27,1.06,3.27,3.27,0,0,0,2.36-.85l18.38-16.82a3.28,3.28,0,0,0,.2-4.63L183,279a3.26,3.26,0,0,0-2.27-1.06Z"/><path d="M288.54,282.15a8.22,8.22,0,0,1-5.6-2.19l-10.38-9.57a8.28,8.28,0,0,1-.48-11.69l6.79-7.37a8.26,8.26,0,0,1,11.69-.47l10.38,9.56a8.29,8.29,0,0,1,.48,11.7h0l-6.79,7.36a8.19,8.19,0,0,1-5.75,2.66ZM285,253.67h-.14a3.26,3.26,0,0,0-2.28,1.05l-6.78,7.36a3.27,3.27,0,0,0,.19,4.64l10.38,9.56a3.21,3.21,0,0,0,2.35.87,3.27,3.27,0,0,0,2.28-1.06l6.78-7.36a3.27,3.27,0,0,0-.19-4.63l-10.38-9.57A3.25,3.25,0,0,0,285,253.67Zm14.62,16.75h0Z"/><path d="M328.7,151.56a8.22,8.22,0,0,1-5.6-2.19l-7.36-6.78a8.28,8.28,0,0,1-.48-11.7l6.78-7.36a8.29,8.29,0,0,1,11.7-.48l7.36,6.79a8.28,8.28,0,0,1,.48,11.69h0l-6.79,7.36a8.22,8.22,0,0,1-5.75,2.67Zm-.57-25.7a3.29,3.29,0,0,0-2.41,1.06l-6.79,7.36a3.28,3.28,0,0,0,.19,4.63l7.37,6.78a3.22,3.22,0,0,0,2.35.87,3.32,3.32,0,0,0,2.28-1.05l6.78-7.37h0a3.27,3.27,0,0,0-.19-4.63l-7.36-6.78A3.28,3.28,0,0,0,328.13,125.86Zm11.61,14h0Z"/><path d="M372.65,191.75a8.23,8.23,0,0,1-5.6-2.2l-1-.89A8.28,8.28,0,0,1,365.6,177l.9-1a8.28,8.28,0,0,1,11.69-.48l1,.89a8.29,8.29,0,0,1,.48,11.7l-.89,1a8.27,8.27,0,0,1-5.75,2.66Zm-.07-13.42h-.13a3.3,3.3,0,0,0-2.28,1l-.89,1a3.27,3.27,0,0,0,.19,4.63l1,.9a3.29,3.29,0,0,0,4.63-.19l.89-1h0a3.29,3.29,0,0,0,.87-2.35,3.25,3.25,0,0,0-1.06-2.28l-1-.89A3.22,3.22,0,0,0,372.58,178.33Z"/></svg>