<svg id="Layer_1" data-name="Layer 1" xmlns="http://www.w3.org/2000/svg" viewBox="0 0 500 500"><path d="M307.87,186.31a2.51,2.51,0,0,1-1.65-.62l-12.87-11.28a2.48,2.48,0,0,1-.36-3.36l53.54-72.51.14-.16a17.13,17.13,0,0,1,24.17-1.59h0l3.43,3a17.12,17.12,0,0,1,1.6,24.17l-.18.18-66.12,61.49A2.52,2.52,0,0,1,307.87,186.31Zm-9.5-14.14,9.45,8.27,64.37-59.86a12.12,12.12,0,0,0-1.21-17l-3.44-3a12.14,12.14,0,0,0-17.05,1Z"/><path d="M307.3,172.3a2.49,2.49,0,0,1-2-4l42.06-56.95c.12-.19,4.25-6.05,11.07-6.71,4.52-.44,9,1.46,13.32,5.65a2.5,2.5,0,1,1-3.49,3.58c-3.19-3.1-6.32-4.53-9.31-4.26-4.5.42-7.5,4.61-7.53,4.66l-42.1,57A2.51,2.51,0,0,1,307.3,172.3Z"/><path d="M253.7,250.39a19,19,0,0,1-8.36-1.8,8.1,8.1,0,0,1-2.06-1.42,7.83,7.83,0,0,1-1.66-1.83,20.36,20.36,0,0,1-3.1-11.38c0-8.44,3.19-15.22,6.74-22a149.26,149.26,0,0,1,12.54-19.91c3.95-5.31,8.48-10.59,14.84-13.3a42,42,0,0,1,7.69-2.21,34.44,34.44,0,0,0,7.33-2.17,2.51,2.51,0,0,1,2.71.38c3,2.63,15.51,13.58,18.51,16.22a2.5,2.5,0,0,1,.73,2.63,34.64,34.64,0,0,0-1.19,7.56,42.24,42.24,0,0,1-1.17,7.91c-1.85,6.68-6.5,11.86-11.25,16.46a148.66,148.66,0,0,1-18.08,15C271.68,245,265.39,249,257,250.16A25,25,0,0,1,253.7,250.39Zm34.56-70.83a45.7,45.7,0,0,1-6.86,1.87,37.63,37.63,0,0,0-6.8,1.93h0c-5.27,2.24-9.26,6.94-12.79,11.69a144.6,144.6,0,0,0-12.12,19.24c-3.37,6.44-6.16,12.36-6.17,19.67a15.61,15.61,0,0,0,2.26,8.6,2.52,2.52,0,0,0,.6.69,2.35,2.35,0,0,1,.37.33,3,3,0,0,0,.8.52,15.74,15.74,0,0,0,8.8,1.11c7.26-1,12.76-4.52,18.69-8.71A144.7,144.7,0,0,0,292.52,222c4.24-4.11,8.38-8.68,9.91-14.21a38.2,38.2,0,0,0,1-7,48.28,48.28,0,0,1,1-7.05Zm-14.64,1.5h0Z"/><path d="M252.45,229a2.54,2.54,0,0,1-.81-.13,2.5,2.5,0,0,1-1.55-3.17c.29-.86,7.28-21,21.09-32.42a32.33,32.33,0,0,1,10.57-6.22,2.5,2.5,0,1,1,1.5,4.77,27.55,27.55,0,0,0-8.88,5.29c-12.71,10.55-19.49,30-19.55,30.19A2.51,2.51,0,0,1,252.45,229Z"/><path d="M253.63,290.8c-44.23,0-95-2.32-101.84-7.39a3.45,3.45,0,0,1-1.55-2.81,3.53,3.53,0,0,1,1.86-3c7.61-4.93,58-7.18,101.53-7.18s93.91,2.25,101.54,7.19a3.52,3.52,0,0,1,1.84,3,3.43,3.43,0,0,1-1.55,2.8C348.59,288.48,297.86,290.8,253.63,290.8Zm-95.42-10.18c11.33,2.67,47.08,5.18,95.42,5.18s84-2.5,95.38-5.18c-11.58-2.7-47.47-5.22-95.38-5.22S169.69,277.93,158.21,280.62Zm194.29,1.2h0Z"/><path d="M253.63,407.46c-31.14,0-66-3.11-85.86-40.24-11.47-21.47-17.53-46.55-17.53-72.53,0-4.55.18-9.09.55-13.5v-.11l.15-1.65a2.52,2.52,0,0,1,1.13-1.84c7.63-4.94,58-7.19,101.55-7.19s93.91,2.25,101.54,7.19a2.52,2.52,0,0,1,1.13,1.84l.15,1.58v.17c.37,4.43.55,9,.55,13.51,0,25.27-5.76,49.78-16.65,70.87C321.33,402.38,287.43,407.46,253.63,407.46ZM155.8,281.31c0,.07,0,.14,0,.21v.1c-.35,4.26-.53,8.66-.53,13.07,0,25.16,5.86,49.43,16.94,70.17,16.66,31.21,44.61,37.6,81.45,37.6,37.24,0,65.48-6.67,82.29-39.2C346.45,342.88,352,319.17,352,294.69c0-4.4-.18-8.8-.53-13.08v-.16s0-.09,0-.14c-7.8-2.93-45.69-5.91-97.82-5.91S163.6,278.38,155.8,281.31Z"/><path d="M297.12,390.09a2.5,2.5,0,0,1-.93-4.82C337.62,368.73,339,303,339,302.33a2.5,2.5,0,1,1,5,.07,150.27,150.27,0,0,1-6,36.77c-7.64,25.8-21.46,43.35-40,50.74A2.52,2.52,0,0,1,297.12,390.09Z"/><path d="M194.71,373.26a2.49,2.49,0,0,1-1.94-.92c-26.2-32-25-73-24.91-74.72a2.5,2.5,0,0,1,2.86-2.38c11.36,1.68,23,3.07,34.7,4.13a2.5,2.5,0,1,1-.45,5c-10.78-1-21.56-2.24-32.11-3.75.23,9.7,2.61,42.7,23.78,68.58a2.49,2.49,0,0,1-1.93,4.08Z"/></svg>