<svg id="Layer_1" data-name="Layer 1" xmlns="http://www.w3.org/2000/svg" viewBox="0 0 500 500"><path d="M427.49,264l-.27,0L305.33,250.62a2.5,2.5,0,0,1-2.23-2.48V215.56a2.5,2.5,0,0,1,2.5-2.5H427.49a22.37,22.37,0,0,1,22.35,22.35v6.2A22.38,22.38,0,0,1,427.49,264ZM308.1,245.89,427.62,259a17.37,17.37,0,0,0,17.22-17.35v-6.2a17.37,17.37,0,0,0-17.35-17.35H308.1Z"/><path d="M187.46,287.18c-5.3,0-10.68-.14-16.11-.44-46.85-2.6-117.13-50.15-120.1-52.17a2.52,2.52,0,0,1-1.09-2.07,15.81,15.81,0,0,1,4.75-11.8c9-8.72,28.47-8.14,45.66-7.63,3.65.11,7.1.21,10.23.21H298.13a2.5,2.5,0,0,1,2.5,2.5V266.2a2.5,2.5,0,0,1-1.72,2.38C277,275.84,235.11,287.18,187.46,287.18Zm-132.24-56c4.32,2.88,20.45,13.39,40.56,24,30.89,16.32,57.12,25.5,75.85,26.54,52.12,2.9,99.42-9.36,124-17.36V218.28H110.8c-3.2,0-6.69-.1-10.38-.21-15.4-.46-34.57-1-42,6.21A10.5,10.5,0,0,0,55.22,231.2Z"/><path d="M436.51,247h-.13a2.49,2.49,0,0,1-2.36-2.62c.32-6.32-1.11-11-4.27-14-4.76-4.5-12.11-3.77-12.19-3.76l-.27,0H321.55a2.5,2.5,0,0,1,0-5h95.62c1.31-.12,9.88-.65,16,5.07,4.29,4,6.26,10.07,5.86,17.94A2.5,2.5,0,0,1,436.51,247Z"/><path d="M192.24,273.51A154.51,154.51,0,0,1,161,270.6c-50.16-10.49-82.81-38.94-84.18-40.14a2.5,2.5,0,1,1,3.31-3.75c.32.28,33.09,28.79,81.9,39,21.45,4.49,45.61,2.78,62.1.56a2.5,2.5,0,0,1,.67,4.95A247,247,0,0,1,192.24,273.51Z"/></svg>