<svg id="Layer_1" data-name="Layer 1" xmlns="http://www.w3.org/2000/svg" viewBox="0 0 500 500"><path d="M252.9,287.88c-1,0-2,0-2.94-.05a91.69,91.69,0,0,1-59.32-20c-6.31-3.88-15.27-15.64-15.65-16.14-4.6-6.17-19-27.86-11.35-48.42.6-1.62,1.24-3.27,1.91-4.91a198.82,198.82,0,0,1,23.22-42.2,8,8,0,0,1,7.21-3.75c17.81-.66,90.5-.66,108,0a9.25,9.25,0,0,1,4.6,1.15,8.75,8.75,0,0,1,2.66,2.67,200.85,200.85,0,0,1,13.25,21c1.37,2.5,2.72,5.11,4.12,8a.54.54,0,0,1,.05.11l7.63,17.79s0,.07,0,.11c7.62,20.56-6.73,42.24-11.32,48.4h0C308.46,274,280.82,287.88,252.9,287.88ZM250,282.83H250c1,0,1.91.05,2.87.05,26.37,0,52.47-13.09,68.12-34.15h0c4.2-5.64,17.36-25.44,10.66-43.63l-7.57-17.66c-1.36-2.77-2.66-5.3-4-7.72a196.23,196.23,0,0,0-12.94-20.57,4.19,4.19,0,0,0-1.17-1.27,4.7,4.7,0,0,0-2.17-.43c-17.49-.66-89.92-.66-107.67,0a4.65,4.65,0,0,0-2.15.41,4.43,4.43,0,0,0-1.19,1.25,196.82,196.82,0,0,0-13,20.61,191.17,191.17,0,0,0-9.68,20.55c-.65,1.6-1.28,3.21-1.86,4.78-6.73,18.2,6.45,38,10.65,43.68,2.45,3.22,9.82,12.21,14.38,14.94a2.83,2.83,0,0,1,.28.2c15.93,12.75,36.43,19.67,56.23,19Z"/><path d="M249.73,348h-1c-2,0-4.08-.16-6.39-.35l-.53-.05-.18,0A147.42,147.42,0,0,1,225,345c-12.61-2.62-22-6.32-29.52-11.65-3.74-2.66-5.52-5.91-4.77-8.69.47-1.7,2-3.81,6.71-4.22,9.14-.8,30.73-6.58,39.59-9a2.5,2.5,0,1,1,1.34,4.81c-11.18,3.09-31.29,8.39-40.5,9.2a4.77,4.77,0,0,0-2.3.59c.07.44.78,1.81,2.82,3.26,7,4.92,15.73,8.36,27.65,10.84a143.86,143.86,0,0,0,16,2.52l.24,0,.37,0c2.24.19,4.24.3,6.13.34.68,0,1.33,0,2,0h.43c1.86,0,3.85-.15,6.06-.33l.64-.07a144.37,144.37,0,0,0,16-2.52c11.91-2.48,20.7-5.92,27.65-10.84,2-1.45,2.75-2.81,2.82-3.25a4.6,4.6,0,0,0-2.31-.6c-9.93-.87-33-7.09-42.42-9.73a2.5,2.5,0,0,1,1.35-4.82c7.26,2,31.72,8.71,41.5,9.57,4.72.41,6.26,2.52,6.72,4.22.75,2.78-1,6-4.76,8.69-7.54,5.33-16.92,9-29.53,11.65a147,147,0,0,1-16.58,2.61l-.66.06c-2.34.2-4.44.32-6.44.36h-1.57Zm54.76-22h0Z"/><path d="M248.92,323.3a14.89,14.89,0,0,1-13.46-8.38,15.14,15.14,0,0,1-1.53-6.6V284.68a2.5,2.5,0,0,1,5,0v23.64a10,10,0,1,0,20,0V285a2.5,2.5,0,1,1,5,0v23.37a15,15,0,0,1-15,15Z"/><path d="M252.53,279.68c-.85,0-1.71,0-2.57-.05a80.44,80.44,0,0,1-52.06-17.51c-5.57-3.43-13.43-13.75-13.76-14.19-2.81-3.77-9.52-13.77-11.4-25.49a2.5,2.5,0,0,1,4.94-.79c1.7,10.62,7.88,19.82,10.45,23.28,2.13,2.8,8.55,10.63,12.49,13a2.83,2.83,0,0,1,.28.2,75.37,75.37,0,0,0,49,16.51H250c.83,0,1.67.05,2.49.05a75.27,75.27,0,0,0,50.12-19.57A2.5,2.5,0,1,1,306,258.8,80.38,80.38,0,0,1,252.53,279.68Z"/><path d="M322.47,233.2a2.65,2.65,0,0,1-.87-.15,2.51,2.51,0,0,1-1.47-3.22c3-8,3.43-15.3,1.4-21.7H189.81a2.5,2.5,0,0,1,0-5H323.27a2.5,2.5,0,0,1,2.3,1.52l.22.52s0,.08,0,.11c2.9,7.82,2.55,16.66-1,26.29A2.49,2.49,0,0,1,322.47,233.2Z"/><path d="M213,191.2A11.25,11.25,0,1,1,224.28,180,11.25,11.25,0,0,1,213,191.2Zm0-17.49a6.25,6.25,0,1,0,6.25,6.25A6.25,6.25,0,0,0,213,173.71Z"/><path d="M290.66,227.67a5.63,5.63,0,1,1,5.63-5.63A5.64,5.64,0,0,1,290.66,227.67Zm0-6.25a.63.63,0,1,0,0,1.25.63.63,0,1,0,0-1.25Z"/></svg>