<svg id="Layer_1" data-name="Layer 1" xmlns="http://www.w3.org/2000/svg" viewBox="0 0 500 500"><path d="M421.32,305.09H392.73a9.33,9.33,0,0,1-9.32-9.32v-3.15l-3.22-7.51a2.57,2.57,0,0,1-.2-1,4.31,4.31,0,0,0-8.62,0,2.57,2.57,0,0,1-.2,1L368,292.63v3.14a9.33,9.33,0,0,1-9.32,9.32H330a9.32,9.32,0,0,1-9.3-9.32v-3.13l-3.22-7.53a2.4,2.4,0,0,1-.2-1,4.32,4.32,0,0,0-8.64,0,2.57,2.57,0,0,1-.2,1l-3.22,7.51v3.15a9.32,9.32,0,0,1-9.3,9.32H267.37a9.33,9.33,0,0,1-9.32-9.32v-3.15l-3.22-7.51a2.57,2.57,0,0,1-.2-1,4.31,4.31,0,0,0-8.62,0,2.57,2.57,0,0,1-.2,1l-3.22,7.52v3.14a9.33,9.33,0,0,1-9.32,9.32H204.68a9.33,9.33,0,0,1-9.32-9.32v-3.14l-3.21-7.52a2.41,2.41,0,0,1-.21-1,4.3,4.3,0,0,0-4.3-4.3,4.32,4.32,0,0,0-4.32,4.3,2.57,2.57,0,0,1-.2,1l-3.22,7.53v3.13a9.32,9.32,0,0,1-9.3,9.32H142a9.32,9.32,0,0,1-9.31-9.32v-3.15l-3.22-7.51a2.57,2.57,0,0,1-.2-1,4.31,4.31,0,0,0-8.62,0,2.57,2.57,0,0,1-.2,1l-3.22,7.51v3.15a9.33,9.33,0,0,1-9.32,9.32H79.32A9.33,9.33,0,0,1,70,295.77v-2.3a2.58,2.58,0,0,1-.39-1.2L66.35,240.9A2.52,2.52,0,0,1,67,239a2.47,2.47,0,0,1,1.82-.79h61.53a2.5,2.5,0,0,1,0,5H71.51l3,47.39a2.55,2.55,0,0,1,.48,1.49v3.65a4.32,4.32,0,0,0,4.32,4.32h28.59a4.32,4.32,0,0,0,4.32-4.32v-3.65a2.46,2.46,0,0,1,.18-.94.49.49,0,0,0,0-.11l3.21-7.5a9.31,9.31,0,0,1,18.59,0l3.2,7.47s0,.07.05.1a3.28,3.28,0,0,1,.19,1v3.65a4.31,4.31,0,0,0,4.31,4.32h28.6a4.31,4.31,0,0,0,4.3-4.32v-3.65a2.56,2.56,0,0,1,.23-1.06l.07-.14,3.14-7.34a9.31,9.31,0,0,1,18.59,0l3.22,7.54a2.47,2.47,0,0,1,.21,1v3.65a4.32,4.32,0,0,0,4.32,4.32h28.59a4.32,4.32,0,0,0,4.32-4.32v-3.65a2.57,2.57,0,0,1,.2-1l3.23-7.56a9.31,9.31,0,0,1,15.87-6,9.2,9.2,0,0,1,2.72,6l3.25,7.59a2.42,2.42,0,0,1,.19,1v3.65a4.32,4.32,0,0,0,4.32,4.32H296a4.31,4.31,0,0,0,4.3-4.32v-3.65a2.61,2.61,0,0,1,.19-1l.14-.33,3.11-7.26a9.32,9.32,0,0,1,18.6,0l3.23,7.53a2.68,2.68,0,0,1,.21,1v3.65a4.31,4.31,0,0,0,4.3,4.32h28.59a4.32,4.32,0,0,0,4.32-4.32v-3.65a2.62,2.62,0,0,1,.2-1l3.23-7.55a9.32,9.32,0,0,1,18.6,0l3.23,7.57a2.53,2.53,0,0,1,.2,1v3.65a4.32,4.32,0,0,0,4.32,4.32h28.59a4.32,4.32,0,0,0,4.32-4.32v-4.32l3-48.21H184.94a2.5,2.5,0,0,1,0-5h246.3a2.56,2.56,0,0,1,2.56,2.65l-3.16,50.79v4.09A9.33,9.33,0,0,1,421.32,305.09Z"/><path d="M429.1,314.28a2.5,2.5,0,0,1,0-5,5.16,5.16,0,0,0,5.15-5.16v-4.68c0-.05,0-.11,0-.16l2.31-37.12a2.5,2.5,0,1,1,5,.31l-2.31,37v4.6A10.17,10.17,0,0,1,429.1,314.28Z"/><path d="M123.47,243.24H68.91a2.5,2.5,0,0,1-2.49-2.36c0-.86-.08-1.75-.08-2.64,0-22.36,13.39-40.55,29.85-40.55S126,215.88,126,238.24c0,.88,0,1.77-.07,2.64A2.51,2.51,0,0,1,123.47,243.24Zm-52.13-5H121c0-19.6-11.15-35.55-24.85-35.55S71.35,218.64,71.34,238.24Z"/><path d="M60.94,224A2.51,2.51,0,0,1,58.49,221c4.72-21.09,18.77-35.26,35-35.26a29.63,29.63,0,0,1,18.72,7,2.5,2.5,0,0,1-3.15,3.88,24.69,24.69,0,0,0-15.57-5.87c-13.81,0-25.91,12.6-30.1,31.35A2.49,2.49,0,0,1,60.94,224Z"/><path d="M184.94,243.24H130.37a2.51,2.51,0,0,1-2.5-2.36c-.05-.87-.07-1.75-.07-2.64,0-22.36,13.39-40.55,29.85-40.55s29.86,18.19,29.86,40.55c0,.89,0,1.78-.08,2.64A2.5,2.5,0,0,1,184.94,243.24Zm-52.14-5h49.71c0-19.6-11.16-35.55-24.86-35.55S132.8,218.64,132.8,238.24Z"/><path d="M247.2,243.24H192.63a2.49,2.49,0,0,1-2.49-2.36c0-.87-.08-1.76-.08-2.64,0-22.36,13.39-40.55,29.85-40.55s29.86,18.19,29.86,40.55c0,.88,0,1.77-.07,2.64A2.51,2.51,0,0,1,247.2,243.24Zm-52.14-5h49.71c0-19.6-11.15-35.55-24.86-35.55S195.06,218.64,195.06,238.24Z"/><path d="M308.66,243.24H254.09a2.51,2.51,0,0,1-2.5-2.36c-.05-.86-.07-1.75-.07-2.64,0-22.36,13.39-40.55,29.86-40.55s29.84,18.19,29.84,40.55c0,.89,0,1.78-.07,2.64A2.5,2.5,0,0,1,308.66,243.24Zm-52.14-5h49.7c0-19.6-11.14-35.55-24.84-35.55S256.52,218.64,256.52,238.24Z"/><path d="M304.53,204.18a2.51,2.51,0,0,1-2-1c-5.69-8-13.19-12.36-21.11-12.36a23.48,23.48,0,0,0-14.56,5.37,2.5,2.5,0,0,1-3.1-3.92,28.38,28.38,0,0,1,17.66-6.45c9.58,0,18.53,5.13,25.18,14.45a2.49,2.49,0,0,1-2,4Z"/><path d="M369.86,243.24H315.3a2.5,2.5,0,0,1-2.49-2.36c-.05-.87-.08-1.76-.08-2.64,0-22.36,13.39-40.55,29.85-40.55s29.85,18.19,29.85,40.55c0,.89,0,1.77-.07,2.64A2.51,2.51,0,0,1,369.86,243.24Zm-52.13-5h49.7c0-19.6-11.15-35.55-24.85-35.55S317.74,218.64,317.73,238.24Z"/><path d="M431.24,243.24H376.68a2.51,2.51,0,0,1-2.5-2.36c-.05-.87-.07-1.75-.07-2.64,0-22.36,13.39-40.55,29.85-40.55s29.84,18.19,29.84,40.55c0,.88,0,1.77-.07,2.64A2.5,2.5,0,0,1,431.24,243.24Zm-52.13-5H428.8c0-19.6-11.14-35.55-24.84-35.55S379.11,218.64,379.11,238.24Z"/></svg>