<svg id="Layer_1" data-name="Layer 1" xmlns="http://www.w3.org/2000/svg" viewBox="0 0 500 500"><path d="M266.33,387.51c-1.28,0-2.56,0-3.83,0-3.44,0-7-.13-10.64-.29-5.8-.26-11.35-.68-16.48-1.23-1.75-.18-3.57-.39-5.4-.64-3.24-.43-6.27-.9-9-1.41-16-3-23.81-7.09-23.81-12.56V162.56a2.5,2.5,0,0,1,5,0c0,1,3.62,4.64,19.72,7.64,2.63.49,5.57,1,8.74,1.37,1.78.24,3.54.45,5.25.62,5,.55,10.48.95,16.18,1.21,3.56.16,7.08.26,10.49.28,1.28,0,2.52,0,3.76,0,4.3,0,8.46-.08,12.35-.23s7.41-.36,10.76-.61l.61-.05c4.13-.32,8.23-.75,12.12-1.27,23.49-3.12,28.29-7.89,28.29-9a2.5,2.5,0,0,1,5,0V371.35c0,6.38-11,11.07-32.63,13.95-4,.53-8.17,1-12.46,1.31l-.61,0c-3.35.26-7,.47-10.88.62S270.69,387.51,266.33,387.51ZM202.19,169.27V371.35c0,1,3.62,4.64,19.72,7.65,2.63.49,5.57.95,8.74,1.37,1.78.24,3.54.45,5.25.62,5,.54,10.48.95,16.18,1.2,3.56.17,7.08.26,10.49.29,1.28,0,2.52,0,3.76,0,4.3,0,8.46-.08,12.35-.23s7.41-.36,10.76-.62l.61,0c4.13-.33,8.23-.76,12.12-1.27,23.49-3.13,28.29-7.89,28.29-9V169.25c-5.19,3.07-14.43,5.5-27.63,7.26-4,.53-8.17,1-12.46,1.3l-.61,0c-3.35.26-7,.47-10.88.63s-8.19.23-12.55.23c-1.28,0-2.56,0-3.83,0-3.44,0-7-.12-10.64-.29-5.8-.26-11.35-.67-16.48-1.22-1.75-.18-3.57-.4-5.4-.64-3.24-.43-6.27-.91-9-1.41C212.36,173.51,206.11,171.57,202.19,169.27Z"/><path d="M199.69,333.15H185.12a20.6,20.6,0,0,1-20.58-20.58V233.33a20.6,20.6,0,0,1,20.58-20.58h14.57a2.5,2.5,0,0,1,0,5H185.12a15.6,15.6,0,0,0-15.58,15.58v79.24a15.6,15.6,0,0,0,15.58,15.58h14.57a2.5,2.5,0,0,1,0,5Z"/><path d="M199.69,316.1h-8.33a10.47,10.47,0,0,1-10.45-10.46V240.27a10.47,10.47,0,0,1,10.45-10.46h8.33a2.5,2.5,0,0,1,0,5h-8.33a5.46,5.46,0,0,0-5.45,5.46v65.37a5.46,5.46,0,0,0,5.45,5.46h8.33a2.5,2.5,0,0,1,0,5Z"/><path d="M303.11,223.64a13.16,13.16,0,1,1,13.16-13.16A13.17,13.17,0,0,1,303.11,223.64Zm0-21.31a8.16,8.16,0,1,0,8.16,8.15A8.16,8.16,0,0,0,303.11,202.33Z"/><path d="M296.27,243.91a6.31,6.31,0,1,1,6.31-6.31A6.32,6.32,0,0,1,296.27,243.91Zm0-7.62a1.31,1.31,0,1,0,1.31,1.31A1.31,1.31,0,0,0,296.27,236.29Z"/><path d="M243.92,318.65a6.31,6.31,0,1,1,6.31-6.31A6.32,6.32,0,0,1,243.92,318.65Zm0-7.62a1.31,1.31,0,1,0,1.31,1.31A1.31,1.31,0,0,0,243.92,311Z"/><path d="M228.55,314.84a9.56,9.56,0,1,1,9.56-9.56A9.57,9.57,0,0,1,228.55,314.84Zm0-14.12a4.56,4.56,0,1,0,4.56,4.56A4.57,4.57,0,0,0,228.55,300.72Z"/><path d="M205.77,158.17a2.34,2.34,0,0,1-.74-.12,2.49,2.49,0,0,1-1.65-3.12c2.13-7,10.22-19.41,25.6-16.75a2.5,2.5,0,0,1-.86,4.93c-14.83-2.57-19.76,12.65-20,13.3A2.5,2.5,0,0,1,205.77,158.17Z"/><path d="M254.86,159.29a9.89,9.89,0,0,1-5-1.39,2.5,2.5,0,0,1,2.54-4.31,5,5,0,0,0,4.67.24,10.09,10.09,0,0,0,5.54-6.37,12.37,12.37,0,0,0-4.67-12.78A24.65,24.65,0,0,0,238,130.4a21.62,21.62,0,0,0-14.32,11.09,2.5,2.5,0,1,1-4.41-2.36,26.56,26.56,0,0,1,17.6-13.6,29.65,29.65,0,0,1,23.95,5.09,17.54,17.54,0,0,1,6.57,18.13,15.19,15.19,0,0,1-8.48,9.71A10.77,10.77,0,0,1,254.86,159.29Z"/><path d="M324.5,159a2.79,2.79,0,0,1-.63-.08,2.51,2.51,0,0,1-1.79-3h0c0-.08,1.92-7.81-2.05-13.35-2.5-3.48-6.87-5.49-13-6C287,135,284.74,151,284.65,151.69a2.5,2.5,0,0,1-5-.62c0-.22,3-21.43,27.72-19.48,7.7.6,13.32,3.32,16.71,8.07,5.32,7.47,2.91,17.07,2.8,17.48A2.51,2.51,0,0,1,324.5,159Z"/><path d="M307.21,136.58H307a2.49,2.49,0,0,1-2.32-2.66c.68-9.86-15.41-15.57-23.77-16.31-10.63-.94-19.72,4.55-22.63,13.67a2.5,2.5,0,0,1-4.76-1.52c3.63-11.4,14.82-18.28,27.83-17.13,11.95,1.06,29.22,8.66,28.32,21.63A2.51,2.51,0,0,1,307.21,136.58Z"/></svg>