<svg id="Layer_1" data-name="Layer 1" xmlns="http://www.w3.org/2000/svg" viewBox="0 0 500 500"><path d="M114.26,339C111,339,82,338.7,82,329.4s29-9.55,32.29-9.55,32.3.26,32.3,9.55S117.57,339,114.26,339ZM87.14,329.4C89,331.18,98.76,334,114.26,334s25.29-2.79,27.13-4.57c-1.84-1.77-11.63-4.55-27.13-4.55S89,327.63,87.14,329.4Zm54.48.29h0Z"/><path d="M75.65,327.79a2.5,2.5,0,0,1-.94-4.82c8.39-3.41,23.18-5.44,39.55-5.44,5.41,0,10.69.23,15.72.67a2.5,2.5,0,0,1-.44,5c-4.88-.43-10-.65-15.28-.65-15.53,0-30,1.94-37.67,5.07A2.43,2.43,0,0,1,75.65,327.79Z"/><path d="M114.26,343.72c-13.55,0-26.35-1.43-35.1-3.92-1.35-.39-2.48-.76-3.48-1.14-5.81-2.15-8.63-4.78-8.63-8,0-2.43,1.64-4.56,4.87-6.35a2.5,2.5,0,0,1,2.43,4.37c-1.91,1.06-2.3,1.83-2.3,2s1,1.71,5.37,3.35c.89.33,1.91.66,3.12,1,8.32,2.37,20.61,3.73,33.72,3.73,4.59,0,9.12-.16,13.49-.49l2.43-.2,2.11-.21c1.13-.12,2.26-.26,3.35-.4l.1,0h0l1.56-.22.72-.1,3.79-.65,1.83-.37a61.07,61.07,0,0,0,6-1.56c5.65-1.83,6.87-3.55,6.87-3.87,0-.06-.08-.28-.42-.64a2.5,2.5,0,0,1,3.59-3.47,5.85,5.85,0,0,1,1.83,4.11c0,3.55-3.38,6.37-10.33,8.63-2,.62-4.13,1.19-6.47,1.69-.63.14-1.26.27-1.91.38l-.62.13-1.42.25-1.9.3-.84.12c-.47.08-1,.15-1.56.22l-.11,0c-1.14.15-2.32.29-3.51.42l-2.16.21c-.85.08-1.67.15-2.52.21C123.63,343.55,119,343.72,114.26,343.72Z"/><path d="M114.26,400.24a283.84,283.84,0,0,1-31.91-1.58c-12.8-1.52-15.3-3.43-15.3-6.23V335.92a2.5,2.5,0,0,1,4.79-1c2.87,1.65,18.61,3.81,42.42,3.81s39.56-2.16,42.43-3.81a2.5,2.5,0,0,1,4.79,1v56.51c0,2.8-2.5,4.71-15.3,6.23A284,284,0,0,1,114.26,400.24Zm-42.21-8.71c3.36,1.64,18.93,3.71,42.21,3.71s38.86-2.07,42.22-3.71V340.3a63.66,63.66,0,0,1-10.3,1.85,284.15,284.15,0,0,1-31.92,1.57,284.09,284.09,0,0,1-31.91-1.57,63.66,63.66,0,0,1-10.3-1.85Z"/><path d="M217.89,339c-3.31,0-32.29-.27-32.29-9.57s29-9.55,32.29-9.55,32.29.26,32.29,9.55S221.2,339,217.89,339Zm-27.12-9.57c1.83,1.78,11.62,4.57,27.12,4.57s25.29-2.79,27.12-4.57c-1.83-1.77-11.62-4.55-27.12-4.55S192.6,327.63,190.77,329.4Zm54.47.29h0Z"/><path d="M179.27,327.79a2.5,2.5,0,0,1-.94-4.82c8.4-3.41,23.18-5.44,39.56-5.44,5.4,0,10.69.23,15.71.67a2.5,2.5,0,0,1-.43,5c-4.88-.43-10-.65-15.28-.65-15.53,0-30,1.94-37.68,5.07A2.39,2.39,0,0,1,179.27,327.79Z"/><path d="M217.89,343.72c-13.56,0-26.35-1.43-35.1-3.92-1.35-.39-2.49-.76-3.49-1.14-5.8-2.15-8.63-4.78-8.63-8,0-2.43,1.64-4.56,4.88-6.35a2.5,2.5,0,1,1,2.42,4.37c-1.91,1.06-2.3,1.83-2.3,2s1,1.71,5.38,3.35c.89.33,1.9.66,3.12,1,8.31,2.37,20.61,3.73,33.72,3.73,4.58,0,9.12-.16,13.48-.49l2.43-.2,2.11-.21c1.14-.12,2.26-.26,3.36-.4l.1,0h0l1.56-.22.72-.1,3.79-.65,1.83-.37c2.17-.46,4.18-1,6-1.56,5.64-1.83,6.87-3.55,6.87-3.87,0-.06-.08-.28-.43-.64a2.5,2.5,0,0,1,3.6-3.47,5.85,5.85,0,0,1,1.83,4.11c0,3.55-3.38,6.37-10.34,8.63-2,.62-4.12,1.19-6.47,1.69-.62.14-1.26.27-1.91.38l-.61.13-1.43.25-1.89.3-.84.12c-.48.08-1,.15-1.56.22l-.11,0c-1.15.15-2.32.29-3.52.42l-2.15.21-2.52.21C227.26,343.55,222.6,343.72,217.89,343.72Z"/><path d="M217.89,400.24A283.84,283.84,0,0,1,186,398.66c-12.8-1.52-15.31-3.43-15.31-6.23V335.92a2.5,2.5,0,0,1,4.79-1c2.87,1.65,18.62,3.81,42.43,3.81s39.56-2.16,42.43-3.81a2.5,2.5,0,0,1,4.79,1v56.51c0,2.8-2.51,4.71-15.31,6.23A283.84,283.84,0,0,1,217.89,400.24Zm-42.22-8.71c3.37,1.64,18.94,3.71,42.22,3.71s38.85-2.07,42.22-3.71V340.3a63.83,63.83,0,0,1-10.31,1.85,284.09,284.09,0,0,1-31.91,1.57A284,284,0,0,1,186,342.15a63.83,63.83,0,0,1-10.31-1.85Z"/><path d="M272.13,399.24a6.14,6.14,0,0,1-2.58-.58h0l-1-.46a6.08,6.08,0,0,1-2.95-8L393.87,103.36a6,6,0,0,1,3.42-3.21,6.06,6.06,0,0,1,4.69.19l6.28,3a6.08,6.08,0,0,1,2.91,8.07L277.62,395.75a6,6,0,0,1-3.43,3.12A6.18,6.18,0,0,1,272.13,399.24Zm-.45-5.11a1,1,0,0,0,.81,0,1.07,1.07,0,0,0,.6-.55L406.64,109.23a1.1,1.1,0,0,0,0-.81,1.07,1.07,0,0,0-.55-.6l-6.28-2.95a1.06,1.06,0,0,0-.82,0,1,1,0,0,0-.6.56L270.19,392.28a1.06,1.06,0,0,0,.52,1.39Z"/><path d="M172,321.44a6.58,6.58,0,0,1-1-.08,6,6,0,0,1-3.95-2.45l-.62-.86a6.09,6.09,0,0,1,1.28-8.4L369.57,158.42a2.5,2.5,0,0,1,3.31,3.74,2.2,2.2,0,0,1-.28.24L170.71,313.65a1.08,1.08,0,0,0-.22,1.47l.63.87a1.1,1.1,0,0,0,.69.43,1,1,0,0,0,.79-.19L359.16,181.82a2.5,2.5,0,0,1,2.92,4.06L175.52,320.29A6,6,0,0,1,172,321.44Z"/><path d="M381.39,171.39a2.5,2.5,0,0,1-1.47-4.53l47.59-34.29a1.06,1.06,0,0,0,.24-1.49l-4.05-5.61A1,1,0,0,0,423,125a1.07,1.07,0,0,0-.78.2l-27.59,20.66a2.5,2.5,0,0,1-3-4l27.58-20.66a6.06,6.06,0,0,1,8.56,1.32l4.05,5.61a6.07,6.07,0,0,1-1.38,8.47l-47.58,34.29A2.51,2.51,0,0,1,381.39,171.39Z"/></svg>