<svg id="Layer_1" data-name="Layer 1" xmlns="http://www.w3.org/2000/svg" viewBox="0 0 500 500"><path d="M407.33,361.56a6,6,0,0,1-3.47-1.1L313.61,297a2.5,2.5,0,1,1,2.88-4.08l90.25,63.48a1.07,1.07,0,0,0,1.46-.24l.62-.87a1,1,0,0,0-.21-1.48L320,289a2.5,2.5,0,0,1,3-4l88.59,64.81a6,6,0,0,1,1.3,8.47l-.62.86A6.07,6.07,0,0,1,407.33,361.56Z"/><path d="M251,252.25a26.4,26.4,0,0,1-9.31-1.57c-10.86-4-13.34-15.31-15.33-24.36-1.13-5.11-2.2-9.94-4.43-13-1.94-2.69-4.79-4.32-12.36-3.53-2.71.29-5.65.84-8.49,1.37-10.95,2-24.58,4.59-33.17-6.3-4.33-5.49-6.27-12.3-8.14-18.89-2.78-9.76-4.8-15.81-11.24-17.16-5.29-1.11-11.17-.65-17.39-.17-5.16.41-7.4-1.7-8.29-3a6.67,6.67,0,0,1-.3-6.7c1.6-3.36,5.3-5.67,9.66-6,6.88-.54,14-1.11,21.11.38,13.92,3,17.56,15.76,20.48,26,1.58,5.57,3.07,10.83,5.83,14.32,3.85,4.92,10.53,4,21.12,2,3.15-.59,6.4-1.2,9.59-1.54,7-.74,17.08-.66,23.65,8.47,3.81,5.31,5.23,11.76,6.61,18l0,.19c1.81,8.16,3.14,13.24,7.63,15,6.24,2.35,16-1,25.38-4.15,3.93-1.34,7.44-2.51,10.75-3.39a6.32,6.32,0,0,1,5,.66h0a6.53,6.53,0,0,1,3,5.69,9.42,9.42,0,0,1-6.61,8.93c-2.89.77-6,1.82-9.26,2.92l-.48.17C268,249.26,259.24,252.25,251,252.25Zm-38-47.71c6.09,0,10.08,1.83,13,5.81s4,9.27,5.25,14.9c1.91,8.68,3.89,17.65,12.2,20.74,8.86,3.32,20.62-.67,31-4.19l.47-.16c3.36-1.14,6.53-2.21,9.59-3a4.41,4.41,0,0,0,2.89-4.06,1.7,1.7,0,0,0-.61-1.48h0a1.44,1.44,0,0,0-1.09-.08c-3.16.84-6.57,2-10.39,3.28-10.27,3.49-20.86,7.09-28.8,4.11-7.24-2.81-8.94-10.47-10.73-18.58l0-.19c-1.27-5.76-2.58-11.71-5.79-16.17-5-6.9-12.43-7.12-19.06-6.42-3,.32-6.15.91-9.2,1.48-10.31,1.93-20.06,3.75-26-3.8-3.37-4.26-5-10-6.71-16.05-2.82-9.91-5.74-20.15-16.71-22.49-6.39-1.35-13.14-.81-19.68-.3-3.08.25-4.91,1.87-5.54,3.18a1.78,1.78,0,0,0-.09,1.71c.36.53,1.52,1,3.71.85,6.66-.52,12.89-1,18.88.26,9.72,2,12.29,11.09,15,20.68,1.74,6.12,3.53,12.45,7.25,17.16,6.73,8.52,17.71,6.47,28.33,4.49,2.93-.55,6-1.12,8.88-1.43A38.18,38.18,0,0,1,213.05,204.54Z"/><path d="M282.35,310.83a48.63,48.63,0,0,1-28-8.86h0L106.73,198.28a48.9,48.9,0,0,1,56.22-80L310.53,221.94a48.88,48.88,0,0,1-28.18,88.89Zm-25.17-13A43.89,43.89,0,1,0,307.65,226L160.07,122.36a43.89,43.89,0,1,0-50.47,71.83Z"/><path d="M127.43,390.64c-12.25,0-23.37-2.71-30.57-22.11a36.06,36.06,0,0,0-5-9.57c-2.72-3.82-4-6.2-4-18.6,0-3.5.09-6.85.28-10a2.5,2.5,0,0,1,4.32-1.57c2.24,1.78,20.79,4.3,49.68,4.3s47.46-2.53,49.75-4.35a2.45,2.45,0,0,1,2.65-.61,2.52,2.52,0,0,1,1.61,2.23c.19,3.33.28,6.67.28,10,0,11.95-1.22,14.16-3.77,17.65a31.79,31.79,0,0,0-4.78,9.29c-8.64,24.07-23.28,23.59-38.78,23.08-2.27-.07-4.61-.15-7-.15-2.55,0-5.1.1-7.57.21S129.78,390.64,127.43,390.64ZM93,334.31q-.1,2.93-.1,6.05c0,11.35,1,12.81,3.1,15.71a40.52,40.52,0,0,1,5.58,10.72c7.32,19.71,18,19.27,32.83,18.65,2.51-.1,5.11-.21,7.77-.21,2.43,0,4.82.08,7.13.15,15.38.51,26.49.87,33.9-19.77a36.78,36.78,0,0,1,5.45-10.54c1.87-2.57,2.81-3.86,2.81-14.71,0-2,0-4-.11-6.05-12.33,3.7-45,3.82-49.18,3.82S105.29,338,93,334.31Z"/><path d="M142.14,338.13c-4.89,0-47.95-.16-53.32-5.87a2.5,2.5,0,0,1-.68-1.86l.07-1.26a2.51,2.51,0,0,1,.79-1.68c.86-.8,3.12-2.91,20.82-4.47a2.5,2.5,0,1,1,.44,5,107.57,107.57,0,0,0-14.47,2c6.87,1.55,23.33,3.15,46.35,3.15s39.38-1.59,46.32-3.16A98.07,98.07,0,0,0,176,328.16a2.5,2.5,0,0,1,.47-5c15.86,1.51,18,3.52,18.81,4.27a2.47,2.47,0,0,1,.78,1.61c0,.43.06.88.09,1.33a2.5,2.5,0,0,1-.68,1.86C190.08,338,147,338.13,142.14,338.13Z"/><path d="M145.38,333.53c-9.08,0-21-1.45-38.08-6.21a2.49,2.49,0,0,1-1.57-3.52c.45-.9,3.27-5.46,14.9-6.57a6.57,6.57,0,0,0,2.25-.49,9.26,9.26,0,0,0-.19-1c-.3-1.31-.74-3.28.67-5s3.69-2.2,7.93-2a9.94,9.94,0,0,0,2.87-.19c-.57-1.38-3.23-4.22-6-6.42a2.5,2.5,0,0,1-.82-2.81,2.45,2.45,0,0,1,2.41-1.66c1.81,0,17.86.57,23.59,7.21a8.56,8.56,0,0,1,2,4.06c6.91.66,16.32,2.5,16.69,7.59a9.18,9.18,0,0,1-.14,2.61c3.59,1.36,7.27,3.5,7,6.54-.31,3.29-4.56,4.3-8.67,4.86-2.06.28-4.08.66-6.23,1A93.66,93.66,0,0,1,145.38,333.53Zm-31.73-9.69c27,6.92,38.84,4.73,49.35,2.78,2.21-.41,4.29-.8,6.47-1.1a27.78,27.78,0,0,0,3.14-.58,21.85,21.85,0,0,0-3.6-1.56c-1.4-.47-2.5-.84-2.92-2.23a2.76,2.76,0,0,1,.6-2.59c.14-.18.36-.48.31-1.55-1.1-1.31-7.81-2.88-14.31-3.32a2.51,2.51,0,0,1-2.31-2.81,3.35,3.35,0,0,0-.87-2.79c-2.28-2.64-8-4.09-12.88-4.83,1.92,2.32,3.21,4.89,2.39,7.13-1.3,3.56-6.29,3.36-7.93,3.3a12.88,12.88,0,0,0-3.67.22c0,.22.1.49.14.7a5.85,5.85,0,0,1-.55,5c-1.4,1.92-4,2.38-5.9,2.56A26.69,26.69,0,0,0,113.65,323.84Zm9.35-7.18Zm11.54-8.31Z"/></svg>