<svg id="Layer_1" data-name="Layer 1" xmlns="http://www.w3.org/2000/svg" viewBox="0 0 500 500"><path d="M260.12,190.33c-38.38,0-82.43-2.34-88.46-7.49a3.53,3.53,0,0,1-1.35-2.71,3.62,3.62,0,0,1,1.63-2.92c6.67-5,50.39-7.28,88.18-7.28s81.49,2.29,88.18,7.3a3.56,3.56,0,0,1,1.61,2.9,3.48,3.48,0,0,1-1.34,2.7C342.53,188,298.49,190.33,260.12,190.33Zm-82.49-10.2c9.07,2.45,38.49,5.2,82.49,5.2s73.35-2.74,82.45-5.19c-9.68-2.68-40.77-5.21-82.45-5.21S187.25,177.46,177.63,180.13Zm167.7,1.12h0Z"/><path d="M260.12,307c-33.62,0-59.18-6.87-74.67-40.38-9.9-21.43-15.14-46.46-15.14-72.39,0-4.53.16-9.06.48-13.47v-.11c0-.55.08-1.1.13-1.65a2.47,2.47,0,0,1,1-1.77c6.69-5,50.41-7.3,88.2-7.3s81.49,2.29,88.18,7.3a2.47,2.47,0,0,1,1,1.77c0,.5.09,1,.12,1.51l0,.24c.32,4.41.48,8.94.48,13.48,0,25.22-5,49.68-14.39,70.74C319,301.91,289.52,307,260.12,307ZM175.8,180.75a2.64,2.64,0,0,1,0,.28c-.31,4.38-.47,8.79-.47,13.2,0,25.21,5.08,49.52,14.68,70.3,14.42,31.2,37.53,37.47,70.13,37.47,32,0,56.34-6.65,70.84-39.07,9.12-20.42,14-44.18,14-68.7,0-4.42-.16-8.83-.46-13.11l0-.23v-.14c-6.75-2.88-39.38-5.82-84.3-5.82S182.56,177.87,175.8,180.75Z"/><path d="M220,289.63a2.42,2.42,0,0,1-1-.23c-16.1-7.43-28.09-25-34.7-50.78a171.86,171.86,0,0,1-5.18-36.69,2.51,2.51,0,0,1,2.47-2.53h0a2.49,2.49,0,0,1,2.5,2.47c0,.67,1.22,66.49,37,83a2.5,2.5,0,0,1-1.05,4.77Z"/><path d="M194.23,279.69a2.63,2.63,0,0,1-.83-.14,271.39,271.39,0,0,1-32.26-14.29c-22.14-11.64-35.92-23.35-41-34.81a22.31,22.31,0,0,1-.34-18.43c4.09-9.56,10.28-15.57,18.4-17.88,16.68-4.75,35.24,8.07,36,8.62a2.48,2.48,0,0,1,1.06,1.9c.3,5.11.75,10.06,1.35,14.73a2.51,2.51,0,0,1-3.95,2.34c-.16-.11-16.1-11.49-26.62-9.67a9.44,9.44,0,0,0-7.59,11.3c2.11,8.23,14.89,14.74,15,14.8l.11.06,31.14,17.63a2.51,2.51,0,0,1,1.09,1.25c5,12.65,10,18.17,10.21,18.4a2.51,2.51,0,0,1-1.84,4.19Zm-48.18-81.6a23.34,23.34,0,0,0-6.47.86c-6.59,1.88-11.69,6.94-15.16,15a17.3,17.3,0,0,0,.33,14.44c8.12,18.46,43.12,35.67,62.8,43.56a91.22,91.22,0,0,1-6-12.22L151.22,242.6c-1.19-.6-14.94-7.78-17.56-18a14.44,14.44,0,0,1,11.58-17.48c8.81-1.52,19.79,4,25.86,7.6-.28-2.77-.52-5.62-.7-8.52C167.19,204.19,156.64,198.09,146.05,198.09Z"/><path d="M258.55,330.07c-59.85,0-123.45-10.77-123.45-30.73,0-6.57,7.49-18.7,57.71-26.24a2.5,2.5,0,0,1,.74,4.95c-26.61,4-53.45,12.12-53.45,21.29,0,12.17,48.64,25.73,118.45,25.73S377,311.51,377,299.34c0-3.56-4.6-7.5-12.95-11.11-9-3.88-22-7.25-37.77-9.77a2.5,2.5,0,0,1,.79-4.93c20.51,3.27,54.93,11,54.93,25.81C382,319.3,318.39,330.07,258.55,330.07Z"/><path d="M218,288.65h0a2.5,2.5,0,1,1,2.5-2.5A2.5,2.5,0,0,1,218,288.65Z"/><path d="M289.7,283.4a21.93,21.93,0,0,1-2.92-.2c-.16,0-16.29-2.79-18.23-9.89-.46-1.69-.33-4.25,2.9-6.81a46.72,46.72,0,0,1,14-7.29,35.92,35.92,0,0,1,3.74-1c2.62-.61,5.88-1.36,7-2.77a7.72,7.72,0,0,0,1-2.44l.09-.3c2.24-7.64,4.55-15.54,7.21-23.23a2.5,2.5,0,0,1,3.43-1.45l.09.05c.78.36,2,.83,3.43,1.38,7.29,2.77,13.42,5.42,14.64,9.67a12.14,12.14,0,0,1-.07,5.68c-.91,5-1.86,10.21-4,15.12C317,271.63,303,283.4,289.7,283.4Zm18.6-49.77C306,240.42,304,247.37,302,254.12l-.09.3a12,12,0,0,1-1.83,4.09c-2.19,2.83-6.23,3.76-9.81,4.58a33,33,0,0,0-3.21.84,41.83,41.83,0,0,0-12.52,6.49c-.81.64-1.27,1.25-1.19,1.57.64,2.31,9.26,5.59,14.09,6.26,11.5,1.57,25.27-9.41,29.93-20.28,1.88-4.4,2.78-9.31,3.64-14.06a8.34,8.34,0,0,0,.19-3.39c-.64-2.2-8.33-5.14-11.62-6.39Z"/><path d="M351.84,247l-.25,0a2.49,2.49,0,0,1-2.24-2.73c5.8-58.44-1.69-66.62-4.13-67.73-1.76-.81-3.91.87-4.71,1.58l-21,57.28a2.5,2.5,0,1,1-4.69-1.72L336,175.86a2.56,2.56,0,0,1,.52-.85c1.92-2.06,6.34-5,10.74-3,13.67,6.17,8.69,56.31,7.05,72.78A2.5,2.5,0,0,1,351.84,247Z"/><path d="M357.7,278.08H346.41a2.5,2.5,0,0,1-2.5-2.5V244.52a2.49,2.49,0,0,1,2.5-2.5H357.7a2.49,2.49,0,0,1,2.5,2.5v31.06A2.5,2.5,0,0,1,357.7,278.08Zm-8.79-5h6.29V247h-6.29Z"/></svg>