<svg id="Layer_1" data-name="Layer 1" xmlns="http://www.w3.org/2000/svg" viewBox="0 0 500 500"><path d="M191.79,330.33a22.6,22.6,0,0,1-7-1.11h0L144,316a22.56,22.56,0,0,1-14.49-28.36l.07-.18L167.71,195A22.52,22.52,0,0,1,196,180.64l26,8.4A22.52,22.52,0,0,1,236.5,217.3l-23.26,97.25a1.33,1.33,0,0,1-.05.19,22.57,22.57,0,0,1-21.4,15.59Zm-5.42-5.86a17.53,17.53,0,0,0,22-11.18L231.66,216a1.21,1.21,0,0,1,.05-.18,17.5,17.5,0,0,0-11.26-22.06l-25.95-8.4a17.5,17.5,0,0,0-22.06,11.27,1.34,1.34,0,0,1-.07.18l-38.15,92.42a17.54,17.54,0,0,0,11.3,22l40.85,13.23Z"/><path d="M232.06,197.11a8.9,8.9,0,0,1-2.7-.42l-41.14-13.32a8.74,8.74,0,0,1,5.38-16.63l41.14,13.32A8.73,8.73,0,0,1,236,196.15,8.66,8.66,0,0,1,232.06,197.11Zm-41.15-25.79a3.74,3.74,0,0,0-1.15,7.29l41.14,13.32h0a3.74,3.74,0,0,0,2.3-7.11L192.06,171.5A3.83,3.83,0,0,0,190.91,171.32Z"/><path d="M232,183.68a14.72,14.72,0,0,1-4.58-.73h0l-29.58-9.58A14.8,14.8,0,1,1,207,145.2l29.58,9.58a14.81,14.81,0,0,1-4.54,28.9Zm-3-5.49a9.81,9.81,0,1,0,6-18.66L205.42,150a9.8,9.8,0,1,0-6,18.65Z"/><path d="M307.49,408.73a22.56,22.56,0,0,1-21.81-16.92,1.62,1.62,0,0,1,0-.19l-17.19-98.51a22.54,22.54,0,0,1,16.24-27.3L311.11,259a22.51,22.51,0,0,1,27.38,16.12l32.35,94.61a1.05,1.05,0,0,1,.05.19,22.53,22.53,0,0,1-16.21,27.4L313.08,408A22.43,22.43,0,0,1,307.49,408.73Zm-16.94-18.07a17.53,17.53,0,0,0,21.29,12.52l41.6-10.67h0a17.51,17.51,0,0,0,12.63-21.23l-32.35-94.61a1.21,1.21,0,0,1-.05-.18,17.51,17.51,0,0,0-21.32-12.62l-26.42,6.78A17.54,17.54,0,0,0,273.32,292a1.06,1.06,0,0,1,0,.19Z"/><path d="M277.36,272.57a8.74,8.74,0,0,1-8.45-6.57,8.74,8.74,0,0,1,6.29-10.63l41.89-10.75a8.76,8.76,0,0,1,10.63,6.29,8.76,8.76,0,0,1-6.29,10.64h0l-41.89,10.74A9,9,0,0,1,277.36,272.57Zm41.9-23.22a3.71,3.71,0,0,0-.93.12l-41.88,10.74a3.72,3.72,0,0,0-2.29,1.72,3.73,3.73,0,0,0,4.14,5.51l41.88-10.74a3.73,3.73,0,0,0-.92-7.35Zm1.55,9.77h0Z"/><path d="M278.65,259.17A14.81,14.81,0,0,1,275,230l30.12-7.73A14.81,14.81,0,0,1,312.45,251l-30.12,7.72A14.57,14.57,0,0,1,278.65,259.17Zm30.11-32.35a9.7,9.7,0,0,0-2.43.31l-30.12,7.73a9.81,9.81,0,0,0,4.87,19l30.12-7.73h0a9.81,9.81,0,0,0-2.44-19.31Z"/><circle cx="272.73" cy="209.06" r="2.46"/><circle cx="289.13" cy="184.79" r="2.75"/><circle cx="295.65" cy="202.84" r="3.76"/><circle cx="304.94" cy="184.63" r="2.92"/><circle cx="212.21" cy="114.88" r="2.72"/><circle cx="224.54" cy="105.06" r="3.34"/><circle cx="228.72" cy="123.45" r="4.18"/><circle cx="239.46" cy="95.66" r="4.39"/></svg>