<svg id="Layer_1" data-name="Layer 1" xmlns="http://www.w3.org/2000/svg" viewBox="0 0 500 500"><path d="M247.68,315.93a2.56,2.56,0,0,1-1.19-.3l-46.15-25H120.21c-3.32,0-6-3.14-6-7s2.71-7,6-7H378c3.32,0,6,3.13,6,7s-2.71,7-6,7H287.43L249,315.53A2.46,2.46,0,0,1,247.68,315.93ZM120.21,281.68c-.36,0-1,.75-1,2s.67,2,1,2H201a2.45,2.45,0,0,1,1.19.3l45.41,24.58,37.76-24.48a2.49,2.49,0,0,1,1.36-.4H378c.36,0,1-.76,1-2s-.67-2-1-2Z"/><path d="M372.08,228.66H125.77a2.5,2.5,0,0,1-2.5-2.5v-34a2.5,2.5,0,0,1,2.5-2.5H372.08a2.5,2.5,0,0,1,2.5,2.5v34A2.5,2.5,0,0,1,372.08,228.66Zm-243.81-5H369.58v-29H128.27Z"/><path d="M372.08,398.06H125.77a2.5,2.5,0,0,1-2.5-2.5v-34a2.5,2.5,0,0,1,2.5-2.5H372.08a2.5,2.5,0,0,1,2.5,2.5v34A2.5,2.5,0,0,1,372.08,398.06Zm-243.81-5H369.58V364H128.27Z"/><path d="M118.85,274.67a6.85,6.85,0,0,1-4.57-1.53c-4.34-3.71-.78-10.59.93-13.9l.59-1.13c2.11-4.17,4.74-9.35,8.2-12.81a2.53,2.53,0,0,1,1.77-.73H372.08a2.53,2.53,0,0,1,1.71.68c.83.78,2,1.72,3.2,2.71,3.68,3,8.24,6.69,10,10.92h0a8.59,8.59,0,0,1-1.2,9.09c-9,11.48-26.88,4.31-39.92-.92-3.56-1.43-6.92-2.78-9.45-3.48a106.7,106.7,0,0,0-57.27.33,64.27,64.27,0,0,0-8.56,3.34,66.33,66.33,0,0,1-9.2,3.56c-.32.1-37.18,10.09-71.82-10.11-16.63-9.69-39.26.63-54.24,7.46-.6.28-1.53.78-2.6,1.37C128.77,271.69,123.32,274.67,118.85,274.67Zm8-25.1c-2.59,2.93-4.79,7.26-6.59,10.8l-.6,1.17c-2.85,5.51-2.73,7.28-2.13,7.79,2,1.7,10.16-2.74,12.84-4.2,1.15-.63,2.15-1.17,2.92-1.53,15.91-7.25,40-18.22,58.82-7.23,32.67,19,67.63,9.71,68,9.61a62.93,62.93,0,0,0,8.5-3.31,69.51,69.51,0,0,1,9.23-3.58,111.61,111.61,0,0,1,60-.34,100.47,100.47,0,0,1,10,3.66c11.58,4.64,27.43,11,34.13,2.48a3.62,3.62,0,0,0,.52-4.07h0c-1.29-3.07-5.32-6.35-8.56-9-1-.8-1.92-1.56-2.73-2.28Z"/><path d="M277.08,144.92a2.47,2.47,0,0,1-1.61-.59,2.49,2.49,0,0,1-.3-3.52l32-38a2.5,2.5,0,1,1,3.83,3.22l-32,38A2.47,2.47,0,0,1,277.08,144.92Z"/><path d="M241.55,194.55a2.5,2.5,0,0,1-1.91-4.11l16-18.93a2.5,2.5,0,1,1,3.82,3.22l-16,18.93A2.47,2.47,0,0,1,241.55,194.55Z"/><path d="M267.32,176.56a19.83,19.83,0,1,1,19.83-19.83A19.85,19.85,0,0,1,267.32,176.56Zm0-34.65a14.83,14.83,0,1,0,14.83,14.82A14.84,14.84,0,0,0,267.32,141.91Z"/><path d="M359.26,354.68H138.59c-9.68,0-17.55-6.81-17.55-15.2v-4a14.21,14.21,0,0,1,5.29-10.9c4.43-3.73,10-4.25,12.2-4.31a2.47,2.47,0,0,1,1.55.49c7.87,5.84,15.27,8.42,22,7.68,4.74-.53,7.82-2.5,11.07-4.6,3.69-2.38,7.5-4.83,13.32-4.53s9.3,3.26,12.25,5.87c2.63,2.33,4.9,4.34,9,4.6,4.82.3,8.33-2.09,12-4.62,4-2.71,8.49-5.79,14.6-4.81,4.73.74,7.17,3.43,9.13,5.58,1.65,1.82,3,3.27,5.46,3.77,2.51-.5,3.82-1.95,5.47-3.77,2-2.15,4.4-4.84,9.14-5.59,6.1-1,10.61,2.11,14.59,4.82,3.71,2.53,7.22,4.92,12,4.62,4.08-.26,6.35-2.27,9-4.6,2.95-2.61,6.29-5.57,12.25-5.87s9.63,2.16,13.32,4.53c3.25,2.1,6.33,4.07,11.07,4.6,6.72.73,14.12-1.85,22-7.68a2.49,2.49,0,0,1,1.55-.49c2.19.06,7.77.58,12.2,4.31a14.21,14.21,0,0,1,5.29,10.9v4C376.81,347.87,368.94,354.68,359.26,354.68ZM137.83,325.3a14.82,14.82,0,0,0-8.27,3.09,9.27,9.27,0,0,0-3.52,7.08v4c0,5.63,5.63,10.2,12.55,10.2H359.26c6.92,0,12.55-4.57,12.55-10.2v-4a9.27,9.27,0,0,0-3.52-7.08A14.82,14.82,0,0,0,360,325.3c-8.65,6.23-17,9-24.79,8.1-5.91-.65-9.8-3.16-13.23-5.36s-6.15-4-10.35-3.75-6.52,2.25-9.19,4.62c-2.9,2.57-6.19,5.48-12,5.85-6.53.4-11.13-2.72-15.17-5.47-3.68-2.51-6.86-4.67-11-4-3,.48-4.42,2-6.22,4-2,2.21-4.28,4.71-8.78,5.4a2.49,2.49,0,0,1-.77,0c-4.5-.69-6.77-3.19-8.78-5.4-1.8-2-3.22-3.54-6.22-4-4.14-.65-7.32,1.51-11,4-4,2.75-8.64,5.87-15.17,5.47-5.79-.37-9.08-3.28-12-5.85-2.67-2.37-5-4.41-9.18-4.62s-6.93,1.53-10.36,3.75-7.32,4.71-13.23,5.36C154.82,334.25,146.48,331.53,137.83,325.3Z"/><path d="M201.77,318.16H123.48a6.24,6.24,0,0,1-6.23-6.23v-8.25a6.24,6.24,0,0,1,6.23-6.23h78.29a6.24,6.24,0,0,1,6.22,6.23v8.25A6.24,6.24,0,0,1,201.77,318.16Zm-78.29-15.71a1.24,1.24,0,0,0-1.23,1.23v8.25a1.24,1.24,0,0,0,1.23,1.23h78.29a1.23,1.23,0,0,0,1.22-1.23v-8.25a1.23,1.23,0,0,0-1.22-1.23Z"/><path d="M370.58,318.16H292.3a6.24,6.24,0,0,1-6.23-6.23v-8.25a6.24,6.24,0,0,1,6.23-6.23h78.28a6.24,6.24,0,0,1,6.23,6.23v8.25A6.24,6.24,0,0,1,370.58,318.16ZM292.3,302.45a1.23,1.23,0,0,0-1.23,1.23v8.25a1.24,1.24,0,0,0,1.23,1.23h78.28a1.24,1.24,0,0,0,1.23-1.23v-8.25a1.23,1.23,0,0,0-1.23-1.23Z"/></svg>