<svg id="Layer_1" data-name="Layer 1" xmlns="http://www.w3.org/2000/svg" viewBox="0 0 500 500"><path d="M250,190.84c-22.7,0-44.05-1.12-60.13-3.15-23.69-3-27-6.6-27-10.05s3.27-7,27-10c16.08-2,37.43-3.15,60.13-3.15s44.05,1.12,60.13,3.15c23.69,3,27,6.6,27,10s-3.27,7.05-27,10.05C294.05,189.72,272.69,190.84,250,190.84Zm-81.71-13.2c4.79,3.51,34.94,8.2,81.71,8.2s76.91-4.69,81.71-8.2c-4.8-3.51-34.94-8.19-81.71-8.19S173.08,174.13,168.29,177.64Zm163.92.48h0Z"/><path d="M250,335.55c-22.7,0-44.05-1.12-60.13-3.15-23.69-3-27-6.59-27-10s3.82-5.66,12.75-7.67a221.25,221.25,0,0,1,28.89-3.86,2.5,2.5,0,1,1,.4,5c-24.43,2-34.22,4.92-36.64,6.57,4.86,3.5,35,8.17,81.69,8.17s76.67-4.64,81.65-8.15c-1.91-1.21-9.81-4.65-39.69-6.82a2.5,2.5,0,0,1,.36-5c44.77,3.25,44.77,9.44,44.77,11.77,0,3.45-3.27,7.05-27,10C294.05,334.43,272.7,335.55,250,335.55Zm82.21-12.71h0Z"/><path d="M165.41,324.86a2.49,2.49,0,0,1-2.5-2.5V177.64a2.5,2.5,0,0,1,5,0V322.36A2.49,2.49,0,0,1,165.41,324.86Z"/><path d="M334.59,324.86a2.49,2.49,0,0,1-2.5-2.5V177.64a2.5,2.5,0,0,1,5,0V322.36A2.49,2.49,0,0,1,334.59,324.86Z"/><path d="M250.43,327.54a2.94,2.94,0,0,1-.51-.05l-45.68-9.43a2.5,2.5,0,0,1,1-4.9l45.13,9.32,41.17-10a2.5,2.5,0,1,1,1.18,4.86L251,327.47A2.32,2.32,0,0,1,250.43,327.54Z"/><path d="M250.43,276.29a2.94,2.94,0,0,1-.51-.05l-45.68-9.44a2.5,2.5,0,0,1,0-4.88l42-9.44a2.5,2.5,0,0,1,1,0l45.39,8.71a2.5,2.5,0,0,1,.12,4.89L251,276.22A2.44,2.44,0,0,1,250.43,276.29Zm-33.82-12,33.77,7,30-7.3-33.6-6.46Z"/><path d="M250.43,327.54a2.48,2.48,0,0,1-2.5-2.5V273.79a2.5,2.5,0,0,1,1.9-2.43l41.72-10.15a2.5,2.5,0,0,1,3.09,2.43v51.25a2.5,2.5,0,0,1-1.91,2.43L251,327.47A2.44,2.44,0,0,1,250.43,327.54Zm2.5-51.78v46.1l36.71-8.94v-46.1Z"/><path d="M250.43,327.54a2.94,2.94,0,0,1-.51-.05l-45.68-9.44a2.49,2.49,0,0,1-2-2.44V264.36a2.5,2.5,0,0,1,3-2.45l45.68,9.43a2.51,2.51,0,0,1,2,2.45V325A2.52,2.52,0,0,1,252,327,2.48,2.48,0,0,1,250.43,327.54Zm-43.18-14,40.68,8.4V275.83l-40.68-8.4Z"/></svg>