<svg id="Layer_1" data-name="Layer 1" xmlns="http://www.w3.org/2000/svg" viewBox="0 0 500 500"><path d="M137.3,226.84a2.5,2.5,0,0,1-.5-5c20.57-4.18,58.56-6.78,99.16-6.78,13.65,0,27,.29,39.7.85a2.5,2.5,0,1,1-.22,5c-12.62-.55-25.9-.84-39.48-.84-40.29,0-77.9,2.56-98.16,6.68A2.92,2.92,0,0,1,137.3,226.84Z"/><path d="M236,247.24c-34.18,0-66.36-1.8-88.28-4.93-3.32-.48-6.1-.93-8.52-1.39-17.57-3.26-19.94-6.76-19.94-9.75,0-4.15,5.87-6.31,11-7.73a2.5,2.5,0,0,1,1.34,4.82c-4.77,1.32-6.51,2.41-7.1,2.91.86.74,4.12,2.7,15.63,4.84,2.35.44,5.07.88,8.31,1.35,21.69,3.1,53.61,4.88,87.57,4.88,11.82,0,23.54-.22,34.84-.65,2.12-.08,4.21-.16,6.27-.26l5.46-.27c3-.16,5.9-.33,8.74-.52l.31,0,4-.28,2-.15,4.7-.38,3.45-.3,1.68-.17c1.61-.15,3.16-.31,4.67-.47,5.74-.61,11-1.3,15.76-2.06,14.79-2.41,18.68-4.71,19.65-5.53a6.62,6.62,0,0,0-1.29-.82,2.5,2.5,0,1,1,2.3-4.44c2.8,1.45,4.22,3.22,4.22,5.25,0,5.77-11.58,8.44-24.08,10.47-4.81.78-10.2,1.49-16,2.11-1.54.16-3.11.32-4.72.47l-1.68.16-3.5.31-4.75.39-2,.14-4.07.29h-.07l-.14,0q-4.34.27-8.87.53l-5.48.27-6.32.26C259.62,247,247.84,247.24,236,247.24Zm55.75-1.72h0Zm0,0Z"/><path d="M320.72,222.08a166.69,166.69,0,0,1,18.94,3.4"/><path d="M310.8,220.93l-.68-.07-.2,0"/><path d="M304.12,220.29l-.31,0c-6.82-.59-14.21-1.1-22.07-1.51"/><path d="M236,391.62c-30.61,0-59.4-1.42-81.08-4-31.43-3.73-35.66-8.2-35.66-12.07V231.17a2.5,2.5,0,0,1,5-.23c.48.59,4.65,4.39,33.93,7.65,21.15,2.35,48.79,3.65,77.82,3.65s56.68-1.3,77.83-3.65c29.28-3.26,33.45-7.06,33.93-7.65a2.5,2.5,0,0,1,5,.23V375.56c0,3.87-4.24,8.34-35.67,12.07C295.37,390.2,266.57,391.62,236,391.62ZM124.22,375.34c.53.63,4.86,4.4,33.92,7.63,21.16,2.35,48.79,3.65,77.82,3.65s56.67-1.3,77.82-3.65c29.06-3.23,33.39-7,33.93-7.63V236.8C343,239,333.92,241.24,317,243.25c-21.67,2.57-50.46,4-81.08,4s-59.41-1.42-81.08-4c-16.88-2-25.92-4.22-30.66-6.45Z"/><path d="M391.29,254.46H350.21a2.5,2.5,0,0,1-2.5-2.5V231.17a2.5,2.5,0,0,1,2.5-2.5h41.08a2.5,2.5,0,0,1,2.5,2.5V252A2.5,2.5,0,0,1,391.29,254.46Zm-38.58-5h36.08V233.67H352.71Z"/><path d="M121.72,254.46H80.63a2.5,2.5,0,0,1-2.5-2.5V231.17a2.5,2.5,0,0,1,2.5-2.5h41.09a2.5,2.5,0,0,1,2.5,2.5V252A2.5,2.5,0,0,1,121.72,254.46Zm-38.59-5h36.09V233.67H83.13Z"/><line x1="315.38" y1="208.08" x2="314.24" y2="209.31"/><polyline points="382.47 135.02 382.94 134.5 387.47 138.65 362.58 165.85"/><line x1="322.54" y1="209.36" x2="320.62" y2="211.45"/><path d="M318.08,215.67l2.18-2.95,2.42-3.26L357.8,162l21.62-29.21,3.05,2.26,1.89,1.4-21.78,29.43-27,36.54-13,17.62-1.62,2.18L310,236.88l-3.82,5.18-3.46.32-1.77.16-3,.24"/><polyline points="309.44 221.96 309.92 220.84 311.13 218"/><path d="M300.71,242.35l1.77-.15,3.46-.3,1.72-.17"/><polyline points="310.03 236.88 314.65 226 316.49 221.66 319.46 214.63 320.26 212.72 320.76 211.56 327.93 194.63 358.68 122.01 353.02 119.62 315.51 208.21"/><path d="M425,183l-77.48,45.14-19.06,11.11c-4.68.78-10,1.5-15.88,2.15l27.26-15.88,82.07-47.83Z"/><polyline points="335.55 202.39 401.05 152.6 404.76 157.49 322.51 220.01"/><path d="M347.43,115.78l-33.06,93.67-3.07,8.69-1,2.87-.28.8-.87,2.45L306.78,231l-.49,1.41-3.54,10-1.77.16-3,.24c-.66.06-1.32.11-2,.15l1.35-3.82,1.16-3.27,2.56-7.26,2.66-7.54.21-.61,37.66-106.69Z"/><path d="M301.35,109.45,281.91,219l-4.46,25.1-6.29.29,4.56-25.66,19.59-110.36Z"/><path d="M137.3,224.34,148,239.84c-3-.44-5.84-.89-8.41-1.38l-8.74-12.61L75,145.13l5-3.49Z"/><path d="M347.54,230.64a2.62,2.62,0,0,1-.82-.14c-20.67-7.22-67.38-9.37-70.64-9.28a2.5,2.5,0,0,1-2.29-4.07c.93-1.13.93-1.13,10.3-.63,4.41.24,11.4.69,19.65,1.46,13.92,1.31,33,3.73,44.63,7.8a2.5,2.5,0,0,1-.83,4.86Z"/><polygon points="320.26 215.47 314.45 225.86 300.98 242.54 315.51 208.21 320.26 212.72 320.26 215.47"/></svg>