<svg id="Layer_1" data-name="Layer 1" xmlns="http://www.w3.org/2000/svg" viewBox="0 0 500 500"><path d="M248.24,257c-12.65,0-25.5-6.23-35.57-17.3-3.91-3.37-9.14-12.77-9.73-13.84-2.81-5.23-11.62-23.59-7-40.93.37-1.39.76-2.79,1.17-4.17,1.76-6.07,3.81-12.09,6.1-17.88a190,190,0,0,1,8.17-17.94,7.83,7.83,0,0,1,1.77-2.39,5.63,5.63,0,0,1,3.56-1.25c11-.56,55.73-.56,66.52,0a5.81,5.81,0,0,1,3.57,1.24,7.61,7.61,0,0,1,1.8,2.46,191.48,191.48,0,0,1,8.14,17.88c.84,2.12,1.67,4.34,2.53,6.77l0,.09,4.69,15.1c4.67,17.43-4.13,35.78-6.94,41h0C286.75,245.06,269.39,257,251.79,257c-.6,0-1.2,0-1.8,0S248.82,257,248.24,257Zm1.83-111.13c-13.8,0-27.63.14-33.07.42a3.07,3.07,0,0,0-.58.07,3.85,3.85,0,0,0-.57.88,185.12,185.12,0,0,0-8,17.48c-2.23,5.64-4.23,11.51-5.95,17.44-.4,1.35-.78,2.71-1.14,4.06-4.17,15.56,3.95,32.44,6.54,37.25,1.48,2.7,6,10.26,8.67,12.5a2,2,0,0,1,.26.25c9.56,10.58,21.8,16.31,33.59,15.74a.89.89,0,0,1,.23,0c.56,0,1.13,0,1.7,0,15.76,0,31.43-10.93,40.89-28.53h0c2.59-4.81,10.71-21.69,6.53-37.25l-4.64-14.94c-.83-2.36-1.64-4.51-2.45-6.56a185.62,185.62,0,0,0-7.95-17.45,3.68,3.68,0,0,0-.55-.89,2.34,2.34,0,0,0-.62-.09C277.65,146,263.87,145.87,250.07,145.87Z"/><path d="M249.78,359.12h-.9c-1.69,0-3.48-.13-5.45-.3l-.45,0-.16,0a126.72,126.72,0,0,1-14.1-2.21c-10.75-2.24-18.75-5.4-25.19-10-3.31-2.35-4.88-5.26-4.19-7.78.42-1.56,1.81-3.49,6-3.86,7.73-.68,26-5.58,33.54-7.65a2.5,2.5,0,1,1,1.33,4.81c-9.49,2.63-26.58,7.13-34.43,7.82a5.24,5.24,0,0,0-1.53.31,6.46,6.46,0,0,0,2.16,2.28c5.84,4.13,13.26,7,23.31,9.13a124,124,0,0,0,13.56,2.14l.21,0,.3,0c1.91.16,3.59.25,5.19.28.57,0,1.13,0,1.69,0H251c1.57,0,3.26-.12,5.12-.28l.54-.05a123.42,123.42,0,0,0,13.57-2.14c10.05-2.09,17.47-5,23.33-9.14a6.51,6.51,0,0,0,2.15-2.27,5.42,5.42,0,0,0-1.54-.31c-8.47-.74-28-6-36.07-8.27a2.5,2.5,0,0,1,1.34-4.82c6.16,1.72,26.89,7.38,35.16,8.11,4.22.37,5.61,2.3,6,3.86.68,2.52-.88,5.43-4.19,7.78-6.45,4.56-14.45,7.72-25.2,10a126.29,126.29,0,0,1-14.12,2.21l-.56.06c-2,.17-3.79.27-5.49.3h-1.34ZM296,340.36h0Z"/><path d="M249.09,335c-3.55,0-6.6-3-8-7.74a19.6,19.6,0,0,1-.73-5.36v-68a2.5,2.5,0,1,1,5,0v68a14.66,14.66,0,0,0,.54,4c.78,2.7,2.18,4.12,3.17,4.12s2.52-1.58,3.26-4.5a14.49,14.49,0,0,0,.44-3.6V254.13a2.5,2.5,0,0,1,5,0v67.76a19.66,19.66,0,0,1-.59,4.83C255.92,331.74,252.74,335,249.09,335Z"/><path d="M252.9,246c-.52,0-1.05,0-1.58,0-11.64.52-23.58-5-32.84-15.18-3.47-3-8-11.24-8.57-12.19a63.36,63.36,0,0,1-7-21.6,2.5,2.5,0,1,1,5-.58,58.47,58.47,0,0,0,6.43,19.79c1.8,3.28,5.44,9.14,7.51,10.85a2,2,0,0,1,.26.25c8.3,9.18,18.91,14.15,29.13,13.66h.24c.49,0,1,0,1.46,0,10.81,0,21.7-5.91,29.88-16.22a2.5,2.5,0,1,1,3.92,3.11C277.56,239.44,265.25,246,252.9,246Z"/><path d="M293.88,205.59a2.51,2.51,0,0,1-2.41-3.15c1.78-6.66,2.11-12.75,1-18.13H212.36a2.5,2.5,0,0,1,0-5h82a2.49,2.49,0,0,1,2.39,1.77l.14.44c1.78,6.66,1.57,14.1-.61,22.22A2.51,2.51,0,0,1,293.88,205.59Z"/></svg>