<svg id="Layer_1" data-name="Layer 1" xmlns="http://www.w3.org/2000/svg" viewBox="0 0 500 500"><path d="M239.93,373A121.78,121.78,0,1,1,361.71,251.25,121.91,121.91,0,0,1,239.93,373Zm0-238.56A116.78,116.78,0,1,0,356.71,251.25,116.91,116.91,0,0,0,239.93,134.47Z"/><path d="M239.93,286.3A35.05,35.05,0,1,1,275,251.25,35.09,35.09,0,0,1,239.93,286.3Zm0-65.1A30.05,30.05,0,1,0,270,251.25,30.08,30.08,0,0,0,239.93,221.2Z"/><path d="M239.93,373A121.78,121.78,0,0,1,118.16,251.25c0-.75,0-1.5,0-2.24a121.77,121.77,0,0,1,203.3-88.2,123.58,123.58,0,0,1,11.44,11.82,121.78,121.78,0,0,1-93,200.4Zm0-238.56A116.74,116.74,0,0,0,123.19,249.12c0,.73,0,1.42,0,2.13a116.78,116.78,0,1,0,206-75.39h0a119.34,119.34,0,0,0-11-11.33A116.6,116.6,0,0,0,239.93,134.47Z"/><path d="M239.93,286.3A35.05,35.05,0,1,1,275,251.25,35.09,35.09,0,0,1,239.93,286.3Zm0-65.1A30.05,30.05,0,1,0,270,251.25,30.08,30.08,0,0,0,239.93,221.2Z"/><path d="M345.82,344.43a2.47,2.47,0,0,1-1.63-.61,2.5,2.5,0,0,1-.27-3.52,136.4,136.4,0,0,0,32.92-89.05,2.5,2.5,0,1,1,5,0,141.41,141.41,0,0,1-34.12,92.3A2.51,2.51,0,0,1,345.82,344.43Z"/><path d="M213.57,390.66a2.56,2.56,0,0,1-.47,0,141.81,141.81,0,0,1-62.59-29.17,2.5,2.5,0,1,1,3.16-3.88A136.78,136.78,0,0,0,214,385.71a2.5,2.5,0,0,1-.47,5Z"/><path d="M346.4,163.74a2.49,2.49,0,0,1-1.92-.89,136.73,136.73,0,0,0-104.55-48.51,2.5,2.5,0,0,1,0-5A141.68,141.68,0,0,1,335,145.86a143.88,143.88,0,0,1,13.32,13.77,2.5,2.5,0,0,1-.29,3.52A2.47,2.47,0,0,1,346.4,163.74Z"/><path d="M217.38,370.89a2.42,2.42,0,0,1-.47,0,121.71,121.71,0,0,1-53.71-25,2.48,2.48,0,0,1-.91-2.14c2.63-32.21-10.74-60.83-43.35-92.8a2.52,2.52,0,0,1-.75-1.83A121.79,121.79,0,0,1,216.66,131.7a2.54,2.54,0,0,1,1.49.16,109.74,109.74,0,0,1,27.13,17.36c27.71,23.85,55.28,19.24,73.53,11.16a2.49,2.49,0,0,1,2.68.44,122.32,122.32,0,0,1,11.44,11.81,2.54,2.54,0,0,1,.54,2.12c-8.78,42.18,11.15,88.57,21.85,113.48a2.49,2.49,0,0,1,.08,1.78,120.87,120.87,0,0,1-23,40.45,2.49,2.49,0,0,1-1.91.87h-.25c-30.61,0-73,20.51-107,37l-4.77,2.31A2.45,2.45,0,0,1,217.38,370.89Zm-50-28.14a116.71,116.71,0,0,0,49.67,23l4-1.95c34.19-16.55,76.64-37.11,108.31-37.49a115.94,115.94,0,0,0,21-37c-10.9-25.39-30.41-71.51-22-114.39a118,118,0,0,0-9-9.33C299.77,173.84,271,177.92,242,153a104.74,104.74,0,0,0-25.18-16.25,116.78,116.78,0,0,0-93.63,111.3C156,280.43,169.65,309.73,167.37,342.75Z"/><path d="M239.93,286.3A35.05,35.05,0,1,1,275,251.25,35.09,35.09,0,0,1,239.93,286.3Zm0-65.1A30.05,30.05,0,1,0,270,251.25,30.08,30.08,0,0,0,239.93,221.2Z"/><rect x="290.01" y="279.38" width="4.47" height="19.15" rx="2.23"/><rect x="147.72" y="216.61" width="4.47" height="19.15" rx="2.23" transform="translate(-113.43 160.79) rotate(-42.51)"/><rect x="181.42" y="204.21" width="4.47" height="19.15" rx="2.23" transform="translate(-96.19 180.3) rotate(-42.51)"/><rect x="248.61" y="302.63" width="4.47" height="19.15" rx="2.23" transform="translate(43.01 -30.14) rotate(7.52)"/><rect x="292.25" y="241" width="4.47" height="19.15" rx="2.23" transform="translate(35.32 -36.38) rotate(7.52)"/><rect x="200.59" y="302.63" width="4.47" height="19.15" rx="2.23" transform="translate(-166.77 267.37) rotate(-50.07)"/><rect x="200.59" y="171.77" width="4.47" height="19.15" rx="2.23" transform="translate(133.72 -81.81) rotate(33.49)"/><rect x="287.78" y="185.23" width="4.47" height="19.15" rx="2.23" transform="translate(-45.51 292.18) rotate(-50.07)"/></svg>