<svg id="Layer_1" data-name="Layer 1" xmlns="http://www.w3.org/2000/svg" viewBox="0 0 500 500"><path d="M281.14,315.46a2.49,2.49,0,0,1-1.82-.78,3.18,3.18,0,0,1-.91-2.21,3.23,3.23,0,0,1,1.12-2.41,2.5,2.5,0,0,1,4.17,2l-.06,1a2.52,2.52,0,0,1-1.64,2.21A2.55,2.55,0,0,1,281.14,315.46Zm.54-3,1.19,1.33a1.78,1.78,0,0,0,.54-1.31,1.81,1.81,0,0,0-.45-1.22Z"/><path d="M366.19,315.46a2.36,2.36,0,0,1-.82-.14,2.51,2.51,0,0,1-1.68-2.22c0-.32,0-.65-.06-1a2.5,2.5,0,0,1,4.16-2.08,3.13,3.13,0,0,1,.27,4.56A2.51,2.51,0,0,1,366.19,315.46Zm-1.87-4.15a1.73,1.73,0,0,0-.4,1.16,1.8,1.8,0,0,0,.53,1.31l1.18-1.31Z"/><path d="M311.71,363c-10.07,0-19.79-2.23-25.84-18.53a29.26,29.26,0,0,0-4.06-7.79c-2.3-3.24-3.4-5.25-3.4-15.62,0-2.89.08-5.66.23-8.25a2.5,2.5,0,0,1,4.25-1.63c2.16,1.47,17.45,3.48,40.77,3.48s38.62-2,40.78-3.48a2.5,2.5,0,0,1,4.25,1.64c.15,2.75.23,5.53.23,8.24,0,10-1,11.87-3.2,14.84a25.94,25.94,0,0,0-3.89,7.56c-7.24,20.17-20.05,19.75-32.44,19.34-3.9-.13-8.06-.12-12,0C315.53,362.92,313.61,363,311.71,363Zm-28.23-46.32c-.05,1.42-.07,2.88-.07,4.38,0,9.23.83,10.4,2.48,12.72a34.05,34.05,0,0,1,4.66,9c5.93,16,14.63,15.62,26.67,15.12,2.09-.09,4.24-.18,6.44-.18,2,0,4,.07,5.9.13,12.51.41,21.56.71,27.57-16a30.76,30.76,0,0,1,4.55-8.82c1.49-2,2.24-3.07,2.24-11.89,0-1.45,0-2.91-.07-4.38a74.68,74.68,0,0,1-11.22,1.75c-7.95.8-18.24,1.23-29,1.23s-21-.43-29-1.23A74.26,74.26,0,0,1,283.48,316.68Zm-.55-5.47,0,0Zm81.47,0,0,0Z"/><path d="M195.94,198.8a2.44,2.44,0,0,1-.95-.19,2.51,2.51,0,0,1-1.37-3.26c6.27-15.36,23.63-52.26,49.42-63a2.45,2.45,0,0,1,1.86,0l8.68,3.35a2.49,2.49,0,0,1,1.55,1.85,2.46,2.46,0,0,1-.74,2.3c-.26.25-26.23,24.66-38.85,46.68A2.5,2.5,0,0,1,211.2,184c10.62-18.51,29.68-38,36.92-45.09l-4.06-1.57c-23.58,10.54-39.85,45.31-45.81,59.91A2.5,2.5,0,0,1,195.94,198.8Z"/><path d="M221.83,291.26h-.26a2.52,2.52,0,0,1-2.23-2.75l5.12-48.11a.34.34,0,0,1,0-.1l.19-1.76a2.57,2.57,0,0,1,.22-.81l15.2-31.85a2.53,2.53,0,0,1,2.73-1.38L258,207.4a2.53,2.53,0,0,1,1.79,1.37,2.5,2.5,0,0,1-.06,2.26l-18.59,34.7-4.82,41.43a2.5,2.5,0,1,1-5-.58l4.87-41.9a2.37,2.37,0,0,1,.28-.89l17.21-32.12-10-1.9-14.19,29.72-.14,1.26v.1L224.32,289A2.5,2.5,0,0,1,221.83,291.26Z"/><path d="M184.57,292.11a2.09,2.09,0,0,1-.49-.05,2.5,2.5,0,0,1-2-2.94l2.67-13.37c0-.08,0-.16,0-.22l6.83-34.13,5.71-28.54a2.5,2.5,0,1,1,4.9,1l-12.51,62.52q0,.12,0,.21L187,290.1A2.5,2.5,0,0,1,184.57,292.11Z"/><path d="M194.89,292.54a2.56,2.56,0,0,1-.47,0,2.5,2.5,0,0,1-2-2.93l7.09-37a2.5,2.5,0,0,1,4.92.92l-.27,1.45-6.83,35.62A2.5,2.5,0,0,1,194.89,292.54Z"/><path d="M209.67,216.58a2.15,2.15,0,0,1-.56-.07,2.49,2.49,0,0,1-1.88-3l5.92-25.79h-5.68l-2.39,12a2.5,2.5,0,0,1-4.91-1l2.8-14a2.5,2.5,0,0,1,2.45-2h10.86a2.51,2.51,0,0,1,2.44,3.06l-6.62,28.85A2.5,2.5,0,0,1,209.67,216.58Z"/><path d="M178.7,243.77a2.52,2.52,0,0,1-2.18-1.25L162,217.16a2.5,2.5,0,0,1,0-2.47l5.07-9a2.5,2.5,0,0,1,4.21-.22l14.91,20.95a2.5,2.5,0,1,1-4.07,2.9L169.48,211.6l-2.43,4.31L180.86,240a2.49,2.49,0,0,1-.92,3.41A2.45,2.45,0,0,1,178.7,243.77Z"/><path d="M210.72,292.23h0a2.5,2.5,0,0,1-2.49-2.51l.25-54-12.22-23.88a.61.61,0,0,1-.07-.14l-6.44-12.6a2.47,2.47,0,0,1-.13-2A2.51,2.51,0,0,1,191,195.7l8.4-3.58a2.5,2.5,0,0,1,3.24,1.24l.65,1.38.06.12L216.19,222l.06.14,4.38,9.25a2.61,2.61,0,0,1,.24.94l.29,5.56v.05l2.64,50.76a2.5,2.5,0,1,1-5,.26l-2.64-50.8v-.05l-.26-5-4.23-8.93-.06-.13-12.49-26.34-3.71,1.58,5.29,10.34.06.14L213.2,234a2.56,2.56,0,0,1,.27,1.15l-.25,54.57A2.5,2.5,0,0,1,210.72,292.23Z"/><path d="M163.45,289.4A2.5,2.5,0,0,1,161,287l-.57-16.1-2.82-79.64h-5l1.21,45.56,3.54,47.87a2.5,2.5,0,1,1-5,.34l-1-14-2.51-33.86a.49.49,0,0,1,0-.12l-1.28-48.18a2.51,2.51,0,0,1,2.5-2.57h10a2.5,2.5,0,0,1,2.5,2.41L166,286.81a2.5,2.5,0,0,1-2.41,2.59Z"/><path d="M168.64,290.33a2.43,2.43,0,0,1-.75-.11,2.52,2.52,0,0,1-1.64-3.14l.33-1c.31-1,.61-2,.92-2.92l.46-1.5c1.33-4.27,2.56-8.21,3.54-11.41,1.8-5.81,2.38-7.76,2.45-8,.15-.6.36-1,6.13-11.22l1.34-2.38c2.31-4.08,4.82-8.57,6.88-12.31l0-.1s0,0,0,0a2.37,2.37,0,0,1,.17-.36c3.49-6.35,3.95-7.64,4-7.83h0s.14-1.47-2.75-6.21l-.27-.42L172.91,262s0,.08,0,.12l-7.38,18.06a2.5,2.5,0,1,1-4.62-1.9l7.32-17.92a.5.5,0,0,1,.05-.13l18.39-45a2.49,2.49,0,0,1,2-1.53,2.52,2.52,0,0,1,2.32,1c.06.08,1.53,2.06,3.07,4.56,3.75,6.14,3.73,8.66,3.31,10.17-.14.48-.45,1.6-4.38,8.76-.06.13-.12.26-.19.39l-.08.15c-2.07,3.76-4.59,8.27-6.9,12.36l-1.35,2.38c-2.58,4.55-5.23,9.24-5.69,10.19-.14.48-.63,2.12-2.46,8-1,3.2-2.21,7.15-3.54,11.43l-.47,1.51c-.31,1-.61,1.94-.92,2.91l-.32,1.05A2.51,2.51,0,0,1,168.64,290.33Zm10.14-26.84v0Z"/><path d="M198.57,292.58c-1.25,0-2.5,0-3.74,0-3.43-.05-7-.2-10.43-.43-5.65-.39-11.09-1-16.16-1.81-1.83-.29-3.62-.61-5.29-.95-3.07-.61-6-1.31-8.82-2.09-15.08-4.24-23-10.21-23-17.25,0-6,5.94-11.3,17.17-15.36,1.11-.4,2.29-.8,3.62-1.22a2.5,2.5,0,0,1,1.48,4.78c-1.24.39-2.35.76-3.39,1.14-8.69,3.14-13.88,7.13-13.88,10.66,0,4.3,7.43,9.07,19.4,12.43,2.65.75,5.5,1.42,8.46,2,1.61.33,3.32.63,5.09.91,4.93.79,10.21,1.38,15.71,1.76,3.4.23,6.82.37,10.19.42,5.31.13,10.55,0,15.64-.31,3.49-.2,7-.5,10.44-.89l.55-.06c4.05-.48,8-1.11,11.8-1.86,13.79-2.76,27.7-8.29,27.7-14.41,0-4-6.71-8.57-17.52-11.87-1.92-.58-4-1.15-6.19-1.67a2.5,2.5,0,0,1,1.16-4.86c2.29.54,4.48,1.13,6.49,1.75,13.78,4.2,21.06,10,21.06,16.65,0,8.24-11.56,15.28-31.72,19.31-3.91.78-8,1.43-12.22,1.92l-.55.07c-3.52.4-7.13.71-10.71.92C206.85,292.46,202.71,292.58,198.57,292.58Z"/><path d="M198.57,367.87c-.93,0-1.86,0-2.78,0-2.45,0-5-.13-7.66-.32-4.18-.28-8.19-.73-11.91-1.33-1.26-.19-2.59-.43-3.91-.7-2.35-.47-4.54-1-6.51-1.54-11.39-3.2-17.4-7.8-17.4-13.3a2.5,2.5,0,0,1,5,0c0,2.13,3.6,5.63,13.75,8.49,1.84.51,3.92,1,6.15,1.45,1.25.25,2.49.48,3.7.66,3.59.58,7.44,1,11.47,1.29,2.52.17,5,.27,7.43.3.93,0,1.8,0,2.67,0,3.05,0,6-.08,8.76-.24s5.24-.39,7.62-.66h.21l.22,0c3-.35,5.84-.8,8.58-1.35,13.59-2.73,19.78-7.05,19.78-9.92a2.5,2.5,0,0,1,5,0c0,8.74-14.91,13-23.8,14.82-2.89.58-5.92,1.06-9,1.42h-.11l-.1,0-.23,0c-2.46.28-5.1.51-7.86.68S201.72,367.87,198.57,367.87Z"/><path d="M198.57,353.35c-.86,0-1.73,0-2.59,0-2.28,0-4.69-.13-7.12-.29-3.89-.27-7.62-.69-11.08-1.25-1.17-.17-2.4-.39-3.64-.65-2.18-.43-4.23-.92-6.07-1.43-10.65-3-16.29-7.33-16.29-12.53a2.5,2.5,0,0,1,5,0c0,2.07,3.91,5.26,12.64,7.71,1.72.48,3.64.94,5.71,1.35,1.17.24,2.32.45,3.42.61,3.34.54,6.91.94,10.65,1.2,2.34.16,4.66.26,6.89.28.86,0,1.66,0,2.48,0,2.84,0,5.57-.08,8.13-.23s4.86-.35,7.07-.61l.17,0,.23,0c2.73-.33,5.41-.75,8-1.26,12.52-2.51,18.23-6.44,18.23-9a2.5,2.5,0,1,1,5,0c0,8.25-13.94,12.28-22.25,13.95-2.69.53-5.52,1-8.39,1.32h-.12l-.34,0c-2.22.26-4.69.47-7.26.62S201.5,353.35,198.57,353.35Z"/><path d="M246.24,353.15a3.05,3.05,0,0,1-.52,0,2.5,2.5,0,0,1-1.92-3l17.32-80.64a2.5,2.5,0,1,1,4.88,1.05l-17.32,80.64A2.49,2.49,0,0,1,246.24,353.15Z"/><path d="M150.9,353.15a2.49,2.49,0,0,1-2.44-2l-17.32-80.64a2.5,2.5,0,1,1,4.88-1.05l17.32,80.64a2.49,2.49,0,0,1-1.91,3A3.27,3.27,0,0,1,150.9,353.15Z"/><path d="M323.66,319.66c-10.72,0-21-.43-29-1.23-13.06-1.3-14.62-3-15.37-3.76a2.54,2.54,0,0,1-.68-1.85l.06-1.05a2.56,2.56,0,0,1,.79-1.68c.81-.74,2.69-2.5,17.45-3.8a2.5,2.5,0,0,1,.44,5c-4.45.39-7.56.82-9.73,1.21,6.55,1.13,19.19,2.18,36,2.18s29.47-1.05,36-2.18c-1.89-.34-4.51-.71-8.11-1.05a2.5,2.5,0,0,1,.48-5c13.24,1.27,15,2.93,15.78,3.65a2.47,2.47,0,0,1,.78,1.6c0,.37.05.74.08,1.12a2.5,2.5,0,0,1-.68,1.86c-.76.8-2.32,2.46-15.38,3.75C344.68,319.23,334.39,319.66,323.66,319.66Z"/><path d="M326.33,315.86c-7.52,0-17.38-1.2-31.55-5.14a2.49,2.49,0,0,1-1.57-3.52c.39-.78,2.82-4.73,12.65-5.67a6.61,6.61,0,0,0,1.42-.25c0-.16-.07-.34-.11-.48a4.91,4.91,0,0,1,.65-4.48c1.19-1.43,3.26-2,6.9-1.84a10.25,10.25,0,0,0,1.68,0,22.89,22.89,0,0,0-4.59-4.63A2.51,2.51,0,0,1,311,287a2.44,2.44,0,0,1,2.41-1.67c1.51,0,14.94.48,19.8,6.11a7.48,7.48,0,0,1,1.67,3.23c6.58.65,13.54,2.36,13.86,6.64a8.84,8.84,0,0,1-.06,1.9c4,1.57,5.91,3.49,5.7,5.72-.33,3.43-5.19,4.09-7.53,4.41-1.69.23-3.36.54-5.13.86A77.65,77.65,0,0,1,326.33,315.86Zm-24.67-8.5c21.2,5.25,30.69,3.49,39.14,1.93,1.83-.34,3.56-.66,5.36-.91.52-.07,1-.14,1.36-.21a19.18,19.18,0,0,0-1.82-.71c-1.17-.4-2.27-.77-2.68-2.13a2.72,2.72,0,0,1,.56-2.54c.06-.07.18-.23.17-.8-1.19-1-6.44-2.18-11.4-2.51a2.51,2.51,0,0,1-2.32-2.81,2.3,2.3,0,0,0-.62-2c-1.57-1.83-5.43-3-9.31-3.69,1.29,1.79,2,3.71,1.39,5.45-1.18,3.24-5.54,3.06-7,3a13.45,13.45,0,0,0-2.5.08l0,.15a5.29,5.29,0,0,1-.53,4.51c-1.25,1.73-3.56,2.14-5.18,2.29A25.61,25.61,0,0,0,301.66,307.36Zm15.5-13.09Z"/></svg>