<svg id="Layer_1" data-name="Layer 1" xmlns="http://www.w3.org/2000/svg" viewBox="0 0 500 500"><defs><style>.cls-1{fill:#f9e7c7;}</style></defs><path d="M261.32,289.46c-27.37,0-53.13-1.74-72.53-4.91-28.65-4.67-32-10.35-32-14.22a2.44,2.44,0,0,1,.18-.93l6.65-16.64a2.5,2.5,0,0,1,4.83.93c0,1.33,4.64,5.6,25.85,9.3,17.87,3.12,41.66,4.84,67,4.84s49.13-1.72,67-4.84c21.21-3.7,25.85-8,25.85-9.3a2.5,2.5,0,0,1,4.82-.93l6.66,16.64a2.44,2.44,0,0,1,.18.93c0,8.08-18.25,12-32,14.22C314.46,287.72,288.7,289.46,261.32,289.46ZM161.9,270.62c.7,1.53,6.57,5.55,27.7,9,19.14,3.12,44.61,4.84,71.72,4.84s52.59-1.72,71.73-4.84c21.13-3.45,27-7.47,27.7-9l-4.59-11.49c-3.47,2.75-10.94,6-27,8.79-18.15,3.16-42.25,4.91-67.86,4.91-29.43,0-81.68-3-94.8-13.78Z"/><path d="M261.33,260.15c-5.32,0-10.71-.06-16-.2a2.5,2.5,0,0,1,.06-5c32.88.82,64.84-.91,87.7-4.63,21.13-3.45,27-7.47,27.7-9l-4.59-11.49c-3.47,2.75-10.93,6-27,8.79-18.14,3.16-42.24,4.9-67.85,4.9l-4.38,0a2.5,2.5,0,0,1,0-5h0l4.35,0c25.33,0,49.12-1.71,67-4.83,21.21-3.7,25.86-8,25.86-9.31a2.5,2.5,0,0,1,4.82-.92l6.65,16.64a2.64,2.64,0,0,1,.18.92c0,8.08-18.25,12-32,14.23C314.46,258.41,288.7,260.15,261.33,260.15Z"/><path d="M278.68,230.32l-.09-2.5v-2.5c23.24-.65,44.55-2.62,59.93-5.57,16.81-3.21,21.59-6.69,22.22-8l-4.63-11.58c-7.79,6.36-29.09,9.79-47.55,11.62a2.5,2.5,0,0,1-.49-5c34.83-3.44,46.1-9.56,46.1-12a2.5,2.5,0,0,1,4.82-.92l6.65,16.64a2.64,2.64,0,0,1,.18.92c0,3.52-2.74,8.71-26.36,13.23C323.84,227.66,302.24,229.67,278.68,230.32Z"/><path d="M223,212.53h-.19c-22.17-1.7-59.35-6.26-59.35-17.74,0-5.7,9.44-13.32,54.41-17.31l.13,0h0c13.44-1.19,28-1.8,43.31-1.8a462.59,462.59,0,0,1,54.82,3c28.55,3.47,43,8.9,43,16.12,0,9.88-27.52,14.68-50.61,17a2.5,2.5,0,0,1-.49-5c34.83-3.44,46.1-9.56,46.1-12,0-1.67-7.1-7.32-38.64-11.16a458.75,458.75,0,0,0-54.21-3c-15.12,0-29.51.6-42.78,1.78h-.14c-37.73,3.34-49.93,9.76-49.93,12.34s13.78,9.62,54.73,12.75a2.5,2.5,0,0,1-.19,5Z"/><path d="M240.25,259.79h-.09C217.47,259,196.8,257,182,254c-22.54-4.47-25.14-9.56-25.14-13a2.63,2.63,0,0,1,.17-.92l6.65-16.64a2.5,2.5,0,0,1,4.83.92c0,1.05,3.32,4.51,18.53,7.87,12.86,2.84,31,4.89,51.09,5.77a2.5,2.5,0,0,1-.21,5c-20.37-.89-38.82-3-52-5.89-9.62-2.12-16-4.51-19.44-7.31l-4.57,11.45c.48.94,3.43,4.35,21,7.85,14.58,2.89,35,4.91,57.39,5.67a2.5,2.5,0,0,1-.08,5Z"/><path d="M174.51,263.07a2.5,2.5,0,0,1-.44-5l.7-.12a2.5,2.5,0,1,1,.83,4.93L175,263A2.28,2.28,0,0,1,174.51,263.07Z"/><path d="M259.44,313.24c-65.07,0-134.22-10.84-134.22-30.93,0-8.65,12.25-15.92,36.41-21.62a2.5,2.5,0,0,1,1.15,4.87c-15.74,3.71-32.56,10.06-32.56,16.75,0,10.6,46,25.93,129.22,25.93s129.23-15.33,129.23-25.93c0-1.95-2.05-8.87-28.43-15.73a2.5,2.5,0,0,1,1.25-4.84c21.35,5.56,32.18,12.48,32.18,20.57C393.67,302.4,324.51,313.24,259.44,313.24Z"/><path d="M346.89,263.54h0a2.5,2.5,0,1,1,2.5-2.5A2.49,2.49,0,0,1,346.88,263.54Z"/><path d="M259.44,324.34c-41.38,0-80.31-3.49-109.62-9.81-21.51-4.64-47.16-12.92-47.16-26a2.5,2.5,0,0,1,5,0c0,2.76,3.12,12.45,43.22,21.1,29,6.25,67.52,9.7,108.56,9.7a2.5,2.5,0,0,1,0,5Z"/><path class="cls-1" d="M123.53,221.46l-1.18,1.89A2.53,2.53,0,0,1,123.53,221.46Z"/><path class="cls-1" d="M397.34,223.35l-1.18-1.89A2.53,2.53,0,0,1,397.34,223.35Z"/><path d="M239.74,230.18h-.09c-22.56-.79-43.11-2.84-57.85-5.78-22.39-4.47-25-9.54-25-13a2.63,2.63,0,0,1,.17-.92l6.65-16.64a2.5,2.5,0,0,1,4.83.92c0,2.69,13.78,9.62,54.73,12.75a2.5,2.5,0,0,1-.38,5c-16.88-1.3-31.25-3.41-41.56-6.11-7.07-1.85-11.94-3.88-14.78-6.19l-4.59,11.49c.62,1.29,5.13,4.63,20.88,7.77,14.48,2.89,34.74,4.91,57,5.7a2.5,2.5,0,0,1-.08,5Z"/><path d="M278.81,199.75H252.76a7.45,7.45,0,1,1,0-14.89h26.05a7.45,7.45,0,1,1,0,14.89Zm-26.05-9.89a2.45,2.45,0,1,0,0,4.89h26.05a2.45,2.45,0,1,0,0-4.89Z"/><path d="M242.79,260.28a8.63,8.63,0,0,1-3.58-.71c-6.3-2.81-4.79-12.42-3.68-19.44.13-.82.26-1.65.4-2.47.54-3.35,1.1-6.8,1.29-9.75,0-.11,0-.17,0-.23v-.11c.19-4.52-1.33-5.12-5-6.56s-8.34-3.28-11.48-9.91c-2.93-6.16-9.84-8.87-15.94-11.27-5.11-2-9.53-3.74-10.72-7.46a5,5,0,0,1,.49-4.09c3.19-5.64,18.42-9.65,23-10.75l.35-.06h0c38.87-4.51,97.54,1.14,98.13,1.19a2.53,2.53,0,0,1,1.5.7c1.9,1.86,5,5.61,4.39,9.93-.42,3.06-2.54,5.65-6.29,7.7-3.26,1.78-5.23,3.84-5.85,6.13a6.67,6.67,0,0,0,.61,4.84,2.56,2.56,0,0,1,.37,1.4c0,.61-.87,15-31.75,20.92H279c-12.49,2.4-17.34,8-19.91,12.06a52,52,0,0,0-3.44,6.71c-2.19,4.84-4.26,9.41-9.66,10.81a11.6,11.6,0,0,1-1.22.26A13.55,13.55,0,0,1,242.79,260.28Zm-.55-32.53c0,.16,0,.34,0,.52-.2,3.15-.78,6.73-1.35,10.19-.13.82-.27,1.64-.39,2.45-.66,4.17-2,12.84.79,14.1a5,5,0,0,0,2.75.17c.26,0,.49-.09.7-.14,2.95-.77,4.27-3.42,6.36-8a56.77,56.77,0,0,1,3.79-7.34c4.87-7.66,12.26-12.2,23.27-14.29l.09,0c23.07-4.4,26.9-13.4,27.5-15.68a11.8,11.8,0,0,1-.74-7.75c1-3.7,3.76-6.84,8.32-9.32,2.28-1.25,3.53-2.59,3.73-4,.25-1.84-1.25-3.86-2.34-5-7.55-.7-60.35-5.26-96.05-1.14-10.95,2.63-19.46,6.64-19.77,8.49.46,1.39,4.35,2.92,7.78,4.27,6.62,2.6,14.85,5.83,18.62,13.78,2.3,4.84,5.6,6.14,8.8,7.39C237.85,217.84,242.57,219.69,242.24,227.75Z"/></svg>