<svg id="Layer_1" data-name="Layer 1" xmlns="http://www.w3.org/2000/svg" viewBox="0 0 500 500"><path d="M260.53,306.72c-2.92,0-4.59-1.89-5.85-3.32s-2.29-2.57-4.59-2.48h-.18c-2.3-.09-3.27,1-4.59,2.48s-3.36,3.8-7,3.23c-4-.62-5.86-3.11-7.35-5.11-1.3-1.76-2.06-2.69-3.69-2.95-1.82-.29-2.79.4-4.67,1.88-2.05,1.62-4.62,3.61-9,3.45-4.1-.17-6.17-2.26-7.83-3.94s-2.87-2.91-6.05-3.37-4.85.46-6.77,1.52-4.65,2.56-8.64,1.56a8.47,8.47,0,0,1-6-4.63c-.81-1.41-1.45-2.51-4.6-3.51a16.72,16.72,0,0,0-6.49-.45c-2.77.17-5.63.35-8.52-1.37a6.84,6.84,0,0,1-3.47-6.17c-.07-1.18-.07-1.18-.54-1.39-1.36-.63-3.07-.49-4.87-.35-2.59.21-5.52.44-7.68-1.81-1.85-1.91-1.54-4.3-1.33-5.87a10.37,10.37,0,0,0,.11-1.18,9.42,9.42,0,0,0-2.05.26c-1.73.35-4.36.87-5.9-1.36a8.17,8.17,0,0,1-.9-6.94c1.44-4.12,6-4.66,10.83-5.24,1.51-.18,3.08-.37,4.73-.66,6.68-1.18,9.42-1.66,14.43-4.85,39-25,71.78-28.71,87.85-28.71h.09c28.91,0,57.65,9.39,87.84,28.71,5,3.19,7.75,3.67,14.37,4.84,1.71.3,3.28.49,4.79.67,4.83.58,9.39,1.12,10.83,5.24a8.17,8.17,0,0,1-.9,6.94c-1.55,2.23-4.17,1.71-5.9,1.36A9.29,9.29,0,0,0,359,273a10.2,10.2,0,0,0,.11,1.17c.21,1.57.52,4-1.33,5.87-2.16,2.25-5.09,2-7.67,1.81-1.81-.14-3.52-.28-4.87.35-.48.21-.48.21-.55,1.39a6.84,6.84,0,0,1-3.47,6.17c-2.89,1.72-5.76,1.54-8.52,1.37a16.91,16.91,0,0,0-6.49.45c-3.15,1-3.79,2.1-4.6,3.51a8.47,8.47,0,0,1-6,4.63c-4,1-6.57-.42-8.64-1.56s-3.58-2-6.77-1.52-4.51,1.81-6.05,3.37-3.73,3.77-7.83,3.94c-4.37.18-6.91-1.83-9-3.45-1.87-1.48-2.85-2.17-4.67-1.88-1.63.26-2.39,1.19-3.69,2.95-1.49,2-3.35,4.49-7.35,5.11A6.55,6.55,0,0,1,260.53,306.72Zm-10.2-10.81c4.41,0,6.62,2.51,8.1,4.18s1.66,1.73,2.47,1.6c1.89-.29,2.75-1.34,4.11-3.16s3.2-4.3,6.9-4.9c4.06-.66,6.56,1.31,8.56,2.89,1.76,1.39,3.17,2.5,5.67,2.38,2.13-.09,3-1,4.47-2.46a14.68,14.68,0,0,1,18.79-2.71c1.83,1,2.93,1.61,5,1.09a3.69,3.69,0,0,0,2.89-2.29c1-1.77,2.42-4.19,7.42-5.77a21.59,21.59,0,0,1,8.31-.67c2.29.14,4.09.25,5.66-.68.92-.55.95-.93,1-2.19.1-1.55.27-4.15,3.44-5.61,2.54-1.17,5.21-1,7.36-.79,1.62.13,3.16.25,3.68-.3.18-.18.05-1.16,0-1.75-.21-1.58-.55-4.22,1.84-5.89,2-1.38,4.32-.92,6-.58l1.06.19a3.48,3.48,0,0,0,.05-1.94c-.41-1.17-3.47-1.54-6.71-1.93-1.5-.18-3.21-.38-5-.7-6.95-1.22-10.41-1.82-16.26-5.56-29.37-18.78-57.22-27.92-85.15-27.92H250c-15.52,0-47.19,3.64-85.16,27.92-5.85,3.74-9.31,4.34-16.19,5.55-1.85.33-3.56.53-5.06.71-3.24.39-6.29.76-6.71,1.93a3.48,3.48,0,0,0,0,1.94l1.06-.19c1.71-.34,4-.8,6,.58,2.39,1.67,2.05,4.31,1.84,5.89-.08.59-.21,1.57,0,1.75.52.55,2.06.42,3.68.3,2.15-.17,4.82-.38,7.36.79,3.18,1.46,3.34,4.06,3.44,5.61.08,1.26.11,1.64,1,2.19,1.57.93,3.37.82,5.66.68a21.59,21.59,0,0,1,8.31.67c5,1.59,6.4,4,7.42,5.77a3.69,3.69,0,0,0,2.89,2.29c2.09.52,3.19-.09,5-1.09a14.71,14.71,0,0,1,18.79,2.71c1.46,1.48,2.34,2.37,4.48,2.46,2.47.12,3.9-1,5.66-2.38,2-1.58,4.5-3.55,8.56-2.89,3.7.6,5.48,3,6.91,4.9s2.21,2.87,4.1,3.16c.82.13,1.13-.08,2.48-1.6,1.51-1.72,3.8-4.32,8.42-4.17ZM137.12,269Z"/><path d="M250.1,342.44h-1.73a681.54,681.54,0,0,1-90.15-6.26,2.5,2.5,0,0,1-2.09-1.85q-7-27.51-14-55A2.5,2.5,0,0,1,147,278.1q6.79,26.68,13.6,53.36a677.5,677.5,0,0,0,87.82,6,676.45,676.45,0,0,0,91.37-6l13.68-53.67a2.5,2.5,0,1,1,4.85,1.24l-14.1,55.3a2.49,2.49,0,0,1-2.09,1.85A680.88,680.88,0,0,1,250.1,342.44Z"/><path d="M143.37,276.66a2.51,2.51,0,0,1-2.42-1.89l-.82-3.22a2.5,2.5,0,0,1,4.85-1.23l.82,3.23a2.49,2.49,0,0,1-1.81,3A2.64,2.64,0,0,1,143.37,276.66Z"/><path d="M236.47,283.46c-32,0-56.62-3.8-73.55-11.34-.45-.21-.95-.43-1.23-.54a2.5,2.5,0,0,1-.84-4.8c1.23-.52,2.19-.09,4.11.77,21,9.38,54.83,12.73,100.45,10a2.5,2.5,0,1,1,.3,5Q250.2,283.46,236.47,283.46Z"/><path d="M274.35,243.09a2.5,2.5,0,0,1-2.22-1.35c-2.31-4.46-9.68-5.08-9.76-5.09a2.5,2.5,0,0,1,.37-5c.42,0,10.23.82,13.83,7.77a2.5,2.5,0,0,1-2.22,3.65Z"/><path d="M227.62,243.09a2.49,2.49,0,0,1-2-4.05c5.59-7.06,16.45-7.37,16.91-7.38a2.5,2.5,0,0,1,.11,5c-.12,0-9,.29-13.11,5.48A2.47,2.47,0,0,1,227.62,243.09Z"/><path d="M250.15,250.24a2.63,2.63,0,0,1-.67-.09,2.5,2.5,0,0,1-1.75-3.07l3.12-11.37a2.5,2.5,0,0,1,4.82,1.32l-3.11,11.37A2.51,2.51,0,0,1,250.15,250.24Z"/><path d="M341.67,243.55a2.48,2.48,0,0,1-1.66-.62c-9-8-22.15-14.77-39.16-20.25a2.5,2.5,0,1,1,1.53-4.76c17.67,5.7,31.45,12.85,40.94,21.26a2.5,2.5,0,0,1-1.65,4.37Z"/><path d="M248.28,212.57a2.47,2.47,0,0,1-1.55-.55,2.5,2.5,0,0,1-.4-3.51c3.25-4.07,4.6-7.78,4-11a10.66,10.66,0,0,0-2.73-5.05c-1.56-1.93-3.33-4.12-3.31-7.65s1.87-5.83,3.5-7.79c1.32-1.59,2.46-3,2.78-5.07.45-3-1-6.48-4.22-10.25a2.5,2.5,0,0,1,3.79-3.26c4.24,4.92,6.05,9.71,5.37,14.25a14.75,14.75,0,0,1-3.87,7.53c-1.5,1.79-2.34,2.89-2.35,4.61s.75,2.69,2.2,4.49a15.39,15.39,0,0,1,3.76,7.32c.83,4.71-.87,9.75-5,15A2.49,2.49,0,0,1,248.28,212.57Z"/><path d="M266.94,215.07a2.51,2.51,0,0,1-2.27-1.44,20,20,0,0,1-2-9.71,17.59,17.59,0,0,1,2-7.08,8.45,8.45,0,0,0,1.21-4.63,7.28,7.28,0,0,0-1.31-3.7,15.23,15.23,0,0,1-2.17-5.83,19.46,19.46,0,0,1,2.25-11.76,2.5,2.5,0,0,1,4.45,2.28,14.58,14.58,0,0,0-1.75,8.75A10.15,10.15,0,0,0,269,186a12.13,12.13,0,0,1,2,5.92,13.19,13.19,0,0,1-1.69,7.08,12.76,12.76,0,0,0-1.56,5.22,15,15,0,0,0,1.52,7.29,2.49,2.49,0,0,1-1.2,3.32A2.55,2.55,0,0,1,266.94,215.07Z"/></svg>