<svg id="Layer_1" data-name="Layer 1" xmlns="http://www.w3.org/2000/svg" viewBox="0 0 500 500"><path d="M260.94,397.14a2.51,2.51,0,0,1-2.3-1.53L142.4,120a2.5,2.5,0,0,1,2.31-3.47H377.18a2.51,2.51,0,0,1,2.31,3.47L263.25,395.61A2.51,2.51,0,0,1,260.94,397.14ZM148.47,121.55,260.94,388.2,373.41,121.55Z"/><path d="M215.33,239.4a19.83,19.83,0,1,1,19.83-19.83A19.84,19.84,0,0,1,215.33,239.4Zm0-34.65a14.83,14.83,0,1,0,14.83,14.82A14.84,14.84,0,0,0,215.33,204.75Z"/><path d="M250,321.1a19.82,19.82,0,1,1,19.82-19.82A19.84,19.84,0,0,1,250,321.1Zm0-34.64a14.82,14.82,0,1,0,14.82,14.82A14.84,14.84,0,0,0,250,286.46Z"/><path d="M294.14,251.55a32,32,0,1,1,32-32A32,32,0,0,1,294.14,251.55Zm0-59a27,27,0,1,0,27,27A27,27,0,0,0,294.14,192.59Z"/><path d="M222.28,153.48c-7.23,0-13.41-1.77-18.24-5.28-16.14-11.72-41.93.12-42.19.25a2.5,2.5,0,0,1-2.12-4.53,71.34,71.34,0,0,1,16.4-5c12.44-2.21,23.11-.41,30.85,5.22,16.07,11.67,45.11-3.85,45.41-4a2.5,2.5,0,1,1,2.38,4.39,87.14,87.14,0,0,1-18,6.93A58.17,58.17,0,0,1,222.28,153.48Z"/><path d="M160.47,197a2.5,2.5,0,0,1-2.3-1.52l-37.66-89.18a2.5,2.5,0,0,1,2.31-3.48h49a2.5,2.5,0,0,1,0,5H126.59l36.19,85.71a2.51,2.51,0,0,1-1.33,3.28A2.59,2.59,0,0,1,160.47,197Z"/></svg>