<?xml version="1.0" encoding="UTF-8" standalone="no"?>
<!-- Created with Inkscape (http://www.inkscape.org/) -->

<svg
   xmlns:dc="http://purl.org/dc/elements/1.1/"
   xmlns:cc="http://creativecommons.org/ns#"
   xmlns:rdf="http://www.w3.org/1999/02/22-rdf-syntax-ns#"
   xmlns:svg="http://www.w3.org/2000/svg"
   xmlns="http://www.w3.org/2000/svg"
   xmlns:sodipodi="http://sodipodi.sourceforge.net/DTD/sodipodi-0.dtd"
   xmlns:inkscape="http://www.inkscape.org/namespaces/inkscape"
   id="svg3997"
   sodipodi:docname="Popcorn-logo.svg"
   viewBox="0 0 1264.6134 1520.642"
   version="1.1"
   inkscape:version="0.91 r13725"
   width="1264.6134"
   height="1520.642">
  <defs
     id="defs65" />
  <sodipodi:namedview
     id="base"
     fit-margin-left="0"
     inkscape:zoom="0.41830998"
     borderopacity="1.0"
     inkscape:current-layer="g5041"
     inkscape:cx="648.32765"
     inkscape:cy="762.52466"
     inkscape:object-paths="true"
     inkscape:window-maximized="1"
     showgrid="false"
     fit-margin-right="0"
     inkscape:snap-global="false"
     inkscape:document-units="px"
     bordercolor="#666666"
     inkscape:window-x="4"
     inkscape:window-y="1"
     inkscape:object-nodes="true"
     fit-margin-bottom="0"
     inkscape:window-width="1916"
     inkscape:pageopacity="0.0"
     inkscape:pageshadow="2"
     pagecolor="#ffffff"
     inkscape:window-height="1035"
     fit-margin-top="0" />
  <g
     id="layer1"
     inkscape:label="Layer 1"
     inkscape:groupmode="layer"
     transform="translate(836.56118,290.41183)">
    <g
       id="g5041"
       transform="matrix(0.95961,0,0,0.95961,-57.6,14.866)">
      <g
         id="g4520"
         transform="translate(166.53,-3.0305)" />
      <g
         id="g4343"
         transform="matrix(8,0,0,8,1069.7903,-3319.3709)">
        <path
           d="m -200.87,547.15 c 0.78244,5.1848 2.2342,3.5507 3.8761,-0.0203 7.45,4.312 3.6117,-1.6153 4.5434,-3.2159 7.3702,-0.57267 1.6107,-2.6586 1.3465,-4.1112 4.9598,-2.9726 0.64334,-1.912 -0.12654,-2.3934 l -3.9823,1.5029 c -0.96401,-4.1142 -2.7326,-2.3776 -4.2318,-2.6 -1.9337,1.2834 -4.1221,2.4346 -3.7364,4.9218 0.51344,1.6204 0.81059,3.4595 3.6624,2.7169 z"
           inkscape:connector-curvature="0"
           style="fill:#f7f7ed;fill-opacity:1;stroke:#000000;stroke-width:0.5"
           sodipodi:nodetypes="cccccccccc"
           id="path4773" />
        <g
           transform="matrix(0.68701,0,0,0.68701,143.728,96.570503)"
           style="stroke:#000000;stroke-width:0.72779"
           id="g3192">
          <path
             inkscape:connector-curvature="0"
             transform="translate(0,62.362)"
             sodipodi:nodetypes="cccccccccccccccc"
             d="m -475.78,370.78 15.038,10.184 8.3582,-19.209 15.84,8.9542 7.9854,-18.144 14.816,8.4812 8.6735,-17.541 10.691,15.686 12.535,-11.899 13.127,16.454 26.31,-10.024 10.04,16.476 20.23,-11.541 -17.173,217.18 -129.3,12.122 z"
             style="fill:#cccccc;stroke:#000000;stroke-width:0.72779;stroke-linecap:round;stroke-linejoin:round"
             id="path3188" />
          <path
             inkscape:connector-curvature="0"
             style="fill:none;stroke:#000000;stroke-width:0.72779"
             d="m -405.07,405.86 2.0203,215.16"
             id="path3184" />
        </g>
        <g
           style="fill:#f7f7ed;fill-opacity:1"
           transform="translate(273.42,-45.7445)"
           id="g4388">
          <g
             style="fill:#f7f7ed;fill-opacity:1"
             transform="translate(-95.53,-3.9475)"
             id="g5084">
            <g
               style="fill:#f7f7ed;fill-opacity:1"
               transform="translate(-10,56.844)"
               id="g5138">
              <path
                 d="m -317.17,390.75 c -5.7448,1.2936 -3.7975,2.7883 0.33462,4.3401 -4.2306,8.692 2.1,3.9156 3.9679,4.8304 1.2345,8.2096 3.1076,1.5903 4.7135,1.1775 3.7288,5.3165 2.1935,0.56677 2.6708,-0.33433 l -2.0039,-4.3398 c 4.5309,-1.4109 2.4434,-3.2522 2.5718,-4.9494 -1.5932,-2.0627 -3.0587,-4.4215 -5.8137,-3.7892 -1.7738,0.70551 -3.8098,1.1863 -2.7486,4.321 z"
                 inkscape:connector-curvature="0"
                 style="fill:#f7f7ed;fill-opacity:1;stroke:#000000;stroke-width:0.56151003"
                 sodipodi:nodetypes="cccccccccc"
                 id="use4128" />
              <path
                 d="m -323.37,387.81 c -4.2936,-2.8755 -4.0688,-0.73311 -2.5606,2.8346 -8.0885,2.5573 -1.224,3.702 -0.6781,5.4436 -4.4803,5.7448 0.86485,2.9388 2.0976,3.7117 -1.1319,5.585 0.96417,1.7387 1.8261,1.4982 l 1.5521,-3.8971 c 3.635,2.032 3.5461,-0.40913 4.7041,-1.3526 0.35069,-2.2601 0.96693,-4.6178 -1.0997,-5.9897 -1.5206,-0.70298 -3.0565,-1.7086 -4.4109,0.86039 z"
                 inkscape:connector-curvature="0"
                 style="fill:#f7f7ed;fill-opacity:1;stroke:#000000;stroke-width:0.49274999"
                 sodipodi:nodetypes="cccccccccc"
                 id="use4132" />
              <path
                 d="m -321.69,387.72 c -4.0578,-3.0892 -3.9644,-0.96532 -2.6919,2.6394 -8.1208,2.0359 -1.427,3.5737 -0.99329,5.322 -4.7568,5.3915 0.67636,2.9467 1.8446,3.7818 -1.4488,5.4342 0.84592,1.7704 1.7094,1.585 l 1.7618,-3.7462 c 3.4594,2.2189 3.5178,-0.19114 4.7148,-1.0513 0.48052,-2.2055 1.2285,-4.4913 -0.72536,-5.9662 -1.4559,-0.78337 -2.9089,-1.8658 -4.3966,0.58399 z"
                 inkscape:connector-curvature="0"
                 style="fill:#f7f7ed;fill-opacity:1;stroke:#000000;stroke-width:0.48629999"
                 sodipodi:nodetypes="cccccccccc"
                 id="use4134" />
              <path
                 d="m -314.36,397.6 c -2.8551,3.476 -0.97995,3.4629 2.2388,2.4586 1.53,7.2242 3.1035,1.3742 4.6586,1.0488 4.5974,4.3683 2.6193,-0.50021 3.3934,-1.5027 4.7427,1.454 1.588,-0.68797 1.4527,-1.4551 l -3.2447,-1.6749 c 2.0685,-2.977 -0.0539,-3.1069 -0.77312,-4.19 -1.9284,-0.49537 -3.9187,-1.2291 -5.2824,0.44507 -0.73789,1.2578 -1.7393,2.5032 0.37159,3.8943 z"
                 inkscape:connector-curvature="0"
                 style="fill:#f7f7ed;fill-opacity:1;stroke:#000000;stroke-width:0.42893001"
                 sodipodi:nodetypes="cccccccccc"
                 id="use4136" />
              <path
                 d="m -312.81,400.44 c -2.1149,-5.0788 -3.1771,-3.0463 -3.9404,1.0063 -8.6801,-2.4949 -3.2657,2.5627 -3.8071,4.4289 -7.3568,2.4571 -0.96351,3.1159 -0.32525,4.5274 -4.2929,4.2871 -0.16868,2.1099 0.73742,2.4042 l 3.6715,-2.5425 c 2.0275,3.9428 3.3862,1.7254 4.9688,1.5705 1.642,-1.7981 3.577,-3.5264 2.5519,-5.9601 -0.9347,-1.5189 -1.7048,-3.3154 -4.4189,-1.8344 z"
                 inkscape:connector-curvature="0"
                 style="fill:#f7f7ed;fill-opacity:1;stroke:#000000;stroke-width:0.52460003"
                 sodipodi:nodetypes="cccccccccc"
                 id="use4138" />
              <path
                 d="m -331.58,389.72 c -1.467,4.9547 0.51127,4.1024 3.4682,1.6007 4.8489,6.9603 3.8984,0.0666 5.3985,-0.973 6.8178,2.567 2.5481,-1.7004 2.919,-3.1073 5.6686,-0.58186 1.3728,-1.438 0.88667,-2.1892 l -4.1823,-0.32169 c 0.85782,-4.0749 -1.4461,-3.2635 -2.6914,-4.0881 -2.262,0.33797 -4.6962,0.45148 -5.3906,2.8327 -0.21849,1.6608 -0.72131,3.4264 2.1343,3.9547 z"
                 inkscape:connector-curvature="0"
                 style="fill:#f7f7ed;fill-opacity:1;stroke:#000000;stroke-width:0.49272999"
                 sodipodi:nodetypes="cccccccccc"
                 id="use4140" />
              <path
                 d="m -335.65,395.41 c -4.22,3.9335 -1.8342,4.2354 2.428,3.5058 0.7173,9.4432 3.7116,2.2742 5.7436,2.1249 5.1017,6.3342 3.4146,-0.19074 4.569,-1.3336 5.7817,2.6542 2.1355,-0.60467 2.0939,-1.6028 l -3.8399,-2.6805 c 3.1353,-3.4327 0.45943,-3.9585 -0.27073,-5.4576 -2.3671,-0.95739 -4.7725,-2.2283 -6.7904,-0.3319 -1.1517,1.4734 -2.6363,2.8864 -0.18944,5.0135 z"
                 inkscape:connector-curvature="0"
                 style="fill:#f7f7ed;fill-opacity:1;stroke:#000000;stroke-width:0.55010003"
                 sodipodi:nodetypes="cccccccccc"
                 id="use4142" />
              <path
                 d="m -311.35,403.4 c -3.2532,-3.7717 -3.5931,-1.7234 -3.1055,1.9781 -8.1711,0.30456 -2.0856,3.1265 -2.0244,4.8846 -5.6346,4.1907 0.0509,2.9523 0.99846,3.9863 -2.4824,4.8998 0.45061,1.8626 1.3131,1.8599 l 2.4404,-3.2237 c 2.8573,2.8192 3.4,0.52812 4.7176,-0.0519 0.90477,-2.0104 2.0813,-4.0434 0.51235,-5.8474 -1.2329,-1.0427 -2.4025,-2.3706 -4.3191,-0.3303 z"
                 inkscape:connector-curvature="0"
                 style="fill:#f7f7ed;fill-opacity:1;stroke:#000000;stroke-width:0.47494999"
                 sodipodi:nodetypes="cccccccccc"
                 id="use4168" />
              <path
                 d="m -326.42,400.82 c -5.5548,-1.6904 -4.614,0.53974 -1.828,3.8834 -7.8619,5.3894 -0.10783,4.3798 1.0476,6.0741 -2.9421,7.6389 1.889,2.8775 3.4667,3.3061 0.6058,6.3743 1.6041,1.5547 2.4524,1.0148 l 0.39688,-4.6966 c 4.5714,0.99837 3.6792,-1.5972 4.6163,-2.9895 -0.3606,-2.5445 -0.46753,-5.2806 -3.1372,-6.0811 -1.8643,-0.25955 -3.8439,-0.8395 -4.4617,2.3647 z"
                 inkscape:connector-curvature="0"
                 style="fill:#f7f7ed;fill-opacity:1;stroke:#000000;stroke-width:0.55366999"
                 sodipodi:nodetypes="cccccccccc"
                 id="use4178" />
              <path
                 d="m -317.08,380.82 c -4.7164,-0.16723 -3.5114,1.3879 -0.62452,3.4323 -5.0495,5.8759 0.83033,3.4628 2.0919,4.5523 -0.71504,6.615 2.085,1.8656 3.4138,1.8726 1.8076,4.8804 1.5848,0.88604 2.1383,0.28478 l -0.66947,-3.772 c 3.7994,-0.17086 2.5563,-2.0233 3.0015,-3.3127 -0.81485,-1.9233 -1.4705,-4.0502 -3.7347,-4.1212 -1.5186,0.18562 -3.1947,0.14367 -3.0106,2.7896 z"
                 inkscape:connector-curvature="0"
                 style="fill:#f7f7ed;fill-opacity:1;stroke:#000000;stroke-width:0.45001999"
                 sodipodi:nodetypes="cccccccccc"
                 id="use4182" />
              <path
                 d="m -314.21,408.46 c -2.1137,5.0295 0.0611,4.3644 3.454,2.0817 4.2818,7.8661 4.0833,0.52165 5.7779,-0.39544 6.8571,3.4839 2.871,-1.4891 3.4232,-2.9225 6.0161,0.0463 1.6072,-1.3499 1.1842,-2.1946 l -4.3516,-0.82227 c 1.3724,-4.1768 -1.1394,-3.5923 -2.3506,-4.602 -2.4129,0.0925 -4.9805,-0.0704 -5.9852,2.3479 -0.42175,1.7176 -1.154,3.5121 1.7814,4.3974 z"
                 inkscape:connector-curvature="0"
                 style="fill:#f7f7ed;fill-opacity:1;stroke:#000000;stroke-width:0.52021998"
                 sodipodi:nodetypes="cccccccccc"
                 id="use4188" />
              <path
                 d="m -294.27,399.99 c -4.4643,-1.2408 -3.6705,0.52005 -1.383,3.1336 -6.1676,4.452 -10e-4,3.4962 0.9535,4.8255 -2.199,6.1512 1.5628,2.259 2.8298,2.5704 0.60689,5.0736 1.3099,1.2092 1.9761,0.76206 l 0.22556,-3.7545 c 3.6664,0.70784 2.9042,-1.3456 3.6248,-2.4745 -0.33701,-2.023 -0.47536,-4.2037 -2.6207,-4.7905 -1.4923,-0.17092 -3.0829,-0.5952 -3.5136,1.973 z"
                 inkscape:connector-curvature="0"
                 style="fill:#f7f7ed;fill-opacity:1;stroke:#000000;stroke-width:0.44183001"
                 sodipodi:nodetypes="cccccccccc"
                 id="use4192" />
              <path
                 d="m -300.46,398.47 c 4.0655,2.0386 3.6336,0.1926 1.9242,-2.7569 6.7816,-3.1228 0.66163,-3.3672 -0.007,-4.828 3.2803,-5.5092 -1.0785,-2.4711 -2.2399,-3.0104 0.37406,-5.0014 -1.0332,-1.4122 -1.7594,-1.1074 l -0.92664,3.5737 c -3.3976,-1.3745 -3.0515,0.74733 -3.9589,1.6985 -0.0576,2.0121 -0.33638,4.1387 1.6191,5.1093 1.4051,0.44659 2.8569,1.1558 3.757,-1.2365 z"
                 inkscape:connector-curvature="0"
                 style="fill:#f7f7ed;fill-opacity:1;stroke:#000000;stroke-width:0.43367001"
                 sodipodi:nodetypes="cccccccccc"
                 id="use4200" />
              <path
                 d="m -290.07,399.59 c -3.6374,4.3044 -1.2882,4.3207 2.7614,3.1191 1.7902,9.0764 3.8636,1.7758 5.8174,1.3954 5.6825,5.5526 3.29,-0.58074 4.2772,-1.823 5.9156,1.9044 2.0013,-0.834 1.8453,-1.7973 l -4.0352,-2.155 c 2.6432,-3.693 -0.0131,-3.8928 -0.8951,-5.2623 -2.4069,-0.6543 -4.8874,-1.6082 -6.6249,0.46503 -0.94637,1.5626 -2.2226,3.1052 0.39728,4.8848 z"
                 inkscape:connector-curvature="0"
                 style="fill:#f7f7ed;fill-opacity:1;stroke:#000000;stroke-width:0.53737003"
                 sodipodi:nodetypes="cccccccccc"
                 id="use4202" />
              <path
                 d="m -294.98,405 c 4.6623,0.95414 3.7238,-0.79364 1.1944,-3.3089 6.0029,-4.9997 -0.2473,-3.5823 -1.3198,-4.8764 1.816,-6.4588 -1.7618,-2.2035 -3.082,-2.4325 -0.98232,-5.1552 -1.428,-1.1458 -2.0789,-0.64039 l 0.0357,3.8629 c -3.8068,-0.46474 -2.88,1.585 -3.5381,2.7929 0.48904,2.0488 0.78576,4.2733 3.0256,4.7221 1.5412,0.0691 3.201,0.39079 3.4598,-2.2712 z"
                 inkscape:connector-curvature="0"
                 style="fill:#f7f7ed;fill-opacity:1;stroke:#000000;stroke-width:0.45379001"
                 sodipodi:nodetypes="cccccccccc"
                 id="use4204" />
              <path
                 d="m -294.53,401.46 c -3.4423,4.1593 -1.1917,4.1519 2.676,2.961 1.804,8.6776 3.7188,1.6633 5.5867,1.2797 5.4983,5.2636 3.1461,-0.58863 4.0796,-1.7884 5.6858,1.7664 1.9091,-0.81861 1.7501,-1.7399 l -3.8869,-2.0249 c 2.496,-3.5638 -0.0508,-3.7292 -0.90915,-5.0325 -2.3122,-0.6032 -4.6979,-1.4927 -6.3421,0.51051 -0.89128,1.5063 -2.0988,2.9966 0.42853,4.6758 z"
                 inkscape:connector-curvature="0"
                 style="fill:#f7f7ed;fill-opacity:1;stroke:#000000;stroke-width:0.51481998"
                 sodipodi:nodetypes="cccccccccc"
                 id="use4206" />
              <path
                 d="m -301.72,389.77 c -4.6781,0.40891 -3.2989,1.7981 -0.19899,3.4656 -4.2715,6.4174 1.2415,3.3187 2.62,4.2411 0.099,6.6198 2.2861,1.5886 3.5993,1.4339 2.3791,4.5997 1.673,0.68213 2.1464,0.021 l -1.1203,-3.6436 c 3.7314,-0.63119 2.2782,-2.3093 2.561,-3.6368 -1.0388,-1.8002 -1.9452,-3.8208 -4.1899,-3.6154 -1.4772,0.36815 -3.1376,0.53073 -2.6336,3.1213 z"
                 inkscape:connector-curvature="0"
                 style="fill:#f7f7ed;fill-opacity:1;stroke:#000000;stroke-width:0.44779"
                 sodipodi:nodetypes="cccccccccc"
                 id="use4208" />
              <path
                 d="m -273.73,406.08 c -2.8379,4.2941 -0.70533,4.0572 2.839,2.5332 2.5966,8.0408 3.6948,1.1966 5.4262,0.64214 5.7494,4.4274 2.9219,-0.87939 3.6842,-2.112 5.5698,1.0933 1.7259,-0.97098 1.4811,-1.828 l -3.8911,-1.5221 c 2.0017,-3.633 -0.42918,-3.5296 -1.3759,-4.6772 -2.2533,-0.33549 -4.6055,-0.93488 -5.9592,1.1319 -0.6909,1.5188 -1.6832,3.0548 0.88394,4.3882 z"
                 inkscape:connector-curvature="0"
                 style="fill:#f7f7ed;fill-opacity:1;stroke:#000000;stroke-width:0.49081001"
                 sodipodi:nodetypes="cccccccccc"
                 id="use4222" />
              <path
                 d="m -297.64,395.24 c 0.81414,4.7974 2.1334,3.2565 3.596,-0.0847 6.9858,3.8742 3.3236,-1.5602 4.1608,-3.0611 6.8287,-0.65667 1.4493,-2.4942 1.1795,-3.8375 4.5514,-2.8424 0.56441,-1.785 -0.1581,-2.2186 l -3.6694,1.4622 c -0.96441,-3.8009 -2.5759,-2.1596 -3.9707,-2.3404 -1.7723,1.2237 -3.7833,2.329 -3.3831,4.6302 0.50394,1.4948 0.81092,3.1961 3.4443,2.4586 z"
                 inkscape:connector-curvature="0"
                 style="fill:#f7f7ed;fill-opacity:1;stroke:#000000;stroke-width:0.46399999"
                 sodipodi:nodetypes="cccccccccc"
                 id="use4226" />
              <path
                 d="m -297.89,415.27 c 4.6171,2.409 4.1566,0.28748 2.2538,-3.1209 7.822,-3.4503 0.81959,-3.843 0.0814,-5.5278 3.8572,-6.2472 -1.1892,-2.849 -2.509,-3.4879 0.52046,-5.7193 -1.1569,-1.6358 -1.9939,-1.3003 l -1.1268,4.0745 c -3.8646,-1.6363 -3.5075,0.79937 -4.5639,1.8717 -0.10305,2.3027 -0.46141,4.7323 1.7595,5.8796 1.6005,0.53721 3.2496,1.3759 4.3242,-1.3464 z"
                 inkscape:connector-curvature="0"
                 style="fill:#f7f7ed;fill-opacity:1;stroke:#000000;stroke-width:0.49658999"
                 sodipodi:nodetypes="cccccccccc"
                 id="use4238" />
              <path
                 d="m -278.84,390.64 c -4.6624,1.4879 -2.9417,2.5841 0.59199,3.569 -2.8719,7.5034 2.0228,3.0895 3.6356,3.7113 1.6178,6.7074 2.6883,1.0911 3.9879,0.63284 3.473,4.1311 1.8572,0.31007 2.187,-0.47061 l -1.974,-3.4476 c 3.6489,-1.4969 1.7869,-2.8699 1.7701,-4.2844 -1.4687,-1.5922 -2.8533,-3.4387 -5.0883,-2.7153 -1.4174,0.71282 -3.0682,1.2587 -1.9621,3.7769 z"
                 inkscape:connector-curvature="0"
                 style="fill:#f7f7ed;fill-opacity:1;stroke:#000000;stroke-width:0.46667001"
                 sodipodi:nodetypes="cccccccccc"
                 id="use4240" />
              <path
                 d="m -265.87,412.53 c 0.9902,5.5694 2.5097,3.7662 4.1796,-0.13132 8.1562,4.4399 3.8494,-1.844 4.809,-3.5965 7.9322,-0.82569 1.662,-2.9127 1.3361,-4.4718 5.265,-3.3458 0.63981,-2.0802 -0.20404,-2.5776 l -4.2522,1.7333 c -1.1558,-4.4097 -3.0141,-2.4869 -4.6372,-2.6844 -2.0491,1.4387 -4.3768,2.7419 -3.8905,5.4134 0.59946,1.7331 0.97185,3.7079 4.0264,2.8266 z"
                 inkscape:connector-curvature="0"
                 style="fill:#f7f7ed;fill-opacity:1;stroke:#000000;stroke-width:0.53941"
                 sodipodi:nodetypes="cccccccccc"
                 id="use4242" />
              <path
                 d="m -286.86,412.52 c 0.55084,4.5753 1.8692,3.178 3.4055,0.0842 6.431,3.9841 3.2153,-1.3239 4.0758,-2.7055 6.4896,-0.30904 1.4849,-2.2931 1.2911,-3.5761 4.4353,-2.4808 0.61548,-1.6627 -0.0482,-2.1059 l -3.5379,1.2154 c -0.73853,-3.6396 -2.3379,-2.1606 -3.649,-2.3954 -1.7324,1.0765 -3.6852,2.0302 -3.4119,4.2252 0.40837,1.437 0.62099,3.0604 3.1458,2.4832 z"
                 inkscape:connector-curvature="0"
                 style="fill:#f7f7ed;fill-opacity:1;stroke:#000000;stroke-width:0.43943"
                 sodipodi:nodetypes="cccccccccc"
                 id="use4244" />
              <path
                 d="m -255.26,402.64 c 4.835,0.28115 3.6348,-1.3424 0.72047,-3.5069 5.317,-5.9111 -0.77144,-3.572 -2.0404,-4.7191 0.88727,-6.77 -2.0958,-1.9624 -3.4589,-2.0006 -1.7411,-5.0491 -1.6054,-0.94586 -2.1872,-0.34185 l 0.59922,3.8855 c -3.902,0.087 -2.6696,2.0164 -3.1563,3.329 0.79131,1.9922 1.4145,4.1894 3.7359,4.3149 1.5623,-0.15515 3.281,-0.0732 3.1535,-2.792 z"
                 inkscape:connector-curvature="0"
                 style="fill:#f7f7ed;fill-opacity:1;stroke:#000000;stroke-width:0.46182001"
                 sodipodi:nodetypes="cccccccccc"
                 id="use4256" />
              <path
                 d="m -265.57,381.48 c -4.599,-1.9005 -3.9805,0.0795 -1.8799,3.1618 -7.1514,3.9484 -0.45351,3.7272 0.39223,5.268 -3.1403,6.2735 1.3739,2.6105 2.6844,3.1064 -0.009,5.4876 1.24,1.4586 2.0082,1.0681 l 0.72623,-3.9736 c 3.8172,1.229 3.2704,-1.0588 4.1847,-2.1692 -0.0976,-2.2003 0.0371,-4.5432 -2.1742,-5.4464 -1.5689,-0.3753 -3.2097,-1.0334 -4.0012,1.6489 z"
                 inkscape:connector-curvature="0"
                 style="fill:#f7f7ed;fill-opacity:1;stroke:#000000;stroke-width:0.47451001"
                 sodipodi:nodetypes="cccccccccc"
                 id="use4264" />
              <path
                 d="m -275.07,413.83 c 3.9706,3.6678 4.0858,1.4174 3.1058,-2.514 8.7732,-1.3311 1.8652,-3.6271 1.5835,-5.5154 5.5614,-5.2101 -0.41719,-3.1772 -1.5658,-4.1758 2.0754,-5.588 -0.71444,-1.953 -1.6442,-1.8443 l -2.2359,3.7755 c -3.4268,-2.6893 -3.7309,-0.15224 -5.0805,0.63491 -0.7289,2.2787 -1.748,4.6152 0.1651,6.368 1.4573,0.97302 2.8815,2.2613 4.6977,-0.17386 z"
                 inkscape:connector-curvature="0"
                 style="fill:#f7f7ed;fill-opacity:1;stroke:#000000;stroke-width:0.51543999"
                 sodipodi:nodetypes="cccccccccc"
                 id="use4268" />
              <path
                 d="m -263.42,392.03 c -0.53403,4.8713 1.1686,3.7425 3.5065,0.90933 5.6984,5.6785 3.6494,-0.59492 4.8742,-1.818 6.7954,1.2466 2.0914,-2.0164 2.2004,-3.3919 5.1922,-1.4984 1.0388,-1.5734 0.45851,-2.1925 l -3.9574,0.40468 c 0.11375,-3.9475 -1.8996,-2.8019 -3.2008,-3.3616 -2.054,0.69666 -4.3066,1.2129 -4.5534,3.5522 0.076,1.5868 -0.0957,3.3193 2.6584,3.331 z"
                 inkscape:connector-curvature="0"
                 style="fill:#f7f7ed;fill-opacity:1;stroke:#000000;stroke-width:0.46729001"
                 sodipodi:nodetypes="cccccccccc"
                 id="use4278" />
              <path
                 d="m -276.66,396.35 c 4.8654,1.1842 3.9464,-0.69 1.3843,-3.433 6.5061,-5.0243 -0.121,-3.7764 -1.1986,-5.1788 2.1602,-6.7209 -1.767,-2.3853 -3.1463,-2.6774 -0.83284,-5.4589 -1.4571,-1.2603 -2.1611,-0.75405 l -0.11242,4.0632 c -3.9848,-0.63643 -3.0899,1.5549 -3.8288,2.7994 0.43472,2.1733 0.66038,4.5239 2.9981,5.0828 1.6179,0.13246 3.3507,0.53515 3.7262,-2.2539 z"
                 inkscape:connector-curvature="0"
                 style="fill:#f7f7ed;fill-opacity:1;stroke:#000000;stroke-width:0.47749001"
                 sodipodi:nodetypes="cccccccccc"
                 id="use4282" />
              <path
                 d="m -302.22,393.11 c 4.7324,1.0256 3.7981,-0.76369 1.2541,-3.3526 6.1664,-5.0164 -0.20947,-3.6477 -1.2855,-4.977 1.9237,-6.5501 -1.7666,-2.2626 -3.1072,-2.5112 -0.93881,-5.2567 -1.4394,-1.1826 -2.1076,-0.67601 l -0.009,3.9307 c -3.8678,-0.51762 -2.9489,1.5788 -3.6327,2.8 0.47348,2.0903 0.7492,4.3571 3.0228,4.8401 1.5672,0.0884 3.2522,0.43525 3.5469,-2.2701 z"
                 inkscape:connector-curvature="0"
                 style="fill:#f7f7ed;fill-opacity:1;stroke:#000000;stroke-width:0.46173"
                 sodipodi:nodetypes="cccccccccc"
                 id="use4310" />
              <path
                 d="m -292.97,391.35 c -2.0883,4.1696 -0.19565,3.7258 2.8278,1.9716 3.2054,6.9521 3.453,0.67673 4.9504,-0.009 5.6506,3.3607 2.5332,-1.1071 3.0856,-2.2983 5.1285,0.38104 1.4474,-1.0601 1.1346,-1.8046 l -3.6648,-0.94835 c 1.4077,-3.4845 -0.76781,-3.1285 -1.7436,-4.0584 -2.0632,-0.0581 -4.2438,-0.34283 -5.2381,1.6627 -0.45721,1.441 -1.1836,2.93 1.2697,3.8517 z"
                 inkscape:connector-curvature="0"
                 style="fill:#f7f7ed;fill-opacity:1;stroke:#000000;stroke-width:0.44468001"
                 sodipodi:nodetypes="cccccccccc"
                 id="use4324" />
              <path
                 d="m -298.04,374.72 c -5.4252,0.39388 -3.8514,2.0263 -0.28952,4.0106 -5.0566,7.3599 1.3814,3.8649 2.9622,4.9567 0.002,7.6687 2.6207,1.8789 4.1443,1.722 2.6772,5.368 1.926,0.81856 2.4856,0.0609 l -1.2354,-4.2392 c 4.3324,-0.66746 2.678,-2.6358 3.0281,-4.1686 -1.1725,-2.1028 -2.1878,-4.4584 -4.7912,-4.2588 -1.7171,0.40123 -3.643,0.56124 -3.1034,3.5703 z"
                 inkscape:connector-curvature="0"
                 style="fill:#f7f7ed;fill-opacity:1;stroke:#000000;stroke-width:0.51868999"
                 sodipodi:nodetypes="cccccccccc"
                 id="use4330" />
              <path
                 d="m -304.96,376.89 c -2.581,4.291 -0.51801,3.9726 2.8641,2.3449 2.8559,7.7082 3.6407,1.0104 5.3006,0.40005 5.7712,4.0659 2.8037,-0.97542 3.4937,-2.205 5.4589,0.83263 1.6374,-1.015 1.3641,-1.838 l -3.8449,-1.3188 c 1.7956,-3.6138 -0.56293,-3.413 -1.5306,-4.4893 -2.204,-0.23302 -4.515,-0.71847 -5.7455,1.3463 -0.60881,1.5048 -1.5098,3.0387 1.0404,4.2287 z"
                 inkscape:connector-curvature="0"
                 style="fill:#f7f7ed;fill-opacity:1;stroke:#000000;stroke-width:0.47749001"
                 sodipodi:nodetypes="cccccccccc"
                 id="use4348" />
              <path
                 d="m -306.31,379.51 c 0.20832,5.3854 1.8775,3.8816 3.9616,0.42104 7.1186,5.2537 3.8734,-1.2384 5.0075,-2.7672 7.5938,0.25502 1.9483,-2.5322 1.844,-4.0461 5.4052,-2.4712 0.87507,-1.8798 0.14353,-2.4593 l -4.2391,1.0814 c -0.51582,-4.3124 -2.5203,-2.7401 -4.0264,-3.1381 -2.1215,1.0906 -4.4882,2.0171 -4.3776,4.6017 0.33978,1.7138 0.43372,3.6262 3.4314,3.1927 z"
                 inkscape:connector-curvature="0"
                 style="fill:#f7f7ed;fill-opacity:1;stroke:#000000;stroke-width:0.51391"
                 sodipodi:nodetypes="cccccccccc"
                 id="use4350" />
              <path
                 d="m -280.05,377.36 c -1.6499,-4.416 -2.624,-2.7092 -3.4061,0.73672 -7.3536,-2.4116 -2.8777,2.0909 -3.4004,3.6717 -6.3775,1.8707 -0.92386,2.6376 -0.42207,3.8664 -3.8119,3.5349 -0.21134,1.8013 0.55521,2.0821 l 3.2245,-2.0607 c 1.6111,3.4405 2.8449,1.5848 4.205,1.5024 1.463,-1.4877 3.1748,-2.9062 2.3741,-5.0227 -0.75222,-1.3303 -1.3547,-2.893 -3.7258,-1.7109 z"
                 inkscape:connector-curvature="0"
                 style="fill:#f7f7ed;fill-opacity:1;stroke:#000000;stroke-width:0.44951999"
                 sodipodi:nodetypes="cccccccccc"
                 id="use4362" />
              <path
                 d="m -271.18,374.83 c -4.2659,-3.8955 -4.3752,-1.4898 -3.3038,2.7058 -9.368,1.4762 -1.9712,3.8878 -1.6586,5.9041 -5.9117,5.6022 0.46529,3.393 1.6989,4.4532 -2.1838,5.9847 0.77547,2.0829 1.7684,1.961 l 2.3664,-4.0486 c 3.6788,2.8531 3.9882,0.13988 5.4257,-0.70961 0.76505,-2.4398 1.8399,-4.9431 -0.21539,-6.8046 -1.5634,-1.031 -3.0933,-2.3991 -5.0194,0.21453 z"
                 inkscape:connector-curvature="0"
                 style="fill:#f7f7ed;fill-opacity:1;stroke:#000000;stroke-width:0.55085999"
                 sodipodi:nodetypes="cccccccccc"
                 id="use4364" />
              <path
                 d="m -277.83,375.53 c -4.82,2.3731 -2.7738,3.2835 1.2227,3.7785 -1.8985,8.6128 2.6982,3.0254 4.5502,3.4384 2.8465,7.019 3.0959,0.74768 4.4323,0.0389 4.4419,3.9205 2.0667,0.0348 2.2978,-0.86634 l -2.7034,-3.4221 c 3.7182,-2.2181 1.4736,-3.4061 1.2254,-4.939 -1.8533,-1.4899 -3.6565,-3.2696 -5.9655,-2.121 -1.423,1.0042 -3.1265,1.8651 -1.5164,4.4193 z"
                 inkscape:connector-curvature="0"
                 style="fill:#f7f7ed;fill-opacity:1;stroke:#000000;stroke-width:0.51229"
                 sodipodi:nodetypes="cccccccccc"
                 id="use4386" />
            </g>
          </g>
        </g>
        <g
           style="stroke:#000000;stroke-width:0.5"
           id="g3236"
           transform="translate(166.53,-3.030502)">
          <g
             transform="matrix(0.68701,0,0,0.68701,-22.802,99.601)"
             style="stroke:#000000;stroke-width:0.72779"
             id="g3196">
            <path
               transform="translate(0,62.362)"
               inkscape:connector-curvature="0"
               sodipodi:nodetypes="ccccccccccccccccc"
               d="m -475.78,370.78 20.679,21.142 19.248,-10.096 12.531,19.813 16.93,-11.663 15.458,20.264 16.751,-15.822 15.498,10.34 9.2319,-21.905 15.851,5.85 5.8874,-19.945 8.3271,9.6787 7.2521,-19.78 -17.173,217.18 -42.426,31.315 -86.873,-19.193 z"
               style="fill:#ee2929;fill-opacity:1;stroke:#000000;stroke-width:0.72807997;stroke-linecap:round;stroke-linejoin:round"
               id="path3180" />
            <path
               inkscape:connector-curvature="0"
               style="fill:none;stroke:#000000;stroke-width:0.72779"
               d="m -374.18,456.78 2.4485,212.74"
               sodipodi:nodetypes="cc"
               id="path3190" />
          </g>
          <path
             d="m -343.72,403.25 11.993,144.48 7.2697,1.6061 -3.7775,-141.44 -7.2269,3.7907 z"
             inkscape:connector-curvature="0"
             style="fill:#ffffff;stroke:#000000;stroke-width:0.5"
             sodipodi:nodetypes="cccccc"
             id="path3202" />
          <path
             d="m -320.04,408.24 6.9325,143.61 6.4071,1.4155 0.9847,-140.35 -7.9165,5.4536 z"
             inkscape:connector-curvature="0"
             style="fill:#ffffff;stroke:#000000;stroke-width:0.5"
             sodipodi:nodetypes="cccccc"
             id="path3204" />
          <path
             d="m -298.71,414.67 3.9529,141.23 7.6535,1.6909 2.7927,-139.99 -7.0664,6.6742 z"
             inkscape:connector-curvature="0"
             style="fill:#ffffff;stroke:#000000;stroke-width:0.5"
             sodipodi:nodetypes="cccccc"
             id="path3206" />
          <path
             d="m -270.89,554.18 4.982,-3.6772 1.4271,-141.24 -4.7433,11.254 -6.1433,-4.0987 z"
             inkscape:connector-curvature="0"
             style="fill:#ffffff;stroke:#000000;stroke-width:0.5"
             sodipodi:nodetypes="cccccc"
             id="path3234" />
          <path
             inkscape:connector-curvature="0"
             style="fill:#ffffff;stroke:#000000;stroke-width:0.5"
             sodipodi:nodetypes="ccccccc"
             d="m -257.7,544.44 4.5177,-3.3345 8.0953,-141.99 -2.8635,-3.3283 -4.0447,13.702 -4.8022,-1.7723 z"
             id="path3232" />
        </g>
        <path
           id="path4193"
           d="m -250.8392,496.58984 a 28.284885,36.521694 0 0 1 -28.28488,36.5217 28.284885,36.521694 0 0 1 -28.28489,-36.5217 28.284885,36.521694 0 0 1 28.28489,-36.52169 28.284885,36.521694 0 0 1 28.28488,36.52169 z"
           style="opacity:1;fill:#ffffff;fill-opacity:1;fill-rule:evenodd;stroke:#000000;stroke-width:0.72946298;stroke-linecap:round;stroke-linejoin:round;stroke-miterlimit:4;stroke-dasharray:none;stroke-opacity:1"
           transform="matrix(0.99768428,0.06801528,-0.06801528,0.99768428,166.53,-3.030502)"
           inkscape:connector-curvature="0" />
        <g
           transform="matrix(0.71403894,0.1836661,-0.16647212,0.80337903,150.49162,156.88872)"
           style="font-style:normal;font-weight:normal;font-size:17.42397499px;line-height:102.99999714%;font-family:sans-serif;letter-spacing:0px;word-spacing:0px;fill:#ee2929;fill-opacity:1;stroke:#ee2929;stroke-width:1px;stroke-linecap:butt;stroke-linejoin:miter;stroke-opacity:1"
           id="g4216">
          <path
             d="m -324.81841,459.02092 2.26511,0 c 2.52648,0 4.32115,-0.45303 5.34916,-1.35907 1.04544,-0.90605 1.56816,-2.21285 1.56816,-3.93782 0,-1.70755 -0.52272,-3.0492 -1.56816,-3.93782 -1.02801,-0.90605 -2.82268,-1.35907 -5.34916,-1.35907 l -5.47113,0 c -0.60983,0 -1.04543,0.13939 -1.34164,0.4356 -0.29621,0.27878 -0.41818,0.71438 -0.41818,1.27195 l 0,12.47557 c 0.0174,0.45302 0.12197,0.81892 0.36591,1.04544 0.22651,0.20908 0.60984,0.31363 1.14998,0.2962 l 1.65528,0 c 0.52272,-0.0174 0.92347,-0.12196 1.14998,-0.31363 0.20909,-0.22651 0.31363,-0.57499 0.29621,-1.02801 l 0,-3.25829 c 0,-0.0697 0.0348,-0.13939 0.0871,-0.22651 0.0523,-0.0697 0.13939,-0.10454 0.26136,-0.10454 z m 4.28629,-5.29689 c 0,0.4356 -0.15681,0.73181 -0.47044,0.90605 -0.29621,0.19166 -0.78408,0.27878 -1.48104,0.27878 l -2.33481,0 c -0.12197,0 -0.20909,-0.0349 -0.26136,-0.12197 -0.0523,-0.0697 -0.0871,-0.13939 -0.0871,-0.22651 l 0,-1.65528 c 0,-0.0871 0.0348,-0.13939 0.0871,-0.22651 0.0523,-0.0871 0.13939,-0.12197 0.26136,-0.12197 l 2.33481,0 c 0.69696,0 1.18483,0.0871 1.48104,0.24394 0.31363,0.17424 0.47044,0.48787 0.47044,0.92347 z m -4.28629,5.29689 2.26511,0 c 2.52648,0 4.32115,-0.45303 5.34916,-1.35907 1.04544,-0.90605 1.56816,-2.21285 1.56816,-3.93782 0,-1.70755 -0.52272,-3.0492 -1.56816,-3.93782 -1.02801,-0.90605 -2.82268,-1.35907 -5.34916,-1.35907 l -5.47113,0 c -0.60983,0 -1.04543,0.13939 -1.34164,0.4356 -0.29621,0.27878 -0.41818,0.71438 -0.41818,1.27195 l 0,12.47557 c 0.0174,0.45302 0.12197,0.81892 0.36591,1.04544 0.22651,0.20908 0.60984,0.31363 1.14998,0.2962 l 1.65528,0 c 0.52272,-0.0174 0.92347,-0.12196 1.14998,-0.31363 0.20909,-0.22651 0.31363,-0.57499 0.29621,-1.02801 l 0,-3.25829 c 0,-0.0697 0.0348,-0.13939 0.0871,-0.22651 0.0523,-0.0697 0.13939,-0.10454 0.26136,-0.10454 z m 4.28629,-5.29689 c 0,0.4356 -0.15681,0.73181 -0.47044,0.90605 -0.29621,0.19166 -0.78408,0.27878 -1.48104,0.27878 l -2.33481,0 c -0.12197,0 -0.20909,-0.0349 -0.26136,-0.12197 -0.0523,-0.0697 -0.0871,-0.13939 -0.0871,-0.22651 l 0,-1.65528 c 0,-0.0871 0.0348,-0.13939 0.0871,-0.22651 0.0523,-0.0871 0.13939,-0.12197 0.26136,-0.12197 l 2.33481,0 c 0.69696,0 1.18483,0.0871 1.48104,0.24394 0.31363,0.17424 0.47044,0.48787 0.47044,0.92347 z"
             style="font-style:normal;font-variant:normal;font-weight:800;font-stretch:normal;line-height:102.99999714%;font-family:'QUIZ SHOW';-inkscape-font-specification:'QUIZ SHOW Ultra-Bold';text-align:center;text-anchor:middle;fill:#ee2929;fill-opacity:1;stroke:#ee2929;stroke-opacity:1"
             id="path4218"
             inkscape:connector-curvature="0" />
          <path
             d="m -310.29444,457.80124 0,-3.22344 c 0,-0.8015 0.13939,-1.32422 0.41817,-1.62043 0.24394,-0.27878 0.76666,-0.41817 1.51589,-0.41817 l 1.06286,0 c 0.74923,0 1.25453,0.13939 1.53331,0.41817 0.26136,0.29621 0.38333,0.81893 0.38333,1.62043 l 0,3.22344 c 0,0.78408 -0.12197,1.3068 -0.38333,1.58558 -0.27878,0.29621 -0.78408,0.4356 -1.53331,0.4356 l -1.06286,0 c -0.74923,0 -1.27195,-0.13939 -1.51589,-0.4356 -0.27878,-0.27878 -0.41817,-0.8015 -0.41817,-1.58558 z m 1.70755,6.13324 1.51588,0 c 2.23027,-0.0174 3.81585,-0.4356 4.82644,-1.27195 1.0106,-0.83635 1.49847,-2.35224 1.49847,-4.58251 l 0,-3.74615 c 0,-2.24769 -0.48787,-3.781 -1.49847,-4.63478 -1.01059,-0.85377 -2.59617,-1.28937 -4.82644,-1.28937 l -1.51588,0 c -2.23027,0 -3.83328,0.4356 -4.84387,1.28937 -0.99316,0.85378 -1.48104,2.38709 -1.48104,4.63478 l 0,3.74615 c 0,2.23027 0.48788,3.74616 1.48104,4.58251 1.01059,0.83635 2.6136,1.25453 4.84387,1.27195 z"
             style="font-style:normal;font-variant:normal;font-weight:800;font-stretch:normal;line-height:102.99999714%;font-family:'QUIZ SHOW';-inkscape-font-specification:'QUIZ SHOW Ultra-Bold';text-align:center;text-anchor:middle;fill:#ee2929;fill-opacity:1;stroke:#ee2929;stroke-opacity:1"
             id="path4220"
             inkscape:connector-curvature="0" />
          <path
             d="m -295.17724,459.02092 2.26512,0 c 2.52648,0 4.32114,-0.45303 5.34916,-1.35907 1.04544,-0.90605 1.56816,-2.21285 1.56816,-3.93782 0,-1.70755 -0.52272,-3.0492 -1.56816,-3.93782 -1.02802,-0.90605 -2.82268,-1.35907 -5.34916,-1.35907 l -5.47113,0 c -0.60984,0 -1.04544,0.13939 -1.34165,0.4356 -0.2962,0.27878 -0.41817,0.71438 -0.41817,1.27195 l 0,12.47557 c 0.0174,0.45302 0.12197,0.81892 0.3659,1.04544 0.22651,0.20908 0.60984,0.31363 1.14999,0.2962 l 1.65527,0 c 0.52272,-0.0174 0.92347,-0.12196 1.14999,-0.31363 0.20908,-0.22651 0.31363,-0.57499 0.2962,-1.02801 l 0,-3.25829 c 0,-0.0697 0.0349,-0.13939 0.0871,-0.22651 0.0523,-0.0697 0.13939,-0.10454 0.26136,-0.10454 z m 4.2863,-5.29689 c 0,0.4356 -0.15682,0.73181 -0.47045,0.90605 -0.2962,0.19166 -0.78408,0.27878 -1.48104,0.27878 l -2.33481,0 c -0.12197,0 -0.20909,-0.0349 -0.26136,-0.12197 -0.0523,-0.0697 -0.0871,-0.13939 -0.0871,-0.22651 l 0,-1.65528 c 0,-0.0871 0.0349,-0.13939 0.0871,-0.22651 0.0523,-0.0871 0.13939,-0.12197 0.26136,-0.12197 l 2.33481,0 c 0.69696,0 1.18484,0.0871 1.48104,0.24394 0.31363,0.17424 0.47045,0.48787 0.47045,0.92347 z m -4.2863,5.29689 2.26512,0 c 2.52648,0 4.32114,-0.45303 5.34916,-1.35907 1.04544,-0.90605 1.56816,-2.21285 1.56816,-3.93782 0,-1.70755 -0.52272,-3.0492 -1.56816,-3.93782 -1.02802,-0.90605 -2.82268,-1.35907 -5.34916,-1.35907 l -5.47113,0 c -0.60984,0 -1.04544,0.13939 -1.34165,0.4356 -0.2962,0.27878 -0.41817,0.71438 -0.41817,1.27195 l 0,12.47557 c 0.0174,0.45302 0.12197,0.81892 0.3659,1.04544 0.22651,0.20908 0.60984,0.31363 1.14999,0.2962 l 1.65527,0 c 0.52272,-0.0174 0.92347,-0.12196 1.14999,-0.31363 0.20908,-0.22651 0.31363,-0.57499 0.2962,-1.02801 l 0,-3.25829 c 0,-0.0697 0.0349,-0.13939 0.0871,-0.22651 0.0523,-0.0697 0.13939,-0.10454 0.26136,-0.10454 z m 4.2863,-5.29689 c 0,0.4356 -0.15682,0.73181 -0.47045,0.90605 -0.2962,0.19166 -0.78408,0.27878 -1.48104,0.27878 l -2.33481,0 c -0.12197,0 -0.20909,-0.0349 -0.26136,-0.12197 -0.0523,-0.0697 -0.0871,-0.13939 -0.0871,-0.22651 l 0,-1.65528 c 0,-0.0871 0.0349,-0.13939 0.0871,-0.22651 0.0523,-0.0871 0.13939,-0.12197 0.26136,-0.12197 l 2.33481,0 c 0.69696,0 1.18484,0.0871 1.48104,0.24394 0.31363,0.17424 0.47045,0.48787 0.47045,0.92347 z"
             style="font-style:normal;font-variant:normal;font-weight:800;font-stretch:normal;line-height:102.99999714%;font-family:'QUIZ SHOW';-inkscape-font-specification:'QUIZ SHOW Ultra-Bold';text-align:center;text-anchor:middle;fill:#ee2929;fill-opacity:1;stroke:#ee2929;stroke-opacity:1"
             id="path4222"
             inkscape:connector-curvature="0" />
          <path
             d="m -332.53383,475.19037 0,-2.12573 c 0,-0.8015 0.13939,-1.32422 0.41817,-1.62043 0.24394,-0.26136 0.76666,-0.40075 1.51589,-0.41817 l 0.99317,0 c 0.76665,0.0174 1.28937,0.12196 1.56815,0.33105 0.27879,0.20909 0.40076,0.5053 0.40076,0.85378 0.0174,0.55756 0.13939,0.92347 0.34847,1.13255 0.20909,0.20909 0.55757,0.29621 1.08029,0.29621 l 1.77725,0 c 0.54014,0 0.92347,-0.0871 1.11513,-0.29621 0.20909,-0.20908 0.31363,-0.57499 0.31363,-1.13255 0,-2.19542 -0.50529,-3.71131 -1.51588,-4.56508 -0.99317,-0.85378 -2.6136,-1.28938 -4.80902,-1.28938 l -1.49846,0 c -2.23027,0 -3.83328,0.4356 -4.84387,1.28938 -0.99316,0.85377 -1.48104,2.38708 -1.48104,4.63477 l 0,3.74616 c 0,2.23027 0.48788,3.74615 1.48104,4.5825 1.01059,0.83635 2.6136,1.25453 4.84387,1.27195 l 1.49846,0 c 2.19542,0 3.81585,-0.41817 4.80902,-1.25452 1.01059,-0.83635 1.51588,-2.36966 1.51588,-4.59993 0,-0.48787 -0.10454,-0.8712 -0.31363,-1.08029 -0.19166,-0.22651 -0.57499,-0.34848 -1.11513,-0.34848 l -1.77725,0 c -0.52272,0 -0.8712,0.12197 -1.09771,0.34848 -0.22651,0.20909 -0.33105,0.59242 -0.33105,1.08029 -0.0174,0.40075 -0.15682,0.67953 -0.41818,0.88862 -0.26136,0.20909 -0.78408,0.31363 -1.55073,0.31363 l -0.99317,0 c -0.74923,0 -1.27195,-0.13939 -1.51589,-0.4356 -0.27878,-0.27878 -0.41817,-0.81892 -0.41817,-1.603 z"
             style="font-style:normal;font-variant:normal;font-weight:800;font-stretch:normal;line-height:102.99999714%;font-family:'QUIZ SHOW';-inkscape-font-specification:'QUIZ SHOW Ultra-Bold';text-align:center;text-anchor:middle;fill:#ee2929;fill-opacity:1;stroke:#ee2929;stroke-opacity:1"
             id="path4224"
             inkscape:connector-curvature="0" />
          <path
             d="m -317.69623,475.74793 0,-3.22343 c 0,-0.8015 0.13939,-1.32422 0.41818,-1.62043 0.24393,-0.27879 0.76665,-0.41818 1.51588,-0.41818 l 1.06287,0 c 0.74923,0 1.25452,0.13939 1.53331,0.41818 0.26135,0.29621 0.38332,0.81893 0.38332,1.62043 l 0,3.22343 c 0,0.78408 -0.12197,1.3068 -0.38332,1.58559 -0.27879,0.2962 -0.78408,0.43559 -1.53331,0.43559 l -1.06287,0 c -0.74923,0 -1.27195,-0.13939 -1.51588,-0.43559 -0.27879,-0.27879 -0.41818,-0.80151 -0.41818,-1.58559 z m 1.70755,6.13324 1.51589,0 c 2.23027,-0.0174 3.81585,-0.4356 4.82644,-1.27195 1.01059,-0.83635 1.49846,-2.35223 1.49846,-4.5825 l 0,-3.74616 c 0,-2.24769 -0.48787,-3.781 -1.49846,-4.63477 -1.01059,-0.85378 -2.59617,-1.28938 -4.82644,-1.28938 l -1.51589,0 c -2.23027,0 -3.83327,0.4356 -4.84386,1.28938 -0.99317,0.85377 -1.48104,2.38708 -1.48104,4.63477 l 0,3.74616 c 0,2.23027 0.48787,3.74615 1.48104,4.5825 1.01059,0.83635 2.61359,1.25453 4.84386,1.27195 z"
             style="font-style:normal;font-variant:normal;font-weight:800;font-stretch:normal;line-height:102.99999714%;font-family:'QUIZ SHOW';-inkscape-font-specification:'QUIZ SHOW Ultra-Bold';text-align:center;text-anchor:middle;fill:#ee2929;fill-opacity:1;stroke:#ee2929;stroke-opacity:1"
             id="path4226"
             inkscape:connector-curvature="0" />
          <path
             d="m -302.57902,476.96761 2.09087,0 2.19542,3.55449 c 0.31364,0.48787 0.60984,0.85378 0.85378,1.08029 0.20909,0.20909 0.60984,0.31363 1.13256,0.29621 l 1.46361,0 c 0.52272,-0.0174 0.92347,-0.12197 1.14998,-0.31363 0.20909,-0.22652 0.31363,-0.575 0.29621,-1.02802 0,-0.40075 -0.13939,-0.76665 -0.40075,-1.13256 l -2.02118,-3.25828 c 0.33105,-0.15682 0.60984,-0.34848 0.85377,-0.55757 1.04544,-0.90604 1.56816,-2.21284 1.56816,-3.93782 0,-1.70755 -0.52272,-3.04919 -1.56816,-3.93781 -1.02801,-0.90605 -2.82268,-1.35908 -5.34916,-1.35908 l -5.47113,0 c -0.60983,0 -1.04543,0.1394 -1.34164,0.4356 -0.29621,0.27879 -0.41818,0.71439 -0.41818,1.27195 l 0,12.47557 c 0.0174,0.45302 0.12197,0.81893 0.36591,1.04544 0.22651,0.20909 0.60984,0.31363 1.14998,0.29621 l 1.65528,0 c 0.52272,-0.0174 0.92347,-0.12197 1.14998,-0.31363 0.20909,-0.22652 0.31363,-0.575 0.29621,-1.02802 l 0,-3.25828 c 0,-0.0697 0.0348,-0.13939 0.0871,-0.22651 0.0523,-0.0697 0.13939,-0.10455 0.26136,-0.10455 z m 4.28629,-5.29689 c 0,0.4356 -0.15681,0.73181 -0.47044,0.90605 -0.29621,0.19166 -0.78408,0.27878 -1.48104,0.27878 l -2.33481,0 c -0.12197,0 -0.20909,-0.0348 -0.26136,-0.12196 -0.0523,-0.0697 -0.0871,-0.1394 -0.0871,-0.22652 l 0,-1.65527 c 0,-0.0871 0.0348,-0.1394 0.0871,-0.22652 0.0523,-0.0871 0.13939,-0.12196 0.26136,-0.12196 l 2.33481,0 c 0.69696,0 1.18483,0.0871 1.48104,0.24393 0.31363,0.17424 0.47044,0.48787 0.47044,0.92347 z"
             style="font-style:normal;font-variant:normal;font-weight:800;font-stretch:normal;line-height:102.99999714%;font-family:'QUIZ SHOW';-inkscape-font-specification:'QUIZ SHOW Ultra-Bold';text-align:center;text-anchor:middle;fill:#ee2929;fill-opacity:1;stroke:#ee2929;stroke-opacity:1"
             id="path4228"
             inkscape:connector-curvature="0" />
          <path
             d="m -278.52414,467.83745 c -0.0174,-0.54014 -0.13939,-0.92347 -0.34848,-1.14998 -0.24393,-0.22652 -0.67953,-0.33106 -1.3068,-0.31364 l -1.2371,0 c -0.52272,0.0174 -0.90605,0.12197 -1.11513,0.33106 -0.22651,0.22651 -0.34848,0.59242 -0.33106,1.13256 l 0,6.35975 -5.41885,-7.03929 c -0.0871,-0.10454 -0.24394,-0.27878 -0.45303,-0.48787 -0.20909,-0.20909 -0.60984,-0.31363 -1.2371,-0.29621 l -1.2371,0 c -0.54015,0.0174 -0.90605,0.12197 -1.13256,0.33106 -0.22651,0.22651 -0.33106,0.59242 -0.31363,1.13256 l 0,12.7195 c 0.0174,0.45302 0.12197,0.81893 0.3659,1.04544 0.22651,0.20909 0.60984,0.31363 1.13256,0.29621 l 1.39392,0 c 0.52272,-0.0174 0.90604,-0.12197 1.13256,-0.31363 0.22651,-0.22652 0.33105,-0.575 0.31363,-1.02802 l 0,-6.37717 5.38401,6.95216 c 0.12196,0.15682 0.27878,0.33106 0.47044,0.5053 0.20909,0.19166 0.59242,0.27878 1.11514,0.26136 l 1.37649,0 c 0.52272,-0.0174 0.92347,-0.12197 1.13256,-0.31363 0.22651,-0.22652 0.33106,-0.575 0.31363,-1.02802 l 0,-12.7195 z"
             style="font-style:normal;font-variant:normal;font-weight:800;font-stretch:normal;line-height:102.99999714%;font-family:'QUIZ SHOW';-inkscape-font-specification:'QUIZ SHOW Ultra-Bold';text-align:center;text-anchor:middle;fill:#ee2929;fill-opacity:1;stroke:#ee2929;stroke-opacity:1"
             id="path4230"
             inkscape:connector-curvature="0" />
        </g>
        <g
           id="text4195"
           style="font-style:normal;font-weight:normal;font-size:17.42397499px;line-height:102.99999714%;font-family:sans-serif;letter-spacing:0px;word-spacing:0px;fill:#ffffff;fill-opacity:1;stroke:#ee2929;stroke-width:1px;stroke-linecap:butt;stroke-linejoin:miter;stroke-opacity:1"
           transform="matrix(0.71403894,0.1836661,-0.16647212,0.80337903,149.99106,156.33103)">
          <path
             inkscape:connector-curvature="0"
             id="path4202"
             style="font-style:normal;font-variant:normal;font-weight:800;font-stretch:normal;line-height:102.99999714%;font-family:'QUIZ SHOW';-inkscape-font-specification:'QUIZ SHOW Ultra-Bold';text-align:center;text-anchor:middle;fill:#ffffff;fill-opacity:1;stroke:#ee2929;stroke-opacity:1"
             d="m -324.81841,459.02092 2.26511,0 c 2.52648,0 4.32115,-0.45303 5.34916,-1.35907 1.04544,-0.90605 1.56816,-2.21285 1.56816,-3.93782 0,-1.70755 -0.52272,-3.0492 -1.56816,-3.93782 -1.02801,-0.90605 -2.82268,-1.35907 -5.34916,-1.35907 l -5.47113,0 c -0.60983,0 -1.04543,0.13939 -1.34164,0.4356 -0.29621,0.27878 -0.41818,0.71438 -0.41818,1.27195 l 0,12.47557 c 0.0174,0.45302 0.12197,0.81892 0.36591,1.04544 0.22651,0.20908 0.60984,0.31363 1.14998,0.2962 l 1.65528,0 c 0.52272,-0.0174 0.92347,-0.12196 1.14998,-0.31363 0.20909,-0.22651 0.31363,-0.57499 0.29621,-1.02801 l 0,-3.25829 c 0,-0.0697 0.0348,-0.13939 0.0871,-0.22651 0.0523,-0.0697 0.13939,-0.10454 0.26136,-0.10454 z m 4.28629,-5.29689 c 0,0.4356 -0.15681,0.73181 -0.47044,0.90605 -0.29621,0.19166 -0.78408,0.27878 -1.48104,0.27878 l -2.33481,0 c -0.12197,0 -0.20909,-0.0349 -0.26136,-0.12197 -0.0523,-0.0697 -0.0871,-0.13939 -0.0871,-0.22651 l 0,-1.65528 c 0,-0.0871 0.0348,-0.13939 0.0871,-0.22651 0.0523,-0.0871 0.13939,-0.12197 0.26136,-0.12197 l 2.33481,0 c 0.69696,0 1.18483,0.0871 1.48104,0.24394 0.31363,0.17424 0.47044,0.48787 0.47044,0.92347 z m -4.28629,5.29689 2.26511,0 c 2.52648,0 4.32115,-0.45303 5.34916,-1.35907 1.04544,-0.90605 1.56816,-2.21285 1.56816,-3.93782 0,-1.70755 -0.52272,-3.0492 -1.56816,-3.93782 -1.02801,-0.90605 -2.82268,-1.35907 -5.34916,-1.35907 l -5.47113,0 c -0.60983,0 -1.04543,0.13939 -1.34164,0.4356 -0.29621,0.27878 -0.41818,0.71438 -0.41818,1.27195 l 0,12.47557 c 0.0174,0.45302 0.12197,0.81892 0.36591,1.04544 0.22651,0.20908 0.60984,0.31363 1.14998,0.2962 l 1.65528,0 c 0.52272,-0.0174 0.92347,-0.12196 1.14998,-0.31363 0.20909,-0.22651 0.31363,-0.57499 0.29621,-1.02801 l 0,-3.25829 c 0,-0.0697 0.0348,-0.13939 0.0871,-0.22651 0.0523,-0.0697 0.13939,-0.10454 0.26136,-0.10454 z m 4.28629,-5.29689 c 0,0.4356 -0.15681,0.73181 -0.47044,0.90605 -0.29621,0.19166 -0.78408,0.27878 -1.48104,0.27878 l -2.33481,0 c -0.12197,0 -0.20909,-0.0349 -0.26136,-0.12197 -0.0523,-0.0697 -0.0871,-0.13939 -0.0871,-0.22651 l 0,-1.65528 c 0,-0.0871 0.0348,-0.13939 0.0871,-0.22651 0.0523,-0.0871 0.13939,-0.12197 0.26136,-0.12197 l 2.33481,0 c 0.69696,0 1.18483,0.0871 1.48104,0.24394 0.31363,0.17424 0.47044,0.48787 0.47044,0.92347 z" />
          <path
             inkscape:connector-curvature="0"
             id="path4204"
             style="font-style:normal;font-variant:normal;font-weight:800;font-stretch:normal;line-height:102.99999714%;font-family:'QUIZ SHOW';-inkscape-font-specification:'QUIZ SHOW Ultra-Bold';text-align:center;text-anchor:middle;fill:#ffffff;fill-opacity:1;stroke:#ee2929;stroke-opacity:1"
             d="m -310.29444,457.80124 0,-3.22344 c 0,-0.8015 0.13939,-1.32422 0.41817,-1.62043 0.24394,-0.27878 0.76666,-0.41817 1.51589,-0.41817 l 1.06286,0 c 0.74923,0 1.25453,0.13939 1.53331,0.41817 0.26136,0.29621 0.38333,0.81893 0.38333,1.62043 l 0,3.22344 c 0,0.78408 -0.12197,1.3068 -0.38333,1.58558 -0.27878,0.29621 -0.78408,0.4356 -1.53331,0.4356 l -1.06286,0 c -0.74923,0 -1.27195,-0.13939 -1.51589,-0.4356 -0.27878,-0.27878 -0.41817,-0.8015 -0.41817,-1.58558 z m 1.70755,6.13324 1.51588,0 c 2.23027,-0.0174 3.81585,-0.4356 4.82644,-1.27195 1.0106,-0.83635 1.49847,-2.35224 1.49847,-4.58251 l 0,-3.74615 c 0,-2.24769 -0.48787,-3.781 -1.49847,-4.63478 -1.01059,-0.85377 -2.59617,-1.28937 -4.82644,-1.28937 l -1.51588,0 c -2.23027,0 -3.83328,0.4356 -4.84387,1.28937 -0.99316,0.85378 -1.48104,2.38709 -1.48104,4.63478 l 0,3.74615 c 0,2.23027 0.48788,3.74616 1.48104,4.58251 1.01059,0.83635 2.6136,1.25453 4.84387,1.27195 z" />
          <path
             inkscape:connector-curvature="0"
             id="path4206"
             style="font-style:normal;font-variant:normal;font-weight:800;font-stretch:normal;line-height:102.99999714%;font-family:'QUIZ SHOW';-inkscape-font-specification:'QUIZ SHOW Ultra-Bold';text-align:center;text-anchor:middle;fill:#ffffff;fill-opacity:1;stroke:#ee2929;stroke-opacity:1"
             d="m -295.17724,459.02092 2.26512,0 c 2.52648,0 4.32114,-0.45303 5.34916,-1.35907 1.04544,-0.90605 1.56816,-2.21285 1.56816,-3.93782 0,-1.70755 -0.52272,-3.0492 -1.56816,-3.93782 -1.02802,-0.90605 -2.82268,-1.35907 -5.34916,-1.35907 l -5.47113,0 c -0.60984,0 -1.04544,0.13939 -1.34165,0.4356 -0.2962,0.27878 -0.41817,0.71438 -0.41817,1.27195 l 0,12.47557 c 0.0174,0.45302 0.12197,0.81892 0.3659,1.04544 0.22651,0.20908 0.60984,0.31363 1.14999,0.2962 l 1.65527,0 c 0.52272,-0.0174 0.92347,-0.12196 1.14999,-0.31363 0.20908,-0.22651 0.31363,-0.57499 0.2962,-1.02801 l 0,-3.25829 c 0,-0.0697 0.0349,-0.13939 0.0871,-0.22651 0.0523,-0.0697 0.13939,-0.10454 0.26136,-0.10454 z m 4.2863,-5.29689 c 0,0.4356 -0.15682,0.73181 -0.47045,0.90605 -0.2962,0.19166 -0.78408,0.27878 -1.48104,0.27878 l -2.33481,0 c -0.12197,0 -0.20909,-0.0349 -0.26136,-0.12197 -0.0523,-0.0697 -0.0871,-0.13939 -0.0871,-0.22651 l 0,-1.65528 c 0,-0.0871 0.0349,-0.13939 0.0871,-0.22651 0.0523,-0.0871 0.13939,-0.12197 0.26136,-0.12197 l 2.33481,0 c 0.69696,0 1.18484,0.0871 1.48104,0.24394 0.31363,0.17424 0.47045,0.48787 0.47045,0.92347 z m -4.2863,5.29689 2.26512,0 c 2.52648,0 4.32114,-0.45303 5.34916,-1.35907 1.04544,-0.90605 1.56816,-2.21285 1.56816,-3.93782 0,-1.70755 -0.52272,-3.0492 -1.56816,-3.93782 -1.02802,-0.90605 -2.82268,-1.35907 -5.34916,-1.35907 l -5.47113,0 c -0.60984,0 -1.04544,0.13939 -1.34165,0.4356 -0.2962,0.27878 -0.41817,0.71438 -0.41817,1.27195 l 0,12.47557 c 0.0174,0.45302 0.12197,0.81892 0.3659,1.04544 0.22651,0.20908 0.60984,0.31363 1.14999,0.2962 l 1.65527,0 c 0.52272,-0.0174 0.92347,-0.12196 1.14999,-0.31363 0.20908,-0.22651 0.31363,-0.57499 0.2962,-1.02801 l 0,-3.25829 c 0,-0.0697 0.0349,-0.13939 0.0871,-0.22651 0.0523,-0.0697 0.13939,-0.10454 0.26136,-0.10454 z m 4.2863,-5.29689 c 0,0.4356 -0.15682,0.73181 -0.47045,0.90605 -0.2962,0.19166 -0.78408,0.27878 -1.48104,0.27878 l -2.33481,0 c -0.12197,0 -0.20909,-0.0349 -0.26136,-0.12197 -0.0523,-0.0697 -0.0871,-0.13939 -0.0871,-0.22651 l 0,-1.65528 c 0,-0.0871 0.0349,-0.13939 0.0871,-0.22651 0.0523,-0.0871 0.13939,-0.12197 0.26136,-0.12197 l 2.33481,0 c 0.69696,0 1.18484,0.0871 1.48104,0.24394 0.31363,0.17424 0.47045,0.48787 0.47045,0.92347 z" />
          <path
             inkscape:connector-curvature="0"
             id="path4208"
             style="font-style:normal;font-variant:normal;font-weight:800;font-stretch:normal;line-height:102.99999714%;font-family:'QUIZ SHOW';-inkscape-font-specification:'QUIZ SHOW Ultra-Bold';text-align:center;text-anchor:middle;fill:#ffffff;fill-opacity:1;stroke:#ee2929;stroke-opacity:1"
             d="m -332.53383,475.19037 0,-2.12573 c 0,-0.8015 0.13939,-1.32422 0.41817,-1.62043 0.24394,-0.26136 0.76666,-0.40075 1.51589,-0.41817 l 0.99317,0 c 0.76665,0.0174 1.28937,0.12196 1.56815,0.33105 0.27879,0.20909 0.40076,0.5053 0.40076,0.85378 0.0174,0.55756 0.13939,0.92347 0.34847,1.13255 0.20909,0.20909 0.55757,0.29621 1.08029,0.29621 l 1.77725,0 c 0.54014,0 0.92347,-0.0871 1.11513,-0.29621 0.20909,-0.20908 0.31363,-0.57499 0.31363,-1.13255 0,-2.19542 -0.50529,-3.71131 -1.51588,-4.56508 -0.99317,-0.85378 -2.6136,-1.28938 -4.80902,-1.28938 l -1.49846,0 c -2.23027,0 -3.83328,0.4356 -4.84387,1.28938 -0.99316,0.85377 -1.48104,2.38708 -1.48104,4.63477 l 0,3.74616 c 0,2.23027 0.48788,3.74615 1.48104,4.5825 1.01059,0.83635 2.6136,1.25453 4.84387,1.27195 l 1.49846,0 c 2.19542,0 3.81585,-0.41817 4.80902,-1.25452 1.01059,-0.83635 1.51588,-2.36966 1.51588,-4.59993 0,-0.48787 -0.10454,-0.8712 -0.31363,-1.08029 -0.19166,-0.22651 -0.57499,-0.34848 -1.11513,-0.34848 l -1.77725,0 c -0.52272,0 -0.8712,0.12197 -1.09771,0.34848 -0.22651,0.20909 -0.33105,0.59242 -0.33105,1.08029 -0.0174,0.40075 -0.15682,0.67953 -0.41818,0.88862 -0.26136,0.20909 -0.78408,0.31363 -1.55073,0.31363 l -0.99317,0 c -0.74923,0 -1.27195,-0.13939 -1.51589,-0.4356 -0.27878,-0.27878 -0.41817,-0.81892 -0.41817,-1.603 z" />
          <path
             inkscape:connector-curvature="0"
             id="path4210"
             style="font-style:normal;font-variant:normal;font-weight:800;font-stretch:normal;line-height:102.99999714%;font-family:'QUIZ SHOW';-inkscape-font-specification:'QUIZ SHOW Ultra-Bold';text-align:center;text-anchor:middle;fill:#ffffff;fill-opacity:1;stroke:#ee2929;stroke-opacity:1"
             d="m -317.69623,475.74793 0,-3.22343 c 0,-0.8015 0.13939,-1.32422 0.41818,-1.62043 0.24393,-0.27879 0.76665,-0.41818 1.51588,-0.41818 l 1.06287,0 c 0.74923,0 1.25452,0.13939 1.53331,0.41818 0.26135,0.29621 0.38332,0.81893 0.38332,1.62043 l 0,3.22343 c 0,0.78408 -0.12197,1.3068 -0.38332,1.58559 -0.27879,0.2962 -0.78408,0.43559 -1.53331,0.43559 l -1.06287,0 c -0.74923,0 -1.27195,-0.13939 -1.51588,-0.43559 -0.27879,-0.27879 -0.41818,-0.80151 -0.41818,-1.58559 z m 1.70755,6.13324 1.51589,0 c 2.23027,-0.0174 3.81585,-0.4356 4.82644,-1.27195 1.01059,-0.83635 1.49846,-2.35223 1.49846,-4.5825 l 0,-3.74616 c 0,-2.24769 -0.48787,-3.781 -1.49846,-4.63477 -1.01059,-0.85378 -2.59617,-1.28938 -4.82644,-1.28938 l -1.51589,0 c -2.23027,0 -3.83327,0.4356 -4.84386,1.28938 -0.99317,0.85377 -1.48104,2.38708 -1.48104,4.63477 l 0,3.74616 c 0,2.23027 0.48787,3.74615 1.48104,4.5825 1.01059,0.83635 2.61359,1.25453 4.84386,1.27195 z" />
          <path
             inkscape:connector-curvature="0"
             id="path4212"
             style="font-style:normal;font-variant:normal;font-weight:800;font-stretch:normal;line-height:102.99999714%;font-family:'QUIZ SHOW';-inkscape-font-specification:'QUIZ SHOW Ultra-Bold';text-align:center;text-anchor:middle;fill:#ffffff;fill-opacity:1;stroke:#ee2929;stroke-opacity:1"
             d="m -302.57902,476.96761 2.09087,0 2.19542,3.55449 c 0.31364,0.48787 0.60984,0.85378 0.85378,1.08029 0.20909,0.20909 0.60984,0.31363 1.13256,0.29621 l 1.46361,0 c 0.52272,-0.0174 0.92347,-0.12197 1.14998,-0.31363 0.20909,-0.22652 0.31363,-0.575 0.29621,-1.02802 0,-0.40075 -0.13939,-0.76665 -0.40075,-1.13256 l -2.02118,-3.25828 c 0.33105,-0.15682 0.60984,-0.34848 0.85377,-0.55757 1.04544,-0.90604 1.56816,-2.21284 1.56816,-3.93782 0,-1.70755 -0.52272,-3.04919 -1.56816,-3.93781 -1.02801,-0.90605 -2.82268,-1.35908 -5.34916,-1.35908 l -5.47113,0 c -0.60983,0 -1.04543,0.1394 -1.34164,0.4356 -0.29621,0.27879 -0.41818,0.71439 -0.41818,1.27195 l 0,12.47557 c 0.0174,0.45302 0.12197,0.81893 0.36591,1.04544 0.22651,0.20909 0.60984,0.31363 1.14998,0.29621 l 1.65528,0 c 0.52272,-0.0174 0.92347,-0.12197 1.14998,-0.31363 0.20909,-0.22652 0.31363,-0.575 0.29621,-1.02802 l 0,-3.25828 c 0,-0.0697 0.0348,-0.13939 0.0871,-0.22651 0.0523,-0.0697 0.13939,-0.10455 0.26136,-0.10455 z m 4.28629,-5.29689 c 0,0.4356 -0.15681,0.73181 -0.47044,0.90605 -0.29621,0.19166 -0.78408,0.27878 -1.48104,0.27878 l -2.33481,0 c -0.12197,0 -0.20909,-0.0348 -0.26136,-0.12196 -0.0523,-0.0697 -0.0871,-0.1394 -0.0871,-0.22652 l 0,-1.65527 c 0,-0.0871 0.0348,-0.1394 0.0871,-0.22652 0.0523,-0.0871 0.13939,-0.12196 0.26136,-0.12196 l 2.33481,0 c 0.69696,0 1.18483,0.0871 1.48104,0.24393 0.31363,0.17424 0.47044,0.48787 0.47044,0.92347 z" />
          <path
             inkscape:connector-curvature="0"
             id="path4214"
             style="font-style:normal;font-variant:normal;font-weight:800;font-stretch:normal;line-height:102.99999714%;font-family:'QUIZ SHOW';-inkscape-font-specification:'QUIZ SHOW Ultra-Bold';text-align:center;text-anchor:middle;fill:#ffffff;fill-opacity:1;stroke:#ee2929;stroke-opacity:1"
             d="m -278.52414,467.83745 c -0.0174,-0.54014 -0.13939,-0.92347 -0.34848,-1.14998 -0.24393,-0.22652 -0.67953,-0.33106 -1.3068,-0.31364 l -1.2371,0 c -0.52272,0.0174 -0.90605,0.12197 -1.11513,0.33106 -0.22651,0.22651 -0.34848,0.59242 -0.33106,1.13256 l 0,6.35975 -5.41885,-7.03929 c -0.0871,-0.10454 -0.24394,-0.27878 -0.45303,-0.48787 -0.20909,-0.20909 -0.60984,-0.31363 -1.2371,-0.29621 l -1.2371,0 c -0.54015,0.0174 -0.90605,0.12197 -1.13256,0.33106 -0.22651,0.22651 -0.33106,0.59242 -0.31363,1.13256 l 0,12.7195 c 0.0174,0.45302 0.12197,0.81893 0.3659,1.04544 0.22651,0.20909 0.60984,0.31363 1.13256,0.29621 l 1.39392,0 c 0.52272,-0.0174 0.90604,-0.12197 1.13256,-0.31363 0.22651,-0.22652 0.33105,-0.575 0.31363,-1.02802 l 0,-6.37717 5.38401,6.95216 c 0.12196,0.15682 0.27878,0.33106 0.47044,0.5053 0.20909,0.19166 0.59242,0.27878 1.11514,0.26136 l 1.37649,0 c 0.52272,-0.0174 0.92347,-0.12197 1.13256,-0.31363 0.22651,-0.22652 0.33106,-0.575 0.31363,-1.02802 l 0,-12.7195 z" />
        </g>
        <g
           id="text4232"
           style="font-style:normal;font-weight:normal;font-size:10.39396667px;line-height:125%;font-family:sans-serif;letter-spacing:0px;word-spacing:0px;fill:#ee2929;fill-opacity:1;stroke:#ee2929;stroke-width:0.31262702;stroke-linecap:butt;stroke-linejoin:miter;stroke-miterlimit:4;stroke-dasharray:none;stroke-opacity:1"
           transform="matrix(1.0138232,0.23354208,-0.21667606,0.93645224,166.53,-3.030502)">
          <path
             id="path4241"
             style="font-style:normal;font-variant:normal;font-weight:300;font-stretch:normal;font-family:Noteworthy;-inkscape-font-specification:'Noteworthy Light';fill:#ee2929;fill-opacity:1;stroke:#ee2929;stroke-width:0.31262702;stroke-miterlimit:4;stroke-dasharray:none;stroke-opacity:1"
             d="m -195.21369,529.16352 q 0,0.25985 -0.38977,0.25985 -0.0779,0 -0.11693,-0.026 -0.052,-0.54569 -0.72758,-0.54569 -0.63663,0 -0.98743,1.45516 -0.23386,1.0264 -0.23386,1.96186 0.091,-0.013 0.23386,0 0.31182,0 0.3508,0 0.48072,0 0.48072,0.28584 0,0.0909 -0.026,0.25984 -0.20788,0.11694 -0.64963,0.11694 -0.3378,0 -0.41576,0.052 -0.039,0.5067 -0.039,1.83193 l 0,0.93546 q 0,0.62364 0.14291,1.26027 0.026,0.065 0.026,0.11693 0,0.31182 -0.44174,0.31182 -0.38978,0 -0.38978,-1.05239 0,-2.85834 0.052,-3.37804 0.026,0 -0.66261,0 -0.29883,0 -0.29883,-0.28583 0,-0.37678 0.5197,-0.37678 l 0.46773,0 q 0.026,-0.25985 0.052,-0.66262 0.19488,-3.45599 1.93587,-3.45599 1.11735,0 1.11735,0.93545 z"
             inkscape:connector-curvature="0" />
          <path
             id="path4243"
             style="font-style:normal;font-variant:normal;font-weight:300;font-stretch:normal;font-family:Noteworthy;-inkscape-font-specification:'Noteworthy Light';fill:#ee2929;fill-opacity:1;stroke:#ee2929;stroke-width:0.31262702;stroke-miterlimit:4;stroke-dasharray:none;stroke-opacity:1"
             d="m -193.1357,532.55456 q 0,0.052 -0.013,0.22087 -0.1689,0.25985 -0.32481,0.25985 -0.10394,0 -0.18189,-0.12993 -0.039,-0.81852 -0.67561,-0.81852 -0.41576,0 -0.81853,1.53311 -0.15591,0.55867 -0.15591,1.49413 0,1.19531 0.065,1.46815 0.013,0.039 0.065,0.1689 0.052,0.11693 0.052,0.18189 0,0.28584 -0.38977,0.28584 -0.44175,0 -0.44175,-0.45474 0,-0.065 0.026,-0.18189 0.039,-0.12993 0.039,-0.19489 0,-0.71458 -0.065,-2.14375 -0.065,-1.42918 -0.065,-2.14376 0,-0.25985 0.0909,-0.31182 0.0909,-0.065 0.35079,-0.065 0.32481,0 0.37678,0.23386 0.013,0.25985 0.026,0.50671 0.3378,-0.5197 0.38977,-0.58466 0.28584,-0.32481 0.59766,-0.32481 0.23386,0 0.46772,0.14291 0.12993,0.078 0.3508,0.40277 0.23387,0.32481 0.23387,0.45474 z"
             inkscape:connector-curvature="0" />
          <path
             id="path4245"
             style="font-style:normal;font-variant:normal;font-weight:300;font-stretch:normal;font-family:Noteworthy;-inkscape-font-specification:'Noteworthy Light';fill:#ee2929;fill-opacity:1;stroke:#ee2929;stroke-width:0.31262702;stroke-miterlimit:4;stroke-dasharray:none;stroke-opacity:1"
             d="m -189.08693,535.89362 q 0,0.57167 -0.76655,1.0264 -0.68861,0.41576 -1.29925,0.41576 -1.74099,0 -1.74099,-2.20872 0,-0.97443 0.3508,-2.09178 0.46772,-1.45516 1.1953,-1.45516 0.62364,0 1.36421,0.63663 0.74057,0.62364 0.74057,1.24728 0,0.80553 -0.64962,1.40318 -0.64963,0.59766 -1.46815,0.59766 -0.0779,0 -0.3378,-0.12993 -0.24686,-0.12992 -0.33781,-0.12992 -0.1689,0 -0.1689,0.10394 0,1.49413 0.98743,1.49413 0.5067,0 0.93545,-0.3378 0.25985,-0.19489 0.57167,-0.61065 0.24686,-0.32481 0.32481,-0.32481 0.29883,0 0.29883,0.36379 z m -0.89648,-2.39062 q 0,-0.45473 -0.25985,-0.8445 -0.25985,-0.40277 -0.6886,-0.40277 -0.5197,0 -0.84451,0.64962 -0.27284,0.54569 -0.27284,1.13035 0,0.37678 0.23386,0.63663 0.24686,0.24685 0.62364,0.24685 0.53269,0 0.88349,-0.45473 0.32481,-0.41576 0.32481,-0.96145 z"
             inkscape:connector-curvature="0" />
          <path
             id="path4247"
             style="font-style:normal;font-variant:normal;font-weight:300;font-stretch:normal;font-family:Noteworthy;-inkscape-font-specification:'Noteworthy Light';fill:#ee2929;fill-opacity:1;stroke:#ee2929;stroke-width:0.31262702;stroke-miterlimit:4;stroke-dasharray:none;stroke-opacity:1"
             d="m -184.72309,536.41332 q 0,0.45473 -0.6886,0.76655 -0.57167,0.24686 -1.10436,0.24686 -0.35079,0 -0.80553,-0.1689 -0.24686,-0.10394 -0.79254,-0.54569 -0.59765,-0.48072 -0.59765,-0.66261 0,-0.40277 0.48072,-0.36379 l 0.078,0 q 0.026,0.38977 0.83152,0.84451 0.72758,0.41576 1.16932,0.41576 0.57167,0 0.57167,-0.38978 0,-0.23386 -0.70159,-0.64962 -0.96144,-0.55868 -1.31224,-0.89648 -0.71459,-0.6886 -0.71459,-1.58508 0,-0.67561 0.3508,-1.28625 0.40277,-0.72758 1.01341,-0.72758 0.44175,0 1.06538,0.41576 0.62364,0.40276 0.72758,0.81852 0.10394,0.3508 0.10394,0.81853 0,0.5067 -0.18189,1.10436 -0.11694,0.0909 -0.27285,0.0909 -0.0909,0 -0.28583,-0.065 -0.19489,-0.0779 -0.19489,-0.15591 0,0.052 0.14292,-0.28583 0.10394,-0.22087 0.10394,-0.80553 0,-1.3902 -0.87049,-1.3902 -0.45474,0 -0.72758,0.61065 -0.23387,0.49371 -0.23387,1.00042 0,0.63663 0.74057,1.23428 0.24686,0.20788 1.36421,0.89648 0.74057,0.45474 0.74057,0.71459 z"
             inkscape:connector-curvature="0" />
          <path
             id="path4249"
             style="font-style:normal;font-variant:normal;font-weight:300;font-stretch:normal;font-family:Noteworthy;-inkscape-font-specification:'Noteworthy Light';fill:#ee2929;fill-opacity:1;stroke:#ee2929;stroke-width:0.31262702;stroke-miterlimit:4;stroke-dasharray:none;stroke-opacity:1"
             d="m -180.56794,537.53067 q -0.10394,0.10394 -0.38977,0.10394 -0.14292,0 -0.29883,-0.1819 0.013,-1.11735 0.013,-1.77996 0,-3.30009 -1.10435,-3.30009 -0.46773,0 -0.77955,0.54568 -0.27284,0.46773 -0.27284,0.96145 0,0.052 -0.039,0.1689 -0.026,0.10394 -0.026,0.15591 l 0,1.66303 q 0,0.22087 0.065,0.63663 0.065,0.41576 0.065,0.62364 0,0.20788 -0.31182,0.20788 -0.22087,0 -0.37678,-0.20788 -0.14292,-0.20788 -0.14292,-0.42875 l 0.078,-7.99036 q -0.026,-0.078 -0.026,-0.15591 0,-0.23387 0.25985,-0.23387 0.12993,0 0.37678,0.1819 0.25985,0.1689 0.25985,0.28583 0,0.31182 -0.12992,0.89648 -0.11694,0.58466 -0.11694,0.88349 0,0.026 0.026,1.728 0.48072,-0.42875 0.74057,-0.42875 0.41576,0 1.00042,0.24685 1.13034,0.46773 1.13034,2.46857 l 0,2.94929 z"
             inkscape:connector-curvature="0" />
        </g>
        <g
           id="text4236"
           style="font-style:normal;font-weight:normal;font-size:10.39396667px;line-height:125%;font-family:sans-serif;letter-spacing:0px;word-spacing:0px;fill:#ee2929;fill-opacity:1;stroke:#ee2929;stroke-width:0.31262702;stroke-linecap:butt;stroke-linejoin:miter;stroke-miterlimit:4;stroke-dasharray:none;stroke-opacity:1"
           transform="matrix(1.0138232,0.23354208,-0.21667606,0.93645224,166.53,-3.030502)">
          <path
             id="path4252"
             style="font-style:normal;font-variant:normal;font-weight:300;font-stretch:normal;font-family:Noteworthy;-inkscape-font-specification:'Noteworthy Light';fill:#ee2929;fill-opacity:1;stroke:#ee2929;stroke-width:0.31262702;stroke-miterlimit:4;stroke-dasharray:none;stroke-opacity:1"
             d="m -197.42372,578.28213 q -0.10394,0.078 -0.49372,0.12993 -0.42875,0.052 -0.49371,0.0909 -0.013,0.14292 -0.013,1.44217 0,1.01341 0.026,1.3642 0,0.14292 0.065,0.45474 0.065,0.31182 0.065,0.48072 0,0.10394 -0.12993,0.20788 -0.12992,0.10394 -0.23386,0.10394 -0.25985,0 -0.41576,-0.53269 -0.10394,-0.38977 -0.10394,-0.74057 0,-1.83194 0.026,-2.70243 -0.0779,-0.065 -0.59765,0 -0.41576,0.052 -0.41576,-0.29883 0,-0.49371 1.05239,-0.45473 l 0.1689,-2.35164 q 0,-0.039 -0.039,-0.11693 -0.026,-0.091 -0.026,-0.12993 0,-0.0779 0.10394,-0.14291 0.10394,-0.078 0.24686,-0.065 0.45473,0.039 0.45473,0.45474 0,0.32481 -0.0909,0.97443 -0.091,0.64963 -0.091,0.96145 0,0.15591 0.026,0.29882 l 0.71459,-0.039 q 0.36379,0 0.36379,0.28583 0,0.20788 -0.1689,0.32481 z"
             inkscape:connector-curvature="0" />
          <path
             id="path4254"
             style="font-style:normal;font-variant:normal;font-weight:300;font-stretch:normal;font-family:Noteworthy;-inkscape-font-specification:'Noteworthy Light';fill:#ee2929;fill-opacity:1;stroke:#ee2929;stroke-width:0.31262702;stroke-miterlimit:4;stroke-dasharray:none;stroke-opacity:1"
             d="m -193.27669,582.75154 q 0,0.18189 -0.28584,0.18189 -0.31182,0 -0.37678,-0.25985 -0.013,-0.039 -0.013,-0.5067 0,-0.12993 -0.039,-0.20788 -0.72758,0.53269 -1.57209,0.53269 -0.58466,0 -1.13034,-0.32481 -0.62364,-0.36379 -0.62364,-0.90948 0,-0.53269 0.74057,-1.03939 0.67561,-0.46773 1.24728,-0.46773 l 1.28625,0 q 0.078,-0.078 0.078,-0.27284 0,-0.8705 -0.14292,-1.31224 -0.23386,-0.74057 -0.92247,-0.74057 -0.49371,0 -0.90947,0.62364 -0.37678,0.57167 -0.37678,1.09136 0,0.026 0,0.078 0,0.052 0,0.065 0,0.10394 -0.10394,0.10394 -0.12992,0 -0.28583,-0.15591 -0.15591,-0.15591 -0.15591,-0.27284 0,-0.36379 0.22087,-0.90947 0.22087,-0.55868 0.48072,-0.84451 0.32481,-0.3508 0.80553,-0.3508 0.74057,0 1.36421,0.46773 0.66262,0.50671 0.67561,1.22129 l 0.039,4.20956 z m -0.6886,-2.0658 q 0,-0.5197 -0.80554,-0.5197 -0.63663,0 -1.11735,0.22087 -0.61064,0.28583 -0.61064,0.8575 0,0.3508 0.32481,0.54569 0.27284,0.1689 0.64962,0.1689 0.55868,0 1.05239,-0.36379 0.50671,-0.36379 0.50671,-0.90947 z"
             inkscape:connector-curvature="0" />
          <path
             id="path4256"
             style="font-style:normal;font-variant:normal;font-weight:300;font-stretch:normal;font-family:Noteworthy;-inkscape-font-specification:'Noteworthy Light';fill:#ee2929;fill-opacity:1;stroke:#ee2929;stroke-width:0.31262702;stroke-miterlimit:4;stroke-dasharray:none;stroke-opacity:1"
             d="m -188.6392,581.6082 q 0,0.45474 -0.6886,0.76656 -0.57167,0.24685 -1.10436,0.24685 -0.35079,0 -0.80553,-0.1689 -0.24686,-0.10394 -0.79254,-0.54568 -0.59765,-0.48072 -0.59765,-0.66262 0,-0.40276 0.48072,-0.36379 l 0.078,0 q 0.026,0.38978 0.83152,0.84451 0.72758,0.41576 1.16932,0.41576 0.57167,0 0.57167,-0.38977 0,-0.23387 -0.70159,-0.64963 -0.96144,-0.55867 -1.31224,-0.89647 -0.71459,-0.6886 -0.71459,-1.58508 0,-0.67561 0.3508,-1.28626 0.40277,-0.72758 1.01341,-0.72758 0.44175,0 1.06538,0.41576 0.62364,0.40277 0.72758,0.81853 0.10394,0.35079 0.10394,0.81852 0,0.50671 -0.18189,1.10436 -0.11694,0.091 -0.27285,0.091 -0.0909,0 -0.28583,-0.065 -0.19489,-0.078 -0.19489,-0.15591 0,0.052 0.14292,-0.28584 0.10394,-0.22087 0.10394,-0.80553 0,-1.39019 -0.87049,-1.39019 -0.45474,0 -0.72758,0.61064 -0.23387,0.49372 -0.23387,1.00042 0,0.63663 0.74057,1.23429 0.24686,0.20788 1.36421,0.89648 0.74057,0.45473 0.74057,0.71458 z"
             inkscape:connector-curvature="0" />
          <path
             id="path4258"
             style="font-style:normal;font-variant:normal;font-weight:300;font-stretch:normal;font-family:Noteworthy;-inkscape-font-specification:'Noteworthy Light';fill:#ee2929;fill-opacity:1;stroke:#ee2929;stroke-width:0.31262702;stroke-miterlimit:4;stroke-dasharray:none;stroke-opacity:1"
             d="m -185.83201,578.28213 q -0.10394,0.078 -0.49372,0.12993 -0.42875,0.052 -0.49371,0.0909 -0.013,0.14292 -0.013,1.44217 0,1.01341 0.026,1.3642 0,0.14292 0.065,0.45474 0.065,0.31182 0.065,0.48072 0,0.10394 -0.12993,0.20788 -0.12992,0.10394 -0.23386,0.10394 -0.25985,0 -0.41576,-0.53269 -0.10394,-0.38977 -0.10394,-0.74057 0,-1.83194 0.026,-2.70243 -0.0779,-0.065 -0.59765,0 -0.41576,0.052 -0.41576,-0.29883 0,-0.49371 1.05239,-0.45473 l 0.1689,-2.35164 q 0,-0.039 -0.039,-0.11693 -0.026,-0.091 -0.026,-0.12993 0,-0.0779 0.10394,-0.14291 0.10394,-0.078 0.24686,-0.065 0.45473,0.039 0.45473,0.45474 0,0.32481 -0.0909,0.97443 -0.0909,0.64963 -0.0909,0.96145 0,0.15591 0.026,0.29882 l 0.71459,-0.039 q 0.36379,0 0.36379,0.28583 0,0.20788 -0.1689,0.32481 z"
             inkscape:connector-curvature="0" />
          <path
             id="path4260"
             style="font-style:normal;font-variant:normal;font-weight:300;font-stretch:normal;font-family:Noteworthy;-inkscape-font-specification:'Noteworthy Light';fill:#ee2929;fill-opacity:1;stroke:#ee2929;stroke-width:0.31262702;stroke-miterlimit:4;stroke-dasharray:none;stroke-opacity:1"
             d="m -181.38535,577.28171 q -0.10394,0.57167 -0.19488,1.14334 -0.11693,0.61064 -0.11693,1.14333 l -0.013,4.06664 q 0,0.8705 -0.53269,1.3772 -0.5197,0.5197 -1.40318,0.5197 -0.48072,0 -1.07838,-0.25985 -0.6886,-0.28583 -0.94845,-0.71458 -0.065,-0.11693 -0.065,-0.23387 0,-0.37678 0.36379,-0.37678 0.078,0 0.1689,0.052 0.22087,0.23387 0.44175,0.45474 0.44174,0.40277 1.11735,0.40277 0.8575,0 1.14333,-0.59766 0.16891,-0.37678 0.16891,-1.36421 0,-0.12992 -0.052,-0.51969 -0.052,-0.32482 -0.026,-0.57167 -0.36379,0.3378 -0.5197,0.42875 -0.28583,0.18189 -0.62364,0.18189 -0.88348,0 -1.33822,-0.6886 -0.40277,-0.59765 -0.40277,-1.52011 0,-1.75399 0.052,-2.96229 0.052,-0.41575 0.45474,-0.41575 0.49371,0 0.44174,0.1689 -0.24685,0.67561 -0.24685,3.02724 0,1.81895 1.03939,1.81895 0.63663,0 1.01342,-0.97444 0.28583,-0.75356 0.27284,-1.52012 l -0.013,-1.48114 q 0.013,-0.22087 0.026,-0.55867 0.026,-0.33781 0.42875,-0.31182 0.46773,0.039 0.44174,0.28583 z"
             inkscape:connector-curvature="0" />
        </g>
        <path
           inkscape:connector-curvature="0"
           style="fill:#f7f7ed;fill-opacity:1;stroke:#000000;stroke-width:0.5"
           sodipodi:nodetypes="cccccccccc"
           d="m -184.27,546.09 c 5.1849,0.78188 4.0518,-1.0873 1.124,-3.7096 6.3178,-5.8465 -0.47802,-3.9275 -1.7326,-5.2899 1.627,-7.2112 -2.0652,-2.3233 -3.5311,-2.4994 -1.3772,-5.616 -1.6372,-1.1787 -2.3243,-0.58515 l 0.26129,4.2484 c -4.2155,-0.29255 -3.0779,1.9096 -3.7326,3.2765 0.65587,2.2262 1.1102,4.6569 3.6006,5.022 1.6998,-0.0126 3.5446,0.246 3.6764,-2.6979 z"
           id="path5037" />
        <path
           inkscape:connector-curvature="0"
           style="fill:#f7f7ed;fill-opacity:1;stroke:#000000;stroke-width:0.5"
           sodipodi:nodetypes="cccccccccc"
           d="m -224.99,572.52 c 5.1849,0.78188 4.0518,-1.0873 1.124,-3.7096 6.3178,-5.8465 -0.47802,-3.9275 -1.7326,-5.2899 1.627,-7.2112 -2.0652,-2.3233 -3.5311,-2.4994 -1.3772,-5.616 -1.6372,-1.1787 -2.3243,-0.58515 l 0.26129,4.2484 c -4.2155,-0.29255 -3.0779,1.9096 -3.7326,3.2765 0.65587,2.2262 1.1102,4.6569 3.6006,5.022 1.6998,-0.0126 3.5446,0.246 3.6764,-2.6979 z"
           id="path5039" />
        <path
           inkscape:connector-curvature="0"
           style="fill:#f7f7ed;fill-opacity:1;stroke:#000000;stroke-width:0.5"
           sodipodi:nodetypes="cccccccccc"
           d="m -203.27,558.89 c 0.78244,5.1848 2.2342,3.5507 3.8761,-0.0203 7.45,4.312 3.6117,-1.6153 4.5434,-3.2159 7.3702,-0.57267 1.6107,-2.6586 1.3465,-4.1112 4.9598,-2.9726 0.64334,-1.912 -0.12654,-2.3934 l -3.9823,1.5029 c -0.96401,-4.1142 -2.7326,-2.3776 -4.2318,-2.6 -1.9337,1.2834 -4.1221,2.4346 -3.7364,4.9218 0.51344,1.6204 0.81059,3.4595 3.6624,2.7169 z"
           id="path5195" />
        <path
           d="m -212.5,536.24 c -5.0166,1.5259 -3.1893,2.7254 0.58208,3.8322 -3.1863,7.9965 2.1219,3.3393 3.8407,4.0291 1.6352,7.2093 2.8641,1.2082 4.263,0.73621 3.6603,4.4764 1.9851,0.3593 2.3498,-0.47223 l -2.0644,-3.7223 c 3.931,-1.5504 1.9563,-3.0485 1.9589,-4.5641 -1.5502,-1.7272 -3.0065,-3.7256 -5.4115,-2.9833 -1.5289,0.74297 -3.3054,1.3036 -2.1572,4.0176 z"
           inkscape:connector-curvature="0"
           style="fill:#f7f7ed;fill-opacity:1;stroke:#000000;stroke-width:0.5"
           sodipodi:nodetypes="cccccccccc"
           id="path4775" />
      </g>
    </g>
  </g>
  <metadata
     id="metadata63">
    <rdf:RDF>
      <cc:Work>
        <dc:format>image/svg+xml</dc:format>
        <dc:type
           rdf:resource="http://purl.org/dc/dcmitype/StillImage" />
        <cc:license
           rdf:resource="http://creativecommons.org/publicdomain/zero/1.0/" />
        <dc:publisher>
          <cc:Agent
             rdf:about="http://openclipart.org/">
            <dc:title>Openclipart</dc:title>
          </cc:Agent>
        </dc:publisher>
        <dc:title>Movie Popcorn Bag</dc:title>
        <dc:date></dc:date>
        <dc:description>remix by j4p4n</dc:description>
        <dc:source></dc:source>
        <dc:creator>
          <cc:Agent>
            <dc:title>rocke86</dc:title>
          </cc:Agent>
        </dc:creator>
        <dc:subject>
          <rdf:Bag>
            <rdf:li>Popcorn</rdf:li>
            <rdf:li>bag</rdf:li>
            <rdf:li>food</rdf:li>
            <rdf:li>movie</rdf:li>
            <rdf:li>snack</rdf:li>
          </rdf:Bag>
        </dc:subject>
      </cc:Work>
      <cc:License
         rdf:about="http://creativecommons.org/publicdomain/zero/1.0/">
        <cc:permits
           rdf:resource="http://creativecommons.org/ns#Reproduction" />
        <cc:permits
           rdf:resource="http://creativecommons.org/ns#Distribution" />
        <cc:permits
           rdf:resource="http://creativecommons.org/ns#DerivativeWorks" />
      </cc:License>
    </rdf:RDF>
  </metadata>
</svg>
