<?xml version="1.0" encoding="utf-8"?>
<!-- Generator: Adobe Illustrator 24.3.0, SVG Export Plug-In . SVG Version: 6.00 Build 0)  -->
<svg version="1.1" id="Layer_1" xmlns="http://www.w3.org/2000/svg" xmlns:xlink="http://www.w3.org/1999/xlink" x="0px" y="0px"
	 viewBox="0 0 300 300" enable-background="new 0 0 300 300" xml:space="preserve">
<g>
	<path d="M219.876,121.892c-4.479-8.055-11.062-14.059-19.036-17.362c-8.477-3.511-18.188-3.94-28.082-1.24
		c-7.006,1.91-11.811,5.342-16.843,10c0.981-6.202,2.9-12.139,5.531-16.846c4.812-8.607,11.705-12.972,20.49-12.972
		c2.859,0,5.178-2.316,5.178-5.177c0-2.859-2.318-5.179-5.178-5.179c-8.178,0-15.339,2.652-21.186,7.764
		c-1.194-6.847-4.446-13.292-9.495-18.342c-6.461-6.461-15.048-10.018-24.183-10.018c-2.991,0-5.971,0.392-8.854,1.16
		c-1.79,0.479-3.188,1.875-3.667,3.666c-3.143,11.772,0.251,24.43,8.857,33.034c6.459,6.46,15.048,10.018,24.184,10.018l0,0
		c0.283,0,0.564-0.007,0.844-0.014c-3.188,9.354-3.616,18.142-3.616,22.146c0,1.455,0.605,2.768,1.57,3.709
		c-0.017,0.023-0.034,0.046-0.052,0.068c2.021,2.022,5.299,2.022,7.322,0c12.733-12.735,30.102-17.643,43.215-12.212
		c12.816,5.31,19.874,19.528,19.874,40.041c0,23.299-7.833,44.852-22.058,60.69c-12.539,13.961-29.248,22.294-44.694,22.294
		c-15.444,0-32.152-8.333-44.693-22.294c-14.224-15.838-22.058-37.392-22.058-60.69c0-18.176,5.412-31.258,15.652-37.834
		c8.889-5.708,20.7-5.907,32.41-0.552c2.598,1.191,5.671,0.048,6.861-2.554c1.188-2.6,0.046-5.672-2.556-6.861
		c-7.086-3.244-14.597-4.893-21.718-4.783c-7.508,0.117-14.629,2.207-20.594,6.036c-6.408,4.116-11.427,10.079-14.908,17.725
		c-3.651,8.015-5.504,17.714-5.504,28.823c0,25.857,8.776,49.869,24.709,67.609c7.159,7.971,15.708,14.522,24.724,18.951
		c9.03,4.435,18.6,6.781,27.674,6.781c9.075,0,18.645-2.347,27.676-6.781c9.015-4.429,17.564-10.98,24.723-18.951
		c15.935-17.74,24.71-41.752,24.71-67.609C227.107,141.365,224.675,130.515,219.876,121.892z M147.594,90.045
		c-6.371,0-12.358-2.482-16.861-6.986c-5.262-5.26-7.727-12.693-6.779-19.98c1.032-0.135,2.075-0.203,3.12-0.203
		c6.368,0,12.357,2.48,16.858,6.985c5.262,5.26,7.727,12.694,6.779,19.979C149.681,89.976,148.638,90.045,147.594,90.045
		L147.594,90.045z"/>
	<path d="M196.037,153.341c0.004,0.264,0.004,0.53,0.004,0.796c0,2.859,2.319,5.178,5.176,5.178c2.861,0,5.179-2.318,5.179-5.178
		c0-0.309,0-0.614-0.004-0.92c-0.034-2.86-2.371-5.153-5.238-5.113C198.292,148.138,196.003,150.484,196.037,153.341z"/>
	<path d="M199.208,128.25c-3.447-3.976-8.093-5.992-13.805-5.992c-2.859,0-5.178,2.318-5.178,5.177c0,2.861,2.318,5.179,5.178,5.179
		c3.44,0,5.006,1.294,5.982,2.421c0.956,1.103,1.795,2.614,2.496,4.49c0.778,2.083,2.753,3.369,4.851,3.369
		c0.602,0,1.214-0.106,1.811-0.329c2.678-1,4.039-3.982,3.038-6.663C202.448,132.865,200.976,130.29,199.208,128.25z"/>
</g>
</svg>
