<?xml version="1.0" encoding="utf-8"?>
<!-- Generator: Adobe Illustrator 24.3.0, SVG Export Plug-In . SVG Version: 6.00 Build 0)  -->
<svg version="1.1" id="Layer_1" xmlns="http://www.w3.org/2000/svg" xmlns:xlink="http://www.w3.org/1999/xlink" x="0px" y="0px"
	 viewBox="0 0 300 300" enable-background="new 0 0 300 300" xml:space="preserve">
<g>
	<path d="M154.851,180.322c0,2.86,2.318,5.179,5.177,5.179h1.647c2.86,0,5.177-2.318,5.177-5.179c0-2.858-2.317-5.176-5.177-5.176
		h-1.647C157.169,175.146,154.851,177.463,154.851,180.322z"/>
	<path d="M217.095,176.706l-5.656-5.798c-3.379-3.462-6.341-10.741-6.341-15.579v-29.475c0-25.143-16.93-46.405-39.989-52.992
		c-0.532-12.426-6.341-20.35-15.109-20.35c-8.768,0-14.577,7.924-15.109,20.35c-23.06,6.587-39.99,27.85-39.99,52.992v34.63
		c0,2.86,2.318,5.177,5.179,5.177c2.859,0,5.176-2.316,5.176-5.177v-34.63c0-24.671,20.072-44.742,44.744-44.742
		c24.671,0,44.743,20.071,44.743,44.742v29.475c0,7.453,4.078,17.475,9.284,22.811l5.657,5.798
		c3.377,3.464,6.341,10.744,6.341,15.58v2.376c0,3.314-2.696,6.01-6.01,6.01H89.986c-3.314,0-6.01-2.696-6.01-6.01v-2.376
		c0-4.196,2.23-10.232,5.025-14.018h55.278c2.859,0,5.177-2.318,5.177-5.179c0-2.858-2.317-5.176-5.177-5.176H86.611
		c-1.396,0-2.732,0.563-3.707,1.561c-5.205,5.337-9.284,15.355-9.284,22.812v2.376c0,9.024,7.341,16.365,16.365,16.365h25.999
		c2.505,16.521,16.804,29.228,34.015,29.228c17.212,0,31.51-12.706,34.015-29.228h25.999c9.023,0,16.365-7.341,16.365-16.365v-2.376
		C226.379,192.061,222.301,182.043,217.095,176.706z M145.434,70.949c0.556-4.42,2.102-8.079,4.566-8.079
		c2.463,0,4.01,3.659,4.566,8.079c-1.507-0.125-3.029-0.192-4.566-0.192C148.462,70.756,146.941,70.824,145.434,70.949z M150,237.13
		c-11.484,0-21.112-8.092-23.486-18.871h46.972C171.113,229.039,161.484,237.13,150,237.13z"/>
	<path d="M151.01,91.483c-0.335-0.01-0.672-0.016-1.01-0.016c-2.86,0-5.178,2.317-5.178,5.178c0,2.86,2.318,5.177,5.178,5.177
		c0.237,0,0.473,0.005,0.708,0.011c0.052,0.001,0.104,0.001,0.155,0.001c2.789,0,5.09-2.217,5.172-5.026
		C156.118,93.951,153.868,91.565,151.01,91.483z"/>
	<path d="M163.092,105.712c6.85,4.471,10.941,12.001,10.941,20.143c0,2.86,2.318,5.179,5.177,5.179c2.86,0,5.178-2.318,5.178-5.179
		c0-11.651-5.846-22.425-15.636-28.814c-2.394-1.565-5.602-0.889-7.165,1.504C160.024,100.942,160.698,104.149,163.092,105.712z"/>
</g>
</svg>
