<?xml version="1.0" encoding="utf-8"?>
<!-- Generator: Adobe Illustrator 16.0.0, SVG Export Plug-In . SVG Version: 6.00 Build 0)  -->
<!DOCTYPE svg PUBLIC "-//W3C//DTD SVG 1.1//EN" "http://www.w3.org/Graphics/SVG/1.1/DTD/svg11.dtd">
<svg version="1.1" id="Layer_1" xmlns="http://www.w3.org/2000/svg" xmlns:xlink="http://www.w3.org/1999/xlink" x="0px" y="0px"
	 width="128px" height="128px" viewBox="0 0 128 128" enable-background="new 0 0 128 128" xml:space="preserve">
<g>
	<g>
		<path fill="#282D33" d="M109.249,128H18.748c-1.923,0-3.486-1.558-3.486-3.473V3.47c0-1.914,1.563-3.47,3.486-3.47h90.501
			c1.924,0,3.489,1.557,3.489,3.47v121.057C112.738,126.442,111.173,128,109.249,128z M19.262,124h89.477V4H19.262V124z"/>
	</g>
	<g>
		<path fill="#282D33" d="M99.83,114.525H28.143V43.802H99.83V114.525z M32.143,110.525H95.83V47.802H32.143V110.525z"/>
	</g>
	<g>
		<path fill="#282D33" d="M99.936,36.189H28.063V13.607h71.873V36.189z M32.063,32.189h63.873V17.607H32.063V32.189z"/>
	</g>
	<g>
		<path fill="#282D33" d="M99.83,114.525H28.143V43.802H99.83V114.525z M32.143,110.525H95.83V47.802H32.143V110.525z"/>
	</g>
	<g>
		<rect x="62.151" y="45.802" fill="#282D33" width="3.999" height="66.401"/>
	</g>
	<g>
		<rect x="30.471" y="77.002" fill="#282D33" width="67.359" height="4"/>
	</g>
	<g>
		<rect x="37.907" y="60.62" fill="#282D33" width="17.495" height="4"/>
	</g>
	<g>
		<rect x="44.655" y="53.995" fill="#282D33" width="4" height="17.245"/>
	</g>
	<g>
		<rect x="72.462" y="60.62" fill="#282D33" width="17.494" height="4"/>
	</g>
	<g>
		
			<rect x="37.968" y="94.25" transform="matrix(0.7122 0.702 -0.702 0.7122 80.9958 -5.0483)" fill="#282D33" width="17.372" height="4"/>
	</g>
	<g>
		
			<rect x="44.656" y="87.563" transform="matrix(0.7022 0.712 -0.712 0.7022 82.4206 -4.5557)" fill="#282D33" width="4" height="17.373"/>
	</g>
	<g>
		<rect x="72.462" y="98.132" fill="#282D33" width="17.494" height="4"/>
	</g>
	<g>
		<rect x="72.462" y="90.37" fill="#282D33" width="17.494" height="4"/>
	</g>
</g>
</svg>
