<?xml version="1.0" encoding="UTF-8" standalone="no"?>
<!-- Generator: Adobe Illustrator 19.0.1, SVG Export Plug-In . SVG Version: 6.00 Build 0)  -->

<svg
   version="1.1"
   x="0px"
   y="0px"
   viewBox="0 0 128 128"
   style="enable-background:new 0 0 128 128;"
   xml:space="preserve"
   id="svg6"
   sodipodi:docname="calc.svg"
   inkscape:version="1.1 (c68e22c387, 2021-05-23)"
   xmlns:inkscape="http://www.inkscape.org/namespaces/inkscape"
   xmlns:sodipodi="http://sodipodi.sourceforge.net/DTD/sodipodi-0.dtd"
   xmlns="http://www.w3.org/2000/svg"
   xmlns:svg="http://www.w3.org/2000/svg"><defs
   id="defs10" /><sodipodi:namedview
   id="namedview8"
   pagecolor="#ffffff"
   bordercolor="#666666"
   borderopacity="1.0"
   inkscape:pageshadow="2"
   inkscape:pageopacity="0.0"
   inkscape:pagecheckerboard="0"
   showgrid="false"
   inkscape:zoom="4.0625"
   inkscape:cx="15.384615"
   inkscape:cy="63.876923"
   inkscape:window-width="1366"
   inkscape:window-height="705"
   inkscape:window-x="-8"
   inkscape:window-y="-8"
   inkscape:window-maximized="1"
   inkscape:current-layer="svg6" />
<g
   id="_x31_5"
   style="stroke:#c8c8c8;stroke-opacity:0.5;fill:#646464;fill-opacity:0.5">
	<path
   style="fill:#646464;stroke:#c8c8c8;stroke-opacity:0.5;fill-opacity:0.5"
   d="M103.947,127.863H24.053c-4.111,0-7.456-3.339-7.456-7.446V7.492c0-4.106,3.345-7.446,7.456-7.446   h79.893c4.111,0,7.456,3.339,7.456,7.446v112.926C111.403,124.523,108.058,127.863,103.947,127.863z M103.947,120.417v3.723   V120.417L103.947,120.417L103.947,120.417z M24.053,7.492v112.926h79.882l0.011-112.926H24.053z M95.031,50.381H33.65   c-3.597,0-6.524-2.923-6.524-6.515v-27.4c0-3.592,2.927-6.515,6.524-6.515h61.381c3.597,0,6.524,2.923,6.524,6.515v27.4   C101.555,47.458,98.628,50.381,95.031,50.381z M33.65,15.535c-0.505,0-0.932,0.425-0.932,0.931v27.4   c0,0.505,0.427,0.931,0.932,0.931h61.381c0.505,0,0.932-0.425,0.932-0.931v-27.4c0-0.505-0.427-0.931-0.932-0.931H33.65z    M44.146,72.818H33.098c-3.597,0-6.524-2.923-6.524-6.515v-4.17c0-3.592,2.927-6.515,6.524-6.515h11.048   c3.597,0,6.524,2.923,6.524,6.515v4.17C50.671,69.895,47.743,72.818,44.146,72.818z M33.098,61.202   c-0.505,0-0.932,0.425-0.932,0.931v4.17c0,0.505,0.427,0.931,0.932,0.931h11.048c0.505,0,0.932-0.425,0.932-0.931v-4.17   c0-0.505-0.427-0.931-0.932-0.931H33.098z M69.524,72.818H58.476c-3.597,0-6.524-2.923-6.524-6.515v-4.17   c0-3.592,2.927-6.515,6.524-6.515h11.049c3.597,0,6.524,2.923,6.524,6.515v4.17C76.049,69.895,73.122,72.818,69.524,72.818z    M58.476,61.202c-0.505,0-0.932,0.425-0.932,0.931v4.17c0,0.505,0.427,0.931,0.932,0.931h11.049c0.505,0,0.932-0.425,0.932-0.931   v-4.17c0-0.505-0.427-0.931-0.932-0.931H58.476z M94.902,72.818H83.854c-3.597,0-6.524-2.923-6.524-6.515v-4.17   c0-3.592,2.927-6.515,6.524-6.515h11.048c3.597,0,6.524,2.923,6.524,6.515v4.17C101.426,69.895,98.499,72.818,94.902,72.818z    M83.854,61.202c-0.505,0-0.932,0.425-0.932,0.931v4.17c0,0.505,0.427,0.931,0.932,0.931h11.048c0.505,0,0.932-0.425,0.932-0.931   v-4.17c0-0.505-0.427-0.931-0.932-0.931H83.854z M44.146,93.408H33.098c-3.597,0-6.524-2.923-6.524-6.515v-4.17   c0-3.592,2.927-6.515,6.524-6.515h11.048c3.597,0,6.524,2.923,6.524,6.515v4.17C50.671,90.485,47.743,93.408,44.146,93.408z    M33.098,81.792c-0.505,0-0.932,0.425-0.932,0.931v4.17c0,0.505,0.427,0.931,0.932,0.931h11.048c0.505,0,0.932-0.425,0.932-0.931   v-4.17c0-0.505-0.427-0.931-0.932-0.931H33.098z M69.524,93.408H58.476c-3.597,0-6.524-2.923-6.524-6.515v-4.17   c0-3.592,2.927-6.515,6.524-6.515h11.049c3.597,0,6.524,2.923,6.524,6.515v4.17C76.049,90.485,73.122,93.408,69.524,93.408z    M58.476,81.792c-0.505,0-0.932,0.425-0.932,0.931v4.17c0,0.505,0.427,0.931,0.932,0.931h11.049c0.505,0,0.932-0.425,0.932-0.931   v-4.17c0-0.505-0.427-0.931-0.932-0.931H58.476z M94.902,93.408H83.854c-3.597,0-6.524-2.923-6.524-6.515v-4.17   c0-3.592,2.927-6.515,6.524-6.515h11.048c3.597,0,6.524,2.923,6.524,6.515v4.17C101.426,90.485,98.499,93.408,94.902,93.408z    M83.854,81.792c-0.505,0-0.932,0.425-0.932,0.931v4.17c0,0.505,0.427,0.931,0.932,0.931h11.048c0.505,0,0.932-0.425,0.932-0.931   v-4.17c0-0.505-0.427-0.931-0.932-0.931H83.854z M44.146,113.998H33.098c-3.597,0-6.524-2.923-6.524-6.515v-4.17   c0-3.592,2.927-6.515,6.524-6.515h11.048c3.597,0,6.524,2.923,6.524,6.515v4.17C50.671,111.075,47.743,113.998,44.146,113.998z    M33.098,102.383c-0.505,0-0.932,0.425-0.932,0.931v4.17c0,0.505,0.427,0.931,0.932,0.931h11.048c0.505,0,0.932-0.425,0.932-0.931   v-4.17c0-0.505-0.427-0.931-0.932-0.931H33.098z M69.524,113.998H58.476c-3.597,0-6.524-2.923-6.524-6.515v-4.17   c0-3.592,2.927-6.515,6.524-6.515h11.049c3.597,0,6.524,2.923,6.524,6.515v4.17C76.049,111.075,73.122,113.998,69.524,113.998z    M58.476,102.383c-0.505,0-0.932,0.425-0.932,0.931v4.17c0,0.505,0.427,0.931,0.932,0.931h11.049c0.505,0,0.932-0.425,0.932-0.931   v-4.17c0-0.505-0.427-0.931-0.932-0.931H58.476z M94.902,113.998H83.854c-3.597,0-6.524-2.923-6.524-6.515v-4.17   c0-3.592,2.927-6.515,6.524-6.515h11.048c3.597,0,6.524,2.923,6.524,6.515v4.17C101.426,111.075,98.499,113.998,94.902,113.998z    M83.854,102.383c-0.505,0-0.932,0.425-0.932,0.931v4.17c0,0.505,0.427,0.931,0.932,0.931h11.048c0.505,0,0.932-0.425,0.932-0.931   v-4.17c0-0.505-0.427-0.931-0.932-0.931H83.854z"
   id="path2" />
</g>
<g
   id="Layer_1"
   style="stroke:#c8c8c8;stroke-opacity:0.5">
</g>
</svg>
