<?xml version="1.0" encoding="UTF-8" standalone="no"?>
<!-- Generator: Adobe Illustrator 16.0.0, SVG Export Plug-In . SVG Version: 6.00 Build 0)  -->

<svg
   version="1.0"
   id="Layer_1"
   x="0px"
   y="0px"
   width="100px"
   height="100px"
   viewBox="0 0 100 100"
   enable-background="new 0 0 100 100"
   xml:space="preserve"
   sodipodi:docname="GraphSoftware.svg"
   inkscape:version="1.1 (c68e22c387, 2021-05-23)"
   xmlns:inkscape="http://www.inkscape.org/namespaces/inkscape"
   xmlns:sodipodi="http://sodipodi.sourceforge.net/DTD/sodipodi-0.dtd"
   xmlns="http://www.w3.org/2000/svg"
   xmlns:svg="http://www.w3.org/2000/svg"><defs
   id="defs7" /><sodipodi:namedview
   id="namedview5"
   pagecolor="#ffffff"
   bordercolor="#666666"
   borderopacity="1.0"
   inkscape:pageshadow="2"
   inkscape:pageopacity="0.0"
   inkscape:pagecheckerboard="0"
   showgrid="false"
   inkscape:zoom="5.2"
   inkscape:cx="49.903846"
   inkscape:cy="65.480769"
   inkscape:window-width="1366"
   inkscape:window-height="705"
   inkscape:window-x="-8"
   inkscape:window-y="-8"
   inkscape:window-maximized="1"
   inkscape:current-layer="Layer_1" />
<path
   d="m 77.465241,4.9858696 h -66.666 c -3.6660002,0 -6.6670002,3.0010001 -6.6670002,6.6670004 v 53.333 c 0,3.664 3.001,6.666 6.6670002,6.666 h 30 v 6.666 h -16.667 v 6.668 h 40 v -6.668 h -16.666 v -6.666 h 29.999 c 3.665,0 6.667,-3.002 6.667,-6.666 v -53.333 c 0,-3.6660003 -3.002,-6.6670004 -6.667,-6.6670004 z m -10,35.5270004 h -5.003 l 0.003,-10.325 -19.352,19.349 c -3.057,3.053 -8.831,5.449 -13.148,5.449 h -9.167 v -5 h 9.167 c 2.998,0 7.49,-1.863 9.612,-3.984 l 19.352,-19.349 h -10.318 l -0.006,-5 h 15.527 c 1.842,0 3.333,1.491 3.333,3.333 z"
   id="path2" />
<g
   id="Layer_1-3"
   style="stroke:#c8c8c8;stroke-opacity:0.5"
   transform="matrix(0.5303383,0,0,0.52224869,-4.3460624,23.037336)" /><path
   d="M 9.3049,85.572615 20.605933,62.678178 c -0.133947,-0.0021 -0.264877,-0.022 -0.400634,-0.022 -8.885762,0 -16.0899447,8.208062 -16.0899447,18.332875 0,10.124814 7.2041827,18.333564 16.0899447,18.333564 7.495005,0 13.773625,-5.845813 15.563206,-13.750002 z"
   id="path2244"
   style="fill:#323232;fill-opacity:1;stroke-width:0.64406" /><polygon
   points="60,10 90,63.333 30,63.333 "
   id="polygon2246"
   style="fill:#323232;fill-opacity:1"
   transform="matrix(0.60336538,0,0,0.68750001,-3.5398808,39.134178)" /><g
   id="_x31_5"
   style="fill:#4b4b4b;fill-opacity:1;stroke:#c8c8c8;stroke-opacity:0.5"
   transform="matrix(0.44324853,0,0,0.44454187,49.461601,41.957901)"><path
     style="fill:#4b4b4b;fill-opacity:1;stroke:#c8c8c8;stroke-opacity:0.5"
     d="M 103.947,127.863 H 24.053 c -4.111,0 -7.456,-3.339 -7.456,-7.446 V 7.492 c 0,-4.106 3.345,-7.446 7.456,-7.446 h 79.893 c 4.111,0 7.456,3.339 7.456,7.446 v 112.926 c 0.001,4.105 -3.344,7.445 -7.455,7.445 z m 0,-7.446 v 3.723 z M 24.053,7.492 v 112.926 h 79.882 L 103.946,7.492 Z M 95.031,50.381 H 33.65 c -3.597,0 -6.524,-2.923 -6.524,-6.515 v -27.4 c 0,-3.592 2.927,-6.515 6.524,-6.515 h 61.381 c 3.597,0 6.524,2.923 6.524,6.515 v 27.4 c 0,3.592 -2.927,6.515 -6.524,6.515 z M 33.65,15.535 c -0.505,0 -0.932,0.425 -0.932,0.931 v 27.4 c 0,0.505 0.427,0.931 0.932,0.931 h 61.381 c 0.505,0 0.932,-0.425 0.932,-0.931 v -27.4 c 0,-0.505 -0.427,-0.931 -0.932,-0.931 z M 44.146,72.818 H 33.098 c -3.597,0 -6.524,-2.923 -6.524,-6.515 v -4.17 c 0,-3.592 2.927,-6.515 6.524,-6.515 h 11.048 c 3.597,0 6.524,2.923 6.524,6.515 v 4.17 c 10e-4,3.592 -2.927,6.515 -6.524,6.515 z M 33.098,61.202 c -0.505,0 -0.932,0.425 -0.932,0.931 v 4.17 c 0,0.505 0.427,0.931 0.932,0.931 h 11.048 c 0.505,0 0.932,-0.425 0.932,-0.931 v -4.17 c 0,-0.505 -0.427,-0.931 -0.932,-0.931 z M 69.524,72.818 H 58.476 c -3.597,0 -6.524,-2.923 -6.524,-6.515 v -4.17 c 0,-3.592 2.927,-6.515 6.524,-6.515 h 11.049 c 3.597,0 6.524,2.923 6.524,6.515 v 4.17 c 0,3.592 -2.927,6.515 -6.525,6.515 z M 58.476,61.202 c -0.505,0 -0.932,0.425 -0.932,0.931 v 4.17 c 0,0.505 0.427,0.931 0.932,0.931 h 11.049 c 0.505,0 0.932,-0.425 0.932,-0.931 v -4.17 c 0,-0.505 -0.427,-0.931 -0.932,-0.931 z M 94.902,72.818 H 83.854 c -3.597,0 -6.524,-2.923 -6.524,-6.515 v -4.17 c 0,-3.592 2.927,-6.515 6.524,-6.515 h 11.048 c 3.597,0 6.524,2.923 6.524,6.515 v 4.17 c 0,3.592 -2.927,6.515 -6.524,6.515 z M 83.854,61.202 c -0.505,0 -0.932,0.425 -0.932,0.931 v 4.17 c 0,0.505 0.427,0.931 0.932,0.931 h 11.048 c 0.505,0 0.932,-0.425 0.932,-0.931 v -4.17 c 0,-0.505 -0.427,-0.931 -0.932,-0.931 z M 44.146,93.408 H 33.098 c -3.597,0 -6.524,-2.923 -6.524,-6.515 v -4.17 c 0,-3.592 2.927,-6.515 6.524,-6.515 h 11.048 c 3.597,0 6.524,2.923 6.524,6.515 v 4.17 c 10e-4,3.592 -2.927,6.515 -6.524,6.515 z M 33.098,81.792 c -0.505,0 -0.932,0.425 -0.932,0.931 v 4.17 c 0,0.505 0.427,0.931 0.932,0.931 h 11.048 c 0.505,0 0.932,-0.425 0.932,-0.931 v -4.17 c 0,-0.505 -0.427,-0.931 -0.932,-0.931 z M 69.524,93.408 H 58.476 c -3.597,0 -6.524,-2.923 -6.524,-6.515 v -4.17 c 0,-3.592 2.927,-6.515 6.524,-6.515 h 11.049 c 3.597,0 6.524,2.923 6.524,6.515 v 4.17 c 0,3.592 -2.927,6.515 -6.525,6.515 z M 58.476,81.792 c -0.505,0 -0.932,0.425 -0.932,0.931 v 4.17 c 0,0.505 0.427,0.931 0.932,0.931 h 11.049 c 0.505,0 0.932,-0.425 0.932,-0.931 v -4.17 c 0,-0.505 -0.427,-0.931 -0.932,-0.931 z M 94.902,93.408 H 83.854 c -3.597,0 -6.524,-2.923 -6.524,-6.515 v -4.17 c 0,-3.592 2.927,-6.515 6.524,-6.515 h 11.048 c 3.597,0 6.524,2.923 6.524,6.515 v 4.17 c 0,3.592 -2.927,6.515 -6.524,6.515 z M 83.854,81.792 c -0.505,0 -0.932,0.425 -0.932,0.931 v 4.17 c 0,0.505 0.427,0.931 0.932,0.931 h 11.048 c 0.505,0 0.932,-0.425 0.932,-0.931 v -4.17 c 0,-0.505 -0.427,-0.931 -0.932,-0.931 z M 44.146,113.998 H 33.098 c -3.597,0 -6.524,-2.923 -6.524,-6.515 v -4.17 c 0,-3.592 2.927,-6.515 6.524,-6.515 h 11.048 c 3.597,0 6.524,2.923 6.524,6.515 v 4.17 c 10e-4,3.592 -2.927,6.515 -6.524,6.515 z M 33.098,102.383 c -0.505,0 -0.932,0.425 -0.932,0.931 v 4.17 c 0,0.505 0.427,0.931 0.932,0.931 h 11.048 c 0.505,0 0.932,-0.425 0.932,-0.931 v -4.17 c 0,-0.505 -0.427,-0.931 -0.932,-0.931 z m 36.426,11.615 H 58.476 c -3.597,0 -6.524,-2.923 -6.524,-6.515 v -4.17 c 0,-3.592 2.927,-6.515 6.524,-6.515 h 11.049 c 3.597,0 6.524,2.923 6.524,6.515 v 4.17 c 0,3.592 -2.927,6.515 -6.525,6.515 z M 58.476,102.383 c -0.505,0 -0.932,0.425 -0.932,0.931 v 4.17 c 0,0.505 0.427,0.931 0.932,0.931 h 11.049 c 0.505,0 0.932,-0.425 0.932,-0.931 v -4.17 c 0,-0.505 -0.427,-0.931 -0.932,-0.931 z m 36.426,11.615 H 83.854 c -3.597,0 -6.524,-2.923 -6.524,-6.515 v -4.17 c 0,-3.592 2.927,-6.515 6.524,-6.515 h 11.048 c 3.597,0 6.524,2.923 6.524,6.515 v 4.17 c 0,3.592 -2.927,6.515 -6.524,6.515 z M 83.854,102.383 c -0.505,0 -0.932,0.425 -0.932,0.931 v 4.17 c 0,0.505 0.427,0.931 0.932,0.931 h 11.048 c 0.505,0 0.932,-0.425 0.932,-0.931 v -4.17 c 0,-0.505 -0.427,-0.931 -0.932,-0.931 z"
     id="path2-7" /></g><g
   id="Layer_1-30"
   style="fill:#4b4b4b;fill-opacity:1;stroke:#c8c8c8;stroke-opacity:0.5"
   transform="matrix(0.4050206,0,0,0.57824842,48.158982,25.631012)" /></svg>
