<?xml version="1.0" encoding="utf-8"?>
<!-- Generator: Adobe Illustrator 16.0.0, SVG Export Plug-In . SVG Version: 6.00 Build 0)  -->
<!DOCTYPE svg PUBLIC "-//W3C//DTD SVG 1.0//EN" "http://www.w3.org/TR/2001/REC-SVG-20010904/DTD/svg10.dtd">
<svg version="1.0" id="Layer_1" xmlns="http://www.w3.org/2000/svg" xmlns:xlink="http://www.w3.org/1999/xlink" x="0px" y="0px"
	 width="100px" height="100px" viewBox="0 0 100 100" enable-background="new 0 0 100 100" xml:space="preserve">
<path d="M50,51.667c-5.521,0-10,4.479-10,10c0,5.521,4.479,10,10,10c5.521,0,10-4.479,10-10C60,56.146,55.521,51.667,50,51.667z
	 M50,65c-1.842,0-3.333-1.497-3.333-3.333c0-1.843,1.491-3.334,3.333-3.334c1.843,0,3.333,1.491,3.333,3.334
	C53.333,63.503,51.843,65,50,65z"/>
<path d="M40,90v-6.667c0-3.682,2.985-6.666,6.667-6.666h6.667c3.682,0,6.667,2.984,6.667,6.666V90h-6.667v-6.667h-6.667V90H40z"/>
<path d="M20,51.667c-5.521,0-10,4.479-10,10c0,5.521,4.479,10,10,10s10-4.479,10-10C30,56.146,25.521,51.667,20,51.667z M20,65
	c-1.842,0-3.333-1.497-3.333-3.333c0-1.843,1.491-3.334,3.333-3.334s3.333,1.491,3.333,3.334C23.333,63.503,21.842,65,20,65z"/>
<path d="M10,90v-6.667c0-3.682,2.985-6.666,6.667-6.666h6.667c3.682,0,6.667,2.984,6.667,6.666V90h-6.667v-6.667h-6.667V90H10z"/>
<path d="M80,51.667c-5.521,0-10,4.479-10,10c0,5.521,4.479,10,10,10s10-4.479,10-10C90,56.146,85.521,51.667,80,51.667z M80,65
	c-1.843,0-3.333-1.497-3.333-3.333c0-1.843,1.49-3.334,3.333-3.334s3.333,1.491,3.333,3.334C83.333,63.503,81.843,65,80,65z"/>
<path d="M70,90v-6.667c0-3.682,2.985-6.666,6.667-6.666h6.666c3.682,0,6.667,2.984,6.667,6.666V90h-6.667v-6.667h-6.666V90H70z"/>
<path d="M50,10c-7.363,0-13.333,5.968-13.333,13.333c0,1.805,0.365,3.533,1.022,5.104l6.168,14.896h12.288l6.169-14.896
	c0.654-1.571,1.019-3.299,1.019-5.104C63.333,15.968,57.366,10,50,10z M56.159,25.874l-4.467,10.792h-3.378l-4.466-10.781
	c-0.342-0.82-0.514-1.673-0.514-2.552c0-3.677,2.991-6.667,6.667-6.667c3.675,0,6.667,2.99,6.667,6.667
	C56.667,24.212,56.497,25.067,56.159,25.874z"/>
<rect x="17.576" y="13.096" transform="matrix(0.9659 0.2588 -0.2588 0.9659 5.0775 -5.7137)" width="13.335" height="6.669"/>
<polygon points="33.317,35.303 24.072,44.544 28.789,49.261 36.078,41.971 "/>
<path d="M31.836,15.013l-13.17-3.529l-1.726,6.442l13.154,3.524C30.309,19.17,30.918,17.008,31.836,15.013z"/>
<path d="M31.53,30.99c-0.771-1.843-1.25-3.781-1.436-5.773L16.94,28.74l1.726,6.442l13.141-3.521L31.53,30.99z"/>
<path d="M69.909,25.218c-0.186,1.989-0.668,3.929-1.442,5.786l-0.273,0.657l13.142,3.521l1.725-6.442L69.909,25.218z"/>
<path d="M69.905,21.452l13.154-3.525l-1.725-6.442l-13.171,3.529C69.082,17.008,69.69,19.17,69.905,21.452z"/>
<polygon points="66.687,35.303 63.926,41.973 71.214,49.261 75.928,44.544 "/>
</svg>
