<?xml version="1.0" encoding="utf-8"?>
<!-- Generator: Adobe Illustrator 24.3.0, SVG Export Plug-In . SVG Version: 6.00 Build 0)  -->
<svg version="1.1" id="Layer_1" xmlns="http://www.w3.org/2000/svg" xmlns:xlink="http://www.w3.org/1999/xlink" x="0px" y="0px"
	 viewBox="0 0 300 300" enable-background="new 0 0 300 300" xml:space="preserve">
<g>
	<path d="M99.569,192.497c0.688,0.311,1.41,0.457,2.118,0.457c1.978,0,3.865-1.137,4.728-3.056c0.22-0.494,0.449-0.991,0.682-1.494
		c1.209-2.592,0.086-5.672-2.507-6.879c-2.593-1.208-5.671-0.085-6.879,2.507c-0.253,0.546-0.501,1.086-0.741,1.62
		C95.797,188.261,96.962,191.325,99.569,192.497z"/>
	<path d="M228.711,53.746c-1.325-1.134-3.133-1.526-4.808-1.04c-23.523,6.812-48.657,29.368-65.604,47.09
		c-20.182,21.108-40.02,47.236-53.062,69.89c-1.428,2.478-0.573,5.643,1.904,7.069c0.813,0.469,1.701,0.692,2.578,0.692
		c1.791,0,3.533-0.931,4.492-2.595c12.65-21.975,31.932-47.358,51.571-67.9c19.303-20.187,37.848-34.58,53.188-41.404
		c-1.55,9.503-3.585,18.304-6.157,26.664l-20.86,7.413c-2.087,0.742-3.472,2.729-3.443,4.943c0.026,2.215,1.46,4.166,3.564,4.855
		l12.466,4.083c-1.797,3.722-3.725,7.268-5.77,10.605l-25.299-2.55c-2.186-0.221-4.275,0.964-5.207,2.954
		c-0.932,1.99-0.507,4.352,1.061,5.892l13.647,13.399c-3.593,3.384-7.429,6.4-11.466,9.014l-12.311-9.559
		c-1.56-1.212-3.675-1.43-5.451-0.56c-1.775,0.869-2.901,2.673-2.901,4.65v14.912c-6.971,2.055-14.481,3.287-22.378,3.667
		c-2.856,0.138-5.061,2.564-4.924,5.421c0.139,2.856,2.568,5.061,5.421,4.923c10.213-0.492,19.883-2.286,28.743-5.333
		c2.089-0.719,3.493-2.686,3.493-4.896v-8.118l6.791,5.273c1.671,1.297,3.964,1.447,5.79,0.379
		c7.389-4.324,14.225-9.793,20.314-16.259c1.933-2.051,1.87-5.271-0.139-7.245l-6.86-6.733l13.821,1.393
		c1.924,0.194,3.796-0.701,4.854-2.321c3.944-6.042,7.524-12.762,10.639-19.973c0.579-1.336,0.566-2.854-0.032-4.18
		c-0.597-1.327-1.726-2.341-3.108-2.794l-3.557-1.165l8.995-3.196c1.518-0.539,2.697-1.753,3.192-3.284
		c3.923-12.121,6.73-25.038,8.58-39.487C230.701,56.606,230.036,54.88,228.711,53.746z"/>
	<path d="M122.604,211.113l-0.988-0.539c-1.388-0.757-2.561-2.802-2.561-3.686v-2.864c5.339-3.402,8.629-8.261,8.629-13.737
		c0-2.86-2.318-5.178-5.178-5.178c-2.859,0-5.178,2.318-5.178,5.178c0,3.893-7.562,8.419-17.31,8.419
		c-9.748,0-17.309-4.526-17.309-8.419c0-2.295,2.657-4.851,6.769-6.512c2.651-1.071,3.934-4.089,2.861-6.74
		c-1.071-2.652-4.089-3.933-6.74-2.861c-8.293,3.351-13.245,9.375-13.245,16.113c0,5.476,3.29,10.335,8.629,13.737v2.864
		c0,0.884-1.173,2.929-2.56,3.686l-0.988,0.539c-4.537,2.474-7.958,8.237-7.958,13.404v11.815c0,6.157,5.011,11.167,11.167,11.167
		h38.749c6.157,0,11.167-5.01,11.167-11.167v-11.815C130.562,219.35,127.141,213.587,122.604,211.113z M120.206,236.332
		c0,0.432-0.38,0.812-0.812,0.812H80.646c-0.432,0-0.812-0.38-0.812-0.812v-11.815c0-1.39,1.341-3.648,2.56-4.312l0.99-0.54
		c4.146-2.263,7.359-7.048,7.88-11.529c2.741,0.601,5.683,0.926,8.756,0.926c3.075,0,6.016-0.325,8.757-0.926
		c0.52,4.48,3.733,9.267,7.881,11.529l0.988,0.54c1.221,0.665,2.561,2.922,2.561,4.312V236.332z"/>
</g>
</svg>
