<svg xmlns="http://www.w3.org/2000/svg" viewBox="0 0 88 88"><title>Artboard-7</title><g id="Idea"><rect x="44" y="47" width="3" height="6" style="fill:#1e1f21"/><rect x="49" y="47" width="3" height="6" style="fill:#1e1f21"/><polygon points="48 58.438 50.865 55 45.135 55 48 58.438" style="fill:#1e1f21"/><path d="M48,19a12,12,0,0,0-4.6152,23.0776A1,1,0,0,1,44,43.0005V45h3V40.4141L43.293,36.707a1,1,0,0,1,1.414-1.414L48,38.5859l3.293-3.2929a1,1,0,0,1,1.414,1.414L49,40.4141V45h3V43.0005a1,1,0,0,1,.6152-.9229A12,12,0,0,0,48,19Z" style="fill:#1e1f21"/><path d="M55.24,69.2A33.0025,33.0025,0,1,0,15.0015,36.7148L7.1484,49.4761A1,1,0,0,0,8,51h7V61a9.01,9.01,0,0,0,9,9H36a1,1,0,0,1,0,2H26V83a1,1,0,0,0,1,1H63a1,1,0,0,0,1-1V68.12a34.5856,34.5856,0,0,1-8.32,3.03,1,1,0,1,1-.44-1.95Zm2.47-23.07a1.1549,1.1549,0,0,1-.33.21,1,1,0,0,1-.38.08,1.004,1.004,0,0,1-.71-1.71.9976.9976,0,0,1,1.09-.21,1.1424,1.1424,0,0,1,.33.21,1.0385,1.0385,0,0,1,.21.33.998.998,0,0,1,.08.38A1.0538,1.0538,0,0,1,57.71,46.13Zm3.11-2.5a.977.977,0,0,1-.71.3.9433.9433,0,0,1-.7-.29.9972.9972,0,1,1,1.41-.01Zm2.59-3.32a1.0059,1.0059,0,0,1-.86.48.97.97,0,0,1-.51-.15.9859.9859,0,0,1-.34-1.37,1.0007,1.0007,0,1,1,1.71,1.04Zm1.75-3.84a1.0083,1.0083,0,0,1-.96.69,1.021,1.021,0,0,1-.3-.04,1.0024,1.0024,0,1,1,1.25-.65Zm-.2-3.22h-.08a1.0361,1.0361,0,1,1,.08,0Zm.81-5.13a.9893.9893,0,0,1-.83,1.14.8644.8644,0,0,1-.16.02.989.989,0,0,1-.98-.8491l0,.0092v-.01l0,.001a.9972.9972,0,1,1,1.97-.3111Zm-2.46-4.6a1.0017,1.0017,0,0,1,.77,1.85,1.08,1.08,0,0,1-.39.08,1.0038,1.0038,0,0,1-.38-1.93Zm-2.17-3.35a1.0022,1.0022,0,1,1,1.18,1.62.96.96,0,0,1-.58.19.9863.9863,0,0,1-.81-.41A1.0032,1.0032,0,0,1,61.14,20.17Zm-2.87-2.76a.9972.9972,0,0,1,1.41-.11,1,1,0,1,1-1.41.11Zm-3.44-2.02a1,1,0,1,1,.89,1.46,1.0669,1.0669,0,0,1-.46-.11A1.0036,1.0036,0,0,1,54.83,15.39Zm-3.82-1.15a1.0019,1.0019,0,1,1,.97,1.23.959.959,0,0,1-.23-.03A.9956.9956,0,0,1,51.01,14.24ZM48.03,13a1,1,0,1,1-1,1A1.0029,1.0029,0,0,1,48.03,13Zm-4.18.48a1.0005,1.0005,0,1,1,.45,1.95.8507.8507,0,0,1-.23.03,1.0028,1.0028,0,0,1-.22-1.98Zm-3.97,1.45a1,1,0,1,1,.91,1.78.936.936,0,0,1-.45.11.9992.9992,0,0,1-.46-1.89Zm-3.51,2.33a1.0007,1.0007,0,1,1,1.29,1.53.9521.9521,0,0,1-.64.23.996.996,0,0,1-.65-1.76Zm-2.88,3.08a1.0052,1.0052,0,0,1,1.62,1.19H35.1a.9982.9982,0,0,1-.8.4.967.967,0,0,1-.59-.19A1.0065,1.0065,0,0,1,33.49,20.34ZM31.41,24a.9993.9993,0,1,1,.92,1.39.9149.9149,0,0,1-.39-.08A.9918.9918,0,0,1,31.41,24Zm-.02,3.23a1.002,1.002,0,0,1-.16,1.99.9491.9491,0,0,1-.17-.02.9985.9985,0,1,1,.33-1.97Zm-1.35,5.03a1.0025,1.0025,0,1,1,1.07.93h-.07A1.0031,1.0031,0,0,1,30.04,32.26Zm1.74,4.85a1.007,1.007,0,1,1,.3-.05A1.0533,1.0533,0,0,1,31.78,37.11Zm2.15,3.49a1.0543,1.0543,0,0,1-.51.14,1.001,1.001,0,1,1,.85-1.52A1.0152,1.0152,0,0,1,33.93,40.6Zm2.62,3a1,1,0,1,1-1.4-1.43,1,1,0,0,1,1.4,1.43Zm3.16,2.53a1.0041,1.0041,0,0,1-1.42-1.42,1.14,1.14,0,0,1,.33-.21,1,1,0,0,1,.76,0,1.0247,1.0247,0,0,1,.33.21,1.014,1.014,0,0,1,0,1.42ZM54,43.6494V54a.9951.9951,0,0,1-.0736.3646.9713.9713,0,0,1-.0671.1167.9913.9913,0,0,1-.0912.1588l-5,6a1,1,0,0,1-1.5362,0l-5-6a.9913.9913,0,0,1-.0912-.1588.9713.9713,0,0,1-.0671-.1167A.9951.9951,0,0,1,42,54V43.6494a14,14,0,1,1,12,0Z" style="fill:#1e1f21"/></g></svg>