<svg xmlns="http://www.w3.org/2000/svg" viewBox="0 0 48 48"><title>27-learning</title><g id="_27-learning" data-name="27-learning"><path d="M45,7H44V5a1,1,0,0,0-1-1H39.315a6.985,6.985,0,0,0-12.63,0H23.111L5.217.023A1,1,0,0,0,4,1V7H3a3,3,0,0,0-3,3V45a3,3,0,0,0,3,3H45a3,3,0,0,0,3-3V10A3,3,0,0,0,45,7ZM33,2a5,5,0,0,1,1,9.9V8h1a1,1,0,0,0,1-1V5H34V6H32V5H30V7a1,1,0,0,0,1,1h1v3.9A5,5,0,0,1,33,2Zm2,11.705V16H31V13.705a6.927,6.927,0,0,0,4,0ZM24,6h2.08A6.892,6.892,0,0,0,29,12.736V17a1,1,0,0,0,1,1h.184A3,3,0,0,0,32,19.816V21a1,1,0,0,1-1,1H29a3,3,0,0,0,0,6H40V26H29a1,1,0,0,1,0-2h2a3,3,0,0,0,3-3V19.816A3,3,0,0,0,35.816,18H36a1,1,0,0,0,1-1V12.736A6.892,6.892,0,0,0,39.92,6H42V42H24ZM6,2.247,22,5.8V41.684L6,37.24ZM15.662,42H8V39.872ZM46,45a1,1,0,0,1-1,1H3a1,1,0,0,1-1-1V10A1,1,0,0,1,3,9H4V38a1,1,0,0,0,.732.964L6,39.316V43a1,1,0,0,0,1,1H43a1,1,0,0,0,1-1V9h1a1,1,0,0,1,1,1Z"/><rect x="26" y="30" width="14" height="2"/><rect x="26" y="34" width="14" height="2"/><rect x="26" y="38" width="14" height="2"/></g></svg>