<svg id="_01-idea" data-name="01-idea" xmlns="http://www.w3.org/2000/svg" viewBox="0 0 48 48"><title>01-idea</title><path d="M45.768,46.36l-4.7-5.641,3.917-21.54A.977.977,0,0,0,45,19a19,19,0,0,0-38-.219L2.09,29.586A1,1,0,0,0,3,31H7v9a3,3,0,0,0,3,3h6v4a1,1,0,0,0,1,1H45a1,1,0,0,0,.768-1.64ZM27,46V37h1a3,3,0,0,0,3-3V27.9a12,12,0,1,0-10,0V34a3,3,0,0,0,3,3h1v9H18V42a1,1,0,0,0-1-1H10a1,1,0,0,1-1-1V37h4V35H9V30a1,1,0,0,0-1-1H4.553L8.91,19.414A1,1,0,0,0,9,19a17,17,0,0,1,34-.089l-3.984,21.91a1,1,0,0,0,.216.819L42.865,46Zm0-19.051V18a3,3,0,0,0,3-3V14H28v1a1,1,0,0,1-1,1H24a1,1,0,0,1-1-1V14H21v1a3,3,0,0,0,3,3h1v4.91A6.006,6.006,0,0,1,20,17H18a8.008,8.008,0,0,0,7,7.931v2.018a10,10,0,1,1,2,0Zm2,1.656V31H23V28.605a11.59,11.59,0,0,0,6,0ZM23,33h6v1a1,1,0,0,1-1,1H24a1,1,0,0,1-1-1Z"/><path d="M26,9v2a6.006,6.006,0,0,1,6,6h2A8.009,8.009,0,0,0,26,9Z"/></svg>