<svg xmlns="http://www.w3.org/2000/svg" viewBox="0 0 48 48"><title>17-knowledge</title><g id="_17-knowledge" data-name="17-knowledge"><path d="M45.769,46.359l-4.7-5.64,3.916-21.54A1,1,0,0,0,44,18H41V11a1,1,0,0,0-.98-1C39.559,9.785,39,7.5,39,5a1,1,0,0,0-1-1V2H36V4a1,1,0,0,0-1,1c0,2.5-.559,4.785-1.02,5A1,1,0,0,0,33,11v7H30V1a1,1,0,0,0-1-1H21a1,1,0,0,0-1,1V18H17V8a.993.993,0,0,0-.075-.37l0,0-2-5a1,1,0,0,0-1.858,0l-2,5,0,0A.993.993,0,0,0,11,8V18H8a1,1,0,0,0-.91.586l-5,11A1,1,0,0,0,3,31H7v9a3,3,0,0,0,3,3h6v4a1,1,0,0,0,1,1H45a1,1,0,0,0,.769-1.641ZM36.979,6h.042a13.416,13.416,0,0,0,.7,4H36.279A13.416,13.416,0,0,0,36.979,6ZM35,12h4v6H35ZM22,2h6V5H25V7h3V9H24v2h4v2H25v2h3v3H22ZM14,5.692,14.523,7H13.477ZM13,9h2v9H13Zm5,37V42a1,1,0,0,0-1-1H10a1,1,0,0,1-1-1V36h4V34H9V30a1,1,0,0,0-1-1H4.553l4.091-9H42.8L39.017,40.821a1,1,0,0,0,.214.82L42.865,46Z"/></g></svg>