<?xml version="1.0" encoding="utf-8"?>
<!-- Generator: Adobe Illustrator 24.3.0, SVG Export Plug-In . SVG Version: 6.00 Build 0)  -->
<svg version="1.1" id="Layer_1" xmlns="http://www.w3.org/2000/svg" xmlns:xlink="http://www.w3.org/1999/xlink" x="0px" y="0px"
	 viewBox="0 0 300 300" enable-background="new 0 0 300 300" xml:space="preserve">
<g>
	<g>
		<path d="M182.56,102.095c-1.77,0-3.489-0.903-4.457-2.532c-1.381-2.323-3.06-4.479-4.986-6.408
			c-6.176-6.173-14.385-9.574-23.118-9.574c-2.858,0-5.178-2.317-5.178-5.178c0-2.86,2.319-5.178,5.178-5.178
			c11.498,0,22.309,4.478,30.438,12.608c2.537,2.537,4.748,5.377,6.568,8.439c1.46,2.457,0.652,5.634-1.806,7.096
			C184.369,101.861,183.456,102.095,182.56,102.095z"/>
	</g>
	<g>
		<path d="M149.999,247.485c-17.959,0-32.57-14.61-32.57-32.568c0-2.86,2.321-5.179,5.178-5.179h21.929
			c2.859,0,5.178,2.318,5.178,5.179c0,2.857-2.318,5.176-5.178,5.176h-16.141c2.34,9.762,11.141,17.037,21.605,17.037
			c12.252,0,22.218-9.965,22.218-22.213c0-2.86,2.315-5.179,5.174-5.179c2.861,0,5.179,2.318,5.179,5.179
			C182.569,232.875,167.96,247.485,149.999,247.485z"/>
	</g>
	<g>
		<path d="M162.003,220.093h-1.723c-2.858,0-5.176-2.318-5.176-5.176c0-2.86,2.317-5.179,5.176-5.179h1.723
			c2.858,0,5.178,2.318,5.178,5.179C167.181,217.774,164.862,220.093,162.003,220.093z"/>
	</g>
	<g>
		<path d="M177.39,199.997c-2.858,0-5.174-2.317-5.174-5.178c0-15.098,6.247-31.488,15.543-40.788
			c10.086-10.085,15.642-23.496,15.642-37.761c0-14.264-5.556-27.672-15.642-37.761c-10.086-10.085-23.494-15.64-37.761-15.64
			c-14.263,0-27.673,5.555-37.757,15.64C102.154,88.599,96.6,102.007,96.6,116.271c0,14.265,5.554,27.676,15.642,37.761
			c8.242,8.245,14.085,22.062,15.308,35.61h29.01l10.204-63.78l-5.865,2.667c-1.734,0.789-3.762,0.562-5.277-0.591l-5.622-4.274
			l-5.618,4.274c-1.516,1.151-3.542,1.379-5.275,0.591l-5.866-2.667l8.068,50.433c0.451,2.825-1.472,5.478-4.296,5.93
			c-2.823,0.453-5.479-1.472-5.93-4.295l-9.594-59.952c-0.301-1.882,0.46-3.779,1.975-4.936c1.517-1.155,3.547-1.384,5.283-0.597
			l11.828,5.377l6.293-4.783c1.852-1.409,4.415-1.409,6.268,0l6.292,4.783l11.831-5.377c1.735-0.787,3.766-0.559,5.28,0.597
			c1.517,1.156,2.275,3.054,1.975,4.936l-12.427,77.659c-0.401,2.514-2.569,4.361-5.111,4.361h-38.368
			c-2.856,0-5.178-2.317-5.178-5.178c0-12.141-5.262-26.216-12.51-33.465c-12.043-12.042-18.673-28.053-18.673-45.084
			c0-17.029,6.63-33.039,18.673-45.082c12.042-12.041,28.052-18.674,45.08-18.674c17.031,0,33.042,6.633,45.085,18.674
			c12.041,12.043,18.671,28.053,18.671,45.082c0,17.031-6.63,33.042-18.671,45.084c-7.252,7.249-12.515,21.324-12.515,33.465
			C182.569,197.68,180.251,199.997,177.39,199.997z"/>
	</g>
</g>
</svg>
