<?xml version="1.0" encoding="utf-8"?>
<!-- Generator: Adobe Illustrator 16.0.0, SVG Export Plug-In . SVG Version: 6.00 Build 0)  -->
<!DOCTYPE svg PUBLIC "-//W3C//DTD SVG 1.0//EN" "http://www.w3.org/TR/2001/REC-SVG-20010904/DTD/svg10.dtd">
<svg version="1.0" id="Layer_1" xmlns="http://www.w3.org/2000/svg" xmlns:xlink="http://www.w3.org/1999/xlink" x="0px" y="0px"
	 width="100px" height="100px" viewBox="0 0 100 100" enable-background="new 0 0 100 100" xml:space="preserve">
<path d="M83.333,10H16.667C12.985,10,10,12.982,10,16.667L10.003,70c0,3.685,2.985,6.667,6.664,6.667h52.142l11.709,11.705
	c0.999,1.01,2.39,1.628,3.929,1.628C87.513,90,90,87.513,90,84.446v-67.78C90,12.982,87.019,10,83.333,10z M76.667,63.333h-8.334
	L62.5,55.56l-5.833,7.773h-8.334l10-13.333l-10-13.333h8.334l5.833,7.779l5.833-7.779h8.334L66.667,50L76.667,63.333z M76.667,30
	h-32.78l-5.554,33.333H27.78l-4.447-26.666h6.758l2.966,17.786l5.186-31.12h38.425V30z"/>
</svg>
