<?xml version="1.0" encoding="utf-8"?>
<!-- Generator: Adobe Illustrator 24.3.0, SVG Export Plug-In . SVG Version: 6.00 Build 0)  -->
<svg version="1.1" id="Layer_1" xmlns="http://www.w3.org/2000/svg" xmlns:xlink="http://www.w3.org/1999/xlink" x="0px" y="0px"
	 viewBox="0 0 300 300" enable-background="new 0 0 300 300" xml:space="preserve">
<g>
	<g>
		<path d="M72.916,87.652c-1.664,0-3.296-0.8-4.297-2.282l-0.989-1.465c-1.6-2.371-0.974-5.588,1.396-7.188
			c2.37-1.6,5.588-0.974,7.187,1.396l0.989,1.465c1.599,2.372,0.974,5.589-1.396,7.189C74.919,87.365,73.912,87.652,72.916,87.652z"
			/>
	</g>
	<g>
		<path d="M150.28,150.482c-1.688,0-3.312-0.83-4.292-2.281l-38.057-56.395c-1.071-1.586-1.179-3.636-0.28-5.326
			c0.899-1.691,2.657-2.747,4.572-2.747h38.057c1.373,0,2.689,0.546,3.661,1.517c0.972,0.971,1.517,2.287,1.517,3.661v56.394
			c0,2.276-1.486,4.286-3.663,4.95C151.294,150.407,150.783,150.482,150.28,150.482z M121.963,94.086l23.14,34.289V94.086H121.963z"
			/>
	</g>
	<path d="M179.266,54.745H57.692c-2.86,0-5.178,2.317-5.178,5.177c0,2.859,2.318,5.178,5.178,5.178h116.396v12.105h-7.197
		c-2.86,0-5.178,2.319-5.178,5.178c0,2.859,2.318,5.177,5.178,5.177h7.197v12.107h-7.197c-2.86,0-5.178,2.318-5.178,5.177
		c0,2.859,2.318,5.178,5.178,5.178h7.197v12.106h-7.197c-2.86,0-5.178,2.317-5.178,5.177c0,2.86,2.318,5.178,5.178,5.178h7.197
		v12.107h-7.197c-2.86,0-5.178,2.318-5.178,5.178c0,2.858,2.318,5.177,5.178,5.177h7.197v12.107h-7.197
		c-2.86,0-5.178,2.316-5.178,5.178c0,2.859,2.318,5.176,5.178,5.176h7.197v12.107h-7.197c-2.86,0-5.178,2.318-5.178,5.178
		c0,2.858,2.318,5.178,5.178,5.178h7.197v23.281L86.011,92.633c-1.599-2.371-4.817-2.996-7.187-1.395
		c-2.371,1.599-2.995,4.817-1.396,7.187l97.546,144.548c0.98,1.454,2.602,2.282,4.292,2.282c0.503,0,1.012-0.074,1.514-0.227
		c2.176-0.667,3.663-2.676,3.663-4.952V59.922C184.444,57.062,182.125,54.745,179.266,54.745z"/>
	<path d="M242.308,72.76h-20.934c-2.859,0-5.178,2.317-5.178,5.178c0,2.86,2.319,5.177,5.178,5.177h15.757v7.66h-7.197
		c-2.86,0-5.177,2.318-5.177,5.178c0,2.859,2.317,5.177,5.177,5.177h7.197v7.661h-15.758c-2.859,0-5.177,2.317-5.177,5.177
		c0,2.861,2.318,5.179,5.177,5.179h15.758v7.66h-7.197c-2.86,0-5.177,2.318-5.177,5.178c0,2.858,2.317,5.177,5.177,5.177h7.197v7.66
		h-15.757c-2.859,0-5.178,2.318-5.178,5.178c0,2.86,2.319,5.178,5.178,5.178h15.757v7.66h-7.197c-2.86,0-5.177,2.318-5.177,5.178
		c0,2.859,2.319,5.178,5.177,5.178h7.197v7.66h-15.758c-2.859,0-5.177,2.318-5.177,5.177c0,2.859,2.318,5.178,5.177,5.178h15.758
		v7.661h-7.197c-2.86,0-5.177,2.318-5.177,5.178c0,2.858,2.317,5.178,5.177,5.178h7.197v7.66h-15.757
		c-2.859,0-5.178,2.316-5.178,5.178c0,2.859,2.319,5.176,5.178,5.176h15.757v7.661h-31.516L205.617,65.1h36.691
		c2.86,0,5.178-2.319,5.178-5.178c0-2.859-2.318-5.177-5.178-5.177h-41.87c-2.86,0-5.177,2.317-5.177,5.177v180.154
		c0,1.373,0.545,2.69,1.517,3.661c0.971,0.973,2.288,1.516,3.661,1.516h41.87c2.86,0,5.178-2.316,5.178-5.177V77.938
		C247.486,75.078,245.168,72.76,242.308,72.76z"/>
</g>
</svg>
