<svg xmlns="http://www.w3.org/2000/svg" viewBox="0 0 48 48"><title>07-open book</title><g id="_07-open_book" data-name="07-open book"><path d="M47,15H45V7a1,1,0,0,0-1.781-.625c-.075.094-7.4,9.052-18.245,9.575C24.43,4,14.5,4,4,4A1,1,0,0,0,3,5V16H1a1,1,0,0,0-1,1V40a1,1,0,0,0,1,1H2v2a1,1,0,0,0,1,1H45a1,1,0,0,0,1-1V41h1a1,1,0,0,0,1-1V16A1,1,0,0,0,47,15ZM2,39V18H3V28a1,1,0,0,0,1,1c11.736,0,18.542.479,18.977,10Zm21,3H4V41H23Zm0-9.882C19.656,27.216,12.548,27.009,5,27V6c11.51.035,18,.8,18,11Zm2-14.155c8.621-.378,15.05-5.519,18-8.414V29.634c-1.294,1.483-8.208,8.836-18,9.319ZM44,42H25V41H44Zm2-3H33.49a31.573,31.573,0,0,0,11.291-8.375A1,1,0,0,0,45,30V17h1Z"/><rect x="4" y="32" width="4" height="2"/><rect x="4" y="35" width="7" height="2"/></g></svg>