<?xml version="1.0" encoding="utf-8"?>
<!-- Generator: Adobe Illustrator 24.3.0, SVG Export Plug-In . SVG Version: 6.00 Build 0)  -->
<svg version="1.1" id="Layer_1" xmlns="http://www.w3.org/2000/svg" xmlns:xlink="http://www.w3.org/1999/xlink" x="0px" y="0px"
	 viewBox="0 0 300 300" enable-background="new 0 0 300 300" xml:space="preserve">
<g>
	<path d="M113.467,193.855l1.173-1.174c2.022-2.021,2.022-5.3,0-7.322c-2.022-2.021-5.3-2.021-7.323,0.001l-1.172,1.173
		c-2.022,2.022-2.022,5.301,0,7.322c1.01,1.012,2.336,1.516,3.661,1.516C111.13,195.37,112.455,194.866,113.467,193.855z"/>
	<path d="M125.779,181.542l57.326-57.326c2.023-2.022,2.023-5.3,0-7.322c-2.021-2.021-5.3-2.021-7.322,0l-57.326,57.328
		c-2.021,2.021-2.021,5.299,0,7.32c1.011,1.012,2.336,1.517,3.661,1.517C123.442,183.059,124.768,182.554,125.779,181.542z"/>
	<path d="M241.488,217.991c-0.704-2.772-3.52-4.451-6.29-3.748c-2.773,0.703-4.45,3.518-3.749,6.289l3.703,14.619l-36.28-9.189
		l-41.55-41.553l9.884-9.882l19.327,19.327c1.011,1.012,2.336,1.516,3.661,1.516c1.325,0,2.65-0.504,3.662-1.516
		c2.021-2.021,2.021-5.3,0-7.322l-19.328-19.326l9.882-9.885l38.899,38.898l-17.331,17.33c-2.022,2.023-2.022,5.301,0,7.322
		c1.011,1.011,2.336,1.517,3.661,1.517c1.325,0,2.65-0.506,3.662-1.517l20.992-20.992c0.971-0.971,1.516-2.288,1.516-3.66
		c0-1.374-0.545-2.689-1.516-3.66l-42.559-42.561l54.233-54.232c2.023-2.022,2.023-5.301,0-7.322l-34.411-34.411
		c-2.023-2.022-5.302-2.022-7.323,0L150,108.266L95.767,54.033c-2.022-2.022-5.301-2.022-7.322,0L54.034,88.445
		c-2.023,2.021-2.023,5.3,0,7.322l54.232,54.232L65.707,192.56c-0.971,0.971-1.517,2.286-1.517,3.66c0,1.372,0.546,2.689,1.517,3.66
		l18.953,18.951c2.021,2.024,5.3,2.024,7.322,0c2.021-2.021,2.021-5.299,0-7.318L76.69,196.22L185.469,87.44l27.091,27.09
		L101.126,225.962l-36.279,9.189l5.161-20.373c0.703-2.771-0.976-5.587-3.748-6.289c-2.772-0.703-5.588,0.976-6.29,3.747
		l-7.294,28.797c-0.449,1.77,0.068,3.642,1.358,4.933c0.983,0.982,2.305,1.518,3.661,1.518c0.424,0,0.851-0.053,1.271-0.16
		l46.085-11.673c0.905-0.229,1.73-0.699,2.391-1.358L150,191.734l42.559,42.559c0.66,0.659,1.485,1.129,2.39,1.358l46.085,11.673
		c0.421,0.107,0.848,0.16,1.271,0.16c1.356,0,2.678-0.535,3.662-1.518c1.29-1.291,1.807-3.163,1.358-4.933L241.488,217.991z
		 M92.106,65.016l15.103,15.102l-27.09,27.089L65.016,92.106L92.106,65.016z M87.441,114.529l27.089-27.09l28.147,28.147
		l-9.883,9.885l-8.578-8.578c-2.023-2.021-5.301-2.021-7.322,0c-2.022,2.022-2.022,5.3,0,7.322l8.577,8.578l-9.884,9.883
		L87.441,114.529z M192.792,80.118l15.102-15.102l27.089,27.089l-15.102,15.102L192.792,80.118z"/>
</g>
</svg>
