<?xml version="1.0" encoding="iso-8859-1"?>
<!-- Generator: Adobe Illustrator 19.0.1, SVG Export Plug-In . SVG Version: 6.00 Build 0)  -->
<svg version="1.1" xmlns="http://www.w3.org/2000/svg" xmlns:xlink="http://www.w3.org/1999/xlink" x="0px" y="0px"
	 viewBox="0 0 128 128" style="enable-background:new 0 0 128 128;" xml:space="preserve">
<g id="_x31_2">
	<path style="fill:#262626;" d="M117.395,39.797c-2.338,0-4.565,0.752-6.374,2.129V24.892H62.727v2.31H48.391
		c-0.042-0.473-0.014-0.919,0.042-1.336c2.338-1.517,3.883-4.147,3.883-7.126c0-4.718-3.827-8.531-8.531-8.531
		c-4.704,0-8.518,3.813-8.518,8.531c0,2.978,1.531,5.609,3.855,7.126c0.07,0.418,0.083,0.863,0.056,1.336H20.362v17.453
		c-0.459,0.028-0.933,0-1.35-0.056c-1.517-2.31-4.147-3.869-7.14-3.869c-4.704,0-8.518,3.813-8.518,8.531
		c0,4.704,3.813,8.531,8.518,8.531c2.992,0,5.623-1.545,7.14-3.883c0.418-0.056,0.877-0.083,1.35-0.056V69.47h-3.34l-0.014,15.685
		c-1.809-1.378-4.05-2.157-6.402-2.157c-2.839,0-5.497,1.1-7.502,3.104C1.1,88.105,0,90.764,0,93.603
		c-0.014,2.839,1.099,5.497,3.09,7.502c2.004,2.018,4.676,3.118,7.516,3.131c2.352,0,4.579-0.779,6.402-2.157l-0.014,15.685
		l21.405,0.014l0.084-2.004c0.028-0.487,0-0.988-0.07-1.503l-0.139-0.932l-0.793-0.515c-1.823-1.197-2.923-3.215-2.923-5.386
		c0-1.726,0.668-3.34,1.893-4.551c1.211-1.225,2.825-1.893,4.537-1.893c0.014,0,0.014,0,0.014,0c3.549,0,6.43,2.895,6.43,6.444
		c0,2.171-1.1,4.189-2.923,5.386l-0.793,0.515l-0.125,0.932c-0.084,0.501-0.111,1.016-0.084,1.517l0.084,1.99l21.391,0.014
		l0.014-15.699c1.809,1.392,4.05,2.157,6.402,2.171c5.845-0.014,10.605-4.774,10.605-10.619c0-2.366-0.765-4.621-2.199-6.458
		c-0.501-0.431-0.946-0.905-1.336-1.433c-1.935-1.768-4.426-2.728-7.07-2.728c-2.352,0-4.579,0.779-6.402,2.143l0.014-12.289h13.403
		c-1.378,1.823-2.157,4.05-2.157,6.402c0,2.436,0.835,4.676,2.213,6.472c0.153,0.111,0.292,0.251,0.431,0.39
		c0.334,0.334,0.64,0.682,0.905,1.044c1.865,1.698,4.342,2.714,7.07,2.714c5.845,0,10.605-4.76,10.605-10.619
		c0-2.352-0.765-4.579-2.143-6.402h15.685V58.878c1.809,1.364,4.036,2.129,6.374,2.129c5.845,0,10.605-4.76,10.605-10.605
		S123.24,39.797,117.395,39.797z M65.482,90.917l0.529-0.793c1.197-1.823,3.215-2.923,5.386-2.923c1.726,0,3.34,0.668,4.551,1.893
		c1.211,1.211,1.879,2.825,1.879,4.551c0,1.781-0.724,3.382-1.879,4.551c-1.169,1.169-2.784,1.893-4.551,1.893
		c-2.185-0.014-4.189-1.099-5.386-2.937l-0.529-0.821l-0.974-0.111c-0.654-0.084-1.211-0.111-1.754-0.07l-1.934,0.139l-0.014,17.327
		l-11.176-0.014c1.267-1.768,1.976-3.911,1.976-6.166c0-5.845-4.76-10.605-10.605-10.619c0,0,0,0-0.014,0
		c-2.825,0-5.484,1.113-7.488,3.104c-2.004,2.004-3.118,4.676-3.118,7.502c0,2.255,0.71,4.398,1.976,6.179l-11.19-0.014
		l0.014-17.313l-1.948-0.139c-0.529-0.042-1.086-0.028-1.74,0.056l-0.974,0.111l-0.529,0.821c-1.197,1.837-3.215,2.937-5.386,2.937
		c-1.726-0.014-3.34-0.682-4.551-1.893c-1.211-1.225-1.879-2.839-1.879-4.565c0-1.712,0.668-3.326,1.879-4.551
		c1.211-1.211,2.825-1.879,4.551-1.879c2.171,0,4.189,1.1,5.386,2.923l0.529,0.793l0.932,0.139c0.612,0.083,1.211,0.097,1.795,0.056
		l1.934-0.139l0.014-17.3l16.506,0.014v-3.16l-1.016-1.015c-1.795-1.559-2.937-3.841-2.937-6.416c0-4.704,3.827-8.518,8.518-8.518
		c4.718,0,8.531,3.813,8.531,8.518c0,2.575-1.141,4.857-2.937,6.416c-0.292,0.264-1.002,1.16-1.002,1.16v3.015h13.973L60.82,90.972
		l1.934,0.139c0.585,0.042,1.197,0.014,1.795-0.07L65.482,90.917z M117.395,56.832c-2.171,0-4.189-1.086-5.386-2.923l-0.515-0.793
		l-0.932-0.125c-0.598-0.084-1.197-0.111-1.781-0.07l-1.935,0.139v15.643H89.532l-0.125,1.948c-0.042,0.571-0.028,1.183,0.056,1.781
		l0.139,0.946l0.779,0.515c1.837,1.197,2.923,3.215,2.923,5.386c0,3.549-2.881,6.444-6.43,6.444c-3.549,0-6.444-2.895-6.444-6.444
		c0-2.171,1.1-4.189,2.937-5.386l0.807-0.529l0.125-0.974c0.07-0.654,0.097-1.197,0.056-1.74l-0.139-1.948H66.902V57.528
		c1.767,1.267,3.911,1.976,6.165,1.976c5.845,0,10.605-4.76,10.605-10.619c0-5.845-4.76-10.605-10.605-10.605
		c-2.255,0-4.398,0.71-6.165,1.976v-11.19h39.943V47.73l1.935,0.139c0.585,0.056,1.183,0.028,1.781-0.056l0.932-0.139l0.515-0.793
		c1.197-1.823,3.215-2.909,5.386-2.909c3.549,0,6.43,2.881,6.43,6.43C123.825,53.952,120.944,56.832,117.395,56.832z"/>
</g>
<g id="Layer_1">
</g>
</svg>
