<svg xmlns="http://www.w3.org/2000/svg" viewBox="0 0 48 48"><defs><style>.cls-1{fill:#7c7d7d;}.cls-2{fill:#919191;}.cls-3{fill:#dad7e5;}.cls-4{fill:#edebf2;}.cls-5{fill:#f26674;}</style></defs><title>Gear with Question Sign</title><g id="Gear_with_Question_Sign" data-name="Gear with Question Sign"><path class="cls-1" d="M47,25.49c0,3.1-4.58,1-6.37,5.36a5.18,5.18,0,0,0,.24,4.56c1.71,3.1,1.45,2.8-1.66,5.91-2.21,2.21-4-2.51-8.3-.71A5.06,5.06,0,0,0,28.27,43c-.93,1.7-.55,4-2.78,4-4.38,0-4.36.42-5.35-3a5.19,5.19,0,0,0-3.05-3.38c-4.27-1.78-6.11,2.9-8.3.71L6.68,39.21c-2.24-2.24,2.52-4,.71-8.3v-.05C5.6,26.59,1,28.56,1,25.49v-3c0-3.12,4.6-1,6.38-5.39S4.5,11,6.68,8.79c2-2,2.28-2.41,2.93-2.6,2.13-.67,3.56,2.83,7.51,1.19C21.4,5.63,19.45,1,22.51,1c4.27,0,4.35-.47,5.34,3a5.23,5.23,0,0,0,7.58,3.13c3.12-1.73,2.8-1.42,5.89,1.67,2.21,2.21-2.52,4-.71,8.3A5.13,5.13,0,0,0,44,20.14C47.34,21.1,47,21,47,25.49Z"/><path class="cls-2" d="M47,25.49c0,3.1-4.58,1-6.37,5.36-1.5,4.48,1.85,5.39,1.18,7.54a22.8,22.8,0,0,1-5.42,3c-1.38-.76-3-1.81-5.48-.8A5.06,5.06,0,0,0,28.27,43H28A23,23,0,0,1,5,20a2.44,2.44,0,0,1,0-.27,5.23,5.23,0,0,0,2.11-7.16l-.53-1a22.8,22.8,0,0,1,3-5.42c2.13-.67,3.56,2.83,7.51,1.19C21.4,5.63,19.45,1,22.51,1c4.27,0,4.35-.47,5.34,3a5.23,5.23,0,0,0,7.58,3.13c3.12-1.73,2.8-1.42,5.89,1.67,2.21,2.21-2.52,4-.71,8.3A5.13,5.13,0,0,0,44,20.14C47.34,21.1,47,21,47,25.49Z"/><path class="cls-3" d="M37,24A13,13,0,0,1,24,37C11.77,37,6.31,21.5,15.87,13.87A13,13,0,0,1,37,24Z"/><path class="cls-4" d="M37,24a12.88,12.88,0,0,1-2.87,8.13A13,13,0,0,1,15.87,13.87,13,13,0,0,1,37,24Z"/><path class="cls-5" d="M24.71,31.29a1,1,0,0,0-1.42,1.42A1,1,0,0,0,24.71,31.29Z"/><path class="cls-5" d="M28.87,18.83C27.55,13.08,19,14.17,19,20a1,1,0,0,0,2,0c0-3.51,5.14-4.14,5.92-.72a3,3,0,0,1-1.61,3.42A4,4,0,0,0,23,26.24V28a1,1,0,0,0,2,0c0-1.65-.26-2.79,1.19-3.51A5,5,0,0,0,28.87,18.83Z"/></g></svg>