<svg xmlns="http://www.w3.org/2000/svg" viewBox="0 0 48 48"><title>19-research</title><g id="_19-research" data-name="19-research"><path d="M47.112,42.824l-5.748-5.748a1,1,0,0,0-1.414,0l-.73.73-1.495-1.495A11.026,11.026,0,0,0,39.946,32H41a1,1,0,0,0,1-1V1a1,1,0,0,0-1-1C32.463,0,23.865,1.858,21,5.925,18.135,1.858,9.537,0,1,0A1,1,0,0,0,0,1V31a1,1,0,0,0,1,1q1.023,0,2,.023V39a1,1,0,0,0,1.4.915c3.3-1.451,12.6-4.5,15.89-1.208a1,1,0,0,0,1.09.217c.022-.009.039-.026.061-.037l0,.008,1.267-.634a11.128,11.128,0,0,0,13.6-.536l1.495,1.495-.73.73a1,1,0,0,0,0,1.414l5.747,5.747a3.032,3.032,0,1,0,4.289-4.287ZM22,9c0-3.867,7.669-6.812,18-6.991V26.536a11.147,11.147,0,0,0-18-5.93ZM2,30.006v-28C12.331,2.188,20,5.133,20,9V22.8a11.1,11.1,0,0,0-1.287,10.272C14.566,30.649,7.335,30.066,2,30.006Zm3,7.513V32.1c6.906.348,11.792,1.624,13.875,3.58C14.355,34.336,7.844,36.441,5,37.519Zm30.639-1.88a9.161,9.161,0,1,1,2.683-6.478A9.1,9.1,0,0,1,35.639,35.639Zm7.174,8.633L39.2,40.657l1.46-1.46,3.615,3.616ZM45.7,45.7a1.054,1.054,0,0,1-1.459,0l-.011-.011,1.459-1.459.012.011a1.031,1.031,0,0,1,0,1.459Z"/><path d="M24.143,24.143l1.414,1.414a5.1,5.1,0,0,1,7.208,0l1.414-1.414A7.1,7.1,0,0,0,24.143,24.143Z"/><rect x="4" y="4" width="2" height="6"/><rect x="4" y="12" width="2" height="2"/></g></svg>