<svg xmlns="http://www.w3.org/2000/svg" viewBox="0 0 48 48"><title>10-online register</title><g id="_10-online_register" data-name="10-online register"><path d="M45,11H39V4a4,4,0,0,0-4-4H7A4,4,0,0,0,3,4V8A1,1,0,0,0,4,9H9v2H3a3,3,0,0,0-3,3V39a3,3,0,0,0,3,3H19a1,1,0,0,1-1,1,3,3,0,0,0-3,3H12v2H36V46H33a3,3,0,0,0-3-3,1,1,0,0,1-1-1H45a3,3,0,0,0,3-3V14A3,3,0,0,0,45,11ZM35,2a2,2,0,0,1,2,2V32H11V4a3.97,3.97,0,0,0-.537-2ZM5,7V4A2,2,0,0,1,9,4V7ZM30,45a1,1,0,0,1,1,1H17a1,1,0,0,1,1-1,3,3,0,0,0,3-3h6A3,3,0,0,0,30,45Zm16-6a1,1,0,0,1-1,1H3a1,1,0,0,1-1-1V14a1,1,0,0,1,1-1H9V32H8v2H40V32H39V13h6a1,1,0,0,1,1,1Z"/><path d="M12.586,10.91,16,12.462V22a8,8,0,0,0,16,0V12.462l2-.909V15h2V10a1,1,0,0,0-.586-.91l-11-5a1,1,0,0,0-.828,0l-11,5a1,1,0,0,0,0,1.82ZM30,22a6,6,0,0,1-12,0V20H30Zm0-4H18V13.371l5.586,2.539a1,1,0,0,0,.828,0L30,13.371ZM24,6.1,32.583,10,24,13.9,15.417,10Z"/><path d="M24,26a4,4,0,0,0,4-4H26a2,2,0,0,1-4,0H20A4,4,0,0,0,24,26Z"/><path d="M6,33H4v4a1,1,0,0,0,1,1H9V36H6Z"/><path d="M42,36H39v2h4a1,1,0,0,0,1-1V33H42Z"/></g></svg>