<svg width="24" height="24" viewBox="0 0 24 24" fill="none" xmlns="http://www.w3.org/2000/svg">
<path fill-rule="evenodd" clip-rule="evenodd" d="M12 9C12.5523 9 13 9.44772 13 10V14C13 14.4589 12.6877 14.8589 12.2425 14.9701L9.78816 15.5837L13.7682 20.3598C14.1218 20.7841 14.0645 21.4147 13.6402 21.7682C13.2159 22.1218 12.5854 22.0645 12.2318 21.6402L7.23179 15.6402C7.01149 15.3758 6.94259 15.0168 7.04938 14.6897C7.15617 14.3626 7.42364 14.1133 7.75747 14.0299L11 13.2192V10C11 9.44772 11.4477 9 12 9Z" fill="black"/>
<path fill-rule="evenodd" clip-rule="evenodd" d="M11 14C11 13.4477 11.4477 13 12 13H16C16.4347 13 16.8196 13.2808 16.9523 13.6948C17.085 14.1088 16.935 14.5611 16.5812 14.8137L9.58125 19.8137C9.13183 20.1347 8.50728 20.0307 8.18627 19.5812C7.86527 19.1318 7.96936 18.5073 8.41877 18.1863L12.8795 15H12C11.4477 15 11 14.5523 11 14Z" fill="black"/>
<path fill-rule="evenodd" clip-rule="evenodd" d="M14 5C14 3.89543 13.1046 3 12 3C10.8954 3 10 3.89543 10 5C10 6.10457 10.8954 7 12 7C13.1046 7 14 6.10457 14 5Z" fill="black"/>
<path fill-rule="evenodd" clip-rule="evenodd" d="M14.7343 3.85681C14.3791 4.2797 14.4339 4.91048 14.8568 5.2657L16.2545 6.43974L12 8.8506L7.74554 6.43974L9.1432 5.2657C9.56609 4.91048 9.62094 4.27969 9.26571 3.85681C8.91049 3.43392 8.2797 3.37907 7.85681 3.7343L5.35681 5.8343C5.10597 6.045 4.97424 6.36521 5.0042 6.69143C5.03415 7.01765 5.22198 7.30851 5.50699 7.47002L11.507 10.87C11.8128 11.0433 12.1872 11.0433 12.493 10.87L18.493 7.47002C18.778 7.30851 18.9659 7.01765 18.9958 6.69143C19.0258 6.36521 18.894 6.045 18.6432 5.8343L16.1432 3.7343C15.7203 3.37907 15.0895 3.43392 14.7343 3.85681Z" fill="black"/>
</svg>
