<svg xmlns="http://www.w3.org/2000/svg" viewBox="0 0 48 48"><title>15-whiteboard</title><g id="_15-whiteboard" data-name="15-whiteboard"><path d="M48,32V3a3,3,0,0,0-3-3H3A3,3,0,0,0,0,3V32a3,3,0,0,0,3,3H29.472L42.179,47.707a1,1,0,0,0,1.414,0l4.114-4.114a1,1,0,0,0,0-1.414L40.528,35H45A3,3,0,0,0,48,32ZM45.586,42.886l-2.7,2.7-2.7-2.7,2.7-2.7Zm-4.114-4.115-2.7,2.7L27.843,30.543l2.7-2.7Zm-14.1-10.582a10.433,10.433,0,0,0-1.611-2.418l.012-.012a10.474,10.474,0,0,0,2.418,1.61ZM38.528,33,31.25,25.722a1,1,0,0,0-1.414,0c-.257.254-1.91-.585-3.387-2.058a1,1,0,0,0-1.388-.017l-1.354-1.354-1.414,1.414,1.354,1.355a1,1,0,0,0,.017,1.388c1.474,1.478,2.312,3.131,2.058,3.386a1,1,0,0,0,0,1.414L27.472,33H3a1,1,0,0,1-1-1V3A1,1,0,0,1,3,2H21V3h6V2H45a1,1,0,0,1,1,1V32a1,1,0,0,1-1,1Z"/><rect x="5" y="22" width="16" height="2"/><rect x="5" y="26" width="9" height="2"/><path d="M13,19a7,7,0,1,0-7-7A7.008,7.008,0,0,0,13,19ZM14,7.1a4.991,4.991,0,0,1,3.167,7.652L14,11.586Zm-2,0V12a1,1,0,0,0,.293.707l3.46,3.46A5,5,0,1,1,12,7.1Z"/><path d="M41,5a2,2,0,0,0-2,2,1.979,1.979,0,0,0,.386,1.17l-2.708,6.093-4.471-4.47a1,1,0,0,0-1.514.116l-4.482,6.112A2.093,2.093,0,0,0,26,16a2.008,2.008,0,1,0,1.829,1.2l3.788-5.166,4.676,4.676a1,1,0,0,0,1.621-.3l3.3-7.428A1.995,1.995,0,0,0,41,5Z"/></g></svg>