<?xml version="1.0" encoding="UTF-8"?>
<!DOCTYPE svg PUBLIC "-//W3C//DTD SVG 1.1//EN" "http://www.w3.org/Graphics/SVG/1.1/DTD/svg11.dtd">
<!-- Creator: CorelDRAW X5 -->
<svg xmlns="http://www.w3.org/2000/svg" xml:space="preserve" width="2048px" height="2048px" style="shape-rendering:geometricPrecision; text-rendering:geometricPrecision; image-rendering:optimizeQuality; fill-rule:evenodd; clip-rule:evenodd"
viewBox="0 0 2048 2048"
 xmlns:xlink="http://www.w3.org/1999/xlink">
 <defs>
  <style type="text/css">
   <![CDATA[
    .fil1 {fill:none}
    .fil0 {fill:#212121;fill-rule:nonzero}
   ]]>
  </style>
 </defs>
 <g id="Layer_x0020_1">
  <metadata id="CorelCorpID_0Corel-Layer"/>
  <path class="fil0" d="M811 814c-37,-12 -75,-22 -114,-33 -176,-48 -366,-101 -431,-268 -1,-2 -1,-4 -1,-5l0 0c-5,-39 9,-67 30,-82 9,-6 19,-10 29,-12 10,-1 21,0 31,3 24,9 44,31 50,69 9,23 28,43 54,62 30,22 69,41 112,56 116,-22 186,6 248,29 47,18 89,35 143,18 2,-1 4,-1 6,-1 18,-2 29,-4 37,-6 9,-2 14,-2 20,-2 6,0 10,1 20,2 8,1 20,3 38,6 1,0 3,0 4,1l0 0c54,17 95,1 143,-18 61,-24 132,-51 248,-29 43,-15 82,-34 112,-56 26,-19 45,-40 54,-62 6,-38 27,-60 50,-69 10,-4 21,-5 31,-3 10,1 20,5 29,12 21,15 35,43 30,82 0,3 -1,5 -2,7 -65,166 -255,218 -430,266 -39,11 -78,21 -114,33 -22,175 -29,289 -26,401 4,116 20,233 45,417 0,1 0,2 0,3l0 0c0,41 -18,68 -41,80 -10,5 -20,8 -31,8 -11,0 -21,-3 -31,-8 -23,-12 -41,-39 -41,-79l-64 -396 0 0c0,-1 0,3 -2,2 -6,-3 -14,-5 -23,-5 -9,0 -17,2 -23,5 -1,1 -2,-3 -2,-2l0 0 0 0 -64 396c0,40 -18,66 -41,79 -10,5 -20,8 -31,8 -11,0 -21,-3 -31,-8 -23,-12 -41,-39 -41,-80 0,-2 0,-3 1,-5 25,-183 41,-299 45,-415 4,-113 -4,-226 -26,-401zm-102 -79c46,13 90,25 130,38 9,3 16,10 17,20 23,186 32,304 28,424 -4,118 -20,236 -45,420 0,20 7,32 16,37 3,1 5,2 8,2 3,0 6,-1 8,-2 9,-5 16,-17 16,-38l0 0c0,-1 0,-2 0,-4l64 -398 0 0c2,-15 13,-27 28,-34 12,-6 28,-9 43,-9l0 0c0,0 0,0 1,0 15,0 31,4 43,9 15,7 25,18 28,33 0,0 0,1 0,1l64 396c0,2 1,4 1,6 0,21 7,33 16,38 3,1 5,2 8,2 3,0 6,-1 8,-2 9,-5 16,-17 16,-37 -25,-184 -41,-301 -45,-420 -4,-119 5,-238 28,-424l0 0c1,-9 7,-17 16,-20 40,-14 85,-26 131,-39 163,-45 341,-94 398,-236 2,-18 -3,-29 -11,-34 -2,-2 -5,-3 -8,-3 -3,0 -6,0 -9,1 -9,3 -17,14 -20,33l0 0c0,2 -1,4 -1,5 -13,33 -38,62 -72,86 -35,26 -80,47 -130,64 -4,2 -9,2 -13,1 -106,-21 -171,4 -228,26 -55,22 -104,40 -173,19 -19,-3 -30,-4 -38,-6 -6,-1 -10,-2 -12,-2 -2,0 -5,1 -12,2 -7,1 -18,3 -38,6 -69,21 -117,2 -173,-19 -57,-22 -122,-47 -228,-26l0 0c-4,1 -8,1 -12,-1 -50,-17 -95,-39 -131,-65 -33,-24 -58,-52 -71,-85 -1,-2 -2,-5 -2,-7 -3,-19 -11,-30 -20,-33 -3,-1 -6,-1 -9,-1 -3,0 -5,1 -8,3 -8,5 -12,17 -11,34 57,143 234,191 398,236z"/>
  <path class="fil0" d="M1024 324c42,0 80,17 107,45 28,28 45,66 45,107 0,42 -17,80 -45,107 -28,28 -66,45 -107,45 -42,0 -80,-17 -107,-45 -28,-28 -45,-66 -45,-107 0,-42 17,-80 45,-107 28,-28 66,-45 107,-45zm74 78c-19,-19 -45,-30 -74,-30 -29,0 -55,12 -74,30 -19,19 -30,45 -30,74 0,29 12,55 30,74 19,19 45,30 74,30 29,0 55,-12 74,-30 19,-19 30,-45 30,-74 0,-29 -12,-55 -30,-74z"/>
 </g>
 <rect class="fil1" width="2048" height="2048"/>
</svg>
