<?xml version="1.0" encoding="utf-8"?>
<!-- Generator: Adobe Illustrator 16.0.0, SVG Export Plug-In . SVG Version: 6.00 Build 0)  -->
<!DOCTYPE svg PUBLIC "-//W3C//DTD SVG 1.1//EN" "http://www.w3.org/Graphics/SVG/1.1/DTD/svg11.dtd">
<svg version="1.1" id="Layer_1" xmlns="http://www.w3.org/2000/svg" xmlns:xlink="http://www.w3.org/1999/xlink" x="0px" y="0px"
	 width="128px" height="128px" viewBox="0 0 128 128" enable-background="new 0 0 128 128" xml:space="preserve">
<g>
	<g>
		<g>
			<path fill="#282D33" d="M105.508,66.294h-4V6.243c0-1.237-1.024-2.243-2.284-2.243H27.213c-1.259,0-2.283,1.006-2.283,2.243
				v47.684h-4V6.243C20.93,2.801,23.748,0,27.213,0h72.011c3.465,0,6.284,2.801,6.284,6.243V66.294z"/>
		</g>
		<g>
			<rect x="52.008" y="109.802" fill="#282D33" width="18.562" height="4"/>
		</g>
		<g>
			<rect x="39.005" y="100.563" fill="#282D33" width="25.14" height="4"/>
		</g>
		<g>
			<rect x="30.354" y="12.488" fill="#282D33" width="65.729" height="4"/>
		</g>
	</g>
	<g>
		<path fill="#282D33" d="M119.626,128h-4v-7.527l0.811-0.6c2.972-2.2,4.676-5.555,4.676-9.204V87.225l-0.25-5.081
			c-0.002-1.766-1.382-3.122-3.077-3.122c-3.066,0-3.077,1.23-3.077,1.762v0.006h-4v-1.254c0-1.668-1.379-3.025-3.073-3.025
			c-1.695,0-3.075,1.357-3.075,3.025h-4v-2.514c0-1.667-1.381-3.022-3.078-3.022c-1.694,0-3.073,1.355-3.073,3.022v2.813
			c0,0.005,0,0.01,0,0.015h-4c0-6.804-0.046-28.94-0.046-28.941c0-1.767-1.46-3.202-3.254-3.202c-1.791,0-3.248,1.435-3.248,3.198
			l-0.028,50.78l-3.998,0.083l-0.104-2.475l-0.002-10.466c0-3.129-2.582-5.675-5.756-5.675H73.39v7.444l0.241,1.571l-0.241,0.076
			v10.55l14.018,16.49c1.164,0.709,3.772,2.18,5.304,2.549l1.531,0.369V128h-4v-2.777c-2.331-0.915-4.877-2.494-5.218-2.708
			l-0.261-0.164L69.39,104.265l-0.005-13.412L69.33,89.33l0.06-0.019v-6.394l-0.118-0.016l0.118-2.327v-1.281l0.082-0.005
			l0.008-0.136l4.492-0.001c2.202,0,4.237,0.728,5.872,1.953l0.017-30.202c0-3.968,3.251-7.197,7.248-7.197
			c4,0,7.254,3.229,7.254,7.198l0,0c0,0,0.022,10.935,0.036,19.797c0.933-0.45,1.979-0.703,3.083-0.703
			c2.688,0,5.032,1.495,6.23,3.692c1.123-0.746,2.473-1.182,3.923-1.182c2.546,0,4.781,1.343,6.027,3.353
			c1.104-0.549,2.493-0.841,4.123-0.841c3.901,0,7.075,3.151,7.075,7.024l0.25,5.081l0.002,23.542c0,4.588-1.987,8.825-5.486,11.778
			V128z"/>
	</g>
	<g>
		<g>
			<path fill="#282D33" d="M31.656,112.256l-3.695-1.533c1.289-3.106,1.97-6.635,1.97-10.203c0-7.731-3.167-14.845-8.265-18.565
				l-1.185-0.864l3.61-10.726l3.373,0.104c1.771,0.067,3.418-0.627,4.689-1.846c1.266-1.213,1.979-2.84,2.007-4.58l0.02-1.199
				l-13.964-0.208l-6.987,15.649v32.809h-4v-33.66l8.44-18.836l20.411,0.305l0.105,1.858c0.017,0.222,0.024,0.375,0.02,0.535
				l-0.046,2.813c-0.045,2.816-1.195,5.446-3.239,7.404c-2.037,1.953-4.733,3.005-7.551,2.956l-0.435-0.014l-1.747,5.19
				c5.425,4.63,8.742,12.476,8.742,20.875C33.931,104.608,33.145,108.667,31.656,112.256z"/>
		</g>
	</g>
	<g>
		<polygon fill="#282D33" points="47.063,128 43.063,128 43.063,113.949 6.888,113.949 6.888,128 2.888,128 2.888,109.949 
			47.063,109.949 		"/>
	</g>
	<g>
		<path fill="#282D33" d="M59.351,42.124H34.546V22.68h24.805V42.124z M38.546,38.124h16.805V26.68H38.546V38.124z"/>
	</g>
	<g>
		<rect x="33.621" y="48.421" fill="#282D33" width="39.552" height="4"/>
	</g>
	<g>
		<rect x="42.723" y="58.716" fill="#282D33" width="30.45" height="4"/>
	</g>
	<g>
		<rect x="42.723" y="69.012" fill="#282D33" width="30.45" height="4"/>
	</g>
	<g>
		<rect x="33.621" y="79.309" fill="#282D33" width="29.474" height="4"/>
	</g>
	<g>
		<path fill="#282D33" d="M89.116,37.357h-4v-4h4V37.357z M89.116,29.357h-4v-4h4V29.357z M85.116,21.357V21.27h4L85.116,21.357z"/>
	</g>
</g>
</svg>
