<svg xmlns="http://www.w3.org/2000/svg" viewBox="0 0 48 48"><title>06-thinking</title><g id="_06-thinking" data-name="06-thinking"><path d="M26,12a6,6,0,1,0,6,6A6.006,6.006,0,0,0,26,12Zm0,10a4,4,0,1,1,4-4A4,4,0,0,1,26,22Z"/><path d="M35.657,22H37a3,3,0,0,0,3-3V17a3,3,0,0,0-3-3H35.657l.949-.95a3,3,0,0,0,0-4.242L35.192,7.394a3.07,3.07,0,0,0-4.242,0L30,8.343V7a3,3,0,0,0-3-3H25a3,3,0,0,0-3,3V8.343l-.949-.949a3.071,3.071,0,0,0-4.243,0L15.394,8.808a3,3,0,0,0,0,4.242l.949.95H15a3,3,0,0,0-3,3v2a3,3,0,0,0,3,3h1.343l-.949.95a3,3,0,0,0,0,4.242l1.414,1.414a3.07,3.07,0,0,0,4.242,0l.95-.949V29a3,3,0,0,0,3,3h2a3,3,0,0,0,3-3V27.657l.949.949a3.071,3.071,0,0,0,4.243,0l1.414-1.414a3,3,0,0,0,0-4.242Zm-.465,3.778-1.414,1.414a1.022,1.022,0,0,1-1.414,0l-1.785-1.784a1,1,0,0,0-1.14-.2,8.218,8.218,0,0,1-.773.322,1,1,0,0,0-.666.942V29a1,1,0,0,1-1,1H25a1,1,0,0,1-1-1V26.477a1,1,0,0,0-.666-.942,8.218,8.218,0,0,1-.773-.322,1.009,1.009,0,0,0-.433-.1,1,1,0,0,0-.707.293l-1.786,1.785a1.023,1.023,0,0,1-1.413,0l-1.414-1.414a1,1,0,0,1,0-1.414l1.784-1.785a1,1,0,0,0,.2-1.137,7.989,7.989,0,0,1-.321-.775A1,1,0,0,0,17.523,20H15a1,1,0,0,1-1-1V17a1,1,0,0,1,1-1h2.523a1,1,0,0,0,.944-.667,7.989,7.989,0,0,1,.321-.775,1,1,0,0,0-.2-1.137l-1.784-1.785a1,1,0,0,1,0-1.414l1.414-1.414a1.024,1.024,0,0,1,1.414,0l1.785,1.784a1,1,0,0,0,1.14.2,8.218,8.218,0,0,1,.773-.322A1,1,0,0,0,24,9.523V7a1,1,0,0,1,1-1h2a1,1,0,0,1,1,1V9.523a1,1,0,0,0,.666.942,8.218,8.218,0,0,1,.773.322,1,1,0,0,0,1.14-.2l1.786-1.785a1.023,1.023,0,0,1,1.413,0l1.414,1.414a1,1,0,0,1,0,1.414l-1.784,1.785a1,1,0,0,0-.2,1.137,7.989,7.989,0,0,1,.321.775,1,1,0,0,0,.944.667H37a1,1,0,0,1,1,1v2a1,1,0,0,1-1,1H34.477a1,1,0,0,0-.944.667,7.989,7.989,0,0,1-.321.775,1,1,0,0,0,.2,1.137l1.784,1.785A1,1,0,0,1,35.192,25.778Z"/><path d="M45.769,46.36l-4.7-5.641,3.916-21.54A.978.978,0,0,0,45,19a19,19,0,0,0-38-.219L2.09,29.586A1,1,0,0,0,3,31H7v9a3,3,0,0,0,3,3h6v4a1,1,0,0,0,1,1H45a1,1,0,0,0,.769-1.64ZM18,46V42a1,1,0,0,0-1-1H10a1,1,0,0,1-1-1V37h4V35H9V30a1,1,0,0,0-1-1H4.553L8.91,19.414A.986.986,0,0,0,9,19a17,17,0,0,1,34-.089l-3.983,21.91a1,1,0,0,0,.214.819L42.865,46Z"/></g></svg>