<?xml version="1.0" encoding="UTF-8" standalone="no"?>
<svg
   xmlns:dc="http://purl.org/dc/elements/1.1/"
   xmlns:cc="http://creativecommons.org/ns#"
   xmlns:rdf="http://www.w3.org/1999/02/22-rdf-syntax-ns#"
   xmlns:svg="http://www.w3.org/2000/svg"
   xmlns="http://www.w3.org/2000/svg"
   width="100%"
   height="100%"
   viewBox="0 0 64 64"
   version="1.1"
   xml:space="preserve"
   style="fill-rule:evenodd;clip-rule:evenodd;stroke-linecap:round;stroke-linejoin:round;stroke-miterlimit:2;"
   id="svg21">
  <metadata
   id="metadata27">
    <rdf:RDF>
      <cc:Work
   rdf:about="">
        <dc:format>image/svg+xml</dc:format>

        <dc:type
   rdf:resource="http://purl.org/dc/dcmitype/StillImage" />

      </cc:Work>

    </rdf:RDF>

  </metadata>

  <defs
   id="defs25" />

  
  <path
   d="M13,56c0,0 1.757,-7.268 3.226,-13.345c1.034,-4.276 0.918,-8.75 -0.334,-12.967"
   style="fill:none;stroke:#222a33;stroke-width:1.5px;"
   id="path3" />

  <path
   d="M19.615,13.422c3.082,-3.333 7.491,-5.422 12.385,-5.422c9.308,0 16.865,7.557 16.865,16.865c0,2.436 -0.518,4.751 -1.449,6.843c-0.738,1.592 -0.563,3.458 0.456,4.886c0.657,1.033 1.468,2.168 2.143,3.114c0.326,0.455 0.404,1.042 0.211,1.568c-0.193,0.525 -0.634,0.921 -1.177,1.056c-1.356,0.339 -2.779,0.695 -2.779,0.695c0,0 -0.584,3.506 -0.968,5.812c-0.182,1.089 -1.212,1.825 -2.301,1.643c-2.306,-0.384 -5.812,-0.968 -5.812,-0.968l1.297,6.486"
   style="fill:none;stroke:#222a33;stroke-width:1.5px;"
   id="path5" />

  <path
   d="M37.189,49.514l-2.216,-0.675"
   style="fill:none;stroke:#222a33;stroke-width:1.5px;"
   id="path7" />

  <path
   d="M26.727,38l0,-2.903c0,-4.981 1.796,-9.796 5.059,-13.561c0.638,-0.736 1.072,-1.237 1.072,-1.237"
   style="fill:none;stroke:#222a33;stroke-width:1.5px;"
   id="path9" />

  <path
   d="M26.727,33.095c0,0 -0.192,-1.732 -0.39,-3.516c-0.276,-2.48 -1.421,-4.783 -3.232,-6.5c-2.638,-2.501 -6.187,-5.865 -6.187,-5.865"
   style="fill:none;stroke:#222a33;stroke-width:1.5px;"
   id="path11" />

  <path
   d="M24.185,24.103c0,0 1.237,-4.461 -1.136,-8.174c-1.711,-2.676 -8.175,-4.255 -11.651,-4.928c-0.592,-0.114 -1.204,0.044 -1.669,0.428c-0.464,0.385 -0.731,0.958 -0.729,1.561c0.026,2.599 0.631,6.856 3.831,10.296c4.974,5.348 9.4,3.27 9.4,3.27"
   style="fill:none;stroke:#222a33;stroke-width:1.5px;"
   id="path13" />

  <path
   d="M29.207,24.512c0,0 -1.552,-3.308 -0.196,-6.51c0.916,-2.162 5.205,-4.127 7.894,-5.174c0.579,-0.226 1.229,-0.173 1.763,0.144c0.534,0.317 0.892,0.862 0.971,1.478c0.236,2.056 0.142,5.111 -1.706,7.926c-3.163,4.818 -6.882,3.786 -6.882,3.786"
   style="fill:none;stroke:#222a33;stroke-width:1.5px;"
   id="path15" />

  <path
   d="M21.15,21.225l-4.681,0"
   style="fill:none;stroke:#222a33;stroke-width:1.5px;"
   id="path17" />

  <path
   d="M32,48l-1,-1"
   style="fill:none;stroke:#222a33;stroke-width:1.5px;"
   id="path19" />

</svg>
