<?xml version="1.0" encoding="iso-8859-1"?>
<!-- Generator: Adobe Illustrator 19.0.1, SVG Export Plug-In . SVG Version: 6.00 Build 0)  -->
<svg version="1.1" xmlns="http://www.w3.org/2000/svg" xmlns:xlink="http://www.w3.org/1999/xlink" x="0px" y="0px"
	 viewBox="0 0 128 128" style="enable-background:new 0 0 128 128;" xml:space="preserve">
<g id="_x31_1">
	<path style="fill:#262626;" d="M30.69,46.47c-0.014,0.191-0.014,0.369-0.014,0.56c0.068-0.109,0.136-0.232,0.205-0.341
		C30.813,46.62,30.758,46.538,30.69,46.47z M126.482,70.339c-1.105-2.102-2.675-4.435-4.285-6.837
		c-1.597-2.402-1.897-3.48-3.057-5.664c-0.819-1.529-1.651-3.958-1.733-5.527c-0.041-0.887-0.805-9.035-1.856-12.883
		c-1.387-5.062-5.832-13.579-10.609-13.352c-6.457,0.307,12.323-1.339,2.957-10.918c-10.008-10.236-43.9-6.424-48.795-2.766
		c1.31,0.86,2.62,1.911,3.958,3.207l1.447,1.406l-0.914,1.788c-0.218,0.45-0.45,0.901-0.71,1.351c0,0,0,0,0,0.014
		c0.478-0.123,0.969-0.232,1.447-0.328l1.952-0.409l0.983,1.733c1.051,1.829,1.842,3.794,2.388,5.841l0.505,1.924l-1.679,1.064
		c-0.423,0.273-0.846,0.532-1.269,0.778v0.014c0.519,0.15,0.996,0.3,1.46,0.464l1.897,0.641l-0.041,2.006
		c-0.068,2.347-0.355,4.394-0.887,6.251l-0.546,1.883l-1.965,0.096c-0.491,0.014-0.983,0.027-1.46,0.041
		c0.328,0.355,0.655,0.71,0.996,1.078l1.31,1.46l-0.969,1.706c-0.955,1.679-2.211,3.316-3.862,5.009l-1.406,1.46l-1.801-0.928
		c-0.437-0.232-0.873-0.464-1.324-0.723c0,0,0,0,0,0.014c0.109,0.464,0.218,0.955,0.328,1.447l0.396,1.938l-1.72,0.983
		c-1.801,1.037-3.767,1.842-5.841,2.388l-1.924,0.505l-1.064-1.665c-0.273-0.409-0.532-0.833-0.792-1.269
		c-0.15,0.505-0.314,0.996-0.464,1.46l-0.655,1.911l-2.006-0.068c-2.388-0.068-4.435-0.355-6.251-0.887l-1.883-0.546l-0.082-1.952
		c-0.027-0.519-0.041-0.996-0.041-1.46h-0.014c-0.341,0.314-0.696,0.641-1.078,0.983l-1.46,1.31l-1.706-0.955
		c-0.314-0.177-0.614-0.369-0.928-0.573c0.109,0.546,0.232,1.092,0.369,1.61c0.71,2.689,12.911,26.217,13.688,28.537
		c0.764,2.279,0.901,4.012,0.846,6.687c-0.164,8.584-9.881,27.008-9.881,27.008l55.668,0.819c0,0-0.096-3.671-0.15-6.988
		c2.934,0,5.869,0.014,10.672-0.095c4.804-0.096,7.779-2.375,10.7-7.383c0.725-1.246,1.21-2.665,1.566-4.257
		c0.261-1.169-5.301-1.516-4.96-5.269c0.15-1.649,5.938-0.581,6.136-2.503c0.284-2.758,0.646-7.168,1.311-10.504
		c0.396-1.992,2.784-1.897,4.599-2.143c1.856-0.259,4.449-1.105,5.623-3.644C128.625,74.461,127.437,72.127,126.482,70.339z
		 M106.297,62.833c-2.866,0-5.213-2.361-5.213-5.227c0-2.88,2.347-5.227,5.213-5.227c2.88,0,5.227,2.347,5.227,5.227
		C111.524,60.472,109.177,62.833,106.297,62.833z M27.171,27.703c-1.095-0.048-2.155-0.032-3.255,0.011
		c-0.514,1.805-0.722,3.694-0.775,5.57c1.024,0.341,2.098,0.638,3.148,0.893c0.043,0.598,0.033,1.21,0.143,1.803
		c0.106,0.601,0.145,1.198,0.311,1.783c-0.948,0.504-1.891,1.053-2.816,1.65c0.478,1.809,1.193,3.557,2.114,5.186
		c1.078-0.228,2.139-0.484,3.172-0.792c0.284,0.534,0.678,0.993,1.021,1.491c0.337,0.501,0.771,0.932,1.161,1.39
		c-0.574,0.917-1.137,1.882-1.625,2.848c1.349,1.301,2.809,2.506,4.448,3.428c0.819-0.734,1.583-1.462,2.336-2.264l1.627,0.788
		l1.703,0.617c-0.047,1.094-0.033,2.15,0.015,3.249c1.8,0.522,3.692,0.725,5.566,0.78c0.349-1.021,0.647-2.092,0.897-3.149
		c0.601-0.039,1.209-0.036,1.803-0.144c0.594-0.101,1.201-0.145,1.783-0.309c0.505,0.945,1.054,1.889,1.649,2.813
		c1.809-0.477,3.559-1.182,5.185-2.115c-0.223-1.077-0.482-2.134-0.787-3.163c0.528-0.288,0.992-0.686,1.485-1.025
		c0.505-0.342,0.934-0.776,1.393-1.165c0.914,0.577,1.882,1.137,2.839,1.629c1.306-1.347,2.512-2.818,3.437-4.451
		c-0.731-0.817-1.465-1.579-2.258-2.338l0.777-1.626l0.616-1.702c1.099,0.049,2.158,0.035,3.254-0.012
		c0.521-1.809,0.73-3.697,0.778-5.564c-1.017-0.347-2.094-0.646-3.149-0.901c-0.037-0.601-0.031-1.203-0.139-1.798
		c-0.106-0.594-0.145-1.203-0.312-1.787c0.95-0.504,1.893-1.058,2.817-1.647c-0.478-1.813-1.193-3.56-2.119-5.188
		c-1.073,0.224-2.13,0.488-3.163,0.793c-0.286-0.528-0.686-0.997-1.027-1.494c-0.334-0.503-0.768-0.926-1.159-1.391
		c0.576-0.91,1.137-1.879,1.622-2.839c-1.343-1.301-2.813-2.507-4.449-3.435c-0.814,0.73-1.581,1.463-2.332,2.268l-1.629-0.786
		l-1.701-0.616c0.049-1.098,0.035-2.159-0.017-3.257c-1.805-0.514-3.692-0.724-5.56-0.776c-0.35,1.019-0.646,2.098-0.899,3.149
		c-0.601,0.041-1.208,0.035-1.806,0.143c-0.592,0.103-1.196,0.143-1.782,0.313c-0.506-0.954-1.056-1.894-1.648-2.821
		c-1.81,0.48-3.558,1.194-5.191,2.114c0.227,1.076,0.493,2.14,0.794,3.172c-0.532,0.285-0.994,0.684-1.489,1.022
		c-0.506,0.336-0.931,0.77-1.39,1.166c-0.914-0.578-1.878-1.142-2.839-1.627c-1.307,1.35-2.51,2.809-3.437,4.446
		c0.733,0.816,1.462,1.586,2.264,2.334l-0.784,1.63L27.171,27.703z M34.849,34.908c-0.27-1.897,0.064-3.825,0.763-5.616
		c0.794-1.757,1.938-3.343,3.486-4.477c1.522-1.162,3.362-1.914,5.266-2.146c1.898-0.275,3.829,0.056,5.619,0.76
		c1.754,0.788,3.34,1.94,4.474,3.485c1.164,1.521,1.919,3.361,2.147,5.267c0.273,1.897-0.055,3.824-0.762,5.615
		c-0.783,1.758-1.937,3.341-3.484,4.474c-1.521,1.169-3.362,1.919-5.264,2.155c-1.902,0.269-3.83-0.061-5.62-0.76
		c-1.755-0.794-3.341-1.943-4.478-3.488C35.835,38.649,35.085,36.817,34.849,34.908z M1.49,39.169
		C0.98,39.362,0.493,39.572,0,39.807c0.113,0.925,0.38,1.834,0.721,2.706c0.533-0.045,1.082-0.112,1.616-0.201
		c0.133,0.269,0.248,0.553,0.412,0.802c0.163,0.252,0.299,0.522,0.487,0.758c-0.339,0.415-0.664,0.846-0.969,1.296
		c0.562,0.74,1.226,1.405,1.966,1.971c0.449-0.307,0.888-0.632,1.302-0.973c0.233,0.189,0.504,0.321,0.758,0.49
		c0.25,0.163,0.528,0.277,0.796,0.414c-0.087,0.53-0.152,1.077-0.195,1.615c0.872,0.337,1.777,0.606,2.703,0.713
		c0.236-0.49,0.445-0.976,0.636-1.485l0.899,0.044l0.899-0.044c0.19,0.509,0.401,0.994,0.637,1.485
		c0.928-0.107,1.835-0.376,2.703-0.713c-0.039-0.538-0.107-1.085-0.197-1.615c0.267-0.137,0.547-0.252,0.801-0.414
		c0.25-0.169,0.527-0.301,0.758-0.49c0.415,0.341,0.846,0.666,1.3,0.973c0.736-0.566,1.404-1.231,1.975-1.971
		c-0.313-0.449-0.641-0.881-0.978-1.296c0.187-0.236,0.326-0.506,0.487-0.758c0.17-0.249,0.276-0.533,0.411-0.802
		c0.534,0.089,1.085,0.156,1.622,0.201c0.332-0.872,0.603-1.781,0.716-2.706c-0.497-0.236-0.976-0.445-1.495-0.638l0.047-0.9
		l-0.047-0.897c0.52-0.195,0.998-0.399,1.495-0.634c-0.113-0.928-0.384-1.831-0.716-2.703c-0.537,0.035-1.088,0.109-1.622,0.201
		c-0.135-0.275-0.241-0.553-0.411-0.808c-0.161-0.252-0.3-0.518-0.487-0.757c0.336-0.412,0.664-0.854,0.978-1.303
		c-0.57-0.732-1.238-1.402-1.975-1.968c-0.453,0.309-0.884,0.633-1.3,0.977c-0.231-0.192-0.508-0.325-0.758-0.485
		c-0.254-0.169-0.534-0.277-0.801-0.412c0.09-0.536,0.157-1.088,0.197-1.619c-0.868-0.341-1.775-0.61-2.703-0.718
		c-0.236,0.497-0.447,0.976-0.637,1.486l-0.899-0.044l-0.899,0.044c-0.191-0.51-0.4-0.989-0.636-1.486
		c-0.926,0.108-1.831,0.377-2.703,0.718c0.043,0.532,0.108,1.084,0.195,1.619c-0.267,0.135-0.546,0.243-0.796,0.412
		c-0.254,0.16-0.524,0.293-0.758,0.485c-0.414-0.344-0.853-0.668-1.302-0.977c-0.74,0.566-1.403,1.237-1.966,1.968
		c0.305,0.449,0.63,0.892,0.969,1.303c-0.189,0.239-0.325,0.505-0.487,0.757c-0.164,0.255-0.279,0.533-0.412,0.808
		c-0.534-0.092-1.083-0.167-1.616-0.201C0.38,34.907,0.113,35.811,0,36.738c0.493,0.236,0.98,0.44,1.49,0.634L1.445,38.27
		L1.49,39.169z M6.408,40.999c-0.494-0.821-0.714-1.77-0.734-2.73c0.02-0.958,0.24-1.906,0.734-2.722
		c0.47-0.829,1.17-1.531,1.999-2.002c0.821-0.489,1.767-0.709,2.724-0.733c0.96,0.024,1.907,0.244,2.729,0.733
		c0.828,0.471,1.525,1.173,1.996,2.002c0.496,0.816,0.712,1.763,0.738,2.722c-0.026,0.96-0.242,1.908-0.738,2.73
		c-0.471,0.83-1.169,1.53-1.996,2.003c-0.822,0.489-1.769,0.708-2.729,0.737c-0.956-0.029-1.902-0.248-2.724-0.737
		C7.578,42.529,6.878,41.829,6.408,40.999z"/>
</g>
<g id="Layer_1">
</g>
</svg>
