<?xml version="1.0" encoding="utf-8"?>
<!-- Generator: Adobe Illustrator 16.0.0, SVG Export Plug-In . SVG Version: 6.00 Build 0)  -->
<!DOCTYPE svg PUBLIC "-//W3C//DTD SVG 1.1//EN" "http://www.w3.org/Graphics/SVG/1.1/DTD/svg11.dtd">
<svg version="1.1" id="Layer_1" xmlns="http://www.w3.org/2000/svg" xmlns:xlink="http://www.w3.org/1999/xlink" x="0px" y="0px"
	 width="128px" height="128px" viewBox="0 0 128 128" enable-background="new 0 0 128 128" xml:space="preserve">
<g>
	<g>
		<path fill="#282D33" d="M74.615,122.707h-3.578c-0.126,0-0.253-0.007-0.38-0.016l-0.116-0.007l-1.947-0.051v-17.985l-3.734-5.333
			L49.323,82.114c-2.118-2.262-3.724-5.003-4.683-7.986h-4.834v-4h7.924l0.369,1.532c0.699,2.902,2.141,5.581,4.169,7.746
			l15.798,17.513l4.528,6.468v15.32h2.021c4.823,0,8.748-3.988,8.748-8.891V97.839l-3.654-13.084l12.583,0.028
			c0.4,0.069,0.764,0.103,1.11,0.103h24.021c3.627,0,6.577-3.002,6.577-6.692s-2.95-6.692-6.577-6.692h-4.575v-4
			c3.627,0,6.578-3.003,6.578-6.694c0-3.692-2.951-6.695-6.578-6.695h-2.287v-4c3.628,0,6.58-3.001,6.58-6.691
			c0-3.692-2.952-6.697-6.58-6.697h-6.862v-4c3.628,0,6.579-3.002,6.579-6.693s-2.951-6.692-6.579-6.692l-39.189-0.044
			c-5.366,0-10.298,2.518-13.532,6.909l-0.6,0.814H39.804v-4h8.581c3.992-4.921,9.813-7.723,16.124-7.723l39.189,0.044
			c5.833,0,10.579,4.796,10.579,10.692c0,2.569-0.901,4.93-2.4,6.775c5.215,0.657,9.264,5.167,9.264,10.614
			c0,3.118-1.327,5.928-3.441,7.884c3.399,1.781,5.727,5.372,5.727,9.502c0,2.773-1.05,5.303-2.768,7.206
			c4.255,1.385,7.342,5.425,7.342,10.181c0,5.896-4.745,10.692-10.577,10.692H93.402c-0.521,0-1.051-0.043-1.611-0.131h-6.813
			l2.385,8.535v12.526C87.363,116.924,81.645,122.707,74.615,122.707z"/>
	</g>
	<g>
		<polygon fill="#282D33" points="33.733,77.686 0,77.686 0,73.686 29.733,73.686 29.733,9.293 0,9.293 0,5.293 33.733,5.293 		"/>
	</g>
	<g>
		<rect x="19.484" y="15.094" fill="#282D33" width="4.431" height="4"/>
	</g>
</g>
</svg>
