<?xml version="1.0" encoding="utf-8"?>
<!-- Generator: Adobe Illustrator 16.0.0, SVG Export Plug-In . SVG Version: 6.00 Build 0)  -->
<!DOCTYPE svg PUBLIC "-//W3C//DTD SVG 1.0//EN" "http://www.w3.org/TR/2001/REC-SVG-20010904/DTD/svg10.dtd">
<svg version="1.0" id="Layer_1" xmlns="http://www.w3.org/2000/svg" xmlns:xlink="http://www.w3.org/1999/xlink" x="0px" y="0px"
	 width="100px" height="100px" viewBox="0 0 100 100" enable-background="new 0 0 100 100" xml:space="preserve">
<path d="M46.667,90v-0.008c-4.922,0-11.021-2.695-13.333-6.66v-6.666v-30V40c5.521,0,10-4.479,10-10V13.333
	c0-1.843,1.491-3.333,3.333-3.333C54.029,10,60,15.97,60,23.333v13.333C60,38.509,61.49,40,63.334,40H80c5.52,0,10,4.479,10,10v30
	h-0.004c0,5.52-4.477,9.992-9.996,10H46.667z"/>
<rect x="10" y="40" width="16.666" height="43.333"/>
</svg>
