<?xml version="1.0" encoding="utf-8"?>
<!-- Generator: Adobe Illustrator 16.0.0, SVG Export Plug-In . SVG Version: 6.00 Build 0)  -->
<!DOCTYPE svg PUBLIC "-//W3C//DTD SVG 1.0//EN" "http://www.w3.org/TR/2001/REC-SVG-20010904/DTD/svg10.dtd">
<svg version="1.0" id="Layer_1" xmlns="http://www.w3.org/2000/svg" xmlns:xlink="http://www.w3.org/1999/xlink" x="0px" y="0px"
	 width="100px" height="100px" viewBox="0 0 100 100" enable-background="new 0 0 100 100" xml:space="preserve">
<path d="M53.333,70c1.843,0,3.334,1.49,3.334,3.334c0,1.842-1.491,3.332-3.334,3.332c-1.842,0-3.333-1.49-3.333-3.332
	C50,71.49,51.491,70,53.333,70z"/>
<path d="M56.667,53.334V36.667H50v20C50,58.51,51.491,60,53.333,60h20v-6.666H56.667z"/>
<rect x="13.333" y="53.334" width="30" height="6.666"/>
<rect x="13.333" y="40" width="30" height="6.667"/>
<rect x="13.333" y="66.666" width="30" height="6.668"/>
<path d="M31.931,31.159c4.996-4.194,11.214-6.976,18.069-7.656v-6.836H40V10h26.667v6.667h-10V23.5
	c4.671,0.465,9.049,1.907,12.949,4.098l3.929-5.609l5.462,3.825l-3.936,5.618c7.09,6.11,11.596,15.137,11.596,25.234
	C86.667,75.074,71.741,90,53.333,90c-8.157,0-15.625-2.939-21.419-7.807l4.284-5.104c4.635,3.893,10.608,6.244,17.135,6.244
	C68.06,83.334,80,71.393,80,56.666C80,41.937,68.06,30,53.333,30c-6.529,0-12.5,2.352-17.135,6.245L31.931,31.159z"/>
</svg>
