<svg xmlns="http://www.w3.org/2000/svg" viewBox="0 0 25 25"><defs><style>.cls-1{fill:#231f20;}</style></defs><g id="time_2" data-name="time 2"><path class="cls-1" d="M19,7.5a.5.5,0,0,0,.5.5h3A.51.51,0,0,0,23,7.66l1-3A.5.5,0,0,0,23.66,4a.5.5,0,0,0-.63.31L22.3,6.53A11.49,11.49,0,1,0,12.5,24a11.59,11.59,0,0,0,11-8.18.5.5,0,0,0-.34-.63.5.5,0,0,0-.62.34A10.5,10.5,0,1,1,12.5,2a10.46,10.46,0,0,1,8.92,5H19.5A.5.5,0,0,0,19,7.5Z"/><path class="cls-1" d="M12,6.5v7.1L7.16,18.13a.51.51,0,0,0,0,.71A.5.5,0,0,0,7.5,19a.48.48,0,0,0,.34-.13l5-4.69a.48.48,0,0,0,.16-.36V6.5a.5.5,0,0,0-1,0Z"/></g></svg>