<svg xmlns="http://www.w3.org/2000/svg" viewBox="0 0 48 48"><title>12-examination</title><g id="_12-examination" data-name="12-examination"><path d="M12,15H8a1,1,0,0,0-1,1v4a1,1,0,0,0,1,1h4a1,1,0,0,0,1-1V16A1,1,0,0,0,12,15Zm-1,4H9V17h2Z"/><path d="M21,15H17a1,1,0,0,0-1,1v4a1,1,0,0,0,1,1h4a1,1,0,0,0,1-1V16A1,1,0,0,0,21,15Zm-1,4H18V17h2Z"/><path d="M21,24H17a1,1,0,0,0-1,1v4a1,1,0,0,0,1,1h4a1,1,0,0,0,1-1V25A1,1,0,0,0,21,24Zm-1,4H18V26h2Z"/><path d="M26,30h4a1,1,0,0,0,1-1V25a1,1,0,0,0-1-1H26a1,1,0,0,0-1,1v4A1,1,0,0,0,26,30Zm1-4h2v2H27Z"/><path d="M12,33H8a1,1,0,0,0-1,1v4a1,1,0,0,0,1,1h4a1,1,0,0,0,1-1V34A1,1,0,0,0,12,33Zm-1,4H9V35h2Z"/><path d="M10,24a3,3,0,1,0,3,3A3,3,0,0,0,10,24Zm0,4a1,1,0,1,1,1-1A1,1,0,0,1,10,28Z"/><path d="M19,33a3,3,0,1,0,3,3A3,3,0,0,0,19,33Zm0,4a1,1,0,1,1,1-1A1,1,0,0,1,19,37Z"/><path d="M28,21a3,3,0,1,0-3-3A3,3,0,0,0,28,21Zm0-4a1,1,0,1,1-1,1A1,1,0,0,1,28,17Z"/><path d="M47.7,25.961l-1.449-1.414a1,1,0,0,0-.005-1.424l-2.909-2.839a1,1,0,0,0-1.4,0L38,24.127V3a3,3,0,0,0-3-3H9c-.022,0-.042.011-.064.013A.938.938,0,0,0,8.68.064C8.648.075,8.617.083,8.585.1a.992.992,0,0,0-.292.2l-8,8A1,1,0,0,0,0,9V45a3,3,0,0,0,3,3H35a3,3,0,0,0,3-3V32.6l6.819-6.653.749.731-5.085,4.962,1.4,1.432L47.7,27.393a1,1,0,0,0,0-1.432ZM36,45a1,1,0,0,1-1,1H3a1,1,0,0,1-1-1V9.414l6-6V7A1,1,0,0,1,7,8H5v2H7a3,3,0,0,0,3-3V2H35a1,1,0,0,1,1,1V26h.081l-11.6,11.316a1.013,1.013,0,0,0-.215.316l0,0L22.084,42.6A1,1,0,0,0,23,44a.986.986,0,0,0,.386-.078L28.46,41.8h0l.014-.006v0a.983.983,0,0,0,.313-.2L36,34.551Zm-7.909-5.526-1.478-1.442,11.66-11.377L39.75,28.1ZM41.182,26.7,39.7,25.258,42.637,22.4l1.477,1.442Z"/><rect x="29" y="4" width="4" height="2"/><rect x="25" y="8" width="8" height="2"/></g></svg>