<?xml version="1.0" encoding="utf-8"?>
<!-- Generator: Adobe Illustrator 16.0.0, SVG Export Plug-In . SVG Version: 6.00 Build 0)  -->
<!DOCTYPE svg PUBLIC "-//W3C//DTD SVG 1.1//EN" "http://www.w3.org/Graphics/SVG/1.1/DTD/svg11.dtd">
<svg version="1.1" id="icons" xmlns="http://www.w3.org/2000/svg" xmlns:xlink="http://www.w3.org/1999/xlink" x="0px" y="0px"
	 width="64px" height="64px" viewBox="0 0 64 64" enable-background="new 0 0 64 64" xml:space="preserve">
<g>
	<g>
		<path fill="#CCD1D9" d="M55.019,21v42h-4v-0.01V21c0-3.31-2.68-5.99-5.98-6v-4C50.559,11.01,55.019,15.48,55.019,21z"/>
	</g>
	<g>
		<polygon fill="#E6E9ED" points="41.038,19 41.038,22 40.038,22 26.038,22 25.038,22 25.038,19 		"/>
	</g>
	<g>
		<polygon fill="#656D78" points="45.038,15 45.038,25 41.038,25 41.038,22 41.038,19 41.038,1 45.038,1 45.038,11 		"/>
	</g>
	<g>
		<polygon fill="#CCD1D9" points="40.038,22 38.038,32 28.038,32 26.038,22 		"/>
	</g>
	<g>
		<path fill="#FC6E51" d="M7.019,19c3.31,0,6,2.68,6,6c0,3.31-2.69,6-6,6s-6-2.69-6-6C1.019,21.68,3.709,19,7.019,19z"/>
	</g>
</g>
<g>
	<g>
		<path d="M41.021,23.002H25.019c-0.553,0-1-0.447-1-1v-3c0-0.553,0.447-1,1-1h16.002c0.553,0,1,0.447,1,1v3
			C42.021,22.555,41.573,23.002,41.021,23.002z M26.019,21.002h14.002v-1H26.019V21.002z"/>
	</g>
	<g>
		<path d="M28.018,33.004c-0.467,0-0.885-0.328-0.979-0.804l-2-10.004c-0.108-0.542,0.243-1.068,0.784-1.177
			c0.547-0.113,1.069,0.243,1.177,0.784l2,10.004c0.108,0.542-0.243,1.068-0.784,1.177C28.148,32.998,28.082,33.004,28.018,33.004z"
			/>
	</g>
	<g>
		<path d="M38.02,33.004c-0.065,0-0.131-0.006-0.197-0.02c-0.541-0.108-0.893-0.635-0.784-1.177l2.002-10.004
			c0.108-0.542,0.635-0.897,1.177-0.784c0.541,0.108,0.893,0.635,0.784,1.177L38.999,32.2C38.904,32.676,38.486,33.004,38.02,33.004
			z"/>
	</g>
	<g>
		<path d="M38.019,33.004h-10c-0.553,0-1-0.447-1-1s0.447-1,1-1h10c0.553,0,1,0.447,1,1S38.571,33.004,38.019,33.004z"/>
	</g>
	<g>
		<path d="M45.021,26.002h-4c-0.553,0-1-0.447-1-1V1c0-0.553,0.447-1,1-1h4c0.553,0,1,0.447,1,1v24.002
			C46.021,25.555,45.573,26.002,45.021,26.002z M42.021,24.002h2V2h-2V24.002z"/>
	</g>
	<g>
		<path d="M7.001,32c-3.859,0-7-3.141-7-7s3.141-7,7-7s7,3.141,7,7S10.86,32,7.001,32z M7.001,20c-2.757,0-5,2.243-5,5s2.243,5,5,5
			s5-2.243,5-5S9.758,20,7.001,20z"/>
	</g>
	<g>
		<path d="M33.019,16.994c-0.553,0-1-0.447-1-1c0-6.622-5.388-12.01-12.01-12.01c-6.621,0-12.008,5.388-12.008,12.01
			c0,0.553-0.447,1-1,1s-1-0.447-1-1c0-7.725,6.284-14.01,14.008-14.01c7.725,0,14.01,6.285,14.01,14.01
			C34.019,16.547,33.571,16.994,33.019,16.994z"/>
	</g>
	<g>
		<path d="M54.997,22c-0.553,0-1-0.447-1-1c0-4.963-4.037-9-9-9c-0.553,0-1-0.447-1-1s0.447-1,1-1c6.065,0,11,4.935,11,11
			C55.997,21.553,55.55,22,54.997,22z"/>
	</g>
	<g>
		<path d="M50.997,22c-0.553,0-1-0.447-1-1c0-2.757-2.243-5-5-5c-0.553,0-1-0.447-1-1s0.447-1,1-1c3.859,0,7,3.141,7,7
			C51.997,21.553,51.55,22,50.997,22z"/>
	</g>
	<g>
		<path d="M54.997,64c-0.553,0-1-0.447-1-1V21c0-0.553,0.447-1,1-1s1,0.447,1,1v42C55.997,63.553,55.55,64,54.997,64z"/>
	</g>
	<g>
		<path d="M50.997,63.998c-0.553,0-1-0.447-1-1V21c0-0.553,0.447-1,1-1s1,0.447,1,1v41.998
			C51.997,63.551,51.55,63.998,50.997,63.998z"/>
	</g>
	<g>
		<path d="M63,64H43.041c-0.553,0-1-0.447-1-1s0.447-1,1-1H63c0.553,0,1,0.447,1,1S63.553,64,63,64z"/>
	</g>
</g>
</svg>
