<?xml version="1.0" encoding="UTF-8"?>
<!DOCTYPE svg PUBLIC "-//W3C//DTD SVG 1.1//EN" "http://www.w3.org/Graphics/SVG/1.1/DTD/svg11.dtd">
<!-- Creator: CorelDRAW -->
<svg xmlns="http://www.w3.org/2000/svg" xml:space="preserve" width="2048px" height="2048px" style="shape-rendering:geometricPrecision; text-rendering:geometricPrecision; image-rendering:optimizeQuality; fill-rule:evenodd; clip-rule:evenodd"
viewBox="0 0 2048 2048"
 xmlns:xlink="http://www.w3.org/1999/xlink">
 <defs>
  <style type="text/css">
   <![CDATA[
    .fil2 {fill:none}
    .fil1 {fill:#424242}
    .fil0 {fill:#424242;fill-rule:nonzero}
   ]]>
  </style>
 </defs>
 <g id="Layer_x0020_1">
  <metadata id="CorelCorpID_0Corel-Layer"/>
  <g id="_290111048">
   <path id="_290095688" class="fil0" d="M946.507 297.585c25.6925,-25.6925 61.1871,-41.5855 100.391,-41.5855 39.2044,0 74.7001,15.8929 100.393,41.5855 25.6925,25.6937 41.5855,61.1882 41.5855,100.393 0,39.2044 -15.8929,74.7001 -41.5855,100.393 -25.6925,25.6925 -61.1882,41.5855 -100.393,41.5855 -39.2044,0 -74.6989,-15.8929 -100.391,-41.5855 -25.6925,-25.6925 -41.5866,-61.1882 -41.5866,-100.393 0,-39.2044 15.8941,-74.6989 41.5866,-100.393z"/>
   <path id="_290095304" class="fil1" d="M1180.27 702.734c0,-36.587 -15.9295,-70.017 -42.9414,-94.3359 -27.0272,-24.3307 -62.602,-37.1504 -98.8454,-37.1504 -36.2433,0 -71.817,12.8209 -98.843,37.1504 -27.013,24.3189 -42.9426,57.7489 -42.9426,94.3359l0 393.865c0,30.1158 3.12874,60.9095 6.90827,90.7666 4.45748,35.2181 10.1965,70.3182 16.1823,105.305 10.2697,60.0119 22.1717,120.606 29.5252,181.009l0.729922 5.99174 -3.24922 5.08701c-20.4083,31.9477 -37.6087,67.3938 -54.6,101.294 -17.6421,35.1981 -35.5937,71.8737 -57.0296,104.899 -8.44843,13.0158 -12.0071,28.9004 -10.7764,44.3067 1.2815,16.0358 7.74331,31.8154 19.461,43.0418 10.0122,9.59174 23.0292,14.9351 36.9638,13.4575 14.3811,-1.52599 26.5229,-9.90001 34.8673,-21.4595 32.3398,-44.7981 65.8028,-88.7741 98.0859,-133.562 17.465,-24.2292 35.1,-49.493 47.2193,-76.9087 14.3622,-32.4862 21.2622,-69.1406 27.4323,-103.939 5.2252,-29.4603 9.88583,-59.054 14.6669,-88.591 6.92363,-42.7819 13.9784,-85.532 21.3697,-128.236 2.16024,-12.4795 4.23426,-24.9744 6.41221,-37.4504l1.01339 -5.81103 4.42441 -3.90237c12.3059,-10.8555 22.6099,-23.8642 30.1276,-38.4579 9.10158,-17.6599 13.8378,-36.9662 13.8378,-56.8394l0 -129.491 -89.6127 -32.4366c-12.874,-4.65945 -27.8362,-13.4882 -37.8414,-22.8402 -15.0012,-14.0209 -33.3118,-52.9134 -42.0118,-71.915 -8.82166,-19.2638 -27.613,-61.389 -26.3055,-82.291 4.14095,-66.1796 120.64,-105.977 154.301,-33.0272l41.4709 57.0473 0 -78.9107z"/>
   <path id="_290111408" class="fil1" d="M1070.03 893.414c7.40197,6.9189 19.774,14.1378 29.2075,17.5524l265.405 96.0662c0.84567,0.305906 1.84961,0.718111 2.7189,0.937796 13.4291,3.39213 27.9059,3.09803 40.4599,-3.17362 26.7945,-13.3866 37.7563,-46.0418 24.3603,-72.8516 -6.49607,-13.0028 -18.8988,-21.9036 -31.9984,-27.4855l-234.416 -99.8906 -48.9567 -67.3465c-21.6532,-52.3949 -104.64,-18.1465 -107.151,21.9768 -1.31575,21.0331 44.3339,119.224 60.3709,134.215z"/>
   <path id="_290110928" class="fil0" d="M946.299 631.321c-7.67599,-7.59804 -20.0587,-7.53426 -27.6567,0.141732l-281.176 279.88c-4.44095,4.48229 -11.1189,10.6748 -14.8807,15.652 -7.6441,10.1161 -11.811,22.1126 -12.4063,34.2827 -0.778347,15.8539 4.47284,31.9866 15.9354,44.6303 11.4898,12.6732 27.0343,19.4929 42.874,20.2689 14.5642,0.714567 29.3622,-3.65906 41.4744,-13.2591 1.76339,-1.39843 3.82205,-3.05788 5.25237,-4.81418l218.928 -215.909 0.0106299 -27.6449 17.5205 -113.968c1.24961,-8.13662 8.51221,-5.01969 -5.87599,-19.2603z"/>
   <path id="_290111264" class="fil1" d="M1199.96 1144.24l-3.9378 4.54489c-2.06575,5.51221 -4.46103,10.9181 -7.18111,16.1965 -8.49804,16.4929 -19.9654,31.3051 -33.6378,43.8189 -1.99488,11.5134 -3.91654,23.0398 -5.91024,34.5544 -7.0193,40.5579 -13.7362,81.169 -20.3244,121.8l105.012 150.784 30.3272 199.009c2.41772,15.8681 8.27245,31.9843 20.3646,43.0654 12.2244,11.1992 28.4445,17.1437 45.0166,16.4209 16.6854,-0.729922 32.1886,-8.01024 43.4634,-20.3173 11.2016,-12.2256 17.139,-28.4481 16.4209,-45.0213 -1.76693,-40.7079 -1.7126,-81.7158 -2.56772,-122.475 -0.510237,-24.3166 -1.19055,-48.6733 -2.5878,-72.9556 -1.09488,-19.0394 -2.49449,-38.8819 -5.76497,-57.6756 -0.970867,-5.57835 -5.02441,-14.3693 -7.35709,-19.5567 -5.52402,-12.2858 -11.7165,-24.3898 -17.9776,-36.3142 -17.041,-32.4579 -35.3079,-64.4504 -53.6989,-96.1619 -29.0835,-50.1508 -59.1,-99.6036 -88.9158,-149.301l-3.81378 -6.35788c-1.51654,-2.52756 -4.1752,-3.97205 -6.92953,-4.05827z"/>
  </g>
 </g>
 <rect class="fil2" width="2048" height="2048"/>
</svg>
