<svg width="24" height="24" viewBox="0 0 24 24" fill="none" xmlns="http://www.w3.org/2000/svg">
<path fill-rule="evenodd" clip-rule="evenodd" d="M20.7071 6.29291C21.0976 6.68344 21.0976 7.3166 20.7071 7.70713L17.7071 10.7071C17.37 11.0442 16.8419 11.0965 16.4453 10.8321L13.4453 8.83207C12.9858 8.52572 12.8616 7.90485 13.1679 7.44532C13.4743 6.98579 14.0952 6.86162 14.5547 7.16797L16.8726 8.71322L19.2929 6.29291C19.6834 5.90239 20.3166 5.90239 20.7071 6.29291ZM10.7071 12.2929C11.0976 12.6834 11.0976 13.3166 10.7071 13.7071L7.70711 16.7071C7.51957 16.8947 7.26522 17 7 17H3C2.44772 17 2 16.5523 2 16C2 15.4477 2.44772 15 3 15H6.58579L9.29289 12.2929C9.68342 11.9024 10.3166 11.9024 10.7071 12.2929Z" fill="black"/>
<path fill-rule="evenodd" clip-rule="evenodd" d="M8.16794 7.44539C8.35341 7.16719 8.66564 7.00009 8.99999 7.00009H14C14.3844 7.00009 14.7348 7.22044 14.9013 7.56691C15.0678 7.91337 15.021 8.32462 14.7809 8.62479L11.4254 12.8191L14.6 15.2001C14.8518 15.3889 15 15.6853 15 16.0001V21.0001C15 21.5524 14.5523 22.0001 14 22.0001C13.4477 22.0001 13 21.5524 13 21.0001V16.5001L9.39999 13.8001C9.18349 13.6377 9.04204 13.3945 9.00796 13.126C8.97387 12.8576 9.05006 12.5867 9.21913 12.3754L11.9194 9.00009H9.53518L7.83204 11.5548C7.52569 12.0143 6.90482 12.1385 6.44529 11.8321C5.98577 11.5258 5.86159 10.9049 6.16794 10.4454L8.16794 7.44539Z" fill="black"/>
<path fill-rule="evenodd" clip-rule="evenodd" d="M18 4C18 2.89543 17.1046 2 16 2C14.8954 2 14 2.89543 14 4C14 5.10457 14.8954 6 16 6C17.1046 6 18 5.10457 18 4Z" fill="black"/>
</svg>
