<?xml version="1.0" encoding="utf-8"?>
<!-- Generator: Adobe Illustrator 16.0.0, SVG Export Plug-In . SVG Version: 6.00 Build 0)  -->
<!DOCTYPE svg PUBLIC "-//W3C//DTD SVG 1.1//EN" "http://www.w3.org/Graphics/SVG/1.1/DTD/svg11.dtd">
<svg version="1.1" id="icons" xmlns="http://www.w3.org/2000/svg" xmlns:xlink="http://www.w3.org/1999/xlink" x="0px" y="0px"
	 width="64px" height="64px" viewBox="0 0 64 64" enable-background="new 0 0 64 64" xml:space="preserve">
<g>
	<g>
		<path fill="#EAC6BB" d="M61.5,1v2c0,3.87-3.13,7-7,7h-13V9c0,3.18-2.109,5.85-5,6.71l-4,1.1l-8,2.19h-12V5l10-4H61.5z"/>
	</g>
	<g>
		<polygon fill="#5D9CEC" points="38.5,52.99 38.5,63 22.5,63 22.5,52.99 23.5,52.99 37.5,52.99 		"/>
	</g>
	<g>
		<path fill="#D3B1A9" d="M41.5,10v32.99l-4,10h-14v-12l3.29-12c0.771-2.58,2.989-4.54,5.71-4.92V24.06v-7.25l4-1.1
			c2.891-0.86,5-3.53,5-6.71V10z"/>
	</g>
	<g>
		<polygon fill="#5D9CEC" points="12.5,19 12.5,20 2.5,20 2.5,4 12.5,4 12.5,5 		"/>
	</g>
</g>
<g>
	<g>
		<g>
			<path d="M61.498,2.001H22.502c-0.553,0-1-0.447-1-1s0.447-1,1-1h38.996c0.553,0,1,0.447,1,1S62.051,2.001,61.498,2.001z"/>
		</g>
		<g>
			<path d="M54.498,11c-0.553,0-1-0.447-1-1s0.447-1,1-1c3.309,0,6-2.691,6-6c0-0.553,0.447-1,1-1s1,0.447,1,1
				C62.498,7.411,58.909,11,54.498,11z"/>
		</g>
		<g>
			<path d="M61.498,4c-0.553,0-1-0.447-1-1V1.001c0-0.553,0.447-1,1-1s1,0.447,1,1V3C62.498,3.553,62.051,4,61.498,4z"/>
		</g>
		<g>
			<path d="M41.505,10.001c-0.553,0-1-0.447-1-1V8.003c0-0.553,0.447-1,1-1s1,0.447,1,1v0.998
				C42.505,9.554,42.058,10.001,41.505,10.001z"/>
		</g>
		<g>
			<path d="M54.498,11H41.505c-0.553,0-1-0.447-1-1s0.447-1,1-1h12.993c0.553,0,1,0.447,1,1S55.051,11,54.498,11z"/>
		</g>
		<g>
			<path d="M12.502,5.999c-0.396,0-0.772-0.237-0.929-0.629c-0.205-0.513,0.045-1.095,0.558-1.3l10-3.998
				c0.512-0.205,1.095,0.044,1.3,0.558c0.205,0.513-0.045,1.095-0.558,1.3l-10,3.998C12.751,5.977,12.626,5.999,12.502,5.999z"/>
		</g>
		<g>
			<path d="M41.505,9.003h-14c-0.553,0-1-0.447-1-1s0.447-1,1-1h14c0.553,0,1,0.447,1,1S42.058,9.003,41.505,9.003z"/>
		</g>
		<g>
			<path d="M36.502,16.712c-0.432,0-0.83-0.281-0.959-0.716c-0.157-0.529,0.145-1.086,0.675-1.243
				c2.524-0.749,4.287-3.114,4.287-5.752c0-0.553,0.447-1,1-1s1,0.447,1,1c0,3.517-2.352,6.67-5.719,7.67
				C36.691,16.699,36.596,16.712,36.502,16.712z"/>
		</g>
		<g>
			<path d="M24.501,20.001c-0.438,0-0.842-0.291-0.964-0.735c-0.146-0.533,0.168-1.083,0.7-1.229l12-3.289
				c0.531-0.143,1.083,0.167,1.229,0.7c0.146,0.533-0.168,1.083-0.7,1.229l-12,3.289C24.678,19.989,24.589,20.001,24.501,20.001z"/>
		</g>
		<g>
			<path d="M24.502,20.001h-12c-0.553,0-1-0.447-1-1s0.447-1,1-1h12c0.553,0,1,0.447,1,1S25.055,20.001,24.502,20.001z"/>
		</g>
		<g>
			<path d="M12.502,21.001h-10c-0.553,0-1-0.447-1-1s0.447-1,1-1h9v-14h-9c-0.553,0-1-0.447-1-1s0.447-1,1-1h10c0.553,0,1,0.447,1,1
				v16C13.502,20.554,13.055,21.001,12.502,21.001z"/>
		</g>
	</g>
	<g>
		<g>
			<path d="M41.502,43.993c-0.553,0-1-0.447-1-1V8.001c0-0.553,0.447-1,1-1s1,0.447,1,1v34.992
				C42.502,43.546,42.055,43.993,41.502,43.993z"/>
		</g>
		<g>
			<path d="M41.502,9.001h-1.999c-0.553,0-1-0.447-1-1s0.447-1,1-1h1.999c0.553,0,1,0.447,1,1S42.055,9.001,41.502,9.001z"/>
		</g>
		<g>
			<path d="M34.5,24.99h-0.998c-0.553,0-1-0.447-1-1s0.447-1,1-1H34.5c0.553,0,1,0.447,1,1S35.053,24.99,34.5,24.99z"/>
		</g>
		<g>
			<path d="M32.503,25.062c-0.553,0-1-0.447-1-1v-7.254c0-0.553,0.447-1,1-1s1,0.447,1,1v7.254
				C33.503,24.614,33.056,25.062,32.503,25.062z"/>
		</g>
		<g>
			<path d="M37.504,53.993c-0.124,0-0.249-0.022-0.371-0.071c-0.513-0.205-0.763-0.787-0.558-1.3l3.998-10
				c0.205-0.515,0.787-0.762,1.3-0.558c0.513,0.205,0.763,0.787,0.558,1.3l-3.998,10C38.276,53.756,37.9,53.993,37.504,53.993z"/>
		</g>
		<g>
			<path d="M34.5,38.99c-0.553,0-1-0.447-1-1v-14c0-0.553,0.447-1,1-1s1,0.447,1,1v14C35.5,38.543,35.053,38.99,34.5,38.99z"/>
		</g>
		<g>
			<path d="M26.791,29.993c-0.094,0-0.189-0.013-0.284-0.041c-0.53-0.157-0.832-0.714-0.675-1.243c1-3.367,4.153-5.719,7.67-5.719
				c0.553,0,1,0.447,1,1s-0.447,1-1,1c-2.638,0-5.003,1.763-5.752,4.287C27.621,29.712,27.223,29.993,26.791,29.993z"/>
		</g>
		<g>
			<path d="M23.503,41.993c-0.088,0-0.177-0.012-0.266-0.035c-0.532-0.146-0.846-0.696-0.7-1.229l3.289-12
				c0.146-0.532,0.696-0.842,1.229-0.7c0.532,0.146,0.846,0.696,0.7,1.229l-3.289,12C24.345,41.701,23.941,41.993,23.503,41.993z"/>
		</g>
		<g>
			<path d="M23.502,53.993c-0.553,0-1-0.447-1-1v-12c0-0.553,0.447-1,1-1s1,0.447,1,1v12C24.502,53.546,24.055,53.993,23.502,53.993
				z"/>
		</g>
		<g>
			<path d="M38.502,63.999c-0.553,0-1-0.447-1-1v-9.006h-14v9.006c0,0.553-0.447,1-1,1s-1-0.447-1-1V52.993c0-0.553,0.447-1,1-1h16
				c0.553,0,1,0.447,1,1v10.006C39.502,63.552,39.055,63.999,38.502,63.999z"/>
		</g>
	</g>
</g>
</svg>
