<?xml version="1.0" encoding="UTF-8" standalone="no"?>
<!-- Created with Inkscape (http://www.inkscape.org/) -->

<svg
   xmlns:dc="http://purl.org/dc/elements/1.1/"
   xmlns:cc="http://creativecommons.org/ns#"
   xmlns:rdf="http://www.w3.org/1999/02/22-rdf-syntax-ns#"
   xmlns:svg="http://www.w3.org/2000/svg"
   xmlns="http://www.w3.org/2000/svg"
   xmlns:sodipodi="http://sodipodi.sourceforge.net/DTD/sodipodi-0.dtd"
   xmlns:inkscape="http://www.inkscape.org/namespaces/inkscape"
   width="54.566498mm"
   height="67.189522mm"
   viewBox="0 0 54.566498 67.189522"
   version="1.1"
   id="svg8"
   inkscape:version="0.92.3 (2405546, 2018-03-11)"
   sodipodi:docname="Mermaid.svg">
  <title
     id="title857">Mermaid</title>
  <defs
     id="defs2" />
  <sodipodi:namedview
     id="base"
     pagecolor="#ffffff"
     bordercolor="#666666"
     borderopacity="1.0"
     inkscape:pageopacity="0.0"
     inkscape:pageshadow="2"
     inkscape:zoom="0.98496237"
     inkscape:cx="660.37364"
     inkscape:cy="-10.516317"
     inkscape:document-units="mm"
     inkscape:current-layer="layer1"
     showgrid="false"
     inkscape:snap-global="false"
     inkscape:window-width="1920"
     inkscape:window-height="1017"
     inkscape:window-x="3832"
     inkscape:window-y="-8"
     inkscape:window-maximized="1"
     fit-margin-top="0"
     fit-margin-left="0"
     fit-margin-right="0"
     fit-margin-bottom="0" />
  <metadata
     id="metadata5">
    <rdf:RDF>
      <cc:Work
         rdf:about="">
        <dc:format>image/svg+xml</dc:format>
        <dc:type
           rdf:resource="http://purl.org/dc/dcmitype/StillImage" />
        <dc:title>Mermaid</dc:title>
        <cc:license
           rdf:resource="http://creativecommons.org/publicdomain/zero/1.0/" />
      </cc:Work>
      <cc:License
         rdf:about="http://creativecommons.org/publicdomain/zero/1.0/">
        <cc:permits
           rdf:resource="http://creativecommons.org/ns#Reproduction" />
        <cc:permits
           rdf:resource="http://creativecommons.org/ns#Distribution" />
        <cc:permits
           rdf:resource="http://creativecommons.org/ns#DerivativeWorks" />
      </cc:License>
    </rdf:RDF>
  </metadata>
  <g
     inkscape:label="Layer 1"
     inkscape:groupmode="layer"
     id="layer1"
     transform="translate(-56.929588,-100.0802)">
    <path
       style="fill:#000000;stroke-width:3.77952766"
       d="m 283.30469,378.25586 c -4.56526,0 -8.65691,2.76728 -9.58985,6.48437 -0.58522,2.33175 -1.06363,2.51563 -6.52539,2.51563 -7.02262,0 -19.24835,2.21348 -24.61328,4.45508 -0.7959,0.33248 -1.5863,0.5901 -2.32812,0.79883 -7.30935,2.51374 -24.03455,12.0626 -25.08008,16.58007 -0.1417,3.99425 14.50423,33.68774 19.9082,40.36133 1.7455,2.15562 1.72711,2.26613 -0.70312,4.17774 -3.2857,2.58455 -5.27669,7.54964 -5.15235,12.8457 l 0.0996,4.28125 0.91211,-3.88672 c 1.15495,-4.92023 4.73264,-11.33912 6.75,-12.11328 1.06288,-0.40785 4.32093,2.3823 10.4336,8.93555 4.88897,5.24133 11.06733,11.1291 13.73046,13.08398 4.17891,3.06762 6.7033,6.94572 7.47266,11.48047 0.0466,0.275 1.11629,2.75002 2.37695,5.5 2.66461,5.81269 6.12305,14.33949 6.12305,15.0957 0,0.28717 -0.45,0.24408 -1,-0.0957 -0.59051,-0.36495 -1,0.75033 -1,2.72461 0,4.21954 -4.63162,7.57741 -7.98047,5.78515 -2.37184,-1.26931 -2.59572,-2.57465 -0.57617,-3.3496 1.65751,-0.63606 5.06467,-5.48608 4.35352,-6.19727 -0.26132,-0.26132 -1.5307,0.44012 -2.82032,1.55859 -3.11977,2.70577 -6.585,3.47742 -9.54882,2.12696 -3.13573,-1.42825 -3.13302,0.15212 0.004,2.51758 2.61014,2.00411 4.29961,1.76755 6.00977,3.10937 3.83486,3.01652 6.83808,2.79688 10.93554,-0.80078 l 3.44532,-3.02539 1.5625,4.77539 c 0.85999,2.62658 2.30789,8.51375 3.21679,13.08203 1.57924,7.9375 1.57128,8.45875 -0.20117,11.75 -3.18578,3.70932 -5.26094,8.16711 -7.32422,12.29297 -5.92157,11.60719 -6.68601,28.60718 -1.63086,36.24609 l 2.78125,4.20508 -1.97461,3.89063 c -1.59027,3.13141 -3.32078,4.53395 -8.86523,7.19531 -15.94364,7.65305 -27.38672,17.03003 -27.38672,22.4414 0,3.62752 1.21561,3.95474 6.2168,1.67383 7.55747,-3.4467 23.54387,-6.59494 39.16601,-7.71289 16.10045,-1.15219 34.45041,-0.55471 73.48243,2.38867 21.43908,1.6167 36.70723,0.0872 46.6582,-4.67382 7.76088,-3.7132 15.13861,-10.42093 16.27148,-14.79297 1.37722,-3.04 -0.43266,-6.41071 -2.03515,-8.75 -2.21024,-3.92586 -5.49823,-6.27422 -8.89649,-9.10157 -9.45945,-7.38832 -27.77152,-19.39767 -37.43554,-20.85937 -0.20665,0 -3.27387,-1.32566 -6.81446,-2.94727 -3.54062,-1.62164 -7.71279,-3.08407 -9.27344,-3.25 -1.56068,-0.16588 -3.06274,-0.56754 -3.33789,-0.89257 -0.82049,-0.96949 -18.47785,-4.97385 -25.21875,-5.71875 l -6.25781,-0.69141 -0.78125,-5 c -0.88532,-5.67356 -0.23784,-13.23259 1.88281,-22 0.7982,-3.29998 1.64754,-6.86615 1.88868,-7.92578 0.57959,-2.54699 1.29138,-3.1115 5.72265,-4.52735 7.02399,-2.24435 13.83849,-14.09615 10.33203,-17.9707 -2.52064,-2.78528 -1.93224,-2.90734 4.88282,-1.01758 7.72595,2.14235 27.62741,4.27445 31.95898,3.42383 7.37232,-1.44775 8.59129,-2.42122 8.57617,-6.85351 -0.021,-6.46976 -5.17879,-19.70205 -12.91992,-33.14844 l -7.09375,-12.32227 0.16211,-14.83008 c 0.16516,-14.98832 -2.16836,-32.32812 -4.35156,-32.32812 -0.51818,0 -0.67175,1.23751 -0.3418,2.75 1.17668,5.39255 3.45169,24.61294 3,25.34375 -0.25308,0.40921 -0.53473,5.21336 -0.62695,10.67383 -0.14525,8.59219 0.10971,10.3179 1.89648,12.83008 3.40985,4.79421 11.97353,22.52152 13.6875,28.33398 0.8809,2.98734 1.60156,7.59077 1.60156,10.23047 0,5.22251 0.17959,5.08615 -8.14453,6.19336 -5.08926,0.67691 -22.01675,-0.91362 -30.66601,-2.88086 -6.99568,-1.59111 -7.52261,-1.92722 -15.75,-10.0625 -8.83968,-8.74076 -9.56699,-8.32957 -1.9043,1.07812 l 4.45117,5.46485 -2.80469,1.45117 c -2.72568,1.40954 -2.85508,1.35634 -4.60156,-1.88672 -2.52034,-4.68 -6.5882,-8.27671 -17.88086,-15.81445 -6.05552,-4.04198 -10.9833,-8.19635 -12.90039,-10.87305 -5.06147,-7.06696 -8.79989,-10.14104 -18.29883,-15.04883 -7.70857,-3.98279 -9.90453,-5.73099 -15.30468,-12.17773 -6.13323,-7.32185 -6.31925,-7.71172 -6.80469,-14.31641 -0.33925,-4.61609 -0.0818,-7.46726 0.80469,-8.9082 0.71712,-1.16568 2.14494,-3.6407 3.17187,-5.5 l 1.86719,-3.38086 -3.41602,3.25 c -4.24607,4.04126 -5.60115,4.17784 -3.15625,0.31641 2.03501,-3.21408 8.68643,-8.40717 12.19727,-9.52149 3.57112,-1.1334 14.73672,-6.44916 13.64062,-6.49414 -2.19957,-0.0901 -18.23688,6.18822 -21.78711,8.5293 -2.08289,1.37344 -5.00788,4.2921 -6.5,6.48437 -1.49208,2.19224 -3.95036,5.61057 -5.46289,7.59766 -3.07264,4.03676 -3.4062,5.33789 -1.36718,5.33789 0.76078,0 2.89825,2.04236 4.75,4.53711 12.96687,17.46984 17.51391,22.46289 20.45117,22.46289 2.5536,0 16.23392,10.11069 19.69922,14.55859 2.04431,2.62398 3.71679,5.12788 3.71679,5.56446 0,0.43657 2.13752,2.03428 4.75,3.55078 2.61253,1.51653 7.58515,4.78304 11.05079,7.25976 l 6.30078,4.50391 -3.35547,1.16016 c -9.91843,3.43385 -17.33087,9.45327 -24.24219,19.68554 l -3.23047,4.78321 -2.11133,-4.78321 c -1.16167,-2.63055 -3.72466,-7.59572 -5.69531,-11.0332 -3.72427,-6.49667 -3.68078,-7.73808 0.14649,-4.14258 1.23355,1.15896 2.83764,1.8936 3.56445,1.63281 0.8008,-0.28732 -6.17781,-7.91429 -17.71289,-19.35742 -20.46176,-20.29863 -27.69363,-29.70723 -36.88672,-47.98828 -5.17746,-10.29581 -5.61643,-12.93122 -2.32813,-13.9707 1.23753,-0.39122 3.59998,-1.72009 5.25,-2.95313 8.91905,-6.66519 31.62169,-14.4707 42.08985,-14.4707 4.43747,0 5.10878,-0.3452 8.85547,-4.54883 5.06838,-5.68656 10.05217,-6.95369 13.55859,-3.44726 1.85707,1.85703 2.1424,2.99428 1.71289,6.80468 l -0.51562,4.57422 1.87695,-2.4414 c 4.59655,-5.9805 0.15657,-11.94141 -8.89453,-11.94141 z m 10.34375,1.35156 c -0.49961,-0.0751 -0.4402,0.81739 0.61914,2.51367 1.03188,1.65219 1.04499,2.96544 0.0644,6.63086 -1.09228,4.08397 -1.01812,4.85994 0.69922,7.28711 1.05713,1.49405 2.62897,5.24538 3.49414,8.33594 1.71122,6.11297 3.50208,8.28149 6.29492,7.62109 1.45894,-0.34499 1.28019,-0.63956 -0.95117,-1.55859 -1.92268,-0.79189 -2.75,-1.85535 -2.75,-3.53516 0,-2.9286 -2.6308,-9.50703 -4.75976,-11.90234 -2.36092,-2.65614 -0.71222,-3.25969 2.34179,-0.85742 1.47814,1.16269 3.4144,2.14794 4.30274,2.1914 1.15559,0.0565 1.23655,0.23077 0.2832,0.61133 -0.88407,0.3529 -0.29525,1.16245 1.75,2.40625 3.47622,2.11401 4.02329,5.20812 1.42773,8.07617 -1.54597,1.7082 -1.53596,1.82813 0.16993,1.82813 1.00444,0 2.6073,-0.70785 3.5625,-1.57227 1.59923,-1.44729 2.02925,-1.28902 5.41601,2 2.16121,2.09881 4.67535,3.57227 6.09766,3.57227 h 2.41992 l -2.98633,-4.125 c -1.64345,-2.2687 -2.7553,-4.50236 -2.4707,-4.96289 0.28463,-0.4605 -1.29993,-2.03898 -3.51953,-3.50781 -4.75722,-3.14809 -4.99545,-3.66793 -1.28516,-2.79883 3.15836,0.73984 6.43799,4.27855 5.74414,6.19726 -0.25893,0.71611 -0.0469,1.03768 0.47266,0.7168 0.51953,-0.32107 1.70132,0.57078 2.625,1.98047 0.92364,1.40969 1.86055,2.38164 2.08203,2.16016 0.48608,-0.48613 -5.76576,-10.87215 -7.13281,-11.84961 -0.53798,-0.38468 0.23582,-1.63274 1.74804,-2.82227 1.51529,-1.19191 2.71094,-3.12761 2.71094,-4.38672 0,-2.67333 -4.2916,-7.04101 -6.17773,-6.28711 -0.88434,0.35354 -0.75141,0.55451 0.40429,0.60742 2.40911,0.11014 5.08793,4.51176 4.28516,7.04102 -0.78879,2.48527 -5.18492,4.77756 -8.20117,4.27734 -2.16556,-0.35916 -2.168,-0.3847 -0.25,-2.30273 2.23612,-2.23612 2.47584,-4.24694 0.68359,-5.73438 -0.96121,-0.79766 -1.25378,-0.30763 -1.25,2.0918 0.007,4.6334 -3.74181,5.71887 -10.1582,2.94141 -4.45735,-1.92945 -4.80424,-2.3334 -4.50196,-5.2168 0.18324,-1.74682 -0.40558,-4.2413 -1.33398,-5.6582 -0.85649,-1.30719 -1.58212,-1.95133 -1.9707,-2.00977 z m 14.9082,6.89649 c -0.14667,0.0668 -0.0343,0.58149 0.23047,1.59375 0.31189,1.19282 -0.0219,2.95451 -0.74219,3.91406 -0.72026,0.95958 -0.22388,0.73338 1.10156,-0.50195 2.24958,-2.09666 2.29871,-2.35758 0.74219,-3.91407 -0.77822,-0.77824 -1.18536,-1.15863 -1.33203,-1.09179 z m 45.46875,11.75195 c -1.00607,0 -1.70597,25.16907 -0.77148,27.75 0.44806,1.23749 1.31228,2.25 1.91992,2.25 0.78867,0 0.89053,-3.79332 0.35547,-13.25 -0.41231,-7.2875 -0.76855,-14.03751 -0.79492,-15 -0.0246,-0.9625 -0.34313,-1.75 -0.70899,-1.75 z m 3.34961,0.14844 c -0.18461,0.0431 -0.14574,0.48732 0.10938,1.35156 0.32465,1.10003 1.05334,5.15002 1.61914,9 0.56583,3.85002 1.31565,8.93812 1.66601,11.30664 0.35033,2.36848 1.00728,3.93416 1.46094,3.48047 1.02932,-1.02932 -2.83639,-23.42138 -4.2793,-24.78711 -0.27387,-0.25927 -0.4654,-0.37745 -0.57617,-0.35156 z m -47.50781,1.85156 c 1.48505,0 7.05644,5.14492 7.52929,6.95312 0.69139,2.64378 0.51373,2.58556 -1.8789,-0.61914 -1.09504,-1.46664 -2.72391,-2.66796 -3.6211,-2.66796 -0.89718,0 -1.84751,-0.8237 -2.11132,-1.83204 -0.26344,-1.0083 -0.22702,-1.83398 0.082,-1.83398 z m -28.81836,0.55078 c -0.2755,-0.0658 -1.45193,1.56817 -2.84571,3.99805 -3.62017,6.31143 -5.72429,8.21121 -7.32617,6.60937 -1.77479,-1.77479 -4.87489,-1.38074 -9.0625,1.1543 -3.4286,2.07553 -7.67433,7.0085 -7.68945,8.9375 -0.004,0.4125 0.44414,0.75 0.99414,0.75 0.55,0 1,-0.42757 1,-0.94922 0,-1.29781 3.91229,-5.34804 7.24609,-7.50195 1.98796,-1.28432 3.71982,-1.5911 6.27735,-1.11133 1.94271,0.36446 3.26808,1.09106 2.94531,1.61328 -1.07671,1.74217 2.2262,0.97715 4.91602,-1.13867 3.15859,-2.48455 5.6205,-6.92397 5.60547,-10.11328 -0.007,-1.61507 -0.72724,-0.7602 -2.41797,2.87109 -1.32405,2.84376 -3.31443,5.65624 -4.42383,6.25 -3.40263,1.82105 -3.44289,1.22023 -0.13867,-2.08398 3.03787,-3.03791 4.99928,-6.64294 4.98047,-9.15039 -6.5e-4,-0.0815 -0.0213,-0.12537 -0.0605,-0.13477 z m 10.29883,1.46484 c -1.53867,-0.12888 -3.22852,1.07872 -3.22852,2.5 0,1.37704 0.30574,1.34889 2.40625,-0.21875 1.32416,-0.98819 1.98598,-1.95127 1.46875,-2.14062 -0.20821,-0.0762 -0.42667,-0.12221 -0.64648,-0.14063 z m 60.03125,5.98438 c -0.96994,0 -8.31609,12.78861 -10.96289,19.08398 -6.82844,16.24139 -8.26577,24.15707 -5.0254,27.66602 1.14268,1.23706 2.60435,2.25 3.24805,2.25 1.8265,0 4.20927,-3.11946 6.52344,-8.53711 3.80239,-8.90169 5.04185,-11.46289 5.54687,-11.46289 0.27326,0 0.36489,0.57555 0.20313,1.2793 -0.16161,0.70374 0.14435,1.3698 0.67969,1.48046 1.00478,0.20777 0.91916,-2.59197 -0.41992,-13.75976 -0.42978,-3.58515 -0.38874,-6.7534 0.0918,-7.06445 0.7714,-0.49943 0.88123,-10.93555 0.11524,-10.93555 z m -56.22266,1.04492 c -0.1863,0.0572 -0.0674,0.59021 0.19727,1.64844 0.44931,1.79648 0.0231,2.31046 -2.35157,2.83203 -1.5953,0.35036 -2.64422,1.05139 -2.33203,1.55664 0.64184,1.03831 5.47411,1.22886 7.86719,0.31055 0.86997,-0.33385 1.58203,-1.53318 1.58203,-2.66602 0,-1.13265 -0.30217,-1.75837 -0.66992,-1.39062 -0.3679,0.36786 -1.56276,-0.12028 -2.65625,-1.08399 -0.95881,-0.84501 -1.45042,-1.26426 -1.63672,-1.20703 z m 14.16797,2.37695 c -0.066,0.008 -0.13448,0.0345 -0.20508,0.0781 -0.55,0.33993 -1,1.74219 -1,3.11719 0,1.41203 0.43519,2.23204 1,1.88281 0.55,-0.33993 1,-1.7422 1,-3.11719 0,-1.23553 -0.33324,-2.01879 -0.79492,-1.96094 z m 40.68359,2.47657 c 0.19297,-0.02 0.43035,0.0885 0.69922,0.35742 0.32353,0.3236 0.42291,1.41047 0.2207,2.41601 -0.35024,1.74017 -0.40312,1.73783 -1.11132,-0.0645 -0.56622,-1.44079 -0.38751,-2.64903 0.1914,-2.70898 z m -66.09961,1.10156 -2.9707,2.5 c -3.02997,2.54956 -7.20457,3.30212 -8.31836,1.5 -0.33993,-0.55 -1.36634,-1 -2.28125,-1 -1.30915,0 -1.18952,0.3326 0.56641,1.5625 1.98894,1.3931 2.06752,1.72748 0.72265,3.07226 -3.30092,3.30089 -0.40129,11.25055 4.88086,13.38477 2.71193,1.09584 3.08943,1.11863 5.22071,0.30078 1.42609,-0.54724 1.10998,-0.90535 -1.61329,-1.82226 -3.56107,-1.19902 -6.67275,-4.64974 -7.18945,-7.97266 -0.26373,-1.69591 0.19644,-1.93279 3.26953,-1.6875 4.1472,0.33128 5.74979,-1.13082 6.91797,-6.31055 z m 28.50586,2.0918 c -0.51875,0.0381 -1.33208,1.12218 -2.09375,3.22851 -1.51461,4.18859 -1.51564,5.96658 -0.002,7.48047 0.66002,0.65998 1.574,1.19922 2.03125,1.19922 1.44374,0 2.03957,-2.96826 0.87695,-4.36914 -0.6373,-0.76777 -0.84538,-2.69282 -0.48633,-4.48828 0.41619,-2.08107 0.19258,-3.08888 -0.32617,-3.05078 z m 35.53516,0.9082 c 0.10167,-0.0185 0.18652,0.025 0.25195,0.13086 0.4738,0.76664 0.0183,2.75274 -1.10742,4.83594 -1.05041,1.94369 -3.5236,7.35823 -5.49609,12.0332 -4.74017,11.23472 -3.43955,5.38503 1.73632,-7.81055 2.31523,-5.90252 3.90352,-9.0599 4.61524,-9.18945 z m -89.06445,1.13867 c -0.17959,0.0291 -0.68574,0.64113 -1.68165,1.86133 -2.79064,3.41922 -2.60503,4.86693 1.10938,8.69922 2.21019,2.28057 3.42067,2.92565 3.93359,2.0957 0.9264,-1.49892 0.18071,-2.79492 -1.60742,-2.79492 -1.65294,0 -2.91003,-5.09449 -2.03125,-8.22852 0.31102,-1.10916 0.45693,-1.66193 0.27735,-1.63281 z m 89.75781,4.63477 c 0.2285,-0.0363 0.42458,0.11481 0.60937,0.40625 1.73942,2.74329 0.72589,7.66799 -3.65039,17.75 -2.48458,5.7239 -5.01526,11.00596 -5.62304,11.73828 -3.82855,4.6131 -2.93139,-2.68442 1.86328,-15.16797 4.1882,-10.90452 5.81059,-14.56943 6.80078,-14.72656 z m -35.94727,6.31445 c -0.41524,-0.0128 -0.4692,0.27554 -0.1289,0.82617 2.38238,3.85474 -8.08823,10.25042 -17.125,10.46094 -2.92555,0.068 -5.3193,0.24921 -5.32032,0.40039 -9.8e-4,0.15111 1.12306,0.70183 2.49805,1.22461 2.39078,0.9089 2.5,1.31414 2.5,9.2832 0,5.77935 0.45055,8.9292 1.46875,10.27539 1.22899,1.62486 1.47354,1.6762 1.5,0.31836 0.022,-1.12399 1.33655,-1.83668 4.28125,-2.32031 3.88668,-0.63836 5.25027,-0.17984 15.94531,5.36133 11.56596,5.9924 23.8721,9.99553 35.55469,11.56445 3.89473,0.52305 5.26563,1.13272 5.3125,2.36133 0.0405,1.05951 0.43304,0.75563 1.08984,-0.84375 1.77548,-4.32318 0.37217,-14.85339 -3.19921,-24 -3.73641,-9.5692 -3.73035,-9.5568 -4.55274,-8.73438 -0.32938,0.32935 0.84028,4.33043 2.59961,8.89258 2.28631,5.92861 3.19922,9.961 3.19922,14.13477 0,3.2118 -0.19271,6.03451 -0.42969,6.27148 -0.74007,0.74007 -11.9122,-1.61406 -20.26953,-4.27148 -4.40001,-1.39907 -11.37502,-4.37491 -15.5,-6.61133 -12.77828,-6.92787 -12.82645,-6.94457 -18.58789,-6.4668 -4.95938,0.41129 -5.4144,0.27494 -5.42187,-1.63281 -0.005,-1.14527 -0.29172,-4.44451 -0.63868,-7.33203 -0.6057,-5.04284 -0.53516,-5.25221 1.75977,-5.25977 3.69732,-0.0151 12.54706,-4.53977 14.39453,-7.35937 1.86618,-2.84814 1.68965,-5.7337 -0.39453,-6.42774 -0.21726,-0.0723 -0.39674,-0.11098 -0.53516,-0.11523 z m 24.14258,18.31641 c 0.0554,0.0639 0.0376,0.56283 -0.0352,1.51757 -0.10155,1.33191 -0.85859,2.60356 -1.68359,2.82618 -0.99129,0.26721 -1.11475,0.12396 -0.36523,-0.42188 0.62385,-0.45437 1.38085,-1.72618 1.68359,-2.82617 0.21713,-0.7885 0.34502,-1.15956 0.40039,-1.0957 z m -98.47266,8.5957 c -1.16764,0 -4.193,2.67571 -4.32226,3.82226 -0.0421,0.37323 -0.3067,1.57775 -0.58789,2.67774 -0.28135,1.09999 -0.52199,6.27499 -0.53711,11.5 -0.0351,13.6224 3.05759,20.98648 11.33203,26.98047 2.20022,2.09846 4.45849,2.91344 7.19922,3.95508 4.12645,1.56888 7.77467,1.305 12.04297,-0.8711 2.08834,-1.06458 4.43491,-1.69116 5.21289,-1.39258 0.84181,0.32304 1.41406,-0.0817 1.41406,-0.99804 0,-2.25835 -3.11443,-2.88058 -10.73437,-2.14649 -6.19234,0.59656 -7.23079,0.40679 -12.25,-2.23242 -5.74292,-3.01977 -10.21632,-8.72511 -11.59766,-14.79492 l -0.68164,-3 3.38086,3.19922 c 6.41699,6.0706 12.69998,7.14582 19.74219,3.37695 3.13746,-1.67909 2.10782,-2.3974 -1.47071,-1.02539 -5.21238,1.99843 -12.75593,-0.28313 -17.80273,-5.38476 -4.80129,-4.85356 -5.65289,-16.83795 -1.50977,-21.24805 1.24993,-1.33032 1.7765,-2.41797 1.16992,-2.41797 z m 72.91993,26.16406 c 0.19084,-0.0111 0.37742,-0.011 0.56054,0 1.88356,0.11344 3.40869,1.40641 5.57422,4.08594 4.64784,5.75097 5.69922,7.99502 5.69922,12.16406 0,3.09551 -0.47591,3.7836 -3.75,5.42774 -2.64911,1.33031 -6.09855,1.9188 -11.75,2.00195 l -8,0.11719 9.25,-3.14844 c 10.21984,-3.47955 12.12087,-5.45035 4.25,-4.40625 -2.75002,0.36472 -5,0.47633 -5,0.24805 0,-0.22836 2.56328,-1.70709 5.69727,-3.28516 5.67934,-2.85989 5.6877,-2.87078 2.44336,-3.1875 -2.08438,-0.20338 -5.62631,0.79217 -9.84766,2.76758 -3.62581,1.6967 -6.79018,2.88755 -7.0332,2.64453 -0.57324,-0.57324 8.4241,-7.19667 11.99023,-8.82617 3.26612,-1.49242 3.57106,-2.76758 0.66211,-2.76758 -2.4418,0 -15.03795,6.76297 -16.22461,8.71094 -0.44629,0.73357 -1.2711,1.04731 -1.83398,0.69922 -1.29332,-0.79934 7.41514,-8.88326 12.35546,-11.46875 2.07369,-1.08521 3.62114,-1.6998 4.95704,-1.77735 z m 20.39257,8.83594 c 0.85747,0 1.28119,0.45 0.94141,1 -0.33993,0.55 -1.04106,1 -1.55859,1 -0.51753,0 -0.94141,-0.45 -0.94141,-1 0,-0.55 0.70113,-1 1.55859,-1 z m 5.46289,3.76367 c 0.31263,0.051 0.59939,0.28015 0.92774,0.67578 0.59637,0.71849 0.80412,2.03887 0.46094,2.9336 -0.34334,0.89469 -1.13889,1.58214 -1.76758,1.52734 -2.0482,-0.17862 -6.17705,-1.69836 -4.89258,-1.80078 0.68753,-0.0548 2.12038,-0.97002 3.18359,-2.0332 0.97574,-0.97576 1.56694,-1.38777 2.08789,-1.30274 z m -2.23437,8.94336 c 0.5616,0.005 0.80661,0.14066 0.64258,0.40625 v 0.002 c -0.30599,0.49512 -1.83281,1.56056 -3.39258,2.36719 -2.49426,1.28939 -2.98294,1.28902 -4.05859,-0.008 -0.67238,-0.81048 -0.83145,-1.48671 -0.35157,-1.49805 0.47981,-0.0131 2.55661,-0.41447 4.61524,-0.89258 1.10422,-0.25682 1.98332,-0.38232 2.54492,-0.37695 z m -13.13086,0.53906 c 0.21525,-0.0474 0.0156,0.40689 -0.4668,1.33594 -1.29108,2.48659 -4.18945,5.05695 -4.18945,3.71484 0,-0.52149 1.18509,-2.03966 2.63477,-3.37304 1.17596,-1.08165 1.80623,-1.63037 2.02148,-1.67774 z m 2.56641,1.25391 -0.72071,3.5 c -0.39666,1.92499 -2.08481,7.77499 -3.75,13 -3.18954,10.00807 -3.88258,19.97565 -1.86132,26.75 l 0.96875,3.25 H 311.5 c -4.61367,0 -8.56691,0.56116 -10.31445,1.46484 -2.59952,1.34427 -4.6621,5.35071 -4.21094,8.17969 0.10038,0.62952 -1.20913,2.31699 -2.91211,3.75 -3.351,2.81964 -1.84178,3.62347 1.89258,1.00781 1.44544,-1.01242 2.17467,-2.41194 1.99023,-3.82031 -0.16017,-1.22253 0.51181,-3.44999 1.49414,-4.94922 1.77351,-2.70656 1.86131,-2.72369 12.48243,-2.55664 12.02342,0.18913 21.30609,1.26486 28.69726,3.32617 2.74998,0.76698 8.37499,2.19128 12.5,3.16602 4.12501,0.97474 8.17501,2.12304 9,2.55273 0.825,0.4297 3.29998,1.53189 5.5,2.44922 10.02813,4.18141 30.69434,14.20817 31.49609,15.28125 0.27735,0.37115 3.04394,2.39934 6.14844,4.50586 6.56323,4.45346 11.1167,8.94489 13.23633,13.05664 1.28666,2.49559 1.30484,3.29213 0.13281,5.5586 -2.05939,3.98241 -9.81145,9.54866 -18.11133,13.0039 -6.72,2.79757 -8.72547,3.13663 -21.65429,3.66406 -7.8368,0.31968 -20.99806,0.069 -29.24805,-0.55664 -24.62918,-1.86769 -64.71059,-2.49466 -76.5,-1.19726 -10.76118,1.18424 -20.07304,3.26082 -25.65234,5.72265 -1.73314,0.76475 -3.65687,1.39063 -4.27539,1.39063 -1.55116,0 1.07466,-4.90072 4.08203,-7.61914 2.36118,-2.1343 19.13527,-10.70865 26.08594,-13.33399 2.0573,-0.7771 4.02413,-2.30723 4.37109,-3.40039 1.01355,-3.19343 7.05269,-12.17909 10.9707,-16.32422 4.51113,-4.77255 11.41797,-15.13294 11.41797,-17.12695 0,-0.82174 -2.26369,1.49848 -5.03125,5.1543 -2.76752,3.65586 -6.14267,7.3736 -7.49805,8.26172 -1.35541,0.88811 -3.7789,3.40162 -5.38672,5.58789 l -2.92382,3.97656 -1.83008,-2.79492 c -1.5021,-2.29285 -1.80568,-4.64219 -1.69531,-13.10156 0.15413,-11.81738 1.48638,-16.2793 4.86328,-16.2793 1.24089,0 2.87406,-0.749 3.6289,-1.66406 1.24067,-1.50395 1.16396,-1.552 -0.81054,-0.5 -5.60625,2.98681 -5.59423,0.87957 0.0605,-9.60938 5.87611,-10.89925 6.48986,-16.09074 3.15821,-26.72656 -1.37828,-4.39998 -2.51393,-8.31864 -2.52149,-8.70898 -0.008,-0.39043 1.74202,-1.23774 3.88867,-1.88086 2.91587,-0.87342 5.88758,-0.89185 11.75,-0.0742 4.88644,0.68133 9.54108,0.7636 12.3379,0.21875 2.47018,-0.48114 4.87009,-0.64083 5.33203,-0.35547 0.46197,0.28547 2.20255,-0.76726 3.86914,-2.33985 z m -34.22266,47.5 c -0.55,0 -1,0.59706 -1,1.32617 0,0.72911 -1.08755,2.34575 -2.41602,3.59375 -1.32838,1.24804 -2.69096,3.36711 -3.02734,4.70703 -0.33626,1.33988 -2.06123,3.31952 -3.83398,4.40039 -2.23609,1.36339 -2.67332,1.96577 -1.42774,1.96875 2.14526,0.004 6.70508,-4.30904 6.70508,-6.34375 0,-0.79181 1.35001,-2.88602 3,-4.65234 3.07994,-3.29707 3.76111,-5 2,-5 z m 13.70703,3.29297 c -0.22236,-0.0401 -0.59647,0.20031 -1.20703,0.70703 -0.82499,0.6847 -1.5,1.62639 -1.5,2.0918 0,0.46526 0.67501,0.58625 1.5,0.26953 0.825,-0.31661 1.5,-1.25635 1.5,-2.08985 0,-0.61687 -0.0706,-0.9384 -0.29297,-0.97851 z m -9.94336,0.17578 c -0.26583,0.0324 -0.82312,0.75612 -1.68164,2.16406 -1.05082,1.72332 -2.94924,3.86079 -4.21875,4.75 -2.8752,2.01396 -1.70502,2.10435 2.0586,0.15821 1.55278,-0.803 3.09998,-2.49056 3.4375,-3.75 0.60573,-2.26129 0.74608,-3.36396 0.40429,-3.32227 z m 16.11524,0.60547 c -0.19511,0.0106 -0.37662,0.0895 -0.53321,0.24609 -0.38543,0.38544 0.15791,1.32857 1.20704,2.09571 1.83049,1.33851 1.83858,1.53821 0.19335,4.98828 -0.94287,1.97722 -2.24591,3.5957 -2.89648,3.5957 -0.65057,0 -0.92251,0.26109 -0.60352,0.58008 0.31896,0.31891 1.69056,-0.14648 3.04688,-1.03516 2.27089,-1.48781 2.51428,-1.48791 3.08594,0.002 1.0896,2.83945 0.68306,4.30128 -1.92383,6.90821 -1.61976,1.61975 -2.04108,2.54492 -1.15625,2.54492 2.7823,0 4.98201,-3.71 4.27539,-7.21094 -0.36518,-1.80918 -0.79319,-4.77125 -0.95117,-6.58398 -0.25756,-2.95852 -2.37837,-6.20497 -3.74414,-6.13086 z m 8.21875,2.56054 c -0.34778,0.10481 -0.63495,1.30176 -0.66992,2.91407 -0.0401,1.84263 0.2974,3.12148 0.75,2.84179 1.02919,-0.63613 1.08535,-5.11137 0.0723,-5.73242 -0.0516,-0.0316 -0.10266,-0.0384 -0.15234,-0.0234 z m 13.26562,3.71094 c -0.15157,-0.0229 -0.25515,0.34221 -0.28515,1.07032 -0.0434,1.05425 0.19317,1.64464 0.52539,1.3125 0.33222,-0.3323 0.36871,-1.19413 0.0801,-1.91602 -0.11969,-0.29914 -0.22937,-0.45303 -0.32031,-0.4668 z m 5.40039,0.22266 c -0.31576,0.15428 -1.08186,1.36803 -1.83984,2.94922 h 0.002 c -1.21485,2.53372 -1.27075,3.16805 -0.24219,2.77344 1.25881,-0.48307 2.98216,-4.99432 2.18555,-5.72071 -0.0254,-0.0232 -0.0604,-0.024 -0.10547,-0.002 z m -12.06836,0.82226 c -0.0896,-0.0817 -0.21628,0.29746 -0.41406,1.10938 -0.26801,1.09999 -1.18557,2.7875 -2.03906,3.75 -0.85338,0.96253 -1.1229,1.75 -0.59766,1.75 1.78885,0 3.35469,-2.39316 3.23828,-4.94922 -0.0471,-1.03517 -0.0979,-1.57847 -0.1875,-1.66016 z m -39.11133,2.26368 c -0.0473,0.0269 -0.11471,0.13945 -0.20117,0.3457 -0.34579,0.82499 -2.01081,2.96251 -3.70117,4.75 -1.6902,1.78753 -2.58522,3.25 -1.98828,3.25 2.09393,0 5.22626,-3.52933 5.76953,-6.5 0.22632,-1.23755 0.26299,-1.92657 0.12109,-1.8457 z m 15.6211,0.44531 c -0.23355,-0.0492 -0.16291,0.35325 0.16211,1.27148 0.40108,1.13314 -0.37944,4.07497 -1.97852,7.45508 -3.55899,7.52281 -5.12035,17.78774 -3.51953,23.13086 l 1.21094,4.04297 h 5.37109 c 7.13537,0 17.443,-2.07422 32.04883,-6.45117 6.6,-1.97783 15.7198,-4.71047 20.26563,-6.07227 6.07067,-1.81867 10.717,-2.49383 17.5,-2.54297 l 9.23437,-0.0664 -4.5,-1.41797 c -9.11871,-2.87324 -18.95825,-1.75004 -38,4.33984 -5.22497,1.67104 -12.65002,3.9514 -16.5,5.06836 -25.20612,7.31271 -27.78,6.15726 -22.88672,-10.28516 3.35116,-11.26045 4.02278,-16.36762 2.35352,-17.9082 -0.3711,-0.34248 -0.62159,-0.5349 -0.76172,-0.56445 z m 24.46289,5.30859 c -0.15789,0.0955 -0.41121,0.69492 -0.83008,1.8418 -0.55241,1.51249 -1.41772,2.75 -1.92187,2.75 -0.50415,0 -0.91602,0.51903 -0.91602,1.1543 0,0.65499 0.86584,0.37211 2,-0.6543 1.09999,-0.99549 1.96339,-2.75203 1.91992,-3.9043 -0.0329,-0.87371 -0.0941,-1.28295 -0.25195,-1.1875 z m 5.42578,0.5918 c -0.49837,0 -0.67193,0.89904 -0.38477,1.99805 0.2874,1.09905 -0.21366,3.12402 -1.11523,4.5 -1.69187,2.58206 -0.91505,3.42286 1.20508,1.30273 1.39404,-1.39396 1.63643,-7.80078 0.29492,-7.80078 z m -43.32227,0.54687 c -0.4493,0.0403 -1.72784,0.87689 -3.07812,2.03907 -1.62871,1.4019 -2.21746,2.41406 -1.4043,2.41406 1.46121,0 5.33709,-3.70699 4.6211,-4.41992 -0.0282,-0.0281 -0.0745,-0.039 -0.13868,-0.0332 z"
       transform="scale(0.26458333)"
       id="path826"
       inkscape:connector-curvature="0"
       sodipodi:nodetypes="ccscccccccccccccscsccccccccccsccccccscsscccccccccccccccssccccscccsssccccccccccccccccccccccscsssscccccccccscccscccccscccccccsccccccsccscccccccccccscccccccscccccccccsccccscccccccsccscscccccsscccccccccccsccssccscsccccscscccscccccscscccccccccscccscccccsccsccsccccccccccsccccccsccccccscccsccccccsccccccccccccccccscscccccsccccccsccscccscccccccccscsccccscssscccccccccccccccccsccccscccccccccccscccccccccscsccccsccccccscccccccccccssccccscsccscscccccccccccsccccsccccccccccccccccccccccscccccssccccccssccccsccccccsscccscccscccccscccscccsccsccc" />
  </g>
</svg>
