<?xml version="1.0" encoding="utf-8"?>
<!-- Generator: Adobe Illustrator 24.3.0, SVG Export Plug-In . SVG Version: 6.00 Build 0)  -->
<svg version="1.1"
	 id="svg8699" inkscape:version="1.0 (4035a4fb49, 2020-05-01)" sodipodi:docname="Nickelodeon 1984 (Diver).svg" xmlns:cc="http://creativecommons.org/ns#" xmlns:dc="http://purl.org/dc/elements/1.1/" xmlns:inkscape="http://www.inkscape.org/namespaces/inkscape" xmlns:rdf="http://www.w3.org/1999/02/22-rdf-syntax-ns#" xmlns:sodipodi="http://sodipodi.sourceforge.net/DTD/sodipodi-0.dtd" xmlns:svg="http://www.w3.org/2000/svg"
	 xmlns="http://www.w3.org/2000/svg" xmlns:xlink="http://www.w3.org/1999/xlink" x="0px" y="0px" viewBox="0 0 457.5 316.1"
	 style="enable-background:new 0 0 457.5 316.1;" xml:space="preserve">
<style type="text/css">
	.st0{fill:#FFFFFF;}
	.st1{fill:#231F20;}
</style>
<sodipodi:namedview  bordercolor="#666666" borderopacity="1.0" id="base" inkscape:current-layer="layer1" inkscape:cx="310.10862" inkscape:cy="263.55563" inkscape:document-rotation="0" inkscape:document-units="mm" inkscape:pageopacity="0.0" inkscape:pageshadow="2" inkscape:window-height="1001" inkscape:window-maximized="1" inkscape:window-width="1920" inkscape:window-x="-9" inkscape:window-y="-9" inkscape:zoom="1.9137503" pagecolor="#ffffff" showgrid="false">
	</sodipodi:namedview>
<g id="layer1" transform="translate(-35.665309,-114.00305)" inkscape:groupmode="layer" inkscape:label="Layer 1">
	<g id="g9350">
		<path id="path9278" class="st0" d="M396.6,302.2l-2.1,9.4l16.1,2.7l0,8.6l30.1,1.9l3.6-25.3L417,297l-3.9,4.6L396.6,302.2z"/>
		<path id="path9276" class="st1" d="M418.8,430c-0.4-0.1-2.2-0.3-3.9-0.6c-1.7-0.3-5.2-0.7-7.7-1c-7-0.8-16.5-2-17.9-2.3
			c-0.7-0.1-2.7-0.4-4.4-0.5c-1.7-0.2-5.5-0.6-8.4-0.9c-2.9-0.4-7.7-0.9-10.7-1.2c-3-0.3-6.6-0.6-7.9-0.8c-1.3-0.1-4-0.4-6-0.5
			c-2-0.1-5.9-0.4-8.6-0.7c-8.4-0.7-15-1.1-19.3-1.3c-2.2-0.1-4.2-0.3-4.4-0.4c-0.3-0.2,0-1.4,1.3-5.1c1.7-5.1,3.6-11.1,4-12.5
			c0.1-0.4,0.6-1.8,1-3.1c0.4-1.3,1.1-3.5,1.5-4.8c0.4-1.4,1.1-3.6,1.5-5c2.8-9.5,5.2-19.5,6.5-27.4c0.3-1.7,0.6-3.7,0.8-4.3
			c0.3-1.5,0.8-4.8,0.8-6c0-0.5-0.1-0.9-0.3-1c-2.7-0.8-10.6-3.3-12.6-4c-1.4-0.5-4.4-1.4-6.5-2c-2.2-0.6-6.7-2-10.1-3.1
			c-3.4-1.1-7.5-2.3-9.2-2.8c-2.8-0.8-14.5-4.2-17.9-5.2c-3.5-1-4.7-1.4-11-3c-11.7-3-15.8-3.9-24.2-5.4c-12-2.1-24.6-3.5-34.7-3.8
			l-5.2-0.2l-1.5,1.9c-2,2.6-3.4,4.4-5.3,6.9c-0.9,1.1-2,2.6-2.5,3.3c-0.5,0.7-1.8,2.4-3,3.8c-1.1,1.4-3.3,4.2-4.8,6.2
			c-1.5,2-3.2,4.2-3.7,4.8c-0.5,0.6-2.1,2.8-3.6,4.8s-3,4-3.4,4.5c-0.4,0.5-1.3,1.7-2,2.6c-0.8,1-2.2,2.9-3.2,4.3
			c-1.9,2.7-2.5,3.2-2.8,3.1c-0.1,0-1.4-1.6-2.8-3.4c-1.4-1.8-3.2-4-3.9-4.9c-0.7-0.9-2.3-2.8-3.4-4.3c-1.2-1.5-3.3-4.1-4.7-5.9
			c-1.5-1.8-3.8-4.7-5.3-6.6c-3.6-4.6-8.8-11-9.8-12.1c-4.4-4.9-8-8.5-12.4-12.2c-0.9-0.7-2-1.7-2.6-2.3c-1.4-1.3-4.4-3.5-5.4-4
			c-0.7-0.4-0.9-0.4-3.2,0.7c-5.5,2.5-15,8.4-19.2,11.9c-1.2,1-2.7,2.3-3.4,2.8c-3.6,3-11.3,10.2-16.2,15.2c-2,2.1-3.8,3.8-3.9,3.8
			c-0.1,0-0.2-5.1-0.1-11.4c0.1-6.3,0-11.4-0.1-11.5c-0.1-0.1-0.8,0.3-1.6,0.7c-1.6,0.9-14.7,8-17.2,9.3c-0.9,0.5-1.6,0.8-1.6,0.7
			c0-0.2,0.3-1.1,3.9-11c1-2.8,1.8-5.2,1.8-5.4c0-0.4-5-0.2-8.1,0.2c-0.9,0.1-4.1,0.4-7.1,0.6c-3,0.2-5.8,0.5-6.3,0.6l-0.9,0.2
			l0.6-0.8c1.1-1.4,6.2-6.9,10.3-10.8c6.5-6.3,13.6-12.1,19.1-15.6c1.5-1,3-2,3.4-2.2c0.7-0.5,4.9-2.7,7.4-4
			c4.2-2.1,14-5.6,20.2-7.2c6.5-1.7,15.5-3.4,17.8-3.4c0.8,0,1.1,0.2,2.2,1.5c0.7,0.8,3.3,3.8,5.7,6.6c2.4,2.8,5.3,6,6.4,7.2
			c1.1,1.2,2.9,3.2,4.1,4.6c1.1,1.4,3.2,3.6,4.4,5.1c1.3,1.4,3.3,3.7,4.4,5c2.2,2.5,8.5,9.4,13.2,14.5c1.5,1.7,4.1,4.5,5.7,6.3
			c4.9,5.6,5.7,6.4,6.2,6c0.4-0.3,3.1-4.3,9.5-14.1c1.7-2.7,3.9-5.9,4.8-7.2c0.9-1.3,2.2-3.3,2.9-4.4c0.7-1.2,2.1-3.2,3-4.6
			c1.9-3,4.6-7.1,5.2-8.3c0.3-0.5,0.4-0.9,0.2-1.1c-0.3-0.2-2-0.9-9-3.6c-2.5-1-5.4-2.1-6.4-2.5c-2.2-0.9-12.6-4.1-14.9-4.6
			c-0.9-0.2-3-0.7-4.7-1.2c-2.8-0.7-10.3-2.3-13.3-2.8c-1.9-0.3-2-0.4-2.2-2.4c-0.1-1-0.3-2.2-0.4-2.7c-0.1-0.5-0.4-2.3-0.7-3.9
			c-0.2-1.7-0.6-4-0.8-5.2c-0.2-1.2-0.7-4.1-1-6.3c-0.8-5.1-1.6-10-2.2-13.7c-0.3-1.6-0.6-3.7-0.8-4.7c-1.2-7.8-4-24.4-4.2-24.8
			c-0.1-0.2-0.8-0.2-2.5,0c-7.1,0.9-15.9,2.5-21.9,4c-0.6,0.1-2.2,0.5-3.5,0.8c-3.4,0.7-8.6,2.1-12.8,3.5c-1.9,0.6-5.2,1.6-7.2,2.2
			c-2,0.6-5.3,1.6-7.3,2.3c-2,0.7-3.7,1.2-3.8,1.1c-0.1-0.1,0.8-2.1,1.9-3.7c0.9-1.5,8.2-15.4,8.2-15.7c0-0.4-2.9-1.3-10.5-3.2
			c-7.1-1.8-8.1-2-8.1-2.2c0-0.1,0.8-0.7,1.8-1.3c3.7-2.4,4.5-2.9,6.9-4.4c1.4-0.9,4.1-2.6,6.1-3.8c2-1.2,3.7-2.3,3.7-2.5
			c0.1-0.3-4.7-4.1-10.9-8.9c-1.6-1.3-3-2.4-3.1-2.6c-0.1-0.2,0.2-0.4,0.5-0.4c1-0.3,10-1.2,15.4-1.6c12.2-0.9,14.5-1,23.7-0.8
			c5,0.1,9.4,0.2,9.6,0.2c1,0,9.9,1,16.4,1.8c2.2,0.3,5.3,0.6,6.9,0.8c1.7,0.2,3.9,0.5,5.1,0.7c1.1,0.2,2.5,0.4,3.1,0.4
			c2.1,0,2.3,0.2,2.5,2.8c0.1,1.3,0.4,4.8,0.7,7.8c0.8,8.5,1.5,16.1,2.7,30.8c0.6,7.4,1.2,14.1,1.3,14.9c0.1,0.8,0.3,3.4,0.5,5.9
			c0.6,7.3,0.9,10.3,1.2,12.7c0.1,1.2,0.3,3.4,0.4,4.9c0.1,1.5,0.3,2.7,0.4,2.8c0.3,0.2,3.4,0.6,8,1c2.2,0.2,5.2,0.6,6.7,0.8
			c2.4,0.3,8.1,1,14.8,1.7c6,0.6,11.9,1.4,14.8,1.8c1.8,0.3,4.7,0.6,6.4,0.8c1.7,0.2,3.7,0.4,4.3,0.5c0.6,0.1,2.6,0.4,4.3,0.6
			c14.3,1.9,18.2,2.7,23.8,4.8c0.7,0.3,2,0.7,2.9,1c0.9,0.3,4,1.4,7.1,2.4c3,1,6.6,2.2,7.9,2.6c2.1,0.7,6.6,2.2,23.3,8
			c2.6,0.9,6.4,2.2,8.5,3c2.1,0.7,5.3,1.9,7.2,2.5c4.1,1.5,11.3,4,20.9,7.3c3.9,1.3,8.2,2.9,9.7,3.4c4.6,1.7,23.5,8,23.6,7.9
			c0.1-0.1,1-3.1,2.1-7.2c0.5-1.9,1.2-4.7,1.6-6c0.4-1.4,1.1-4,1.5-5.9c0.9-3.6,1.7-6.8,3.5-13.5c0.6-2.2,1-4.1,1-4.1
			c-0.2-0.2-11.7-3.7-13.9-4.3c-0.6-0.1-2.4-0.6-4.1-1.1c-1.7-0.5-4.4-1.2-6.2-1.7c-2.8-0.8-9.9-2.8-15.4-4.5
			c-7.3-2.2-14.1-4-21.9-5.9c-2.4-0.6-5.7-1.4-7.4-1.8s-4.3-1.1-5.8-1.4c-1.5-0.3-4.3-1-6.2-1.5c-1.9-0.5-4.5-1-5.6-1.2
			c-3.7-0.6-9.3-1.8-9.4-2c-0.1-0.1,1.2-4.3,2.9-9.4c3.4-10.3,2.9-9.4,5.8-8.9c3.2,0.6,4.5,0.8,5.8,0.9c2.7,0.3,10.5,2,17.3,3.8
			c2.3,0.6,4.8,1.2,5.5,1.4c1.8,0.5,10.1,3,10.6,3.3c0.2,0.1,0.8,0.3,1.3,0.4c0.5,0.1,1.7,0.5,2.6,0.8c3.7,1.4,9.2,3.7,13,5.2
			c2.2,0.9,5.3,2.2,6.9,2.9c6.8,2.8,9.3,3.8,14,6c2.7,1.2,6,2.7,7.3,3.2c1.3,0.5,2.5,1.1,2.7,1.2c0.2,0.1,3.7,1.7,7.7,3.5
			c4,1.8,8.7,4,10.4,4.7c1.7,0.8,4,1.8,5.1,2.2c2,0.8,4,1.8,4.8,2.5c0.5,0.4,0.3,1-3.3,10.7c-1.1,3-2.5,6.8-3,8.3
			c-0.6,1.5-1.3,3.5-1.7,4.4c-0.4,0.9-1.2,3.3-1.9,5.3c-0.7,2-1.4,4-1.6,4.3c-0.3,0.6-1.9,5.1-3.3,8.8c-0.3,0.9-1,2.6-1.5,3.9
			c-0.5,1.3-1.6,4.2-2.4,6.4c-0.8,2.2-1.8,4.8-2.1,5.6c-0.7,1.9-0.6,2.1,1.1,2.3c0.7,0.1,2.9,0.5,5,0.8c5.2,0.9,15.4,2.5,15.8,2.5
			c0.2,0,0.4-0.2,0.5-0.5c0.2-0.4,1.8-8.4,2.9-13.9c0.2-1.1,0.5-2.5,0.7-3.1c0.2-0.6,0.3-1.8,0.4-2.5c0.2-1.6,0.2-1.6-3.4-2.3
			c-1.4-0.3-2.3-0.6-2.4-0.8c-0.1-0.2,0.2-1.9,0.6-3.7c0.4-1.8,1.1-5.2,1.5-7.5c0.4-2.3,0.8-4.5,0.9-4.8l0.1-0.6l3.6,0.2
			c2.9,0.1,3.7,0.1,3.9-0.2c0.2-0.3,7.9-23.3,8.9-26.6c0.2-0.6,0.6-0.4,1.1,0.5c1.3,2.3,6,9,6.3,9c0.3,0,2.1-2.3,6.1-7.7l0.8-1.2
			l1.6,4.8c0.9,2.7,1.8,5.3,2.1,5.9l0.4,1l1-1.1c0.5-0.6,1.6-1.8,2.3-2.7c4.2-5.2,4.1-5,4.4-4.6c0.2,0.2,0.6,1.3,1,2.5
			c0.4,1.1,0.8,2.3,0.9,2.5c0.1,0.3,0.5,1.2,0.8,2c0.3,0.8,0.7,1.5,0.8,1.7c0.1,0.1,0.9-0.3,1.9-0.8c0.9-0.6,2.2-1.4,2.8-1.8
			c0.6-0.4,2-1.2,2.9-1.9c1-0.6,1.8-1.1,1.9-1c0.1,0.1-0.5,2.8-1.3,6c-1.3,5.2-1.7,6.8-2.4,9.7c-0.1,0.7-0.1,0.8,1,1.2
			c0.6,0.3,1.6,0.6,2.1,0.7c0.6,0.1,1.1,0.3,1.1,0.5c0.1,0.4-0.1,1.8-1,6.7c-0.7,3.5-2.5,13.1-3.2,17.1c-0.2,1.2-0.4,2.4-0.4,2.9
			l-0.1,0.8h2.5c1.4,0,4.7-0.1,7.4-0.2l4.9-0.2l-0.2,5.7c-0.1,3.1-0.3,6.4-0.5,7.3c-0.3,1.7-2.4,5.9-3,5.9c-1,0.1-2.8-0.1-5.9-0.7
			c-1.9-0.4-4.4-0.8-5.4-0.9c-1-0.1-3.7-0.6-6-0.9c-2.3-0.4-4.2-0.6-4.2-0.6c-0.1,0.1-0.9,9.5-0.9,10.5c0,0.6,1.8,1,9,1.7
			c6.9,0.7,10.5,0.4,15.4-1c3.8-1.1,5.4-2.5,6.9-6.5c1.9-4.8,2.8-7.8,4.7-15.2c1.9-7.5,3.4-18.5,3.9-28.5c0.2-5,0.1-19.5-0.1-19.9
			c-0.3-0.5,1.1-0.1,7.6,2.1c8.4,2.9,11.5,4,11.7,4.2c0.1,0.1,0.1,0.7-0.1,1.3c-0.3,1.2-0.8,4.4-1.3,7.8c-0.2,1.1-0.4,2.5-0.5,3.1
			c-0.1,0.6-0.5,2.8-0.9,4.8c-1.3,7.2-2.5,13.1-4.4,21.3c-0.6,2.7-1.4,6-1.7,7.5c-0.6,2.8-3.4,12.3-4.2,14.4
			c-0.3,0.7-0.9,2.4-1.3,3.7c-0.9,2.4-2.8,6.5-3.7,7.7c-0.3,0.4-1.6,1.3-2.9,2c-1.3,0.7-4,2.2-6,3.3c-2.6,1.5-4,2.1-5.2,2.3
			c-1.8,0.3-10.5,0.3-14.6,0c-6.1-0.5-9.1-0.8-11.8-1.2c-1.6-0.2-3.1-0.4-3.4-0.3c-0.3,0.1-1,1.3-2.2,4.4l-1.7,4.3l-1.3,0.1
			c-0.7,0-4.7-0.1-8.9-0.3c-18.9-1-22.3-1.2-27-1.6c-2.7-0.2-5.7-0.4-6.7-0.4c-0.9,0-2.3-0.1-3.1-0.2l-1.4-0.2l0.1-1.1
			c0.2-1.5,0.9-5.5,1.2-7.3c0.3-1.4,0.3-1.6-0.2-1.9c-0.3-0.2-0.6-0.3-0.7-0.3c-0.2,0-2.2-0.3-4.6-0.7c-5.7-0.9-12.5-1.9-13.5-2
			c-0.7-0.1-0.8,0-1.4,1.1c-0.6,1.2-3.3,7.8-4.8,11.4c-0.4,1-1.5,3.7-2.5,6c-1,2.3-2.2,5.3-2.8,6.7c-0.5,1.4-2.1,5.3-3.5,8.7
			c-1.4,3.4-2.5,6.3-2.4,6.4c0.1,0.1,2.5,0.6,5.3,1.1s8.2,1.6,11.9,2.4c3.7,0.7,8.2,1.6,10.1,2c1.9,0.3,3.9,0.7,4.6,0.9
			c0.6,0.2,2.8,0.6,4.7,0.9c4.3,0.8,13.6,2.6,17,3.3c1.4,0.3,4.8,1,7.7,1.5c2.9,0.6,6.1,1.2,7.1,1.4c1,0.2,3.8,0.8,6.2,1.2
			c6.4,1.2,6.8,1.3,6.8,1.9c0,0.3-0.4,2.5-0.9,4.9c-0.5,2.4-1.2,5.5-1.5,6.9c-0.3,1.4-0.6,2.9-0.7,3.2c-0.1,0.5-0.3,0.6-1.4,0.5
			C420.2,430.1,419.3,430.1,418.8,430L418.8,430z M439.4,322.1c0.8-3.8,2.8-15.2,3.2-18c0.2-1.1,0.2-1.1-0.8-1.5
			c-1-0.4-2.6-0.7-6-1.2c-2.7-0.3-10-1.5-13.5-2.1c-1.6-0.3-3.1-0.5-3.2-0.5c-0.1,0-0.6,0.6-1,1.4c-2.4,3.8-3.5,5.4-3.8,5.5
			c-0.3,0.1-3.6-0.3-10.6-1.4c-2.8-0.4-5.2-0.7-5.3-0.7c-0.1,0.1-0.5,1.5-0.9,3.1c-0.6,2.4-0.7,3.1-0.4,3.2c0.2,0.1,1.5,0.3,2.9,0.5
			c6.6,0.8,11,1.4,11.9,1.7l1,0.2l-0.2,3.7c-0.1,2-0.2,3.9-0.3,4.2c-0.2,0.7,0.6,0.9,5,1.2c2.3,0.2,5.3,0.4,6.7,0.6
			c1.4,0.1,4,0.4,5.9,0.5s3.8,0.3,4.3,0.4c0.5,0,1.8,0.1,2.9,0.1l2,0L439.4,322.1z M432,316.9c-1.5-0.2-1.5,0.5,0.4-8.1l0.4-1.9h1.5
			c2.3,0,3.1,0.2,3.1,0.8c0,0.3-0.3,1.7-0.6,3.2c-0.4,1.5-0.8,3.4-1,4.4l-0.4,1.7l-1.3,0C433.5,317,432.5,317,432,316.9L432,316.9z
			 M355.3,425c0.2-0.1,0.4-0.1,0.5,0c0.1,0.1-0.1,0.1-0.3,0.1C355.2,425.2,355.1,425.1,355.3,425L355.3,425z M410.5,264.8
			c-1.6-0.6-2.8-1.8-3.8-3.8c-0.9-1.8-1-2.5-0.4-4.1c1.5-4.1,5.5-5.8,9.4-3.9c2.4,1.1,4.6,4,4.6,6c0,1.8-2.2,5-4,6
			C415.3,265.4,412.1,265.3,410.5,264.8L410.5,264.8z M359.1,225c-3.1-1.1-4.8-3.1-5.3-6.2c-0.4-3,0.5-5.3,3.5-8.5
			c2.8-3,5.4-3.6,8.6-2.2c1,0.5,1.9,1.1,2.3,1.6c1.4,1.8,2,6.6,1,8.6c-1.3,2.7-3.9,5.6-6.2,6.6C361.8,225.6,360.9,225.6,359.1,225
			L359.1,225z M398.8,216.1c-1.4-0.3-3.3-1.3-4.8-2.6c-4.2-3.6-4.7-8.4-1.1-11.6c2.4-2.1,5.2-2.1,8.6,0.1c1.8,1.1,2.6,2.2,3.4,4.4
			c1,2.8,1.1,4.1,0.3,5.7c-0.8,1.6-2.1,3-3.5,3.7C400.6,216.3,400.3,216.4,398.8,216.1L398.8,216.1z M223.1,206.9
			c-1.8-0.3-4.3-1.6-5.7-2.9c-0.6-0.6-1.6-1.9-2.1-2.8c-0.9-1.6-0.9-1.8-0.9-4.2c0-2.4,0.1-2.6,1-4.3c1.9-3.6,4.4-6,7.1-6.8
			c1.8-0.5,2.7-0.5,5.1,0.3c4.3,1.4,6.2,4.4,6.4,10.2c0,1.8,0,2-0.9,3.7c-1.3,2.4-2.5,3.8-4.3,5.2
			C226.5,206.8,225.2,207.2,223.1,206.9L223.1,206.9z M280.6,172.9c-3.4-0.8-6.4-2.9-8.3-5.6c-3.9-5.6-2.8-11.8,3.2-17.7
			c1.1-1.1,2.3-1.9,3.4-2.5c1.6-0.7,1.9-0.8,4-0.6c2,0.1,2.6,0.3,4.5,1.2c4.3,2.1,6,4.9,6.8,10.5c0.4,3.1,0.3,4.4-0.8,6.4
			c-2.1,3.8-5.4,7.3-7.9,8.1C284.3,173.2,282,173.2,280.6,172.9L280.6,172.9z M337.6,167.5c-1.8-0.6-3.9-2.1-5-3.6
			c-2.7-3.4-2.2-7.8,1.4-11.1c1.8-1.7,2.9-2.1,5-1.9c2.8,0.2,5.5,1.9,6.7,4.3c0.6,1.3,1.4,5.1,1.2,6c-0.5,1.9-3,5.1-4.9,6.1
			C340.8,168,339.2,168,337.6,167.5L337.6,167.5z M117.3,145.3c-3.6-1.2-5.1-2.4-6.4-5c-1.3-2.7-0.6-8.5,1.5-12.8
			c1.7-3.5,6.6-7.8,11.2-10c1.5-0.7,1.7-0.7,4.2-0.5c3.9,0.2,6.9,1.5,9.1,3.7c1.5,1.6,1.9,4.8,1,9c-0.9,4.4-4.6,10.4-8,13.1
			C126.2,145.7,121.5,146.7,117.3,145.3z M192,139.7c-2.2-0.6-3.1-1.2-5-3.1c-5.1-5.2-5.7-10.3-1.7-16.2c1.7-2.5,3.9-4.5,6-5.5
			c1.4-0.6,2.2-0.8,4.1-0.9c2.9-0.2,4.4,0.1,7.1,1.4c2.9,1.4,5.9,4.4,7.3,7.3c1.7,3.6,1.5,6.2-0.8,10.1c-1.3,2.3-5.1,6-6.6,6.7
			C200.7,140.2,194.3,140.3,192,139.7L192,139.7z"/>
	</g>
</g>
</svg>
