<?xml version="1.0" encoding="UTF-8" standalone="no"?>
<svg id="svg2" xmlns:rdf="http://www.w3.org/1999/02/22-rdf-syntax-ns#" xmlns="http://www.w3.org/2000/svg" height="1779pt" width="1537pt" version="1.1" xmlns:cc="http://creativecommons.org/ns#" xmlns:dc="http://purl.org/dc/elements/1.1/" viewBox="0 0 1537 1779">
<path id="path26" d="m702.31 1629.1c10.61 0.66 21.43 23.07 9.71 28.71-7.48-5.31-15.59-10.55-22.53-16.51-2.35-6.55 6.06-7.66 9.66-3.61 6.16 4.07-0.71-6.39 3.16-8.59zm27.16-27.92c7.73-2.07 8.84 7.55 12.66 11.67 2.54 5.3 10.64 11.18 6.41 17.75-10.23 4.44-17.86-6.2-25.38-11.04-1.21-5.51 5.99-2.79 9.04-1.85-1.35-5.39-8.36-11.47-2.73-16.53zm28.99-21.96c8.92-1.03 10.64 10.45 15.73 15.54 5.22 3.44 0.35 10.03-1.99 13.75-9.31 0.78-18.38-6.03-24.17-12.7 1.29-7.88 10.65-0.75 14.22 0.91 2.59-3.73-13.11-13.7-3.79-17.5zm-520-63.95c5.86-0.8 5.55 5.36 2.85 8.91 5.06-0.85 16.93-8.69 13.97 1.93-7.09 8.17-18.79 13.92-29.06 17.43-17.84-4.75 5.8-22.43 12.24-28.27zm-28.04-24.9c5.74-1.16 8.88 5.47 6.84 10.42 4.04 0.2 13.82-6.81 10.97 2.27-5.65 10.47-29.16 24.66-37.01 10.97 5.78-8.78 11.96-16.64 19.2-23.66zm881.97-582.34c6.23-0.67 6.11 7.7 4.88 11.79 0.13 22.39 9.2 53.95 35.55 56.22 4.71 7.18-9.2 8.71-13.63 5.9-19.32-11.06-29.01-35.07-29.73-56.5 0.12-5.55-2.69-13.49 2.93-17.41zm5.95-75.4c8.72-1.73 4.25 8.7 4.37 13.03-4.26 25.28 0.96 52.39 20.26 70.33 5.41 4.08-2.9 8.23-6.26 4.39-23.83-21.48-28.95-58.52-18.37-87.75zm171.98-59.38c17.99 10.95 33.06 29.42 48.35 45.12 3.02 2.72 0.05 8.68-3.88 6.03-13.96-13.45-26.84-28.07-42.45-39.69-3.67-2.33-8.46-9.64-2.02-11.46zm-36.12-9.17c14.1 6.18 27.16 17.9 32.57 32.76-6.4 9.56-13.98-7.75-17.71-11.92-3.56-6.82-22.88-11.46-14.86-20.84zm74.05-612.84c3.06-0.32 3.21 3.71 1.84 5.65-6.56 12.38-20.38 24.24-18.49 39.27 9.68 5.63 18.48-11.43 27.43-13.2 4.48-0.08 4.67 5.54 2.14 8.08-8.76 6.84-17.36 15.46-28.92 16.84-11.58-2.81-11.56-17.49-6.31-26.05 4.25-12.03 11.7-23.35 22.31-30.59zm53.26-50.85c29.61-0.95 27.14 43.95 8.01 57.34-3.93 0.76-12.84 6.36-14.37-0.64 4.01-7.99 18.72-7.79 16.44-19.5-7.63-6.06-20.74 1.24-24.49-9.76-11.84-2.56-6.16 24.35-17.53 20.42-2.34-11.25 5.44-21 10.34-30.37 4.73-7.95 11.21-17.43 21.6-17.49zm128.7-100.32h2.77c5.28 1.41-2.06 6.44-4.72 7.54-8.79 2.78-18.23 12.6-16.4 21.22 10.88-8.15 28.5-20.98 42.84-13.4-6.83 7.92-27.07 4.6-33.43 17.22-8.25 11.2-0.59 24.47 5.29 34.58 12.86 14.47 33.75 12.13 50.3 17.18v1.88c-15.72 3.68-32.18 0.04-46.58-6.62-1.45-1.19-3.09 0.7-1.96 2.07 9.08 14.91 22.43 26.94 37.55 35.43 2.72 8.15-12.53 0.61-14.71-2.46-12.1-4.57-15.96-24.6-28.66-24.99 2.37 22.14 27.4 33.94 38.15 51.37-17.3-5.55-26.89-23.07-38.47-35.82-6.95-1.02-7.91 9.25-7.78 14.09 5.68 14.49 22.5 19.21 32.2 28.83-13.61 3.01-23.1-16.02-35.11-17.6-10.32 36.99-22.14 74.37-43.55 106.57-13.49 31.86-26.68 64.32-32.34 98.64-12.18 77.68-11.77 156.34-9.12 234.74 2.76 79.3-18.86 157.57-52.59 228.63-1.94 3.11-4.91 6.25-3.52 10.34 8.59 26.68 17.57 53.36 23.13 80.89 17.38 50.12 12.29 105.33 29.51 155.5 23.97 49.36 19.89 105.44 16.22 158.55-4.88 24.82-13.4 52.55-37.26 65.25-16.1 4.72-25.29-10.48-26.45-24.24-0.65-10.85-12.88-12.67-21.43-13.72-15.79 0.14-34.07-5.65-41.18-20.94-4.36-32.45-25.07-59.67-48.51-81.26-8.87-13.7-26.72-18.28-34.23-32.92-3.15-9.8-2.56-20.3-3.68-30.39-3.22-8.56-12.38-7.16-19.58-7.75-9.15-0.54-15.27-8.49-23.05-12.33-52.24 38.25-105.22 76.73-163.62 105.31-39.78 26.42-82.3 48.28-124.61 70.38-53.81 28.86-113.28 46.56-164.47 80.54-17.86 13.92-30.08 33.88-40.24 53.84-7.68 30.64-7.55 66.24 12.38 92.41 44.6 61.31 121.67 81.91 180.53 125.45 24.31 22.4 51.36 41.77 73.73 66.3 9.08 10.76 21.47 19.71 25.19 34.01 3.51 7.41-2.62 17.41-11.28 15.69-13.19 3.47-24.24-5.14-35.6-10-19.9-12.39-40.25-23.95-59-38.17 7.55 10.71 3.44 31.61-12.56 29.69-5.87-0.32-20.06-7.55-19.63 2.6 1.01 13.53-17.14 16.98-26.99 12.23 0.52 21.13-24.86 26.89-39.93 16.54 16.86 19.77 34.9 39.25 44.57 63.78 1.93 6.3-4.11 11.29-9.69 12.32h-1.78c-33.15-5.17-53.27-34.82-79.88-52.1-61.96-59.67-120.54-125.63-158.29-203.72-8.99-20.57-20.54-41.02-20.37-64.16-1.04-13.73 5.11-28.11 3.76-41.23-7.33 14.87-20.16 27.42-36.49 31.68-13.95 20.05-30.16 38.65-49.09 54.18-24.68 19.89-56.21 27.54-82.8 44.19-16.42 8.41-29.63 21.75-46.06 29.97-20.92 7.68-35.49 25.54-54.62 36.34-38.13 28.13-79.25 52.42-123.32 69.9-11.33 4.56-29.58-3.33-23.73-17.74 14.4-22.67 33.63-41.98 54.2-59.1-8.74 0.99-19.29 3.79-25.75-4.13-5.17-7.51-0.44-15.02 2.36-22.08-9.23 0.44-20.03 3.86-27.14-4.14-4.05-8.11-1.34-18.09 5.12-24.16-13.46 4.11-33.19 4.56-33.23-14.48-17.76 6.16-34.28 18.02-53.71 19.88-8.43 2.13-20.88-0.01-21.96-10.43v-5.22c29.73-58.57 99.19-74.34 153.16-102.36 63.52-20.41 124.31-48.63 188.79-65.99 13.29-7.95 30.26-12.7 37.91-27.23 5.89-23.85-11.82-42.61-21.35-62.39-7.21-18.14-9.23-37.76-13.03-56.78 0.52-15.87 6.05-31.06 8.52-46.68 12.2-53.76 47.69-98.57 59.65-152.37 10.75-44.17 22.64-92.45 58.45-123.56 84.61-84.34 186.21-148.41 281.44-219.55-19.79-12.44-49.1-11.52-71.18-1.12-8.28 6.27-23.2 1.61-24.97-9.02-6.3-34.38 17.21-70.14 47.58-84.43 39.6-12.08 81.14-19.06 119.2-35.76 35.08-20.27 70-42.4 109.82-52.22 9.21-1.8 17.65-6.21 24.81-12.22 47.3-35.86 98.6-69.85 131.13-120.85 14.4-24.53 30.27-48.37 41.21-74.75 23.15-44.53 35.04-93.89 58.85-138.15 14.44-14.82 27.81-32.26 47.16-40.93 66.95-26.05 132.8-55.3 197.7-86.23 9.79-9.09 28.5 3.01 33.06-12.08 2.8-10.16 13.16-14.85 22.44-17.78m-45.66 34.48c-54.39 17.89-103.06 50.57-157.09 70.13-14.19 3.05-25.49 13-39.49 16.47-23.15 7.26-39.52 26.7-54.07 44.99-21.14 43.28-33.94 90.01-56.18 132.79-10.19 28.76-29.49 52.87-42.95 80.04-35.49 49.79-85.69 85.91-134.9 121.11-46.92 42.03-95.74 82.85-131.76 135.24-13.42 20.74-38.2 28.75-54.47 46.53-92.53 69.64-192.48 130.1-275.58 211.42-14.5 14.48-31.72 26.8-42.02 44.98-23.26 36-29.07 79.32-41.37 119.62-15.44 43.01-43.51 81.72-51.47 127.25-14.62 38.98-6.96 83.95 16.65 117.98 11.49 17.9 18.35 48.85-2.88 62.1-18.53 14.39-41.57 20.82-63.76 27.23-34.18 9.37-66.38 24.37-99.62 36.41-39.22 9.63-74.74 28.85-111.7 44.27-33.52 17.18-72.08 33.4-91.31 67.84-3.48 13.55 14.87 5.03 21.57 5.47 33.69-10.81 62.85-31.88 95.27-45.74 14.41-10.56 30.92-18.76 47.21-25.55 9.89 12.51 15.74-15.1 26.51-6.56 1.34 4.96-5.22 9.08-6.57 14.08 5.79 2.95 14.16-12.2 12.93-0.23-6.76 8.9-19.29 9.38-28.5 15.01-7.16 3.26-4.51-9.03-11.11-9.11-13.91 4.76-26.54 12.83-38.52 21.27-15.45 7.98-33.8 14.38-42.4 30.69-1.38 5.22 6.36 5.72 9.58 4.77 31.6-3.32 54.22-28.67 82.78-39.79 9.75-2.51 6.74 10.51-0.71 10.64-24.54 10.98-44.03 27.87-64.07 44.92-9.71 6.42 3.56 15.45 10.49 11.73 27.1-7.6 52.24-21.38 75.59-36.89 3.25-1.88 8.78 1.16 5.64 5.49-21.82 20.04-57.79 25.1-71.32 53.63 10.14 9.66 24.6-1.52 35.2-5.45 21.28-7.67 37.44-25.25 58.6-33.21 5.19 1.41 3.08 9.08-0.89 11.01-41.12 26.94-84.62 53.65-113.24 94.66-1.9 3.1-8.44 8.12-4.56 12.04 10.39 4.43 20.72-2.34 29.64-6.93 50.91-20.36 94.29-54.95 138.35-86.72 13.7-6.35 27.97-12.35 39.16-22.78 31.71-26.3 72.92-36.14 106.19-59.78 15.59-14.61 33.08-28.2 43.27-47.38-8.14-3.88-10.99-13.83-10.23-22.23 1.15-29.56-4.12-58.93-12.33-87.25-0.59-5.32-4.62-18.37 6.08-13.03 1.26 13.56 6.7 26.25 9.4 39.56 7.02 23.08 2.87 48 7.85 71.15 16.7 5.67 33.22-9.85 39.54-24.26 7.16-21.81 16.18-43.5 18.57-66.43-3.43-9.7 4.62-16.36 5.41-25.49 0.2-4.84 8.29-7.23 9.66-1.87-3.71 23.38-6.47 46.92-10.3 70.31-3.48 32.84-15.14 67.07-2.52 99.46 11.53 29.6 26.54 57.67 43.38 84.56 2.45 9.71 15.02 12.48 15.74 22.29 22.78 33.48 52.34 62.96 77.17 93.87 16.8 9.29 26.8 27.5 43 37.96 21.45 13.74 37.83 40.26 65.29 40.96-7.22-31.33-36.6-52.84-54.77-78.46-13.02-11.56-20.87-26.41-34.1-38.01-4.2-2.97 0.36-9.44 4.59-6.71 12.68 10.34 23.96 22.58 37.49 31.72 8.47 12.71 31.4 31.58 42.26 12.1-2.3-18.55-22.79-26.36-32.68-40.66-4.38-2.78-18.21-13.64-5.53-14.64 18.59 11.86 31.13 31.62 50.97 42.2 7.67 7.15 21.52-2.45 16.66-12.35-12.26-19.35-30.82-34.48-49.96-47.37-3.56-3.86 2.38-9.92 6.72-6.92 23.24 16.29 40.47 42.04 68.34 50.99 7.25 2.93 11.59-6.7 7.89-11.93-11.72-18.51-31.51-29.25-46.03-45.13-2.47-1.81-0.79-6.53 2.37-5.46 37.23 22.54 72.7 49.42 110.54 71.63 10.82 5.46 24.72 14.71 36.66 8.2-1.88-11.69-11.65-19.47-18.79-28.07-21.74-25.41-48.73-45.3-73.55-67.46-52.88-38.71-117.01-60.34-165.17-105.83-12.05-14.1-27.24-26.51-33.35-44.64-8.54-26.89-8.89-56.54 0.46-83.3 12.33-19.9 23.59-42.2 43.65-55.41 43.45-28.85 93.22-46.2 140.48-67.52 104.69-54.96 209.03-111.12 303.67-182.34 11-6.07-5.44-15.28-5.94-23.87-32.94-8.32-59.4-38.98-57.85-73.7 2.46-7.09 7.82 2.16 7.67 6.05 3.53 28.41 26.45 54.75 55.07 58.51 7.93-8.25 14.99 2.4 6.15 8.12 3.43 12.64 17.11 21.29 27.1 29.21 12.87-1.53 27.04 1.69 33.88 13.64 1.24 10-3.38 20.24 1.28 29.9 4.43 10.75 17.53 12.33 23.63 21.49 25.86 26.73 52.78 56.46 59.62 94.19 12.02 20.26 38.64 8.51 55.27 20.91 10.34 7.06 6.25 21.34 13.78 29.82 9.33 3.27 15.39-4.93 21.68-10.04 17.81-26.46 20.36-59.49 19.41-90.47 2.49-35.3-2.2-71.13-15.16-104.06-15.3-27.16-10.82-59.48-18.34-88.75-3.65-44.03-14.71-87.07-29.18-128.69-9.68-35.81-25.24-70.2-47.01-100.2-1.31-2.69 1.21-7.59 5.01-5.15 17.92 16.2 24.61 41.86 37.47 60.61 34.05-63.26 51.11-136.29 53.45-208.46-3.72-93.83-4.18-189.14 15.6-281.45 11.96-28.52 18.54-59.7 36.82-85.24 10.76-23.96 24.24-47.28 28.31-73.57-16.08 9.85-20.88 32.58-35.72 44.56-3.83 2.18-5.39-1.8-5.36-4.44 12.74-23.08 33.69-41.66 44.79-65.52-3.91-16.58-19.56-33.46-9.97-51.12 6.27 12.19 1.25 32.76 14.91 40.2 13.34-14.57-6.06-29.02-5.45-44.61 7.12-2.19 5.41 9.61 11.48 9.94-4.41-8.27-5.88-20.72-18.17-18.67-18.29-1.07 15.1-26.8-10.88-19.02m-515.32 479.95c-35.27 8.68-66.42 28.35-97.33 46.72-41.16 19.84-87.64 24.85-130.09 40.86-20.78 13.77-38 38.9-36.16 64.7-0.82 5.02 4.06 13.67 9.83 9.97 14.05-6.47 29.57-8.41 44.7-10.26 16.78-2.23 31.23 11.16 47.81 8.65 12.91-13.43 29.41-22.48 43.77-34.08 30.11-40.12 63.2-78.11 101.6-110.39 4.16-6.16 15.11-10.31 15.87-16.17z"/>
</svg>
