<?xml version="1.0" encoding="UTF-8" standalone="no"?>
<!-- Created with Inkscape (http://www.inkscape.org/) -->

<svg
   xmlns:dc="http://purl.org/dc/elements/1.1/"
   xmlns:cc="http://creativecommons.org/ns#"
   xmlns:rdf="http://www.w3.org/1999/02/22-rdf-syntax-ns#"
   xmlns:svg="http://www.w3.org/2000/svg"
   xmlns="http://www.w3.org/2000/svg"
   xmlns:sodipodi="http://sodipodi.sourceforge.net/DTD/sodipodi-0.dtd"
   xmlns:inkscape="http://www.inkscape.org/namespaces/inkscape"
   width="565mm"
   height="145mm"
   viewBox="0 0 565 145"
   version="1.1"
   id="svg8"
   inkscape:version="0.92.1 r15371"
   sodipodi:docname="tugofwar-people-1896.svg">
  <defs
     id="defs2" />
  <sodipodi:namedview
     id="base"
     pagecolor="#ffffff"
     bordercolor="#666666"
     borderopacity="1.0"
     inkscape:pageopacity="0.0"
     inkscape:pageshadow="2"
     inkscape:zoom="0.27379789"
     inkscape:cx="1384.0677"
     inkscape:cy="19.445196"
     inkscape:document-units="mm"
     inkscape:current-layer="g4506"
     showgrid="false"
     inkscape:snap-global="false"
     fit-margin-top="0"
     fit-margin-left="0"
     fit-margin-right="0"
     fit-margin-bottom="0"
     inkscape:window-width="1366"
     inkscape:window-height="706"
     inkscape:window-x="-8"
     inkscape:window-y="-8"
     inkscape:window-maximized="1"
     showguides="false" />
  <metadata
     id="metadata5">
    <rdf:RDF>
      <cc:Work
         rdf:about="">
        <dc:format>image/svg+xml</dc:format>
        <dc:type
           rdf:resource="http://purl.org/dc/dcmitype/StillImage" />
        <dc:title></dc:title>
        <dc:creator>
          <cc:Agent>
            <dc:title>j4p4n</dc:title>
          </cc:Agent>
        </dc:creator>
        <cc:license
           rdf:resource="http://creativecommons.org/publicdomain/zero/1.0/" />
      </cc:Work>
      <cc:License
         rdf:about="http://creativecommons.org/publicdomain/zero/1.0/">
        <cc:permits
           rdf:resource="http://creativecommons.org/ns#Reproduction" />
        <cc:permits
           rdf:resource="http://creativecommons.org/ns#Distribution" />
        <cc:permits
           rdf:resource="http://creativecommons.org/ns#DerivativeWorks" />
      </cc:License>
    </rdf:RDF>
  </metadata>
  <g
     inkscape:label="Layer 1"
     inkscape:groupmode="layer"
     id="layer1"
     transform="translate(509.59644,413.1821)">
    <g
       id="g4506"
       transform="translate(409.72619,28.72619)">
      <path
         style="fill:#000000;stroke-width:0.35277778"
         d="m -698.44896,-298.68587 c -0.17848,-0.17848 -4.69273,-0.73974 -9.66298,-1.20141 -2.3468,-0.21799 -3.41723,-0.54604 -6.17362,-1.89203 -1.83401,-0.89557 -4.20769,-1.89014 -5.27484,-2.21017 -1.06715,-0.32001 -3.19596,-0.98078 -4.73068,-1.46837 -2.45662,-0.78048 -3.46939,-0.89287 -8.46667,-0.93961 -3.51415,-0.0329 -6.21376,0.10658 -7.08737,0.36609 -0.77611,0.23055 -2.73968,0.6649 -4.36349,0.96523 -1.62381,0.30033 -3.44943,0.7984 -4.05695,1.10683 -0.60751,0.30843 -1.94353,0.65092 -2.96893,0.76109 -1.5143,0.16269 -1.94824,0.0856 -2.31103,-0.41054 -0.31512,-0.43096 -1.25603,-0.70161 -3.19507,-0.91907 -2.98114,-0.33432 -2.96296,-0.33015 -7.05615,-1.61863 -2.35169,-0.74028 -2.94169,-0.81175 -3.79236,-0.45938 -0.55408,0.2295 -1.00741,0.52066 -1.00741,0.64703 0,0.68233 -8.81682,3.47372 -9.54687,3.02252 -0.18147,-0.11215 -1.32235,0.0533 -2.53528,0.36756 -3.70473,0.96001 -6.62827,1.06935 -8.78445,0.32853 -1.03816,-0.3567 -2.03838,-0.77526 -2.2227,-0.93014 -0.18433,-0.15488 -0.59771,-0.2816 -0.91863,-0.2816 -0.99205,0 -2.4504,-1.63301 -2.4504,-2.74389 0,-2.06521 2.77393,-3.48753 8.81944,-4.52211 2.30209,-0.39396 4.17979,-0.49995 5.99722,-0.33852 1.45521,0.12926 3.36021,0.27587 4.23334,0.3258 0.87312,0.0499 3.16323,0.45278 5.08912,0.89519 l 3.50163,0.8044 0.64456,-0.82641 c 0.93673,-1.201 1.14994,-2.34761 0.6205,-3.33688 -0.65534,-1.22452 -4.89628,-3.20429 -8.18908,-3.82285 -1.50864,-0.2834 -2.88444,-0.6027 -3.05733,-0.70955 -0.75981,-0.46959 -19.11172,-1.77007 -25.0629,-1.77604 -0.86515,-7.1e-4 -0.85988,1.29479 0.008,1.94938 l 0.79265,0.59789 -0.96466,1.97169 c -0.6675,1.36432 -1.52507,2.39816 -2.78395,3.35618 -2.68382,2.0424 -3.08125,2.1785 -6.3614,2.1785 -1.69031,0 -3.09968,0.15967 -3.22694,0.3656 -0.29487,0.47711 -27.30136,0.1624 -29.27263,-0.34111 -0.77611,-0.19824 -1.9281,-0.36423 -2.55997,-0.36885 -0.77874,-0.006 -1.39592,-0.29256 -1.91571,-0.89037 -0.42176,-0.48506 -1.07661,-0.88194 -1.45522,-0.88194 -0.60478,0 -0.66429,-0.17969 -0.48996,-1.47937 0.2032,-1.51503 1.26332,-2.73028 2.39555,-2.74612 0.30844,-0.004 2.11035,-0.79677 4.00424,-1.76101 2.44918,-1.24695 3.81518,-1.73848 4.73087,-1.70231 0.70808,0.028 3.27179,-0.12984 5.69714,-0.35069 2.42535,-0.22084 8.27815,-0.51211 13.00623,-0.64725 7.1139,-0.20334 8.45244,-0.32033 7.76112,-0.67832 -1.9112,-0.98969 -18.67338,-2.14474 -23.17737,-1.59711 -1.74368,0.21201 -7.28407,0.3572 -12.31199,0.32265 -5.02792,-0.0346 -9.29574,0.0324 -9.48404,0.14877 -0.18829,0.11637 -2.39928,0.23831 -4.91329,0.27098 -2.51402,0.0327 -6.63469,0.19536 -9.15705,0.36154 -2.52236,0.16618 -7.12611,0.40404 -10.23055,0.52858 -3.10445,0.12453 -6.35882,0.28968 -7.23195,0.36699 -8.96187,0.79353 -13.9126,0.49284 -18.52083,-1.1249 -4.04178,-1.41889 -7.58472,-3.50927 -7.58472,-4.47508 0,-0.18071 -0.39056,-0.7927 -0.86791,-1.36 -1.6976,-2.01749 -1.52254,-5.3129 0.43786,-8.24263 2.18418,-3.26413 3.30836,-4.40972 4.32734,-4.40972 0.54454,0 2.16363,-0.54208 3.59799,-1.20462 2.90016,-1.33961 7.365,-2.90188 9.79083,-3.42586 3.78799,-0.81821 6.03979,-1.49121 12.46952,-3.72677 l 3.82647,-1.33042 -0.20965,-7.2388 c -0.1153,-3.98135 -0.36064,-8.58818 -0.5452,-10.23742 -0.18456,-1.64923 -0.58206,-5.28006 -0.88333,-8.06849 -0.30128,-2.78843 -0.78566,-5.77054 -1.07641,-6.62691 -0.29074,-0.85637 -0.52862,-1.85963 -0.52862,-2.22946 0,-0.38125 -0.92533,-1.48344 -2.13687,-2.54531 -2.4307,-2.1304 -3.32068,-3.42121 -3.65485,-5.30085 -0.19329,-1.08726 -0.11021,-1.38807 0.48624,-1.76056 0.83587,-0.52201 0.9036,-1.501 0.1902,-2.74897 -0.27729,-0.48507 -0.50979,-1.40832 -0.51667,-2.05167 -0.0149,-1.39721 -0.33517,-2.04995 -1.74745,-3.5618 -1.25492,-1.3434 -1.70212,-3.22599 -1.13733,-4.78788 0.7006,-1.93748 0.55466,-2.3001 -0.92008,-2.28609 -1.15642,0.011 -3.60776,0.51719 -5.93367,1.22529 -1.05539,0.32131 -1.82466,-0.66471 -1.16508,-1.49335 2.31345,-2.90644 4.6151,-4.33061 6.99883,-4.33061 h 1.42284 v -1.57523 c 0,-2.05948 -1.25362,-3.51511 -4.38051,-5.08637 -1.27725,-0.64182 -2.32227,-1.28395 -2.32227,-1.42696 0,-0.49047 2.6458,-2.38362 3.91576,-2.80185 0.69846,-0.23002 2.20659,-0.57624 3.35139,-0.76936 3.78825,-0.63907 9.12082,0.75277 12.41603,3.24067 2.19159,1.65467 3.24421,3.20408 3.24606,4.77809 0.001,1.05711 -0.11088,1.15411 -1.95288,1.6896 -2.12156,0.61675 -3.90166,2.05979 -5.00283,4.05556 l -0.67437,1.22221 1.96362,1.85173 c 1.07999,1.01845 2.14261,1.85752 2.36139,1.8646 0.21877,0.007 0.60409,0.26145 0.85624,0.56529 0.25217,0.30383 0.90946,0.78564 1.46065,1.07067 0.89792,0.46433 1.0249,0.459 1.22071,-0.0513 0.14838,-0.38666 -0.39164,-1.19217 -1.68203,-2.50895 -2.03419,-2.07581 -3.36916,-2.94343 -4.52889,-2.94343 -0.39769,0 -0.72307,-0.16374 -0.72307,-0.36385 0,-0.64753 1.07696,-0.80059 2.54288,-0.36138 1.60718,0.48152 4.45699,3.20887 5.37551,5.14451 0.31117,0.65574 0.82263,1.44912 1.13658,1.76307 0.49303,0.49303 0.50257,0.63907 0.07,1.07163 -0.70385,0.70385 -6.43069,0.01 -7.76632,-0.94133 -1.32549,-0.94383 -1.81135,-0.83983 -2.55857,0.54768 -0.74043,1.37489 -1.91747,2.57252 -3.10839,3.16275 -0.55032,0.27275 -0.84288,0.77203 -0.91987,1.56982 -0.0951,0.98556 0.11334,1.37873 1.32292,2.49541 0.78969,0.72904 1.4358,1.49133 1.4358,1.69397 0,0.20264 -0.30668,1.05344 -0.68151,1.89066 -0.37484,0.83722 -0.60427,1.64722 -0.50984,1.8 0.0944,0.15278 0.83767,0.2086 1.65165,0.12406 0.81399,-0.0845 2.23404,-0.16284 3.15568,-0.17398 2.67555,-0.0323 1.85325,-1.19694 -1.21496,-1.72073 -1.39198,-0.23763 -2.46891,-1.17144 -1.94972,-1.69063 0.13747,-0.13747 1.87811,0.24277 3.86808,0.84497 3.53392,1.06944 3.80902,1.09744 11.82037,1.20317 7.55623,0.0997 8.8212,0.004 7.84914,-0.5973 -0.19403,-0.11992 -0.35582,-0.7246 -0.35954,-1.34374 -0.005,-0.77433 -0.39006,-1.56497 -1.23472,-2.53296 -0.67538,-0.774 -1.22796,-1.50862 -1.22796,-1.6325 0,-0.64609 1.14459,-1.06549 2.36905,-0.86809 1.29397,0.20862 1.37045,0.16085 2.48164,-1.55033 1.3277,-2.04457 1.42065,-2.82745 0.44098,-3.71405 -0.88603,-0.80184 -0.96024,-3.1908 -0.12771,-4.11074 0.49083,-0.54236 0.50579,-0.72537 0.0993,-1.21517 -0.3919,-0.47221 -0.9817,-0.54752 -3.25642,-0.41584 -2.12371,0.12294 -2.82097,0.0484 -2.96097,-0.31641 -0.30046,-0.78298 0.52931,-1.43891 2.38272,-1.88353 1.57656,-0.37822 1.74642,-0.5148 1.74642,-1.40436 0,-1.14915 0.39842,-1.35552 3.17796,-1.64604 2.10121,-0.21962 7.41916,0.36405 9.52204,1.04509 4.28734,1.38848 8.13514,6.3788 6.17361,8.00672 -0.66619,0.55289 -0.66921,1.02442 -0.0112,1.7515 0.28488,0.31478 0.56269,1.12103 0.61736,1.79166 0.0872,1.06979 -0.009,1.23199 -0.78262,1.32246 -0.65546,0.0766 -1.28602,-0.3085 -2.4547,-1.4993 -1.89119,-1.92698 -2.70619,-2.04677 -3.10185,-0.4559 -0.491,1.97416 -4.02722,3.18165 -7.8277,2.67287 -0.63473,-0.085 -1.00401,0.13643 -1.40637,0.84319 -0.508,0.89233 -0.4973,0.99495 0.15518,1.48809 0.38544,0.29131 1.11915,0.53471 1.63045,0.54088 1.14854,0.0139 2.39226,0.56205 4.85797,2.14122 2.38031,1.52449 10.06419,3.31751 11.72935,2.73704 0.72565,-0.25296 1.39075,-0.20035 2.49588,0.19742 0.82863,0.29825 2.93535,0.62313 4.6816,0.72196 1.74625,0.0988 4.7625,0.42171 6.70278,0.71754 4.16479,0.635 6.59444,0.69521 7.11337,0.17628 0.58502,-0.58502 2.70612,0.10306 3.11265,1.00974 0.19153,0.42718 0.50903,0.78883 0.70555,0.80368 0.44336,0.0335 1.13037,0.17857 2.38762,0.50421 0.87505,0.22665 1.02503,0.12477 1.50404,-1.02167 0.66178,-1.58385 1.27592,-1.60196 2.79544,-0.0824 l 1.19098,1.19098 17.40629,0.0775 c 9.57346,0.0426 20.18441,0.0658 23.5799,0.0514 14.08216,-0.0594 21.80609,0.10686 22.70157,0.48859 0.41514,0.17697 0.7547,0.11375 0.93227,-0.17357 0.18911,-0.30598 0.60486,-0.36699 1.28732,-0.18893 1.31602,0.34338 62.22794,0.52211 64.432,0.18906 0.92833,-0.14028 1.88083,-0.51073 2.11666,-0.82322 0.23583,-0.31249 1.10083,-0.6727 1.92222,-0.80046 1.19974,-0.18662 1.53704,-0.11867 1.71516,0.34551 0.12195,0.31779 0.0453,0.79039 -0.17033,1.05021 -0.32007,0.38565 0.14232,0.514 2.51817,0.69895 6.02197,0.46878 6.9414,0.34916 10.77268,-1.40155 0.63781,-0.29146 1.49316,-0.59414 1.90076,-0.67264 1.98863,-0.38297 4.52429,-1.2818 4.52429,-1.60375 0,-0.93664 -1.65127,-3.17911 -2.46944,-3.35358 -1.22352,-0.2609 -1.83016,-0.61905 -2.26948,-1.33987 -0.52992,-0.86947 1.30165,-2.3298 2.92508,-2.33219 1.07275,-10e-4 1.1648,0.0778 0.97355,0.83982 -0.28495,1.13534 0.53587,1.77695 1.91932,1.50026 0.67905,-0.13581 1.36725,-0.0255 1.86167,0.29849 0.6834,0.44778 0.91025,0.44866 1.76195,0.007 1.95857,-1.01612 3.31163,-1.19553 5.38378,-0.71384 1.93669,0.4502 2.03945,0.43511 4.15179,-0.60967 1.19127,-0.58921 3.03907,-1.73286 4.10623,-2.54143 1.06715,-0.80858 2.35659,-1.67509 2.86542,-1.92559 0.50884,-0.25049 1.27306,-1.07445 1.69827,-1.83102 0.82794,-1.47312 1.22904,-1.67833 1.68565,-0.86241 0.18287,0.32677 0.46193,0.40517 0.76829,0.21583 0.62083,-0.38369 0.25645,-0.95065 -1.04278,-1.62251 -0.93244,-0.48216 -1.03596,-0.48067 -1.03596,0.0149 0,0.82514 -1.06583,2.2897 -1.66632,2.2897 -0.69982,0 -0.30489,-1.66198 0.63413,-2.66857 0.37368,-0.40056 0.67941,-1.1516 0.67941,-1.66897 0,-0.70918 0.21704,-0.99516 0.88194,-1.16204 1.44697,-0.36316 2.73626,0.17606 4.28455,1.79195 2.14396,2.23756 3.09041,2.78639 3.98206,2.30918 0.86995,-0.46557 0.86021,-0.38638 0.20225,-1.64803 -0.28988,-0.55575 -0.52801,-1.57607 -0.52917,-2.26738 0,-0.94098 -0.27436,-1.51735 -1.08503,-2.29305 -0.59556,-0.56988 -1.33206,-1.56057 -1.63666,-2.20155 -0.40789,-0.85835 -0.70352,-1.09892 -1.12201,-0.91305 -0.95241,0.42301 -3.00856,0.53262 -3.52513,0.18794 -0.73342,-0.48937 -0.20907,-2.95552 0.59578,-2.80218 0.32849,0.0626 0.64798,0.46936 0.70998,0.90394 0.062,0.43458 0.316,0.79015 0.56443,0.79015 0.65114,0 3.27702,-1.97103 3.71423,-2.78796 0.76619,-1.43166 0.52782,-1.56204 -2.43775,-1.33335 -3.29842,0.25436 -3.70948,-0.0473 -2.23711,-1.64182 0.56681,-0.61382 1.43597,-1.67167 1.93146,-2.35076 2.29817,-3.14977 5.35758,-5.12777 7.83094,-5.06292 2.45992,0.0645 3.03745,-1.52553 1.28079,-3.52624 -1.46695,-1.67078 -1.44589,-2.41522 0.0458,-1.61692 0.78394,0.41955 1.71813,-0.0911 1.71813,-0.93907 0,-0.64379 -2.51188,-0.49143 -3.04038,0.18442 -0.33115,0.42352 -0.46231,0.37789 -0.81661,-0.28414 -0.6883,-1.28611 -0.30875,-1.59404 2.04149,-1.65629 1.82154,-0.0482 2.27623,0.0596 2.67967,0.63561 0.58007,0.82817 0.0761,2.74055 -0.72228,2.74055 -0.59764,0 -0.61218,0.16935 -0.10061,1.16972 0.51467,1.00637 1.74258,1.98755 2.49975,1.99743 0.89563,0.0117 2.39786,-0.75246 2.39786,-1.21973 0,-0.22482 -0.78299,-0.62198 -1.73997,-0.88257 l -1.73993,-0.47381 0.0642,-2.85316 c 0.0607,-2.69489 0.10975,-2.8596 0.88374,-2.96926 0.59976,-0.085 0.87358,0.0907 1.02119,0.65523 0.1736,0.66377 0.37599,0.74306 1.45129,0.56856 1.15235,-0.187 2.17611,0.19919 2.17611,0.82091 0,0.14009 -0.3967,0.71597 -0.88152,1.27972 -1.93584,2.25095 -0.68203,3.02927 2.44708,1.51908 1.51613,-0.73172 2.31499,-0.85111 2.31499,-0.34597 0,0.59764 -3.92137,4.08216 -4.87694,4.33365 -0.51915,0.13663 -1.81701,0.46613 -2.88417,0.73223 -1.06715,0.26609 -1.90059,0.59087 -1.85208,0.72172 0.0485,0.13085 0.0882,0.35902 0.0882,0.50704 0,0.14802 0.34474,0.42583 0.7661,0.61736 0.42132,0.19153 1.09601,0.79698 1.4993,1.34545 0.88844,1.20832 0.97949,4.26559 0.22073,7.41122 -0.38223,1.58468 -0.41077,2.47702 -0.12393,3.87724 0.32777,1.60013 0.28177,2.01009 -0.38269,3.40963 -0.4154,0.87494 -0.9071,1.59081 -1.09262,1.59081 -0.18553,0 -0.5007,-0.93996 -0.7003,-2.08879 -0.19964,-1.14884 -0.52173,-2.1344 -0.71575,-2.19014 -0.19403,-0.0557 -0.67303,0.40796 -1.06447,1.03045 -0.53485,0.85059 -1.12216,1.23351 -2.36365,1.5411 -2.75343,0.68217 -2.85955,0.904 -1.63664,3.42113 0.60342,1.24202 1.02647,1.63724 2.09536,1.95749 1.16028,0.34763 1.49486,0.30664 2.50338,-0.30669 0.97984,-0.59588 1.53504,-0.67347 3.50717,-0.49018 1.76163,0.16372 2.61634,0.0814 3.44453,-0.33174 0.97797,-0.48788 1.1607,-0.4903 1.62944,-0.0216 0.68185,0.68187 0.68111,2.2048 0,2.46664 -0.32995,0.12661 -0.52917,0.66476 -0.52917,1.42944 0,1.44133 -0.63828,1.43895 -1.34217,-0.005 -0.50621,-1.03841 -1.36786,-1.33687 -0.94326,-0.32673 0.58056,1.38118 0.57848,2.30678 -0.008,3.84415 -0.6755,1.76876 -0.55425,2.01175 1.23575,2.47648 1.58206,0.41074 7.18989,3.22018 8.99537,4.50655 2.01327,1.43441 3.9684,1.97026 4.43488,1.21549 0.24528,-0.39688 0.38516,-0.36962 0.76433,0.14893 0.44573,0.60958 0.63824,0.60493 4.86462,-0.11741 2.42027,-0.41366 4.7382,-0.96874 5.15095,-1.23352 1.12977,-0.72477 1.31512,-2.05464 0.49868,-3.57791 -0.3854,-0.7191 -0.62032,-1.63536 -0.522,-2.03615 0.12291,-0.5012 -0.26554,-1.26383 -1.24435,-2.4428 -1.86271,-2.24369 -1.97898,-4.15455 -0.36471,-5.99311 0.58209,-0.66295 1.05834,-1.28303 1.05834,-1.37794 0,-0.0949 -0.82039,-0.28139 -1.82309,-0.4144 -2.48493,-0.32964 -3.65058,-0.87446 -6.02788,-2.81742 -2.46507,-2.0147 -3.40674,-3.56402 -2.63514,-4.33562 0.44947,-0.44948 0.73755,-0.39634 2.31066,0.4262 1.84242,0.96339 2.7002,0.92035 2.37702,-0.11927 -0.21492,-0.69131 0.0664,-1.14793 1.03593,-1.68158 0.42111,-0.23178 0.74997,-0.8344 0.81576,-1.49472 0.0623,-0.62579 0.42873,-1.32946 0.84349,-1.61998 0.69476,-0.48663 0.7045,-0.57494 0.18528,-1.68028 -1.17655,-2.50478 -0.84522,-3.85823 1.10187,-4.50082 1.73835,-0.57371 3.60454,-0.037 4.62897,1.33122 1.29688,1.73217 1.4411,1.82655 2.79079,1.82655 1.97644,0 2.48391,-0.74986 2.40598,-3.555 -0.0812,-2.9212 0.54437,-4.01708 2.46863,-4.32478 2.23192,-0.35691 4.37166,0.60463 4.97502,2.23562 0.28194,0.76217 0.48595,0.82551 2.40644,0.74713 1.81828,-0.0742 2.22606,0.0327 3.0554,0.80135 1.44939,1.34325 1.3401,3.23326 -0.27763,4.80123 -0.6791,0.65821 -1.23472,1.32398 -1.23472,1.4795 0,0.15551 0.55562,0.87182 1.23472,1.59179 2.10305,2.22964 1.50661,4.228 -1.6564,5.54958 -1.69683,0.70898 -1.92934,1.16254 -1.02697,2.00322 0.89306,0.83201 0.9634,2.30609 0.15279,3.20181 -0.55834,0.61694 -0.52275,0.71417 0.65694,1.79472 1.63216,1.495 1.50428,2.84179 -0.44076,4.6414 -1.57515,1.4574 -2.3416,1.56138 -3.50686,0.47575 -0.76944,-0.71685 -0.81686,-0.72416 -0.5715,-0.0882 0.14718,0.38141 0.5044,1.71212 0.79386,2.95712 0.63038,2.71124 1.27194,4.03362 2.30963,4.76045 0.56596,0.3964 0.89482,0.43838 1.23335,0.15744 0.49311,-0.40924 0.41854,-1.0021 -0.51611,-4.10322 -0.51061,-1.69408 -0.511,-1.91035 -0.005,-2.4168 0.50271,-0.50273 0.67035,-0.50405 1.74279,-0.0136 2.04837,0.93662 6.84876,1.09812 11.62654,0.39114 4.36657,-0.64613 5.36557,-1.15992 4.08125,-2.09903 -0.39183,-0.2865 -0.58727,-0.94287 -0.58883,-1.97746 0,-0.95158 -0.27255,-1.95662 -0.70322,-2.60694 -0.85454,-1.29032 -0.95977,-4.65871 -0.19195,-6.14356 0.55915,-1.08127 2.10443,-1.95259 4.12641,-2.32672 1.54291,-0.28548 3.25219,0.42373 4.72419,1.96017 1.40243,1.46382 3.35188,1.44687 5.38296,-0.0468 0.81432,-0.59887 1.48061,-1.20811 1.48061,-1.35387 0,-0.14575 0.86314,-0.68765 1.91809,-1.2042 2.55354,-1.25035 4.20504,-1.2192 6.31535,0.11915 1.77398,1.12501 2.80148,1.27192 4.87257,0.69666 0.95836,-0.2662 1.40974,-0.65056 1.76389,-1.50209 0.81008,-1.94777 2.90964,-5.12473 3.65093,-5.52442 0.38806,-0.20923 1.18181,-0.68463 1.76389,-1.05645 1.53162,-0.97835 4.1667,-0.91283 7.28634,0.18119 3.80023,1.33269 4.7461,1.51757 6.14716,1.20158 0.69448,-0.15663 1.3015,-0.33834 1.34898,-0.40382 0.0475,-0.0655 0.46377,-0.67467 0.92513,-1.35376 1.44021,-2.11984 3.611,-4.58612 4.03666,-4.58612 0.22408,0 0.73628,-0.30637 1.1382,-0.68084 0.8339,-0.77687 2.52621,-1.26667 5.57586,-1.6138 2.01221,-0.22905 2.21365,-0.34376 4.08143,-2.32454 1.07926,-1.14598 2.13385,-2.0836 2.34216,-2.0836 0.76888,0 0.77696,1.12944 0.0159,2.22412 -2.14306,3.08245 -3.16219,3.70895 -6.53898,4.01977 -3.77346,0.34732 -6.8107,2.27195 -9.21343,5.83829 -1.98081,2.94008 -4.06608,3.39504 -8.32732,1.81679 -1.35819,-0.50304 -3.34257,-1.04278 -4.40972,-1.19943 -1.68085,-0.24672 -2.1832,-0.17024 -3.75712,0.57209 -1.9963,0.94152 -2.94058,2.01457 -4.7027,5.34387 -1.31975,2.4935 -1.76894,2.73092 -5.14971,2.72171 -1.81656,-0.005 -2.31941,-0.15322 -3.29026,-0.97014 -1.88584,-1.58681 -4.26561,-1.11007 -7.37471,1.47736 -2.41166,2.00699 -3.93453,2.85001 -5.1484,2.85001 -0.70595,0 -1.02235,0.3151 -1.57812,1.57153 -0.75932,1.71655 -1.96635,2.44455 -4.72133,2.84764 -1.92352,0.28143 -2.25273,0.61509 -1.81624,1.84082 0.37514,1.05337 0.88233,1.13156 3.93816,0.60706 1.11986,-0.1922 2.01553,-0.0759 3.52778,0.45806 3.43898,1.21431 9.76531,1.52101 24.4282,1.18427 8.6673,-0.19905 8.46667,-0.21674 8.46667,0.74654 0,0.44981 -0.3175,1.08968 -0.70556,1.42195 -0.38805,0.33226 -0.70555,0.75088 -0.70555,0.93026 0,0.18955 2.47484,0.29611 5.90903,0.25444 6.89885,-0.0837 7.37475,-0.24282 7.34169,-2.45462 -0.0201,-1.34538 -0.10033,-1.45778 -1.20075,-1.68278 -0.64858,-0.1326 -1.35502,-0.41689 -1.56986,-0.63174 -0.21488,-0.21486 -0.9816,-0.39065 -1.70388,-0.39065 -1.14081,0 -1.5228,-0.23962 -2.91014,-1.82556 -0.87831,-1.00405 -2.51781,-2.32347 -3.64331,-2.93204 -1.88207,-1.01764 -2.04639,-1.20389 -2.04639,-2.31958 0,-1.1385 0.0783,-1.21965 1.2731,-1.31962 0.88092,-0.0737 1.40138,-0.34541 1.68946,-0.88194 0.58349,-1.08674 4.03588,-3.42126 5.05957,-3.42126 0.46789,0 1.2332,0.40713 1.70067,0.90473 0.89281,0.95034 2.04467,1.55789 4.38831,2.3146 1.95206,0.63026 2.34851,0.99239 2.23816,2.04439 -0.19064,1.81719 0.78761,2.37125 1.43351,0.81192 0.50038,-1.20801 1.30355,-1.72888 3.38537,-2.19542 1.4315,-0.3208 1.8253,-0.25991 3.52767,0.54543 1.36101,0.64387 2.2262,1.36578 2.98591,2.49147 1.11869,1.65755 1.30863,2.2551 0.71688,2.2551 -0.56938,0 -0.40425,0.96309 0.20525,1.19698 0.30691,0.11777 1.09657,0.21413 1.75482,0.21413 0.97299,0 1.29917,0.19793 1.7441,1.05834 0.64441,1.24619 0.90769,1.29884 1.76388,0.35277 0.35119,-0.38805 0.78035,-0.70555 0.95367,-0.70555 0.17332,0 0.97229,-0.3175 1.77546,-0.70556 0.8032,-0.38805 2.03376,-0.70555 2.73463,-0.70555 0.70086,0 1.42511,-0.13776 1.60944,-0.30613 0.18433,-0.16837 0.85026,-0.40236 1.47987,-0.51998 0.94004,-0.17563 1.35911,-0.0256 2.34392,0.8391 0.65959,0.57912 1.29784,1.44569 1.41831,1.92572 0.20098,0.80067 1.72166,1.60443 2.17597,1.15011 0.094,-0.094 0.27114,-1.01713 0.39363,-2.05139 0.12742,-1.07593 0.57556,-2.40038 1.0474,-3.09568 0.45356,-0.66837 0.82465,-1.40487 0.82465,-1.63666 0,-0.2318 0.635,-1.32795 1.41111,-2.43588 0.77611,-1.10794 1.41111,-2.14153 1.41111,-2.29687 0,-0.5648 1.26005,-1.39391 2.29306,-1.5088 1.01317,-0.11269 1.0687,-0.208 1.30122,-2.23438 0.41857,-3.64768 0.97218,-7.01855 1.31388,-7.99989 0.47491,-1.36391 2.78088,-4.8765 3.20136,-4.8765 0.58275,0 0.40781,0.87091 -0.33511,1.66835 -0.59909,0.64303 -2.12996,4.31608 -2.12996,5.1104 0,0.57959 0.70636,0.24663 0.72248,-0.34055 0.0212,-0.76839 0.82755,-2.26463 2.54071,-4.71385 1.42635,-2.03921 1.67823,-2.89688 0.74563,-2.539 -1.16935,0.44871 -0.26208,-0.69075 1.15235,-1.44727 0.78539,-0.42009 2.04886,-1.24297 2.80769,-1.82863 1.8361,-1.41704 6.23436,-3.67056 7.16396,-3.67056 1.07495,0 0.91144,0.65381 -0.22796,0.91165 -1.64666,0.37262 -2.91042,1.00414 -2.91042,1.45438 0,0.23645 -0.99219,1.10178 -2.20486,1.92296 -2.37709,1.60969 -2.35197,1.58756 -4.05695,3.57279 -1.34122,1.56169 -1.49447,2.22705 -0.375,1.62791 0.93931,-0.50269 1.56016,-0.99356 2.34012,-1.85019 0.92978,-1.02119 1.9323,-1.28069 2.41219,-0.62439 0.37038,0.5065 0.72947,0.40655 3.35449,-0.93369 1.61685,-0.82551 3.17786,-1.50471 3.4689,-1.50933 0.50179,-0.008 1.76389,-0.78547 1.76389,-1.08661 0,-0.0775 -0.43656,-0.13937 -0.97014,-0.1375 -1.32648,0.005 -1.57067,-0.6739 -0.29485,-0.81936 0.6652,-0.0758 1.13834,0.0798 1.34045,0.44097 0.1718,0.30701 0.74104,0.56324 1.26499,0.56941 0.9138,0.0108 0.9247,0.0323 0.26783,0.52917 -0.59715,0.45164 -0.60844,0.51794 -0.0882,0.51794 0.32812,0 0.59337,0.11907 0.58942,0.26459 -0.009,0.33317 -3.30817,1.85208 -4.02279,1.85208 -0.29224,0 -0.7014,0.31776 -0.90925,0.70614 -0.20786,0.38837 -0.89966,0.92414 -1.53737,1.19059 -0.63772,0.26645 -1.70353,0.95154 -2.36852,1.52242 -0.66498,0.57087 -2.19011,1.71715 -3.38913,2.54728 -1.19902,0.83013 -2.26561,1.73229 -2.37018,2.00478 -0.26373,0.68725 0.22755,0.6191 1.04814,-0.14539 1.69256,-1.57686 8.17178,-5.32942 9.23474,-5.34847 0.24253,-0.004 0.44097,-0.16054 0.44097,-0.34708 0,-0.43311 2.71865,-1.17759 3.20424,-0.87747 0.43988,0.27185 -0.66011,1.18894 -1.44582,1.20543 -0.29404,0.006 -1.24654,0.40257 -2.11667,0.88089 -0.87012,0.47832 -2.57422,1.37854 -3.78689,2.00049 -1.21267,0.62195 -2.20486,1.27946 -2.20486,1.46113 0,0.18167 0.27781,0.21353 0.61736,0.0708 0.33955,-0.14273 0.97688,-0.33742 1.41633,-0.43265 0.43942,-0.0952 0.88537,-0.31294 0.99096,-0.4838 0.31047,-0.50237 1.56146,-0.3555 1.56146,0.18333 0,0.30398 -0.7087,0.66399 -1.84252,0.93599 -2.57542,0.61784 -4.75439,1.79187 -9.14947,4.9298 -1.23045,0.8785 -2.67374,1.81814 -3.20732,2.08809 -1.14793,0.58076 -1.33332,2.20777 -0.37249,3.26946 0.5358,0.59207 0.55407,0.96174 0.17639,3.57386 -0.23171,1.60242 -0.42126,3.7193 -0.42126,4.70418 0,0.98488 -0.23671,2.35721 -0.52602,3.04962 -0.28932,0.69242 -0.38968,1.34318 -0.2231,1.44615 0.16662,0.10297 3.01258,0.21071 6.32442,0.23944 l 6.0215,0.0522 1.26132,-1.0397 c 1.28464,-1.05891 3.49754,-3.86925 7.60299,-9.65561 1.26119,-1.77755 2.85348,-3.88848 3.53844,-4.69095 0.68495,-0.80248 1.87434,-2.25279 2.64315,-3.22293 1.71122,-2.15946 2.6344,-2.97151 3.39556,-2.98688 0.34766,-0.007 1.44638,1.2882 2.73402,3.22299 2.23273,3.35493 2.36711,3.6467 1.83177,3.97755 -0.60837,0.376 -1.38374,-0.21386 -3.02179,-2.29883 -0.90364,-1.15017 -1.91022,-2.08713 -2.23693,-2.08212 -0.32667,0.005 -1.14956,0.83616 -1.82866,1.84703 -0.6791,1.01086 -1.72999,2.39583 -2.33532,3.07771 -0.60533,0.68187 -2.62064,3.30352 -4.47844,5.82588 -4.70288,6.3851 -7.2088,9.33063 -8.30227,9.75871 -0.58932,0.23071 -2.37102,0.2753 -4.81591,0.12054 -2.13431,-0.1351 -5.21205,-0.30368 -6.83941,-0.37462 -4.28223,-0.18667 -5.35136,0.63786 -3.1877,2.45846 0.81484,0.68564 1.48004,0.9133 2.66862,0.9133 0.8708,0 2.32706,0.29577 3.23614,0.65727 0.9091,0.3615 2.6054,1.00656 3.76957,1.43346 2.77886,1.01902 5.84433,2.46895 6.60731,3.12519 0.45692,0.39298 1.47553,0.51602 4.05695,0.49004 1.89576,-0.0191 5.74872,0.12705 8.56213,0.32473 4.76415,0.33475 5.29688,0.30822 7.76111,-0.38658 1.45521,-0.4103 3.27459,-0.90389 4.04304,-1.09687 0.76849,-0.19297 1.56401,-0.48927 1.76788,-0.65845 0.20383,-0.16917 1.4007,-0.69264 2.6597,-1.16324 1.25902,-0.47061 2.33344,-1.08145 2.38767,-1.35742 0.0542,-0.27597 -0.73953,-1.12863 -1.76389,-1.8948 -1.02436,-0.76617 -2.442,-1.87391 -3.15034,-2.46166 -0.70831,-0.58774 -2.20585,-1.54487 -3.32783,-2.12695 -2.35941,-1.22407 -4.51633,-3.11914 -4.29747,-3.77577 0.0831,-0.24915 1.32874,-0.88926 2.76822,-1.42245 3.10236,-1.14916 6.95162,-1.35306 7.88691,-0.41778 0.77932,0.77933 0.38033,1.20405 -1.1454,1.21925 -1.48452,0.0148 -5.96815,0.83132 -6.28064,1.1438 -0.32396,0.32397 0.14097,0.8702 1.1932,1.40182 1.57854,0.79755 2.62766,1.43888 4.18232,2.55669 0.80959,0.58208 1.91304,1.37583 2.45216,1.76389 0.53911,0.38805 1.60207,1.22149 2.36209,1.85208 1.66003,1.37726 2.06361,1.40076 4.62266,0.26903 1.78149,-0.78787 1.98416,-0.98681 1.98416,-1.9477 0,-1.19389 -1.7001,-4.97804 -3.32704,-7.40536 -0.58519,-0.87312 -2.89384,-4.00776 -5.13028,-6.96584 -2.23647,-2.95809 -4.4258,-6.05372 -4.86522,-6.87917 -0.43942,-0.82545 -1.1538,-1.77986 -1.5875,-2.1209 l -0.78857,-0.62009 1.11326,-1.0209 c 2.46923,-2.26442 11.05757,-3.30916 11.05757,-1.34511 0,0.42965 -0.56896,0.61591 -4.93888,1.61681 -2.01454,0.46142 -3.52778,1.40172 -3.52778,2.19211 0,0.39259 1.87762,3.12695 4.17248,6.07636 2.29485,2.94941 4.47766,5.86325 4.85069,6.47521 0.37303,0.61195 1.28062,2.10099 2.0169,3.30897 1.49663,2.45551 2.9391,5.80528 3.27819,7.61273 0.1233,0.65715 0.40704,1.19482 0.63056,1.19482 0.22355,0 1.23147,-0.55562 2.23989,-1.23472 1.00841,-0.6791 1.9588,-1.23799 2.11194,-1.24198 0.15317,-0.004 1.06253,-0.69312 2.02074,-1.53139 l 1.74223,-1.52414 -0.44827,-2.50833 c -0.41117,-2.30064 -0.60399,-2.6704 -2.32911,-4.46583 -1.03449,-1.07662 -2.1378,-1.9575 -2.45181,-1.9575 -1.51606,0 -2.98926,-1.03444 -3.7023,-2.5997 -0.39962,-0.87721 -0.72658,-1.85644 -0.72658,-2.17608 0,-0.74047 3.6981,-4.47047 5.18594,-5.23069 1.51,-0.77152 3.37605,-0.74051 4.10799,0.0683 0.81855,0.90448 0.74521,1.8243 -0.14548,1.8243 -0.59281,0 -0.68404,0.14856 -0.48743,0.79375 0.13303,0.43657 0.48214,1.0675 0.77582,1.40208 0.47886,0.54558 0.46729,0.70929 -0.11236,1.5875 -0.35545,0.53854 -1.01624,1.67141 -1.4684,2.51749 -0.88889,1.66319 -0.92558,1.51955 0.93349,3.65606 0.70954,0.81546 1.13453,0.97923 2.54102,0.97923 2.22352,0 3.32899,0.51402 5.27272,2.4517 4.26399,4.25071 5.73289,4.93254 10.65985,4.94801 2.00907,0.006 2.79499,-0.12135 2.93113,-0.47614 0.19904,-0.51875 2.49738,-1.88528 2.71861,-1.61643 0.0728,0.0885 0.0603,1.79668 -0.0279,3.79595 -0.15265,3.46191 -0.19593,3.62992 -0.90907,3.52778 -0.60495,-0.0866 -0.79594,-0.43849 -0.9942,-1.83116 -0.13497,-0.94814 -0.37451,-1.84398 -0.53231,-1.99075 -0.15783,-0.14677 -2.11257,-0.33787 -4.34389,-0.42465 -2.66309,-0.10358 -4.52057,-0.35657 -5.40636,-0.73635 l -1.34944,-0.57855 0.25615,1.1396 c 0.14086,0.62678 0.24381,1.37773 0.22874,1.66877 -0.0905,1.75004 0.40661,2.48263 3.03393,4.47094 3.27977,2.48207 4.06004,2.9374 5.03364,2.9374 0.70386,0 0.74052,0.14814 0.62216,2.51525 -0.0987,1.97322 -0.0116,2.5724 0.4034,2.78046 0.29104,0.14586 1.28323,0.61264 2.20486,1.03727 1.63414,0.75292 1.6757,0.81118 1.6757,2.34957 0,1.05893 0.21904,1.81262 0.66636,2.29274 0.67123,0.7205 1.09753,2.16114 1.09753,3.70908 0,0.46082 0.11906,0.83909 0.26458,0.8406 0.31683,0.003 1.14653,1.71162 1.14653,2.36063 0,0.78006 -0.91384,0.50605 -1.41111,-0.4231 -0.25961,-0.48507 -0.60392,-0.88195 -0.76518,-0.88195 -0.16122,0 -0.29316,-0.56072 -0.29316,-1.24605 0,-1.44055 -0.84966,-3.69284 -1.39312,-3.69284 -0.20891,0 -0.37077,-0.7574 -0.37077,-1.73511 0,-1.58951 -0.0997,-1.79675 -1.18815,-2.46945 -0.65352,-0.40388 -1.44166,-0.73433 -1.75151,-0.73433 -0.65772,0 -1.29367,1.04119 -1.29367,2.11801 0,0.5794 -0.18323,0.72727 -0.79375,0.64056 -0.73893,-0.10495 -0.79012,-0.2754 -0.74094,-2.46859 l 0.0528,-2.35586 -2.69864,-1.07155 c -2.68425,-1.06584 -2.74334,-1.07241 -11.0744,-1.23084 -4.99086,-0.0949 -8.45799,-0.0262 -8.57924,0.16998 -0.11194,0.1811 0.68061,1.30622 1.76117,2.50029 1.08056,1.19406 1.96222,2.3424 1.95926,2.55187 -0.0155,1.10572 -0.54762,1.2237 -4.41318,0.97886 -5.84669,-0.37032 -20.187,-0.21817 -22.35249,0.23716 -2.81503,0.59191 -10.76177,0.50868 -13.24737,-0.13875 -1.13669,-0.29607 -2.98165,-0.51085 -4.09992,-0.47729 -1.49958,0.045 -2.42591,-0.1437 -3.52964,-0.71901 -0.82307,-0.429 -2.22617,-1.02385 -3.118,-1.32187 -2.36484,-0.79028 -6.3749,-2.74779 -7.77546,-3.79559 -1.05827,-0.79173 -1.55904,-0.90806 -3.88056,-0.90142 -2.5962,0.007 -8.66334,0.75736 -9.02102,1.11506 -0.0982,0.0982 -0.33937,1.67175 -0.53584,3.4967 -0.19646,1.82497 -0.49318,4.19124 -0.65934,5.25839 -0.35189,2.25992 0.041,2.97025 1.84115,3.32906 2.6004,0.51831 9.23262,5.24485 12.41234,8.84586 2.54537,2.88257 2.82445,3.26944 3.17811,4.40564 0.15095,0.48507 0.57083,1.0905 0.93299,1.3454 0.6979,0.4912 2.62382,3.35288 3.77465,5.60872 0.93712,1.83693 1.29561,4.44627 0.7814,5.68769 l -0.41024,0.99042 -4.39304,0.0458 c -4.03733,0.0421 -4.39303,-0.006 -4.39303,-0.59931 0,-1.05975 0.81174,-1.43067 4.0441,-1.84792 1.97453,-0.25489 3.13888,-0.56902 3.2578,-0.87892 0.25149,-0.65541 -1.17913,-4.0916 -2.31832,-5.5683 -0.50965,-0.66064 -1.72039,-2.34988 -2.69053,-3.75385 -3.64105,-5.26928 -10.97068,-11.45978 -15.06371,-12.7226 -0.71794,-0.22151 -1.70628,-0.8212 -2.19626,-1.33264 l -0.8909,-0.92989 0.54028,-4.14652 c 0.29718,-2.28059 0.49173,-4.81594 0.4324,-5.63411 l -0.10792,-1.48758 -1.94028,0.0946 c -1.06715,0.052 -2.8134,0.28681 -3.88055,0.52173 -1.06715,0.23492 -3.84528,0.43047 -6.17361,0.43456 l -4.23334,0.007 0.1264,2.29305 c 0.0695,1.26118 0.34834,2.95215 0.61959,3.75771 0.27125,0.80556 0.39857,1.71125 0.28289,2.01265 -0.32138,0.83757 -3.8311,1.73232 -7.51074,1.91477 -3.03499,0.15048 -3.48457,0.0845 -5.46806,-0.80197 -4.62724,-2.06811 -5.19557,-2.29705 -5.70223,-2.29705 -0.28797,0 -1.19655,-0.29502 -2.01905,-0.65559 -2.75682,-1.20856 -3.46537,-1.46108 -4.09956,-1.46108 -0.34682,0 -2.19125,-0.635 -4.09868,-1.41111 -1.90743,-0.77611 -3.60451,-1.41111 -3.77123,-1.41111 -0.16676,0 -0.45561,0.40094 -0.64191,0.89099 -0.53961,1.41921 -1.34052,1.46365 -3.6201,0.20086 -1.14336,-0.63336 -2.15854,-1.07183 -2.25598,-0.97437 -0.0975,0.0975 0.62992,0.77978 1.61643,1.51627 1.24294,0.92795 1.79362,1.58673 1.79362,2.14572 0,0.51418 0.21089,0.80664 0.58166,0.80664 0.3199,0 1.47084,0.73472 2.55764,1.63272 1.93993,1.60292 8.08316,4.87083 11.28653,6.00387 1.78375,0.63092 7.93196,1.48178 10.94528,1.51473 2.51771,0.0275 6.17785,0.67806 6.9366,1.23286 0.86589,0.63318 0.40449,2.23797 -0.72499,2.52145 -1.05432,0.26462 -1.93884,1.18402 -1.19881,1.2461 0.26627,0.0223 0.76471,0.0119 1.10765,-0.0232 1.19867,-0.12273 6.02632,0.75842 7.18658,1.31171 1.0766,0.5134 1.22258,0.51078 1.82319,-0.0327 0.35905,-0.32496 0.83876,-0.59083 1.06602,-0.59083 0.22726,0 0.41321,-0.15875 0.41321,-0.35277 0,-0.6507 1.38183,-0.36108 1.77408,0.37182 1.36571,2.55184 1.78912,6.74717 0.89274,8.84551 -1.18036,2.76304 -4.61408,4.96581 -7.41412,4.75618 -0.89478,-0.067 -1.72579,-0.22066 -1.84661,-0.34149 -0.12083,-0.12084 -0.32971,-0.94448 -0.46412,-1.83031 -0.19124,-1.25997 -0.11109,-1.78013 0.36809,-2.38931 1.11778,-1.42101 2.75283,-4.39949 2.87017,-5.22838 0.09,-0.63609 -0.15762,-0.95144 -1.11912,-1.42515 -0.98118,-0.48341 -2.23083,-0.6118 -6.0858,-0.62526 l -4.85109,-0.0169 -1.37368,1.41549 c -0.75554,0.77852 -2.02724,2.67168 -2.826,4.20703 -1.65114,3.17364 -4.01242,5.52061 -5.91308,5.87717 -1.25391,0.23524 -3.95609,-0.0127 -6.11424,-0.56101 -0.6791,-0.17253 -2.02847,-0.49699 -2.99861,-0.72102 -2.8769,-0.66435 -3.73468,-1.07167 -6.79496,-3.22658 -1.60291,-1.1287 -3.09181,-2.05219 -3.30863,-2.05219 -0.62929,0 -3.20922,-2.48295 -4.32354,-4.161 -0.56187,-0.84611 -1.47309,-1.87219 -2.02494,-2.28019 -0.55182,-0.40799 -1.08338,-0.99407 -1.18124,-1.3024 -0.1468,-0.46242 -0.63673,-0.53743 -2.79753,-0.42832 -2.57838,0.1302 -2.62784,0.11644 -3.14428,-0.87499 -0.28857,-0.55399 -2.44443,-2.98573 -4.79075,-5.40384 -2.34633,-2.41812 -4.26607,-4.52836 -4.26607,-4.68942 0,-0.16107 -0.69219,-1.0401 -1.53822,-1.95342 -0.84603,-0.91332 -1.72473,-2.01777 -1.9527,-2.45433 -0.22796,-0.43657 -0.53371,-0.79375 -0.67948,-0.79375 -0.22934,0 -2.58837,2.30421 -4.95692,4.84172 -1.25162,1.3409 -2.34184,1.38006 -3.75983,0.13503 -0.68668,-0.60292 -1.3704,-1.09621 -1.51938,-1.09621 -0.53132,0 -3.3165,-3.02163 -3.97863,-4.31637 -1.08345,-2.11855 -1.67139,-2.31642 -6.83846,-2.30139 -2.52236,0.007 -5.605,-0.10686 -6.8503,-0.25376 l -2.26424,-0.26708 0.8127,1.36444 c 0.44697,0.75044 1.36087,2.35574 2.0309,3.56732 1.8796,3.3988 5.77804,6.69206 9.95391,8.40873 1.07883,0.44349 3.1521,1.41514 4.60731,2.15923 1.45521,0.74408 3.36021,1.6429 4.23334,1.99737 3.13785,1.27393 3.83681,1.65777 6.50645,3.57316 1.48975,1.06885 2.79294,1.94335 2.89599,1.94335 0.10305,0 0.60935,0.32362 1.12508,0.71915 1.31466,1.00819 11.62237,7.74752 11.84973,7.74752 0.10277,0 1.0933,0.57987 2.20123,1.28859 1.1079,0.70873 3.29378,1.90678 4.85754,2.66234 1.56372,0.75556 3.71627,2.0067 4.78342,2.78032 1.06715,0.77361 2.28918,1.55285 2.71558,1.73164 1.27148,0.5331 1.95202,1.86013 1.52714,2.97774 -1.0232,2.69118 0.0769,3.82201 3.55836,3.65764 1.8729,-0.0884 2.24829,-0.009 2.35243,0.49954 0.15526,0.75772 -1.13009,1.13313 -3.8081,1.11223 -3.37199,-0.0263 -4.7596,-1.4597 -4.22793,-4.36734 0.15861,-0.86728 0.222,-1.68424 0.1409,-1.81547 -0.39282,-0.63562 -5.84634,-4.05062 -9.4741,-5.93269 -2.23738,-1.16077 -8.61596,-5.13643 -14.17457,-8.83482 -5.55862,-3.69838 -10.39721,-6.87987 -10.75242,-7.06998 -0.59824,-0.32017 -0.6423,-0.16971 -0.59789,2.04273 0.0265,1.3136 -0.0698,2.79295 -0.21382,3.28745 -0.23781,0.81671 -0.0896,0.99235 1.61784,1.91719 1.76714,0.95717 5.19451,3.21496 5.5838,3.67833 0.34964,0.41616 4.10838,3.14781 6.52639,4.74303 1.3582,0.89603 3.5807,2.49901 4.93889,3.56219 1.35819,1.06317 3.58069,2.68394 4.93889,3.60172 3.71232,2.50855 4.19089,3.07155 4.40309,5.17982 0.14594,1.45037 0.34375,1.88915 0.97677,2.16687 1.18639,0.52049 0.96061,0.88649 -0.54681,0.88649 -1.75746,0 -2.18722,-0.49614 -2.18722,-2.52501 0,-1.64464 -0.0398,-1.70521 -1.98169,-3.01625 -1.08994,-0.73585 -2.71713,-1.98961 -3.61597,-2.78613 -0.89885,-0.79651 -2.50741,-2.05557 -3.57456,-2.7979 -1.06715,-0.74233 -2.14993,-1.55896 -2.40619,-1.81473 -0.25626,-0.25577 -1.20876,-0.89625 -2.11667,-1.42328 -0.90791,-0.52703 -3.69228,-2.50171 -6.18747,-4.38818 -2.49516,-1.88647 -5.03516,-3.69092 -5.64445,-4.00987 -0.60924,-0.31896 -1.54481,-0.81394 -2.07906,-1.09994 -0.53421,-0.28601 -1.19616,-0.94766 -1.47101,-1.47034 -0.74856,-1.42366 -4.99823,-5.21767 -7.09129,-6.33095 -0.39282,-0.20893 -2.21845,-0.48696 -4.05695,-0.61785 -1.8385,-0.13088 -4.13649,-0.29477 -5.10663,-0.3642 -0.97014,-0.0694 -3.01541,-0.26326 -4.54508,-0.43075 -1.96187,-0.21482 -4.04037,-0.15435 -7.05556,0.20526 -2.35088,0.28038 -5.22686,0.52805 -6.39103,0.55037 -1.93241,0.0371 -2.12637,-0.0276 -2.22797,-0.74237 -0.0612,-0.43062 -0.65655,-1.90325 -1.32291,-3.27252 -0.6664,-1.36926 -1.21162,-2.57876 -1.21162,-2.68777 0,-0.10901 -0.44249,-1.17637 -0.98326,-2.37192 -0.54081,-1.19555 -1.533,-3.57711 -2.20486,-5.29235 -1.16417,-2.97197 -2.03271,-4.06399 -2.83704,-3.56689 -0.20454,0.12642 -0.26871,0.66992 -0.14538,1.23145 0.24941,1.13558 0.37405,2.44515 0.85926,9.02881 0.18782,2.5482 0.49883,5.32632 0.69113,6.17362 0.19233,0.84728 0.44594,2.14301 0.5636,2.87938 0.14961,0.93624 0.44693,1.42831 0.98873,1.63631 0.42612,0.1636 1.80664,0.76912 3.06782,1.34562 1.26118,0.57651 3.32493,1.41101 4.58611,1.85446 1.26118,0.44345 3.16766,1.37855 4.23662,2.07801 1.06895,0.69946 2.37938,1.4974 2.91207,1.77322 1.93506,1.00191 7.164,5.56313 9.33612,8.14391 1.22372,1.45392 2.7854,3.77164 3.47039,5.15047 1.31258,2.64203 2.70478,6.77599 2.43113,7.21878 -0.0889,0.14392 -1.43164,0.17463 -2.98376,0.0682 l -2.82201,-0.19342 v 0.91994 c 0,1.04046 -0.61257,1.46735 -2.81612,1.96245 -1.93216,0.43413 -3.55113,0.1583 -4.76853,-0.81242 -0.74429,-0.59348 -0.91493,-0.95692 -0.72711,-1.54869 0.33376,-1.05156 0.93426,-0.97149 2.13815,0.28509 1.11894,1.16792 1.48219,1.25193 2.8056,0.64893 1.01149,-0.46085 1.21229,-1.35448 0.30438,-1.35448 -0.32678,0 -1.23959,-0.3092 -2.02847,-0.6871 -3.3056,-1.58354 -11.41998,-3.25926 -17.83846,-3.68386 -1.26118,-0.0834 -3.20587,-0.26756 -4.32153,-0.40917 -1.74949,-0.22206 -2.02847,-0.1779 -2.02847,0.32105 0,0.69944 -0.25812,0.70847 -1.41111,0.0494 -0.48507,-0.27729 -1.28489,-0.50979 -1.77736,-0.51666 -0.62139,-0.009 -1.30285,-0.49989 -2.22645,-1.60482 -0.73205,-0.87578 -2.20582,-2.23856 -3.27502,-3.02842 -2.50056,-1.84727 -8.12338,-7.46938 -9.96907,-9.96782 -1.65824,-2.24467 -2.51485,-2.65235 -3.80157,-1.80926 -2.03203,1.33143 -12.38411,12.16101 -15.16897,15.86865 -0.72869,0.97014 -1.53707,1.98123 -1.79641,2.24686 -0.25934,0.26563 -0.37128,0.58313 -0.24875,0.70556 0.12253,0.12242 3.66228,0.25048 7.86611,0.28459 13.46564,0.10924 17.33999,0.41275 20.62347,1.61565 0.94914,0.34772 0.98185,0.44056 0.88194,2.50449 -0.0966,1.99557 -0.18641,2.19896 -1.30246,2.94936 -2.277,1.53104 -5.68046,0.75822 -5.68046,-1.28985 0,-1.09707 0.5829,-1.15915 1.64462,-0.17517 1.15478,1.07021 2.72429,0.97871 3.71757,-0.21674 0.75399,-0.90747 0.57771,-1.35995 -0.93116,-2.39003 -1.09146,-0.74512 -1.68476,-0.83579 -6.43265,-0.98303 -2.8767,-0.0892 -8.65909,-0.15085 -12.84981,-0.13698 -6.41703,0.0212 -7.6899,-0.0596 -8.06567,-0.51238 -0.24539,-0.29569 -0.59389,-0.44632 -0.77443,-0.33474 -0.45168,0.27915 -1.34954,-0.51954 -1.15811,-1.03019 0.0856,-0.22835 0.0166,-1.52643 -0.15334,-2.88462 -0.19706,-1.57495 -0.18266,-2.62777 0.0398,-2.90653 0.63365,-0.7942 0.97434,-0.079 0.97434,2.04541 0,1.15271 0.0936,2.09584 0.20804,2.09584 0.29707,0 1.53011,-1.5251 1.54411,-1.90987 0.0103,-0.28209 3.72509,-4.72183 4.74827,-5.67485 0.20832,-0.19403 1.1725,-1.30005 2.14264,-2.45781 1.90641,-2.27513 3.31825,-3.6257 6.13296,-5.86681 0.9925,-0.79023 1.80454,-1.64588 1.80454,-1.90143 0,-0.48927 -1.75212,-1.23923 -2.89517,-1.23923 -0.78173,0 -3.65125,-1.52425 -4.71229,-2.50312 -0.40056,-0.36953 -0.85757,-0.67188 -1.01558,-0.67188 -0.55187,0 -3.21008,-2.6254 -5.08139,-5.01867 -2.14125,-2.73848 -3.62479,-3.63561 -7.99141,-4.83258 -1.55222,-0.42549 -3.61597,-0.99587 -4.58611,-1.26751 -0.97014,-0.27164 -2.87514,-0.60321 -4.23333,-0.73683 -1.86145,-0.18314 -2.8264,-0.48649 -3.91926,-1.23214 -2.08505,-1.42259 -6.7643,-3.58153 -7.191,-3.31782 -0.19955,0.12333 -0.81489,-0.22783 -1.36743,-0.78036 -0.564,-0.564 -2.80643,-1.76278 -5.11288,-2.7333 -2.64294,-1.11209 -4.3011,-2.02296 -4.64886,-2.55371 l -0.54057,-0.82501 -36.27584,0.0574 c -19.95171,0.0316 -36.43318,-0.0399 -36.62548,-0.1587 -0.19231,-0.11885 -6.76206,-0.19033 -14.59944,-0.15884 -7.83739,0.0315 -16.71042,-0.007 -19.71785,-0.0847 -12.12612,-0.31476 -26.95551,-0.15061 -28.92778,0.3202 -1.06715,0.25475 -2.57528,0.60349 -3.35139,0.77497 -1.98018,0.43755 -10.69363,1.37869 -11.21258,1.21108 -0.70006,-0.22611 -12.59992,-0.56439 -12.59992,-0.35818 0,0.1041 0.39688,0.81797 0.88195,1.58637 0.48507,0.7684 0.88194,1.6199 0.88194,1.89222 0,1.22193 4.56988,4.23248 8.10785,5.34129 0.48174,0.15098 1.98987,0.78903 3.35139,1.41788 1.36151,0.62885 3.50736,1.56698 4.76854,2.08472 1.26118,0.51775 2.76931,1.16647 3.35139,1.44161 1.13452,0.53625 5.20718,2.22982 7.23194,3.00731 0.6791,0.26077 2.08688,0.91096 3.12841,1.44487 1.6776,0.85996 1.97952,0.91551 2.64584,0.48679 2.0775,-1.33669 4.84089,-0.99724 8.9303,1.09698 1.25254,0.64143 2.78235,1.26202 3.39959,1.37908 0.61724,0.11707 1.42971,0.4392 1.80549,0.71586 0.65284,0.48063 0.65702,0.55801 0.0939,1.73887 -0.32413,0.67972 -0.79471,1.23585 -1.04571,1.23585 -0.25101,0 -0.81841,0.25358 -1.2609,0.56351 -0.76585,0.53642 -0.77386,0.58674 -0.16669,1.04711 0.35081,0.26599 1.01538,0.48866 1.47683,0.49483 1.06084,0.0142 4.44776,1.89621 5.95197,3.30736 0.63059,0.59158 1.14653,1.41673 1.14653,1.83366 0,1.3247 1.07704,1.92575 3.45076,1.92575 1.18827,0 2.60452,-0.18106 3.14722,-0.40235 4.66092,-1.90055 7.16035,-3.14331 7.16035,-3.56025 0,-0.21618 -0.71472,-0.2709 -1.85208,-0.14179 -4.71978,0.53575 -8.62925,0.63582 -10.02893,0.25671 -0.81074,-0.21959 -2.13545,-0.95182 -2.9438,-1.62717 -0.80834,-0.67536 -1.82697,-1.22792 -2.26361,-1.22792 -0.80611,0 -1.96158,-0.9812 -1.96158,-1.66573 0,-0.62334 0.97762,-0.79687 1.42852,-0.25358 0.23197,0.27951 0.71278,0.50819 1.06846,0.50819 0.72427,0 2.55193,1.1611 3.80155,2.41509 0.78091,0.78365 0.99619,0.81654 4.05406,0.61939 1.77614,-0.11451 4.92855,-0.30579 7.00534,-0.42508 l 3.77599,-0.21688 0.24321,0.96903 c 0.1944,0.77453 0.0738,1.09796 -0.60099,1.61138 -0.84689,0.6444 -2.7574,1.62458 -4.71444,2.41875 l -1.04803,0.42529 0.80065,0.60393 c 0.94869,0.7156 0.7701,1.60682 -0.54771,2.73336 -1.01902,0.8711 -2.3826,3.66241 -1.78913,3.66241 0.21461,0 0.0965,0.32449 -0.26237,0.72109 -0.35891,0.39659 -0.97883,0.67437 -1.37759,0.61728 -0.60103,-0.0861 -0.71174,-0.33002 -0.64737,-1.42664 0.0738,-1.25698 -0.31119,-1.7338 -0.7832,-0.97006 -0.11992,0.19403 -0.74485,0.35278 -1.38874,0.35278 -0.64389,0 -1.36615,0.23549 -1.60502,0.52332 -0.3601,0.43389 -0.27551,0.58369 0.49501,0.87665 1.05149,0.39977 1.53616,1.29122 0.9958,1.83158 -0.24736,0.24736 -0.65755,0.1682 -1.29595,-0.2501 -0.8462,-0.55445 -1.8731,-0.85937 -4.9303,-1.46396 -0.85157,-0.1684 -0.98678,-0.10462 -0.79375,0.37448 0.12797,0.31761 0.32903,0.8156 0.4468,1.10664 0.14767,0.36493 -0.004,0.52916 -0.48859,0.52916 -0.89088,0 -1.94946,-1.57577 -1.66361,-2.4764 0.24986,-0.78724 -0.77204,-3.16427 -1.36532,-3.17589 -0.22043,-0.004 -0.79765,-0.31828 -1.28272,-0.69771 -0.48507,-0.37942 -1.24652,-0.69339 -1.6921,-0.69771 -0.52599,-0.005 -1.02096,-0.37829 -1.41112,-1.06395 -0.51743,-0.90933 -0.80701,-1.05641 -2.08366,-1.05833 -0.81548,-10e-4 -1.88696,0.18196 -2.38104,0.40708 -1.20645,0.5497 -3.3617,-0.16492 -5.24639,-1.73953 -0.77678,-0.64898 -1.86828,-1.27116 -2.42555,-1.38261 -0.55728,-0.11146 -1.24566,-0.53449 -1.52974,-0.94007 -0.65153,-0.93018 -0.66631,-2.64677 -0.0291,-3.37488 1.09645,-1.25279 0.9595,-1.92391 -0.59267,-2.90419 -1.77743,-1.12254 -12.3487,-6.29581 -12.86511,-6.29581 -0.19971,0 -1.45089,-0.6622 -2.78042,-1.47156 -5.9823,-3.64178 -13.98095,-7.64942 -15.84985,-7.94139 -0.76126,-0.11893 -2.40725,-0.69516 -3.65775,-1.2805 -2.113,-0.98906 -2.29994,-1.02062 -2.64584,-0.44666 -1.14858,1.90591 -3.50353,4.78469 -4.05799,4.96067 -0.35353,0.11221 -1.33572,0.0274 -2.18265,-0.18848 -3.23181,-0.82374 -3.3781,-0.81857 -4.00719,0.14153 -0.97423,1.48688 -0.57956,1.97252 2.64369,3.25298 1.64924,0.65517 3.27427,1.35409 3.61119,1.55315 0.33692,0.19906 0.92286,0.36193 1.30209,0.36193 0.37924,0 0.77677,0.14116 0.8834,0.3137 0.10664,0.17253 0.56948,0.40796 1.02855,0.52318 0.71028,0.17827 11.26842,4.5554 14.51783,6.01871 0.58208,0.26213 1.97585,0.89061 3.09726,1.39662 1.12141,0.506 2.16837,0.92001 2.32657,0.92001 0.15821,0 0.57498,0.3175 0.92617,0.70556 0.35119,0.38805 0.89173,0.70909 1.2012,0.7134 0.30948,0.004 0.95956,0.31828 1.44463,0.69771 0.48507,0.37943 1.0192,0.69339 1.18695,0.69771 0.47629,0.0122 6.49588,2.90948 17.42429,8.38632 5.51703,2.76489 10.2229,5.02708 10.45747,5.02708 0.23457,0 1.17746,0.47625 2.09531,1.05833 0.91785,0.58209 1.90143,1.05834 2.18573,1.05834 0.28431,0 0.81303,0.29611 1.17494,0.65802 0.5968,0.5968 5.14254,1.53558 6.75031,1.39407 0.29104,-0.0256 2.24579,-0.0215 4.34388,0.009 l 3.81471,0.0556 -0.11054,1.14653 -0.11055,1.14653 -1.96477,-0.1129 c -1.47024,-0.0845 -2.08233,0.0288 -2.43183,0.44987 -0.40173,0.48405 -0.54634,0.49392 -1.03384,0.0705 -0.34052,-0.29574 -1.83423,-0.58372 -3.74178,-0.72142 -2.97935,-0.21506 -5.57989,-0.78125 -7.10084,-1.54601 -0.36315,-0.1826 -2.00965,-0.99823 -3.65888,-1.8125 -4.34183,-2.14369 -9.17498,-4.6961 -10.77904,-5.69246 -2.64969,-1.64585 -3.53646,-2.11419 -9.68207,-5.11354 -3.39549,-1.65717 -7.6184,-3.72089 -9.38425,-4.58605 -1.76585,-0.86517 -3.33238,-1.57303 -3.48119,-1.57303 -0.1488,0 -1.70105,-0.64413 -3.44946,-1.43139 -1.7484,-0.78726 -3.40283,-1.34546 -3.67651,-1.24044 -0.27368,0.10502 -0.76914,0.0416 -1.10101,-0.14085 -0.33188,-0.1825 -2.50842,-1.22887 -4.83675,-2.32529 -2.32833,-1.09641 -5.50333,-2.59541 -7.05556,-3.33109 -2.94002,-1.39345 -9.56241,-4.23094 -9.87452,-4.23094 -0.0988,0 -0.17964,0.14676 -0.17964,0.32613 0,0.17937 1.70656,1.17895 3.79236,2.22128 4.78777,2.39258 14.26175,7.34889 14.72847,7.70519 0.19403,0.14813 1.42434,0.83876 2.73403,1.53475 1.30969,0.69598 3.45281,1.84506 4.7625,2.5535 1.30969,0.70844 2.97656,1.58527 3.70417,1.94851 1.33468,0.66632 1.69397,1.27292 0.88194,1.48903 -1.93225,0.51426 -6.05059,1.78566 -7.49653,2.3143 -0.97014,0.35469 -2.71639,0.84897 -3.88055,1.09842 -1.77257,0.3798 -6.43965,2.18954 -8.8861,3.44573 -0.65866,0.33821 -1.04403,0.49963 -4.34307,1.81921 -2.27022,0.90806 -8.81944,4.90055 -8.81944,5.37644 0,0.17949 0.47898,0.22115 1.06441,0.0926 0.93925,-0.20629 7.65061,0.29733 9.7835,0.73416 0.48453,0.0992 0.79375,0.42132 0.79375,0.82676 0,0.54614 -0.3607,0.70606 -2.02927,0.89972 -1.28296,0.1489 -2.41821,0.0819 -3.08681,-0.1821 -0.58164,-0.2297 -3.12128,-0.51853 -5.64364,-0.64186 -4.31188,-0.21082 -4.59246,-0.26869 -4.69226,-0.96775 -0.0798,-0.55902 0.1828,-0.85747 1.05833,-1.20278 0.64047,-0.2526 1.56136,-0.80926 2.04643,-1.23701 1.01157,-0.89203 5.16376,-3.34308 5.66335,-3.34308 0.18363,0 0.33387,-0.14187 0.33387,-0.31526 0,-0.1734 0.998,-0.71479 2.21777,-1.2031 1.21978,-0.48831 3.43494,-1.45769 4.92258,-2.15418 1.48764,-0.69649 2.79325,-1.26635 2.90135,-1.26635 0.1081,0 0.8695,-0.29849 1.69201,-0.66331 0.8225,-0.36482 2.76546,-1.0116 4.31768,-1.43728 1.55222,-0.42569 3.06035,-0.86844 3.35139,-0.98389 0.29104,-0.11546 1.48167,-0.54024 2.64583,-0.94397 1.16417,-0.40373 2.11667,-0.89249 2.11667,-1.08614 0,-0.37418 -0.70798,-0.76294 -5.46806,-3.00257 -1.64923,-0.77597 -3.87173,-1.89832 -4.93888,-2.49409 -2.60613,-1.45497 -12.99565,-6.67849 -15.96882,-8.02861 l -2.38686,-1.08388 -0.92907,1.4834 c -0.51098,0.81587 -1.02439,1.56277 -1.14091,1.65979 -0.11651,0.097 -0.82797,1.09135 -1.58102,2.20965 -2.14913,3.19151 -7.54927,8.28113 -10.94323,10.31396 -0.50671,0.3035 -0.60251,1.19053 -0.68577,6.35 -0.0878,5.44022 -0.1795,6.21019 -0.98743,8.29027 -0.78642,2.0247 -1.13489,2.46146 -2.97752,3.73197 -2.06968,1.42706 -2.08687,1.45322 -2.08687,3.175 v 1.73609 l -1.39559,0.11382 c -2.09068,0.17052 -3.70005,-0.2385 -4.64105,-1.1795 -1.0277,-1.0277 -1.07622,-2.24625 -0.13698,-3.4403 0.89886,-1.14272 0.89086,-1.42121 -0.0324,-1.12817 -0.5788,0.1837 -0.71196,0.10021 -0.61736,-0.38711 0.20243,-1.04274 2.18688,-1.87467 4.74196,-1.98793 2.12054,-0.094 2.43743,-0.20618 3.10351,-1.09859 0.63808,-0.8549 0.76649,-1.63697 0.91821,-5.59253 0.097,-2.52926 0.0751,-4.76141 -0.0488,-4.96034 -0.50259,-0.80741 -0.91683,0.20159 -1.10518,2.69198 -0.20203,2.67131 -1.17045,4.97702 -2.65449,6.32006 -0.9929,0.89856 -3.10117,1.65278 -4.62,1.65278 -2.21432,0 -5.0542,0.75016 -6.30005,1.66419 -0.94319,0.69197 -1.14653,1.07781 -1.14653,2.17552 0,0.7339 -0.10446,1.43882 -0.23212,1.56649 -0.43315,0.43313 -1.179,-0.54885 -1.179,-1.55224 0,-3.06393 2.21533,-4.48609 8.26364,-5.30493 3.41958,-0.46295 3.95093,-0.74303 5.54634,-2.92349 0.84086,-1.14921 1.00669,-1.72258 1.00669,-3.48073 0,-2.02055 -0.0318,-2.09502 -0.79375,-1.85887 -0.43656,0.13531 -1.19063,0.33016 -1.6757,0.43301 -0.48507,0.10284 -2.31069,0.71012 -4.05694,1.34951 -1.74625,0.63938 -4.28625,1.4225 -5.64444,1.74027 -4.89698,1.14571 -5.67898,1.35099 -7.9375,2.08373 -1.26119,0.40916 -2.42001,0.94512 -2.57517,1.19101 -0.15517,0.2459 -0.50783,0.44708 -0.7837,0.44708 -1.02017,0 -4.42205,1.75366 -5.71441,2.94576 -0.73352,0.67662 -1.75874,1.5631 -2.27827,1.96996 -0.51953,0.40687 -1.12715,1.2929 -1.35027,1.96897 -0.22313,0.67606 -0.57302,1.2292 -0.77755,1.2292 -0.48744,0 -0.10567,2.93878 0.40383,3.10862 0.20654,0.0688 0.37554,0.27737 0.37554,0.46339 0,0.18601 0.51593,1.03432 1.14652,1.88512 0.93917,1.26715 1.59316,1.7114 3.61598,2.45632 1.35819,0.50017 2.96599,0.90863 3.57289,0.9077 0.60689,-10e-4 1.67335,0.23642 2.36992,0.52746 0.69655,0.29104 1.81782,0.52917 2.4917,0.52917 0.67388,0 1.30208,0.12434 1.39601,0.27631 0.0939,0.15197 3.00048,0.2445 6.45901,0.20562 6.05518,-0.0681 9.85784,-0.38257 13.78011,-1.13967 1.01608,-0.19613 8.00108,-0.38538 15.52222,-0.42054 7.52114,-0.0352 14.7696,-0.20654 16.1077,-0.38083 3.46626,-0.45148 24.65702,-0.44413 27.21013,0.009 1.15884,0.20587 3.77385,0.59369 5.81114,0.86182 2.03729,0.26813 4.9975,0.88373 6.57824,1.36799 2.74583,0.84119 3.17868,0.87316 9.70138,0.71647 6.55621,-0.1575 8.9401,-0.005 20.15063,1.2862 1.50698,0.17362 2.93573,0.47282 3.175,0.6649 0.47684,0.3828 1.87757,0.64773 5.90308,1.11649 3.06391,0.35678 3.82038,0.59713 4.68805,1.4895 0.34711,0.357 0.92298,0.64908 1.27972,0.64908 1.78483,0 1.77663,3.07348 -0.0142,5.34243 -0.55805,0.70702 -1.01463,1.4244 -1.01463,1.59417 0,0.5076 4.9216,2.16796 7.76111,2.61831 3.28024,0.52025 10.52948,0.20673 12.66828,-0.54789 0.84235,-0.29718 2.14658,-0.54034 2.8983,-0.54034 0.75172,0 1.36676,-0.13077 1.36676,-0.29061 0,-0.34401 11.23653,-0.27105 14.2875,0.0928 1.16416,0.13882 2.43416,0.38602 2.82222,0.54932 0.38805,0.1633 1.22399,0.38568 1.85763,0.49418 0.63364,0.1085 1.98302,0.58192 2.99861,1.05204 1.0156,0.47013 2.24341,0.96795 2.72848,1.10627 0.48507,0.13832 1.35819,0.5393 1.94028,0.89108 2.42654,1.46643 5.39623,2.0909 13.53533,2.84619 3.80566,0.35316 4.92914,0.35074 5.82083,-0.0126 0.60772,-0.2476 1.46214,-0.53197 1.8987,-0.63194 0.43656,-0.1 0.79375,-0.3048 0.79375,-0.45517 0,-0.15038 0.39229,-0.37187 0.87176,-0.49221 1.95082,-0.48962 1.87546,-2.98049 -0.17583,-5.81222 -1.41389,-1.95182 -2.887,-2.79838 -5.35538,-3.07765 -1.1173,-0.12641 -2.20618,-0.44036 -2.41972,-0.69766 -0.54878,-0.66123 -3.48619,-1.43201 -7.28251,-1.91094 -2.40398,-0.30327 -4.6064,-0.31149 -8.46667,-0.0316 -9.92711,0.71978 -14.90291,0.56618 -22.67998,-0.70011 -2.12789,-0.34647 -5.14426,-1.35447 -8.11389,-2.71146 -0.6791,-0.31031 -1.41199,-0.53378 -1.62864,-0.49658 -0.73036,0.12539 -1.3083,-1.02418 -1.25094,-2.48819 0.0652,-1.66324 0.86244,-2.74517 2.02288,-2.74517 0.45841,0 1.10809,-0.41273 1.52707,-0.97014 0.68332,-0.90907 0.74181,-0.92573 0.92916,-0.26458 0.19424,0.68542 0.46882,0.7034 9.61896,0.62995 5.18045,-0.0416 10.84776,-0.23877 12.59401,-0.43821 1.74625,-0.19943 6.0325,-0.44146 9.525,-0.53784 5.1583,-0.14236 6.73162,-0.3095 8.38352,-0.89065 2.96388,-1.0427 5.79002,-1.21457 7.30684,-0.44436 1.82156,0.92495 2.083,2.07744 0.99402,4.38188 l -0.89091,1.88534 2.96452,0.42841 c 3.30246,0.47723 3.6434,0.608 3.6434,1.39743 0,0.41578 -0.23605,0.49774 -0.97014,0.33687 -0.53358,-0.11694 -2.00202,-0.30434 -3.2632,-0.41646 -3.74767,-0.33318 -3.88055,-0.38796 -3.88055,-1.59977 0,-1.09845 0.54396,-2.44142 1.14889,-2.83646 0.57028,-0.37241 -0.10046,-1.74097 -1.02566,-2.09272 -1.18425,-0.45026 -3.40192,-0.41937 -4.60455,0.0641 -0.54271,0.21818 -1.30424,0.52742 -1.69229,0.68719 -1.55923,0.64196 -4.85812,0.96218 -10.08905,0.97935 -3.02662,0.01 -6.83246,0.18476 -8.45742,0.38852 -1.62496,0.20375 -4.68647,0.37046 -6.80335,0.37046 -2.11688,0 -4.47509,0.18761 -5.24046,0.41692 -1.0121,0.30324 -1.45738,0.31046 -1.63289,0.0265 -0.27988,-0.45287 -2.24929,-0.61333 -6.22961,-0.50757 -3.16466,0.0841 -3.50352,0.2166 -3.81501,1.49194 -0.18798,0.76969 -0.008,1.03539 1.25102,1.85209 0.80877,0.52441 1.69348,0.95348 1.96601,0.95348 0.27253,0 1.23294,0.36749 2.13424,0.81665 3.49837,1.74337 6.1296,1.89036 29.86096,1.66812 4.985,-0.0467 10.52015,0.52564 11.64167,1.20373 0.38805,0.23462 1.89618,0.72627 3.35139,1.09255 3.18861,0.80259 5.45806,2.28576 6.75291,4.41327 0.78041,1.28226 0.95775,2.00642 0.98047,4.00366 0.0271,2.38114 -0.003,2.46663 -1.29519,3.6488 -0.7276,0.6658 -1.83376,1.43389 -2.45811,1.70688 -1.05694,0.46212 -5.76575,0.70975 -6.15198,0.32352 z m -77.68654,-6.19001 c 1.50176,-0.4214 3.29645,-1.11844 3.9882,-1.54898 0.69176,-0.43053 1.56209,-0.89546 1.93409,-1.03317 1.10155,-0.40778 0.17883,-0.93735 -2.30108,-1.32064 -10.18017,-1.57344 -13.05992,-1.40102 -18.39541,1.1014 -2.46311,1.15522 -2.96698,1.92593 -1.75427,2.68328 0.59807,0.3735 4.35548,1.10249 6.60496,1.28146 2.18692,0.17399 7.28918,-0.42416 9.92351,-1.16335 z m -38.85129,-5.95136 c 1.74625,-0.1718 3.81,-0.49389 4.58611,-0.71575 1.99837,-0.57126 2.41149,-0.67086 2.9094,-0.7014 0.70439,-0.0432 3.26481,-2.52249 3.25812,-3.15485 -0.007,-0.66186 -1.47116,-2.16381 -2.10937,-2.16381 -0.23568,0 -0.9031,-0.39933 -1.48313,-0.8874 -0.98464,-0.82852 -1.2338,-0.87386 -3.7551,-0.68329 -1.48526,0.11226 -4.44672,0.33387 -6.58103,0.49245 -2.1343,0.15859 -5.93011,0.31459 -8.43511,0.34666 -6.67016,0.0854 -15.84346,1.45096 -16.94725,2.5228 -0.18432,0.179 -0.63909,0.32544 -1.01059,0.32544 -0.92686,0 -4.12232,1.77857 -4.12232,2.29445 0,0.82767 1.47345,1.72385 3.80204,2.31246 2.06411,0.52176 3.9494,0.58166 14.5424,0.46204 6.69396,-0.0756 13.59958,-0.278 15.34583,-0.4498 z m -68.61527,-20.42814 c 0,-1.45819 0.81677,-2.45385 3.175,-3.87038 1.53829,-0.92401 2.02808,-1.71497 2.87252,-4.63882 0.55077,-1.90699 0.63746,-3.06466 0.49039,-6.54832 -0.0983,-2.32748 -0.31566,-4.27745 -0.48312,-4.33327 -0.90146,-0.30049 -1.24019,1.19974 -1.36091,6.02755 -0.0689,2.75383 -0.29171,5.52096 -0.49521,6.14918 -0.37191,1.14815 -2.56881,3.2675 -3.38705,3.2675 -0.921,0 -4.29618,1.72951 -4.6442,2.37979 -0.65583,1.22543 -0.10723,2.14947 1.48899,2.50801 2.32873,0.52307 2.34359,0.5171 2.34359,-0.94124 z m -1.85944,-4.51248 c -0.11722,-0.11722 -0.4215,-0.12975 -0.67615,-0.0278 -0.28143,0.11261 -0.19784,0.19621 0.21313,0.21313 0.37189,0.0153 0.58025,-0.0681 0.46302,-0.18528 z m 318.65039,-3.9741 c 2.22701,-0.25582 2.53442,-0.76528 1.57102,-2.60369 -0.33044,-0.63061 -0.9374,-1.80156 -1.34877,-2.6021 -1.41118,-2.74625 -5.46368,-7.3489 -7.97303,-9.05536 -0.8769,-0.59631 -1.67372,-1.18693 -1.77073,-1.31247 -0.74038,-0.9581 -9.61531,-5.99192 -10.56411,-5.99192 -0.19424,0 -1.03205,-0.31043 -1.86185,-0.68984 -0.82984,-0.37942 -2.34008,-1.0522 -3.35615,-1.49509 -2.14489,-0.93492 -2.91511,-2.31083 -2.91511,-5.20757 0,-0.95358 -0.13946,-2.10131 -0.30992,-2.5505 -0.17046,-0.4492 -0.40816,-2.12791 -0.52825,-3.73047 -0.12008,-1.60256 -0.36343,-3.19006 -0.54074,-3.52778 -0.17734,-0.33771 -0.49247,-2.03562 -0.70037,-3.77311 -0.53886,-4.50395 -0.34836,-4.38774 -7.63732,-4.65949 -8.81598,-0.32867 -9.34928,-0.287 -10.21464,0.79827 -0.70676,0.88635 -0.7885,0.90198 -2.83365,0.54182 -1.15828,-0.20396 -4.27857,-0.64358 -6.934,-0.97692 -5.08732,-0.63861 -5.92885,-0.51324 -5.93364,0.88402 -0.004,1.18612 -0.76369,3.25053 -1.51933,4.12902 -0.4306,0.5006 -1.33603,1.02374 -2.01206,1.16254 l -1.22914,0.25235 -7e-4,2.14273 -7.1e-4,2.14272 2.29377,1.17053 c 2.64878,1.3517 4.92055,2.81691 6.76452,4.36291 2.31524,1.9411 4.80826,3.73633 5.82426,4.19406 2.49649,1.12472 3.62595,2.07784 3.98222,3.36044 0.19748,0.71114 0.36001,1.49983 0.36107,1.75266 0.004,0.76122 1.49962,2.72948 4.80493,6.32028 1.72399,1.87288 3.29329,3.53819 3.48732,3.70067 0.19403,0.16248 1.38465,1.10153 2.64583,2.08677 1.26118,0.98524 2.81386,2.28741 3.45038,2.89372 1.25804,1.1983 1.36525,1.2184 10.66073,1.99845 4.55355,0.38213 9.17039,0.92036 10.75973,1.25437 1.91325,0.40208 5.99044,1.67659 6.33236,1.97947 0.18432,0.16327 0.66057,0.30847 1.05833,0.32265 0.39776,0.0142 1.19944,0.32412 1.78153,0.68875 0.59806,0.37464 1.36518,0.57525 1.76389,0.46128 0.38805,-0.11093 1.57712,-0.3018 2.64234,-0.42417 z m -5.84698,-4.40587 c -0.33443,-0.87148 -0.0102,-1.79647 0.67568,-1.92859 0.52701,-0.10149 0.61835,0.0771 0.52511,1.02712 -0.12086,1.23207 -0.86078,1.78754 -1.20079,0.90147 z m -9.68047,-0.59541 c -0.4543,-0.84887 -0.32617,-2.87613 0.19251,-3.04581 0.37977,-0.12424 1.17228,2.69809 0.94721,3.37327 -0.20436,0.61307 -0.71487,0.4664 -1.13972,-0.32746 z m 5.65316,-0.14349 c 0,-1.16659 0.71381,-2.66243 1.27053,-2.66243 0.7566,0 0.86907,0.58095 0.31729,1.63897 -0.28882,0.55377 -0.52613,1.2053 -0.5273,1.44783 0,0.24254 -0.24031,0.44097 -0.53135,0.44097 -0.32657,0 -0.52917,-0.33133 -0.52917,-0.86534 z m -207.43333,-1.25132 c 0.21696,-0.40541 0.73865,-0.70556 1.22631,-0.70556 0.4668,0 0.93453,-0.13885 1.03941,-0.30855 0.10489,-0.1697 1.0572,-0.38041 2.11625,-0.46824 2.12858,-0.17652 4.79025,-1.63778 4.79025,-2.62986 0,-0.50124 -0.28085,-0.53642 -2.20486,-0.27615 -1.21267,0.16405 -3.39549,0.31663 -4.85069,0.33906 -1.45521,0.0224 -2.99395,0.22907 -3.41943,0.45917 -1.08693,0.58783 -2.65147,-0.12906 -2.50575,-1.14816 0.0856,-0.59882 0.35755,-0.72977 1.51545,-0.72977 1.29277,0 1.40395,-0.074 1.32574,-0.88194 -0.0923,-0.95339 -2.30815,-3.17425 -4.01833,-4.0274 -0.56697,-0.28284 -1.91332,-0.77079 -2.9919,-1.08434 -1.94008,-0.564 -1.96925,-0.5614 -2.72723,0.24235 -0.4214,0.44684 -1.22289,1.04918 -1.7811,1.33852 -1.23325,0.63923 -2.1293,1.92222 -1.85029,2.64929 0.15642,0.40764 0.63427,0.50319 2.00755,0.40143 1.66407,-0.12331 1.83334,-0.0627 2.20757,0.79066 0.49981,1.13972 0.89913,1.44103 1.91897,1.44798 0.43656,0.003 1.11125,0.3229 1.4993,0.71095 0.38806,0.38806 0.91845,0.70556 1.17866,0.70556 0.2602,0 0.8996,0.78363 1.42089,1.7414 0.92657,1.70242 1.10619,1.81608 3.29707,2.0863 0.23571,0.0291 0.59848,-0.26465 0.80616,-0.6527 z m -5.82083,-4.93889 c -0.11992,-0.19403 -0.45019,-0.35278 -0.73394,-0.35278 -0.81374,0 -3.2778,-1.77124 -3.51832,-2.52908 -0.11982,-0.37749 -0.62863,-0.84251 -1.1307,-1.0334 -0.79331,-0.30162 -0.84651,-0.41341 -0.4063,-0.85362 0.73956,-0.73956 2.53755,-0.18377 2.7841,0.8606 0.18393,0.77913 2.7938,2.49717 3.79345,2.49717 0.24553,0 0.44643,0.39687 0.44643,0.88194 0,0.8862 -0.80171,1.22979 -1.23472,0.52917 z m -90.13561,-6.90341 c -0.41842,-7.41362 -0.81758,-11.39883 -1.41975,-14.17506 -0.46118,-2.12623 -1.27135,-2.61478 -0.87752,-0.52917 0.49819,2.63826 0.88592,7.81376 1.09021,14.55208 0.23644,7.79874 0.28407,8.13062 1.05616,7.35854 0.45855,-0.45856 0.47836,-1.40463 0.1509,-7.20639 z m 2.38925,5.54987 c 0.57584,-0.36548 0.64224,-10.72215 0.10837,-16.90359 -0.47006,-5.4427 -0.49537,-12.17945 -0.0527,-14.02204 0.18647,-0.77611 0.60479,-1.56986 0.92959,-1.76389 0.32481,-0.19402 0.91022,-0.60142 1.30092,-0.90532 0.69334,-0.53929 0.6733,-0.57988 -0.83557,-1.6928 -1.48942,-1.09857 -1.65932,-1.13785 -4.64634,-1.0743 -2.56897,0.0547 -3.17605,-0.0375 -3.54185,-0.53777 -0.31628,-0.43254 -0.82986,-0.57144 -1.81123,-0.48983 -1.69504,0.14096 -1.95253,0.74568 -0.64957,1.52555 1.81397,1.08573 2.92943,2.9206 2.92943,4.81878 0,1.68263 0.54973,2.38841 0.76921,0.98755 0.15284,-0.97553 0.7955,-0.91346 0.91318,0.0882 0.0522,0.44425 0.4023,2.1571 0.77801,3.80633 1.65152,7.24952 1.99401,10.12804 2.71788,22.84236 0.11323,1.98879 0.30412,3.61355 0.42421,3.61057 0.12009,-0.003 0.41998,-0.13338 0.66643,-0.2898 z m 77.69219,-1.2335 c 0,-0.87896 0.31954,-1.49546 1.26533,-2.44125 l 1.26533,-1.26533 -1.00075,-0.63741 c -0.55041,-0.35057 -1.08012,-0.72565 -1.17713,-0.83351 -0.097,-0.10786 -0.99907,-0.71649 -2.00456,-1.35249 -1.75406,-1.10951 -1.87049,-1.1345 -2.87236,-0.61641 -1.46503,0.7576 -3.31378,3.18726 -3.17404,4.17136 0.0804,0.56619 0.49478,0.92356 1.42211,1.22648 0.71976,0.23512 2.06913,0.98537 2.99861,1.66724 0.92948,0.68187 2.04715,1.24369 2.48371,1.2485 0.66615,0.007 0.79375,-0.18029 0.79375,-1.16718 z m -73.55417,-1.37033 c 4.58897,-3.66279 11.46528,-11.76647 11.46528,-13.51175 0,-0.77831 -2.18211,-1.62071 -3.51018,-1.35509 -1.31358,0.26271 -3.50722,-1.10201 -4.53886,-2.82374 -1.15938,-1.9349 -5.80844,-7.30564 -6.20745,-7.17104 -0.49154,0.16582 -0.45931,4.1115 0.10369,12.69421 0.242,3.68918 0.32624,8.10919 0.18994,9.96597 -0.22919,3.12225 -0.20216,3.3363 0.42078,3.33217 0.36613,-0.002 1.30069,-0.51126 2.0768,-1.13073 z m 378.24371,-0.0633 c 2.15872,-0.0778 3.8226,-1.5793 5.54327,-5.00224 1.47532,-2.93488 4.21453,-6.00184 6.36418,-7.12567 3.87005,-2.02324 4.14112,-2.22393 3.70819,-2.74556 -0.23216,-0.27976 -0.9676,-0.50865 -1.63428,-0.50865 -1.12864,0 -3.94091,-0.2732 -10.87229,-1.05619 -2.64693,-0.299 -4.67794,-0.96375 -9.34861,-3.05979 -2.80448,-1.25855 -3.89477,-1.87022 -5.34243,-2.99719 -1.92998,-1.50243 -3.81321,-1.22338 -3.84101,0.56914 -0.006,0.39776 -0.20461,0.9754 -0.44097,1.28364 -1.03841,1.35419 -4.7678,4.28788 -6.57271,5.17037 -2.52706,1.23554 -2.42147,1.13376 -1.7133,1.65157 0.3351,0.24505 0.83199,0.87476 1.10416,1.39936 0.87584,1.68818 4.21551,5.17529 6.6585,6.95245 1.30672,0.95057 2.52381,1.72831 2.70464,1.72831 0.1808,0 0.38167,0.12582 0.44637,0.27961 0.20817,0.49499 2.54042,1.70603 4.17453,2.16764 0.87312,0.24664 1.95216,0.59067 2.39786,0.76449 0.44567,0.17382 1.23942,0.31847 1.76389,0.32144 0.52444,0.003 1.19165,0.16378 1.48269,0.35736 0.29104,0.19358 0.84667,0.25098 1.23472,0.12757 0.38806,-0.12343 1.37023,-0.24837 2.1826,-0.27766 z m 24.58854,-0.0423 c 1.74996,-0.73118 3.26644,-3.21883 3.57315,-5.86134 0.26783,-2.30745 0.0463,-3.31821 -0.79809,-3.64224 -0.64068,-0.24587 -1.83092,0.99514 -1.84609,1.92489 -0.005,0.29104 -0.80239,1.94427 -1.77253,3.67383 -1.68289,3.0003 -1.73549,3.17343 -1.14571,3.77139 0.33997,0.34471 0.63842,0.63617 0.66325,0.64771 0.0247,0.0115 0.62153,-0.21988 1.32602,-0.51424 z m -325.6633,-5.19872 c 0.28651,-0.43727 1.25727,-1.16278 2.15724,-1.61225 0.89997,-0.44947 1.63631,-0.92617 1.63631,-1.05935 0,-0.13318 -0.64367,-0.44302 -1.43038,-0.68856 -0.78671,-0.24553 -2.03935,-0.84941 -2.78363,-1.34195 -1.51226,-1.00077 -5.26641,-1.70114 -6.49215,-1.21117 -1.26457,0.50549 -2.69939,2.09882 -2.69939,2.9976 0,1.10948 0.37958,1.30302 1.62992,0.83107 0.84761,-0.31994 1.30501,-0.2597 2.60934,0.34361 0.86987,0.40236 2.13719,1.12978 2.81629,1.6165 1.53984,1.10362 1.90331,1.12131 2.55645,0.1245 z m -10.83194,-2.97581 c -0.38596,-1.53778 -1.53316,-2.86069 -2.70367,-3.11778 -0.60047,-0.13188 -2.06674,-0.68345 -3.25838,-1.22569 -1.19165,-0.54224 -3.8335,-1.73489 -5.87079,-2.65032 -2.03729,-0.91544 -5.29167,-2.41734 -7.23195,-3.33758 -4.46785,-2.119 -5.67622,-2.58534 -6.22507,-2.40239 -0.24206,0.0807 0.34519,0.51968 1.30498,0.97555 0.9598,0.45587 2.14197,1.09836 2.62704,1.42777 0.8231,0.55896 2.52217,1.46067 14.18352,7.52735 2.46517,1.28247 5.00517,2.65066 5.64444,3.04042 1.5398,0.9388 1.81438,0.8962 1.52988,-0.23733 z m 258.04216,-1.19124 c 0,-1.88867 -0.53577,-2.44625 -2.35052,-2.44625 h -1.62014 l 1.72075,1.75483 c 0.94639,0.96515 1.8398,1.7589 1.98532,1.76389 0.14553,0.005 0.26459,-0.47763 0.26459,-1.07247 z m -0.88195,-4.21014 c -0.11991,-0.19403 -0.38897,-0.35278 -0.59792,-0.35278 -0.20895,0 -1.66804,-0.60956 -3.24238,-1.35458 -7.57834,-3.58624 -7.97768,-3.65087 -4.26974,-0.69105 2.7825,2.22109 3.76315,2.60118 6.98433,2.70703 0.81562,0.0268 1.25804,-0.0945 1.12571,-0.30862 z m 26.53422,-1.61129 c 0.9284,-0.30412 2.24363,-0.80318 2.92273,-1.10902 1.62221,-0.73059 6.38782,-5.5971 7.20728,-7.35991 0.35412,-0.76178 0.87867,-1.65438 1.16562,-1.98356 0.47254,-0.54202 0.32681,-0.79351 -1.54432,-2.66553 -1.13634,-1.13688 -2.59782,-2.4978 -3.24775,-3.02427 -0.73035,-0.59164 -1.10511,-1.15673 -0.98121,-1.4796 0.29446,-0.76735 3.86595,-0.67922 6.04544,0.14917 l 1.7659,0.67119 0.64411,-1.93475 c 0.58818,-1.76686 0.59566,-1.98825 0.0862,-2.55123 -0.88643,-0.97946 -0.6562,-2.83021 0.69966,-5.62516 0.6917,-1.42579 1.17662,-2.67332 1.07763,-2.7723 -0.099,-0.099 -2.76831,-0.1225 -5.93188,-0.0523 -11.26388,0.25005 -20.95433,-0.0165 -23.13401,-0.63634 -3.3958,-0.96569 -5.29759,-1.01125 -6.45618,-0.15467 -0.55221,0.40827 -1.1636,0.74231 -1.35866,0.74231 -0.54574,0 -1.07089,1.21598 -0.74965,1.73576 0.23054,0.37301 0.6544,0.32683 2.18027,-0.23756 1.04172,-0.38532 2.62855,-0.80746 3.52623,-0.93809 1.34567,-0.19582 1.67224,-0.13311 1.86037,0.35724 0.30847,0.80378 0.1184,0.93247 -1.82195,1.23366 -0.91881,0.14263 -3.49621,0.92903 -5.72753,1.74757 -2.39303,0.87786 -5.06977,1.59515 -6.52639,1.74889 -1.35819,0.14335 -3.34256,0.5206 -4.40972,0.83833 -1.17665,0.35033 -2.4609,0.4945 -3.26319,0.36632 -2.12524,-0.33955 -1.85995,0.17531 1.65259,3.20715 2.83834,2.44991 4.75893,4.43055 4.78423,4.93378 0.0586,1.16654 5.25448,5.34094 6.19746,4.97909 0.28204,-0.10823 0.68371,-0.57188 0.89259,-1.03032 0.20888,-0.45845 0.83923,-1.10495 1.40078,-1.43666 1.11943,-0.66127 4.13572,-3.62339 6.52681,-6.40964 1.54224,-1.79712 2.67833,-4.00094 3.13549,-6.08251 0.26088,-1.18767 1.12046,-1.53041 1.4811,-0.59056 0.26219,0.68323 -1.14342,4.59684 -2.1313,5.93417 -0.40954,0.5544 -1.4193,1.73149 -2.24392,2.61576 -0.82462,0.88426 -1.4993,1.67185 -1.4993,1.7502 0,0.4991 5.32101,6.67145 9.26179,10.74366 2.57013,2.6558 4.70708,4.83861 4.74881,4.85069 0.0417,0.0121 0.83545,-0.22687 1.76389,-0.531 z m -56.87311,-0.51654 c 2.87977,-0.51038 9.9314,-0.52409 13.22917,-0.0257 4.38104,0.66207 6.68976,0.76626 6.50843,0.29372 -0.1736,-0.45239 -3.71192,-2.37105 -5.72604,-3.10494 -0.63683,-0.23205 -2.44729,-1.35303 -4.02318,-2.49107 -1.5759,-1.13803 -2.9984,-2.06916 -3.1611,-2.06916 -0.1627,0 -1.15563,-1.15093 -2.20649,-2.55763 -1.05085,-1.40671 -2.38364,-3.11291 -2.96181,-3.79157 l -1.05114,-1.23393 -4.28882,-0.12662 c -2.35885,-0.0696 -5.01209,-0.0182 -5.89612,0.11441 -1.8536,0.27796 -1.84309,-0.0103 -0.1742,4.77312 0.57541,1.64924 1.67319,4.18924 2.43946,5.64445 0.76626,1.4552 1.59127,3.25617 1.83328,4.00214 0.4953,1.52665 0.24451,1.50043 5.47856,0.5728 z m -280.63472,-0.33688 c 0,-0.19142 -0.57501,-0.5883 -1.2778,-0.88194 -1.55765,-0.65083 -1.54442,-0.65049 -1.54442,-0.0398 0,0.27333 0.59111,0.65112 1.32292,0.84548 0.7276,0.19325 1.3626,0.36777 1.41111,0.38782 0.0485,0.02 0.0882,-0.12016 0.0882,-0.31158 z m 2.57416,-3.05861 c 0.61984,-1.24443 0.61788,-1.28753 -0.0882,-1.94534 -0.98609,-0.91868 -0.92833,-1.12814 0.65746,-2.3841 0.92363,-0.73154 1.56484,-1.63646 1.94028,-2.73832 0.8793,-2.58061 0.75466,-3.0359 -1.36028,-4.96883 l -1.92102,-1.75571 -4.86995,-0.24215 c -2.67847,-0.13318 -6.09467,-0.30542 -7.59156,-0.38276 -1.49688,-0.0773 -2.8045,-0.006 -2.90582,0.15744 -0.10131,0.16394 0.63022,1.07063 1.62564,2.01488 4.38401,4.15868 5.97145,6.0221 7.21161,8.46542 1.10105,2.16923 1.60157,2.75204 3.27634,3.81492 2.51625,1.59693 3.2155,1.59077 4.0255,-0.0355 z m -23.39345,-1.26765 c -0.003,-0.24254 -0.15929,-0.6791 -0.34737,-0.97014 -0.26648,-0.41235 -0.34317,-0.31501 -0.34738,0.44097 -0.003,0.53358 0.15335,0.97014 0.34738,0.97014 0.19402,0 0.35034,-0.19844 0.34737,-0.44097 z m 31.33342,-0.78965 c 1.36181,-1.14589 2.31117,-3.16104 2.02547,-4.29935 -0.25988,-1.03544 1.10926,-3.61894 2.71962,-5.13179 1.02482,-0.96277 1.04117,-1.68546 0.0381,-1.68546 -0.95364,0 -7.53624,7.11077 -7.53624,8.14093 0,0.3638 -0.3169,1.18124 -0.70423,1.81651 -0.88966,1.45917 -0.88275,1.60128 0.0869,1.78804 1.72956,0.33312 2.36887,0.21383 3.37038,-0.62888 z m 213.07833,-2.54655 c 0.0871,-1.19996 -0.035,-1.57145 -0.63755,-1.94027 -0.68031,-0.4164 -1.34767,-1.54515 -1.89937,-3.21256 -0.32893,-0.99414 -0.9222,-0.33739 -0.9222,1.02089 0,1.31416 -0.11673,1.40018 -3.1102,2.29211 -1.44463,0.43044 -1.63765,0.39701 -3.76508,-0.65207 -1.23332,-0.60818 -2.45311,-1.47856 -2.71065,-1.9342 -1.73062,-3.06182 -1.68108,-3.02544 -4.28694,-3.14799 -1.33339,-0.0627 -2.49843,0.007 -2.58897,0.15402 -0.0906,0.14743 0.36163,0.70305 1.00485,1.23473 0.64322,0.53167 2.22608,1.97312 3.51748,3.20322 1.29139,1.2301 2.72014,2.49743 3.175,2.81628 1.51128,1.05939 5.19955,1.78031 8.76451,1.71312 l 3.35138,-0.0632 z m -13.68968,1.00446 c 0,-0.1668 -1.13282,-1.31774 -2.51737,-2.55764 -1.38456,-1.23991 -3.16279,-2.84968 -3.95162,-3.57729 -1.45759,-1.34444 -2.13481,-1.60445 -2.52684,-0.97014 -0.44215,0.71541 -1.62755,0.34007 -2.22127,-0.70332 -0.54392,-0.95588 -0.77182,-1.05632 -2.40129,-1.05834 -0.99018,-10e-4 -2.81581,-0.10204 -4.05694,-0.22404 -1.64736,-0.16193 -2.15825,-0.11595 -1.89229,0.17029 0.48152,0.51826 10.00139,5.34319 10.54241,5.34319 0.23122,0 1.20555,0.50428 2.16517,1.12061 2.79682,1.79631 4.84784,2.75688 5.8899,2.75847 0.53358,7e-4 0.97014,-0.135 0.97014,-0.30179 z m 172.69421,-1.85259 c 2.08287,-0.52448 2.45576,-1.01597 1.94497,-2.56367 -0.42996,-1.3028 -0.62452,-12.2172 -0.2292,-12.85686 0.37529,-0.60725 1.63499,-7.87666 1.42406,-8.21795 -0.32032,-0.51829 -0.84847,-0.35944 -2.38608,0.71765 -0.80783,0.56587 -2.02442,1.14062 -2.70352,1.27721 -0.67909,0.13659 -1.66341,0.46735 -2.18732,0.73502 -0.54688,0.27939 -2.04947,0.48998 -3.52778,0.49443 -2.56671,0.008 -5.15677,0.79598 -5.74552,1.7486 -0.14231,0.23029 -0.98393,0.72954 -1.87021,1.10945 -1.403,0.60139 -2.36764,0.68442 -7.45765,0.64184 l -5.84624,-0.0489 -0.10812,1.4385 c -0.0627,0.83429 0.14238,1.96644 0.48831,2.69543 0.42171,0.88867 0.53816,1.74911 0.39751,2.93683 -0.25947,2.19081 -0.26882,2.17963 2.92647,3.49844 0.48507,0.2002 1.43757,0.60158 2.11667,0.89193 0.67909,0.29036 1.79034,0.63439 2.46944,0.76451 0.6791,0.13012 2.42535,0.69359 3.88056,1.25215 1.4552,0.55857 3.87187,1.44043 5.3704,1.95969 1.4985,0.51926 3.00662,1.15811 3.35139,1.41967 0.77996,0.59174 5.50432,0.65686 7.69186,0.10603 z m -375.89961,-1.48094 c -0.004,-0.62838 -0.0694,-0.67396 -0.34738,-0.24376 -0.44915,0.69502 -0.44915,1.51231 0,1.23472 0.19403,-0.11991 0.35035,-0.56585 0.34738,-0.99096 z m 211.47809,-1.78729 c 0.39866,-0.26122 1.01762,-1.28913 1.37547,-2.28426 0.4556,-1.26698 1.27414,-2.41844 2.73081,-3.84146 1.1441,-1.11767 2.08125,-2.3161 2.08255,-2.66316 10e-4,-0.34706 -0.59294,-1.25631 -1.32055,-2.02055 -2.73579,-2.87354 -7.2532,-2.72982 -10.26637,0.32662 -2.59978,2.63711 -3.47037,5.33276 -2.29212,7.09715 2.49782,3.7404 5.27965,4.96512 7.69021,3.38566 z m -207.32723,-2.2942 c 1.19493,-1.33464 2.07396,-2.52526 1.95339,-2.64583 -0.12057,-0.12057 -2.11691,-0.21922 -4.4363,-0.21922 h -4.21707 l 1.45365,1.41072 c 0.79951,0.7759 1.45365,1.57523 1.45365,1.7763 0,0.47534 1.06815,2.10465 1.37978,2.10465 0.13216,0 1.21797,-1.09198 2.4129,-2.42662 z m 439.29621,0.71581 c 1.45521,-0.16046 7.13038,-0.27773 12.61152,-0.2606 6.728,0.021 9.96576,-0.0889 9.96597,-0.33831 1.4e-4,-0.2032 -0.97754,-1.29227 -2.17265,-2.42016 -2.1022,-1.98397 -2.21989,-2.04281 -3.61597,-1.80805 -0.79368,0.13346 -1.68116,0.21741 -1.97221,0.18655 -0.29104,-0.0309 -3.86291,-0.13099 -7.9375,-0.22253 -7.88504,-0.17715 -10.37636,0.13419 -12.44586,1.55533 -1.2017,0.82521 -3.91466,1.84358 -4.91137,1.84358 -1.20731,0 -1.86916,0.3802 -1.86916,1.07372 0,0.46274 0.32456,0.68727 1.14653,0.79312 1.50665,0.19403 7.86098,-0.0344 11.2007,-0.40265 z m -204.96978,-3.65904 c 0.77657,-0.48499 1.65149,-2.35888 1.9697,-4.21872 0.18545,-1.08388 0.0975,-1.37519 -0.53284,-1.76389 -0.41522,-0.25608 -1.8088,-1.712 -3.09686,-3.23537 -1.6564,-1.95904 -2.46327,-3.24981 -2.75653,-4.40973 l -0.41463,-1.63994 -1.72662,-0.10936 c -0.94963,-0.0602 -1.87742,-0.25858 -2.06175,-0.44097 -0.49569,-0.49048 -0.89958,-0.40298 -0.89958,0.19487 0,0.85303 -1.47206,2.29574 -2.34245,2.29574 -0.44225,0 -2.16199,1.02415 -3.82164,2.27589 -1.65965,1.25174 -3.49168,2.55597 -4.07117,2.89828 -1.22318,0.72255 -1.30878,1.35875 -0.34808,2.58694 0.37943,0.48507 0.6934,1.23194 0.69771,1.65971 0.006,0.6233 0.27058,0.82043 1.33077,0.9926 2.08138,0.338 2.87346,0.78178 3.11531,1.74541 0.31049,1.23708 0.75038,1.11794 1.37285,-0.37185 0.56794,-1.35927 1.3479,-1.46741 1.53272,-0.21252 0.26479,1.79776 9.76815,3.17986 12.05309,1.75291 z m -7.98757,-12.46404 c -0.25386,-0.66155 0.29512,-1.79873 0.79996,-1.65708 0.48176,0.13517 0.37334,1.95 -0.12645,2.1166 -0.24244,0.0808 -0.54551,-0.12597 -0.67351,-0.45952 z m -1.88432,-0.98504 c 0,-0.99058 1.21325,-2.24773 1.58646,-1.64387 0.34302,0.55502 -0.50999,2.47113 -1.10009,2.47113 -0.27504,0 -0.48637,-0.35946 -0.48637,-0.82726 z m -26.68061,13.096 c 0.25461,-0.40415 0.26494,-0.72552 0.0309,-0.9596 -0.45228,-0.45228 -3.94601,0.43821 -4.70771,1.19991 -0.49437,0.49437 -0.3136,0.53849 1.87344,0.45725 1.84,-0.0683 2.51243,-0.23566 2.80341,-0.69756 z m 232.26563,-0.27843 1.3087,-0.70142 h -4.74757 c -4.32742,0 -4.68052,0.047 -3.98967,0.53087 2.01048,1.40819 4.99166,1.47663 7.42854,0.17055 z m -191.48597,0.0146 c 0.44079,-0.38229 1.10006,-0.78987 1.46508,-0.90571 0.36502,-0.11585 0.66365,-0.34969 0.66365,-0.51964 0,-0.31752 -1.38956,-1.40734 -1.79441,-1.40734 -0.33192,0 -2.08615,2.6116 -2.08615,3.10577 0,0.63907 0.85351,0.50603 1.75183,-0.27308 z m 25.41206,0.34232 c 0,-0.21358 -1.2876,-0.33188 -3.26319,-0.2998 -2.64647,0.043 -2.96316,0.0996 -1.6757,0.2998 2.48934,0.38701 4.93889,0.38701 4.93889,0 z m 15.40048,-0.86673 c -0.1149,-0.29941 -0.37264,-0.54439 -0.57273,-0.54439 -0.51704,0 -0.45251,0.96788 0.0771,1.15703 0.5993,0.21404 0.74415,0.035 0.49562,-0.61264 z m 203.65681,-1.44766 c -0.23181,-0.27931 -0.58713,-0.50784 -0.78966,-0.50784 -0.20249,0 -0.61961,-0.24222 -0.92692,-0.53828 -1.51585,-1.46028 -3.96713,-2.98949 -4.79206,-2.98949 -0.62622,0 -1.56792,-0.59717 -2.92072,-1.85209 -1.09806,-1.01864 -2.21114,-2.05052 -2.4735,-2.29305 -0.72327,-0.66857 -1.36063,-0.53396 -2.1354,0.45099 -0.91627,1.16487 -3.90567,3.47333 -7.05954,5.45153 -1.38631,0.86954 -2.5206,1.70591 -2.5206,1.85859 0,0.15268 1.46844,0.21938 3.26319,0.14821 1.79476,-0.0712 6.04132,-0.0272 9.43681,0.0977 4.88453,0.17967 6.39459,0.35354 7.23194,0.83271 0.58209,0.3331 1.69334,0.81962 2.46945,1.08117 1.37982,0.465 1.41361,0.45661 1.52481,-0.37839 0.0625,-0.46966 -0.076,-1.08245 -0.3078,-1.36176 z m -474.11562,1.2943 c 0,-0.55209 -1.83041,-0.83884 -5.99722,-0.93953 -2.23132,-0.0539 -5.40632,-0.20054 -7.05556,-0.32583 -1.64924,-0.12529 -6.41174,-0.27962 -10.58333,-0.34296 -4.1716,-0.0633 -8.85472,-0.22206 -10.40695,-0.35273 -1.85729,-0.15634 -2.6413,-0.12125 -2.29305,0.10264 0.29104,0.18711 2.03819,0.43503 3.88256,0.55092 1.84437,0.1159 3.82874,0.34695 4.40972,0.51345 0.58098,0.1665 3.3582,0.32799 6.17161,0.35887 7.07147,0.0776 17.43183,0.43483 17.60949,0.60714 0.29987,0.29083 4.26273,0.13096 4.26273,-0.17197 z m 279.4,-0.52422 c 0,-0.71371 -0.93313,-1.41313 -1.23458,-0.92538 -0.34872,0.56427 0.068,1.41135 0.69433,1.41135 0.29715,0 0.54025,-0.21869 0.54025,-0.48597 z m -2.82222,-0.39597 c 0,-0.56064 -1.23907,-0.74017 -1.55709,-0.2256 -0.26053,0.42153 0.14139,0.75476 0.91034,0.75476 0.3557,0 0.64675,-0.23812 0.64675,-0.52916 z m 94.09423,-0.15099 c 1.59564,-0.13315 3.01282,-0.35377 3.14931,-0.49025 0.13649,-0.13649 -0.0975,-0.57017 -0.51992,-0.96373 -0.94791,-0.88312 -0.95243,-0.80559 0.11388,-1.95615 1.09883,-1.18568 1.20561,-2.41 0.18185,-2.08506 -1.30993,0.41576 -3.46643,0.26199 -5.10575,-0.36407 -0.97211,-0.37125 -1.76315,-0.49524 -1.95065,-0.30574 -0.40629,0.41065 -0.87432,5.55575 -0.57609,6.333 0.16595,0.43244 0.44024,0.52232 1.01675,0.33315 0.43419,-0.14248 2.09497,-0.368 3.69062,-0.50115 z m -97.8866,-1.64821 c 1.87985,-0.72476 2.06506,-1.06885 0.82833,-1.53905 -0.46609,-0.1772 -1.22016,-0.72064 -1.6757,-1.20764 -0.48754,-0.52117 -1.55402,-1.05218 -2.59221,-1.2907 -2.50719,-0.57602 -4.59405,-1.65617 -5.12829,-2.65438 -0.25245,-0.4717 -0.67751,-0.85764 -0.94457,-0.85764 -0.62575,0 -2.21742,1.58671 -2.21742,2.21049 0,0.76274 1.36793,2.02284 2.19594,2.02284 0.46722,0 1.59537,0.86312 2.94485,2.25301 2.1403,2.20442 2.21685,2.24714 3.55042,1.98106 0.74962,-0.14956 2.11702,-0.56266 3.03865,-0.91799 z m 172.80421,0.74086 c 0.0706,-1.07417 -2.00053,-1.08292 -3.38268,-0.0143 -0.65779,0.50858 -0.56797,0.53947 1.32698,0.45629 1.11788,-0.0491 2.04297,-0.24797 2.0557,-0.442 z m -493.09337,-0.60195 c 0.11195,-0.42809 0.12183,-0.86006 0.022,-0.95992 -0.22813,-0.22814 -0.83614,0.70711 -0.84337,1.29729 -0.009,0.74203 0.60511,0.48977 0.82141,-0.33737 z m 487.00383,-0.12878 c 2.13056,-0.64987 2.86589,-1.01524 2.59277,-1.28834 -0.41973,-0.41973 -3.00041,0.27705 -5.53035,1.4932 -2.03641,0.97891 -0.61941,0.88009 2.93758,-0.20486 z m -448.44295,-1.02234 c -0.11941,-0.31117 -0.70783,-0.83778 -1.30759,-1.17024 -0.59977,-0.33245 -1.51534,-0.96146 -2.0346,-1.39778 -0.51926,-0.43633 -1.26161,-0.79583 -1.64966,-0.79889 -0.38806,-0.003 -1.34056,-0.22383 -2.11667,-0.49061 -1.79673,-0.6176 -5.41896,-1.10447 -4.93889,-0.66384 0.38424,0.35267 2.26801,1.11933 4.7625,1.93828 1.69423,0.55621 2.03087,1.2648 0.88195,1.85639 -1.59847,0.82306 -1.71821,0.96746 -1.09259,1.31757 0.37307,0.20878 1.027,0.18197 1.80229,-0.0739 0.66923,-0.22086 1.41832,-0.27534 1.66465,-0.12106 0.6602,0.41351 3.57296,0.73187 3.93429,0.43002 0.17129,-0.14309 0.21373,-0.51476 0.0943,-0.82594 z m 6.02316,0.83768 c -0.83612,-0.48672 -4.13585,-0.9949 -4.13585,-0.63695 0,0.57318 1.28282,1.00172 2.99861,1.00172 1.38345,0 1.62874,-0.0787 1.13724,-0.36477 z m 384.51767,-0.18833 c 1.00192,-0.19291 1.16554,-0.39711 1.47284,-1.838 0.19015,-0.89154 0.26889,-1.74531 0.17498,-1.89727 -0.29997,-0.48536 -1.54023,-0.29585 -1.54023,0.23535 0,0.2814 -0.19843,0.63859 -0.44097,0.79375 -0.24253,0.15517 -0.98333,0.98036 -1.6462,1.83377 l -1.2052,1.55165 1.02881,-0.23112 c 0.56586,-0.12712 1.53607,-0.32878 2.15597,-0.44813 z m 67.84093,-0.30739 c 0.24154,-0.29104 0.65786,-0.52916 0.92512,-0.52916 0.2673,0 0.48599,-0.13327 0.48599,-0.29615 0,-0.16289 0.39387,-0.47562 0.87527,-0.69496 1.11207,-0.50669 4.0392,-2.67485 5.92508,-4.38875 0.80063,-0.72761 1.58242,-1.32292 1.73736,-1.32292 0.15498,0 0.28173,-0.23813 0.28173,-0.52917 0,-0.86835 -0.52345,-0.63853 -4.01757,1.76389 -1.83431,1.26118 -3.45712,2.29306 -3.60631,2.29306 -0.60695,0 -5.07612,2.93451 -5.07612,3.33306 0,1.01349 1.72159,1.2722 2.46945,0.3711 z m -467.11295,-1.85208 c 0.0228,-0.28636 -0.46866,-0.44097 -1.40181,-0.44097 -1.17819,0 -1.41579,0.11118 -1.31931,0.61736 0.0647,0.33955 0.48294,0.66936 0.92938,0.73292 0.44645,0.0636 0.91377,0.38105 1.03849,0.70555 0.18417,0.47918 0.27291,0.42434 0.47243,-0.29194 0.13511,-0.48507 0.26149,-1.08039 0.28082,-1.32292 z m 395.28686,1.26913 c 1.49934,-1.7511 3.03442,-4.85637 3.03442,-6.13825 0,-1.75942 -0.63034,-3.75791 -1.54365,-4.89399 -0.63472,-0.78956 -0.92756,-0.89612 -1.9135,-0.69632 -1.1012,0.22315 -1.14886,0.29531 -0.88195,1.33482 0.36799,1.43322 0.3416,7.33632 -0.0424,9.47739 -0.34219,1.9082 0.18863,2.26931 1.34708,0.91635 z m 11.3247,-0.88763 c 1.16416,-0.30386 2.26183,-0.68696 2.43928,-0.85133 0.18814,-0.1743 -0.18687,-0.7819 -0.89983,-1.45792 -0.67232,-0.63748 -1.48795,-1.58358 -1.8125,-2.10244 -0.72256,-1.15513 -1.93008,-1.6043 -2.54046,-0.94496 -0.5158,0.5572 -1.36243,5.46735 -1.03427,5.99834 0.1228,0.19866 0.5625,0.25985 0.97719,0.13599 0.41465,-0.12387 1.70642,-0.47382 2.87059,-0.77768 z m -197.4415,-0.23435 c 0.1256,-0.6476 -0.2073,-0.74171 -0.95301,-0.26938 -0.55584,0.35206 -0.18875,1.19967 0.43031,0.99356 0.22475,-0.0748 0.45997,-0.4007 0.5227,-0.72418 z m 93.72483,-0.57831 c 0.19403,-0.15497 1.5434,-0.46792 2.99861,-0.69542 1.45521,-0.22751 2.96334,-0.5576 3.35139,-0.73353 0.38806,-0.17593 1.18181,-0.36515 1.76389,-0.4205 0.86688,-0.0824 1.05833,-0.26019 1.05833,-0.98258 0,-0.75942 -0.14703,-0.87278 -1.05833,-0.81596 -0.58208,0.0363 -1.85208,0.24739 -2.82222,0.4691 -1.92705,0.44039 -10.02602,0.31657 -11.4366,-0.17485 -0.7511,-0.26168 -0.81904,-0.21657 -0.56744,0.37681 0.15716,0.37073 0.35447,1.15031 0.43847,1.7324 0.084,0.58208 0.19967,1.21708 0.25706,1.41111 0.12182,0.41156 5.47868,0.26325 6.01684,-0.16658 z m 161.09216,0.002 0.83284,-0.69363 -1.23239,0.34086 c -0.67783,0.18747 -1.28249,0.34086 -1.34373,0.34086 -0.0612,0 -0.0131,0.15875 0.10668,0.35278 0.31926,0.51656 0.70312,0.43662 1.6366,-0.34087 z m -173.75536,-3.9944 c -2.05155,-6.86475 -2.07529,-6.98713 -1.84161,-9.50116 0.19653,-2.11477 0.12707,-2.63046 -0.48842,-3.62636 -1.21214,-1.96129 -2.82243,-1.98979 -6.93992,-0.12283 -1.70991,0.7753 -3.04426,1.09465 -5.17821,1.23927 -2.68393,0.1819 -2.96361,0.13376 -4.21333,-0.72524 -0.73621,-0.50605 -1.67287,-0.92008 -2.08139,-0.92008 -0.58653,0 -0.41741,0.23574 0.80374,1.12033 1.62009,1.1736 6.00508,2.55608 7.17197,2.26114 0.37133,-0.0939 1.9068,0.30431 3.41213,0.88483 3.47448,1.33989 4.71559,2.67007 6.3058,6.75817 2.02198,5.19811 4.43985,7.28507 3.04924,2.63193 z m -3.24422,1.21274 c 0.25721,-0.41617 -2.04643,-5.80191 -2.55404,-5.9711 -0.22666,-0.0756 -0.41215,0.0918 -0.41215,0.37194 0,0.28014 -0.41123,1.1153 -0.91384,1.85592 l -0.9138,1.34659 0.82561,0.66493 c 2.21724,1.78569 3.57001,2.37603 3.96822,1.73172 z m -37.53841,-2.87471 c 0,-0.38805 -0.0738,-0.70555 -0.16397,-0.70555 -0.0902,0 -0.33391,0.3175 -0.54159,0.70555 -0.30138,0.56314 -0.26828,0.70556 0.16397,0.70556 0.30639,0 0.54159,-0.3064 0.54159,-0.70556 z m 118.70972,0 c 0.11991,-0.19402 0.75131,-0.35277 1.40307,-0.35277 2.30607,0 3.01798,-0.86898 1.55275,-1.89528 -0.56406,-0.39507 -0.97656,-0.43739 -1.67506,-0.17183 -1.28482,0.48849 -2.1627,1.34975 -2.1627,2.12178 0,0.69889 0.52465,0.87622 0.88194,0.2981 z m -119.0625,-1.77525 c 0,-0.20028 0.35719,-0.50772 0.79375,-0.6832 0.62904,-0.25283 0.4094,-0.32369 -1.05833,-0.34141 -1.88285,-0.0227 -2.34971,0.3583 -1.23473,1.00772 0.8037,0.4681 1.49931,0.47594 1.49931,0.0169 z m 142.67893,0.0432 c 0.33602,-0.5437 -0.19795,-1.44295 -0.8568,-1.44295 -0.34357,0 -0.8323,0.25023 -1.08613,0.55606 -0.38244,0.46083 -0.37472,0.61093 0.045,0.87654 0.65507,0.41452 1.64479,0.41992 1.89791,0.0103 z m -97.36515,-0.86604 c 1.18025,-1.09384 1.1388,-1.4147 -0.33461,-2.59034 -1.42374,-1.13603 -1.55247,-2.01258 -0.46546,-3.16968 l 0.7693,-0.81886 -0.97521,-1.01788 c -1.46336,-1.52744 -1.1489,-2.39755 1.3403,-3.70855 2.87715,-1.5153 3.12396,-2.01025 1.72537,-3.46016 -0.61397,-0.6365 -1.29046,-1.61911 -1.50333,-2.18357 -0.35916,-0.95238 -0.28451,-1.12483 1.03668,-2.39435 1.58383,-1.52187 1.76798,-2.40872 0.71818,-3.45852 -0.84441,-0.84441 -2.1233,-0.90267 -3.55565,-0.16197 -1.29928,0.67187 -1.64507,0.47625 -1.94035,-1.09758 -0.26874,-1.43263 -1.53571,-2.26822 -3.43912,-2.26822 -1.80425,0 -2.18849,0.70578 -2.06964,3.80128 0.0847,2.20478 -0.007,2.74325 -0.55453,3.25324 -1.34158,1.24989 -2.51446,1.4697 -5.81502,1.08982 -0.14552,-0.0168 -0.26458,-0.39201 -0.26458,-0.8339 0,-1.86823 -2.52486,-3.28591 -4.22839,-2.3742 -0.89355,0.47821 -0.89461,1.07277 -0.005,2.73273 0.92643,1.7285 0.89002,2.35957 -0.17639,3.05831 -0.61616,0.40372 -0.88195,0.89664 -0.88195,1.63563 0,0.78594 -0.22665,1.16103 -0.88194,1.45961 -1.15016,0.52405 -1.22731,2.19559 -0.12848,2.78367 1.09509,0.58607 4.79654,0.22537 6.65487,-0.64852 2.09628,-0.98579 5.91033,-2.19934 6.91233,-2.19934 1.03272,0 3.19835,2.04538 3.5192,3.32383 0.13709,0.54612 0.0516,2.04573 -0.19004,3.33247 -0.38125,2.03051 -0.36036,2.60985 0.15797,4.38607 0.51284,1.75744 0.67251,1.98404 1.13023,1.60416 0.436,-0.36184 0.59422,-0.33302 0.86921,0.15833 0.47131,0.84223 1.51758,0.74739 2.57599,-0.23351 z m -279.911,-1.08525 c 0,-0.56185 -0.64007,-1.08585 -0.949,-0.77692 -0.29021,0.29021 0.16282,1.28526 0.58515,1.28526 0.20012,0 0.36385,-0.22875 0.36385,-0.50834 z m -36.49173,-0.7376 c -0.37664,-0.28487 -0.85289,-0.5129 -1.05834,-0.50673 -0.20545,0.006 -0.0654,0.2443 0.31125,0.52917 0.37663,0.28487 0.85288,0.5129 1.05833,0.50673 0.20545,-0.006 0.0654,-0.2443 -0.31124,-0.52917 z m 269.67784,0.18761 c 0.29104,-0.18809 0.37042,-0.34197 0.17639,-0.34197 -0.19403,0 -0.5909,0.15388 -0.88195,0.34197 -0.29104,0.18809 -0.37041,0.34197 -0.17639,0.34197 0.19403,0 0.59091,-0.15388 0.88195,-0.34197 z m 115.57,-0.64995 c 1.53374,-1.11781 4.37444,-4.0989 4.37444,-4.59064 0,-0.52942 -0.80006,-1.01301 -2.46944,-1.49267 -0.87313,-0.25087 -2.05497,-0.83864 -2.62633,-1.30616 -1.55776,-1.27469 -3.13926,-0.90548 -5.04659,1.17812 -1.61992,1.76964 -1.89212,2.80853 -0.82469,3.14732 0.37106,0.11776 1.41521,1.08096 2.32033,2.14044 0.90516,1.05947 1.92712,1.92632 2.27108,1.92632 0.34392,0 1.24446,-0.45123 2.0012,-1.00273 z m -128.29975,-0.32019 c -1.12552,-1.4818 -2.79247,-2.37681 -2.79247,-1.4993 0,0.19402 0.19843,0.35848 0.44097,0.36546 0.24253,0.007 0.91722,0.40307 1.4993,0.88019 1.25159,1.02591 1.49345,1.0979 0.8522,0.25365 z m 138.93402,-0.15975 c 0.24363,-0.20219 0.44295,-0.66568 0.44295,-1.02997 0,-0.49665 -0.25756,-0.66236 -1.02947,-0.66236 -0.56621,0 -1.28059,0.0964 -1.5875,0.21413 -0.56621,0.21727 -0.7686,1.57438 -0.30406,2.0389 0.30494,0.30493 1.85868,-0.0466 2.47808,-0.5607 z m -398.05307,-0.71139 c -0.36962,-0.43062 -0.98953,-1.04921 -1.37759,-1.37464 -0.38805,-0.32543 -1.17016,-0.99445 -1.73802,-1.4867 -1.17128,-1.01535 -3.28841,-2.11298 -5.21093,-2.70163 -2.27416,-0.69633 -6.77199,0.4932 -8.27662,2.18888 -0.64372,0.72547 -0.64013,0.72967 0.4089,0.47847 4.53072,-1.08494 8.9785,-0.38538 13.22917,2.0807 3.0249,1.75493 4.00259,2.02364 2.96509,0.81492 z m 402.73645,0.24525 c 0.55227,-0.66546 0.44298,-0.77791 -0.88925,-0.91493 -1.22661,-0.12616 -1.94007,0.22109 -1.94007,0.94428 0,0.69717 2.24568,0.67388 2.82932,-0.0294 z m -364.51025,-1.90346 c 1.1245,-0.57855 0.5972,-1.39757 -2.1258,-3.30182 -2.58483,-1.80764 -6.01593,-2.7353 -10.09066,-2.72821 -2.53249,0.004 -2.59246,0.0248 -2.35083,0.79827 0.13637,0.43656 0.24566,1.05127 0.24285,1.36602 -0.005,0.52591 1.27653,1.36801 2.08137,1.36801 0.47937,0 3.17218,1.19996 6.68234,2.97775 l 2.99861,1.51871 0.88194,-0.79401 c 0.48507,-0.43671 1.24115,-0.97884 1.68018,-1.20472 z m 396.79661,-1.3512 c 0.30974,-1.11566 0.61083,-2.18723 0.66908,-2.38125 0.24606,-0.81989 -0.50864,-1.94028 -1.30701,-1.94028 -0.45251,0 -1.01113,-0.1884 -1.24142,-0.41867 -0.32301,-0.32302 -0.62118,-0.22839 -1.30528,0.41428 -0.48761,0.45811 -0.8866,1.00581 -0.8866,1.21712 0,0.2113 -0.55563,1.20924 -1.23473,2.21764 -0.67909,1.0084 -1.23472,1.97505 -1.23472,2.14811 0,0.17305 1.05287,0.33259 2.33966,0.35452 1.28683,0.0219 2.42454,0.12472 2.52825,0.22843 0.5968,0.59679 1.17189,-0.0357 1.67277,-1.8399 z m -32.29346,1.04069 c 0,-0.43964 -0.79696,-1.12889 -1.30527,-1.12889 -0.58636,0 -0.60047,0.9423 -0.0176,1.17747 0.69829,0.28176 1.32291,0.25882 1.32291,-0.0486 z m -4.188,-0.68034 c 0.25672,-0.2567 0.24617,-0.44478 -0.0346,-0.61833 -0.58653,-0.36251 -2.01605,0.0764 -2.2521,0.69154 -0.15727,0.40985 0.0346,0.5019 0.85764,0.41178 0.58311,-0.0638 1.22619,-0.28208 1.4291,-0.48499 z m -400.46512,-3.23742 c 0.38659,-0.75777 1.10419,-1.69344 1.59467,-2.07925 1.22876,-0.96653 1.11867,-1.62523 -0.43113,-2.57972 -2.0944,-1.2899 -3.06637,-1.64755 -4.7186,-1.73627 -3.51121,-0.18854 -5.04151,0.21945 -4.27723,1.14035 0.21759,0.26217 0.50306,1.28663 0.63437,2.27657 0.23092,1.74069 0.28679,1.81412 1.69838,2.232 0.80279,0.23766 2.17398,0.8038 3.04711,1.25809 0.87312,0.45429 1.62396,0.83498 1.66853,0.84599 0.0446,0.011 0.39732,-0.59999 0.7839,-1.35776 z m 274.00346,-2.5028 c -0.28476,-1.06687 -0.26303,-1.77685 0.0892,-2.91041 0.67286,-2.16557 0.86787,-5.09758 0.41212,-6.19511 -0.54843,-1.32061 -2.4372,-2.51359 -4.49457,-2.83881 -2.03753,-0.32209 -3.26834,0.0116 -5.25557,1.42479 -1.39733,0.99372 -4.24874,4.426 -3.93641,4.73833 0.0861,0.0861 0.56946,-3.5e-4 1.07418,-0.19239 0.54012,-0.20535 1.32223,-0.22635 1.90101,-0.051 0.54083,0.16383 1.69771,0.49356 2.57084,0.73272 0.87312,0.23917 2.01616,0.59117 2.54007,0.78223 1.24354,0.4535 4.41766,3.82065 4.71374,5.00043 0.12707,0.5062 0.35049,0.92037 0.49654,0.92037 0.14601,0 0.096,-0.635 -0.11113,-1.41112 z m -268.67726,-1.94933 c 1.39451,-0.72113 1.31146,-1.43023 -0.35292,-3.01352 -3.7064,-3.52581 -10.03693,-4.93695 -15.36321,-3.42461 -2.87183,0.81542 -2.96812,1.50614 -0.38763,2.78057 1.70501,0.84206 2.05231,0.89308 4.12334,0.60576 3.64403,-0.50554 6.65484,0.31236 9.14068,2.48313 1.446,1.26272 1.48319,1.27017 2.83974,0.56867 z m 439.23064,-9.21115 c 0.55714,-0.67133 2.57733,-2.04727 4.8501,-3.3034 0.87767,-0.48507 1.66479,-1.10129 1.74917,-1.36938 0.11275,-0.35817 -0.13913,-0.31461 -0.94978,0.16426 -0.60674,0.35842 -1.10321,0.77621 -1.10321,0.9284 0,0.15219 -0.23166,0.27672 -0.51477,0.27672 -0.80052,0 -3.45228,1.74269 -4.36277,2.86712 -0.4513,0.55739 -0.66918,1.01343 -0.48415,1.01343 0.18503,0 0.55196,-0.25972 0.81541,-0.57715 z m 2.96161,-4.36631 c 0.12481,-0.20195 -0.1693,-0.17686 -0.68591,0.0585 -0.49742,0.22665 -0.90442,0.55094 -0.90442,0.72065 0,0.36097 1.27036,-0.26142 1.59033,-0.77917 z m -3.70699,-1.56211 c 0,-0.37235 -0.67702,-0.52878 -0.87838,-0.20296 -0.12189,0.19719 0.0258,0.35853 0.3284,0.35853 0.30247,0 0.54998,-0.07 0.54998,-0.15557 z m 11.64166,-0.70184 c 0,-0.27754 0.35719,-0.57343 0.79375,-0.65751 0.57401,-0.11056 0.47636,-0.16618 -0.35277,-0.20093 -0.63059,-0.0264 -1.14653,0.0183 -1.14653,0.0995 0,0.0811 -0.0963,0.39864 -0.21414,0.70555 -0.14051,0.36618 -0.019,0.55802 0.35278,0.55802 0.31182,0 0.56691,-0.22708 0.56691,-0.50463 z m -179.39656,-1.59451 c 0.61884,-1.19673 0.65676,-1.42863 0.23357,-1.42863 -0.39624,0 -2.16478,1.76856 -2.16478,2.16477 0,0.76637 1.4376,0.21838 1.93121,-0.73614 z m -1.57844,-1.93698 c 0,-0.0856 -0.15875,-0.25368 -0.35277,-0.3736 -0.19403,-0.11991 -0.35278,-0.0499 -0.35278,0.15557 0,0.20548 0.15875,0.3736 0.35278,0.3736 0.19402,0 0.35277,-0.07 0.35277,-0.15557 z m -148.87222,119.39446 c 0,-0.19403 0.15875,-0.35278 0.35278,-0.35278 0.19403,0 0.35278,0.15875 0.35278,0.35278 0,0.19402 -0.15875,0.35277 -0.35278,0.35277 -0.19403,0 -0.35278,-0.15875 -0.35278,-0.35277 z m -131.58611,-16.05139 c -0.48507,-0.27729 -1.55663,-0.5098 -2.38125,-0.51667 -1.52128,-0.0127 -1.85915,-0.33301 -1.05511,-1.00031 0.53129,-0.44093 2.79733,-0.18865 4.44967,0.49537 0.99999,0.41398 1.11967,0.57688 0.75055,1.02164 -0.53163,0.64058 -0.64323,0.64057 -1.76386,-3e-5 z m 17.48883,-4.02785 c -0.63213,-0.6985 -0.64864,-2.18599 -0.0263,-2.37278 0.30845,-0.0926 1.5875,2.17308 1.5875,2.81203 0,0.48672 -0.97023,0.21373 -1.56117,-0.43925 z m 2.16169,-0.29368 c -0.26176,-0.53358 -0.4112,-1.25702 -0.33209,-1.60764 0.22473,-0.99601 1.28817,-0.54552 1.51504,0.64181 0.38291,2.00389 -0.37152,2.61985 -1.18295,0.96583 z m 2.95373,0.47287 c -0.55931,-0.67393 -0.35245,-1.79579 0.33114,-1.79579 0.59932,0 0.92581,1.50352 0.43342,1.99592 -0.20087,0.20087 -0.49584,0.12366 -0.76456,-0.20013 z m 100.71545,-1.50849 c -0.63777,-0.93857 -0.78131,-1.42334 -0.51609,-1.74292 0.51242,-0.61743 1.0669,-0.29738 1.99448,1.1512 1.38591,2.16433 -0.0258,2.72936 -1.47839,0.59172 z m 11.08864,0.59414 c -0.48507,-0.37915 -1.00239,-0.69289 -1.14959,-0.6972 -0.60986,-0.0179 -2.31445,-1.88014 -2.13913,-2.33701 0.29116,-0.75874 1.14164,-0.58955 2.39804,0.47708 0.62851,0.53357 1.4936,1.25555 1.92242,1.6044 1.42475,1.15901 0.41963,2.08717 -1.03174,0.95273 z m -14.46389,-0.89251 c 0,-0.80569 0.19532,-1.32074 0.55288,-1.45795 0.90423,-0.34699 1.19566,0.3269 0.67341,1.55722 -0.63966,1.50693 -1.22629,1.45945 -1.22629,-0.0993 z m 18.93975,0.66518 c -0.13339,-0.13339 -0.24253,-1.02147 -0.24253,-1.97349 0,-1.45864 0.0971,-1.71226 0.61736,-1.61207 0.48785,0.094 0.61736,0.48174 0.61736,1.84855 0,1.60154 -0.40996,2.31924 -0.99219,1.73701 z m 2.12443,0.008 c -0.29225,-0.29225 1.0781,-2.95492 1.52076,-2.95492 0.60209,0 0.3729,1.98261 -0.29953,2.59115 -0.70628,0.63918 -0.89085,0.69416 -1.22123,0.36378 z m 7.72545,-0.44322 c -0.51445,-0.56846 -0.52202,-0.6991 -0.0626,-1.08038 0.64511,-0.53539 1.25908,-0.20119 1.25908,0.68534 0,0.96472 -0.52428,1.13782 -1.19648,0.39504 z m 57.56996,-0.36421 c -1.65397,-1.04892 -2.30585,-2.02847 -1.73188,-2.60243 0.32137,-0.32138 3.91893,2.42476 3.91934,2.99175 3.5e-4,0.65645 -0.74869,0.52312 -2.18746,-0.38932 z m 187.74874,-0.68881 c 0,-0.8423 1.30803,-2.51702 1.96589,-2.51702 0.73399,0 0.61634,0.93435 -0.26836,2.13095 -0.87323,1.18112 -1.69753,1.36859 -1.69753,0.38607 z m 12.41778,0.23465 c -0.49809,-0.49809 -0.57055,-2.04611 -0.0958,-2.04611 0.56847,0 1.4363,1.08098 1.4363,1.78909 0,0.76419 -0.69931,0.89826 -1.34055,0.25702 z m -185.92797,-0.36686 c -0.49335,-0.49335 -0.54983,-2.73758 -0.0689,-2.73758 0.7866,0 1.45168,2.54515 0.77444,2.9637 -0.16296,0.10072 -0.48046,-10e-4 -0.70555,-0.22612 z m -39.21481,-1.63606 c 0,-1.84282 0.83073,-3.16345 1.26995,-2.01887 0.37035,0.96511 -0.19529,3.73957 -0.7624,3.73957 -0.37218,0 -0.50755,-0.45894 -0.50755,-1.7207 z m 67.57193,0.81212 c -0.46684,-0.7125 -0.50225,-1.00989 -0.16817,-1.41244 0.56252,-0.67779 1.38791,-0.0185 1.38791,1.10867 0,1.19912 -0.54427,1.33467 -1.21974,0.30377 z m -6.80596,0.32869 c -0.5997,-0.25086 -0.55937,-1.51349 0.0559,-1.74959 0.27328,-0.10486 0.68941,-0.65551 0.92474,-1.22365 0.23533,-0.56814 0.64674,-1.03298 0.91424,-1.03298 0.57292,0 0.66594,1.61126 0.11276,1.95315 -0.20548,0.127 -0.32455,0.6523 -0.26458,1.16735 0.084,0.72113 -0.0532,0.95182 -0.59653,1.00331 -0.38806,0.0368 -0.90399,-0.0161 -1.14653,-0.11759 z m 145.97049,-0.46224 c -0.31673,-0.59182 -0.28067,-0.77491 0.1881,-0.95479 0.58741,-0.22541 1.29307,0.47675 1.09833,1.09293 -0.20672,0.65431 -0.9023,0.57962 -1.28643,-0.13814 z m 10.70221,0.16018 c -0.28917,-0.75362 0.10707,-1.5875 0.75438,-1.5875 0.74796,0 1.0606,0.94719 0.52543,1.59199 -0.55559,0.66945 -1.02182,0.66781 -1.27981,-0.004 z m -164.16923,-0.19992 c 0,-0.20698 0.39197,-0.89021 0.87103,-1.5183 0.47907,-0.62809 1.1162,-1.72874 1.41585,-2.44591 0.53472,-1.27977 1.3187,-1.68148 1.79079,-0.91761 0.13132,0.21248 -0.0974,0.84105 -0.50834,1.39683 -0.41091,0.55578 -0.74784,1.136 -0.74874,1.28938 -0.002,0.40858 -2.09319,2.57192 -2.48569,2.57192 -0.18419,0 -0.3349,-0.16934 -0.3349,-0.37631 z m -83.60833,-0.60352 c 0,-0.15086 0.2258,-0.59666 0.50177,-0.99066 0.27597,-0.39401 0.55378,-1.25054 0.61736,-1.90341 0.1786,-1.83407 0.99415,-1.79213 1.01396,0.0521 l 0.0164,1.52871 0.87228,-1.6757 c 0.47976,-0.92163 1.10737,-1.67569 1.39469,-1.67569 0.77008,0 0.63761,0.85723 -0.35954,2.32662 -0.48507,0.71478 -0.88195,1.5341 -0.88195,1.8207 0,0.34731 -0.23516,0.45958 -0.7052,0.33666 -0.38786,-0.10142 -0.7941,-0.0406 -0.90276,0.13525 -0.24099,0.38991 -1.56705,0.4283 -1.56705,0.0454 z m 21.60806,-0.15174 c -0.20645,-0.25076 -0.48995,-1.22555 -0.63001,-2.1662 -0.2312,-1.55279 -0.19363,-1.6986 0.40796,-1.58348 0.50479,0.0966 0.71437,0.54594 0.87997,1.88667 0.2302,1.8638 -0.0362,2.61815 -0.65792,1.86301 z m 188.82639,-0.15103 c -0.41702,-0.41704 -0.47022,-0.68384 -0.19188,-0.96221 0.48289,-0.48288 1.54796,0.11329 1.71454,0.95971 0.14767,0.75024 -0.7734,0.75175 -1.52266,0.002 z m 53.79611,0.28628 c -1.66589,-0.75051 -3.88056,-2.31505 -3.88056,-2.74137 0,-0.70106 1.16307,-0.61478 2.15727,0.16003 0.46274,0.36063 1.3674,0.92556 2.01038,1.25542 1.49232,0.76561 1.22364,2.00655 -0.28709,1.32592 z m -267.56227,-0.38295 c -0.28606,-0.46286 0.17175,-1.48539 1.11989,-2.50128 0.45272,-0.48507 1.17527,-1.62728 1.60567,-2.53825 0.82554,-1.74731 1.48651,-2.31494 1.7862,-1.53396 0.20492,0.53402 -1.11628,3.174 -2.70003,5.39512 -1.08254,1.5182 -1.45285,1.75906 -1.81173,1.17837 z m 283.43727,-0.91378 c 0,-0.87803 0.14164,-1.24631 0.44097,-1.14653 0.24253,0.0808 0.44097,0.59678 0.44097,1.14653 0,0.54974 -0.19844,1.06568 -0.44097,1.14652 -0.29933,0.0998 -0.44097,-0.2685 -0.44097,-1.14652 z m 6.21852,0.95462 c -0.21612,-0.34971 1.14412,-2.54212 1.57723,-2.54212 0.43857,0 0.39829,0.84921 -0.0913,1.92368 -0.39882,0.87527 -1.13729,1.18261 -1.48597,0.61844 z m -89.28894,-0.55183 c -0.8055,-0.58898 -0.42235,-1.99029 0.54419,-1.99029 0.51929,0 0.68178,0.24724 0.68178,1.03751 0,1.25719 -0.3925,1.56223 -1.22597,0.95278 z m -120.66392,-0.65057 c -0.32506,-1.29516 0.0939,-2.39806 0.91089,-2.39806 0.89741,0 0.89482,1.28983 -0.005,2.46079 l -0.67103,0.87328 -0.23493,-0.93601 z m 58.83086,-0.45936 c -1.22819,-1.25604 -1.4546,-1.9387 -0.64304,-1.9387 0.4935,0 2.67152,2.36641 2.67152,2.9026 0,0.59528 -0.94122,0.14804 -2.02848,-0.9639 z m 69.97877,0.36677 c -0.72016,-1.09908 -0.73043,-1.95269 -0.0236,-1.95269 0.5569,0 1.64275,2.06707 1.34172,2.55414 -0.29873,0.48335 -0.73903,0.28245 -1.31819,-0.60145 z m -236.4607,0.0907 c -0.19064,-0.25075 -0.543,-1.14217 -0.78302,-1.98093 -0.49701,-1.73678 -0.1334,-2.53577 1.14981,-2.52653 1.00298,0.007 1.47832,0.36657 1.71266,1.29473 0.2605,1.03176 -0.65683,1.36373 -1.16169,0.42041 -0.60767,-1.13544 -0.77486,-0.52367 -0.2948,1.07866 0.46297,1.54523 0.0703,2.6255 -0.62296,1.71366 z m 21.22568,-1.15868 c -2.2088,-1.44076 -2.28119,-2.09044 -0.24563,-2.20463 1.07583,-0.0603 1.44475,0.0338 1.26601,0.32297 -0.14647,0.237 0.17655,0.75005 0.77036,1.22354 0.89829,0.71627 0.95881,0.87577 0.49788,1.31203 -0.45423,0.42991 -0.7617,0.34206 -2.28862,-0.65391 z m 330.24759,0.50077 c -0.98404,-0.77404 -1.24273,-1.73829 -0.46637,-1.73829 0.60727,0 2.43946,1.91869 2.1288,2.22932 -0.37765,0.37765 -0.66661,0.2923 -1.66243,-0.49103 z m -19.16765,-0.20611 c -0.25227,-0.65744 0.58551,-2.36638 1.1284,-2.3017 0.52698,0.0628 0.64258,1.79531 0.15868,2.37836 -0.55566,0.66952 -1.01114,0.64239 -1.28708,-0.0767 z m 8.59783,-1.01463 c -1.45337,-1.33148 -1.48272,-2.15943 -0.0534,-1.5082 1.04965,0.47825 2.11596,2.00676 1.69418,2.42855 -0.17033,0.17032 -0.89218,-0.2346 -1.64074,-0.92035 z m -14.10607,0.66573 c -0.54345,-0.54345 -0.22838,-1.53605 0.48758,-1.53605 0.54874,0 0.70206,0.19028 0.61736,0.76611 -0.11709,0.79562 -0.68414,1.19075 -1.10494,0.76994 z m -313.85315,-1.16198 c -0.45369,-1.09531 -0.26645,-1.78519 0.48454,-1.78519 0.47692,0 1.27053,1.44268 1.27053,2.30966 0,0.94517 -1.30827,0.55422 -1.75507,-0.52447 z m -15.81327,-0.0919 c -0.56354,-0.56355 -0.53449,-1.16191 0.0812,-1.67292 0.40286,-0.33434 0.58038,-0.27709 0.88068,0.28403 0.36921,0.68988 0.18707,1.81222 -0.2941,1.81222 -0.13446,0 -0.43497,-0.1905 -0.66781,-0.42333 z m 7.57297,-0.16463 c -0.43685,-0.43684 -0.23903,-1.80452 0.29038,-2.00768 0.3506,-0.13453 0.59655,0.0811 0.73877,0.64776 0.30227,1.20435 -0.3383,2.05078 -1.02915,1.35992 z m 3.16034,-1.81007 c -0.11866,-0.19198 0.0213,-1.02092 0.31103,-1.84209 0.77564,-2.19841 0.69078,-2.7497 -0.44337,-2.8802 -1.49075,-0.17153 -1.26496,-1.16996 0.26459,-1.16996 1.19838,0 1.23991,-0.0459 1.41111,-1.5601 0.17345,-1.53408 0.79897,-2.27045 1.1505,-1.35438 0.19708,0.51358 -0.43565,4.13033 -1.15789,6.61865 -0.51129,1.76154 -1.1964,2.73752 -1.53597,2.18808 z m 225.92294,-69.96214 c -1.98967,-1.90145 -4.99841,-2.93204 -8.60027,-2.94589 l -3.11929,-0.012 -0.46313,-1.34627 c -0.25474,-0.74044 -0.75078,-1.66411 -1.10236,-2.05258 -0.57605,-0.63654 -0.58808,-0.79494 -0.12171,-1.60356 0.68873,-1.19425 2.77407,-1.86492 5.81893,-1.87144 2.03856,-0.004 2.5866,-0.13072 3.08335,-0.71087 1.07399,-1.25433 3.13041,-0.54903 3.57604,1.22649 0.12287,0.4896 0.44037,0.89018 0.70552,0.89018 1.38955,0 6.20723,3.82823 6.20723,4.93238 0,0.36212 -0.49449,1.02766 -1.09891,1.47898 -0.60437,0.45132 -1.60782,1.33652 -2.2299,1.96711 -0.62206,0.63059 -1.21525,1.14653 -1.31823,1.14653 -0.10297,0 -0.70474,-0.49458 -1.33727,-1.09906 z m 3.30475,-2.78149 c 1.00436,0 0.59796,-0.96752 -0.99558,-2.3702 -2.27351,-2.00122 -5.8064,-3.09786 -9.9799,-3.09786 -4.11964,0 -4.73365,0.40861 -3.74534,2.49241 l 0.64343,1.35671 3.175,0.0367 c 3.25992,0.0376 5.36635,0.6936 7.53752,2.34727 0.80751,0.61502 0.86688,0.61292 1.81836,-0.0646 0.54099,-0.38521 1.23691,-0.70038 1.54651,-0.70038 z m 100.04622,-14.37903 c 0,-0.48432 1.37157,-1.13623 1.93534,-0.91989 0.42655,0.16368 0.46002,0.32285 0.14715,0.69984 -0.4232,0.50989 -2.08249,0.68522 -2.08249,0.22005 z"
         id="path5073"
         inkscape:connector-curvature="0" />
    </g>
  </g>
</svg>
