<?xml version="1.0" encoding="utf-8"?>

<!DOCTYPE svg PUBLIC "-//W3C//DTD SVG 1.1//EN" "http://www.w3.org/Graphics/SVG/1.1/DTD/svg11.dtd">
<svg version="1.1" id="Layer_1" xmlns="http://www.w3.org/2000/svg" xmlns:xlink="http://www.w3.org/1999/xlink" x="0px" y="0px"
	 viewBox="0 0 1020.703 1644.644" enable-background="new 0 0 1020.703 1644.644" xml:space="preserve">
<g id="_x31_">
	<g id="Brain_Silhouette">
	</g>
	<g>
		<path id="path1288_2_" d="M508.367,22.337c-164.149,0-282.928,56.123-361.047,139.248S31.721,354.607,29.099,461.868
			c-2.625,107.397,35.31,204.708,78.403,285.293c43.093,80.584,91.455,144.849,109.575,184.569
			c17.133,37.558,14.765,80.31,17.927,123.251c3.161,42.942,12.338,86.31,53.473,123.087c0.627,0.567,1.418,0.919,2.259,1.005
			c0.119,0.011,0.23,0.01,0.35,0.021l-0.123,16.407l11.274,26.552c1.791,14.202,1.032,21.956-0.657,29.201
			c-11.924,9.146-22.498,24.123,9.959,32.527v21.911c-33.898,15.394-22.22,31.257,0,43.144l-1.992,15.935
			c-31.659,11.753-19.732,34.538,1.314,45.793v14.6c-26.551,11.505-25.874,32.759,0.678,47.805v22.568l65.712,61.728l47.128,47.128
			l1.335,17.927h167.934v-14.6l53.761-50.455c12.593-3.703,41.688-29.798,78.998-67.047l4.538-16.921l-15.976-11.109l0.473-14.005
			c27.743-5.77,31.03-38.316,0-43.596v-15.915c37.813-7.84,28.739-35.739,3.306-41.83v-13.266
			c45.388-18.835,25.242-39.577,4.661-44.479v-21.91c26.391-4.443,26.016-34.883,7.495-44.192l8.419-17.742l0.575-20.905
			c1.516-0.04,3.043-0.079,4.559-0.159c0.815-0.022,1.604-0.294,2.259-0.779c35.796-26.773,44.31-67.235,46.799-110.129
			c2.49-42.894-0.722-88.846,10.391-128.302c13.188-46.83,57.526-100.909,99.965-172.289
			c42.439-71.38,82.806-160.426,87.479-278.167c4.679-117.883-33.759-235.944-114.626-324.576
			C795.857,81.316,672.562,22.322,508.367,22.322V22.337z M508.367,30.263c162.294,0,283.099,58.097,362.443,145.059
			s117.216,202.96,112.614,318.909c-4.608,116.09-44.282,203.577-86.37,274.368c-42.089,70.791-86.83,124.541-100.827,174.24
			c-11.649,41.364-8.191,87.835-10.637,129.986c-2.426,41.798-10.542,78.613-43.062,103.456
			c-44.906,1.482-89.862,2.877-135.182,3.759l-5.503-138.262l-19.714-41.296l0.163-3.779l1.971-1.641
			c0.858-0.687,1.393-1.698,1.479-2.793l2.834-44.479l9.508-13.964l-1.869-42.241l-3.922-1.951
			c1.696-56.062,28.878-138.844,62.611-228.001c33.769-89.251,74.047-185.07,101.504-268.228c0.704-2.079-0.411-4.335-2.49-5.039
			c-0.961-0.325-2.01-0.271-2.932,0.152c-0.028,0-0.056,0-0.084,0c-0.829-0.381-1.765-0.465-2.649-0.238
			c-79.022,18.899-158.111,33.293-245.085,10.329c-0.072-14.156-3.778-27.076-2.485-41.748c0.23-2.183-1.352-4.139-3.535-4.369
			c-0.32-0.034-0.643-0.028-0.962,0.016h-0.02c-1.856,0.262-3.277,1.786-3.409,3.656c-1.308,14.839,2.427,27.423,2.485,41.686
			c-0.403-0.119-0.766,0.037-1.171-0.079c-0.678-0.213-1.402-0.241-2.095-0.079c-70.17,17.205-140.018,18.984-209.93-2.257
			l-2.341-4.949c-0.927-1.989-3.292-2.85-5.281-1.923c-1.83,0.853-2.729,2.944-2.091,4.859c0.048,0.159,0.115,0.318,0.163,0.473
			l0.084,0.238c0.393,1.184,1.082,2.631,1.479,3.819c0,0.026,0,0.053,0,0.079c-0.295,1.507,0.304,3.05,1.54,3.962
			c27.353,81.269,65.485,173.279,98.178,259.686c33.769,89.251,60.989,172.12,62.632,228.185c-0.001,0.053-0.001,0.106,0,0.159
			l0.35,5.401l-6.715,4.641l-1.869,40.372l6.571,11.274l0.945,49.736l-15.956,50.701l0.842,126.948
			c-41.635-1.494-83.979-3.938-127.44-7.886c-38.455-34.913-47.123-74.91-50.208-116.803c-3.11-42.239-0.446-86.111-18.625-125.962
			c-18.975-41.594-66.987-105.013-109.74-184.961c-42.752-79.947-80.117-176.025-77.54-281.432
			c2.58-105.544,39.511-213.504,116.105-295.006S346.024,30.303,508.364,30.303L508.367,30.263z M746.019,396.752l-16.695,35.012
			c-0.985,1.961-0.194,4.35,1.768,5.335c0.06,0.03,0.121,0.059,0.183,0.086c-25.801,71.662-55.826,147.657-83.824,221.655
			c-33.129,87.559-60.166,168.786-62.899,226.933l-35.546-17.66l-0.924-9.384l-8.892-0.119l3.039-251l11.746-4.231v-5.175
			l21.11-5.626v-8.912l-13.615-4.21l-47.888,0.238c0-0.007,0-0.014,0-0.021c0.214-0.591,0.285-1.224,0.207-1.848
			c-3.548-57.504-9.008-113.551-10.165-171.303c86.432,22.097,165.287,8.567,242.395-9.775L746.019,396.752z M286.158,403.959
			c69.136,19.618,138.333,18.375,207.219,1.562c0.811,0.238,1.532-0.008,2.341,0.238c1.106,58.67,6.648,115.54,10.165,172.535
			c-0.003,0.498,0.087,0.993,0.266,1.458l-35.731,0.199l-13.615,5.154v10.329l21.603,1.868l2.341,6.571l12.198,3.306l-0.862,248.535
			l-11.335-0.719l-1.868,11.274l-34.501,23.863l-0.04-0.513v-0.159c-1.746-58.366-29.286-141.207-63.104-230.588
			c-27.998-73.998-58.023-149.993-83.824-221.655c2.023-0.851,2.973-3.182,2.121-5.205c-0.034-0.08-0.07-0.159-0.109-0.237
			L286.158,403.959z M511.961,916.925c11.017,0.005,19.944,8.94,19.94,19.957c0,0.001,0,0.002,0,0.003
			c-0.005,11.01-8.929,19.935-19.94,19.94c-11.01-0.005-19.935-8.929-19.939-19.94c-0.006-11.017,8.92-19.953,19.937-19.96
			C511.959,916.925,511.96,916.925,511.961,916.925z"/>
		<g>
			<g>
				<path fill="#FAFBFD" stroke="#FAFBFD" stroke-width="0.5" d="M872.896,421.97c0.046-20.696-0.779-92.721-19.342-102.003
					c1.337-15.367-0.374-35.135-13.812-42.398c5.645-27.853-34.777-57.701-36.422-59.537c-26.075-54.562-59.974-61.296-95.642-84.43
					c-7.734-4.858-39.401-33.286-105.709-39.098C586.294,68.32,467.131,79.602,436.819,82.759
					c-10.964,0.967-42.66-1.864-105.713,27.175c-1.062,0.469-2.087,1.097-3.26,1.229c-27.204,2.942-55.268,19.309-76.212,36.975
					c-40.222,23.928-80.698,61.324-95.109,102.122c-1.058,2.913-42.766,45.547-46.135,97.216c0,12.047,0.442,7.798,0.783,16.066
					c1.602,14.061,12.073,28.414,21.946,38.478c0.839,0.903,2,1.646,2.262,2.938c9.66,32.908,53.156,43.959,54.317,44.585
					c7.641,10.57,43.214,17.683,56.063,20.121c-0.66,4.055-0.604,8.234,0.314,12.249c6.846,30.415,53.429,54.09,56.341,56.564
					c22.163,16.156,84.165,11.042,111.529,7.658c0.432,35.463,49.515,68.338,80.995,84.478c3.489,2.47,21.571,18.571,42.986,28.964
					c21.908,10.568,31.277,6.542,34.049,6.007c122.73-6.689,185.455-81.795,191.658-86.561c4.602-6.674,3.025-6.989,4.739-10.067
					c0.752-2.501-0.298-5.022-0.763-7.466c-0.811-5.149-2.696-10.059-4.994-14.715c12.269,2.31,24.896,3.876,37.345,2.107
					c15.702-2.395,19.562-8.65,20.969-9.582c6.401,1.654,13.247,2.465,19.712,0.656c30.157-7.916,27.317-62.5,27.938-64.595
					C876.331,445.672,872.896,429.614,872.896,421.97z M852.302,322.583c2.974,47.592,8.986,43.064,10.301,46.906
					c2.823,6.986,5.697,14.158,6.063,21.78c0.263,0,0.787,0.008,1.05,0.012c0.478-6.449-3.674-16.765-6.147-22.741
					c-0.306-0.831-0.863-1.523-1.55-2.056c-6.089-4.701-8.117-37.421-8.492-45.102c14.221,8.56,16.99,59.13,17.728,74.725
					c0.291,7.387-6.396,17.158-12.313,22.197c-2.779-2.231-6.131-3.92-9.792-3.642c-0.406-39.798-2.424-42.606-9.124-61.915
					c0.541-2.72,1.511-5.363,1.698-8.158c1.854-18.674-8.966-36.021-10.158-38.951c4.024-0.7,7.793-3.065,9.781-6.695
					c2.962-5.248,2.548-11.534,1.833-17.299C856.049,294.031,852.016,318.39,852.302,322.583z M643.6,103.338
					c-2.93,0.895-8.467,0.404-15.219,6.683c-1.527-4.564-4.707-8.234-7.884-11.733C628.301,99.425,635.975,101.35,643.6,103.338z
					 M606.502,95.684c3.694,0.545,7.447,0.775,11.104,1.495c7.631,7.574,14.813,17.131,4.731,20.928
					c-9.421,3.404-12.827-0.443-24.944,0.163c-7.187,0.496-6.886,2.398-8.345,3.924c-4.695,3.628-10.14-0.714-9.228-2.862
					c2.933-9.961,8.978-21.617,19.207-23.41c0.843-0.163,1.682-0.37,2.525-0.56C603.198,95,604.856,95.561,606.502,95.684z
					 M430.136,85.693c0.779-0.612,1.642-1.209,2.68-1.244c29.368-3.178,151.87-14.8,167.453,9.884
					c-9.422,1.565-13.986,7.677-18.535,15.951c-0.152-8.423-7.233-14.629-11.264-15.601c-16.68-4.074-41.298-8.591-56.647-0.783
					c-4.278,2.139-7.975,5.701-9.506,10.317c-6.083-0.824-32.055-0.265-41.909,12.587c-1.515,2.063-1.137,4.763-0.966,7.149
					c-3.061-2.862-6.167-5.721-9.804-7.848c-16.97-10.457-36.336-8.895-41.086-8.953c-1.065,0.048-1.197-1.276-0.803-2
					c1.085-2.576,3.161-4.556,5.065-6.54C419.556,93.895,424.84,89.764,430.136,85.693z M324.9,112.963
					c-3.29,2.693-28.934,15.114-33.715,28.383c-2.032-2.129-5.41-8.035-14.277-9.729C281.298,127.761,308.917,114.036,324.9,112.963
					z M123.908,302.298c8.468-18.201,19.99-34.848,32.971-50.111c1.785-2.472,16.864-56.438,94.727-102.508
					c0,0,10.392-8.71,21.994-16.169c2.633-2.031,11.944,0.779,17.048,9.729c-2.799-1.964-6.425-1.833-9.617-1.113
					c-15.498,3.754-31.071,25.646-39.945,38.816c-0.529,0.799-1.125,1.598-1.34,2.552c-1.165,6.306-1.841,12.806-4.334,18.766
					c-0.541,2.164-1.575,12.53-0.604,17.008c0.06,0.477,0.286,1.018-0.052,1.451c-3.833,5.944-7.86,11.86-10.584,18.42
					c-2.346,7.164-4.361,14.496-7.8,21.239c-2.02,4.552-3.399,9.486-3.387,14.5c0.04,10.457,7.389,12.898,10.508,14.309
					c-2.441,0.787-4.966,1.352-7.284,2.477c-4.216,1.747-1.215,1.231-7.657,0.338c-13.15-2.092-29.405-1.98-39.854,6.194
					c-10.548,8.163-7.042,16.973-22.582,33.874c-1.69,2.087-18.707,7.778-23.119-5.002
					C120.145,318.991,122.047,306.019,123.908,302.298z M120.648,310.159c-0.473,6.051-0.922,12.42,1.483,18.154
					c1.395,3.526,4.377,6.441,8.063,7.459c4.091,1.24,8.385,0.374,12.456-0.477c-8.274,7.785-19.085,9.997-29.572,4.433
					C111.04,339.13,118.041,314.932,120.648,310.159z M188.972,447.539c-8.56-4.657-22.273-13.331-22.372-23.016
					c-0.418-0.036-0.839-0.064-1.252-0.087c-0.074,10.891,15.082,18.987,17.211,21.123c-2.953-0.605-35.922-12.382-45.209-38.637
					c-0.596-1.487-0.72-3.26-1.928-4.417c-9.799-9.53-20.279-23.543-22.686-36.999c-0.505-2.493-0.39-5.049-0.68-7.562
					c-0.711-5.666-0.453-11.423,0.302-17.068c3.646,1.65,7.483,3.121,11.542,3.181c17.66,1.046,31.517-19.233,38.39-35.575
					c6.855-17.242,31.986-18.532,50.258-14.428c-6.692,2.93-5.777,8.57-6.461,10.886c-3.268,10.281-5.312,20.992-5.634,31.787
					c-4.862,0.231-9.737-0.052-14.603,0.123c0,0.298,0.004,0.899,0.004,1.201c4.882,0.088,9.772-0.131,14.655,0.099
					c-0.211,10.253,1.662,20.933,7.415,29.608c2.612,4.048,6.954,6.437,11.049,8.727c-15.748-0.818-68.048-3.448-78.45,8.445
					c-4.568,5.142,1.005,10.973,2.369,13.303c3.382,5.844,13.288,22.34,20.058,22.765c6.131,0.322,12.349,0.735,18.253,2.548
					c5.995,2.365,37.311,17.686,35.663,22.141c-3.406,3.117-18.587,2.67-23.37,2.652
					C191.962,448.306,190.327,448.381,188.972,447.539z M224.181,463.613c-7.615-2.04-28.146-7.398-32.804-14.015
					c33.361,0.282,40.421-3.216-6.461-25.839c-7.949-4.064-19.685-3.495-23.099-4.282c-6.296-2.433-14.855-16.752-18.153-22.423
					c-1.998-3.128-7.464-8.906,0.875-13.725c15.938-8.776,63.349-6.494,81.48-5.089c-1.841,1.638-3.077,3.952-3.407,6.397
					c-0.151,0.859,0.223,1.67,0.584,2.429c2.046,3.984-0.988,34.815,104.722,78.291c-12.87,11.526-36.645,5.859-52.517-0.867
					c-5.164,3.375-11.51,3.841-17.497,4.222C249.171,468.722,248.837,469.841,224.181,463.613z M301.268,536.056
					c-23.468-13.213-59.83-39.936-54.134-66.201c20.885,0.98,25.431-2.561,28.308-3.805c1.487,0.211,35.735,15.838,53.177,0.362
					c0.441-0.481,1.078-0.612,1.702-0.457c8.926,1.479,17.867,2.986,26.892,3.714c4.182,1.894,28.439,19.215,39.078,1.371
					c0.93,2.421,1.65,5.085,3.61,6.918c0.978,1.018,2.453,1.145,3.761,1.419c3.32,10.508,7.932,20.559,12.993,30.328
					c0.847,1.821,2.318,3.212,3.55,4.763c-0.545-0.223-1.085-0.445-1.626-0.664c-3.753,8.748-8.275,22.667-3.697,30.951
					C387.061,548.239,323.073,553.863,301.268,536.056z M424.923,539.228c1.451,1.865,3.511,3.077,5.491,4.294
					c-3.602-0.473-7.689,0.604-10.814-1.757c-6.42-4.942-1.589-19.778,1.705-27.163c0.398,0.266,0.799,0.541,1.205,0.819
					C420.352,523.528,419.566,532.823,424.923,539.228z M416.693,540.29c1.614,3.061,5.232,4.477,8.556,4.385
					c6.171-0.215,12.257,1.054,18.408,1.137c-4.612,2.164-15.891,1.599-19.593,1.722c-14.189,0.27-10.482-18.743-5.16-31.011
					C417.633,521.514,412.724,532.963,416.693,540.29z M415.775,552.356c-0.386-2.274-0.584-4.58-0.509-6.878
					c1.344,1.006,2.64,2.167,4.282,2.672c2.862,1.014,5.936,0.489,8.902,0.616c6.186,0.024,12.639-0.075,18.384-2.644
					c8.779-2.862,30.769-4.142,34.971-3.05c-19.558,1.189-46.185,6.408-65.331,10.365
					C415.819,553.625,415.894,552.722,415.775,552.356z M469.683,534.402c0.61,0.12,21.535,5.247,21.859,5.34
					c0.231,1.109,0.438,2.222,0.589,3.352c-11.021-2.008-11.863-1.02-15.008-2.421C474.112,539.379,471.381,537.233,469.683,534.402
					z M742.821,596.365c-0.386,0.922-1.733,0.847-2.318,0.175c-3.651-3.822,1.168-3.883-1.205-14.273
					c-1.101-4.759-3.137-9.264-5.689-13.411c-0.477-0.755-1.244-1.928-0.06-2.449C739.015,565.881,750.138,583.629,742.821,596.365z
					 M744.872,595.367c0.934-2.871,1.686-5.821,1.702-8.862c0.688,0.883,1.304,1.865,2.222,2.545
					c0.883,0.672,2.294,0.457,2.862-0.529c0.978-1.706,1.049-3.737,1.288-5.638c0.815,0.898,1.59,1.837,2.318,2.819
					C751.889,589.013,748.51,592.341,744.872,595.367z M740.101,564.252c3.26-2.729,15.442,12.986,10.341,24.03
					c-1.213-0.207-2.107-1.185-2.509-2.294C747.714,582.734,749.949,578.219,740.101,564.252z M756.775,584.62
					c-1.205-0.33-2.195-1.344-2.489-2.545c-0.083-2.842,1.77-8.276-7.717-21.37c0.119-0.187,0.354-0.556,0.473-0.739
					C752.608,560.867,761.445,575.65,756.775,584.62z M759.232,581.515c-0.024-1.364,0.024-2.72,0.099-4.075
					c0.565,0.68,1.125,1.364,1.702,2.052C760.481,580.211,759.881,580.887,759.232,581.515z M762.894,577.921
					c-0.509,1.125-1.586,0.068-2.02-0.533c-0.652-0.62-0.545-1.531-0.485-2.334c0.68-6.457-2.688-12.448-6.302-17.525
					c-0.374-0.449-0.453-1.022-0.438-1.571C758.167,556.287,766.981,567.945,762.894,577.921z M765.316,573.595
					c-0.159-1.491-0.231-2.986-0.374-4.473c0.465,0.286,0.934,0.573,1.423,0.863C766.266,571.245,765.908,572.474,765.316,573.595z
					 M767.212,568.84c-0.903-0.167-1.654-0.803-1.654-1.765c-0.67-6.39-6.317-10.28-7.276-12.262
					C761.899,555.657,768.358,561.681,767.212,568.84z M867.561,474.216c-0.899,2.779-0.418,5.717-0.541,8.576
					c-0.544,20.972-5.994,49.945-26.137,55.8c-6.759,2.024-13.959,1.045-20.638-0.779c-10.481,14.085-40.508,10.981-57.983,7.578
					c-1.606-0.259-3.196,0.215-4.771,0.441c-9.59,1.483-19.247,2.556-28.932,3.149c10.796,1.829,28.896-2.264,32.451-2.31
					c2.139,3.733,3.765,7.82,4.66,12.039c-2.028-1.96-3.96-4.481-6.89-5.013c-1.177-0.27-1.742,0.867-2.095,1.765
					c-0.958-0.282-1.916-0.731-2.926-0.652c-1.097,0.219-2.079,1.729-1.248,2.704c3.634,4.998,7.192,10.834,6.679,17.259
					c-0.956-2.186-1.374-6.838-7.391-13.367c-5.521-5.521-7.337-0.863-5.988,0.453c3.864,5.109,7.844,12.389,7.32,18.837
					c-0.64-1.729-0.735-3.598-1.352-5.328c-1.512-4.297-6.102-11.965-10.56-12.87c-1.551-0.346-2.986,1.746-1.845,2.982
					c3.811,5.177,7.921,12.423,7.371,18.806c-1.087-2.298-0.538-7.393-7.24-15.776c-3.735-4.487-7.596-4.152-8.071-1.069
					c1.085,2.401,2.731,4.524,3.765,6.97c8.432,18.382-2.208,18.724,5.94,24.161c-4.747,4.222-9.856,8.015-14.961,11.788
					c-44.096,31.965-97.278,50.876-154.046,53.932c-3.233,0.368-8.68,3.981-26.284-2.664c-18.029-7.061-34.455-19.382-49.539-31.6
					c-1.388-1.085-2-2.791-2.93-4.226c-3.157-5.045-7.089-9.558-11.279-13.76c-4.356-4.406-23.081-15.23-28.383-18.102
					c-8.235-2.404-18.347-13.89-24.145-20.853c-3.395-4.093-4.553-5.322-3.209-10.699c-0.346-0.179-0.688-0.346-1.026-0.505
					c-0.986,2.274-1.157,4.93-0.111,7.22c1.371,3.19,17.769,22.729,26.626,25.485c2.274,0.7,4.206,2.119,6.258,3.272
					c21.791,12.788,21.789,13.459,27.139,19.354c3.01,3.415,5.9,6.997,8.059,11.025c-11.113-5.324-54.76-29.978-71.401-59.414
					c-3.622-6.845-3.466-5.975-0.394-9.86c-0.171-0.405-0.624-0.537-0.95-0.752c-0.871,0.871-1.646,1.837-2.35,2.855
					c-0.779-2.043-1.427-4.135-1.94-6.258c10.051-2.125,67.882-14.352,76.515-9.109c-0.135,3.149-3.074,19.516,5.574,36.199
					c2.171,4.635,7.134,7.465,10.44,29.707c0.597,4.588,1.165,9.196,1.209,13.832c-2.898-1.908-6.218-3.041-9.141-4.91
					c0.27-0.091,0.811-0.282,1.085-0.374c-0.286-0.748-0.799-1.36-1.388-1.873c-0.064,0.604-0.119,1.217-0.171,1.837
					c-4.636-2.501-8.715-5.912-12.711-9.311c-1.483-0.942-0.735-3.121-2.282-4.016c-0.06,0.553-0.115,1.117-0.167,1.686
					c-2.127-2.111-4.922-3.674-6.337-6.401c-1.161-0.266-2.215-0.851-3.081-1.658c-1.897-1.705-4.186-2.942-5.884-4.862
					c-0.672-0.74-1.427-1.396-2.222-1.988c-0.711,0.783-1.602-0.294-2.326-0.553c-2.262-1.479-5.029-1.952-7.2-3.582
					c-2.696-1.924-5.646-3.554-7.96-5.96c-6.006-6.138-4.646-6.997-8.289-9.196c0.835,2.04,2.29,3.729,3.304,5.677
					c-2.107-1.197-9.778-7.41-11.804-11.526c-0.362-0.815-0.954-1.483-1.781-1.825c0.254,3.061,2.537,5.339,4.528,7.455
					c7.83,7.612,21.871,16.953,23.835,17.883c19.253,6.785,35.177,37.245,66.229,37.818c1.264,0.183,3.041-0.672,3.884,0.64
					c7.729,10.277,16.543,19.891,26.972,27.489c2.632,2.338,5.304,4.644,8.146,6.727c0.219-0.159,0.656-0.477,0.875-0.636
					c-4.305-5.546-54.749-32.442-73.218-123.954c1.92,0.326,3.829,0.728,5.713,1.248c0.475,3.041,3.395,16.045,4.93,18.678
					c1.835,3.495,1.546,1.908,1.34,5.86c0.425-0.008,0.855-0.008,1.288-0.008c-0.066-6.874,7.502-10.814,13.84-13.717
					c2.7-1.093,5.387-2.318,8.254-2.922c-10.967,5.774-19.992,12.308-16.774,24.356c2.697,10.524,9.85,28.987,11.307,31.596
					c6.325,10.982,5.73,12.406,5.971,15.728c0.418-0.222,1.045-0.346,1.073-0.93c0.429-1.873-0.541-3.642-0.735-5.463
					c1.352-3.146,3.649-4.713-1.435-15.796c-1.772-4.72-9.395-24.901-9.077-30.005c1.09-9.199,9.837-16.685,17.251-19.966
					c-14.594,17.505-13.311,21.801-9.972,33.504c2.203,7.367,4.847,14.591,7.626,21.76c0.839,2.373,2.763,4.131,4.632,5.717
					c1.049,0.89,2.934,1.61,3.912,0.226c3.717-5.991-5.659-25.266-8.608-31.695c-5.685-12.879-0.728-25.179,6.842-29.564
					c-1.538,2.42-8.363,9.697-4.131,20.094c3.463,7.526,6.425,15.275,9.673,22.893c1.322,2.778,9.829,10.726,11.136,0.911
					c0.131-1.475,0.489-3.145-0.425-4.445c-2.583-3.926-12.7-19.163-12.794-23.763c-0.235-5.339,0.099-11.037,2.962-15.712
					c0.545-1.058,1.956-0.584,2.922-0.716c-5.097,11.751,4.803,26.592,13.12,36.347c1.447,1.539,2.998,3.439,5.256,3.626
					c1.447,0.127,2.473-1.169,2.871-2.413c1.433-3.694-3.694-12.087-7.876-18.941c-1.779-3.314-8.087-2.474-6.699-18.285
					c-0.263-0.071-0.787-0.215-1.045-0.286c-0.886,4.002-0.816,11.86,3.129,16.027c1.101,1.173,2.731,1.797,3.554,3.244
					c2.077,3.367,8.053,12.97,7.979,16.897c-1.496,9.376-15.426-11.946-18.483-19.946c-2.052-5.292-2.978-11.633-0.075-16.794
					c2.604,0.473,5.248,0.191,7.88,0.195c-0.609,13.751,13.034,24.751,14.007,25.819c13.318,14.205,2.394,20.602-0.302,23.286
					c-5.423,5.316-10.842,10.647-15.903,16.313c-6.137,6.993-2.336,4.904-8.914,10.15c-4.067,3.113-9.065,5.332-14.285,4.922
					c0.004,0.438,0.02,0.879,0.036,1.332c7.005,0.354,13.47-3.38,18.36-8.103c1.682-1.459,2.425-3.634,3.88-5.28
					c5.761-6.845,17.414-18.309,20.44-20.893c4.824-4.175,5.98-10.107,1.88-17.02c-4.237-7.107-7.235-6.796-13.112-15.518
					c-2.647-4.011-5.761-10.667-4.564-15.259c8.813,12.161,9.143,13.687,28.232,26.181c0.918,0.541,1.065-1.181,0.243-1.375
					c-17.006-11.404-17.798-12.794-20.777-16.603c-1.308-1.722-2.815-3.316-3.801-5.252c6.802,4.904,8.539,11.26,24.873,13.995
					c0.076-0.429,0.151-0.851,0.235-1.268c-6.361-0.971-14.769-3.808-19.469-9.343c-1.042-1.28-2.731-2.107-3.236-3.753
					c2.126,0.544,8.304,6.282,22.662,5.053c-0.02-0.398-0.032-0.791-0.04-1.177c-7.101,0.35-14.738-0.366-20.71-4.576
					c6.132-4.034,0.302-1.635,27.652-4.819c2.103-0.422,3.924,0.978,5.944,1.264c5.252,0.922,10.607,1.086,15.931,1.054
					c22.451,0.264,17.719-1.761,24.789,0.374c52.97,16.406,93.185,11.353,109.223,3.694c-0.171-0.362-0.33-0.72-0.477-1.069
					c-29.108,11.832-69.889,6.969-101.287-1.725c-2.453-0.775-4.994-1.296-7.367-2.306c7.129-0.044,14.221-0.938,21.326-1.403
					c4.878,0.789,4.469,2.791,15.458,2.823c-3.9-0.886-7.832-1.682-11.617-3.01c-1.503-0.485-2.99-1.308-4.62-1.078
					c-14.888,1.429-45.32,3.698-60.237,1.567c-1.924-0.159-3.622-1.189-5.467-1.578c-15.628,1.685-69.418,7.266-83.746,0.489
					c-1.897-0.887-4-1.069-6.02-1.499c-26.125-5.24-48.294-11.526-48.294-11.526c2.039,1.233,4.378,1.797,6.524,2.799
					c1.197,0.469,1.674,1.765,2.453,2.688c1.654,2.278,3.96,3.912,6.238,5.507c-1.316,0.024-2.7,0.259-3.948-0.263
					c-2.097-0.874-8.406-1.566-13.315-11.319c-0.338,0.123-0.672,0.255-1.002,0.386c0.473,2.026,4.081,8.274,11.172,11.335
					c-5.713,0.291-12.904,4.522-25.56-16.734c-0.37,0.151-0.735,0.31-1.093,0.481c7.242,13.234,13.636,15.784,16.305,17.45
					c-13.484,0.61-23.012-9.667-26.097-22.515c-0.421,0.091-0.839,0.195-1.248,0.302c2.749,11.12,9.611,20.147,21.012,22.92
					c-1.364,0.775-20.308,3.948-26.789-6.532c-3.814-5.999-3.135-15.256-0.882-21.433c-2.203-1.578-4.477-3.256-5.769-5.705
					c-5.608-10.596-14.076-28.912-15.561-40.482c48.435-13.531,300.866-85.481,312.847-135.074c-0.366-0.159-0.72-0.318-1.069-0.473
					c-56.661,54.639-244.659,109.967-312.454,126.935c-0.028,0.433-0.048,0.871-0.064,1.316
					c42.287-10.597,238.248-64.558,306.299-120.988c1.578-1.288,3.018-2.747,4.719-3.888c-2.497,6.761-12.884,15.415-18.957,19.887
					c-59.084,42.829-221.965,92.051-291.788,111.016c-0.322,0.151-1.042,0.183-0.918,0.708c0.239,3.157,1.431,6.135,1.837,9.26
					c-4.121-0.493-5.599-7.086-6.222-11.188c-1.576,2.967-6.615,21.024-36.092,3.368c-5.989-3.24,3.431-0.444-20.638-3.948
					c-3.833-0.696-7.753-1.014-11.506-2.067c-105.904-42.551-102.616-75.184-104.285-77.834c-1.803-2.424,2.482-7.518,3.765-9.236
					c-6.425-0.227-12.484-3.272-17.12-7.618c-1.591-1.55-2.707-3.499-3.761-5.431c-8.981-16.72-5.532-41.249,0.271-59.323
					c0.691-2.533-1.853-11.007,20.269-15.076c-0.167-0.66-0.616-1.129-1.32-1.173c-15.303-3.076-14.282-17.321-7.558-30.367
					c6.923-15.687,2.785-13.475,12.166-29.234c8.771-14.199,24.057-34.391,24.057-34.391c0.135-0.879-1.065-0.883-1.348-0.179
					c-7.428,9.775-17.748,24.304-17.748,24.304c-0.843-4.465-0.076-9.029,0.226-13.51c0.048-2.437,1.407-4.533,1.948-6.854
					c1.117-4.505,1.972-9.069,2.652-13.657c0.278-2.478,30.291-49.867,49.586-40.486c2.224,1.054,1.07,2.754,6.031,4.354
					c-0.819-1.869-2.35-3.216-3.789-4.592c-4.868-18.213,89.866-60.762,136.696-59.307c-1.873,1.89-19.58,14.394-21.016,20.996
					c-0.358,1.531,1.01,3.105,2.584,2.91c15.256-1.109,33.045,2.354,45.181,12.317c2.119,1.59,3.674,3.817,5.912,5.264
					c0.763,0.899,0.986,2.131,1.558,3.153c0.64,1.487,2.012,2.739,1.912,4.469c0.096,9.803-5.569,7.411-7.88,8.488
					c-47.273,20.437-43.685,23.261-46.279,26.077c-5.936,6.155-11.589,12.587-16.806,19.362
					c-19.516,25.675-9.27,24.799-12.695,40.979c-0.374,1.972-1.475,3.709-1.904,5.669c-1.125,4.95-2.421,9.868-3.96,14.706
					c-1.952,6.728-6.26,12.402-13.458,12.77c-9.157,0.55-17.865-6.401-21.386-8.051c-3.236-1.594-5.884-4.62-6.536-8.226
					c-0.326-1.618-0.084-3.419-1.109-4.819c-3.097-4.97-4.592-11.076-3.387-16.869c0.35-1.678,1.372-3.196,1.312-4.958
					c-0.455-25.036,27.511-43.565,68.237-77.397c0.982-0.843,2.091-1.567,2.922-2.568c-0.106-1.172-4.594-5.059-14.237-5.136
					c-8.978,0.048-20.118,3.434-23.278,5.371c-40.857,23.933-30.446,21.602-34.498,24.737c-4.378,3.626-9.196,6.755-14.408,9.041
					c-12.969,5.569-13.815,1.143-27.696,3.304c-7.041,1.149-13.903,3.467-20.165,6.898c-1.368,0.744-2.334,2.004-3.229,3.24
					c0.91-0.453,1.793-0.954,2.668-1.467c12.288-7.129,26.241-8.834,31.962-7.92c3.065,0.457,6.155,0.068,9.208-0.282
					c-6.662,4.807-18.468,12.557-24.507,20.114c-2.457,3.368-1.699,2.386-1.817,9.423c-0.529-0.457-1.054-0.918-1.578-1.375
					c-3.884,5.3-6.512,11.41-8.807,17.533c-0.282,0.616-0.298,2.143,0.68,1.904c2.127-6.063,4.679-12.035,8.218-17.418
					c0.918,1.089,1.729,2.262,2.648,3.36c0.513-11.084-1.106-8.995,2.087-13.196c6.92-8.181,25.892-21.032,28.78-22.137
					c6.333-2.429,12.118-6.143,17.287-10.5c3.326-2.363-5.892-1.134,34.1-24.34c2.942-1.626,24.715-9.49,34.987-1.424
					c-8.138,6.898-54.997,45.738-54.997,45.738c0.485,1.745-1.213,2.727-2.187,3.86c-7.037,7.542-12.488,17.024-13.553,27.425
					c-0.314,1.706,0.779,3.562-0.401,5.085c-3.3,7.51-8.846,14.488-16.627,17.617c-2.665,0.915-8.096-0.885-17.478,4.032
					c-2.926,1.694-6.369,2.604-8.763,5.117c-0.505,0.378-0.374,1.026-0.429,1.571c1.233-0.37,2.063-1.403,3.093-2.111
					c1.757-1.3,3.896-1.901,5.785-2.974c4.672-2.62,10.011-4.222,15.398-4.063c2.692,0.199,5.029-1.36,7.236-2.68
					c4.234-2.644,7.443-6.544,10.254-10.596c0.056,4.091,0.779,8.198,2.58,11.904c0.728,1.793,2.266,3.304,2.238,5.347
					c0.408,9.871,10.029,11.599,16.754,16.392c-1.98-0.286-3.737-1.284-5.371-2.386c-5.371-3.471-12.15-5.248-18.44-3.526
					c-7.939,2.357-7.584,3.119-14.945,32.721c-0.155,1.344-1.65,2.302-1.193,3.725c3.833,18.629-20.567,33.373-22.253,35.305
					c-4.998,5.443-12.564,8.564-19.958,7.773c-4.453-0.658-2.705,0.393-14.206,1.002c0.187,0.378,0.374,0.759,0.565,1.141
					c3.344,0.108,6.667-0.405,9.956-0.966c1.666-0.278,3.332,0.123,4.994,0.195c7.22,0.274,14.424-2.795,19.358-8.047
					c2.596-2.949,11.472-7.262,18.503-18.058c1.137-1.698,1.912-3.598,2.962-5.343c0.767,8.564,2.878,16.973,5.852,25.032
					c1.572,3.573,1.678,14.504,16.487,18.074c1.884,0.529,3.845,0.656,5.765,0.978c-1.731,0.818-21.729,1.902-24.61,12.229
					c-0.832,3.005-8.592,9.269,6.643,41.571c1.483,3.022,0.636,6.783-1.527,9.252c-4.218,4.699-10.755,5.884-16.659,7.033
					c0.226,0.358,0.457,0.72,0.688,1.085c5.451-0.879,11.136-2.231,15.474-5.841c3.24-2.668,4.998-7.351,3.467-11.387
					c-3.316-7.081-6.373-14.345-8.21-21.962c8.03,5.745,17.938,10.804,27.143,6.878c5.061-2.143,8.822-6.604,11.208-11.446
					c0.696-0.696-0.688-1.451-1.022-0.66c-8.551,16.155-22.65,15.102-36.844,3.908c-1.447-0.95-1.308-2.847-1.574-4.349
					c-0.354-3.805-0.676-8.035,1.519-11.387c1.396-2.332,0.382-7.32,12.699-11.164c31.385-9.231,53.117,9.586,153.374-8.043
					c0,0,7.447,7.489,21.963,18.488c0.274-0.298,0.549-0.596,0.827-0.895c-3.745-2.901-18.803-14.634-21.493-18.555
					c12.115-13.452,25.518-17.499,41.388-8.226c12.945,7.571,16.117,21.438,12.651,36.287c-0.871,3.888-2.346,7.602-3.793,11.307
					c-7.287,17.39-29.445,11.285-32.442,11.247c-12.778-0.573-40.807-0.839-43.165-1.244c-23.57-7.959-62.466-3.871-66.313-4.839
					c-4.051-0.978-8.409-1.733-12.492-0.529c-2.998,0.867-4.966,3.829-5.045,6.882c-0.195,4.823,1.726,9.427,3.884,13.641
					c4.282,8.576,3.578,19.267-1.379,27.409c-2.707,4.274-7.494,6.552-12.102,8.194c-1.57,0.477-3.24,1.348-4.894,0.696
					c-4.222-1.348-8.612-3.324-11.192-7.101c-5.121-7.33,3.749-16.521,10.015-22.372c-1.342-3.492-10.634-24.807-11.594-26.721
					c-0.366,0.147-0.728,0.306-1.082,0.473c3.721,8.624,7.554,17.199,11.188,25.859c-3.427,3.399-7.053,6.755-9.327,11.089
					c-7.408,13.669,8.39,18.555,10.504,19.823c-7.79,1.75-23.769,2.83-30.292,2.194c-2.568-0.163-5.085-0.751-7.649-0.922
					c0.445,0.644,0.91,1.412,1.797,1.451c6.119,1.042,12.38,1.272,18.551,0.549c11.788-0.501,30.045-2.409,36.824-12.059
					c5.443-8.5,6.322-19.863,1.837-28.968c-13.731-26.928,12.096-17.974,14.75-17.99c17.066-1.045,43.729-1.134,60.301,3.395
					c1.849,0.453,3.59,1.443,5.538,1.431c8.221,0.028,35.556,0.484,43.686,1.097c11.574,2.394,23.771,0.661,29.795-9.375
					c1.722-2.797,8.216-16.937,6.282-30.777c-3.031-22.612-34.171-38.338-55.729-14.293c-0.847,0.883-1.563,2.151-2.922,2.222
					c-59.862,10.741-111.898,7.789-122.542,5.267c1.068-0.05,70.79,0.498,75.54,0.135c15.713-4.968,20.549-16.709,4.413-33.608
					c10.191-4.264,20.856-9.482,25.978-19.155c1.34,0.807,2.668,1.821,4.286,1.952c2.7,0.326,5.224-0.863,7.697-1.753
					c18.523-6.709,37.822-13.589,45.404-15.072c25.387-5.556,24.367-5.554,25.513-4.914c12.513,5.875,32.11,13.634,45.881,14.321
					c-1.551,2.059-3.177,4.095-4.234,6.473c-5.205,10.787-2.265,23.566,3.467,33.977c1.089,1.813,0.577,4.004,0.7,6.007
					c0.247,12.4,1.882,34.816,9.172,44.823c0.358-0.131,0.724-0.263,1.097-0.386c-5.669-8.665-8.706-25.945-7.653-32.598
					c1.74-14.958,15.803-24.516,30.324-27.87c0.024-0.294,0.071-0.887,0.091-1.181c-2.731,0.246-5.288,1.312-7.836,2.246
					c-14.479,5.655-20.714,14.254-23.501,24.165c-0.342-4.254-0.517-8.528-0.489-12.794c0.123-2.266-1.547-4.011-2.338-6
					c-11.104-23.617,1.987-37.023,3.908-36.887c14.567-0.511,31.933-11.344,43.531-20.161c2.74-1.863,7.367-19.781,26.69-15.506
					c16.165,1.884,32.645,1.936,48.711-0.89c1.629-0.331,13.97-1.91,17.923-9.888c3.106-6.196-2.148-11.954-2.668-13.224
					c1.121-4.206,2.565-8.584,1.554-12.973c5.013-0.175,8.735-4.111,11.288-8.047c-0.282-0.263-0.56-0.525-0.823-0.787
					c-1.809,2.099-3.328,4.533-5.741,6.016c-7.571,5.007-7.73-3.254-27.58-10.011c-10.118-3.519-21.66-4.286-31.639,0.08
					c-3.431,1.372-6.131,3.976-9.268,5.848c-16.773,10.419-39.568,12.859-57.26,10.274c1.825-5.964,3.976-11.828,5.837-17.784
					c-0.362-0.139-0.716-0.274-1.062-0.41c-2.183,5.904-4.016,11.939-6.047,17.899c-21.064,1.353-39.709-12.88-45.702-35.806
					c-0.68-5.757-1.849-11.709-5.339-16.488c-5.58-7.838-15.619-9.093-25.032-6.373c-16.854,5.536-50.079-13.93-56.639-19.271
					c5.6-7.408,13.005-14.968,22.197-16.014c0.016-0.282,0.048-0.843,0.064-1.125c-9.226-0.058-17.721,9.454-23.418,16.4
					c-2.89-2.262-5.578-5.145-6.417-8.826c-0.935-2.435-6.716-11.142-2.759-15.526c8.115-9.566,25.251-11.91,37.794-11.804
					c2.008-0.064,3.57,1.407,5.367,2.067c2.962,1.193,5.948,2.417,9.089,3.05c-3.455-2.258-7.407-3.582-11.104-5.367
					c1.776-2.331,3.688-11.315,22.61-13.625c18.276-1.984,42.434,4.267,44.227,5.196c5.212,2.99,9.025,8.771,8.667,14.913
					c0.127,3.626-2.413,6.715-2.198,10.349c0.064,6.274,0.115,12.635,1.582,18.774c0.183,0.819-0.366,1.737,0.278,2.453
					c9.09,14.594,12.751,26.994,26.55,31.918c13.062,4.754,27.689-3.579,29.099-6.373c5.113-9.574,13.225-17.122,24.03-17.346
					c36.262-0.927,76.987,32.424,80.411,34.315c-8.368-9.728-42.076-30.633-67.636-34.406c-3.431-0.557-6.914-0.588-10.353-1.034
					c-11.813-1.256-21.685,6.939-27.366,17.51c-1.461,2.956-24.741,17.991-41.774-4.918c-2.052-2.608-3.356-5.689-5.009-8.544
					c-6.088-11.145-8.327-10.504-8.568-31.608c1.713,1.276,3.658,2.636,5.924,2.322c9.565-1.344-0.121-7.103,21.751-4.874
					c2.879,0.274,5.729,1.129,8.643,0.803c14.558-1.496,11.736-8.122,13.391-9.713c4.548-4.858,11.538-6.731,18.03-6.182
					c3.196,0.143,6.138,1.487,9.152,2.429c30.286,10.447,38.354,19.896,54.476,29.815c34.141,21.157,65.917,29.326,90.581,80.009
					c2.086,3.862,1.817,11.668,1.217,16.285c0.346,0.123,0.704,0.25,1.065,0.386c1.097-4.385,0.724-8.973,0.111-13.402
					c10.083,7.444,33.628,29.509,35.063,49.606c0.088,1.746,0.259,3.559-0.298,5.248c-5.873-12.464-25.772-30.721-36.12-39.679
					c-5.488-4.57-25.435-42.339-28.323-44.871c-14.948-13.94-57.695-53.593-73.787-44.68c-4.239-12.047-8.802-6.808-21.772-22.177
					c-0.286,0.259-0.565,0.517-0.835,0.775c3.006,4.063,6.87,7.411,10.822,10.52c3.592,2.02,13.101,5.855,10.969,21.247
					c0.298-0.012,0.89-0.032,1.185-0.044c0.481-2.871,0.596-5.852-0.179-8.683c11.857-11.295,57.134,29.587,68.98,40.501
					c7.904,7.889,0.264-2.732,19.303,29.202c12.951,21.594,10.873,17.028,16.328,22.225c8.978,8.079,28.919,26.448,32.936,37.877
					c0.461,1.829,3.28,1.626,3.55,3.57c3.836,18.633-7.041,24.135-11.534,23.068c-1.07-0.216-24.623-4.912-26.666-5.002
					c-5.417,18.2-13.342,55.425,3.511,64.313c1.547-0.123,2.926-1.065,4.465-1.348c11.097-3.042,17.986,6.741,18.173,13.764
					c1.984,23.565-5.448,41.061-28.626,36.152c-7.283-1.646-33.177-5.618-34.251-5.785c0.012,0.425,0.032,0.851,0.06,1.284
					c9.399,1.483,18.794,3.01,28.192,4.509c3.698,0.518,15.549,4.828,24.646-0.767c11.356-6.781,12.504-24.481,10.997-37.711
					c-1.183-6.38-7.174-13.82-15.78-13.196c-2.628-0.016-5.073,0.978-7.542,1.694c-2.076-0.771-3.539-2.664-4.819-4.401
					c-3.614-5.507-4.354-12.317-4.457-18.75c-0.119-15.104,4.737-33.726,6.473-38.466c28.195,5.564,24.729,4.165,26.244,6.667
					c16.555,29.987,7.776,44.524,5.407,53.407c-0.266,0.565,0.226,1.213,0.855,0.986c1.086-1.972,1.447-4.234,2.282-6.313
					c1.926,4.061,5.923,17.55,6.826,22.352c1.543,16.839,4.322,67.136-4.95,81.094c-3.156,3.934-11.495,10.098-19.939,7.896
					c-5.673-1.503-10.011-5.908-13.299-10.568c-0.914-1.177-1.483-2.819-3.006-3.34c-10.772-4.332-23.284-4.932-30.892,3.709
					c-3.033,3.519-5.59,7.482-7.156,11.872c-3.634,0.763-7.18,1.948-10.826,2.604c-2.818-0.846-23.573-12.602-56.48-13.283
					c-29.053-0.42-49.076,7.546-52.612,8.285c7.413-5.62,33.945-15.837,61.323-9.18c40.953,9.254,51.01-38.146,50.06-42.553
					c-3.337-17.032,2.229-44.566,6.783-61.283c2.175-9.353,0.159-17.316-8.87-20.467c-9.666-3.444-24.738-1.096-32.832,1.4
					c-15.154,38.735-3.772,57.305-3.813,60.047c0.63,29.074-17.763,31.739-21.775,30.713c-12.293-3.888-25.04-7.101-38.021-6.854
					c-14.979-0.995-32.908-0.512-46.41,6.047c-11.512,5.701-15.603,14.407-15.402,19.465c1.126,27.185-43.73,63.178-65.811,79.059
					c-3.201,2.218-6.294,4.628-9.649,6.6c-1.859-0.202-80.593-19.883-84.422-20.917c8.413-6.134,65.799-32.628,75.878-37.317
					c16.785-7.384,37.294-21.94,38.45-39.845c-0.302,0-0.898-0.004-1.197-0.008c-0.6,6.254-3.526,12.035-7.371,16.909
					c-11.139,14.072-28.571,20.883-35.488,24.149c-50.11,23.449-71.03,33.554-72.51,36.84c1.076,0.339,84.392,21.23,86.744,21.513
					c2.182-0.708,72.519-47.653,76.506-83.011c0.358-2.62-0.243-5.367,0.759-7.888c1.992-5.773,6.632-10.226,11.832-13.216
					c13.703-7.839,32.93-8.033,48.501-7.113c12.818-0.199,25.377,3.041,37.512,6.866c3.908,0.858,23.866-1.053,23.175-32.419
					c0.053-2.052-11.202-20.722,3.503-58.627c22.593-6.1,45.245-4.467,39.281,18.591c-4.681,17.068-9.857,44.107-6.52,61.561
					c0.427,3.259-8.291,45.996-43.682,41.364c-3.624-0.364-29.965-8.714-59.021,4.147c-24.103,10.611-39.811,31.598-49.463,56.234
					c0.354,0.143,0.711,0.294,1.078,0.449c3.942-9.124,13.135-31.916,34.192-46.994c14.044-6.838,64.737-22.339,114.519,1.682
					c2.078,1.003,2.953-0.402,11.594-2.111c-2.056,17.159,11.779,11.245,30.28,23.02c14.313,9.045,16.485,18.948,27.186,23.736
					c3.085,1.384,7.005,1.654,9.852-0.438c2.393-1.578,3.662-4.214,5.077-6.604c0.08,2.012-0.108,4.024-0.036,6.039
					c4.008,0.576,8.254,0.855,12.142-0.509c4.803-1.581,11.859-15.739,10.735-28.002c-1.053-12.091-8.963-21.056-18.901-28.033
					c6.284-13.734,6.594-38.956,6.035-42.843c9.033-0.947,14.2,8.74,16.671,17.466C869.336,447.923,868.963,469.841,867.561,474.216
					z M493.741,550.269c1.137,3.447,10.74,47.032,35.293,78.077c-6.02,0.497-12.15-0.64-17.724-2.906
					c-0.419-11.485-2.5-25.931-7.268-36.518C503.008,586.496,491.588,573.562,493.741,550.269z M519.158,548.452
					c-5.498,1.63-11.049,3.173-16.317,5.479c-0.573-1.98-1.137-3.968-1.403-6.011c7.375-0.143,14.778-0.06,22.109-0.974
					C522.263,547.876,520.625,547.967,519.158,548.452z M528.02,547.554c-2.268,1.444-18.145,5.035-22.761,14.778
					c-0.779-2.334-1.515-4.683-2-7.093C508.163,552.698,525.509,547.726,528.02,547.554z M500.917,546.42
					c-0.366-1.598-0.744-3.197-0.942-4.823c3.256,0.497,6.445,1.336,9.693,1.897c2.918,0.405,5.614,1.658,8.337,2.716
					C512.32,546.44,506.602,546.743,500.917,546.42z M531.209,549.494c-1.589,1.554-12.567,7.694-13.939,19.219
					c0.01,6.077,8.539,29.217,10.806,33.921c1.308,3.177,2.358,7.212,0.302,10.297c-1.634-3.427-3.526-6.715-5.308-10.067
					c-2.927-7.303-11.56-28.966-10.882-35.376C512.55,557.92,527.768,550.452,531.209,549.494z M534.222,582.978
					c2.696,6.125,9.378,20.195,6.926,26.058c-1.389,1.525-5.625-3.345-6.441-5.479c-2.57-6.681-9.484-24.65-9.753-32.112
					c0.177-6.872,5.591-14.544,7.355-16.082c-0.584,1.86-1.503,3.602-1.936,5.511C527.877,571.079,532.761,579.62,534.222,582.978z
					 M538.349,547.367c0.493-0.64,1.356,0.207,0.68,0.692C538.528,548.691,537.681,547.844,538.349,547.367z M555.306,588.54
					c0.989,1.459,0.636,6.398-1.344,7.486c-1.36,0.27-2.584-0.608-3.626-1.356c-3.785-3-2.262-1.107-11.359-22.813
					c-1.209-2.599-5.955-10.293,0.139-19.338c1.073-1.737,2.628-3.085,3.888-4.675c0.684-0.954,2.052-0.437,3.045-0.584
					c-2.532,3.856-3.515,8.512-3.61,13.076C542.394,566.666,541.401,566.966,555.306,588.54z M563.488,547.283
					c2.171-0.159,4.349-0.318,6.528-0.405C564.729,550.49,565.751,549.238,563.488,547.283z M521.376,187.04
					c-0.326-0.263-0.652-0.517-0.974-0.775c-1.968,1.98-3.562,4.759-3.081,7.641c1.952,12.676-9.272,23.42,0.99,26.379
					c-1.476,1.522-18.212,10.405-19.314,24.447c-2.358-4.735-4.115-9.967-7.884-13.828c-1.082-1.276-3.073-1.006-4.107-2.302
					c-9.794-11.479-7.625-16.013-21.453-28.2c-5.884-5.086-13.908-9.744-20.229-5.276c-5.746,3.975-8.465,13.987-9.347,20.889
					c-1.002,8.191-3.74,30.366-3.972,38.597c-0.847,12.108-6.204,21.994-16.69,28.685c0.143,0.37,0.29,0.743,0.449,1.117
					c9.077-5.101,15.124-14.663,16.881-24.821c0.883-4.008,0.489-8.134,1.006-12.186c1.078-9.963,2.195-19.923,3.403-29.87
					c0.798-7.347,3.67-19.182,10.476-22.193c10.396-4.647,26.646,14.988,28.964,19.585c2.791,5.451,6.178,10.619,10.21,15.239
					c0.783,1.062,2.373,0.525,3.272,1.435c4.011,3.545,8.117,14.286,9.82,19.338c0.366-0.103,0.739-0.207,1.113-0.314
					c-0.85-4.172-2.167-10.861,6.556-20.002c3.61-3.769,7.852-6.886,12.329-9.55c1.674-1.065,3.745-0.489,5.602-0.811
					c20.157-2.763,25.604-10.064,49.534-4.811c10.242,2.31,20.181,6.107,29.278,11.355c-2.188,7.887-20.627,18.91-27.707,23.143
					c-1.157,1.257-2.366,2.461-3.753,3.467c0,0,23.551-13.93,62.177-31.313c3.077-1.498,19.563-2.028,35.417-13.887
					c10.337-7.861,30.568-9.88,56.631,8.266c2.714,1.689,0.492,10.009-0.652,12.882c-6.504-2.761-15.214-6.871-17.076-7.367
					c-0.127,0.354-0.246,0.708-0.362,1.062c19.57,8.643,17.753,7.144,19.962,11.41c3.469,6.939-1.203,12.049-8.333,15.18
					c-5.208,2.228-25.453,6.108-54.321,3.332c-3.705-0.302-14.113-3.98-23.258,5.757c-5.206,5.58-4.3,7.996-7.324,10.17
					c-10.786,8.049-24.966,16.889-38.199,19.064c-15.613,2.75-47.163-11.092-52.059-13.899c0.108-0.366,0.219-0.735,0.338-1.097
					c-0.493,0.298-0.927,0.791-1.519,0.847c-3.05,0.087-5.952,1.109-8.93,1.654c-22.378,4.868-19.155,3.945-30.51,7.673
					c-38.826,12.914-38.457,16.103-42.947,9.001c-4.537,10.968-15.217,16.424-26.53,20.964c-0.982,0.231-0.91,1.543-0.199,2.048
					c11.096,11.293,14.486,22.994,0.032,29.95c-4.66,2.138,3.466,1.634-73.846,1.567c-4.099-0.167-8.19-0.64-12.301-0.537
					c-3.081-0.159-6.079,0.958-9.164,0.576c-6.64-0.366-13.836-2.143-18.316-7.411c-2.227-2.481-3.073-5.753-3.869-8.898
					c-4.65-12.162-7.65-26.843-6.333-32.411c0.648-2.843-0.195-5.785,0.493-8.615c2.933-10.872,6.463-29.656,10.21-31.95
					c6.761-4.174,15.178-2.864,22.324,1.813c2.929,2.017,26.455,11.655,36.796-0.115c-0.589-0.211-1.531-0.032-1.746-0.783
					c-1.846-5.437,1.623-20.979,2.91-26.511c2.175-6.632,1.427-13.712,1.026-20.543c1.611-12.682,20.811-33.777,29.735-42.923
					c2.079,1.515,3.96,3.276,6.007,4.839c0.282-0.29,0.565-0.584,0.855-0.875c-2.012-1.841-4.294-3.36-6.262-5.248
					c4.102-6.432,36.913-20.477,44.124-23.596c3.189-1.455,6.637,1.429,8.957-7.037c2.231,3.296,5.26,5.944,8.616,8.059
					c10.436,6.858,21.581,12.842,33.552,16.536c7.346,2.21,16.272,3.427,21.473,1.789c15.629-4.857,27.305,1.727,29.278,19.386
					c0.266,3.041,1.364,5.916,2.437,8.747c6.766,16.721,17.171,22.512,21.561,25.39c-33.846-9.584-38.469,0.884-60.098,2.815
					c-3.062-0.074-10.76,1.36-7.622-8.373C522.442,193.874,514.925,194.104,521.376,187.04z M594.515,220.377
					c2.179,0.223,4.322,0.735,6.512,0.887c2.716,0.294,5.467,0.071,8.182,0.477c7.443,0.982,14.981,0.883,22.455,0.338
					c0,0-20.914,9.723-32.936,15.883c-1.666,0.823-3.272,1.769-5.022,2.413c3.599-3.355,11.784-8.807,11.709-14.344
					C601.95,223.832,598.109,222.333,594.515,220.377z M378.594,259.761c-4.494,4.339-13.314,4.393-17.776,3.336
					c14.013-0.464,15.278-12.025,17.116-15.816C377.838,251.424,376.737,255.837,378.594,259.761z M817.446,510.491
					c-3.87-3.373-9.627-12.658-20.814-19.386c-14.533-9.012-23.172-6.798-27.664-12.861c-4.231-5.674,0.732-14.441,5.097-19.975
					c6.608-8.41,17.089-8.884,27.282-5.654c1.634,0.596,3.666,0.903,4.592,2.576c8.065,12.473,19.323,17.381,31.377,8.643
					c1.666-1.165,3.101-2.608,4.624-3.94c20.981,13.523,23.593,35.058,10.91,52.142c-2.508,2.897-9.065,2.862-12.818,2.175
					c0.012-5.192,0.465-10.369,0.597-15.549C838.737,504.25,835.732,526.685,817.446,510.491z M869.855,463.43
					c-0.263-14.346-0.757-33.275-10.031-44.195c8.083-7.129,9.862-13.193,11.518-16.126c0.576,7.995,0.111,16.03,0.386,24.034
					C873.655,441.441,870.944,459.94,869.855,463.43z"/>
				<path fill="#FAFBFD" stroke="#FAFBFD" stroke-width="0.5" d="M336.601,132.472c12.806-5.276,25.552-10.723,38.549-15.525
					c0.004-0.29,0.012-0.871,0.016-1.157c-3.554,0.831-6.838,2.489-10.262,3.717c-39.389,15.816-23.423,10.309-33.941,12.945
					c-2.314,0.501-4.536,1.368-6.87,1.789c2.309-2.711,18.271-16.422,36.414-22.026c-0.028-0.29-0.084-0.863-0.111-1.149
					c-6.55,1.447-20.761,7.7-36.522,21.433c-7.779,6.37,2.595-0.218-21.036,10.417c-1.276,0.505-2.211,1.535-2.922,2.672
					C331.462,131.625,331.957,134.071,336.601,132.472z"/>
				<path fill="#FAFBFD" stroke="#FAFBFD" stroke-width="0.5" d="M642.261,115.913c-0.338,0.243-0.668,0.489-0.99,0.735
					c6.269,8.943,7.522,17.786,6.52,21.871c-1.551-4.485-4.703-8.19-8.242-11.264c-0.223,0.151-0.672,0.445-0.894,0.596
					c0.962,1.408,7.787,6.74,8.56,13.82c-0.135,2.652-1.797,4.886-2.986,7.164c0.278,0.266,0.565,0.529,0.859,0.791
					C652.471,139.424,649.468,125.837,642.261,115.913z"/>
				<path fill="#FAFBFD" stroke="#FAFBFD" stroke-width="0.5" d="M625.928,138.551c-0.378,0.119-0.748,0.246-1.113,0.382
					c4.035,9.495,9.752,10.672,10.858,20.646c0.298,0.02,0.899,0.056,1.197,0.071C636.332,150.355,631.045,148.797,625.928,138.551z
					"/>
				<path fill="#FAFBFD" stroke="#FAFBFD" stroke-width="0.5" d="M657.413,152.777c0.008,0.286,0.028,0.859,0.036,1.145
					c5.315,1.519,9.025,5.876,13.072,9.355c0.223-0.155,0.672-0.461,0.895-0.616C669.4,160.308,662.187,153.313,657.413,152.777z"/>
				<path fill="#FAFBFD" stroke="#FAFBFD" stroke-width="0.5" d="M334.931,183.899c1.59,2.107,3.216,4.218,5.272,5.896
					c0.274-0.263,0.549-0.529,0.823-0.795c-3.232-3.38-6.858-7.041-7.272-11.967c-0.29-0.02-0.867-0.06-1.153-0.08
					c0.084,0.974,0.187,1.952,0.298,2.926c-1.213-1.065-2.358-2.203-3.53-3.3c-0.362,0.231-0.72,0.461-1.073,0.7
					C330.458,179.534,332.908,181.51,334.931,183.899z"/>
				<path fill="#FAFBFD" stroke="#FAFBFD" stroke-width="0.5" d="M785.803,194.514c0.032-0.282,0.091-0.847,0.123-1.129
					c-2.441-0.946-4.97-1.849-7.602-2.004c-0.795-0.111-1.495,0.254-2.087,0.728c0.982,0.449,2.063,0.565,3.133,0.684
					C781.592,193.036,783.636,194.002,785.803,194.514z"/>
				<path fill="#FAFBFD" stroke="#FAFBFD" stroke-width="0.5" d="M745.178,287.779c17.442-3.406,28.251-25.254,30.184-43.714
					c-0.044-2.208,6.115-4.632,14.778-0.127c2.079,1.026,3.884,2.489,5.824,3.737c0.473,0.418,0.807-0.358,1.125-0.604
					c-6.081-4.985-14.278-9.041-21.517-5.666c0.677-12.132-2.759-27.173-7.673-29.89c1.062,2.548,2.493,4.934,3.367,7.57
					c11.073,30.816-8.795,69.939-31.918,67.732c-21.028-2.739-42.732,0.573-62.182,8.942c-22.753,9.861-26.988,33.104-19.199,55.821
					c0.378-0.131,0.759-0.266,1.149-0.401c-5.551-17.154-5.293-36.637,8.6-48.183c5.204-4.517,11.752-6.938,18.13-9.283
					C718.459,282.615,737.662,289.319,745.178,287.779z"/>
				<path fill="#FAFBFD" stroke="#FAFBFD" stroke-width="0.5" d="M453.128,244.673c0-0.298,0.004-0.899,0.008-1.197
					c-9.424,0.591-16.649,5.115-18.825,7.856c0.215,0.159,0.652,0.473,0.867,0.628C440.229,247.936,444.362,245.646,453.128,244.673
					z"/>
				<path fill="#FAFBFD" stroke="#FAFBFD" stroke-width="0.5" d="M350.946,481.448c-0.211,0.171-0.636,0.521-0.847,0.692
					c2.082,2.05,29.964,17.134,42.044,48.485c0.159,0.692,0.755,0.927,1.412,0.724C392.816,527.392,382.49,500.947,350.946,481.448z
					"/>
				<path fill="#FAFBFD" stroke="#FAFBFD" stroke-width="0.5" d="M386.692,487.197c-0.239,0.084-0.712,0.254-0.95,0.338
					c1.845,5.257,15.106,24.112,20.773,29.119c0.163-0.227,0.489-0.676,0.652-0.903
					C393.201,500.244,388.396,489.497,386.692,487.197z"/>
				<path fill="#FAFBFD" stroke="#FAFBFD" stroke-width="0.5" d="M272.32,488.33c-0.123,0.219-0.37,0.652-0.493,0.871
					c2.27,2.079,4.64,4.055,6.779,6.278c9.303,9.586,17.04,20.825,21.891,33.313c0.346-0.139,0.7-0.266,1.054-0.39
					C296.749,512.015,276.866,490.437,272.32,488.33z"/>
				<path fill="#FAFBFD" stroke="#FAFBFD" stroke-width="0.5" d="M292.935,489.583c-0.115,0.358-0.231,0.724-0.342,1.093
					c19.108,8.077,28.33,21.545,29.83,39.352c0.263-0.004,0.787-0.008,1.05-0.008C323.563,514.092,311.986,496.248,292.935,489.583z
					"/>
				<path fill="#FAFBFD" stroke="#FAFBFD" stroke-width="0.5" d="M345.36,491.022c-0.163,0.226-0.497,0.68-0.664,0.91
					c4.417,2.151,8.842,4.373,12.73,7.423c10.019,7.447,17.163,18.555,19.939,30.713c0.418-0.111,0.835-0.215,1.257-0.318
					C373.624,510.354,361.128,497.438,345.36,491.022z"/>
				<path fill="#FAFBFD" stroke="#FAFBFD" stroke-width="0.5" d="M322.002,492.429c-0.274,0.263-0.545,0.533-0.815,0.807
					c12.579,11.779,23.856,25.742,28.697,42.358c0.378-0.111,0.755-0.219,1.133-0.326
					C348.445,524.584,338.565,506.951,322.002,492.429z"/>
				<path fill="#FAFBFD" stroke="#FAFBFD" stroke-width="0.5" d="M730.217,499.47c-17.411-6.704-65.473-6.061-84.688-5.856
					c-0.008,0.294-0.024,0.89-0.032,1.189c19.799-0.115,61.036-0.554,80.188,4.457c8.162,2.886,63.803,16.414,40.974,39.46
					c-1.69,1.817-3.821,3.129-5.602,4.839c0.151,0.223,0.453,0.664,0.6,0.887C789.593,525.454,763.955,508.669,730.217,499.47z"/>
				<path fill="#FAFBFD" stroke="#FAFBFD" stroke-width="0.5" d="M775.203,534.875c-0.159,0.358-0.306,0.724-0.441,1.097
					c9.414,5.571,36.283,4.892,41.241,4.401c0-0.262,0.008-0.787,0.012-1.049C802.125,539.404,785.543,540.003,775.203,534.875z"/>
				<path fill="#FAFBFD" stroke="#FAFBFD" stroke-width="0.5" d="M624.191,566.964c-1.165-3.475-3.391-6.58-6.27-8.834
					c-4.038-3.171-8.422-0.655-9.291,1.069c0.56,4.016,1.948,7.951,1.928,12.055c-1.157-3.109-1.408-6.544-3.113-9.451
					c-3.608-6.17-8.024-9.418-13.506-4.914c1.169,7.574,1.897,15.283,1.05,22.94c-2.004,19.815-11.54,25.905-13.836,28.284
					c-0.704,2.561-0.362,5.467,0.759,7.876c1.32,2.902,5.264,3.884,7.971,2.401c3.336-1.849,6.242-4.345,9.093-6.854
					c0.044,2.839,0.243,5.992,2.242,8.218c1.503,1.781,4.131,2.135,6.274,1.487C610.758,619.838,637.224,601.827,624.191,566.964z
					 M589.728,617.023c-2.008,1.272-5.196,0.978-6.453-1.209c-1.177-2.028-1.423-4.513-1.129-6.802
					c1.586-1.794,19.456-13.31,13.132-51.519c9.665-7.911,19.038,18.198,12.989,36.693
					C605.214,603.767,598.272,611.854,589.728,617.023z M608.331,619.337c-1.935,1.436-7.78,2.606-8.091-6.914
					c-0.139-0.883,0.688-1.392,1.197-1.96c12.759-12.093,12.618-33.815,8.445-50.894
					C621.569,548.535,641.227,596.325,608.331,619.337z"/>
				<path fill="#FAFBFD" stroke="#FAFBFD" stroke-width="0.5" d="M642.212,566.312c0.942,4.238,2.214,8.449,2.489,12.802
					c-1.483-4.25-2.187-8.934-5.002-12.587c-1.658-2.179-3.666-4.385-6.405-5.113c-2.334-0.636-4.878,0.422-6.377,2.242
					c-0.251,1.33,9.213,34.161-8.6,50.572c-0.577,0.62-1.495,1.157-1.419,2.127c-0.284,8.122,3.97,10.882,8.612,9.411
					c1.471-0.684,2.707-1.765,3.996-2.735c13.557-10.812,14.995-23.482,15.927-26.53c-0.656,7.435-2.759,15.068-7.63,20.885
					c-0.398,0.505-0.795,1.069-0.7,1.757c0.085,4.905,1.935,10.221,6.667,9.387c3.306-0.437,16.413-13.972,16.257-33.222
					C660.448,577.709,650.269,555.695,642.212,566.312z M627.025,623.34c-3.751,2.911-7.28,1.371-8.281-2.043
					c-0.465-1.654-0.851-3.447-0.489-5.149c4.512-5.064,17.464-16.024,9.94-51.821c3.015-4.871,10.626,0.396,13.025,7.872
					C648.908,593.111,642.868,611.837,627.025,623.34z M645.238,626.429c-1.067,1.036-5.246,2.661-6.656-4.703
					c-0.175-1.304-0.593-2.858,0.465-3.9c10.337-12.62,8.879-34.37,4.763-50.215c-0.616-1.467,1.093-2.445,2.282-2.755
					c3.341-0.627,7.199,5.162,8.409,8.353C663.318,596.421,657.691,615.262,645.238,626.429z"/>
				<path fill="#FAFBFD" stroke="#FAFBFD" stroke-width="0.5" d="M722.198,566.737c0.204,1.067,8.261,20.571,1.733,32.157
					c0.537-3.161,0.954-6.361,0.636-9.57c-0.515-6.184-3.683-16.179-9.073-19.855c-3.385-2.366-6.604,0.857-6.008,2.099
					c3.975,9.978,6.897,25.113,0.831,33.078c0.123-1.216,0.378-2.405,0.589-3.602c2.159-12.974-5.029-30.882-11.721-31.532
					c-1.586-0.171-2.954,1.042-3.59,2.393c0.138,1.067,9.375,24.636,1.972,36.208c0.099-0.72,0.235-1.423,0.405-2.119
					c3.362-13.064-2.833-27.518-6.592-31.496c-4.715-5.071-7.595-2.182-8.158-0.243c1.014,3.244,2.306,6.417,3.037,9.761
					c4.656,19.501-1.104,25.72-2.27,28.809c0.095,2.103,0.751,4.286,2.131,5.92c1.244,1.567,3.924,1.666,5.228,0.115
					c2.091-2.222,3.499-4.954,4.934-7.618c0.477,1.98,0.894,4.155,2.425,5.634c4.112,4.138,8.264-4.376,10.695-9.629
					c0.509,1.733,0.863,3.709,2.35,4.922c1.344,1.26,3.63,1.085,4.886-0.219c1.682-1.67,3.054-3.634,4.234-5.682
					c0.668-1.133,1.006-2.461,1.916-3.439c0.438,1.395,0.771,2.934,1.881,3.984c1.256,1.403,3.781,1.328,4.942-0.171
					C746.668,587.703,727.786,555.486,722.198,566.737z M690.813,617.555c-0.744,1.073-2.33,1.626-3.403,0.696
					c-1.344-1.284-1.972-3.212-2.103-5.025c0.883-2.895,9.024-11.87-0.799-38.999c5.225-6.127,12.898,11.435,13.208,22.69
					C697.958,604.312,695.568,611.85,690.813,617.555z M702.919,615.707c-0.883,1.209-2.906,1.097-3.697-0.151
					c-1.105-1.709-2.266-4.163-0.894-6.031c6.194-10.617,2.59-26.008-1.451-37.564c0.783-0.871,1.984-1.614,3.149-0.954
					c2.373,1.248,4.091,3.507,5.236,5.892C711.908,590.403,712.129,604.961,702.919,615.707z M715.964,610.856
					c-0.894,1.149-2.847,1.209-3.741,0.032c-0.887-1.133-1.395-2.568-1.471-3.992c0.952-2.753,9.222-10.879-0.036-35.818
					c0.724-0.696,1.626-1.519,2.727-1.149C720.72,572.347,730.296,595.595,715.964,610.856z M728.536,605.942
					c-0.998,1.125-2.938,0.628-3.519-0.684c-0.692-1.379-1.61-3.185-0.584-4.624c5.705-9.259,3.063-22.855-0.704-33.003
					c-0.646-1.155,1.395-3.023,4.155-0.632C732.895,571.032,741.506,591.878,728.536,605.942z"/>
				<path fill="#FAFBFD" stroke="#FAFBFD" stroke-width="0.5" d="M657.607,571.078c4.511,12.999,7.285,31.509-0.771,42.676
					c-0.994,1.121-0.596,2.672-0.322,3.992c1.711,7.041,6.323,5.842,7.765,4.27C686.685,599.307,665.869,557.808,657.607,571.078z
					 M663.583,620.923c-1.045,1.34-3.28,1.392-4.294,0c-1.213-1.598-1.765-3.674-1.793-5.654
					c1.778-3.556,10.949-13.141,1.539-44.155c3.096-3.552,6.752,0.523,8.973,4.505C676.863,594.274,673.488,610.7,663.583,620.923z"
					/>
				<path fill="#FAFBFD" stroke="#FAFBFD" stroke-width="0.5" d="M678.508,573.858c-4.918-5.038-7.588-1.492-7.988,0.004
					c0.286,1.4,9.984,24.181,1.276,38.136c-1.303,1.733,0.479,6.132,2.032,7.514c1.384,1.3,3.869,1.117,5.041-0.39
					C693.078,602.864,683.883,579.172,678.508,573.858z M677.987,618.219c-1.151,1.532-4.145,1.768-5.328-3.908
					c-0.326-1.483,0.938-2.636,1.443-3.92c5.054-10.859,1.8-25.265-2.306-36.561c5.261-6.262,13.204,11.753,13.478,23.461
					C685.398,604.821,682.929,612.483,677.987,618.219z"/>
			</g>
			<g>
				<path stroke="#F193AB" stroke-width="0.5" d="M409.748,105.151c-0.394,0.724-0.263,2.048,0.803,2
					c3.343,0.041,23.723-1.745,41.086,8.953c3.638,2.127,6.743,4.985,9.804,7.848c-0.171-2.386-0.549-5.085,0.966-7.149
					c9.676-12.617,35.301-13.483,41.909-12.587c1.531-4.616,5.228-8.178,9.506-10.317c15.34-7.803,39.963-3.292,56.647,0.783
					c3.933,0.949,11.11,7.084,11.264,15.601c4.523-8.227,9.079-14.38,18.535-15.951c-15.591-24.698-138.21-13.048-167.453-9.884
					c-1.038,0.036-1.901,0.632-2.68,1.244c-5.296,4.071-10.58,8.202-15.323,12.917C412.909,100.594,410.833,102.574,409.748,105.151
					z"/>
				<path stroke="#F193AB" stroke-width="0.5" d="M848.796,415.975c0.564,3.931,0.351,28.885-6.036,42.843
					c21.723,15.252,23.529,34.935,12.337,52.266c-1.006,1.606-2.31,3.157-4.17,3.769c-3.888,1.364-8.134,1.085-12.142,0.509
					c-0.071-2.016,0.115-4.028,0.036-6.039c-1.605,2.71-5.371,11.327-14.929,7.041c-5.252-2.35-9.3-6.624-12.854-11.025
					c-24.225-28.525-47.181-14.308-44.612-35.731c-8.757,1.732-9.534,3.106-11.594,2.111
					c-45.878-22.137-95.475-10.954-114.519-1.682c-17.967,12.865-27.07,30.512-34.191,46.994c-0.366-0.155-0.724-0.306-1.078-0.449
					c18.928-48.313,56.181-67.867,96.314-62.595c6.206,0.691,19.718,6.175,33.496-1.559c16.978-9.403,22.772-34.418,22.356-37.591
					c-2.012-10.524-0.998-21.326,0.378-31.866c4.067-28.374,9.135-33.055,6.397-41.682c-3.969-12.737-26.571-10.104-39.536-6.604
					c-14.724,37.961-3.449,56.541-3.502,58.627c0.151,6.85-0.505,13.947-3.519,20.197c-4.649,10.035-15.129,13.216-19.657,12.221
					c-12.134-3.825-24.694-7.065-37.512-6.866c-8.341-0.493-16.738-0.7-25.055,0.282c-14.033,1.638-30.682,6.73-35.277,20.046
					c-1.857,4.671,2.384,10.88-9.538,29.433c-19.572,29.466-65.272,60.669-67.728,61.466c-2.098-0.252-85.32-21.064-86.744-21.513
					c2.602-5.773,79.943-39.308,89.479-45.316c12.005-7.301,24.547-18.589,25.89-32.582c0.298,0.004,0.895,0.008,1.197,0.008
					c-0.457,7.085-4.123,13.533-8.572,18.897c-15.549,18.226-31.236,19.704-95.467,52.381c-3.455,1.912-7.089,3.55-10.289,5.884
					c2.756,0.744,82.367,20.694,84.422,20.917c5.381-3.162,55.706-37.594,70.96-68.122c7.516-15.044,1.953-16.296,6.667-25.167
					c9.724-17.762,39.468-19.224,59.645-17.883c12.981-0.246,25.727,2.966,38.021,6.854c3.653,0.934,22.417-1.119,21.776-30.713
					c0.038-2.533-11.314-21.384,3.813-60.047c9.966-3.072,35.961-7.392,41.392,6.313c4.149,10.286-3.986,18.606-7.049,52.21
					c-1.768,22.418,2.116,18.277-0.092,27.843c-3.921,15.435-12.615,30.902-27.727,35.894c-17.184,5.856-23.173-3.918-50.672-0.942
					c-15.999,1.798-28.873,8.156-32.315,10.766c4.197-0.881,51.489-19.666,103.044,2.382c2.064,0.755,3.94,1.984,6.047,2.616
					c3.646-0.656,7.192-1.841,10.826-2.604c1.566-4.389,4.123-8.353,7.156-11.872c7.607-8.642,20.122-8.04,30.892-3.709
					c1.523,0.521,2.091,2.163,3.006,3.34c7.375,10.454,16.91,14.588,27.457,7.645c6.304-4.195,6.832-6.162,8.672-12.027
					c3.511-12.286,3.886-30.427,3.693-43.105c-0.645-32.846-2.372-34.474-4.97-43.392c-1.097-3.32-1.992-6.735-3.49-9.896
					c-0.835,2.079-1.197,4.341-2.283,6.313c-2.27,0.818,0.656-4.923,2.708-12.878c3.246-13.445-2.311-29.453-8.969-41.515
					c-1.516-2.502,1.963-1.101-26.244-6.667c-1.862,5.085-12.239,41.638-2.016,57.216c1.28,1.737,2.743,3.63,4.819,4.401
					c2.412-0.699,12.031-4.813,18.849,2.914c2.127,2.441,3.876,5.371,4.473,8.588c2.64,23.186-3.647,43.282-26.976,40.223
					c0,0-2.708-0.865-36.859-6.254c-0.028-0.433-0.048-0.859-0.06-1.284c9.343,1.447,18.67,3.01,28.01,4.469
					c4.522,0.588,13.914,4.338,22.662,0.326c11.69-5.328,13.286-22.326,12.206-35.162c-0.19-7.12-7.149-16.786-18.173-13.764
					c-1.539,0.282-2.918,1.224-4.465,1.348c-16.887-8.906-8.937-46.083-3.511-64.313c2.041,0.09,25.597,4.786,26.666,5.002
					c4.216,1.002,15.451-4.045,11.534-23.068c-0.27-1.944-3.089-1.741-3.55-3.57c-4.018-11.436-23.92-29.765-32.936-37.877
					c-4.9-4.669-3.89,0.297-29.504-44.799c-2.151-4.358-61.819-59.789-75.107-47.129c0.775,2.831,0.66,5.813,0.179,8.683
					c-0.294,0.012-0.887,0.032-1.185,0.044c2.064-14.902-6.648-18.816-10.969-21.247c-3.952-3.109-7.816-6.457-10.822-10.52
					c0.27-0.259,0.548-0.517,0.835-0.775c12.886,15.271,17.528,10.113,21.772,22.177c16.289-9.019,59.973,31.798,73.787,44.68
					c2.925,2.565,22.853,40.315,28.323,44.871c10.351,8.96,30.247,27.215,36.12,39.679c0.557-1.69,0.386-3.503,0.298-5.248
					c-1.352-18.939-22.844-40.586-35.063-49.606c0.612,4.429,0.986,9.017-0.111,13.402c-0.362-0.135-0.72-0.263-1.065-0.386
					c0.591-4.549,0.86-12.439-1.217-16.285c-28.003-57.549-65.169-60.285-105.291-89.949
					c-18.522-13.358-44.152-22.091-48.918-22.304c-6.492-0.549-13.482,1.324-18.03,6.182c-1.762,1.695,1.291,8.204-13.391,9.713
					c-3.449,0.386-22.262-3.685-24.801,0.962c-1.042,2.056-3.471,2.811-5.594,3.109c-2.266,0.314-4.21-1.046-5.924-2.322
					c0.24,21.108,2.485,20.472,8.568,31.608c1.328,2.291,7.413,16.69,20.833,20.173c11.705,3.206,24.588-3.955,25.95-6.711
					c5.69-10.587,15.573-18.764,27.366-17.51c5.432,0.703,15.702,0.101,35.217,8.436c11.849,5.108,34.771,17.701,42.772,27.004
					c-3.607-1.993-40.13-32.037-74.4-33.822c-2.429-0.135-18.629-4.517-30.041,16.853c-1.722,3.41-28.183,19.614-45.527-7.82
					c-3.244-5.98-6.524-11.947-10.122-17.724c-0.644-0.716-0.095-1.634-0.278-2.453c-1.467-6.138-1.519-12.5-1.583-18.774
					c-0.215-3.634,2.326-6.723,2.199-10.349c0.358-6.143-3.455-11.923-8.667-14.913c-1.068-0.554-48.071-14.048-63.394,3.042
					c-1.531,1.543-2.147,3.686-3.443,5.387c3.698,1.785,7.649,3.109,11.104,5.367c-3.141-0.632-6.127-1.857-9.089-3.05
					c-1.797-0.66-3.359-2.131-5.367-2.067c-12.538-0.107-29.677,2.236-37.794,11.804c-3.954,4.381,1.811,13.057,2.759,15.526
					c0.839,3.681,3.526,6.564,6.417,8.826c5.699-6.95,14.185-16.459,23.418-16.4c-0.016,0.282-0.048,0.843-0.064,1.125
					c-9.189,1.046-16.593,8.602-22.197,16.014c7.84,6.381,40.23,24.661,56.639,19.271c4.278-1.237,8.85-1.733,13.255-0.91
					c11.695,2.042,15.731,12.054,17.116,23.771c5.996,22.937,24.648,37.159,45.702,35.806c2.031-5.96,3.864-11.995,6.047-17.899
					c0.346,0.135,0.7,0.27,1.062,0.41c-1.861,5.956-4.011,11.82-5.836,17.784c5.658,0.827,11.39,0.99,17.1,0.851
					c31.945-1.136,43.903-14.764,49.427-16.973c17.067-7.465,36.581-0.231,52.011,10.58c2.155,1.622,5.153,0.712,7.208-0.648
					c2.413-1.483,3.932-3.916,5.741-6.015c0.263,0.263,0.541,0.525,0.823,0.787c-2.552,3.936-6.274,7.872-11.287,8.047
					c1.01,4.389-0.433,8.767-1.554,12.973c0.644,1.573,10.834,12.515-5.884,20.551c-5.469,2.701-28.559,6.893-58.083,3.451
					c-10.856-2.402-19.016,2.297-23.978,11.502c-0.795,1.395-1.32,3.057-2.711,4.004c-11.609,8.824-28.967,19.65-43.531,20.161
					c-2.024-0.143-15.028,13.24-3.908,36.887c0.791,1.988,2.461,3.733,2.338,6c-0.028,4.266,0.147,8.54,0.489,12.794
					c1.005-3.578,2.322-7.113,4.513-10.154c7.389-10.6,21.949-15.817,26.824-16.257c-0.02,0.294-0.067,0.887-0.091,1.181
					c-14.522,3.355-28.583,12.906-30.323,27.87c-1.017,6.422,1.813,23.67,7.653,32.598c-0.374,0.123-0.739,0.254-1.097,0.386
					c-7.292-10.009-8.925-32.397-9.172-44.823c-0.124-2.004,0.39-4.194-0.7-6.007c-5.731-10.41-8.673-23.19-3.467-33.977
					c1.057-2.377,2.683-4.413,4.234-6.473c-8.691-0.433-17.1-3.03-25.27-5.856c-25.403-8.962-18.403-9.421-24.268-8.325
					c-26.064,5.826-22.991,4.614-33.675,8.099c-42.546,13.958-38.384,15.877-45.566,11.55c-5.121,9.672-15.777,14.888-25.978,19.155
					c15.826,16.572,11.677,28.52-4.413,33.608c-4.968,0.379-74.472-0.185-75.54-0.135c4.178,0.99,53.653,7.094,122.546-5.268
					c1.359-0.071,2.076-1.34,2.922-2.222c5.411-6.035,12.683-10.759,20.841-11.82c16.274-2.207,44.596,11.903,32.283,48.263
					c-1.756,4.527-3.689,12.892-13.291,16.885c-6.361,2.696-13.53,2.493-20.181,1.117c-6.326-0.477-12.683-0.521-19.02-0.676
					c-35.513-0.978-20.848,0.442-30.204-1.853c-16.571-4.529-43.228-4.44-60.301-3.395c-2.663,0.015-10.257-3.102-15.501-0.433
					c-5.786,2.87-2.194,12.646,0.751,18.424c4.484,9.104,3.606,20.467-1.837,28.968c-9.156,13.034-43.727,13.493-55.375,11.51
					c-0.887-0.04-1.352-0.807-1.797-1.451c4.41,0.294,9.043,1.973,21,0.676c5.681-0.207,11.383-0.7,16.941-1.948
					c-1.917-1.15-9.747-3.355-11.931-9.895c-2.837-8.312,6.568-16.864,10.754-21.016c-3.634-8.659-7.466-17.235-11.188-25.859
					c0.354-0.167,0.715-0.326,1.082-0.473c0.96,1.916,10.251,23.231,11.593,26.721c-4.143,3.869-8.453,7.928-10.619,13.291
					c-3.415,8.201,3.245,13.452,11.796,16.182c1.654,0.652,3.324-0.219,4.894-0.696c4.608-1.642,9.395-3.92,12.102-8.194
					c4.958-8.143,5.662-18.833,1.379-27.409c-2.159-4.214-4.079-8.818-3.884-13.641c0.08-3.054,2.047-6.016,5.045-6.882
					c4.083-1.205,8.44-0.449,12.492,0.529c3.367,0.847,43.187-2.97,66.313,4.839c2.354,0.404,30.388,0.671,43.165,1.244
					c2.902,0.037,25.103,6.272,32.442-11.247c3.781-9.68,7.544-21.456,3.213-33.412c-4.501-12.529-18.154-18.419-25.608-19.024
					c-11.518-1.198-20.267,4.648-27.85,13.068c2.696,3.93,17.812,15.703,21.494,18.555c-0.279,0.298-0.553,0.596-0.827,0.895
					c-14.515-10.998-21.963-18.488-21.963-18.488c-79.154,13.918-122.742,4.942-129.162,5.105
					c-10.189,0.114-28.832,1.161-34.884,9.363c-1.101,1.379-1.137,3.252-2.028,4.739c-2.195,3.352-1.873,7.582-1.519,11.387
					c0.266,1.503,0.127,3.399,1.574,4.349c14.094,11.114,28.232,12.361,36.844-3.908c0.334-0.791,1.717-0.036,1.022,0.66
					c-5.198,10.552-14.351,15.345-25.803,11.45c-4.576-1.495-8.663-4.103-12.548-6.882c1.837,7.618,4.894,14.881,8.21,21.962
					c1.531,4.035-0.226,8.719-3.467,11.387c-4.338,3.61-10.023,4.962-15.474,5.841c-0.231-0.366-0.461-0.728-0.688-1.085
					c5.904-1.149,12.44-2.334,16.658-7.033c2.163-2.469,3.01-6.23,1.527-9.252c-15.167-32.158-7.448-38.663-6.643-41.571
					c2.878-10.316,22.887-11.415,24.61-12.229c-1.92-0.322-3.88-0.449-5.765-0.978c-14.8-3.568-14.92-14.513-16.487-18.074
					c-2.974-8.059-5.085-16.468-5.852-25.032c-1.305,2.17-4.289,10.35-17.06,19.847c-1.551,1.082-3.145,2.123-4.405,3.554
					c-4.934,5.252-12.138,8.321-19.358,8.047c-1.662-0.071-3.328-0.473-4.994-0.195c-3.288,0.56-6.612,1.073-9.956,0.966
					c-0.191-0.382-0.378-0.763-0.565-1.141c11.451-0.606,9.772-1.656,14.206-1.002c7.395,0.791,14.961-2.33,19.959-7.773
					c1.625-1.864,26.081-16.702,22.253-35.305c-0.457-1.423,1.038-2.382,1.193-3.725c2.139-8.602,5.919-26.538,9.303-30.013
					c3.653-3.127,13.547-5.988,24.082,0.819c1.634,1.101,3.391,2.099,5.371,2.386c-6.678-4.759-16.345-6.518-16.754-16.392
					c0.028-2.043-1.511-3.554-2.238-5.347c-1.801-3.705-2.525-7.813-2.58-11.904c-2.811,4.051-6.019,7.951-10.254,10.596
					c-2.207,1.32-4.544,2.878-7.236,2.68c-5.387-0.159-10.727,1.443-15.398,4.063c-1.889,1.073-4.028,1.674-5.785,2.974
					c-1.03,0.708-1.861,1.742-3.093,2.111c0.056-0.545-0.075-1.193,0.43-1.571c2.393-2.513,5.837-3.423,8.763-5.117
					c9.373-4.912,14.826-3.12,17.478-4.032c7.781-3.129,13.327-10.106,16.627-17.617c1.181-1.523,0.088-3.379,0.401-5.085
					c1.065-10.401,6.516-19.883,13.553-27.425c0.974-1.133,2.672-2.115,2.187-3.86c0,0,46.38-38.433,54.997-45.738
					c-9.876-7.756-31.194-0.673-34.987,1.424c-41.724,24.211-29.866,21.331-34.1,24.34c-5.169,4.358-10.953,8.071-17.287,10.5
					c-3.253,1.244-30.812,19.973-30.812,26.041c-0.079,3.097,0.088,6.195-0.056,9.292c-0.918-1.097-1.729-2.27-2.648-3.36
					c-3.539,5.383-6.091,11.355-8.218,17.418c-0.978,0.239-0.962-1.288-0.68-1.904c2.294-6.123,4.922-12.234,8.807-17.533
					c0.525,0.457,1.049,0.918,1.578,1.375c0.143-8.608-3.158-8.261,26.324-29.536c-12.625,1.447-6.205-0.979-19.016,0.588
					c-13.753,1.955-21.753,7.553-24.821,9.081c0.894-1.237,1.861-2.497,3.229-3.24c10.896-5.97,24.187-8.464,31.858-7.359
					c10.572,1.35,22.201-5.082,30.411-11.884c3.813-2.95-5.876-1.089,34.498-24.737c3.467-2.126,25.483-9.696,36.116-1.909
					c0.497,0.493,1.332,0.927,1.399,1.674c-0.568,0.685-27.21,22.68-47.88,39.913c-8.056,8.174-23.609,21.811-23.278,40.052
					c0.06,1.761-0.962,3.28-1.312,4.958c-1.205,5.793,0.29,11.9,3.387,16.869c1.026,1.399,0.783,3.201,1.109,4.819
					c0.652,3.606,3.3,6.632,6.536,8.226c2.824,1.324,20.442,14.617,30.093,4.067c3.211-3.592,5.161-7.876,8.711-23.493
					c0.87-3.972,3.057-3.813,2.465-17.851c-0.116-3.969-1.667-5.733,2.827-14.599c5.707-11.065,17.436-24.563,26.113-33.56
					c2.826-3.069-0.458-2.962,14.877-11.399c10.23-5.379,20.797-10.094,31.401-14.679c2.337-1.089,7.974,1.307,7.88-8.488
					c0.099-1.729-1.272-2.982-1.912-4.469c-0.573-1.022-0.795-2.254-1.558-3.153c-2.882-1.863-9.146-11.05-27.091-15.514
					c-7.824-1.928-15.963-2.652-24.002-2.067c-1.574,0.195-2.942-1.379-2.584-2.91c1.429-6.569,19.386-19.352,21.016-20.996
					c-47.615-1.48-141.42,41.635-136.696,59.307c1.439,1.375,2.97,2.723,3.789,4.592c-4.954-1.598-3.824-3.307-6.031-4.354
					c-15.869-7.714-37.632,21.797-47.435,36.267c-3.775,5.731-0.663,1.187-4.803,17.875c-0.541,2.322-1.901,4.417-1.948,6.854
					c-0.302,4.481-1.069,9.045-0.226,13.51c0,0,10.317-14.525,17.748-24.304c0.282-0.704,1.483-0.7,1.348,0.179
					c-1.093,2.043-27.37,35.02-30.78,48.37c-1.63,5.145-3.26,10.309-5.443,15.255c-5.924,11.494-8.742,27.09,7.558,30.367
					c0.704,0.044,1.153,0.513,1.32,1.173c-22.002,4.047-19.584,12.566-20.269,15.076c-10.252,31.931-5.257,56.224,3.49,64.754
					c4.636,4.345,10.695,7.391,17.12,7.618c-1.266,1.695-5.574,6.804-3.765,9.236c1.243,1.975-1.511,35.324,104.285,77.834
					c2.986,0.838,21.259,3.828,28.28,4.055c1.507,0.075,2.6,1.276,3.865,1.96c6.008,3.598,12.555,6.667,19.589,7.435
					c12.085,1.369,14.931-7.842,16.504-10.802c0.624,4.108,2.102,10.694,6.222,11.188c-0.406-3.125-1.598-6.103-1.837-9.259
					c0,0,292.835-80.638,311.663-131.611c-6.373,4.273-30.391,32.849-159.346,78.681c-59.401,21.011-122.95,38.997-151.673,46.195
					c0.016-0.445,0.036-0.883,0.064-1.316c57.992-14.515,253.852-70.426,312.455-126.935c0.35,0.155,0.704,0.314,1.069,0.473
					C703.473,383.814,451.443,455.686,402.6,469.331c1.495,11.635,10.024,30.02,15.561,40.482c1.292,2.449,3.566,4.127,5.769,5.705
					c-3.409,9.352-3.377,23.739,9.629,27.779c6.608,2.031,16.55,1.036,18.042,0.187c-11.351-2.761-18.247-11.736-21.012-22.92
					c0.409-0.107,0.827-0.211,1.249-0.302c3.085,12.848,12.613,23.125,26.097,22.515c-2.514-1.569-9.003-4.108-16.305-17.45
					c0.358-0.171,0.724-0.33,1.093-0.481c12.628,21.208,19.789,17.028,25.56,16.734c-6.616-2.856-10.607-8.913-11.172-11.335
					c0.33-0.131,0.664-0.263,1.002-0.386c4.89,9.717,11.14,10.412,13.315,11.319c1.248,0.521,2.632,0.286,3.948,0.263
					c-2.278-1.594-4.584-3.228-6.238-5.507c-0.779-0.922-1.257-2.218-2.453-2.688c-2.147-1.002-4.484-1.567-6.525-2.799
					c0,0,22.161,6.284,48.294,11.526c2.02,0.429,4.123,0.612,6.02,1.499c14.324,6.775,68.337,1.172,83.747-0.489
					c3.834,0.81,3.193,3.294,34.208,2.187c48.5-2.238,20.73-4.227,47.734,1.912c-10.992-0.03-10.576-2.033-15.458-2.823
					c-7.105,0.465-14.198,1.36-21.326,1.403c9.783,4.162,69.625,19.896,108.654,4.031c0.148,0.35,0.306,0.708,0.477,1.069
					c-13.317,6.36-52.674,13.821-109.223-3.694c-1.475-0.445-2.95-1.089-4.524-0.97c-10.021,0.561-26.366,1.269-36.195-0.457
					c-2.02-0.286-3.841-1.686-5.944-1.264c-27.354,3.185-21.52,0.784-27.652,4.819c5.972,4.21,13.609,4.926,20.71,4.576
					c0.008,0.386,0.02,0.779,0.04,1.177c-14.394,1.231-20.482-4.496-22.662-5.053c0.505,1.646,2.195,2.473,3.236,3.753
					c4.56,5.369,12.81,8.326,19.469,9.343c-0.083,0.418-0.159,0.839-0.234,1.268c-16.335-2.735-18.055-9.079-24.873-13.995
					c0.855,1.678,5.836,8.303,8.775,10.584c5.057,4.044,10.432,7.669,15.804,11.271c0.823,0.195,0.676,1.916-0.243,1.375
					c-19.15-12.535-19.454-14.069-28.232-26.181c-1.709,6.57,5.259,17.855,10.52,22.459c8.611,7.579,13.901,17.871,5.276,25.338
					c-2.973,2.539-14.618,13.976-20.44,20.893c-1.455,1.646-2.199,3.821-3.88,5.28c-4.89,4.723-11.355,8.457-18.36,8.103
					c-0.016-0.453-0.031-0.894-0.036-1.332c9.183,0.72,17.783-7.109,19.41-10.142c2.657-4.667,15.852-17.478,19.692-21.243
					c2.289-2.279,8.767-6.124,6.179-14.051c-2.543-7.715-9.348-11.923-11.641-14.989c-4.62-5.654-8.576-12.528-8.242-20.066
					c-2.632-0.004-5.276,0.278-7.88-0.195c-6.172,10.977,4.165,26.374,12.305,36.005c1.149,1.24,2.326,2.66,3.992,3.192
					c1.455,0.425,2.083-1.336,2.262-2.457c0.074-3.936-5.934-13.581-7.979-16.897c-1.426-2.509-5.382-2.386-6.783-10.373
					c-0.402-2.938-0.545-5.988,0.1-8.898c0.258,0.071,0.783,0.215,1.045,0.286c-1.388,15.808,4.917,14.966,6.699,18.285
					c4.547,7.451,9.262,15.368,7.876,18.941c-0.398,1.244-1.424,2.541-2.871,2.413c-2.258-0.187-3.809-2.087-5.256-3.626
					c-8.312-9.751-18.219-24.592-13.12-36.347c-0.966,0.131-2.378-0.342-2.922,0.716c-2.863,4.675-3.197,10.373-2.962,15.712
					c0.047,2.346,1.296,4.405,2.302,6.453c10.831,20.54,11.503,15.169,10.918,21.756c-0.694,5.211-3.564,6.055-7.291,3.216
					c-5.916-4.861-2.177-2.371-13.518-27.02c-4.209-10.341,2.53-17.573,4.131-20.094c-7.527,4.359-12.562,16.606-6.842,29.564
					c2.955,6.441,12.323,25.706,8.608,31.695c-2.004,2.835-7.46-2.876-8.544-5.944c-2.985-7.699-8.65-22.755-9.705-30.912
					c-1.327-8.379,7.038-18.339,12.051-24.352c-6.332,2.803-16.073,10.034-17.251,19.966c-0.139,2.235,0.608,4.397,1.129,6.544
					c8.415,30.298,13.912,28.724,9.383,39.257c0.195,1.821,1.165,3.59,0.735,5.463c-0.028,0.584-0.656,0.708-1.073,0.93
					c-0.237-3.27,0.4-4.665-5.971-15.728c-1.483-2.656-2.35-5.59-3.503-8.393c-10.393-27.616-14.698-35.096,8.969-47.559
					c-3.134,0.661-15.249,4.881-20.165,10.922c-1.388,1.574-1.948,3.65-1.928,5.717c-0.433,0-0.863,0-1.288,0.008
					c0.205-3.955,0.497-2.362-1.34-5.86c-1.535-2.633-4.455-15.636-4.93-18.678c-1.885-0.521-3.793-0.922-5.713-1.248
					c18.495,91.642,69.173,118.744,73.218,123.954c-0.219,0.159-0.656,0.477-0.875,0.636c-2.842-2.083-5.514-4.389-8.146-6.727
					c-10.428-7.598-19.243-17.211-26.971-27.489c-0.843-1.312-2.621-0.457-3.885-0.64c-30.816-0.568-47.388-31.178-66.229-37.818
					c-1.067-0.505-27.675-17.063-28.363-25.338c0.827,0.342,1.419,1.01,1.781,1.825c1.876,3.812,9.25,10.074,11.804,11.526
					c-1.014-1.948-2.469-3.638-3.304-5.677c1.133,0.684,2.207,1.511,2.922,2.652c7.792,11.757,18.325,14.647,20.527,16.086
					c0.724,0.259,1.614,1.336,2.326,0.553c0.795,0.593,1.551,1.248,2.222,1.988c1.698,1.92,3.988,3.157,5.884,4.862
					c0.867,0.807,1.921,1.392,3.081,1.658c1.416,2.727,4.211,4.29,6.337,6.401c0.052-0.569,0.108-1.133,0.167-1.686
					c1.547,0.894,0.799,3.073,2.282,4.016c3.996,3.399,8.075,6.811,12.711,9.311c0.051-0.62,0.107-1.233,0.171-1.837
					c0.588,0.513,1.102,1.125,1.388,1.873c-0.274,0.091-0.815,0.282-1.085,0.374c2.922,1.869,6.242,3.002,9.141,4.91
					c-0.071-7.566-1.888-24.884-7.431-36.653c-1.239-2.264-10.482-13.209-10.393-33.631c-0.107-3.169,0.465-6.298,0.6-9.454
					c-8.614-5.234-66.547,7.001-76.514,9.109c0.513,2.123,1.161,4.214,1.94,6.258c0.704-1.018,1.479-1.984,2.35-2.855
					c0.326,0.215,0.779,0.346,0.95,0.752c-3.083,3.899-3.213,3.047,0.394,9.86c15.278,27.026,54.802,51.462,71.402,59.414
					c-3.542-6.607-11.783-15.761-16.027-18.535c-31.21-21.16-27.475-11.107-47.323-34.192c-2.651-3.32-7.422-7.165-4.62-13.629
					c0.338,0.159,0.68,0.326,1.026,0.505c-0.413,1.654-0.855,3.411-0.35,5.105c0.767,3.469,11.378,14.437,13.61,16.643
					c4.127,3.964,8.457,8.158,14.094,9.805c5.373,2.91,24.032,13.7,28.383,18.102c4.19,4.203,8.123,8.715,11.279,13.76
					c0.93,1.435,1.543,3.141,2.93,4.226c16.74,13.56,47.389,36.896,69.624,35.5c2.127-0.075,4.099-0.998,6.198-1.237
					c68.854-3.706,131.248-32.133,169.007-65.72c-1.876-1.252-4.031-3.423-3.204-5.876c3.277-10.517-5.279-22.55-6.5-25.254
					c0.219-1.419,1.658-2.64,3.129-2.31c5.065,1.118,9.576,9.788,10.977,14.444c0.477,1.55,0.501,3.224,1.205,4.711
					c0.549-6.381-3.557-13.624-7.371-18.806c-1.44-1.561,1.056-5.613,5.999-0.425c7.009,7.563,6.875,13.259,7.757,15.641
					c0.527-6.48-3.492-13.777-7.32-18.837c-1.141-1.113,0.02-3.22,1.519-3.093c3.965,0.307,8.619,7.577,10.198,11.224
					c0.692,1.543,0.982,3.228,1.662,4.783c0.513-6.425-3.046-12.262-6.679-17.259c-0.831-0.974,0.151-2.485,1.248-2.704
					c1.01-0.08,1.968,0.37,2.926,0.652c0.354-0.899,0.918-2.036,2.095-1.765c2.93,0.533,4.862,3.054,6.89,5.013
					c-0.894-4.218-2.521-8.305-4.659-12.039c-3.817,0.049-21.486,4.167-32.451,2.31c9.685-0.593,19.343-1.666,28.932-3.149
					c1.574-0.226,3.165-0.7,4.771-0.441c17.475,3.403,47.521,6.482,57.983-7.578c14.515,3.965,26.785,2.084,35.365-10.325
					c13.302-18.925,10.738-49.518,11.951-53.271c1.401-4.375,1.777-26.29-2.095-40.776
					C862.99,424.697,857.82,415.029,848.796,415.975z M778.324,191.382c2.632,0.155,5.16,1.058,7.602,2.004
					c-0.032,0.282-0.091,0.847-0.124,1.129c-2.167-0.513-4.21-1.479-6.433-1.722c-1.069-0.119-2.151-0.235-3.133-0.684
					C776.829,191.636,777.529,191.27,778.324,191.382z M635.673,159.579c-1.107-9.983-6.819-11.139-10.858-20.646
					c0.366-0.135,0.735-0.263,1.113-0.382c5.158,10.329,10.401,11.742,10.941,21.099
					C636.571,159.635,635.971,159.599,635.673,159.579z M645.087,149.628c-0.294-0.263-0.581-0.525-0.859-0.791
					c2.266-4.344,6.004-7.67-1.924-17.08c-1.113-1.403-2.636-2.421-3.65-3.904c0.223-0.151,0.672-0.445,0.895-0.596
					c3.538,3.073,6.691,6.779,8.242,11.264c1.002-4.085-0.25-12.925-6.52-21.871c0.322-0.246,0.652-0.493,0.99-0.735
					C649.474,125.846,652.47,139.427,645.087,149.628z M670.521,163.277c-4.047-3.479-7.757-7.836-13.073-9.355
					c-0.008-0.286-0.028-0.859-0.036-1.145c4.604,0.518,11.737,7.238,14.003,9.884C671.192,162.815,670.743,163.122,670.521,163.277
					z M329.369,176.58c1.173,1.097,2.318,2.234,3.531,3.3c-0.111-0.974-0.215-1.952-0.298-2.926c0.286,0.02,0.863,0.06,1.153,0.08
					c0.414,4.926,4.039,8.588,7.272,11.967c-0.274,0.266-0.549,0.533-0.823,0.795c-2.055-1.678-3.681-3.789-5.272-5.896
					c-2.024-2.39-4.473-4.365-6.636-6.62C328.65,177.041,329.007,176.81,329.369,176.58z M302.839,142.917
					c23.631-10.635,13.257-4.046,21.036-10.417c15.544-13.545,29.745-19.936,36.522-21.433c0.028,0.286,0.084,0.859,0.111,1.149
					c-17.473,5.397-33.653,18.779-36.414,22.026c2.334-0.421,4.556-1.288,6.87-1.789c2.016-0.505,4.127-0.664,6.051-1.491
					c4.138-1.747,33.648-14.119,38.152-15.172c-0.004,0.286-0.012,0.867-0.016,1.157c-12.997,4.803-25.743,10.25-38.549,15.525
					c-4.649,1.601-5.174-0.831-36.684,13.116C300.628,144.451,301.562,143.422,302.839,142.917z M667.718,302.994
					c-13.901,11.552-14.148,31.039-8.6,48.183c-0.39,0.135-0.771,0.27-1.149,0.401c-7.753-22.613-3.659-45.913,19.199-55.821
					c19.45-8.369,41.154-11.681,62.182-8.942c23.119,2.207,42.992-36.913,31.918-67.732c-0.874-2.636-2.306-5.022-3.367-7.57
					c5.032,2.782,8.337,18.004,7.673,29.89c7.269-3.389,15.488,0.723,21.517,5.666c-0.318,0.246-0.652,1.022-1.125,0.604
					c-1.94-1.248-3.745-2.712-5.825-3.737c-8.589-4.466-14.822-2.111-14.778,0.127c-2.046,19.528-13.388,40.434-30.184,43.714
					c-4.365,0.895-8.755-0.183-13.12-0.418C703.677,285.484,676.481,295.389,667.718,302.994z M607.492,621.241
					c-2.143,0.648-4.771,0.294-6.274-1.487c-2-2.227-2.199-5.379-2.242-8.218c-2.851,2.509-5.757,5.005-9.093,6.854
					c-2.708,1.483-6.652,0.501-7.972-2.401c-1.121-2.41-1.463-5.316-0.759-7.876c4.568-4.733,18.492-14.258,12.786-51.224
					c5.478-4.501,9.895-1.261,13.506,4.914c1.706,2.906,1.957,6.341,3.113,9.451c0.02-4.103-1.368-8.039-1.928-12.055
					c0.481-0.954,1.514-1.483,2.409-1.992c9.459-5.019,19.586,17.91,15.983,36.295C623.999,609.55,611.021,619.725,607.492,621.241z
					 M643.771,628.529c-4.741,0.836-6.583-4.485-6.667-9.387c-0.095-0.688,0.302-1.252,0.7-1.757
					c4.87-5.817,6.974-13.45,7.63-20.885c-0.892,2.916-2.262,15.632-15.927,26.531c-1.288,0.97-2.525,2.052-3.996,2.735
					c-4.618,1.465-8.897-1.261-8.612-9.411c-0.076-0.97,0.843-1.507,1.419-2.127c17.923-16.512,8.298-48.977,8.6-50.572
					c1.499-1.821,4.043-2.878,6.377-2.242c2.74,0.728,4.747,2.934,6.405,5.113c2.815,3.654,3.519,8.337,5.002,12.587
					c-0.274-4.354-1.547-8.564-2.489-12.802c8.075-10.644,18.233,11.44,17.816,28.995
					C660.182,614.288,647.224,628.073,643.771,628.529z M656.514,617.747c-0.274-1.32-0.672-2.871,0.322-3.992
					c8.053-11.164,5.285-29.668,0.771-42.676c8.447-13.573,28.869,28.441,6.672,50.939
					C662.827,623.6,658.218,624.773,656.514,617.747z M671.697,615.659c-0.346-1.193-0.719-2.572,0.1-3.662
					c8.698-13.94-1.002-36.792-1.276-38.136c0.368-1.377,2.968-5.144,7.987-0.004c5.061,5.004,14.879,28.653,0.362,45.264
					C677.722,620.597,673.669,622.105,671.697,615.659z M729.613,606.642c-1.161,1.499-3.685,1.574-4.942,0.171
					c-1.109-1.049-1.443-2.588-1.881-3.984c-0.91,0.978-1.248,2.306-1.916,3.439c-1.181,2.048-2.552,4.011-4.234,5.682
					c-1.257,1.304-3.542,1.479-4.887,0.219c-1.487-1.213-1.841-3.189-2.35-4.922c-2.421,5.233-6.576,13.775-10.695,9.629
					c-1.531-1.479-1.948-3.654-2.426-5.634c-1.435,2.664-2.843,5.395-4.934,7.618c-1.304,1.551-3.984,1.451-5.228-0.115
					c-1.379-1.634-2.035-3.817-2.131-5.92c0.644-1.706,1.825-3.169,2.373-4.922c4.504-12.686-1.169-27.335-3.141-33.647
					c0.489-1.686,2.417-3.041,4.186-2.532c4.748,1.303,7.461,8.507,8.393,10.695c5.556,13.569,2.189,22.625,1.766,25.696
					c1.709-2.672,2.211-5.908,2.644-8.989c1.251-13.237-4.345-25.114-4.616-27.218c0.636-1.352,2.004-2.565,3.59-2.393
					c4.793,0.465,8.002,8.539,8.536,9.725c5.822,13.513,2.917,22.247,2.597,25.409c6.103-8.015,3.105-23.195-0.831-33.078
					c-0.385-0.803,0.477-1.479,0.966-2c4.995-4.966,16.821,9.641,13.478,29.326c6.543-11.613-1.529-31.089-1.733-32.157
					c0.6-1.209,1.829-2.246,3.244-2.171C732.958,564.769,743.904,590.771,729.613,606.642z M761.658,544.445
					c-0.148-0.223-0.449-0.664-0.6-0.887c3.126-3,20.086-13.461,4.743-26.749c-12.226-10.304-32.239-14.764-40.116-17.549
					c-19.157-5.012-60.416-4.572-80.188-4.457c0.008-0.298,0.024-0.894,0.032-1.189c19.388-0.207,67.335-0.826,84.688,5.856
					C763.806,508.627,789.6,525.449,761.658,544.445z M816.003,540.373c-3.113,0.308-31.184,1.55-41.241-4.401
					c0.135-0.374,0.282-0.739,0.441-1.097c10.386,5.151,27.295,4.527,40.811,4.449C816.011,539.586,816.003,540.111,816.003,540.373
					z"/>
				<path stroke="#F193AB" stroke-width="0.5" d="M579.821,119.332c-0.912,2.149,4.531,6.492,9.228,2.862
					c1.458-1.525,1.16-3.428,8.346-3.924c12.121-0.606,15.52,3.242,24.944-0.163c10.082-3.798,2.898-13.357-4.731-20.928
					c-3.658-0.72-7.411-0.95-11.104-1.495c-1.646-0.123-3.304-0.684-4.95-0.322c-0.843,0.191-1.682,0.398-2.525,0.561
					C588.799,97.715,582.754,109.37,579.821,119.332z"/>
				<path stroke="#F193AB" stroke-width="0.5" d="M643.6,103.338c-7.626-1.988-15.299-3.912-23.104-5.049
					c3.177,3.499,6.358,7.168,7.884,11.733C635.14,103.734,640.697,104.224,643.6,103.338z"/>
				<path stroke="#F193AB" stroke-width="0.5" d="M291.186,141.346c4.784-13.271,30.447-25.708,33.715-28.383
					c-17.483,1.174-44.888,15.924-47.992,18.655C285.823,133.32,289.291,139.361,291.186,141.346z"/>
				<path stroke="#F193AB" stroke-width="0.5" d="M141.489,334.2c1.634-0.453,3.495-0.732,4.628-2.131
					c6.767-7.359,11.776-16.185,15.581-25.39c3.871-8.167,12.295-12.86,21.426-14.738c14.484-2.838,28.202,0.734,30.22,0.883
					c1.03-0.159,1.916-0.767,2.867-1.161c2.318-1.125,4.843-1.69,7.284-2.477c-2.004-0.907-4.115-1.69-5.781-3.173
					c-7.066-5.832-5.071-17.227-1.34-25.636c3.439-6.743,5.455-14.074,7.8-21.239c2.723-6.56,6.751-12.476,10.584-18.42
					c0.338-0.433,0.111-0.974,0.051-1.451c-0.963-4.445,0.055-14.813,0.605-17.008c2.493-5.96,3.169-12.46,4.333-18.766
					c0.421-1.872,14.058-22.599,27.651-33.93c6.293-5.108,16.717-10.91,23.25-6.326c-5.099-8.941-14.412-11.761-17.048-9.729
					c-6.234,4.008-12.273,8.333-18.022,13.013c-7.135,5.74-71.734,40.348-96.441,100.373c-0.791,1.746-1.121,3.718-2.258,5.292
					c-12.981,15.263-24.503,31.91-32.971,50.111C122.088,305.938,114.166,341.065,141.489,334.2z"/>
				<path stroke="#F193AB" stroke-width="0.5" d="M523.504,219.176c21.642-1.932,26.248-12.4,60.098-2.815
					c-3.793-2.486-14.646-8.301-21.561-25.39c-1.074-2.831-2.171-5.705-2.438-8.747c-1.985-17.761-13.75-24.212-29.277-19.386
					c-5.818,1.832-15.383,0.043-21.473-1.789c-11.971-3.694-23.115-9.677-33.552-16.536c-3.355-2.115-6.385-4.763-8.616-8.059
					c-2.322,8.469-5.771,5.583-8.957,7.037c-6.982,3.021-40.022,17.164-44.124,23.596c1.968,1.888,4.25,3.407,6.262,5.248
					c-0.29,0.29-0.573,0.584-0.855,0.875c-2.047-1.563-3.928-3.324-6.007-4.839c-8.933,9.155-28.125,30.244-29.735,42.923
					c0.401,6.83,1.149,13.911-1.026,20.543c-1.288,5.533-4.756,21.073-2.91,26.511c0.215,0.752,1.157,0.573,1.746,0.783
					c-6.919,7.876-18.532,6.328-28.614,3.443c-2.795-0.914-5.729-1.638-8.182-3.328c-7.1-4.647-15.529-6.008-22.324-1.813
					c-3.74,2.29-7.263,21.029-10.21,31.95c-0.688,2.831,0.155,5.773-0.493,8.615c-1.208,5.105,1.261,19.144,6.333,32.411
					c0.795,3.145,1.642,6.417,3.868,8.898c4.481,5.268,11.677,7.045,18.317,7.411c3.085,0.382,6.083-0.735,9.164-0.576
					c4.111-0.104,8.202,0.37,12.301,0.537c77.295,0.067,69.188,0.571,73.846-1.567c14.464-6.961,11.053-18.666-0.032-29.95
					c-0.712-0.505-0.783-1.817,0.199-2.048c11.225-4.504,21.984-9.973,26.53-20.964c4.487,7.099,4.077,3.929,42.947-9.001
					c11.384-3.738,8.148-2.807,30.51-7.673c2.978-0.545,5.88-1.567,8.929-1.654c0.593-0.056,1.026-0.549,1.519-0.847
					c-0.119,0.362-0.231,0.731-0.338,1.097c1.269,0.728,34.74,16.95,52.059,13.899c13.227-2.174,27.408-11.009,38.199-19.064
					c3.004-2.162,2.138-4.611,7.324-10.17c9.126-9.715,19.459-6.067,23.258-5.757c29.169,2.805,49.345-1.203,54.322-3.332
					c7.133-3.13,11.802-8.243,8.333-15.18c-2.222-4.291-0.446-2.791-19.962-11.41c0.115-0.354,0.235-0.708,0.362-1.062
					c1.855,0.495,10.589,4.613,17.076,7.367c1.146-2.878,3.371-11.19,0.652-12.882c-25.968-18.08-46.279-16.139-56.631-8.266
					c-15.892,11.888-32.274,12.357-35.416,13.887c-38.633,17.387-62.178,31.313-62.178,31.313c1.388-1.006,2.596-2.211,3.753-3.467
					c7.076-4.231,25.52-15.258,27.708-23.143c-9.097-5.248-19.036-9.045-29.278-11.355c-23.938-5.255-29.336,2.042-49.534,4.811
					c-1.857,0.322-3.928-0.254-5.602,0.811c-4.477,2.664-8.719,5.781-12.329,9.55c-7.427,7.784-7.839,13.703-6.556,20.002
					c-0.374,0.108-0.747,0.211-1.113,0.314c-1.7-5.046-5.808-15.793-9.82-19.338c-0.898-0.91-2.489-0.374-3.272-1.435
					c-4.032-4.62-7.419-9.788-10.21-15.239c-2.084-4.134-18.345-24.332-28.964-19.585c-6.808,3.012-9.679,14.852-10.476,22.193
					c-1.209,9.947-2.326,19.907-3.404,29.87c-0.517,4.051-0.123,8.178-1.006,12.186c-1.757,10.158-7.805,19.72-16.881,24.821
					c-0.159-0.374-0.306-0.748-0.449-1.117c10.47-6.68,15.842-16.562,16.69-28.685c0.233-8.235,2.962-30.337,3.972-38.597
					c0.883-6.912,3.604-16.916,9.347-20.889c6.318-4.465,14.34,0.185,20.229,5.276c13.948,12.293,11.542,16.585,21.453,28.2
					c1.033,1.296,3.025,1.026,4.107,2.302c3.769,3.86,5.526,9.093,7.884,13.828c1.1-14.023,17.944-23.034,19.314-24.447
					c-10.263-2.961,0.963-13.703-0.99-26.38c-0.481-2.882,1.113-5.662,3.081-7.641c0.322,0.259,0.648,0.513,0.974,0.775
					c-6.451,7.063,1.061,6.839-5.494,23.763C512.763,220.47,520.317,219.099,523.504,219.176z M453.136,243.477
					c-0.004,0.298-0.008,0.899-0.008,1.197c-8.697,0.966-12.849,3.223-17.951,7.287c-0.215-0.155-0.652-0.469-0.867-0.628
					C436.501,248.574,443.734,244.067,453.136,243.477z"/>
				<path stroke="#F193AB" stroke-width="0.5" d="M593.708,240.375c0,0,17.673-8.795,30.697-14.865
					c2.402-1.177,4.93-2.103,7.26-3.431c-7.474,0.545-15.012,0.644-22.455-0.338c-2.716-0.405-5.467-0.183-8.182-0.477
					c-2.191-0.151-4.334-0.664-6.512-0.887c3.594,1.956,7.435,3.455,10.902,5.654C605.492,231.556,597.299,237.029,593.708,240.375z
					"/>
				<path stroke="#F193AB" stroke-width="0.5" d="M360.818,263.097c3.016,0.715,12.687,1.579,17.776-3.336
					c-1.857-3.924-0.755-8.337-0.66-12.48C375.683,251.923,374.547,262.645,360.818,263.097z"/>
				<path stroke="#F193AB" stroke-width="0.5" d="M841.345,298.943c-1.987,3.63-5.757,5.996-9.781,6.695
					c0.887,2.179,2.223,4.135,3.149,6.302c11.358,24.216,6.13,36.69,5.312,40.808c7.385,21.281,8.741,24.226,9.124,61.915
					c3.662-0.278,7.013,1.412,9.793,3.642c5.626-4.791,9.8-11.224,11.975-18.281c1.083-3.493-1.645-69.163-17.391-78.641
					c0.381,7.779,2.366,40.371,8.493,45.102c0.688,0.533,1.244,1.224,1.55,2.056c2.467,5.961,6.625,16.282,6.146,22.741
					c-0.262-0.004-0.787-0.012-1.049-0.012c-0.366-7.621-3.24-14.794-6.063-21.779c-1.382-4.036-7.321,0.804-10.301-46.906
					c-0.278-4.068,1.645-13.773-0.99-25.294c-1.34-5.769-3.809-11.482-8.134-15.645
					C843.893,287.409,844.307,293.695,841.345,298.943z"/>
				<path stroke="#F193AB" stroke-width="0.5" d="M188.972,447.538c1.356,0.843,2.99,0.767,4.525,0.799
					c4.715,0.018,19.965,0.465,23.37-2.652c1.692-4.574-30.6-20.144-35.663-22.141c-5.904-1.813-12.122-2.227-18.253-2.548
					c-6.768-0.425-16.668-16.908-20.058-22.765c-2.295-3.918-14.917-16.348,19.661-21.044c17.438-2.222,38.87-1.615,56.42-0.704
					c-4.095-2.29-8.437-4.68-11.049-8.727c-5.753-8.675-7.625-19.354-7.415-29.608c-4.882-0.23-9.772-0.012-14.655-0.099
					c0-0.302-0.004-0.903-0.004-1.201c4.867-0.175,9.741,0.108,14.603-0.123c0.322-10.794,2.366-21.505,5.634-31.787
					c0.722-2.446-0.204-7.967,6.461-10.886c-18.184-4.085-43.392-2.847-50.258,14.428c-6.847,16.28-20.702,36.623-38.39,35.575
					c-4.059-0.06-7.896-1.53-11.542-3.181c-3.505,26.197,4.59,43.662,23.064,61.628c1.209,1.157,1.332,2.93,1.928,4.417
					c8.226,23.257,37.508,37.061,45.209,38.637c-2.124-2.13-17.285-10.251-17.211-21.123c0.414,0.024,0.835,0.052,1.252,0.087
					C166.698,434.207,180.411,442.88,188.972,447.538z"/>
				<path stroke="#F193AB" stroke-width="0.5" d="M113.078,339.727c10.447,5.543,21.27,3.378,29.572-4.433
					c-4.071,0.851-8.365,1.718-12.456,0.477c-3.686-1.018-6.667-3.932-8.063-7.459c-2.405-5.733-1.956-12.102-1.483-18.154
					C118.02,314.97,111.041,339.129,113.078,339.727z"/>
				<path stroke="#F193AB" stroke-width="0.5" d="M275.402,464.491c15.863,6.722,39.653,12.386,52.517,0.867
					c-31.075-12.78-92.76-40.693-103.22-72.65c-0.664-1.841-0.6-3.884-1.503-5.642c-0.362-0.759-0.736-1.57-0.584-2.429
					c0.33-2.445,1.566-4.759,3.407-6.397c-16.019-1.241-86.185-5.013-85.953,11.12c-0.048,3.002,2.079,5.316,3.598,7.693
					c3.542,6.091,7.296,12.122,11.955,17.438c6.322,6.697,6.308,4.801,13.207,5.614c5.467,0.56,11.12,1.113,16.09,3.654
					c46.944,22.653,39.632,26.12,6.461,25.839c6.312,8.967,42.939,16.586,53.621,18.654
					C249.64,469.111,267.357,469.749,275.402,464.491z"/>
				<path stroke="#F193AB" stroke-width="0.5" d="M871.728,427.143c-0.274-8.003,0.19-16.038-0.385-24.034
					c-1.635,2.895-3.424,8.986-11.518,16.126c9.296,10.946,9.77,29.951,10.031,44.195
					C870.429,461.59,873.883,443.133,871.728,427.143z"/>
				<path stroke="#F193AB" stroke-width="0.5" d="M852.851,512.038c12.813-17.258,9.908-38.725-10.91-52.142
					c-1.465,1.282-10.257,10.678-21.072,7.789c-6.516-1.757-11.379-7.001-14.929-12.492c-0.927-1.674-2.958-1.98-4.592-2.576
					c-10.189-3.229-20.673-2.76-27.281,5.654c-4.364,5.532-9.329,14.302-5.097,19.975c4.5,6.075,13.109,3.837,27.664,12.861
					c11.174,6.721,16.971,16.038,20.814,19.386c9.073,8.033,16.404,8.123,20.583-2.985c1.109-2.875,1.614-5.932,2.6-8.842
					c-0.131,5.18-0.585,10.357-0.597,15.549C843.725,514.888,850.322,514.958,852.851,512.038z"/>
				<path stroke="#F193AB" stroke-width="0.5" d="M418.578,513.803c0.541,0.219,1.082,0.441,1.626,0.664
					c-1.233-1.551-2.703-2.942-3.55-4.763c-5.061-9.768-9.673-19.819-12.993-30.328c-1.308-0.274-2.783-0.401-3.761-1.419
					c-1.96-1.833-2.68-4.497-3.61-6.918c-10.623,17.815-34.852,0.542-39.078-1.371c-9.025-0.728-17.967-2.235-26.892-3.713
					c-0.624-0.155-1.26-0.024-1.702,0.457c-17.472,15.503-51.633-0.143-53.177-0.362c-2.877,1.244-7.42,4.784-28.308,3.805
					c-5.672,26.157,30.368,52.82,54.134,66.201c21.817,17.817,85.746,12.19,113.612,8.699
					C410.304,536.468,414.825,522.552,418.578,513.803z M300.497,528.792c-4.85-12.488-12.587-23.728-21.891-33.313
					c-2.139-2.222-4.509-4.199-6.779-6.278c0.123-0.219,0.37-0.652,0.493-0.871c4.833,2.24,24.507,23.948,29.23,40.072
					C301.197,528.526,300.843,528.653,300.497,528.792z M322.423,530.029c-1.643-19.496-12.278-31.932-29.83-39.352
					c0.111-0.37,0.226-0.735,0.342-1.093c19.282,6.746,30.627,24.759,30.538,40.438C323.211,530.02,322.686,530.024,322.423,530.029
					z M349.884,535.594c-4.84-16.611-16.116-30.578-28.697-42.358c0.27-0.274,0.541-0.545,0.815-0.807
					c16.5,14.467,26.429,32.099,29.015,42.839C350.64,535.376,350.262,535.483,349.884,535.594z M377.365,530.068
					c-2.775-12.158-9.92-23.267-19.939-30.713c-3.888-3.05-8.313-5.272-12.73-7.423c0.167-0.23,0.501-0.684,0.664-0.91
					c15.872,6.459,28.294,19.439,33.262,38.728C378.2,529.854,377.782,529.957,377.365,530.068z M392.143,530.625
					c-12.075-31.339-39.967-46.44-42.044-48.485c0.211-0.171,0.636-0.521,0.847-0.692c29.918,18.494,41.559,44.278,42.609,49.9
					C392.898,531.551,392.302,531.317,392.143,530.625z M406.516,516.654c-5.942-5.249-19.022-24.129-20.773-29.119
					c0.239-0.084,0.712-0.254,0.95-0.338c1.695,2.288,6.526,13.066,20.475,28.554C407.005,515.978,406.678,516.427,406.516,516.654z
					"/>
				<path stroke="#F193AB" stroke-width="0.5" d="M424.924,539.228c-5.357-6.406-4.571-15.702-2.414-23.807
					c-0.406-0.278-0.807-0.553-1.205-0.819c-3.296,7.387-8.125,22.221-1.706,27.163c3.125,2.362,7.212,1.284,10.814,1.757
					C428.434,542.305,426.375,541.093,424.924,539.228z"/>
				<path stroke="#F193AB" stroke-width="0.5" d="M418.904,516.523c-5.365,12.369-9.051,31.284,5.16,31.011
					c3.711-0.123,14.981,0.442,19.593-1.722c-6.151-0.084-12.238-1.352-18.408-1.137c-3.324,0.091-6.942-1.324-8.556-4.385
					C412.727,532.969,417.637,521.497,418.904,516.523z"/>
				<path stroke="#F193AB" stroke-width="0.5" d="M492.131,543.093c-0.151-1.129-0.358-2.242-0.589-3.352
					c-0.327-0.093-21.248-5.219-21.859-5.34c1.698,2.831,4.429,4.978,7.439,6.27C480.269,542.074,481.089,541.081,492.131,543.093z"
					/>
				<path stroke="#F193AB" stroke-width="0.5" d="M499.975,541.598c0.199,1.626,0.576,3.224,0.942,4.823
					c5.686,0.322,11.403,0.02,17.088-0.211c-2.723-1.058-5.419-2.31-8.337-2.716C506.419,542.934,503.231,542.095,499.975,541.598z"
					/>
				<path stroke="#F193AB" stroke-width="0.5" d="M481.805,543.073c-4.206-1.093-26.175,0.181-34.971,3.05
					c-5.745,2.568-12.198,2.668-18.384,2.644c-2.966-0.127-6.039,0.398-8.902-0.616c-1.642-0.505-2.938-1.666-4.282-2.672
					c-0.075,2.298,0.123,4.604,0.509,6.878c0.12,0.366,0.044,1.268,0.7,1.081C435.641,549.477,462.255,544.261,481.805,543.073z"/>
				<path stroke="#F193AB" stroke-width="0.5" d="M502.841,553.931c5.268-2.306,10.818-3.849,16.317-5.479
					c1.467-0.485,3.105-0.576,4.389-1.507c-7.331,0.914-14.734,0.831-22.11,0.974C501.704,549.963,502.269,551.951,502.841,553.931z
					"/>
				<path stroke="#F193AB" stroke-width="0.5" d="M570.016,546.878c-2.179,0.088-4.358,0.246-6.528,0.405
					C565.752,549.24,564.729,550.49,570.016,546.878z"/>
				<path stroke="#F193AB" stroke-width="0.5" d="M539.029,548.059c0.676-0.485-0.187-1.332-0.68-0.692
					C537.681,547.844,538.528,548.691,539.029,548.059z"/>
				<path stroke="#F193AB" stroke-width="0.5" d="M546.05,547.26c-0.994,0.147-2.361-0.37-3.046,0.584
					c-1.26,1.59-2.815,2.938-3.888,4.675c-5.827,8.651-1.812,15.742-0.139,19.338c9.087,21.686,7.574,19.813,11.359,22.813
					c1.042,0.748,2.266,1.626,3.626,1.356c1.987-1.092,2.328-6.034,1.344-7.486c-13.996-21.717-12.911-21.933-12.866-28.204
					C542.535,555.772,543.518,551.116,546.05,547.26z"/>
				<path stroke="#F193AB" stroke-width="0.5" d="M503.259,555.239c0.485,2.409,1.22,4.759,2,7.093
					c4.616-9.744,20.55-13.37,22.761-14.778C525.609,547.719,508.294,552.629,503.259,555.239z"/>
				<path stroke="#F193AB" stroke-width="0.5" d="M512.188,567.488c-0.676,6.397,7.665,27.35,10.882,35.376
					c1.781,3.352,3.674,6.64,5.308,10.067c2.056-3.085,1.006-7.121-0.302-10.297c-2.423-5.03-10.797-27.953-10.806-33.921
					c1.368-11.493,12.385-17.7,13.939-19.219C528.508,550.246,512.564,557.565,512.188,567.488z"/>
				<path stroke="#F193AB" stroke-width="0.5" d="M511.31,625.439c5.574,2.266,11.704,3.403,17.724,2.906
					c-24.549-31.04-34.109-74.49-35.293-78.077c-1.038,11.228,1.058,22.881,6.651,32.733
					C500.979,584.075,510.169,594.179,511.31,625.439z"/>
				<path stroke="#F193AB" stroke-width="0.5" d="M758.282,554.813c0.962,1.988,6.605,5.864,7.276,12.262
					c0,0.962,0.752,1.598,1.654,1.765C768.35,561.734,761.953,555.669,758.282,554.813z"/>
				<path stroke="#F193AB" stroke-width="0.5" d="M532.31,555.362c-1.61,1.403-7.174,9.015-7.355,16.082
					c0.267,7.43,7.167,25.39,9.753,32.112c0.857,2.24,5.084,6.969,6.441,5.479c2.446-5.849-4.175-19.808-6.926-26.058
					c-1.362-3.13-6.369-11.798-3.849-22.105C530.807,558.964,531.725,557.223,532.31,555.362z"/>
				<path stroke="#F193AB" stroke-width="0.5" d="M595.279,557.493c6.274,37.888-11.114,49.235-13.132,51.519
					c-0.294,2.29-0.048,4.775,1.129,6.802c1.256,2.187,4.445,2.481,6.453,1.209c8.544-5.169,15.486-13.255,18.539-22.837
					C614.304,575.731,604.955,549.573,595.279,557.493z"/>
				<path stroke="#F193AB" stroke-width="0.5" d="M753.65,555.959c-0.016,0.549,0.064,1.121,0.438,1.571
					c3.614,5.077,6.982,11.069,6.302,17.525c-0.06,0.803-0.167,1.714,0.485,2.334c0.433,0.6,1.511,1.658,2.02,0.533
					C766.97,567.972,758.195,556.29,753.65,555.959z"/>
				<path stroke="#F193AB" stroke-width="0.5" d="M620.02,561.974c-3.154-3.812-6.527-5.814-10.138-2.405
					c4.173,17.08,4.315,38.799-8.445,50.894c-0.509,0.569-1.335,1.078-1.197,1.96c0.309,9.5,6.145,8.359,8.091,6.914
					c15.023-10.509,21.988-27.893,16.046-47.805C623.34,568.188,622.33,564.697,620.02,561.974z"/>
				<path stroke="#F193AB" stroke-width="0.5" d="M747.043,559.966c-0.119,0.183-0.354,0.553-0.473,0.739
					c9.484,13.09,7.634,18.515,7.717,21.37c0.294,1.201,1.284,2.215,2.489,2.545C761.567,575.415,752.377,560.829,747.043,559.966z"
					/>
				<path stroke="#F193AB" stroke-width="0.5" d="M631.689,562.499c-1.332,0.087-2.771,0.66-3.495,1.829
					c3.259,15.504,4.155,33.448-5.073,46.334c-1.34,2.071-3.24,3.662-4.866,5.487c-1.038,4.882,2.59,11.988,8.77,7.192
					C656.268,602.107,642.603,562.312,631.689,562.499z"/>
				<path stroke="#F193AB" stroke-width="0.5" d="M747.934,585.988c0.401,1.109,1.296,2.087,2.509,2.294
					c5.105-11.053-7.094-26.749-10.341-24.03C749.943,578.21,747.716,582.755,747.934,585.988z"/>
				<path stroke="#F193AB" stroke-width="0.5" d="M646.094,564.857c-1.189,0.31-2.898,1.288-2.282,2.755
					c4.116,15.844,5.577,37.591-4.763,50.215c-1.058,1.042-0.64,2.596-0.465,3.9c1.41,7.363,5.588,5.739,6.656,4.703
					C670.232,604.014,654.621,563.255,646.094,564.857z"/>
				<path stroke="#F193AB" stroke-width="0.5" d="M727.883,566.999c-0.923-0.799-2.258-1.578-3.463-0.942
					c-2.302,1.15,1.04,2.715,2.803,14.77c0.962,6.647,0.835,13.923-2.791,19.807c-1.026,1.439-0.107,3.244,0.585,4.624
					c0.58,1.312,2.521,1.809,3.518,0.684c7-7.589,9.252-19.519,3.869-31.882C731.259,571.512,730.122,568.8,727.883,566.999z"/>
				<path stroke="#F193AB" stroke-width="0.5" d="M733.549,566.407c-1.185,0.521-0.417,1.694,0.06,2.449
					c4.189,6.806,7.928,16.277,5.622,23.927c-0.593,1.392,0.334,2.775,1.272,3.757c0.585,0.672,1.933,0.748,2.318-0.175
					C750.15,583.609,738.999,565.882,733.549,566.407z"/>
				<path stroke="#F193AB" stroke-width="0.5" d="M765.315,573.595c0.593-1.121,0.95-2.35,1.05-3.61
					c-0.489-0.29-0.958-0.577-1.423-0.863C765.085,570.609,765.156,572.104,765.315,573.595z"/>
				<path stroke="#F193AB" stroke-width="0.5" d="M659.034,571.114c9.376,30.901,0.268,40.542-1.538,44.155
					c0.028,1.98,0.58,4.055,1.793,5.654c1.014,1.392,3.249,1.34,4.294,0c9.918-10.237,13.276-26.659,4.425-45.304
					C665.773,571.613,662.126,567.568,659.034,571.114z"/>
				<path stroke="#F193AB" stroke-width="0.5" d="M713.443,569.93c-1.101-0.37-2.004,0.453-2.727,1.149
					c9.27,24.975,0.927,33.238,0.036,35.818c0.076,1.423,0.585,2.858,1.471,3.992c0.894,1.177,2.847,1.117,3.741-0.032
					C730.295,595.596,720.718,572.345,713.443,569.93z"/>
				<path stroke="#F193AB" stroke-width="0.5" d="M700.025,571.007c-1.165-0.66-2.366,0.084-3.149,0.954
					c2.012,5.753,3.781,11.633,4.445,17.716c2.172,20.87-7.048,18.223-2.099,25.879c0.791,1.248,2.815,1.36,3.697,0.151
					c7.741-9.032,10.178-22.89,2.342-38.808C704.116,574.514,702.398,572.255,700.025,571.007z"/>
				<path stroke="#F193AB" stroke-width="0.5" d="M671.797,573.83c4.108,11.304,7.358,25.706,2.306,36.561
					c-0.505,1.284-1.769,2.437-1.443,3.92c1.137,5.455,4.047,5.613,5.327,3.908C694.707,598.81,677.999,566.444,671.797,573.83z"/>
				<path stroke="#F193AB" stroke-width="0.5" d="M692.339,577.937c-1.237-2.02-2.823-4.111-5.121-4.946
					c-1.129-0.405-2.043,0.453-2.711,1.237c9.85,27.203,1.612,36.333,0.799,38.999c0.131,1.813,0.759,3.741,2.103,5.025
					c1.073,0.93,2.66,0.378,3.404-0.696C698.592,608.223,700.76,593.898,692.339,577.937z"/>
				<path stroke="#F193AB" stroke-width="0.5" d="M759.232,581.515c0.648-0.628,1.248-1.304,1.801-2.024
					c-0.576-0.688-1.137-1.372-1.702-2.052C759.256,578.795,759.209,580.151,759.232,581.515z"/>
				<path stroke="#F193AB" stroke-width="0.5" d="M751.659,588.52c-0.569,0.986-1.98,1.201-2.862,0.529
					c-0.919-0.68-1.535-1.662-2.223-2.545c-0.016,3.042-0.767,5.992-1.702,8.862c3.638-3.026,7.017-6.353,10.393-9.665
					c-0.728-0.982-1.503-1.92-2.318-2.819C752.708,584.783,752.637,586.815,751.659,588.52z"/>
			</g>
		</g>
	</g>
</g>
</svg>
