<?xml version="1.0" encoding="iso-8859-1"?>
<!-- Generator: Adobe Illustrator 19.0.0, SVG Export Plug-In . SVG Version: 6.00 Build 0)  -->
<svg xmlns="http://www.w3.org/2000/svg" xmlns:xlink="http://www.w3.org/1999/xlink" version="1.1" id="Layer_1" x="0px" y="0px" viewBox="0 0 512.001 512.001" style="enable-background:new 0 0 512.001 512.001;" xml:space="preserve">
<path style="fill:#CCCCCC;" d="M231.695,430.921v49.739c0,13.132,10.645,23.776,23.777,23.776c13.132,0,23.777-10.645,23.777-23.776  v-49.739H231.695z"/>
<path style="fill:#B3B3B3;" d="M316.566,438.029l-60.542-17.022l-61.646,17.022c-9.401,0-17.022,7.621-17.022,17.022  s7.621,17.022,17.022,17.022h122.187c9.401,0,17.022-7.621,17.022-17.022C333.587,445.649,325.967,438.029,316.566,438.029z"/>
<path style="opacity:0.1;enable-background:new    ;" d="M207.607,455.05c0-9.401,7.621-17.022,17.022-17.022l46.384-12.808  l-14.988-4.214l-61.646,17.022c-9.401,0-17.022,7.621-17.022,17.022s7.621,17.022,17.022,17.022h30.251  C215.228,472.072,207.607,464.452,207.607,455.05z"/>
<path style="fill:#FFD54F;" d="M316.958,421.007c0,0-1.804-22.04,12.293-52.518c5.795-12.529,14.564-23.399,25.078-32.343  c32.914-28,53.793-69.722,53.793-116.32c0-84.306-68.344-152.651-152.651-152.651s-152.651,68.344-152.651,152.651  c0,46.598,20.879,88.32,53.793,116.32c10.514,8.945,19.283,19.814,25.078,32.343c14.097,30.479,12.293,52.518,12.293,52.518H316.958  z"/>
<path style="opacity:0.1;enable-background:new    ;" d="M214.914,367.852c-5.865-12.681-14.739-23.682-25.381-32.734  c-33.312-28.339-54.444-70.565-54.444-117.727c0-72.81,50.37-133.845,118.161-150.188c-83.281,1.19-150.428,69.059-150.428,152.622  c0,46.598,20.879,88.32,53.793,116.32c10.514,8.945,19.283,19.814,25.078,32.343c14.097,30.479,12.293,52.518,12.293,52.518h33.371  C227.357,421.007,229.182,398.7,214.914,367.852z"/>
<path style="fill:#CCCCCC;" d="M316.566,403.984H194.378c-9.401,0-17.022,7.621-17.022,17.022s7.621,17.022,17.022,17.022h122.187  c9.401,0,17.022-7.621,17.022-17.022C333.587,411.606,325.967,403.984,316.566,403.984z"/>
<path style="opacity:0.1;enable-background:new    ;" d="M207.607,421.007c0-9.401,7.621-17.022,17.022-17.022h-30.251  c-9.401,0-17.022,7.621-17.022,17.022s7.621,17.022,17.022,17.022h30.251C215.228,438.029,207.607,430.407,207.607,421.007z"/>
<circle cx="196.641" cy="248.551" r="12.729"/>
<circle cx="314.296" cy="248.551" r="12.729"/>
<path d="M255.472,302.04c19.297,0,34.941-15.644,34.941-34.941h-69.881C220.531,286.395,236.175,302.04,255.472,302.04z"/>
<path d="M263.564,37.199V7.563c0-4.177-3.385-7.563-7.563-7.563s-7.563,3.386-7.563,7.563v29.637c0,4.178,3.385,7.563,7.563,7.563  S263.564,41.376,263.564,37.199z"/>
<path d="M412.051,78.804L391.095,99.76c-2.953,2.953-2.953,7.742,0,10.696c2.895,2.895,7.772,2.923,10.696,0L422.746,89.5  c2.953-2.953,2.953-7.742,0-10.695C419.793,75.852,415.004,75.852,412.051,78.804z"/>
<path d="M425.396,257.485c0,4.177,3.385,7.563,7.563,7.563h29.637c4.178,0,7.563-3.386,7.563-7.563s-3.385-7.563-7.563-7.563  h-29.637C428.783,249.922,425.396,253.308,425.396,257.485z"/>
<path d="M120.906,110.456c2.953-2.953,2.953-7.741,0-10.695L99.949,78.804c-2.953-2.953-7.742-2.953-10.695,0  c-2.953,2.953-2.953,7.742,0,10.695c0,0,20.952,20.952,20.957,20.957C113.092,113.339,117.989,113.374,120.906,110.456z"/>
<path d="M41.842,257.485c0,4.177,3.386,7.563,7.563,7.563h29.637c4.177,0,7.563-3.386,7.563-7.563s-3.386-7.563-7.563-7.563H49.405  C45.229,249.922,41.842,253.308,41.842,257.485z"/>
<path d="M151.714,341.904c10.23,8.702,18.006,18.714,23.115,29.759c4.178,9.033,7.261,18.098,9.238,27.035  c-8.418,3.906-14.272,12.434-14.272,22.309c0,6.603,2.621,12.6,6.871,17.022c-4.25,4.422-6.871,10.419-6.871,17.022  c0,13.555,11.028,24.585,24.584,24.585h29.755v1.026c0,17.28,14.059,31.34,31.339,31.34c17.281,0,31.34-14.059,31.34-31.34v-1.026  h29.754c13.555,0,24.585-11.029,24.585-24.585c0-6.603-2.621-12.6-6.872-17.022c4.25-4.422,6.872-10.419,6.872-17.022  c0-9.874-5.855-18.402-14.272-22.309c1.976-8.937,5.059-18.002,9.238-27.035c5.107-11.044,12.884-21.056,23.113-29.759  c35.878-30.521,56.456-75.018,56.456-122.08c0-88.341-71.871-160.213-160.213-160.213c-22.789,0-44.813,4.693-65.461,13.949  c-3.812,1.708-5.517,6.183-3.808,9.994c1.708,3.812,6.18,5.517,9.995,3.808c18.69-8.377,38.632-12.625,59.274-12.625  c80.001,0,145.088,65.086,145.088,145.088c0,42.619-18.637,82.916-51.132,110.56c-11.909,10.132-21.006,21.883-27.04,34.93  c-4.787,10.35-8.311,20.786-10.512,31.109h-68.569c-4.178,0-7.563,3.386-7.563,7.563c0,4.177,3.385,7.563,7.563,7.563h73.258  c0.331,0,0.658,0.052,0.988,0.052c4.753,0.496,8.471,4.525,8.471,9.407c0,5.216-4.243,9.459-9.459,9.459h-19.68  c-4.178,0-7.563,3.386-7.563,7.563c0,4.177,3.385,7.563,7.563,7.563h19.68c5.216,0,9.459,4.243,9.459,9.459  s-4.243,9.459-9.459,9.459H194.378c-5.215,0-9.458-4.243-9.458-9.459s4.243-9.459,9.458-9.459h72.257  c4.178,0,7.563-3.386,7.563-7.563c0-4.177-3.385-7.563-7.563-7.563h-72.257c-5.215,0-9.458-4.243-9.458-9.459  c0-4.881,3.718-8.91,8.47-9.406c0.329-0.026,0.659-0.052,0.988-0.052c0,0,18.666,0,18.678,0c4.378,0,7.965-3.982,7.523-8.336  c-0.385-3.798-3.71-6.789-7.523-6.789h-13.987c-2.2-10.323-5.725-20.759-10.512-31.109c-6.034-13.046-15.132-24.799-27.041-34.93  c-32.494-27.643-51.131-67.94-51.131-110.56c0-46.368,22.456-90.319,60.069-117.569c3.382-2.45,4.138-7.18,1.687-10.562  c-2.45-3.382-7.179-4.138-10.562-1.687c-41.528,30.085-66.321,78.616-66.321,129.817  C95.259,266.886,115.836,311.383,151.714,341.904z M271.687,479.635v1.026c0,8.94-7.274,16.214-16.214,16.214  c-8.94,0-16.213-7.273-16.213-16.214v-1.026H271.687z"/>
<g>
</g>
<g>
</g>
<g>
</g>
<g>
</g>
<g>
</g>
<g>
</g>
<g>
</g>
<g>
</g>
<g>
</g>
<g>
</g>
<g>
</g>
<g>
</g>
<g>
</g>
<g>
</g>
<g>
</g>
</svg>
