<?xml version="1.0" encoding="UTF-8" standalone="no"?>
<!-- Created with Inkscape (http://www.inkscape.org/) -->

<svg
   xmlns:dc="http://purl.org/dc/elements/1.1/"
   xmlns:cc="http://creativecommons.org/ns#"
   xmlns:rdf="http://www.w3.org/1999/02/22-rdf-syntax-ns#"
   xmlns:svg="http://www.w3.org/2000/svg"
   xmlns="http://www.w3.org/2000/svg"
   xmlns:sodipodi="http://sodipodi.sourceforge.net/DTD/sodipodi-0.dtd"
   xmlns:inkscape="http://www.inkscape.org/namespaces/inkscape"
   width="172.48944mm"
   height="177.06566mm"
   viewBox="0 0 611.18306 627.398"
   id="svg2"
   version="1.1"
   inkscape:version="0.91 r13725"
   sodipodi:docname="school desk and chair with underside shelf.svg">
  <defs
     id="defs4">
    <clipPath
       id="clipEmfPath1"
       clipPathUnits="userSpaceOnUse">
      <path
         inkscape:connector-curvature="0"
         id="path3341"
         d="m 6.25143,5.00114 348.82957,0 0,386.33886 -348.82957,0 z" />
    </clipPath>
    <pattern
       y="0"
       x="0"
       height="6"
       width="6"
       patternUnits="userSpaceOnUse"
       id="EMFhbasepattern" />
  </defs>
  <sodipodi:namedview
     id="base"
     pagecolor="#ffffff"
     bordercolor="#666666"
     borderopacity="1.0"
     inkscape:pageopacity="0.0"
     inkscape:pageshadow="2"
     inkscape:zoom="0.35"
     inkscape:cx="369.16295"
     inkscape:cy="376.49941"
     inkscape:document-units="px"
     inkscape:current-layer="layer1"
     showgrid="false"
     fit-margin-top="0"
     fit-margin-left="0"
     fit-margin-right="0"
     fit-margin-bottom="0"
     inkscape:window-width="1366"
     inkscape:window-height="706"
     inkscape:window-x="-8"
     inkscape:window-y="-8"
     inkscape:window-maximized="1" />
  <metadata
     id="metadata7">
    <rdf:RDF>
      <cc:Work
         rdf:about="">
        <dc:format>image/svg+xml</dc:format>
        <dc:type
           rdf:resource="http://purl.org/dc/dcmitype/StillImage" />
        <dc:title></dc:title>
      </cc:Work>
    </rdf:RDF>
  </metadata>
  <g
     inkscape:label="Layer 1"
     inkscape:groupmode="layer"
     id="layer1"
     transform="translate(-5.8370518,-281.46362)">
    <path
       inkscape:connector-curvature="0"
       id="path3344"
       d="m 218.97657,288.20378 0,238.43262 17.85012,0 0,-238.43262 -17.85012,0 z"
       style="fill:#808080;fill-opacity:1;fill-rule:evenodd;stroke:none" />
    <path
       transform="matrix(1.7844758,0,0,1.6466489,-11.802542,268.13065)"
       inkscape:connector-curvature="0"
       id="path3346"
       d="m 129.326,12.1903 0,144.7987 10.003,0 0,-144.7987 z"
       clip-path="url(#clipEmfPath1)"
       style="fill:none;stroke:#000000;stroke-width:3.36014342px;stroke-linecap:butt;stroke-linejoin:miter;stroke-miterlimit:8;stroke-dasharray:none;stroke-opacity:1" />
    <path
       inkscape:connector-curvature="0"
       id="path3348"
       d="m 373.20163,288.20378 0,238.43262 17.98935,0 0,-238.43262 -17.98935,0 z"
       style="fill:#808080;fill-opacity:1;fill-rule:evenodd;stroke:none" />
    <path
       transform="matrix(1.7844758,0,0,1.6466489,-11.802542,268.13065)"
       inkscape:connector-curvature="0"
       id="path3350"
       d="m 215.752,12.1903 0,144.7987 10.081,0 0,-144.7987 z"
       clip-path="url(#clipEmfPath1)"
       style="fill:none;stroke:#000000;stroke-width:3.36014342px;stroke-linecap:butt;stroke-linejoin:miter;stroke-miterlimit:8;stroke-dasharray:none;stroke-opacity:1" />
    <path
       inkscape:connector-curvature="0"
       id="path3352"
       d="m 196.94541,515.44252 0,210.63766 17.98751,0 0,-210.63766 -17.98751,0 z"
       style="fill:#a6a6a6;fill-opacity:1;fill-rule:evenodd;stroke:none" />
    <path
       inkscape:connector-curvature="0"
       id="path3354"
       d="m 196.94541,515.44252 0,210.63766 17.98751,0 0,-210.63766 z"
       style="fill:none;stroke:#000000;stroke-width:5.75988293px;stroke-linecap:butt;stroke-linejoin:miter;stroke-miterlimit:8;stroke-dasharray:none;stroke-opacity:1" />
    <path
       inkscape:connector-curvature="0"
       id="path3356"
       d="m 214.65452,742.55161 -4.46292,-12.35315 -9.20254,0 -4.46299,12.35315 z"
       style="fill:#a6a6a6;fill-opacity:1;fill-rule:evenodd;stroke:none" />
    <path
       inkscape:connector-curvature="0"
       id="path3358"
       d="m 214.65452,742.55161 -4.46292,-12.35315 -9.20254,0 -4.46299,12.35315 z"
       style="fill:none;stroke:#000000;stroke-width:5.75988293px;stroke-linecap:butt;stroke-linejoin:miter;stroke-miterlimit:8;stroke-dasharray:none;stroke-opacity:1" />
    <path
       inkscape:connector-curvature="0"
       id="path3360"
       d="m 396.07148,517.24394 0,208.83624 18.26768,0 0,-208.83624 -18.26768,0 z"
       style="fill:#a6a6a6;fill-opacity:1;fill-rule:evenodd;stroke:none" />
    <path
       inkscape:connector-curvature="0"
       id="path3362"
       d="m 396.07148,517.24394 0,208.83624 18.26768,0 0,-208.83624 z"
       style="fill:none;stroke:#000000;stroke-width:5.75988293px;stroke-linecap:butt;stroke-linejoin:miter;stroke-miterlimit:8;stroke-dasharray:none;stroke-opacity:1" />
    <path
       inkscape:connector-curvature="0"
       id="path3364"
       d="m 414.33916,742.55161 -4.60215,-12.35315 -9.06332,0 -4.60221,12.35315 z"
       style="fill:#a6a6a6;fill-opacity:1;fill-rule:evenodd;stroke:none" />
    <path
       inkscape:connector-curvature="0"
       id="path3366"
       d="m 414.33916,742.55161 -4.60215,-12.35315 -9.06332,0 -4.60221,12.35315 z"
       style="fill:none;stroke:#000000;stroke-width:5.75988293px;stroke-linecap:butt;stroke-linejoin:miter;stroke-miterlimit:8;stroke-dasharray:none;stroke-opacity:1" />
    <path
       inkscape:connector-curvature="0"
       id="path3368"
       d="m 183.69744,284.34356 c -8.36557,0 -15.05917,6.17643 -15.05917,13.89669 l 0,55.32987 c 0,7.72032 6.6936,13.89676 15.05917,13.89676 l 233.0115,0 c 8.36741,0 15.05923,-6.17644 15.05923,-13.89676 l 0,-55.32987 c 0,-7.72026 -6.69182,-13.89669 -15.05923,-13.89669 z"
       style="fill:#fdece1;fill-opacity:1;fill-rule:evenodd;stroke:none" />
    <path
       inkscape:connector-curvature="0"
       id="path3370"
       d="m 183.69744,284.34356 c -8.36557,0 -15.05917,6.17643 -15.05917,13.89669 l 0,55.32987 c 0,7.72032 6.6936,13.89676 15.05917,13.89676 l 233.0115,0 c 8.36741,0 15.05923,-6.17644 15.05923,-13.89676 l 0,-55.32987 c 0,-7.72026 -6.69182,-13.89669 -15.05923,-13.89669 z"
       style="fill:none;stroke:#000000;stroke-width:5.75988293px;stroke-linecap:butt;stroke-linejoin:round;stroke-miterlimit:10;stroke-dasharray:none;stroke-opacity:1" />
    <path
       inkscape:connector-curvature="0"
       id="path3372"
       d="m 203.08043,625.45842 237.89205,69.74054 4.88056,-14.02453 -237.89205,-69.74217 z"
       style="fill:#a6a6a6;fill-opacity:1;fill-rule:evenodd;stroke:none" />
    <path
       inkscape:connector-curvature="0"
       id="path3374"
       d="m 203.08043,625.45842 237.89205,69.74054 4.88056,-14.02453 -237.89205,-69.74217 z"
       style="fill:none;stroke:#000000;stroke-width:5.75988293px;stroke-linecap:butt;stroke-linejoin:miter;stroke-miterlimit:8;stroke-dasharray:none;stroke-opacity:1" />
    <path
       inkscape:connector-curvature="0"
       id="path3376"
       d="m 402.34573,610.91852 -233.15072,76.17398 5.29989,13.89769 233.2899,-76.17562 z"
       style="fill:#a6a6a6;fill-opacity:1;fill-rule:evenodd;stroke:none" />
    <path
       inkscape:connector-curvature="0"
       id="path3378"
       d="m 402.34573,610.91852 -233.15072,76.17398 5.29989,13.89769 233.2899,-76.17562 z"
       style="fill:none;stroke:#000000;stroke-width:5.75988293px;stroke-linecap:butt;stroke-linejoin:miter;stroke-miterlimit:8;stroke-dasharray:none;stroke-opacity:1" />
    <path
       inkscape:connector-curvature="0"
       id="path3380"
       d="m 183.83668,806.75939 -5.71569,-15.31216 -11.29576,0 -5.71708,15.31216 z"
       style="fill:#a6a6a6;fill-opacity:1;fill-rule:evenodd;stroke:none" />
    <path
       inkscape:connector-curvature="0"
       id="path3382"
       d="m 183.83668,806.75939 -5.71569,-15.31216 -11.29576,0 -5.71708,15.31216 z"
       style="fill:none;stroke:#000000;stroke-width:5.75988293px;stroke-linecap:butt;stroke-linejoin:miter;stroke-miterlimit:8;stroke-dasharray:none;stroke-opacity:1" />
    <path
       inkscape:connector-curvature="0"
       id="path3384"
       d="m 162.50255,517.24394 0,270.34354 21.19489,0 0,-270.34354 -21.19489,0 z"
       style="fill:#a6a6a6;fill-opacity:1;fill-rule:evenodd;stroke:none" />
    <path
       inkscape:connector-curvature="0"
       id="path3386"
       d="m 162.50255,517.24394 0,270.34354 21.19489,0 0,-270.34354 z"
       style="fill:none;stroke:#000000;stroke-width:5.75988293px;stroke-linecap:butt;stroke-linejoin:miter;stroke-miterlimit:8;stroke-dasharray:none;stroke-opacity:1" />
    <path
       inkscape:connector-curvature="0"
       id="path3388"
       d="m 425.35475,521.23212 0,266.35536 22.58967,0 0,-266.35536 -22.58967,0 z"
       style="fill:#a6a6a6;fill-opacity:1;fill-rule:evenodd;stroke:none" />
    <path
       inkscape:connector-curvature="0"
       id="path3390"
       d="m 425.35475,521.23212 0,266.35536 22.58967,0 0,-266.35536 z"
       style="fill:none;stroke:#000000;stroke-width:5.75988293px;stroke-linecap:butt;stroke-linejoin:miter;stroke-miterlimit:8;stroke-dasharray:none;stroke-opacity:1" />
    <path
       inkscape:connector-curvature="0"
       id="path3392"
       d="m 447.94442,806.75939 -5.71746,-15.31216 -11.29392,0 -5.57829,15.31216 z"
       style="fill:#a6a6a6;fill-opacity:1;fill-rule:evenodd;stroke:none" />
    <path
       inkscape:connector-curvature="0"
       id="path3394"
       d="m 447.94442,806.75939 -5.71746,-15.31216 -11.29392,0 -5.57829,15.31216 z"
       style="fill:none;stroke:#000000;stroke-width:5.75988293px;stroke-linecap:butt;stroke-linejoin:miter;stroke-miterlimit:8;stroke-dasharray:none;stroke-opacity:1" />
    <path
       inkscape:connector-curvature="0"
       id="path3396"
       d="m 199.73452,605.25565 0,36.67251 12.13089,0 0,-36.67251 -12.13089,0 z"
       style="fill:#a6a6a6;fill-opacity:1;fill-rule:evenodd;stroke:none" />
    <path
       inkscape:connector-curvature="0"
       id="path3398"
       d="m 398.99982,605.25565 0,36.67251 12.27006,0 0,-36.67251 -12.27006,0 z"
       style="fill:#a6a6a6;fill-opacity:1;fill-rule:evenodd;stroke:none" />
    <path
       inkscape:connector-curvature="0"
       id="path3400"
       d="m 287.86267,637.80994 -2.51078,8.87872 23.14824,5.66281 2.64995,-8.87872 z"
       style="fill:#a6a6a6;fill-opacity:1;fill-rule:evenodd;stroke:none" />
    <path
       inkscape:connector-curvature="0"
       id="path3402"
       d="m 130.5699,557.90463 c -3.48615,0 -6.27514,2.57369 -6.27514,5.7896 0,3.08912 2.78899,5.66117 6.27514,5.66117 l 340.10342,0 c 3.34769,0 6.1368,-2.57205 6.1368,-5.66117 0,-3.21591 -2.78911,-5.7896 -6.1368,-5.7896 z"
       style="fill:#f5b183;fill-opacity:1;fill-rule:evenodd;stroke:none" />
    <path
       inkscape:connector-curvature="0"
       id="path3404"
       d="m 130.5699,557.90463 c -3.48615,0 -6.27514,2.57369 -6.27514,5.7896 0,3.08912 2.78899,5.66117 6.27514,5.66117 l 340.10342,0 c 3.34769,0 6.1368,-2.57205 6.1368,-5.66117 0,-3.21591 -2.78911,-5.7896 -6.1368,-5.7896 z"
       style="fill:none;stroke:#000000;stroke-width:5.75988293px;stroke-linecap:butt;stroke-linejoin:round;stroke-miterlimit:10;stroke-dasharray:none;stroke-opacity:1" />
    <path
       inkscape:connector-curvature="0"
       id="path3406"
       d="m 475.97321,558.93379 -33.74625,-56.35985 -283.21057,0 -33.7455,56.35985 z"
       style="fill:#f8cbad;fill-opacity:1;fill-rule:evenodd;stroke:none" />
    <path
       inkscape:connector-curvature="0"
       id="path3408"
       d="m 475.97321,558.93379 -33.74625,-56.35985 -283.21057,0 -33.7455,56.35985 z"
       style="fill:none;stroke:#000000;stroke-width:5.75988293px;stroke-linecap:butt;stroke-linejoin:miter;stroke-miterlimit:8;stroke-dasharray:none;stroke-opacity:1" />
    <path
       inkscape:connector-curvature="0"
       id="path3410"
       d="m 100.5894,511.32423 0,294.91979 21.33489,0 0,-294.91979 -21.33489,0 z"
       style="fill:#a6a6a6;fill-opacity:1;fill-rule:evenodd;stroke:none" />
    <path
       inkscape:connector-curvature="0"
       id="path3412"
       d="m 100.5894,511.32423 0,294.91979 21.33489,0 0,-294.91979 z"
       style="fill:none;stroke:#000000;stroke-width:5.75988293px;stroke-linecap:butt;stroke-linejoin:miter;stroke-miterlimit:8;stroke-dasharray:none;stroke-opacity:1" />
    <path
       inkscape:connector-curvature="0"
       id="path3414"
       d="m 121.64538,826.57515 -5.43824,-15.31216 -10.73718,0 -5.43837,15.31216 z"
       style="fill:#a6a6a6;fill-opacity:1;fill-rule:evenodd;stroke:none" />
    <path
       inkscape:connector-curvature="0"
       id="path3416"
       d="m 121.64538,826.57515 -5.43824,-15.31216 -10.73718,0 -5.43837,15.31216 z"
       style="fill:none;stroke:#000000;stroke-width:5.75988293px;stroke-linecap:butt;stroke-linejoin:miter;stroke-miterlimit:8;stroke-dasharray:none;stroke-opacity:1" />
    <path
       inkscape:connector-curvature="0"
       id="path3418"
       d="m 504.00018,511.32423 0,294.91979 21.3352,0 0,-294.91979 -21.3352,0 z"
       style="fill:#a6a6a6;fill-opacity:1;fill-rule:evenodd;stroke:none" />
    <path
       inkscape:connector-curvature="0"
       id="path3420"
       d="m 504.00018,511.32423 0,294.91979 21.3352,0 0,-294.91979 z"
       style="fill:none;stroke:#000000;stroke-width:5.75988293px;stroke-linecap:butt;stroke-linejoin:miter;stroke-miterlimit:8;stroke-dasharray:none;stroke-opacity:1" />
    <path
       inkscape:connector-curvature="0"
       id="path3422"
       d="m 525.61555,826.57515 -5.43913,-15.31216 -10.73718,0 -5.43906,15.31216 z"
       style="fill:#a6a6a6;fill-opacity:1;fill-rule:evenodd;stroke:none" />
    <path
       inkscape:connector-curvature="0"
       id="path3424"
       d="m 525.61555,826.57515 -5.43913,-15.31216 -10.73718,0 -5.43906,15.31216 z"
       style="fill:none;stroke:#000000;stroke-width:5.75988293px;stroke-linecap:butt;stroke-linejoin:miter;stroke-miterlimit:8;stroke-dasharray:none;stroke-opacity:1" />
    <path
       inkscape:connector-curvature="0"
       id="path3426"
       d="m 59.453328,532.04074 0,350.25042 25.37885,0 0,-350.25042 -25.37885,0 z"
       style="fill:#a6a6a6;fill-opacity:1;fill-rule:evenodd;stroke:none" />
    <path
       inkscape:connector-curvature="0"
       id="path3428"
       d="m 59.453328,532.04074 0,350.25042 25.37885,0 0,-350.25042 z"
       style="fill:none;stroke:#000000;stroke-width:5.75988293px;stroke-linecap:butt;stroke-linejoin:miter;stroke-miterlimit:8;stroke-dasharray:none;stroke-opacity:1" />
    <path
       inkscape:connector-curvature="0"
       id="path3430"
       d="m 84.832178,906.09515 -6.693217,-19.0435 -13.526173,0 -6.693407,19.0435 z"
       style="fill:#a6a6a6;fill-opacity:1;fill-rule:evenodd;stroke:none" />
    <path
       transform="matrix(1.7844758,0,0,1.6466489,-11.802542,268.13065)"
       inkscape:connector-curvature="0"
       id="path3432"
       d="m 54.153,387.432 -3.7508,-11.565 -7.5799,0 -3.7509,11.565 z"
       clip-path="url(#clipEmfPath1)"
       style="fill:none;stroke:#000000;stroke-width:3.36014342px;stroke-linecap:butt;stroke-linejoin:miter;stroke-miterlimit:8;stroke-dasharray:none;stroke-opacity:1" />
    <path
       inkscape:connector-curvature="0"
       id="path3434"
       d="m 538.72251,532.04074 0,350.25042 25.37879,0 0,-350.25042 -25.37879,0 z"
       style="fill:#a6a6a6;fill-opacity:1;fill-rule:evenodd;stroke:none" />
    <path
       inkscape:connector-curvature="0"
       id="path3436"
       d="m 538.72251,532.04074 0,350.25042 25.37879,0 0,-350.25042 z"
       style="fill:none;stroke:#000000;stroke-width:5.75988293px;stroke-linecap:butt;stroke-linejoin:miter;stroke-miterlimit:8;stroke-dasharray:none;stroke-opacity:1" />
    <path
       inkscape:connector-curvature="0"
       id="path3438"
       d="m 565.63594,906.09515 -6.69354,-19.0435 -13.52636,0 -6.69353,19.0435 z"
       style="fill:#a6a6a6;fill-opacity:1;fill-rule:evenodd;stroke:none" />
    <path
       transform="matrix(1.7844758,0,0,1.6466489,-11.802542,268.13065)"
       inkscape:connector-curvature="0"
       id="path3440"
       d="m 323.59,387.432 -3.751,-11.565 -7.58,0 -3.751,11.565 z"
       clip-path="url(#clipEmfPath1)"
       style="fill:none;stroke:#000000;stroke-width:3.36014342px;stroke-linecap:butt;stroke-linejoin:miter;stroke-miterlimit:8;stroke-dasharray:none;stroke-opacity:1" />
    <path
       inkscape:connector-curvature="0"
       id="path3442"
       d="m 42.162284,572.31611 c -6.414439,0 -11.713257,4.76043 -11.713257,10.80862 l 0,43.23437 c 0,5.91808 5.298818,10.80863 11.713257,10.80863 l 540.902666,0 c 6.4152,0 11.71332,-4.89055 11.71332,-10.80863 l 0,-43.23437 c 0,-6.04819 -5.29812,-10.80862 -11.71332,-10.80862 z"
       style="fill:#b35e25;fill-opacity:1;fill-rule:evenodd;stroke:none" />
    <path
       inkscape:connector-curvature="0"
       id="path3444"
       d="m 42.162284,572.31611 c -6.414439,0 -11.713257,4.76043 -11.713257,10.80862 l 0,43.23437 c 0,5.91808 5.298818,10.80863 11.713257,10.80863 l 540.902666,0 c 6.4152,0 11.71332,-4.89055 11.71332,-10.80863 l 0,-43.23437 c 0,-6.04819 -5.29812,-10.80862 -11.71332,-10.80862 z"
       style="fill:none;stroke:#000000;stroke-width:5.75988293px;stroke-linecap:butt;stroke-linejoin:round;stroke-miterlimit:10;stroke-dasharray:none;stroke-opacity:1" />
    <path
       inkscape:connector-curvature="0"
       id="path3446"
       d="m 18.735706,562.92196 c -5.438366,0 -9.9006583,3.98986 -9.9006583,9.0072 0,5.14738 4.4622923,9.13561 9.9006583,9.13561 l 585.386044,0 c 5.43906,0 9.90028,-3.98823 9.90028,-9.13561 0,-5.01734 -4.46122,-9.0072 -9.90028,-9.0072 z"
       style="fill:#fce5d6;fill-opacity:1;fill-rule:evenodd;stroke:none" />
    <path
       transform="matrix(1.7844758,0,0,1.6466489,-11.802542,268.13065)"
       inkscape:connector-curvature="0"
       id="path3448"
       d="m 17.1133,179.025 c -3.0476,0 -5.5482,2.423 -5.5482,5.47 0,3.126 2.5006,5.548 5.5482,5.548 l 328.0437,0 c 3.048,0 5.548,-2.422 5.548,-5.548 0,-3.047 -2.5,-5.47 -5.548,-5.47 z"
       clip-path="url(#clipEmfPath1)"
       style="fill:none;stroke:#000000;stroke-width:3.36014342px;stroke-linecap:butt;stroke-linejoin:round;stroke-miterlimit:10;stroke-dasharray:none;stroke-opacity:1" />
    <path
       inkscape:connector-curvature="0"
       id="path3450"
       d="m 612.48916,564.46655 -34.8615,-101.26566 -532.397673,0 -34.860993,101.26566 z"
       style="fill:#f8cbad;fill-opacity:1;fill-rule:evenodd;stroke:none" />
    <path
       transform="matrix(1.7844758,0,0,1.6466489,-11.802542,268.13065)"
       inkscape:connector-curvature="0"
       id="path3452"
       d="m 349.846,179.963 -19.536,-61.498 -298.3496,0 -19.5357,61.498 z"
       clip-path="url(#clipEmfPath1)"
       style="fill:none;stroke:#000000;stroke-width:3.36014342px;stroke-linecap:butt;stroke-linejoin:miter;stroke-miterlimit:8;stroke-dasharray:none;stroke-opacity:1" />
    <path
       inkscape:connector-curvature="0"
       id="path3454"
       d="m 79.254392,543.36473 c -2.649378,0 -4.741135,1.92985 -4.741135,4.37349 0,2.44527 2.091757,4.37518 4.741135,4.37518 l 462.674798,0 c 2.64995,0 4.74139,-1.92991 4.74139,-4.37518 0,-2.44364 -2.09144,-4.37349 -4.74139,-4.37349 z"
       style="fill:#f5b183;fill-opacity:1;fill-rule:evenodd;stroke:none" />
    <path
       inkscape:connector-curvature="0"
       id="path3456"
       d="m 79.254392,543.36473 c -2.649378,0 -4.741135,1.92985 -4.741135,4.37349 0,2.44527 2.091757,4.37518 4.741135,4.37518 l 462.674798,0 c 2.64995,0 4.74139,-1.92991 4.74139,-4.37518 0,-2.44364 -2.09144,-4.37349 -4.74139,-4.37349 z"
       style="fill:none;stroke:#000000;stroke-width:5.75988293px;stroke-linecap:butt;stroke-linejoin:round;stroke-miterlimit:10;stroke-dasharray:none;stroke-opacity:1" />
  </g>
</svg>
