<svg xmlns="http://www.w3.org/2000/svg" xmlns:xlink="http://www.w3.org/1999/xlink" version="1.1" x="0px" y="0px" viewBox="0 0 100 100" enable-background="new 0 0 100 100" xml:space="preserve"><g><path d="M81.441,15.92c0.069-0.121,0.152-0.255,0.222-0.369C82.195,14.682,83,13.367,83,11.5c0-3.86-3.141-7-7-7L24,4.501   c-3.86,0-7,3.14-7,7c0,1.867,0.805,3.182,1.337,4.052c0.07,0.114,0.152,0.248,0.222,0.369C9.305,24.589,4,36.822,4,49.499   C4,74.864,24.636,95.5,50,95.5v-0.001c25.364,0,46-20.636,46-46.001C96,36.83,90.702,24.606,81.441,15.92z M21.343,18.793   c2.358-2.138,0.99-4.374,0.406-5.329C21.347,12.808,21,12.241,21,11.501c0-1.654,1.346-3,3-3L48,8.5h28c1.654,0,3,1.346,3,3   c0,0.74-0.347,1.307-0.749,1.964c-0.584,0.955-1.953,3.191,0.385,5.31c1.245,1.161,2.402,2.4,3.488,3.693   c-3.761-0.229-6.583-2.198-6.616-2.222l-1.176-0.854l-1.176,0.854c-6.853,4.979-13.701,0.201-13.982,0l-1.176-0.854l-1.176,0.854   c-6.851,4.98-13.699,0.201-13.981,0l-1.176-0.854l-1.176,0.854c-6.852,4.979-13.702,0.201-13.982,0l-1.176-0.854l-1.176,0.854   c-1.966,1.429-4.078,2.179-6.309,2.254C18.935,21.201,20.095,19.958,21.343,18.793z M50,91.5c-23.159,0-42-18.842-42-42.001   c0-8.296,2.5-16.376,7.013-23.199c0.783,0.124,1.606,0.205,2.474,0.205c2.422,0,5.129-0.576,7.871-2.255   c3.538,2.007,10.072,3.804,16.332-0.001c3.536,2.008,10.071,3.806,16.332,0c3.539,2.011,10.086,3.809,16.353-0.011   c1.924,1.069,5.922,2.797,10.631,2.093C89.51,33.152,92,41.218,92,49.498C92,72.657,73.159,91.499,50,91.5z"></path><path d="M88,53.5c-1-8-5.502-11.493-15.34-14.176c-11-3-11.451-3.451-14-6c-4-4-16.57-6.092-12,0c3,4-3.077,4.451-5,5   c-7,2-11,5-16,12c-3.722,5.211-3.22,5.792-5,7c-1.907,1.295-10,6-7,7c1.342,0.447,7-1,9,0c2.235,1.117,6,8,8,7   c1.478-0.738-0.14-5.518-1.218-9.414c0.168-1.638,0.974-3.333,2.333-4.756c3.699-3.874,10.124-4.606,17.184-1.957   c0.928,0.348,1.868,0.676,2.816,0.986c-0.04,0.046-0.071,0.098-0.114,0.141c-2,2-3,7,4,4c1.084-0.465,2.33-1.218,3.71-2.075   c10.556,2.305,20.834,2.282,25.57-0.452c2.168-1.251,2.846-2.849,3.032-3.968l-0.036-0.006C87.988,53.714,88.013,53.604,88,53.5z    M50.362,51.451c-8.609-3.226-16.64-2.129-21.48,2.94c-0.076,0.079-0.144,0.162-0.217,0.242c0.789-6.653,6.137-4.85,4.995-7.134   c-2-4,9.129-3.605,16.34,0c1.145,0.572,2.251,2.646,2.572,4.734C51.834,51.985,51.097,51.727,50.362,51.451z M78.769,46.484   c1.361,0.227,2.355,1.073,2.219,1.891c-0.135,0.817-1.35,1.296-2.713,1.068c-1.361-0.227-4.252-1.15-4.252-1.979   C74.022,45.464,77.407,46.258,78.769,46.484z M64.616,55.169c3.885-2.001,8.345-3.411,13.044-1.845   c1.905,0.635,3.498,1.026,4.824,1.247C79.272,56.091,72.472,56.388,64.616,55.169z"></path></g></svg>