<?xml version="1.0" encoding="UTF-8" standalone="no"?>
<!-- Created with Inkscape (http://www.inkscape.org/) -->

<svg
   id="svg2"
   sodipodi:docname="key-alt.svg"
   viewBox="0 0 1685 515"
   version="1.1"
   inkscape:version="1.1 (c68e22c387, 2021-05-23)"
   xmlns:inkscape="http://www.inkscape.org/namespaces/inkscape"
   xmlns:sodipodi="http://sodipodi.sourceforge.net/DTD/sodipodi-0.dtd"
   xmlns="http://www.w3.org/2000/svg"
   xmlns:svg="http://www.w3.org/2000/svg"
   xmlns:rdf="http://www.w3.org/1999/02/22-rdf-syntax-ns#"
   xmlns:cc="http://creativecommons.org/ns#"
   xmlns:dc="http://purl.org/dc/elements/1.1/">
  <defs
     id="defs471">
    <filter
       style="color-interpolation-filters:sRGB;"
       height="1.0009057"
       width="1.0004252"
       y="-0.00041729347"
       x="-0.00020509638"
       inkscape:label="Color Blindness"
       id="filter1571">
      <feColorMatrix
         values="0.95 0.05 0 0 0 0.2583 0.4333 0.5667 0 0 0 0.475 0.525 0 0 0 0 0 1 0 "
         type="matrix"
         result="fbSourceGraphic"
         id="feColorMatrix1569" />
      <feColorMatrix
         result="fbSourceGraphicAlpha"
         in="fbSourceGraphic"
         values="0 0 0 -1 0 0 0 0 -1 0 0 0 0 -1 0 0 0 0 1 0"
         id="feColorMatrix1651" />
      <feColorMatrix
         id="feColorMatrix1653"
         values="0.95 0.05 0 0 0 0.2583 0.4333 0.5667 0 0 0 0.475 0.525 0 0 0 0 0 1 0 "
         type="matrix"
         result="colormatrix1"
         in="fbSourceGraphic" />
    </filter>
  </defs>
  <title
     id="title4165">Microsoft US keyboard Layout</title>
  <sodipodi:namedview
     id="base"
     bordercolor="#666666"
     inkscape:pageshadow="2"
     inkscape:window-y="-8"
     pagecolor="#ffffff"
     inkscape:window-height="705"
     inkscape:window-maximized="1"
     inkscape:zoom="0.49497474"
     inkscape:window-x="-8"
     showgrid="false"
     borderopacity="1.0"
     inkscape:current-layer="layer2"
     inkscape:cx="728.31999"
     inkscape:cy="396.98996"
     inkscape:window-width="1366"
     inkscape:pageopacity="0.0"
     inkscape:document-units="px"
     inkscape:pagecheckerboard="0" />
  <g
     inkscape:groupmode="layer"
     id="layer2"
     inkscape:label="Layer 2">
    <path
       style="fill:#2d02ff;fill-opacity:1;stroke:#000000;stroke-width:2.02031"
       d="m 240.82037,487.49962 c -3.38908,-3.38907 -3.38908,-62.47287 0,-65.86194 1.74667,-1.74668 15.563,-2.42437 49.42639,-2.42437 44.40184,0 47.11773,0.21618 49.09342,3.90779 2.72167,5.0855 2.72167,57.8096 0,62.8951 -1.97569,3.69161 -4.69158,3.90779 -49.09342,3.90779 -33.86339,0 -47.67972,-0.67769 -49.42639,-2.42437 z m 23.8396,-38.99188 c 0,-1.6992 1.80287,-3.03046 4.10402,-3.03046 2.25721,0 4.62732,1.3637 5.26691,3.03046 0.63959,1.66675 3.33847,3.03045 5.99751,3.03045 4.04124,0 4.88767,-1.07749 5.15794,-6.56599 l 0.32332,-6.56599 0.81483,6.56599 c 1.2472,10.05006 5.91351,8.30877 5.41401,-2.0203 -0.73842,-15.26972 -0.65186,-15.03224 -3.90928,-10.72554 -2.58652,3.41968 -2.96621,3.48433 -2.96621,0.50508 0,-1.87913 -1.3637,-3.4166 -3.03046,-3.4166 -2.12049,0 -3.08872,2.27491 -3.2245,7.57614 l -0.19405,7.57615 -3.34149,-7.56585 c -5.28378,-11.96362 -6.77588,-10.82713 -15.90114,12.11153 -0.55272,1.38941 0.45577,2.52538 2.24198,2.52538 1.78564,0 3.24661,-1.3637 3.24661,-3.03045 z"
       id="path6781" />
  </g>
  <metadata
     id="metadata468">
    <rdf:RDF>
      <cc:Work>
        <dc:format>image/svg+xml</dc:format>
        <dc:type
           rdf:resource="http://purl.org/dc/dcmitype/StillImage" />
        <cc:license
           rdf:resource="http://creativecommons.org/licenses/publicdomain/" />
        <dc:publisher>
          <cc:Agent
             rdf:about="http://openclipart.org/">
            <dc:title>Openclipart</dc:title>
          </cc:Agent>
        </dc:publisher>
        <dc:title>Microsoft US keyboard Layout</dc:title>
        <dc:date>2011-08-10T10:56:38</dc:date>
        <dc:description>English keyboard layout.</dc:description>
        <dc:source>https://openclipart.org/detail/154537/us-english-keyboard-layout-v0.1-by-nitiraseem</dc:source>
        <dc:creator>
          <cc:Agent>
            <dc:title>nitiraseem</dc:title>
          </cc:Agent>
        </dc:creator>
        <dc:subject>
          <rdf:Bag>
            <rdf:li>English keyboard</rdf:li>
            <rdf:li>keyboard</rdf:li>
            <rdf:li>keyboard layout</rdf:li>
            <rdf:li>us keyboard</rdf:li>
          </rdf:Bag>
        </dc:subject>
      </cc:Work>
      <cc:License
         rdf:about="http://creativecommons.org/licenses/publicdomain/">
        <cc:permits
           rdf:resource="http://creativecommons.org/ns#Reproduction" />
        <cc:permits
           rdf:resource="http://creativecommons.org/ns#Distribution" />
        <cc:permits
           rdf:resource="http://creativecommons.org/ns#DerivativeWorks" />
      </cc:License>
    </rdf:RDF>
  </metadata>
</svg>
