<?xml version="1.0" standalone="no"?>
<!DOCTYPE svg PUBLIC "-//W3C//DTD SVG 20010904//EN"
 "http://www.w3.org/TR/2001/REC-SVG-20010904/DTD/svg10.dtd">
<svg version="1.0" xmlns="http://www.w3.org/2000/svg"
 width="1200.000000pt" height="630.000000pt" viewBox="0 0 1200.000000 630.000000"
 preserveAspectRatio="xMidYMid meet">
<metadata>
Created by potrace 1.16, written by Peter Selinger 2001-2019
</metadata>
<g transform="translate(0.000000,630.000000) scale(0.100000,-0.100000)"
fill="#000000" stroke="none">
<path d="M490 5303 c-21 -26 -21 -34 -18 -305 3 -273 3 -278 26 -300 l23 -23
484 0 484 0 23 23 c22 22 23 28 22 195 -2 390 -2 395 -24 417 -19 19 -33 20
-509 20 l-490 0 -21 -27z m1008 1 c22 -15 22 -17 22 -299 0 -244 -2 -286 -16
-299 -14 -14 -73 -16 -498 -16 -475 0 -483 0 -502 21 -17 18 -19 44 -22 274
-3 140 -2 265 2 279 14 58 -5 56 514 56 416 0 480 -2 500 -16z"/>
<path d="M665 4871 c-3 -5 -2 -12 3 -15 5 -3 9 1 9 9 0 17 -3 19 -12 6z"/>
<path d="M770 4820 c-9 -6 -10 -10 -3 -10 6 0 15 5 18 10 8 12 4 12 -15 0z"/>
<path d="M1649 5311 c-24 -19 -24 -20 -27 -278 -4 -275 2 -323 41 -345 25 -14
476 -25 553 -13 86 12 84 6 84 324 0 266 -1 279 -21 305 l-20 26 -294 0 c-273
0 -294 -1 -316 -19z m617 -5 c18 -14 19 -31 22 -295 3 -271 2 -281 -18 -301
-19 -19 -31 -20 -305 -20 -272 0 -286 1 -305 20 -19 19 -20 35 -22 253 -4 338
-5 317 21 338 21 18 46 19 305 19 228 0 286 -3 302 -14z"/>
<path d="M2416 5309 l-26 -20 0 -280 0 -281 29 -29 29 -29 287 0 286 0 24 25
25 24 0 281 0 281 -25 24 -24 25 -289 0 c-278 0 -290 -1 -316 -21z m619 -14
l25 -24 0 -269 c0 -242 -2 -272 -18 -291 -17 -22 -21 -22 -304 -21 -158 0
-295 3 -303 7 -30 11 -35 54 -35 314 l0 260 25 24 24 25 281 0 281 0 24 -25z"/>
<path d="M3186 5309 l-26 -20 0 -282 c1 -206 4 -286 13 -298 28 -36 51 -39
337 -39 l281 0 24 25 25 24 0 271 c0 283 -5 318 -45 334 -9 3 -144 6 -299 6
-271 0 -284 -1 -310 -21z m615 -8 l24 -19 3 -272 c3 -234 1 -275 -13 -296
l-15 -24 -299 0 c-265 0 -300 2 -312 17 -11 12 -15 76 -17 293 l-3 278 27 21
c26 20 37 21 304 21 259 0 279 -1 301 -19z"/>
<path d="M3956 5309 l-26 -20 0 -285 0 -285 25 -24 24 -25 291 0 291 0 24 25
25 24 0 270 c0 286 -3 310 -47 330 -16 7 -120 11 -302 11 -266 0 -279 -1 -305
-21z m597 2 c13 -5 28 -18 33 -28 4 -10 10 -137 12 -283 3 -254 3 -267 -16
-290 l-20 -25 -292 0 -292 0 -19 24 c-18 22 -19 42 -19 296 l0 274 26 20 c26
20 39 21 295 21 147 0 279 -4 292 -9z"/>
<path d="M4733 5318 c-12 -6 -26 -23 -31 -38 -6 -16 -8 -139 -5 -296 l4 -269
25 -22 c25 -23 29 -23 313 -23 275 0 288 1 309 20 22 20 22 25 22 310 l0 289
-26 20 c-26 20 -38 21 -308 20 -176 0 -289 -4 -303 -11z m607 -20 c19 -21 20
-34 20 -299 0 -299 0 -301 -54 -315 -12 -3 -142 -4 -288 -2 -245 3 -268 5
-287 22 -20 19 -21 27 -21 302 0 281 0 283 22 298 19 14 65 16 305 16 277 0
283 0 303 -22z"/>
<path d="M5493 5306 l-28 -24 0 -282 0 -282 28 -24 28 -24 283 0 c271 0 284 1
310 21 l26 20 0 289 0 289 -26 20 c-26 20 -39 21 -310 21 l-283 0 -28 -24z
m618 -15 c18 -22 19 -42 19 -296 0 -264 -1 -272 -21 -291 -20 -18 -40 -19
-306 -19 l-285 0 -19 24 c-18 22 -19 42 -19 295 0 149 4 276 8 283 18 28 64
32 330 30 l274 -2 19 -24z"/>
<path d="M6264 5306 l-29 -24 0 -282 0 -282 28 -24 28 -24 283 0 c271 0 284 1
310 21 l26 20 0 288 c0 280 -1 288 -21 307 -20 18 -42 19 -309 22 l-288 3 -28
-25z m617 -15 c18 -22 19 -42 19 -291 0 -249 -1 -269 -19 -291 -19 -24 -19
-24 -288 -27 -147 -2 -278 0 -290 3 -53 13 -53 15 -53 313 0 152 4 282 8 288
21 31 49 34 325 31 l279 -2 19 -24z"/>
<path d="M7029 5301 l-30 -30 3 -277 3 -276 28 -24 28 -24 285 0 285 0 24 25
25 24 0 279 c0 261 -1 281 -19 303 l-19 24 -291 3 -292 3 -30 -30z m622 -10
c18 -22 19 -42 19 -293 l0 -269 -25 -24 -24 -25 -270 0 c-149 0 -281 4 -295
10 -14 5 -28 20 -32 34 -3 14 -7 144 -7 289 -2 281 -1 291 46 300 12 3 145 4
295 3 l274 -1 19 -24z"/>
<path d="M7799 5301 l-29 -29 0 -260 c0 -155 4 -271 10 -289 6 -17 22 -35 36
-42 17 -7 117 -11 305 -11 l280 0 24 25 25 24 0 281 0 281 -25 24 -24 25 -286
0 -287 0 -29 -29z m620 -5 c20 -19 21 -27 21 -291 0 -254 -1 -274 -19 -296
l-19 -24 -273 -3 c-280 -3 -320 1 -334 36 -10 26 -19 451 -11 515 11 87 12 87
342 84 252 -2 274 -3 293 -21z"/>
<path d="M8594 5320 c-52 -21 -54 -35 -54 -318 0 -275 5 -310 45 -326 9 -3
144 -6 300 -6 280 0 284 0 309 23 l26 22 1 277 c1 294 -2 311 -47 328 -31 12
-551 12 -580 0z m599 -32 c15 -18 17 -48 17 -290 l0 -269 -25 -25 -25 -25
-285 3 c-257 3 -286 5 -302 21 -16 16 -18 43 -22 243 -3 221 2 316 18 343 16
26 79 30 341 25 252 -5 266 -6 283 -26z"/>
<path d="M9365 5321 c-49 -21 -50 -26 -50 -328 l0 -285 24 -19 c22 -18 43 -19
315 -19 l293 0 23 25 24 26 1 279 c0 277 0 279 -23 302 -22 23 -25 23 -305 25
-155 1 -291 -2 -302 -6z m594 -25 c20 -19 21 -27 21 -296 0 -223 -3 -280 -14
-296 -14 -18 -31 -19 -304 -22 -274 -3 -290 -2 -313 17 l-24 19 1 266 c1 147
5 277 8 290 3 14 18 29 33 35 17 6 133 9 299 8 252 -2 273 -3 293 -21z"/>
<path d="M10130 5317 c-48 -24 -50 -42 -48 -335 l3 -274 24 -19 c22 -18 43
-19 313 -19 176 0 297 4 308 10 34 18 40 74 37 342 -2 253 -2 258 -25 280 -22
23 -26 23 -305 26 -214 2 -288 -1 -307 -11z m599 -21 c20 -19 21 -27 21 -298
0 -265 -1 -279 -20 -298 -19 -19 -33 -20 -304 -20 -264 0 -285 1 -307 19 -24
19 -24 21 -27 248 -3 227 1 316 17 342 15 24 81 30 342 28 237 -2 259 -3 278
-21z"/>
<path d="M10370 5076 c0 -2 8 -10 18 -17 15 -13 16 -12 3 4 -13 16 -21 21 -21
13z"/>
<path d="M10904 5316 c-17 -8 -34 -21 -38 -31 -3 -9 -6 -142 -6 -296 0 -266 1
-280 20 -299 21 -21 55 -23 470 -22 205 0 190 -25 190 330 -1 298 -1 302 -54
322 -43 16 -543 13 -582 -4z m606 -26 c20 -20 21 -30 18 -294 -3 -253 -4 -276
-22 -295 -19 -20 -27 -21 -308 -21 -275 0 -289 1 -308 20 -19 19 -20 33 -20
293 0 230 2 276 16 295 15 22 17 22 310 22 283 0 295 -1 314 -20z"/>
<path d="M1304 4583 c-12 -2 -30 -13 -40 -25 -17 -18 -19 -43 -22 -272 -3
-278 -1 -307 30 -336 21 -19 36 -20 314 -20 l293 0 20 26 c20 26 21 39 21 300
l0 273 -24 28 -24 28 -274 1 c-150 1 -283 -1 -294 -3z m582 -27 c18 -14 19
-31 22 -294 l3 -280 -27 -21 c-26 -20 -37 -21 -295 -21 -147 0 -279 4 -292 9
-14 6 -28 18 -31 28 -3 10 -6 138 -8 284 -3 251 -2 268 16 288 19 20 27 21
306 21 231 0 290 -3 306 -14z"/>
<path d="M1573 4420 c0 -25 2 -35 4 -22 2 12 2 32 0 45 -2 12 -4 2 -4 -23z"/>
<path d="M1556 4195 c-11 -8 -15 -15 -9 -15 7 0 15 6 20 13 5 7 10 -19 14 -63
l5 -75 2 78 c1 42 -1 77 -5 77 -5 0 -17 -7 -27 -15z"/>
<path d="M2098 4582 c-37 -2 -52 -9 -68 -29 -19 -24 -20 -39 -20 -300 l0 -274
25 -24 c24 -25 26 -25 227 -26 396 -3 379 -4 405 26 23 26 23 29 23 300 0 270
0 274 -22 299 l-23 26 -250 2 c-137 2 -271 2 -297 0z m548 -20 c30 -20 34 -55
34 -316 0 -260 0 -266 -22 -286 -21 -19 -34 -20 -308 -20 -279 0 -287 1 -306
21 -18 20 -19 40 -19 301 0 265 1 280 19 294 16 11 74 14 305 14 157 0 291 -4
297 -8z"/>
<path d="M2316 4202 c-3 -5 8 -6 24 -4 22 3 32 -1 36 -13 8 -19 6 -23 -44 -84
l-34 -41 49 1 c48 2 48 2 10 8 l-38 6 35 42 c38 44 43 62 24 81 -14 14 -54 16
-62 4z"/>
<path d="M500 4560 c-19 -19 -20 -33 -20 -305 0 -280 0 -285 22 -305 21 -19
34 -20 315 -20 280 0 294 1 313 20 19 19 20 33 20 303 0 283 0 284 -23 305
-23 22 -29 22 -315 22 -279 0 -293 -1 -312 -20z m620 -10 c19 -19 20 -33 20
-295 0 -262 -1 -276 -20 -295 -19 -19 -33 -20 -305 -20 -272 0 -286 1 -305 20
-19 19 -20 33 -20 299 0 278 0 280 22 295 19 14 65 16 305 16 270 0 284 -1
303 -20z"/>
<path d="M765 4400 c-3 -5 -1 -10 4 -10 6 0 11 5 11 10 0 6 -2 10 -4 10 -3 0
-8 -4 -11 -10z"/>
<path d="M791 4407 c2 -1 13 -9 24 -17 19 -14 19 -14 6 3 -7 9 -18 17 -24 17
-6 0 -8 -1 -6 -3z"/>
<path d="M800 4203 c0 -6 8 -17 18 -24 16 -13 16 -13 2 6 -8 11 -16 22 -17 24
-2 2 -3 0 -3 -6z"/>
<path d="M2800 4558 c-19 -21 -20 -34 -20 -303 0 -212 3 -285 13 -299 21 -29
82 -36 328 -36 263 0 294 3 314 34 16 25 30 394 19 515 -11 117 9 111 -339
111 -290 0 -295 0 -315 -22z m620 -8 c19 -19 20 -33 20 -297 0 -243 -2 -279
-17 -295 -15 -17 -38 -18 -305 -18 -275 0 -289 1 -308 20 -19 19 -20 33 -20
295 0 262 1 276 20 295 19 19 33 20 305 20 272 0 286 -1 305 -20z"/>
<path d="M3079 4193 c-12 -16 -12 -17 1 -7 8 7 24 14 35 17 19 4 19 5 -1 6
-12 0 -28 -7 -35 -16z"/>
<path d="M3141 4184 c0 -11 3 -14 6 -6 3 7 2 16 -1 19 -3 4 -6 -2 -5 -13z"/>
<path d="M3108 4133 c7 -3 16 -2 19 1 4 3 -2 6 -13 5 -11 0 -14 -3 -6 -6z"/>
<path d="M3147 4109 c4 -15 0 -27 -12 -35 -11 -8 -14 -14 -9 -14 26 0 46 51
25 64 -5 4 -7 -4 -4 -15z"/>
<path d="M3073 4080 c2 -8 12 -16 23 -17 13 -2 15 -1 4 4 -8 3 -19 11 -23 17
-6 7 -7 6 -4 -4z"/>
<path d="M3577 4568 c-9 -7 -21 -26 -27 -41 -15 -40 -12 -502 3 -547 19 -57
49 -62 360 -58 269 3 269 3 288 27 18 22 19 43 19 306 l0 284 -26 20 c-26 20
-38 21 -313 21 -214 0 -291 -3 -304 -12z m619 -22 c11 -16 14 -73 14 -293 0
-260 -1 -274 -20 -293 -19 -19 -33 -20 -305 -20 -272 0 -286 1 -305 20 -19 19
-20 33 -20 295 0 264 1 276 20 295 20 20 30 21 311 18 274 -3 291 -4 305 -22z"/>
<path d="M3872 4173 c-25 -37 -38 -65 -15 -33 10 13 26 33 36 42 9 10 13 18 8
18 -5 0 -18 -12 -29 -27z"/>
<path d="M3902 4150 c0 -19 2 -27 5 -17 2 9 2 25 0 35 -3 9 -5 1 -5 -18z"/>
<path d="M3875 4100 c-30 -8 -30 -8 -3 -9 16 -1 28 -8 31 -18 3 -11 5 -7 6 10
0 15 0 26 -1 26 -2 -1 -16 -5 -33 -9z"/>
<path d="M4339 4561 l-24 -19 0 -286 c0 -284 0 -286 23 -308 22 -23 24 -23
313 -23 l291 0 24 28 24 28 0 275 0 275 -25 24 -24 25 -289 0 c-270 0 -291 -1
-313 -19z m612 -10 c24 -19 24 -20 26 -272 3 -256 -4 -322 -33 -333 -9 -3
-143 -6 -298 -6 -275 0 -283 1 -302 21 -18 20 -19 40 -19 296 l0 275 24 19
c22 18 42 19 301 19 259 0 279 -1 301 -19z"/>
<path d="M4631 4424 c0 -11 3 -14 6 -6 3 7 2 16 -1 19 -3 4 -6 -2 -5 -13z"/>
<path d="M4663 4374 c-8 -22 13 -42 30 -25 10 10 8 11 -7 5 -16 -6 -18 -4 -14
14 7 25 0 30 -9 6z"/>
<path d="M4612 4161 c-2 -34 1 -41 11 -33 6 5 21 12 32 16 13 3 10 4 -7 2 -24
-3 -27 1 -31 28 -3 24 -4 22 -5 -13z"/>
<path d="M4686 4119 c3 -17 0 -32 -11 -43 -9 -9 -12 -16 -5 -16 19 0 34 46 21
66 -10 17 -11 16 -5 -7z"/>
<path d="M4612 4074 c10 -10 20 -16 22 -13 3 3 -5 11 -17 18 -21 13 -21 12 -5
-5z"/>
<path d="M5109 4561 l-24 -19 -3 -280 -3 -280 25 -28 24 -29 269 -3 c294 -4
337 2 353 44 6 14 10 147 10 295 l0 270 -25 24 -24 25 -289 0 c-270 0 -291 -1
-313 -19z m612 -10 l24 -19 0 -282 c0 -267 -1 -282 -19 -296 -16 -11 -75 -14
-306 -14 -279 0 -287 1 -306 21 -18 20 -19 40 -19 296 l0 275 24 19 c22 18 42
19 301 19 259 0 279 -1 301 -19z"/>
<path d="M5395 4424 c-9 -14 -14 -28 -11 -32 3 -3 6 -1 6 4 0 6 9 20 20 32 12
12 17 22 12 22 -6 0 -17 -12 -27 -26z"/>
<path d="M5421 4207 c2 -1 13 -9 24 -17 19 -14 19 -14 6 3 -7 9 -18 17 -24 17
-6 0 -8 -1 -6 -3z"/>
<path d="M5385 4189 c-11 -16 -1 -19 13 -3 7 8 8 14 3 14 -5 0 -13 -5 -16 -11z"/>
<path d="M5371 4125 c-1 -38 0 -39 12 -15 14 29 41 37 62 20 19 -16 19 -35 -1
-54 -8 -9 -11 -16 -5 -16 16 0 33 39 26 60 -8 24 -50 37 -69 21 -11 -10 -15
-8 -19 6 -3 10 -5 0 -6 -22z"/>
<path d="M5387 4069 c7 -7 15 -10 18 -7 3 3 -2 9 -12 12 -14 6 -15 5 -6 -5z"/>
<path d="M5875 4555 l-25 -24 0 -275 c0 -151 3 -282 6 -291 16 -40 51 -45 333
-45 286 0 310 3 330 47 16 34 15 537 -1 566 -24 46 -29 46 -331 47 l-288 0
-24 -25z m622 -8 c16 -16 18 -42 17 -298 0 -250 -2 -281 -18 -297 -15 -15 -46
-17 -306 -17 -264 0 -291 2 -307 18 -16 16 -18 44 -21 292 l-3 275 26 25 25
26 285 -3 c257 -3 286 -5 302 -21z"/>
<path d="M6170 4396 c0 -2 8 -10 18 -17 15 -13 16 -12 3 4 -13 16 -21 21 -21
13z"/>
<path d="M6193 4129 c-18 -38 -29 -69 -25 -69 8 1 67 129 61 134 -2 2 -18 -28
-36 -65z"/>
<path d="M6646 4559 l-26 -20 0 -284 c0 -263 1 -284 19 -306 l19 -24 290 -3
290 -3 28 25 29 24 3 259 c4 282 -1 322 -43 341 -18 8 -114 12 -304 12 -266 0
-279 -1 -305 -21z m620 -13 c11 -16 14 -73 14 -296 0 -269 -1 -277 -21 -296
-20 -18 -38 -19 -308 -17 -279 2 -286 3 -303 24 -16 19 -18 49 -18 295 0 263
1 275 20 294 20 20 30 21 311 18 274 -3 291 -4 305 -22z"/>
<path d="M6982 4186 c7 -8 15 -12 17 -11 5 6 -10 25 -20 25 -5 0 -4 -6 3 -14z"/>
<path d="M6980 4151 c-8 -5 -27 -14 -42 -22 -47 -21 -28 -81 24 -78 7 0 3 4
-10 9 -28 12 -38 36 -22 55 16 20 44 19 61 -1 11 -13 10 -19 -1 -37 -12 -20
-12 -21 3 -8 21 17 22 35 2 51 -12 10 -13 16 -4 26 13 16 11 17 -11 5z"/>
<path d="M7412 4560 c-22 -20 -22 -25 -22 -306 l0 -285 25 -24 24 -25 285 0
285 0 28 24 28 24 0 282 0 282 -28 24 -28 24 -288 0 c-275 0 -288 -1 -309 -20z
m601 -1 c12 -7 25 -17 29 -23 4 -6 8 -135 8 -287 0 -268 -1 -276 -21 -295 -20
-18 -39 -19 -306 -18 -286 0 -286 0 -304 23 -18 21 -19 45 -19 295 0 279 2
296 40 309 32 11 551 7 573 -4z"/>
<path d="M7692 4188 c-7 -7 -12 -21 -12 -33 0 -29 19 -45 50 -44 23 1 23 2 -5
8 -33 7 -46 41 -25 67 15 17 9 19 -8 2z"/>
<path d="M7752 4180 c7 -10 14 -18 15 -16 6 6 -9 36 -18 36 -5 0 -4 -9 3 -20z"/>
<path d="M7760 4143 c0 -5 5 -15 10 -23 7 -12 9 -10 7 8 -1 19 -17 33 -17 15z"/>
<path d="M7756 4085 c-3 -9 -16 -20 -28 -25 -16 -6 -18 -9 -6 -9 18 -1 48 24
48 40 0 14 -7 11 -14 -6z"/>
<path d="M8184 4557 l-27 -24 -1 -282 -1 -283 28 -24 28 -24 284 0 284 0 28
24 28 24 4 266 c3 287 0 314 -45 335 -17 7 -118 11 -304 11 -278 0 -279 0
-306 -23z m619 -6 c15 -12 17 -46 17 -296 l0 -284 -27 -21 c-26 -21 -34 -21
-304 -18 -256 3 -279 4 -298 22 -20 19 -21 27 -21 295 0 152 4 281 8 287 21
31 49 34 328 31 221 -1 285 -5 297 -16z"/>
<path d="M8460 4181 c-17 -33 -12 -96 9 -115 11 -10 26 -16 33 -13 9 4 7 6 -4
6 -37 2 -53 95 -22 125 8 9 11 16 5 16 -6 0 -15 -9 -21 -19z"/>
<path d="M8521 4183 c7 -12 15 -20 18 -17 3 2 -3 12 -13 22 -17 16 -18 16 -5
-5z"/>
<path d="M8540 4124 c0 -14 -5 -35 -11 -47 -10 -21 -10 -21 5 -3 15 18 23 76
11 76 -3 0 -5 -12 -5 -26z"/>
<path d="M8953 4556 l-28 -24 0 -282 0 -282 28 -24 28 -24 279 0 c284 0 320 4
336 39 14 28 17 539 4 571 -19 47 -40 50 -340 50 l-279 0 -28 -24z m596 1 c25
-9 37 -20 42 -40 13 -47 -2 -545 -17 -565 -11 -15 -40 -17 -309 -17 -282 0
-297 1 -311 19 -11 16 -14 73 -14 295 0 152 4 282 9 289 4 7 21 17 37 22 46
13 523 11 563 -3z"/>
<path d="M9238 4383 c18 -2 45 -2 60 0 15 2 0 4 -33 4 -33 0 -45 -2 -27 -4z"/>
<path d="M9253 4123 c9 -2 23 -2 30 0 6 3 -1 5 -18 5 -16 0 -22 -2 -12 -5z"/>
<path d="M9755 4573 c-11 -3 -28 -12 -37 -21 -16 -14 -18 -41 -18 -303 l0
-288 26 -20 c26 -20 39 -21 310 -21 155 0 290 3 299 6 40 16 45 52 45 321 0
142 -3 268 -6 281 -13 48 -42 52 -331 51 -147 -1 -277 -4 -288 -6z m592 -26
c16 -16 18 -42 18 -298 l0 -281 -24 -19 c-22 -18 -42 -19 -301 -19 -265 0
-278 1 -304 21 l-26 20 0 278 c0 252 2 279 18 294 26 23 44 24 334 23 243 -1
269 -3 285 -19z"/>
<path d="M10031 4418 c-1 -19 -7 -28 -23 -31 l-23 -4 23 -2 c15 -1 22 -8 23
-23 l2 -23 4 22 c2 13 13 24 26 26 l22 4 -22 2 c-16 1 -23 9 -26 29 l-4 27 -2
-27z"/>
<path d="M10013 4143 c15 -2 37 -2 50 0 12 2 0 4 -28 4 -27 0 -38 -2 -22 -4z"/>
<path d="M10018 4103 c12 -2 32 -2 45 0 12 2 2 4 -23 4 -25 0 -35 -2 -22 -4z"/>
<path d="M10524 4574 c-52 -12 -56 -26 -61 -273 -3 -126 -2 -255 2 -286 12
-98 -23 -91 502 -99 478 -8 532 -5 552 32 5 9 11 144 13 299 3 275 2 283 -18
303 -21 21 -29 21 -495 25 -261 2 -484 2 -495 -1z m978 -31 c17 -15 18 -37 18
-295 0 -265 -1 -279 -20 -298 -19 -19 -33 -20 -500 -20 -467 0 -481 1 -500 20
-19 19 -20 33 -20 297 0 243 2 279 17 295 15 17 44 18 501 18 438 0 487 -2
504 -17z"/>
<path d="M11353 4085 c-3 -9 -3 -18 -1 -21 3 -3 8 4 11 16 6 23 -1 27 -10 5z"/>
<path d="M523 3830 c-40 -16 -43 -38 -43 -308 0 -267 6 -314 40 -332 12 -6
205 -10 499 -10 468 0 482 1 501 20 19 19 20 33 20 304 0 264 -1 285 -19 307
l-19 24 -479 2 c-263 1 -488 -2 -500 -7z m990 -31 c15 -19 17 -49 17 -293 0
-219 -3 -276 -14 -292 -14 -18 -32 -19 -494 -22 -461 -2 -480 -2 -503 17 l-24
19 -3 272 c-4 299 -1 314 55 323 16 3 235 3 488 1 455 -4 460 -4 478 -25z"/>
<path d="M645 3330 c-3 -6 1 -7 9 -4 18 7 21 14 7 14 -6 0 -13 -4 -16 -10z"/>
<path d="M1685 3830 c-54 -17 -55 -20 -55 -325 0 -281 0 -282 23 -303 23 -22
29 -22 314 -22 271 0 292 1 314 19 24 19 24 20 27 278 4 275 -2 324 -41 345
-28 15 -537 22 -582 8z m583 -26 c22 -15 22 -17 22 -299 0 -282 0 -284 -22
-299 -19 -14 -65 -16 -305 -16 -270 0 -284 1 -303 20 -19 19 -20 33 -20 295 0
262 1 276 20 295 19 19 33 20 303 20 240 0 286 -2 305 -16z"/>
<path d="M1916 3558 c-9 -12 -15 -36 -15 -53 1 -27 2 -26 9 9 4 22 16 45 26
53 10 7 13 13 6 13 -6 0 -18 -10 -26 -22z"/>
<path d="M1984 3567 c10 -8 22 -31 26 -53 7 -35 8 -36 9 -9 1 32 -23 75 -41
75 -7 0 -4 -6 6 -13z"/>
<path d="M1910 3461 c0 -14 37 -33 58 -29 9 1 22 0 27 -4 6 -3 11 5 11 18 2
20 0 21 -13 9 -19 -19 -48 -19 -67 1 -9 8 -16 11 -16 5z"/>
<path d="M2472 3831 c-77 -14 -77 -11 -80 -284 -4 -268 0 -319 29 -348 18 -18
36 -19 314 -19 282 0 296 1 315 20 19 19 20 33 20 305 0 350 11 325 -148 325
-60 0 -176 2 -258 4 -82 3 -168 1 -192 -3z m568 -31 c19 -19 20 -33 20 -295 0
-262 -1 -276 -20 -295 -19 -19 -33 -20 -305 -20 -272 0 -286 1 -305 20 -19 19
-20 33 -20 299 0 278 0 280 22 295 19 14 65 16 305 16 270 0 284 -1 303 -20z"/>
<path d="M2647 3560 c3 -11 7 -20 9 -20 2 0 4 9 4 20 0 11 -4 20 -9 20 -5 0
-7 -9 -4 -20z"/>
<path d="M2720 3571 c0 -6 5 -13 10 -16 6 -3 10 1 10 9 0 9 -4 16 -10 16 -5 0
-10 -4 -10 -9z"/>
<path d="M2795 3544 c-9 -50 -1 -52 12 -4 5 22 7 40 3 40 -4 0 -11 -16 -15
-36z"/>
<path d="M2711 3534 c0 -11 3 -14 6 -6 3 7 2 16 -1 19 -3 4 -6 -2 -5 -13z"/>
<path d="M2741 3524 c0 -11 3 -14 6 -6 3 7 2 16 -1 19 -3 4 -6 -2 -5 -13z"/>
<path d="M2661 3514 c0 -11 3 -14 6 -6 3 7 2 16 -1 19 -3 4 -6 -2 -5 -13z"/>
<path d="M2701 3494 c0 -11 3 -14 6 -6 3 7 2 16 -1 19 -3 4 -6 -2 -5 -13z"/>
<path d="M2751 3484 c0 -11 3 -14 6 -6 3 7 2 16 -1 19 -3 4 -6 -2 -5 -13z"/>
<path d="M2672 3480 c0 -8 3 -24 7 -34 7 -18 8 -18 14 -3 3 9 2 17 -3 17 -5 0
-11 8 -13 18 -3 11 -5 12 -5 2z"/>
<path d="M2776 3464 c-4 -14 -5 -28 -3 -31 3 -2 8 8 11 23 4 14 5 28 3 31 -3
2 -8 -8 -11 -23z"/>
<path d="M3238 3833 c-25 -3 -44 -13 -58 -30 -20 -26 -21 -36 -18 -306 l3
-279 24 -19 c22 -18 43 -19 315 -19 l293 0 21 23 c22 23 22 30 22 303 l0 281
-23 21 c-23 21 -32 22 -283 26 -142 2 -276 2 -296 -1z m572 -33 c19 -19 20
-33 20 -295 0 -262 -1 -276 -20 -295 -19 -19 -33 -20 -304 -20 -264 0 -285 1
-307 19 -24 19 -24 19 -27 288 -3 262 -3 270 18 296 l21 27 290 0 c276 0 290
-1 309 -20z"/>
<path d="M3478 3573 c12 -2 32 -2 45 0 12 2 2 4 -23 4 -25 0 -35 -2 -22 -4z"/>
<path d="M3462 3498 l-2 -68 43 2 42 1 -37 4 -37 4 -4 62 -3 62 -2 -67z"/>
<path d="M3493 3503 c9 -2 25 -2 35 0 9 3 1 5 -18 5 -19 0 -27 -2 -17 -5z"/>
<path d="M3987 3830 c-59 -18 -57 -8 -57 -320 l0 -289 26 -20 c26 -20 38 -21
314 -21 268 0 289 1 311 19 l24 19 0 286 c0 284 0 286 -23 308 -22 23 -26 23
-295 25 -149 1 -285 -2 -300 -7z m589 -31 c18 -20 19 -38 16 -298 -3 -265 -4
-277 -23 -293 -19 -16 -49 -18 -303 -18 -235 1 -284 3 -301 16 -19 14 -20 28
-23 294 -3 270 -2 280 18 300 19 19 31 20 308 20 281 0 289 -1 308 -21z"/>
<path d="M4221 3503 c1 -43 4 -65 6 -48 3 16 10 33 16 37 9 6 9 8 0 8 -8 0
-13 14 -13 35 0 32 2 35 30 35 17 0 33 -7 39 -17 6 -10 11 -13 11 -7 0 19 -24
34 -57 34 l-33 0 1 -77z"/>
<path d="M4300 3522 c0 -6 -9 -14 -20 -17 -17 -6 -18 -8 -6 -21 8 -8 18 -23
21 -35 4 -11 9 -18 11 -16 3 2 -1 16 -7 30 -9 21 -9 30 1 42 7 8 10 18 6 22
-3 3 -6 1 -6 -5z"/>
<path d="M4720 3810 c-19 -19 -20 -33 -20 -302 1 -231 3 -287 15 -302 21 -28
81 -34 362 -32 249 1 253 1 275 24 23 22 23 28 26 275 3 275 1 308 -29 338
-18 18 -35 19 -314 19 -282 0 -296 -1 -315 -20z m618 -6 c22 -15 22 -17 22
-299 0 -282 0 -284 -22 -299 -19 -14 -65 -16 -305 -16 -270 0 -284 1 -303 20
-19 19 -20 33 -20 295 0 262 1 276 20 295 19 19 33 20 303 20 240 0 286 -2
305 -16z"/>
<path d="M5002 3573 c26 -4 27 -7 31 -76 l3 -72 2 72 c2 70 3 72 30 76 15 2 0
4 -33 4 -33 0 -48 -2 -33 -4z"/>
<path d="M5484 3805 l-25 -25 3 -280 c3 -276 3 -280 26 -302 22 -23 27 -23
284 -26 284 -4 319 -1 349 29 18 18 19 35 19 299 l0 281 -25 24 -24 25 -291 0
-291 0 -25 -25z m621 -10 l25 -24 0 -268 c0 -227 -2 -272 -16 -291 -15 -22
-17 -22 -309 -22 -329 0 -319 -2 -330 73 -3 23 -5 149 -3 280 3 237 3 239 27
258 22 18 43 19 303 19 l279 0 24 -25z"/>
<path d="M5756 3568 c4 -7 16 -25 26 -40 10 -14 19 -43 19 -65 l2 -38 6 40 c4
23 17 59 29 80 21 37 17 33 -21 -19 -13 -18 -15 -17 -36 18 -20 32 -42 54 -25
24z"/>
<path d="M6255 3805 l-25 -24 0 -275 0 -275 24 -28 24 -28 264 -3 c285 -4 319
-1 349 29 18 18 19 35 19 299 l0 281 -25 24 -24 25 -291 0 -291 0 -24 -25z
m620 -10 l25 -24 0 -271 c0 -257 -1 -271 -20 -290 -19 -19 -33 -20 -308 -20
-281 0 -289 1 -308 21 -18 20 -19 40 -19 296 l0 275 24 19 c22 18 42 19 303
19 l279 0 24 -25z"/>
<path d="M6522 3527 c-2 -60 10 -97 31 -97 7 0 6 4 -3 10 -10 6 -17 33 -21 77
l-6 68 -1 -58z"/>
<path d="M6623 3520 c0 -36 2 -50 4 -32 2 17 2 47 0 65 -2 17 -4 3 -4 -33z"/>
<path d="M6590 3435 c-14 -8 -20 -14 -14 -15 5 0 19 7 30 15 24 18 16 19 -16
0z"/>
<path d="M7025 3805 l-25 -24 0 -268 c0 -147 3 -278 6 -290 13 -47 51 -53 339
-53 278 0 313 5 329 45 3 9 6 140 6 291 l0 275 -25 24 -24 25 -291 0 -291 0
-24 -25z m620 -10 l25 -24 0 -271 c0 -257 -1 -271 -20 -290 -19 -19 -33 -20
-308 -20 -233 0 -292 3 -308 14 -18 14 -19 31 -22 290 l-3 276 25 25 25 25
281 0 281 0 24 -25z"/>
<path d="M7343 3505 c0 -44 2 -61 4 -37 2 23 2 59 0 80 -2 20 -4 1 -4 -43z"/>
<path d="M7795 3806 l-25 -25 0 -279 c0 -261 1 -281 19 -303 l19 -24 283 -3
c302 -3 328 0 348 44 7 17 11 115 11 293 0 250 -1 270 -19 292 l-19 24 -296 3
-296 3 -25 -25z m622 -9 c16 -16 18 -42 18 -297 0 -255 -2 -281 -18 -297 -16
-17 -41 -18 -310 -16 -284 3 -292 3 -309 24 -16 19 -18 49 -18 291 l0 269 25
25 25 25 285 -3 c257 -3 286 -5 302 -21z"/>
<path d="M8084 3572 c-12 -8 -34 -46 -34 -59 0 -4 9 7 20 25 35 56 90 33 90
-38 0 -22 -7 -45 -16 -54 -8 -9 -11 -16 -5 -16 16 0 31 35 31 74 0 55 -49 93
-86 68z"/>
<path d="M8060 3463 c0 -6 8 -17 18 -24 16 -13 16 -13 2 6 -8 11 -16 22 -17
24 -2 2 -3 0 -3 -6z"/>
<path d="M8566 3809 l-26 -20 0 -285 0 -285 25 -24 24 -25 285 0 c156 0 292 3
301 6 40 16 45 51 45 323 0 276 -4 300 -47 320 -16 7 -120 11 -302 11 -266 0
-279 -1 -305 -21z m621 -12 c16 -16 18 -42 18 -297 0 -255 -2 -281 -18 -297
-16 -16 -43 -18 -308 -18 l-291 0 -19 24 c-18 22 -19 42 -19 296 l0 274 27 21
c26 21 34 21 310 18 255 -3 284 -5 300 -21z"/>
<path d="M8833 3500 c0 -41 2 -58 4 -37 2 20 2 54 0 75 -2 20 -4 3 -4 -38z"/>
<path d="M8903 3560 c9 -6 17 -20 17 -30 0 -10 -8 -24 -17 -30 -11 -7 -12 -10
-4 -7 8 2 19 11 25 20 12 19 -1 48 -25 54 -8 3 -7 0 4 -7z"/>
<path d="M9336 3809 l-26 -20 0 -289 0 -289 26 -20 c26 -20 38 -21 316 -21
l289 0 24 25 25 24 0 275 c0 151 -3 282 -6 291 -16 40 -50 45 -342 45 -267 0
-280 -1 -306 -21z m625 -18 c18 -22 19 -42 19 -291 0 -249 -1 -269 -19 -291
l-19 -24 -290 0 c-271 0 -291 1 -311 19 -20 19 -21 27 -21 295 0 152 4 281 8
288 18 28 64 32 335 30 l279 -2 19 -24z"/>
<path d="M9658 3713 c7 -3 16 -2 19 1 4 3 -2 6 -13 5 -11 0 -14 -3 -6 -6z"/>
<path d="M9642 3675 c0 -16 2 -22 5 -12 2 9 2 23 0 30 -3 6 -5 -1 -5 -18z"/>
<path d="M9627 3633 c6 -4 13 -22 16 -38 4 -27 5 -27 3 4 0 21 -7 36 -16 38
-10 3 -11 2 -3 -4z"/>
<path d="M9633 3360 c0 -47 2 -66 4 -42 2 23 2 61 0 85 -2 23 -4 4 -4 -43z"/>
<path d="M10130 3823 c-8 -3 -23 -12 -32 -21 -16 -14 -18 -41 -18 -303 l0
-288 26 -20 c26 -20 39 -21 310 -21 155 0 290 3 299 6 40 16 45 51 45 323 0
173 -4 268 -11 285 -7 14 -25 30 -42 36 -31 10 -549 13 -577 3z m602 -33 c19
-23 19 -37 16 -297 -3 -245 -5 -274 -21 -290 -16 -16 -43 -18 -306 -18 -270 0
-290 1 -310 19 -20 19 -21 27 -21 296 0 296 0 294 50 313 8 3 140 5 293 4
l279 -2 20 -25z"/>
<path d="M10407 3713 c6 -4 13 -22 16 -38 4 -27 5 -27 3 4 0 21 -7 36 -16 38
-10 3 -11 2 -3 -4z"/>
<path d="M10422 3590 c0 -19 2 -27 5 -17 2 9 2 25 0 35 -3 9 -5 1 -5 -18z"/>
<path d="M10433 3360 c0 -47 2 -66 4 -42 2 23 2 61 0 85 -2 23 -4 4 -4 -43z"/>
<path d="M10903 3823 c-50 -10 -53 -26 -53 -329 l0 -283 26 -20 c26 -20 38
-21 314 -21 268 0 289 1 311 19 l24 19 3 280 3 280 -25 28 -24 29 -279 1
c-153 1 -288 0 -300 -3z m591 -29 c26 -26 29 -56 24 -321 -4 -252 -5 -256 -27
-274 -21 -18 -45 -19 -301 -19 -265 0 -278 1 -304 21 l-26 20 0 276 c0 243 2
279 17 295 15 17 38 18 309 18 253 0 295 -2 308 -16z"/>
<path d="M11194 3635 c0 -49 1 -71 3 -48 2 23 2 64 0 90 -2 26 -3 8 -3 -42z"/>
<path d="M11181 3374 c0 -11 3 -14 6 -6 3 7 2 16 -1 19 -3 4 -6 -2 -5 -13z"/>
<path d="M11201 3304 c0 -11 3 -14 6 -6 3 7 2 16 -1 19 -3 4 -6 -2 -5 -13z"/>
<path d="M500 3063 c-20 -26 -21 -35 -18 -306 l3 -279 28 -24 28 -24 575 0
575 0 24 25 25 24 0 285 0 285 -26 20 c-26 21 -35 21 -610 21 l-583 0 -21 -27z
m1216 -7 c11 -16 14 -73 14 -292 0 -253 -1 -273 -19 -295 l-19 -24 -569 2
c-312 2 -578 5 -590 8 -37 9 -43 53 -43 322 l0 254 25 25 25 24 581 -2 c562
-3 581 -4 595 -22z"/>
<path d="M602 2933 c2 -10 10 -18 18 -18 8 0 16 8 18 18 2 12 -3 17 -18 17
-15 0 -20 -5 -18 -17z m28 -3 c0 -5 -5 -10 -11 -10 -5 0 -7 5 -4 10 3 6 8 10
11 10 2 0 4 -4 4 -10z"/>
<path d="M1140 2586 c0 -2 8 -10 18 -17 15 -13 16 -12 3 4 -13 16 -21 21 -21
13z"/>
<path d="M670 2571 c0 -6 4 -13 10 -16 6 -3 7 1 4 9 -7 18 -14 21 -14 7z"/>
<path d="M789 2563 c-13 -16 -12 -17 4 -4 9 7 17 15 17 17 0 8 -8 3 -21 -13z"/>
<path d="M1863 3078 c-40 -20 -44 -50 -41 -331 3 -262 3 -267 26 -289 22 -23
24 -23 318 -23 l296 0 19 24 c18 22 19 42 19 301 0 259 -1 279 -19 301 l-19
24 -289 2 c-189 1 -295 -2 -310 -9z m608 -27 c18 -22 19 -42 19 -290 0 -225
-2 -270 -16 -289 -15 -22 -17 -22 -307 -22 -161 0 -297 4 -304 8 -6 4 -17 20
-22 35 -14 36 -15 506 -1 542 5 14 20 30 32 35 13 5 147 8 301 7 l279 -2 19
-24z"/>
<path d="M2145 2820 c-11 -18 -45 -123 -41 -127 2 -2 14 26 26 63 16 46 25 62
31 53 6 -9 9 -10 9 -2 0 16 -17 26 -25 13z"/>
<path d="M2176 2770 c4 -14 13 -38 20 -55 11 -24 13 -25 8 -5 -4 14 -13 39
-20 55 -11 24 -13 25 -8 5z"/>
<path d="M2633 3080 c-12 -5 -26 -18 -32 -29 -7 -12 -11 -120 -11 -296 l0
-276 25 -24 24 -25 289 0 c270 0 291 1 313 19 l24 19 0 286 c0 284 0 286 -23
308 -22 23 -26 23 -305 25 -155 1 -292 -2 -304 -7z m589 -15 c10 -4 21 -17 25
-28 4 -12 6 -143 5 -292 -3 -219 -6 -273 -18 -285 -12 -13 -60 -15 -305 -15
l-291 0 -19 24 c-18 22 -19 42 -19 290 0 291 2 305 58 314 42 8 545 1 564 -8z"/>
<path d="M2925 2833 c11 -3 26 -12 33 -21 6 -9 12 -11 12 -6 0 17 -23 34 -44
33 -21 -1 -21 -1 -1 -6z"/>
<path d="M2883 2814 c-8 -22 9 -48 33 -51 14 -2 12 0 -5 7 -18 8 -22 16 -19
35 6 28 1 33 -9 9z"/>
<path d="M2957 2740 c10 -11 19 -20 21 -20 1 0 -2 9 -8 20 -6 11 -15 20 -20
20 -6 0 -2 -9 7 -20z"/>
<path d="M2893 2698 c11 -10 27 -18 36 -17 10 0 7 4 -8 10 -14 5 -30 13 -36
17 -6 4 -2 -1 8 -10z"/>
<path d="M3400 3077 c-48 -24 -50 -42 -48 -330 l3 -269 28 -24 28 -24 283 0
c271 0 284 1 310 21 l26 20 0 284 c0 263 -1 284 -19 306 l-19 24 -284 3 c-215
2 -289 -1 -308 -11z m602 -24 c16 -15 18 -41 18 -294 0 -299 0 -301 -53 -314
-12 -3 -145 -5 -295 -3 -257 3 -274 4 -288 22 -11 16 -14 73 -14 296 0 316 -3
306 85 312 28 2 158 2 290 0 203 -3 242 -5 257 -19z"/>
<path d="M3643 2760 c0 -41 2 -58 4 -37 2 20 2 54 0 75 -2 20 -4 3 -4 -38z"/>
<path d="M3703 2823 c9 -2 17 -5 17 -6 0 -1 7 -20 16 -42 15 -39 15 -39 9 -6
-6 41 -22 61 -44 60 -13 -1 -13 -2 2 -6z"/>
<path d="M3718 2708 c-10 -10 -14 -18 -9 -18 10 0 36 29 30 34 -2 1 -12 -6
-21 -16z"/>
<path d="M4183 3082 c-13 -4 -32 -15 -43 -24 -19 -17 -20 -29 -20 -298 l0
-281 25 -24 24 -25 291 0 291 0 24 25 25 24 0 275 0 275 -24 28 -24 28 -274 2
c-150 1 -283 -1 -295 -5z m583 -26 c18 -14 19 -31 22 -290 l3 -276 -25 -25
-25 -25 -279 0 c-261 0 -281 1 -303 19 l-24 19 0 282 c0 267 1 282 19 296 29
21 583 21 612 0z"/>
<path d="M4422 2758 l2 -73 3 67 4 67 37 4 37 4 -42 1 -43 2 2 -72z"/>
<path d="M4453 2753 c9 -2 23 -2 30 0 6 3 -1 5 -18 5 -16 0 -22 -2 -12 -5z"/>
<path d="M4934 3076 c-17 -8 -34 -21 -38 -31 -3 -9 -6 -142 -6 -295 l0 -279
26 -20 c26 -20 38 -21 314 -21 268 0 289 1 311 19 l24 19 0 286 c0 284 0 286
-23 308 -22 23 -26 23 -300 26 -219 2 -283 -1 -308 -12z m602 -27 c18 -20 19
-37 16 -298 -3 -265 -4 -277 -24 -293 -18 -16 -48 -18 -301 -18 -274 0 -281 0
-304 22 -23 21 -23 22 -23 295 0 260 1 274 20 293 19 19 33 20 308 20 281 0
289 -1 308 -21z"/>
<path d="M5190 2815 c-19 -22 -8 -25 13 -3 9 10 13 18 8 18 -5 0 -14 -7 -21
-15z"/>
<path d="M5241 2827 c2 -1 12 -9 22 -16 15 -12 17 -12 11 3 -3 9 -13 16 -22
16 -8 0 -13 -1 -11 -3z"/>
<path d="M5255 2750 c28 -12 37 -12 30 0 -3 6 -16 10 -28 9 -21 0 -21 -1 -2
-9z"/>
<path d="M5182 2715 c7 -41 85 -45 95 -4 3 8 0 7 -7 -3 -15 -25 -56 -22 -75 5
-15 20 -16 20 -13 2z"/>
<path d="M5688 3069 c-10 -5 -22 -27 -28 -49 -13 -48 -13 -486 0 -531 17 -58
18 -58 338 -59 271 0 293 1 310 18 17 17 19 44 24 276 6 266 1 322 -28 343
-22 16 -589 18 -616 2z m612 -19 c19 -19 20 -33 20 -295 0 -262 -1 -276 -20
-295 -19 -19 -33 -20 -305 -20 -272 0 -286 1 -305 20 -19 19 -20 33 -20 299 0
278 0 280 22 295 19 14 65 16 305 16 270 0 284 -1 303 -20z"/>
<path d="M6043 2755 c0 -44 2 -61 4 -37 2 23 2 59 0 80 -2 20 -4 1 -4 -43z"/>
<path d="M6441 3054 c-20 -26 -21 -39 -21 -300 0 -269 0 -273 23 -298 l22 -26
293 -2 294 -3 24 28 24 28 0 279 0 279 -26 20 c-26 20 -38 21 -320 21 l-293 0
-20 -26z m629 -11 c20 -26 21 -35 18 -301 -3 -257 -4 -274 -22 -288 -16 -11
-75 -14 -307 -14 l-288 0 -20 26 c-20 25 -21 39 -21 289 0 250 1 264 21 289
l20 26 289 0 289 0 21 -27z"/>
<path d="M6792 2763 c-2 -70 -3 -73 -26 -73 -13 0 -27 5 -29 10 -3 6 -4 5 -3
-2 4 -19 55 -23 62 -5 3 8 3 43 1 78 l-3 64 -2 -72z"/>
<path d="M7215 3055 l-25 -24 0 -275 0 -275 24 -27 23 -28 293 -1 292 0 24 28
24 28 0 275 0 275 -25 24 -24 25 -291 0 -291 0 -24 -25z m621 -10 l25 -25 -3
-276 c-3 -259 -4 -276 -22 -290 -29 -21 -583 -21 -612 0 -18 14 -19 31 -22
288 -3 266 -2 275 18 301 l21 27 285 0 285 0 25 -25z"/>
<path d="M7483 2795 c0 -22 2 -30 4 -17 2 12 2 30 0 40 -3 9 -5 -1 -4 -23z"/>
<path d="M7539 2797 l-27 -32 30 -43 c16 -23 31 -42 34 -42 6 0 -11 29 -35 60
l-20 25 31 33 c18 17 28 32 22 31 -5 0 -21 -15 -35 -32z"/>
<path d="M7484 2736 c-3 -8 -4 -25 -2 -38 3 -17 5 -13 9 15 5 38 2 47 -7 23z"/>
<path d="M7985 3055 l-25 -24 0 -270 c0 -183 4 -278 12 -295 7 -17 24 -30 47
-36 50 -14 529 -13 570 1 17 6 36 19 41 29 6 11 10 134 10 295 l0 276 -25 24
-24 25 -291 0 -291 0 -24 -25z m626 -14 c18 -22 19 -42 19 -290 0 -225 -2
-270 -16 -289 -15 -22 -17 -22 -313 -22 -265 0 -300 2 -312 17 -11 12 -15 76
-17 290 l-3 273 26 25 25 26 286 -3 286 -3 19 -24z"/>
<path d="M8272 2758 l-2 -78 43 2 42 1 -37 4 -37 4 -4 72 -3 72 -2 -77z"/>
<path d="M8756 3059 l-26 -20 0 -284 c0 -263 1 -284 19 -306 l19 -24 291 -3
292 -3 29 30 30 29 0 267 c0 271 -3 294 -39 322 -12 9 -93 12 -302 13 -275 0
-287 -1 -313 -21z m604 -2 c16 -8 27 -25 31 -47 4 -19 5 -149 2 -288 -5 -199
-9 -257 -20 -268 -12 -11 -69 -14 -308 -14 -292 0 -294 0 -309 22 -14 19 -16
64 -16 293 0 148 4 275 8 281 20 30 52 33 317 34 196 0 277 -4 295 -13z"/>
<path d="M9066 2941 c-4 -5 -2 -12 3 -15 5 -4 12 -2 15 3 4 5 2 12 -3 15 -5 4
-12 2 -15 -3z"/>
<path d="M9065 2850 c4 -6 11 -8 16 -5 14 9 11 15 -7 15 -8 0 -12 -5 -9 -10z"/>
<path d="M9065 2700 c-3 -5 1 -10 10 -10 9 0 13 5 10 10 -3 6 -8 10 -10 10 -2
0 -7 -4 -10 -10z"/>
<path d="M9059 2594 c-5 -15 -8 -29 -5 -31 2 -2 8 10 14 26 13 38 5 41 -9 5z"/>
<path d="M9526 3058 l-26 -23 -1 -284 c0 -275 1 -285 21 -305 20 -20 32 -21
309 -24 l289 -3 28 25 29 24 3 268 c3 288 -1 318 -45 335 -13 5 -150 9 -303 9
-275 0 -279 0 -304 -22z m621 -11 c17 -16 18 -40 15 -294 -2 -152 -7 -284 -12
-294 -14 -25 -94 -31 -367 -27 -210 3 -233 5 -252 22 -20 19 -21 28 -21 297
l0 278 27 21 c26 20 35 21 310 18 256 -3 284 -5 300 -21z"/>
<path d="M9821 2934 c0 -11 3 -14 6 -6 3 7 2 16 -1 19 -3 4 -6 -2 -5 -13z"/>
<path d="M9841 2703 c-1 -6 -4 -20 -7 -30 -5 -17 -5 -17 6 0 6 10 9 23 6 30
-3 9 -5 9 -5 0z"/>
<path d="M10296 3058 l-25 -23 -7 -277 -7 -277 31 -30 30 -31 579 0 580 0 21
23 c21 22 22 32 24 305 3 281 3 281 -20 304 l-23 23 -578 3 -579 3 -26 -23z
m1186 -3 c30 -12 34 -61 30 -329 -4 -237 -6 -260 -23 -277 -18 -18 -43 -19
-572 -19 -540 0 -610 4 -629 32 -10 16 -10 559 0 574 23 34 40 35 612 31 311
-3 573 -8 582 -12z"/>
<path d="M11081 2574 c0 -11 3 -14 6 -6 3 7 2 16 -1 19 -3 4 -6 -2 -5 -13z"/>
<path d="M545 2343 c-11 -3 -28 -12 -37 -21 -16 -14 -18 -41 -18 -302 l0 -287
23 -21 23 -22 771 0 772 0 20 26 c20 26 21 39 21 300 0 269 0 273 -22 298
l-23 24 -755 5 c-415 3 -764 3 -775 0z m1531 -21 c30 -20 34 -55 34 -312 l0
-261 -25 -24 -24 -25 -751 0 c-754 0 -780 1 -802 34 -4 6 -8 134 -8 285 0 241
2 277 17 293 15 17 53 18 782 18 421 0 771 -4 777 -8z"/>
<path d="M796 1867 c3 -10 9 -15 12 -12 3 3 0 11 -7 18 -10 9 -11 8 -5 -6z"/>
<path d="M600 1861 c0 -6 4 -13 10 -16 6 -3 7 1 4 9 -7 18 -14 21 -14 7z"/>
<path d="M2232 2320 c-22 -20 -22 -26 -22 -304 0 -282 0 -283 23 -304 23 -22
29 -22 314 -22 271 0 292 1 314 19 24 19 24 20 27 273 4 275 1 309 -29 339
-18 18 -35 19 -312 19 -281 0 -294 -1 -315 -20z m616 -6 c22 -15 22 -17 22
-299 0 -282 0 -284 -22 -299 -19 -14 -65 -16 -305 -16 -270 0 -284 1 -303 20
-19 19 -20 33 -20 295 0 262 1 276 20 295 19 19 33 20 303 20 240 0 286 -2
305 -16z"/>
<path d="M2537 2083 l43 -4 -38 -57 c-21 -31 -42 -63 -46 -69 -5 -10 6 -13 46
-11 50 1 51 2 11 5 -24 2 -43 6 -43 9 0 3 18 32 40 64 22 32 40 61 40 64 0 4
-21 5 -47 4 l-48 -1 42 -4z"/>
<path d="M3000 2320 c-11 -11 -22 -30 -25 -43 -4 -13 -5 -141 -3 -284 3 -240
5 -263 22 -282 19 -20 27 -21 318 -21 285 0 299 1 318 20 19 19 20 33 20 304
l0 285 -26 20 c-26 20 -38 21 -315 21 -274 0 -290 -1 -309 -20z m626 -14 c11
-16 14 -73 14 -295 0 -241 -2 -277 -17 -293 -15 -17 -38 -18 -308 -18 -267 0
-293 1 -308 18 -14 15 -16 55 -18 294 0 152 2 282 6 288 16 25 62 29 333 27
268 -2 284 -3 298 -21z"/>
<path d="M3275 2052 l27 -41 -21 -30 c-12 -16 -21 -33 -21 -38 0 -4 10 7 21
25 12 17 26 32 32 32 6 0 7 3 4 7 -4 3 5 22 19 40 14 19 24 37 21 39 -3 3 -15
-11 -27 -31 l-22 -36 -18 29 c-10 17 -24 33 -30 37 -7 4 0 -11 15 -33z"/>
<path d="M3330 1971 c5 -11 15 -23 21 -27 6 -3 3 5 -6 20 -20 30 -30 35 -15 7z"/>
<path d="M3766 2319 l-26 -20 0 -285 c0 -265 1 -285 19 -303 16 -16 42 -20
214 -26 108 -4 241 -6 297 -3 97 4 104 5 126 31 24 28 24 29 24 292 0 280 -4
304 -47 324 -16 7 -120 11 -302 11 -266 0 -279 -1 -305 -21z m621 -12 c17 -16
18 -40 15 -295 -3 -235 -6 -280 -19 -294 -15 -16 -43 -18 -305 -18 -275 0
-289 1 -308 20 -19 19 -20 33 -20 293 0 280 2 296 40 310 8 3 142 5 297 4 256
-2 284 -4 300 -20z"/>
<path d="M4048 2079 c-10 -5 -18 -15 -18 -21 0 -6 8 -4 18 5 10 10 25 17 32
17 7 0 22 -7 32 -17 22 -20 24 -11 2 11 -18 18 -41 20 -66 5z"/>
<path d="M4021 2020 c-1 -38 9 -68 26 -75 13 -5 14 -3 3 10 -7 9 -17 33 -21
53 -5 26 -7 30 -8 12z"/>
<path d="M4095 1949 c-16 -10 -25 -19 -19 -19 7 0 22 9 35 20 30 24 23 24 -16
-1z"/>
<path d="M4542 2328 c-38 -19 -44 -65 -40 -340 3 -252 3 -258 26 -280 22 -23
24 -23 318 -23 l296 0 19 24 c18 22 19 42 19 306 0 274 -1 282 -21 301 -20 18
-41 19 -308 21 -193 1 -293 -1 -309 -9z m602 -19 l26 -20 0 -273 c0 -230 -2
-275 -16 -294 -15 -22 -17 -22 -308 -22 -270 0 -294 1 -309 18 -14 16 -17 53
-17 288 -1 148 2 278 6 288 4 10 16 22 28 26 12 5 143 9 292 9 260 1 272 0
298 -20z"/>
<path d="M4811 2021 c12 -34 23 -60 25 -58 5 5 -26 100 -37 112 -5 5 0 -19 12
-54z"/>
<path d="M4882 2043 c-15 -48 -8 -55 8 -8 7 20 10 38 8 41 -3 2 -10 -13 -16
-33z"/>
<path d="M5313 2330 c-12 -5 -26 -18 -32 -29 -15 -28 -15 -542 0 -575 20 -44
46 -47 348 -44 l283 3 19 24 c18 22 19 42 19 292 0 284 -3 308 -47 328 -29 13
-557 14 -590 1z m604 -23 c16 -16 18 -42 18 -297 0 -254 -2 -281 -18 -297 -16
-16 -41 -17 -310 -15 -241 3 -295 6 -307 18 -12 12 -16 61 -18 284 -3 283 -1
303 41 320 12 5 147 8 299 7 251 -2 279 -4 295 -20z"/>
<path d="M5639 2066 c20 -23 2 -46 -38 -48 l-36 -1 35 -4 c19 -3 42 -10 50
-16 13 -10 13 -10 3 4 -9 11 -9 19 -2 26 13 13 3 53 -13 53 -7 0 -7 -5 1 -14z"/>
<path d="M5635 1950 c-16 -7 -17 -9 -3 -9 9 -1 20 4 23 9 7 11 7 11 -20 0z"/>
<path d="M6090 2333 c-50 -19 -50 -17 -50 -320 l0 -284 25 -24 24 -25 289 0
c273 0 289 1 309 20 31 28 35 73 31 347 -3 237 -4 243 -26 265 -22 23 -26 23
-305 25 -155 1 -289 -1 -297 -4z m582 -17 c9 -4 19 -15 23 -24 4 -9 6 -141 6
-292 -2 -229 -4 -278 -17 -290 -12 -13 -60 -15 -305 -15 l-291 0 -19 24 c-18
22 -19 42 -19 296 0 297 0 296 60 308 37 8 542 1 562 -7z"/>
<path d="M6332 2010 l1 -75 6 65 6 65 28 -47 c15 -27 30 -48 33 -48 8 0 -35
71 -58 95 -18 19 -18 18 -16 -55z"/>
<path d="M6432 2023 c-1 -37 -6 -63 -13 -63 -5 0 -7 -5 -3 -11 14 -24 25 11
21 72 l-3 64 -2 -62z"/>
<path d="M6864 2333 c-12 -2 -30 -13 -40 -25 -18 -19 -19 -41 -19 -300 l0
-280 28 -24 28 -24 288 0 c359 0 330 -16 333 178 1 75 2 203 2 284 1 209 29
193 -322 195 -152 0 -287 -1 -298 -4z m589 -31 c15 -14 17 -41 17 -292 0 -223
-3 -280 -14 -296 -14 -18 -31 -19 -305 -22 -281 -3 -291 -2 -311 18 -19 19
-20 31 -20 298 0 255 2 280 18 295 21 19 114 24 402 19 159 -3 198 -7 213 -20z"/>
<path d="M7090 2071 c0 -6 4 -13 10 -16 6 -3 7 1 4 9 -7 18 -14 21 -14 7z"/>
<path d="M7197 2060 c-3 -11 -1 -18 3 -15 5 3 11 -20 13 -52 3 -53 4 -51 4 15
0 69 -9 94 -20 52z"/>
<path d="M7176 2015 c-9 -26 -7 -32 5 -12 6 10 9 21 6 23 -2 3 -7 -2 -11 -11z"/>
<path d="M7120 2005 c0 -5 5 -17 10 -25 5 -8 10 -10 10 -5 0 6 -5 17 -10 25
-5 8 -10 11 -10 5z"/>
<path d="M7633 2333 c-13 -2 -32 -16 -43 -30 -19 -24 -20 -40 -20 -290 0 -276
5 -311 45 -327 9 -3 144 -6 299 -6 271 0 284 1 310 21 l26 20 0 283 c0 213 -3
286 -13 300 -7 9 -30 21 -52 26 -39 9 -508 12 -552 3z m591 -35 c14 -19 16
-64 16 -293 0 -148 -4 -275 -8 -281 -20 -30 -55 -34 -322 -34 -165 0 -279 4
-290 10 -32 17 -39 74 -40 310 0 220 7 285 32 302 7 4 144 8 305 8 290 0 292
0 307 -22z"/>
<path d="M7911 2174 c-45 -27 -45 -30 4 -55 13 -7 12 -4 -5 9 l-24 20 37 22
c20 12 37 24 37 26 0 6 -3 5 -49 -22z"/>
<path d="M7916 1855 c-3 -9 -6 -22 -5 -28 0 -7 5 -1 10 12 5 13 8 26 5 28 -2
2 -6 -3 -10 -12z"/>
<path d="M8463 2331 c-131 -9 -123 11 -123 -320 0 -266 1 -279 21 -305 l20
-26 294 0 c273 0 294 1 316 19 l24 19 3 280 c3 280 3 280 -20 305 l-23 25
-215 4 c-118 2 -252 2 -297 -1z m521 -27 c26 -25 27 -48 24 -318 -3 -257 -3
-258 -27 -277 -22 -18 -43 -19 -306 -19 l-284 0 -20 26 c-20 26 -21 39 -21
295 0 256 1 270 20 289 19 19 33 20 309 20 250 0 292 -2 305 -16z"/>
<path d="M8666 2183 c12 -10 30 -23 40 -29 16 -9 13 -13 -24 -34 -23 -13 -40
-25 -38 -28 2 -2 23 8 46 23 46 29 44 37 -12 68 -32 18 -32 18 -12 0z"/>
<path d="M8680 1850 c0 -5 5 -10 10 -10 6 0 10 5 10 10 0 6 -4 10 -10 10 -5 0
-10 -4 -10 -10z"/>
<path d="M9135 2305 l-25 -24 0 -274 c0 -262 1 -275 21 -301 l20 -26 299 0
299 0 20 26 c20 26 21 39 21 301 l0 274 -25 24 -24 25 -291 0 -291 0 -24 -25z
m624 -11 c20 -25 21 -39 21 -289 0 -250 -1 -264 -21 -289 l-20 -26 -289 0
c-311 0 -312 0 -325 53 -3 12 -5 141 -3 285 3 248 4 265 22 278 16 11 75 14
307 14 l288 0 20 -26z"/>
<path d="M9425 2209 c-4 -6 -4 -13 -1 -16 3 -4 6 -1 6 5 0 19 48 14 59 -5 6
-10 11 -13 11 -7 1 28 -60 48 -75 23z"/>
<path d="M9465 2150 c-10 -11 -16 -22 -14 -24 2 -2 12 7 22 20 22 29 17 32 -8
4z"/>
<path d="M9441 1844 c0 -11 3 -14 6 -6 3 7 2 16 -1 19 -3 4 -6 -2 -5 -13z"/>
<path d="M9902 2307 c-22 -23 -22 -30 -22 -303 0 -220 3 -284 14 -299 8 -11
33 -21 67 -26 30 -4 379 -8 777 -8 l724 -1 29 29 29 29 0 277 0 276 -25 24
-24 25 -774 0 -774 0 -21 -23z m1583 -12 l25 -24 0 -248 c0 -242 -7 -308 -32
-325 -7 -4 -358 -8 -780 -8 -755 0 -768 0 -788 20 -19 19 -20 33 -20 295 0
262 1 276 20 295 20 20 33 20 785 20 l766 0 24 -25z"/>
<path d="M571 1600 c-83 -9 -81 -1 -81 -321 0 -264 1 -277 21 -303 l20 -26
295 0 295 0 25 25 25 25 -3 280 c-3 264 -4 281 -23 299 -19 18 -38 20 -270 23
-137 2 -274 1 -304 -2z m565 -31 c18 -20 19 -40 19 -296 l0 -275 -24 -19 c-22
-18 -42 -19 -306 -19 l-284 0 -20 26 c-20 26 -21 39 -21 295 0 256 1 270 20
289 19 19 33 20 308 20 281 0 289 -1 308 -21z"/>
<path d="M651 1084 c0 -11 3 -14 6 -6 3 7 2 16 -1 19 -3 4 -6 -2 -5 -13z"/>
<path d="M1274 1575 l-25 -25 3 -279 c3 -250 5 -281 21 -299 16 -18 37 -20
286 -26 284 -8 342 -2 361 34 6 11 10 127 10 295 l0 276 -25 24 -24 25 -291 0
-291 0 -25 -25z m621 -10 l25 -24 0 -271 c0 -257 -1 -271 -20 -290 -19 -19
-33 -20 -308 -20 -281 0 -289 1 -308 21 -18 20 -19 40 -19 296 l0 275 24 19
c22 18 42 19 303 19 l279 0 24 -25z"/>
<path d="M1714 1458 l-29 -33 33 29 c30 28 37 36 29 36 -2 0 -16 -15 -33 -32z"/>
<path d="M1672 1100 c0 -14 2 -19 5 -12 2 6 2 18 0 25 -3 6 -5 1 -5 -13z"/>
<path d="M1722 1100 c0 -14 2 -19 5 -12 2 6 2 18 0 25 -3 6 -5 1 -5 -13z"/>
<path d="M1621 1094 c0 -11 3 -14 6 -6 3 7 2 16 -1 19 -3 4 -6 -2 -5 -13z"/>
<path d="M1766 1073 c-6 -14 -5 -15 5 -6 7 7 10 15 7 18 -3 3 -9 -2 -12 -12z"/>
<path d="M2046 1579 l-26 -20 0 -285 c0 -267 1 -285 19 -303 29 -29 79 -33
359 -29 l254 3 24 29 25 28 -3 275 -3 275 -28 24 -28 24 -283 0 c-271 0 -284
-1 -310 -21z m620 -13 c11 -16 14 -74 14 -297 0 -239 -2 -280 -16 -293 -13
-14 -55 -16 -305 -16 -276 0 -290 1 -309 20 -19 19 -20 33 -20 294 l0 275 27
21 c26 21 34 21 311 18 267 -3 284 -4 298 -22z"/>
<path d="M2190 1081 c0 -6 4 -13 10 -16 6 -3 7 1 4 9 -7 18 -14 21 -14 7z"/>
<path d="M2236 1073 c-6 -14 -5 -15 5 -6 7 7 10 15 7 18 -3 3 -9 -2 -12 -12z"/>
<path d="M2813 1576 l-28 -24 0 -274 c0 -323 0 -322 87 -333 29 -3 208 -5 396
-3 l344 3 19 24 c18 22 19 42 19 303 l0 279 -25 24 -24 25 -380 0 -380 0 -28
-24z m790 3 c12 -7 25 -17 29 -23 4 -6 8 -133 8 -281 0 -229 -2 -274 -16 -293
l-15 -22 -389 0 -389 0 -15 22 c-14 19 -16 64 -16 293 0 148 4 275 8 281 21
31 51 33 410 34 255 0 370 -3 385 -11z"/>
<path d="M3292 1100 c0 -14 2 -19 5 -12 2 6 2 18 0 25 -3 6 -5 1 -5 -13z"/>
<path d="M3531 1104 c0 -11 3 -14 6 -6 3 7 2 16 -1 19 -3 4 -6 -2 -5 -13z"/>
<path d="M3783 1591 c-12 -6 -26 -19 -32 -30 -7 -12 -11 -119 -11 -294 0 -256
1 -276 19 -298 l19 -24 1828 -3 1828 -2 23 22 23 21 0 282 c0 349 11 325 -153
325 -62 0 -879 2 -1817 5 -1088 4 -1713 2 -1727 -4z m3670 -33 c15 -18 17 -48
17 -298 0 -256 -1 -278 -18 -294 -17 -15 -153 -16 -1841 -14 l-1823 3 -19 24
c-18 22 -19 42 -19 296 l0 274 28 21 27 22 1815 -6 c1812 -7 1815 -7 1833 -28z"/>
<path d="M7595 1565 l-25 -24 0 -275 c0 -271 0 -275 23 -300 l22 -26 355 -7
c196 -3 372 -3 391 1 20 3 45 15 57 27 22 19 22 25 22 304 l0 284 -26 20 c-26
20 -37 21 -411 21 l-384 0 -24 -25z m821 -10 c12 -17 14 -67 12 -298 -3 -262
-4 -279 -22 -293 -16 -11 -88 -14 -401 -14 -375 0 -382 0 -401 21 -18 19 -19
42 -22 290 l-3 269 25 25 26 26 386 -3 c372 -3 386 -4 400 -23z"/>
<path d="M7886 1107 c3 -10 9 -15 12 -12 3 3 0 11 -7 18 -10 9 -11 8 -5 -6z"/>
<path d="M7690 1071 c0 -6 4 -13 10 -16 6 -3 7 1 4 9 -7 18 -14 21 -14 7z"/>
<path d="M8573 1580 c-12 -5 -26 -18 -32 -29 -7 -12 -11 -120 -11 -296 l0
-276 25 -25 25 -25 295 3 c267 3 296 5 312 21 16 16 18 45 21 295 3 301 1 313
-51 332 -37 12 -552 13 -584 0z m582 -14 c46 -19 47 -32 43 -334 -3 -217 -5
-254 -19 -268 -15 -14 -51 -16 -310 -16 -288 1 -294 2 -311 23 -16 19 -18 49
-18 286 0 275 3 297 43 313 12 5 138 9 280 9 201 1 265 -2 292 -13z"/>
<path d="M8727 1419 c7 -7 15 -10 18 -7 3 3 -2 9 -12 12 -14 6 -15 5 -6 -5z"/>
<path d="M8657 1113 c-9 -9 -9 -51 1 -56 4 -3 7 10 7 29 0 19 0 34 -1 34 0 0
-4 -3 -7 -7z"/>
<path d="M8695 1085 c0 -18 3 -31 8 -28 4 2 7 15 7 28 0 13 -3 26 -7 28 -5 3
-8 -10 -8 -28z"/>
<path d="M9343 1580 c-12 -5 -26 -18 -32 -29 -7 -12 -11 -120 -11 -296 l0
-276 25 -24 24 -25 281 0 c303 0 331 4 344 52 11 43 7 535 -5 562 -7 14 -25
30 -42 36 -37 12 -552 13 -584 0z m576 -13 c25 -9 37 -20 44 -42 4 -16 6 -147
3 -290 -5 -215 -9 -262 -21 -275 -13 -13 -58 -15 -306 -15 l-291 0 -19 24
c-18 22 -19 42 -19 290 0 287 3 304 53 314 54 10 523 5 556 -6z"/>
<path d="M9643 1267 l-23 -13 30 -11 c28 -11 30 -10 30 13 0 27 -5 29 -37 11z
m27 -7 c0 -5 -5 -10 -11 -10 -5 0 -7 5 -4 10 3 6 8 10 11 10 2 0 4 -4 4 -10z"/>
<path d="M10125 1583 c-11 -3 -28 -12 -37 -21 -16 -14 -18 -41 -18 -304 0
-275 1 -289 20 -308 19 -19 33 -20 318 -20 291 0 299 1 318 21 18 19 19 42 22
299 l3 278 -25 28 -24 29 -279 2 c-153 0 -287 -1 -298 -4z m576 -17 c9 -4 21
-18 28 -32 12 -28 15 -232 3 -251 -6 -10 -86 -13 -323 -16 l-314 -2 323 -3
322 -2 0 -134 c0 -120 -2 -136 -21 -160 l-20 -26 -290 0 c-275 0 -290 1 -309
20 -19 19 -20 34 -20 298 0 255 2 281 18 295 15 14 50 17 203 20 226 4 379 2
400 -7z"/>
<path d="M10408 1464 c-3 -11 -9 -27 -13 -36 -5 -13 -2 -18 10 -18 12 0 15 5
10 20 -9 27 3 25 15 -2 5 -13 9 -16 9 -8 0 8 -6 26 -13 39 -12 21 -13 22 -18
5z"/>
<path d="M10390 1096 c0 -2 6 -18 14 -36 l13 -32 12 32 c14 42 15 40 -14 40
-14 0 -25 -2 -25 -4z m33 -23 c-3 -7 -6 -13 -8 -13 -2 0 -5 6 -8 13 -3 8 1 14
8 14 7 0 11 -6 8 -14z"/>
<path d="M10894 1583 c-53 -11 -56 -23 -61 -291 -6 -272 -3 -312 29 -342 21
-19 36 -20 313 -20 273 0 293 1 312 19 19 18 21 35 27 288 5 167 4 278 -2 293
-21 54 -23 55 -321 57 -152 0 -286 -1 -297 -4z m588 -30 c17 -15 18 -38 18
-294 0 -275 0 -278 -22 -299 -22 -20 -31 -21 -311 -18 -272 3 -289 4 -303 22
-11 16 -14 73 -14 295 0 152 4 282 9 290 16 25 84 30 345 25 222 -4 262 -7
278 -21z"/>
<path d="M11150 1255 c0 -18 4 -23 15 -19 8 4 15 10 15 15 0 4 8 6 18 3 9 -3
6 2 -8 10 -34 21 -40 20 -40 -9z"/>
</g>
</svg>
