<?xml version="1.0" encoding="utf-8"?>
<!DOCTYPE svg PUBLIC "-//W3C//DTD SVG 1.1//EN" "http://www.w3.org/Graphics/SVG/1.1/DTD/svg11.dtd">
<svg version="1.1" id="Layer_1" xmlns="http://www.w3.org/2000/svg" xmlns:xlink="http://www.w3.org/1999/xlink" x="0px" y="0px"
	 viewBox="0 0 1920 1817" enable-background="new 0 0 1920 1817" xml:space="preserve">
<g id="_x23_ffffffff">
</g>
<g id="_x23_ff7f00ff">
	<path d="M857.68,51.7c69.7684-30.7009,148.9157-15.1071,202.2615,38.0426c52.4429,52.2501,63.791,133.171,26.7638,196.5823
		c-16.9611,29.047-43.1714,56.9391-69.2464,78.1411c-33.0987,26.9128-40.7468,54.5337-40.7447,96.0341
		c0.0019,38.2994,0.0685,76.5996-0.0292,114.8987c-0.025,9.7974-0.01,19.5959,0.215,29.3912
		c8.416,1.8197,16.9246,3.1519,25.4081,4.6045c20.1656,3.4527,39.243,9.0762,57.9397,17.4379
		c68.1788,30.4917,116.1533,80.6205,155.6598,142.589c20.9695,32.892,42.0712,65.6853,63.7672,98.1042
		c21.8147,32.5963,47.1104,53.042,80.0299,73.7833c65.2295,41.0988,133.6797,77.223,202.4034,112.0684
		c69.5603,35.2697,143.5066,62.9048,212.0891,99.6542c73.5485,39.4103,110.8794,108.186,107.134,191.166
		c-0.4613,10.2195-1.0531,38.9719-18.28,34.5713c-19.0583-4.8685-37.3755-16.4586-54.4427-25.9077
		c-37.7087-20.877-75.603-41.4199-113.2485-62.4111c0.1741,39.9087,0.1537,79.8177,0.1289,119.7267
		c-0.0236,38.0804,6.6578,82.2178-6.7726,118.3641c-10.8319,29.1527-59.244,33.0134-85.515,33.2244
		c-18.8596,0.1514-37.7203-0.2233-56.5791,0.0745c-13.3219,0.2104-11.6726,5.193-14.5272,17.1766
		c-2.5493,10.702-4.2695,21.7119-4.7937,32.7101c-0.8263,17.3345,5.4843,34.0844,10.6787,50.3436
		c3.7806,10.6357,17.0697,20.7898,16.74,31.88c0.0258,20.0293,0.0736,40.0587,0.011,60.088
		c-0.0759,24.3507-9.2158,26.4474-32.1595,26.4366c-37.7169-0.0178-75.434,0.0085-113.1509-0.0093
		c-22.4377-0.0105-26.6497-7.4521-26.6351-29.0533c0.012-17.7159-5.6559-46.7738,1.205-63.2009
		c13.8572-33.1785,18.3223-61.9069,18.3641-98.3828c0.0106-9.2933-0.036-18.5878-0.2845-27.8783
		c-9.5664-0.0806-19.1329-0.1331-28.6996-0.166c-22.3231-0.0767-44.6465-0.0465-66.9697-0.0176
		c-82.3979,0.1067-164.7968,0.0144-247.1948,0.0083c-166.4836-0.0123-332.9671-0.0494-499.4507,0.0331
		c-9.9888,0.005-19.9776,0.0104-29.9664,0.0162c-9.7432-3.3237-13.0906-0.2186-10.0421,9.3152
		c-0.0212,6.207-0.0286,12.4142-0.022,18.6213c0.015,22.7823,1.4168,42.5619,5.4966,64.7849
		c1.3243,7.2139,2.0956,14.524,3.7687,21.6746c1.0817,7.7599,10.9431,9.5721,10.42,19.77
		c-0.0462,22.7239,3.9469,49.3322-0.5422,71.6404c-3.8559,19.1616-34.7811,12.8396-48.227,12.8396c-26.0971,0-52.1943,0-78.2914,0
		c-17.9856,0-47.0393,6.642-47.0393-19.4299c0.0201-22.21-4.7662-50.5588,0.6688-72.105
		c1.6804-6.6617,6.9395-9.8577,12.8812-12.2251c3.3549-11.3829,6.5429-22.7732,10.2159-34.0621
		c7.4701-22.9589,4.9393-41.6017-0.6067-64.6671c-4.1826-17.3949-4.8879-16.1404-22.9172-16.2445
		c-12.7729-0.0737-25.5455,0.0825-38.3185,0.0638c-23.3365-0.0343-45.1786-1.6757-67.0872-10.3715
		c-43.0308-17.0797-33.5502-63.7797-33.5438-102.0646c0.009-52.848,0.1114-105.6963-0.1126-158.5441
		c-32.8613,18.6698-65.5582,37.6779-99.2864,54.7611c-15.8072,8.0062-31.4918,16.2839-47.3345,24.2158
		c-14.5159,7.2676-31.6583,17.2179-36.3643-4.0995c-15.3382-69.4791,10.1966-141.5205,64.8052-187.4274
		c26.5029-22.5605,60.2683-35.8279,91.8429-49.4467c37.2042-16.0469,74.0056-33.0259,110.3814-50.8706
		c70.5635-34.6161,140.518-70.7811,208.3923-110.4481c31.602-18.4688,66.189-36.7207,93.2897-61.5965
		c28.1045-25.7971,47.322-64.2499,67.1483-96.3511c40.8049-66.0681,79.3444-124.816,147.9041-164.8708
		c31.9907-18.69,64.3397-30.4975,100.7875-36.725c12.5989-2.1526,17.1348,1.6288,17.1761-12.7795
		c0.0283-9.8383,0.0446-19.6767,0.0532-29.515c0.0201-22.9561-0.0019-45.9122-0.0123-68.8683
		c-0.0169-37.1248-5.6132-76.1357,12.9403-109.7501c18.3725-33.2863,51.4308-52.3742,75.9232-80.4294
		c46.1904-52.9099,60.7333-113.7379,20.5431-175.1786c-38.8281-59.3582-107.067-76.7916-173.196-56.4916
		c-35.7319,10.9688-56.0005,38.3233-80.6541,64.8823c-10.2802,11.0747-62.6899,62.4341-76.2386,36.8815
		c-8.2121-15.4879,9.0459-22.6477,19.4826-29.1638c15.2108-9.4968,26.2509-19.8905,38.6978-32.7743
		C806.77,89.9336,826.5313,66.8849,857.68,51.7 M930.67,910.65c-144.7012,73.7554-286.7932,153.4667-429.7687,230.5363
		c-72.7224,39.2003-145.2479,78.7643-217.7175,118.4297c-8.677,4.7493-17.3531,9.5-26.0286,14.2518
		c-12.2728,6.7223-8.6936,11.0217-8.7163,24.1512c-0.0335,19.3989-0.0455,38.7979-0.0473,58.1969
		c-0.004,42.0286,0.0396,84.0573,0.0153,126.0858c-0.0085,14.6678-2.9329,36.031,11.8424,44.7745
		c15.1183,8.9465,35.261,10.5491,52.3824,10.9863c18.2064,0.465,36.4668,0.1067,54.6793,0.1111
		c12.1942,0.0031,16.1213,3.5308,21.0539-8.7493c4.1707-10.3832,8.9414-20.7217,10.8278-31.8313
		c5.2937-31.1768-11.2319-65.0991,2.3246-95.0995c12.9317-28.6178,48.8521-42.1826,77.3636-28.9998
		c13.0352,6.0271,24.4861,17.3329,29.6914,30.8151c4.5642,11.8217,12.8348,25.5553,14.5715,37.948
		c2.0728,14.7904-0.5447,33.4664-1.7164,48.3021c-0.7571,9.5858-1.7743,18.6113-1.7397,28.3035
		c0.0688,19.2522-0.9406,19.2593,18.5839,19.3191c83.1265,0.2548,166.2597-0.0427,249.387-0.0389
		c167.9243,0.0077,335.8486,0.0333,503.7729-0.0062c20.1506-0.0048,40.3014-0.0105,60.4521-0.0172
		c10.0753-0.0034,20.1506-0.0071,30.226-0.011c12.6113-0.005,20.1442,5.6047,20.2028-9.2933
		c0.1307-33.208-14.4729-77.3691,4.1053-107.1312c7.6532-12.2603,8.3744-25.1072,19.4307-36.0234
		c10.1581-10.0293,23.2478-16.3535,37.568-17.2107c33.433-2.0011,59.5953,25.1205,60.1514,57.7579
		c0.5808,34.0967-5.3656,64.4597,7.6775,97.0425c4.203,10.4995,2.4636,14.6119,14.7573,14.8428
		c8.7979,0.1653,17.5974,0.0957,26.3959,0.048c20.0156-0.1086,40.6672,1.4724,60.4518-2.2407
		c40.6558-6.7859,38.9144-29.6833,38.9028-66.0966c-0.0132-41.4503,0.007-82.9006-0.0361-124.351
		c-0.0198-19.0905,0.2017-38.1818-0.0488-57.2716c-0.2234-17.0215-29.2535-25.3008-43.6584-33.101
		c-37.6959-20.4121-75.4004-40.8083-113.1056-61.2032c-72.936-39.4513-145.8718-78.9031-218.8026-118.364
		c-61.7152-33.3925-123.423-66.7986-185.1414-100.1852c-29.39-15.8986-58.7825-31.7928-88.1792-47.6791
		c-14.6985-7.9432-29.398-15.8843-44.0989-23.8231c-10.6879-5.7717-14.0001-11.4144-25.1223-5.2311
		C946.0214,902.785,938.3343,906.6979,930.67,910.65C878.66,937.16,940.89,905.38,930.67,910.65z"/>
</g>
<g id="_x23_000000ff">
</g>
</svg>
