<?xml version="1.0" encoding="UTF-8" standalone="no"?>
<!-- Created with Inkscape (http://www.inkscape.org/) -->

<svg
   xmlns:dc="http://purl.org/dc/elements/1.1/"
   xmlns:cc="http://creativecommons.org/ns#"
   xmlns:rdf="http://www.w3.org/1999/02/22-rdf-syntax-ns#"
   xmlns:svg="http://www.w3.org/2000/svg"
   xmlns="http://www.w3.org/2000/svg"
   xmlns:sodipodi="http://sodipodi.sourceforge.net/DTD/sodipodi-0.dtd"
   xmlns:inkscape="http://www.inkscape.org/namespaces/inkscape"
   width="96.375412mm"
   height="25.937468mm"
   viewBox="0 0 96.375412 25.937468"
   version="1.1"
   id="svg1444"
   inkscape:version="0.92.3 (2405546, 2018-03-11)"
   sodipodi:docname="Car Repair Silhouette.svg">
  <title
     id="title2002">Car Repair Silhouette</title>
  <defs
     id="defs1438" />
  <sodipodi:namedview
     id="base"
     pagecolor="#ffffff"
     bordercolor="#666666"
     borderopacity="1.0"
     inkscape:pageopacity="0.0"
     inkscape:pageshadow="2"
     inkscape:zoom="0.35"
     inkscape:cx="143.76125"
     inkscape:cy="227.15856"
     inkscape:document-units="mm"
     inkscape:current-layer="layer1"
     showgrid="false"
     fit-margin-top="0"
     fit-margin-left="0"
     fit-margin-right="0"
     fit-margin-bottom="0"
     inkscape:window-width="1920"
     inkscape:window-height="986"
     inkscape:window-x="1589"
     inkscape:window-y="-11"
     inkscape:window-maximized="1" />
  <metadata
     id="metadata1441">
    <rdf:RDF>
      <cc:Work
         rdf:about="">
        <dc:format>image/svg+xml</dc:format>
        <dc:type
           rdf:resource="http://purl.org/dc/dcmitype/StillImage" />
        <dc:title>Car Repair Silhouette</dc:title>
        <cc:license
           rdf:resource="http://creativecommons.org/publicdomain/zero/1.0/" />
      </cc:Work>
      <cc:License
         rdf:about="http://creativecommons.org/publicdomain/zero/1.0/">
        <cc:permits
           rdf:resource="http://creativecommons.org/ns#Reproduction" />
        <cc:permits
           rdf:resource="http://creativecommons.org/ns#Distribution" />
        <cc:permits
           rdf:resource="http://creativecommons.org/ns#DerivativeWorks" />
      </cc:License>
    </rdf:RDF>
  </metadata>
  <g
     inkscape:label="Layer 1"
     inkscape:groupmode="layer"
     id="layer1"
     transform="translate(71.676713,-182.99823)">
    <path
       style="fill:#000000;stroke-width:1"
       d="m -69.952141,208.91185 c -0.0302,-0.0101 -0.123481,-0.0335 -0.207283,-0.052 -0.09026,-0.0199 -0.431609,-0.29531 -0.837459,-0.67561 -0.748552,-0.70142 -0.759291,-0.72241 -0.592716,-1.15858 0.08147,-0.21332 0.08465,-0.30435 0.02693,-0.77065 -0.09667,-0.78094 -0.0873,-0.92272 0.07149,-1.0815 0.07474,-0.0747 0.206803,-0.15007 0.293477,-0.16741 0.151003,-0.0302 0.156588,-0.0422 0.13351,-0.28721 -0.03049,-0.32365 0.110824,-0.87945 0.512209,-2.01464 0.289642,-0.81915 0.31305,-0.92297 0.354883,-1.57397 0.05326,-0.82883 0.122488,-1.01519 0.572518,-1.5412 l 0.317453,-0.37104 -0.02868,-1.33134 c -0.01727,-0.8015 -0.06279,-1.54216 -0.114381,-1.86109 -0.04713,-0.29137 -0.150656,-1.0698 -0.230052,-1.72984 -0.22865,-1.90087 -0.176317,-2.27376 0.524966,-3.74049 0.295117,-0.61724 0.321124,-0.70182 0.312392,-1.01603 -0.01472,-0.52965 0.08884,-0.66313 0.79828,-1.029 0.419378,-0.21627 0.722812,-0.42458 1.068673,-0.73364 0.670459,-0.59912 1.362906,-1.04363 2.501884,-1.60606 1.084172,-0.53537 1.358079,-0.59977 1.873599,-0.44051 0.24969,0.0771 0.277247,0.0758 0.411865,-0.0206 0.260545,-0.18647 0.426883,-0.16556 0.686156,0.0862 l 0.201783,0.19597 0.17858,-0.11036 c 0.130145,-0.0804 0.205501,-0.18957 0.277834,-0.40238 0.313374,-0.92193 1.084165,-1.46245 2.005369,-1.40627 0.620027,0.0378 1.04897,0.33729 1.315221,0.91826 0.114508,0.24986 0.141201,0.39368 0.143868,0.77511 0.0032,0.45453 -0.005,0.48525 -0.277295,1.04339 -0.356682,0.73107 -0.427375,0.81432 -0.735367,0.86597 -0.238823,0.0401 -0.250807,0.0515 -0.35695,0.34214 -0.154963,0.42425 -0.179668,0.45211 -0.375338,0.4234 -0.09357,-0.0137 -0.248685,0.008 -0.344706,0.048 -0.166424,0.0695 -0.176407,0.0911 -0.213674,0.46221 -0.03068,0.30555 -0.09708,0.50785 -0.308745,0.94068 -0.299387,0.61221 -0.352054,0.86505 -0.411392,1.975 -0.03089,0.5778 -0.01938,0.75562 0.07592,1.17456 0.06177,0.27152 0.128493,0.80257 0.148261,1.18011 0.05188,0.99092 0.211326,2.0078 0.363947,2.32114 0.104192,0.21391 0.164258,0.27169 0.32838,0.31588 0.110475,0.0298 0.292008,0.12653 0.403407,0.21505 0.365514,0.29048 0.527599,0.56183 0.641142,1.07336 0.06311,0.28432 0.114398,0.3692 0.381603,0.63153 1.367208,1.34227 1.915882,3.34307 1.42991,5.21432 -0.699098,2.69192 -3.444674,4.441 -6.161984,3.92554 -1.165194,-0.22103 -2.055568,-0.69586 -2.885302,-1.53871 -0.954346,-0.96943 -1.457064,-2.13246 -1.546935,-3.57883 l -0.0366,-0.58908 -0.233399,0.63153 c -0.128371,0.34734 -0.296344,0.85394 -0.373279,1.12577 -0.226801,0.80136 -0.524951,1.68386 -0.660309,1.95444 -0.175926,0.35168 -0.487093,0.61606 -0.690021,0.58628 -0.09595,-0.0141 -0.157028,0.002 -0.157028,0.0408 0,0.0637 0.621016,0.99206 0.969288,1.44892 0.287044,0.37654 0.239657,0.74846 -0.112418,0.88232 -0.134532,0.0511 -1.297188,0.0755 -1.433481,0.0301 z m 9.29346,-3.70534 c 0.233407,-0.10595 0.618776,-0.38459 0.618778,-0.44741 2e-6,-0.0444 -1.035629,-0.76265 -1.099699,-0.76265 -0.07643,0 -0.163335,0.19508 -0.16353,0.36707 -1.08e-4,0.085 0.05293,0.33379 0.117833,0.55277 0.131633,0.44412 0.156905,0.45805 0.526618,0.29022 z m -0.842178,-1.62688 c 0.04463,-0.11631 -0.0052,-0.18725 -0.131591,-0.18725 -0.05684,0 -0.117244,0.0225 -0.134226,0.05 -0.05249,0.0849 0.03097,0.22462 0.134226,0.22462 0.05394,0 0.113161,-0.0393 0.131591,-0.0873 z m 2.314949,-0.10311 c 0.07988,-0.19119 0.108557,-0.76844 0.04624,-0.93084 -0.04223,-0.11003 -0.218891,-0.10988 -0.645185,6.3e-4 -0.771746,0.19992 -0.892719,0.46569 -0.341093,0.74936 0.173275,0.0891 0.745502,0.33762 0.843937,0.36651 0.0091,0.003 0.05234,-0.0808 0.0961,-0.18558 z m -1.798379,-0.88715 c 0.0094,-0.066 -0.01972,-0.13052 -0.06706,-0.14869 -0.108323,-0.0416 -0.256399,0.10651 -0.214832,0.21484 0.04747,0.12371 0.26198,0.0734 0.281888,-0.0661 z m -0.757991,-0.82459 c 0,-0.10341 -0.15618,-0.16023 -0.23201,-0.0844 -0.04323,0.0432 -0.04109,0.0825 0.0077,0.14132 0.07845,0.0945 0.224304,0.0575 0.224304,-0.0569 z m 1.775747,-0.33606 c 0.252521,-0.17116 0.393414,-0.30342 0.393414,-0.36931 0,-0.11214 -0.74723,-0.79721 -0.869548,-0.79721 -0.08817,0 -0.467475,0.7843 -0.511997,1.05866 -0.0246,0.15158 -0.0054,0.21777 0.09103,0.31423 0.174555,0.17455 0.417585,0.11865 0.897101,-0.20637 z m -2.052925,-0.44157 c 0.121506,-0.12151 0.167482,-0.23939 0.219516,-0.56288 0.0362,-0.22505 0.07915,-0.45604 0.09545,-0.51331 0.02754,-0.0968 0.0037,-0.10204 -0.33864,-0.0746 -0.202544,0.0163 -0.393254,0.0546 -0.423797,0.0851 -0.03744,0.0374 -0.03579,0.14763 0.0051,0.33812 0.03333,0.15542 0.0606,0.4008 0.0606,0.5453 0,0.38891 0.118553,0.4455 0.381807,0.18224 z m -4.100345,-1.64325 0.261047,-0.33925 -0.343297,-0.6892 c -0.188812,-0.37905 -0.362288,-0.68919 -0.385499,-0.68919 -0.02321,0 -0.04251,0.0927 -0.04289,0.20593 -4.15e-4,0.11326 -0.06215,0.42817 -0.137287,0.69979 -0.11804,0.42673 -0.136608,0.60796 -0.136608,1.33344 v 0.83958 l 0.261741,-0.51092 c 0.143957,-0.28101 0.379214,-0.66359 0.52279,-0.85018 z m 4.870364,-3.50272 c -0.393422,-1.3784 -0.596491,-2.26431 -0.604146,-2.63562 -0.0031,-0.15101 0.0027,-0.82204 0.01285,-1.49117 l 0.01851,-1.2166 -0.22087,0.11179 c -0.729039,0.36898 -1.686496,1.14138 -1.785066,1.44005 -0.03379,0.10237 -0.09723,0.21584 -0.140991,0.25216 -0.04376,0.0363 -0.07956,0.1243 -0.07956,0.1955 0,0.19326 0.692702,2.84114 0.816436,3.12085 0.141668,0.32027 0.533801,0.89383 0.655696,0.95906 0.05332,0.0285 0.322674,0.0771 0.598574,0.10789 0.336785,0.0376 0.588783,0.10044 0.766825,0.19124 0.145855,0.0744 0.270624,0.13013 0.277262,0.1239 0.0066,-0.006 -0.135338,-0.5278 -0.315504,-1.15905 z m 20.046349,12.87108 c -1.29251,-0.14962 -2.635126,-0.81362 -3.603762,-1.78225 -2.417852,-2.41785 -2.425453,-6.33747 -0.01696,-8.75068 0.698793,-0.70017 1.352313,-1.13777 2.171807,-1.45426 0.830241,-0.32064 1.503541,-0.43151 2.436592,-0.40124 1.119987,0.0363 2.012092,0.28624 2.937978,0.82304 1.950285,1.13072 3.102941,3.14252 3.102648,5.41524 -1.66e-4,1.15156 -0.28074,2.15978 -0.895886,3.2191 -0.416882,0.71789 -1.589466,1.81024 -2.47221,2.30305 -0.959919,0.5359 -2.368357,0.77755 -3.660199,0.628 z m 1.604265,-1.82817 c 1.540389,-0.29472 2.801619,-1.34785 3.335316,-2.785 0.395355,-1.06463 0.36421,-2.36277 -0.07977,-3.32478 -0.457274,-0.99081 -1.298692,-1.84108 -2.247778,-2.27142 -0.612145,-0.27756 -0.979902,-0.34966 -1.789112,-0.35075 -0.604544,-8.3e-4 -0.820396,0.0216 -1.169652,0.12154 -1.14545,0.32773 -2.086207,1.0538 -2.65675,2.05046 -0.487759,0.85205 -0.539164,1.06339 -0.539278,2.21705 -1.1e-4,0.94248 0.0071,1.00893 0.154093,1.42781 0.222836,0.63491 0.54712,1.14993 1.021944,1.62304 0.50178,0.49996 0.980653,0.81945 1.569639,1.0472 0.813865,0.31471 1.611287,0.39602 2.401347,0.24485 z m -1.745578,-0.658 c -0.397957,-0.0967 -1.177467,-0.4738 -1.177467,-0.56968 0,-0.0954 0.739358,-0.87121 1.12035,-1.17565 0.195348,-0.15609 0.285705,-0.19856 0.329492,-0.15485 0.0716,0.0715 0.121071,1.97946 0.05114,1.97232 -0.02515,-0.003 -0.17073,-0.035 -0.323515,-0.0721 z m 1.587243,-0.008 c -0.05886,-0.15339 0.0071,-1.83055 0.07463,-1.89799 0.0865,-0.0864 0.311064,0.0831 1.023273,0.77212 0.625473,0.60513 0.639058,0.53119 -0.164292,0.89414 -0.567406,0.25635 -0.89314,0.3372 -0.933614,0.23173 z m -3.996459,-1.88454 c -0.185498,-0.36835 -0.415715,-0.984 -0.415715,-1.11171 0,-0.0475 0.247712,-0.0573 0.952085,-0.038 0.523648,0.0144 0.981266,0.0442 1.01693,0.0663 0.04663,0.0288 0.03072,0.088 -0.05662,0.21066 -0.206134,0.28949 -1.152699,1.24951 -1.231995,1.24951 -0.04122,0 -0.160332,-0.16955 -0.264686,-0.37677 z m 5.78928,-0.28718 c -0.362193,-0.36516 -0.658533,-0.69589 -0.658533,-0.73495 0,-0.11229 0.191025,-0.13718 1.058845,-0.13799 0.923005,-8.3e-4 0.929205,0.002 0.81654,0.42361 -0.0853,0.31893 -0.449621,1.11328 -0.510594,1.11328 -0.02625,0 -0.344065,-0.29878 -0.706258,-0.66395 z m -2.569591,-0.0609 c -0.183354,-0.18335 0.0034,-0.42853 0.263594,-0.34596 0.200608,0.0637 0.107756,0.41186 -0.109832,0.41186 -0.04832,0 -0.117517,-0.0296 -0.153762,-0.0659 z m 0.0073,-0.93321 c -0.204097,-0.0529 -0.457691,-0.33096 -0.457396,-0.50155 6.22e-4,-0.35645 0.480851,-0.68482 0.793325,-0.54245 0.170263,0.0776 0.301246,0.27642 0.340196,0.51644 0.02413,0.14871 10e-4,0.22214 -0.111739,0.35624 -0.16068,0.19096 -0.311703,0.2368 -0.564386,0.17132 z m -1.305232,-0.36984 c -0.138401,-0.15293 -0.06765,-0.33343 0.130706,-0.33343 0.22836,0 0.313851,0.1287 0.200456,0.30176 -0.108099,0.16498 -0.202357,0.174 -0.331162,0.0317 z m 2.577487,-0.0237 c -0.150185,-0.22921 0.05506,-0.44195 0.299941,-0.31089 0.134093,0.0718 0.140983,0.15482 0.02642,0.31839 -0.110217,0.15735 -0.219993,0.15483 -0.326358,-0.007 z m -4.879407,-0.79093 c -0.03848,-0.0623 0.274796,-0.99562 0.418947,-1.24822 0.0688,-0.12056 0.163312,-0.22655 0.210028,-0.23555 0.103726,-0.02 1.383897,1.28343 1.352913,1.37747 -0.01191,0.0362 -0.167995,0.0816 -0.346838,0.10098 -0.469179,0.0508 -1.604641,0.0545 -1.63505,0.005 z m 5.531012,-0.0948 c -0.03688,-0.0961 0.256365,-0.46 0.756584,-0.9389 0.471464,-0.45136 0.568709,-0.50037 0.67356,-0.33943 0.179902,0.27613 0.417645,0.85607 0.451146,1.1005 l 0.03558,0.25958 h -0.94275 c -0.784143,0 -0.948028,-0.0138 -0.974121,-0.0817 z m -1.910583,-0.35304 c -0.05241,-0.0579 -0.08713,-0.16294 -0.07716,-0.23339 0.01422,-0.10046 0.05239,-0.12809 0.176903,-0.12809 0.221529,0 0.299467,0.14072 0.179416,0.32395 -0.111791,0.17061 -0.153634,0.17624 -0.279163,0.0375 z m 0.763628,-0.84385 c -0.0436,-0.29073 -0.01276,-1.71908 0.0382,-1.76983 0.08607,-0.0857 1.058204,0.29137 1.38619,0.53766 0.103179,0.0775 0.102785,0.0827 -0.01937,0.25422 -0.130838,0.18374 -1.100913,1.06958 -1.270945,1.16058 -0.08613,0.0461 -0.103302,0.0227 -0.134093,-0.18263 z m -2.207518,-0.49823 -0.70191,-0.68594 0.482884,-0.22243 c 0.465949,-0.21463 0.969447,-0.39002 1.11963,-0.39002 0.05657,0 0.07171,0.1651 0.06924,0.75508 -0.0038,0.90214 -0.04469,1.18627 -0.174406,1.21124 -0.05946,0.0115 -0.349219,-0.23186 -0.79544,-0.66793 z m 48.6434014,8.41945 C 4.9117749,208.12984 3.1862,206.78444 2.3573436,205.12221 c -0.4458042,-0.89402 -0.6173438,-1.64108 -0.6173438,-2.68849 0,-1.16799 0.1827206,-1.95336 0.6772337,-2.91088 0.827856,-1.60298 2.2864057,-2.76702 4.0352432,-3.22044 0.5568604,-0.14438 1.7982667,-0.19913 2.4278459,-0.10707 2.4525964,0.35862 4.4948314,2.21255 5.1057534,4.63498 0.444756,1.76355 0.157349,3.43574 -0.855644,4.97835 -0.783512,1.19314 -1.895306,2.02858 -3.3727745,2.53439 -0.5166011,0.17685 -0.5329647,0.17873 -1.6749212,0.19164 -0.6342741,0.007 -1.2627324,-0.01 -1.3965719,-0.0374 z m 2.5795931,-1.91695 c 0.7510135,-0.25053 1.2028135,-0.53727 1.8127435,-1.15045 0.46145,-0.46391 0.558423,-0.59675 0.805878,-1.10398 0.372376,-0.76328 0.47224,-1.18392 0.469364,-1.97696 -0.0047,-1.27766 -0.472921,-2.35019 -1.408083,-3.22499 -0.439675,-0.41129 -0.850426,-0.6572 -1.55598,-0.93155 l -0.5381266,-0.20924 -0.8237319,0.002 c -0.6828418,0.002 -0.896984,0.0228 -1.2520288,0.12413 -1.1075253,0.31612 -1.9804435,0.97662 -2.5960625,1.96434 -0.9511475,1.52606 -0.8447053,3.55613 0.2594472,4.94819 0.9670005,1.21915 2.1896397,1.80263 3.6733554,1.75305 0.5286828,-0.0177 0.7200564,-0.0499 1.1532247,-0.19443 z M 6.5406832,205.90263 C 6.296622,205.80295 6.0160747,205.6702 5.9172373,205.60762 l -0.1797048,-0.11378 0.670347,-0.66925 c 0.4133884,-0.41271 0.7049941,-0.66258 0.7607391,-0.65184 0.079672,0.0153 0.090386,0.12795 0.090386,0.95022 v 0.93281 l -0.137289,0.014 c -0.075508,0.008 -0.336973,-0.0675 -0.5810322,-0.16719 z m 2.0980708,0.009 c -0.043734,-0.21868 -0.043514,-1.46342 6.227e-4,-1.62687 0.018203,-0.068 0.069375,-0.12356 0.1136983,-0.12356 0.078308,0 1.389322,1.24398 1.389322,1.31829 0,0.0996 -1.1416327,0.60375 -1.3672734,0.60375 -0.06999,0 -0.112424,-0.0535 -0.1360375,-0.17161 z m -3.8624769,-1.43131 c -0.2123366,-0.26357 -0.6236598,-1.32224 -0.5444923,-1.40141 0.060427,-0.0604 1.8076294,-0.0841 1.893391,-0.0257 0.1135094,0.0773 0.02939,0.18836 -0.6652246,0.87796 -0.4859183,0.48241 -0.6386286,0.60507 -0.6836741,0.54916 z M 10.390944,203.862 c -0.382505,-0.38223 -0.6855882,-0.72457 -0.6735293,-0.76076 0.015919,-0.0478 0.2840573,-0.0658 0.9783803,-0.0658 h 0.956447 l -0.01081,0.19221 c -0.0116,0.20609 -0.257818,0.84347 -0.442377,1.14516 l -0.112648,0.18415 z m -2.6186386,-0.10916 c -0.086542,-0.18994 -0.024224,-0.30554 0.1646965,-0.30554 0.2333307,0 0.3201902,0.1273 0.2058775,0.30176 -0.1152011,0.17582 -0.291365,0.17762 -0.370574,0.004 z m -0.2223656,-1.02209 c -0.1484036,-0.14841 -0.1638892,-0.19358 -0.1364526,-0.39814 0.038589,-0.28779 0.2861264,-0.53278 0.5383196,-0.53278 0.25205,0 0.5427944,0.30818 0.5427944,0.57535 0,0.48035 -0.5956731,0.70456 -0.9446614,0.35557 z m -1.0213113,-0.17308 c -0.095531,-0.0955 -0.082121,-0.37065 0.019988,-0.40983 0.1304563,-0.0501 0.3534466,0.0741 0.3534466,0.19686 0,0.0593 -0.054921,0.14636 -0.1220483,0.19338 -0.1467348,0.10277 -0.1666372,0.10432 -0.2513754,0.0196 z m 2.5075177,-0.12108 c -0.082457,-0.18097 0.021723,-0.31966 0.222571,-0.29631 0.1225215,0.0142 0.1419901,0.0429 0.1419901,0.20871 0,0.16871 -0.01841,0.19432 -0.1505517,0.20954 -0.1168262,0.0134 -0.1647671,-0.0139 -0.2140094,-0.12194 z m -4.8243074,-0.87015 c 8.303e-4,-0.1656 0.5045961,-1.31706 0.5884087,-1.34499 0.036403,-0.0121 0.1941797,0.0971 0.3506135,0.24273 0.3617654,0.33682 1.0372909,1.09958 1.0372909,1.17126 0,0.0341 -0.3703104,0.0546 -0.9884782,0.0546 H 4.2111954 l 6.227e-4,-0.12356 z m 5.5870058,0.0857 c -0.052856,-0.0138 -0.096102,-0.0471 -0.096102,-0.0739 0,-0.0591 1.3144074,-1.4259 1.3711884,-1.4259 0.06928,0 0.544141,1.06448 0.582852,1.30653 l 0.03695,0.2311 -0.899394,-0.006 c -0.494666,-0.004 -0.9426397,-0.0177 -0.9954955,-0.0315 z m -1.9678511,-0.40609 c -0.1685135,-0.16852 -0.1193273,-0.34833 0.1011039,-0.36957 0.2004686,-0.0193 0.2662737,0.0694 0.2119526,0.28588 -0.045585,0.18163 -0.1793603,0.21738 -0.3130565,0.0837 z m -1.4006691,-1.32256 c -0.3748247,-0.3675 -0.6814947,-0.68324 -0.6814947,-0.70165 0,-0.0545 1.2929337,-0.60711 1.4205133,-0.60711 0.1146199,0 0.1171022,0.0184 0.1163675,0.86492 -8.303e-4,0.8823 -0.025648,1.11203 -0.1204356,1.11203 -0.029402,0 -0.3601299,-0.30068 -0.7349505,-0.66819 z m 2.2074417,0.58133 c -0.052889,-0.13782 -0.037001,-1.74435 0.018099,-1.83143 0.041144,-0.065 0.087206,-0.0674 0.2660662,-0.0138 0.2905846,0.0871 1.2201277,0.51748 1.2201277,0.56497 0,0.0521 -1.3728587,1.36715 -1.4272193,1.36715 -0.024064,0 -0.058748,-0.0391 -0.07708,-0.0869 z m -42.0162021,4.04078 -0.768817,-0.0275 0.007,-0.16475 c 0.0038,-0.0906 0.06134,-0.51071 0.127816,-0.93356 0.134801,-0.8575 0.124834,-1.2163 -0.05939,-2.13806 -0.249981,-1.25076 -0.836202,-2.34883 -1.747248,-3.27281 -1.742797,-1.76755 -4.21149,-2.36043 -6.592908,-1.58335 -1.890728,0.61696 -3.285452,1.95972 -4.059485,3.90823 -0.248206,0.62482 -0.333796,1.18947 -0.333432,2.19968 2.07e-4,0.80656 0.02799,1.13339 0.142089,1.67641 l 0.03909,0.18603 -0.68109,-0.0385 c -0.374598,-0.0211 -1.014701,-0.0729 -1.422448,-0.11497 -1.462416,-0.15095 -1.967795,-0.31742 -2.339014,-0.77044 -0.339713,-0.41457 -0.353391,-0.49057 -0.34282,-1.90454 0.0073,-0.97166 -0.01249,-1.41333 -0.08249,-1.843 -0.185074,-1.1362 -0.222888,-2.70879 -0.08596,-3.57491 0.205337,-1.29883 1.423828,-2.10366 4.543666,-3.00117 1.960234,-0.56392 5.924701,-1.38544 8.479274,-1.75708 2.079447,-0.30252 2.999195,-0.36684 7.400292,-0.51751 0.931052,-0.0319 1.61652,-0.0802 1.787491,-0.12591 0.15855,-0.0424 0.61715,-0.28704 1.07085,-0.57118 2.951991,-1.84876 8.103814,-4.6361 9.827132,-5.31688 2.93277,-1.15855 6.862762,-1.63274 12.8227602,-1.54716 2.3802266,0.0342 3.2060174,0.068 5.70605485,0.23348 l 1.36773635,0.0906 0.5543054,-0.28288 c 0.7607765,-0.38824 1.1853603,-0.4457 1.7372456,-0.23512 0.2146197,0.0819 0.2699246,0.18309 0.3492187,0.63907 0.040313,0.23183 0.097287,0.4455 0.1266062,0.47482 0.056476,0.0565 0.2044287,0.11405 3.3902718,1.3195 3.1413789,1.18862 5.3397169,2.08336 7.0520249,2.87023 0.985259,0.45276 1.489197,0.61195 2.270571,0.71724 0.341158,0.046 1.163952,0.15906 1.828429,0.25131 0.893736,0.12408 1.611339,0.18402 2.75749,0.2303 l 1.549357,0.0626 0.159393,0.22322 c 0.213005,0.29831 0.393777,0.66141 0.393777,0.79096 0,0.0579 -0.0556,0.14224 -0.123561,0.18737 -0.157584,0.10466 -0.153894,0.40481 0.01225,0.99692 0.122522,0.43664 0.218728,1.34797 0.220249,2.08637 l 8.3e-4,0.43362 0.242025,0.25875 c 0.346467,0.3704 0.580302,0.85872 0.69674,1.45502 0.02949,0.15102 0.05368,0.85531 0.05376,1.5651 0,1.35843 -0.09371,2.38636 -0.244556,2.67806 -0.04511,0.0873 -0.233494,0.30498 -0.418618,0.48385 -0.185133,0.17887 -0.438594,0.46113 -0.563253,0.62725 -0.358136,0.47723 -0.544173,0.65961 -0.809492,0.79355 -0.916287,0.46256 -2.612108,0.73962 -6.232903,1.0183 -1.596399,0.12287 -1.983229,0.13398 -2.030001,0.0583 -0.01764,-0.0285 -0.05287,-0.59073 -0.07829,-1.24933 -0.04366,-1.13079 -0.05572,-1.22563 -0.216747,-1.7039 -0.391651,-1.16329 -1.02052,-2.0863 -1.981651,-2.9085 -0.723149,-0.61862 -1.417477,-1.01379 -2.3106233,-1.31506 -0.4654617,-0.15701 -0.4707398,-0.15746 -1.8671249,-0.15746 -1.4000961,0 -1.4004262,3e-5 -1.8671249,0.15881 -1.0613631,0.36111 -1.9310579,0.90845 -2.7297214,1.71794 -0.6274579,0.63596 -1.0999287,1.34449 -1.3881908,2.08177 -0.2976207,0.76121 -0.3720705,1.09524 -0.4025478,1.80609 -0.026156,0.61008 0.035195,2.17943 0.100967,2.58254 l 0.035838,0.21966 H -15.457546 c -9.433661,0 -17.498093,-0.0123 -17.920942,-0.0274 z m 14.207157,-13.79751 0.01594,-0.45305 0.318746,0.0187 c 0.176602,0.0104 0.592916,0.111 0.933563,0.22566 l 0.614816,0.20695 -0.0061,0.19848 c -0.0078,0.25134 0.06767,0.21185 0.114137,-0.0598 0.01934,-0.11311 0.09079,-0.31685 0.158756,-0.45277 0.135355,-0.27069 0.438691,-0.46433 0.81885,-0.52272 l 0.206959,-0.0318 -0.161496,-0.13589 c -0.278052,-0.23397 -0.320842,-0.64024 -0.138397,-1.31401 0.04089,-0.15102 0.12495,-0.57572 0.186795,-0.94378 0.207762,-1.23642 0.339536,-1.50565 0.866133,-1.76961 0.128364,-0.0643 0.233391,-0.14004 0.233391,-0.16821 0,-0.0759 0.372556,-0.16555 0.689392,-0.1659 0.536786,-6.2e-4 1.108644,0.41907 1.426933,1.04719 0.08043,0.15873 0.228081,0.61195 0.328108,1.00716 0.231695,0.91543 0.253814,0.96942 0.496688,1.21229 0.195133,0.19514 0.200718,0.2116 0.16467,0.48566 -0.02051,0.15602 -0.08075,0.35781 -0.13385,0.44842 -0.09495,0.16204 -0.09377,0.17082 0.07203,0.53323 0.09272,0.20266 0.183578,0.36947 0.201909,0.37068 0.04231,0.003 1.288096,-3.72733 1.583909,-4.74255 0.122336,-0.41985 0.2224294,-0.8232 0.2224294,-0.89633 0,-0.12752 -0.011768,-0.13174 -0.2883054,-0.10343 -0.158568,0.0162 -0.584849,0.0445 -0.947291,0.0628 -0.837775,0.0423 -2.430428,0.24829 -3.596963,0.46518 -3.200391,0.59505 -4.766921,1.24369 -7.72935,3.20044 -1.064742,0.70329 -1.317689,0.91776 -1.082395,0.91776 0.157071,0 0.498368,0.21041 0.695827,0.42897 0.230979,0.25567 0.291755,0.52035 0.236965,1.03198 l -0.03762,0.35126 h 1.75945 1.759442 z m 15.5570226,0.28616 c 6.4479314,-0.14362 8.6426769,-0.28328 9.4902256,-0.60389 0.4886373,-0.18485 1.0361556,-0.68638 1.2982347,-1.18919 0.1534492,-0.2944 0.2404041,-0.80747 0.1983328,-1.17021 -0.07664,-0.66077 -0.3480481,-0.94553 -1.3577696,-1.42457 -2.4369927,-1.15617 -6.68416569,-1.84715 -12.0557817,-1.96136 l -1.7128518,-0.0364 -0.029962,0.13236 c -0.01648,0.0728 -0.09368,0.56481 -0.1715604,1.09337 -0.077881,0.52856 -0.1908049,1.28228 -0.2509417,1.67492 -0.2512925,1.64077 -0.4862213,3.30525 -0.4868917,3.44959 l -6.227e-4,0.15466 1.3042413,-0.0321 c 0.7173332,-0.0177 2.4162809,-0.0569 3.775439,-0.0872 z m -8.3028606,-0.55069 c -0.05456,-0.0926 -0.147656,-0.21002 -0.206884,-0.26085 -0.105157,-0.0903 -0.105672,-0.0892 -0.02212,0.0449 0.04706,0.0755 0.119985,0.19289 0.162071,0.26085 0.117098,0.18908 0.179925,0.14696 0.06693,-0.0449 z m -3.236382,-1.02839 c 0.03175,-0.0514 -0.337191,-0.61539 -0.402552,-0.61539 -0.116673,0 -0.104774,0.19794 0.02355,0.39185 0.07638,0.11543 0.138875,0.24833 0.138875,0.29534 0,0.0676 0.02227,0.0736 0.106772,0.0283 0.05873,-0.0314 0.118734,-0.0765 0.133352,-0.10014 z m 3.092317,-0.46094 c -0.01754,-0.0438 -0.03054,-0.0308 -0.03318,0.0332 -0.0024,0.0579 0.01061,0.0903 0.02885,0.0721 0.01824,-0.0182 0.0202,-0.0656 0.0043,-0.10525 z m -0.305386,-0.0817 c -0.06474,-0.11133 -0.08037,-0.0757 -0.02738,0.0624 0.01882,0.0491 0.04581,0.0777 0.05995,0.0635 0.01413,-0.0141 -6.23e-4,-0.0708 -0.03257,-0.12593 z"
       id="path2000"
       inkscape:connector-curvature="0" />
  </g>
</svg>
