<?xml version="1.0" encoding="UTF-8" standalone="no"?>
<!-- Created with Inkscape (http://www.inkscape.org/) -->

<svg
   xmlns:dc="http://purl.org/dc/elements/1.1/"
   xmlns:cc="http://creativecommons.org/ns#"
   xmlns:rdf="http://www.w3.org/1999/02/22-rdf-syntax-ns#"
   xmlns:svg="http://www.w3.org/2000/svg"
   xmlns="http://www.w3.org/2000/svg"
   xmlns:sodipodi="http://sodipodi.sourceforge.net/DTD/sodipodi-0.dtd"
   xmlns:inkscape="http://www.inkscape.org/namespaces/inkscape"
   width="117.38251mm"
   height="65.837929mm"
   viewBox="0 0 117.38251 65.837929"
   version="1.1"
   id="svg836"
   inkscape:version="0.92.3 (2405546, 2018-03-11)"
   sodipodi:docname="House Keys.svg">
  <title
     id="title1394">House Keys</title>
  <defs
     id="defs830" />
  <sodipodi:namedview
     id="base"
     pagecolor="#ffffff"
     bordercolor="#666666"
     borderopacity="1.0"
     inkscape:pageopacity="0.0"
     inkscape:pageshadow="2"
     inkscape:zoom="0.35"
     inkscape:cx="-98.40246"
     inkscape:cy="255.18578"
     inkscape:document-units="mm"
     inkscape:current-layer="layer1"
     showgrid="false"
     fit-margin-top="0"
     fit-margin-left="0"
     fit-margin-right="0"
     fit-margin-bottom="0"
     inkscape:window-width="1920"
     inkscape:window-height="1017"
     inkscape:window-x="3832"
     inkscape:window-y="-8"
     inkscape:window-maximized="1" />
  <metadata
     id="metadata833">
    <rdf:RDF>
      <cc:Work
         rdf:about="">
        <dc:format>image/svg+xml</dc:format>
        <dc:type
           rdf:resource="http://purl.org/dc/dcmitype/StillImage" />
        <dc:title>House Keys</dc:title>
        <cc:license
           rdf:resource="http://creativecommons.org/publicdomain/zero/1.0/" />
        <dc:subject>
          <rdf:Bag>
            <rdf:li>House</rdf:li>
            <rdf:li>mortgage</rdf:li>
            <rdf:li>home</rdf:li>
            <rdf:li>silhouette</rdf:li>
            <rdf:li>key</rdf:li>
            <rdf:li>landlord</rdf:li>
            <rdf:li>apartment</rdf:li>
            <rdf:li>icon</rdf:li>
            <rdf:li>property</rdf:li>
            <rdf:li>housing</rdf:li>
            <rdf:li>building</rdf:li>
            <rdf:li>sign</rdf:li>
            <rdf:li>estate</rdf:li>
            <rdf:li>agent</rdf:li>
            <rdf:li>business</rdf:li>
            <rdf:li>loan</rdf:li>
            <rdf:li>security</rdf:li>
            <rdf:li>access</rdf:li>
            <rdf:li>accessibility</rdf:li>
            <rdf:li>unlock</rdf:li>
            <rdf:li>new home</rdf:li>
            <rdf:li>new house</rdf:li>
          </rdf:Bag>
        </dc:subject>
      </cc:Work>
      <cc:License
         rdf:about="http://creativecommons.org/publicdomain/zero/1.0/">
        <cc:permits
           rdf:resource="http://creativecommons.org/ns#Reproduction" />
        <cc:permits
           rdf:resource="http://creativecommons.org/ns#Distribution" />
        <cc:permits
           rdf:resource="http://creativecommons.org/ns#DerivativeWorks" />
      </cc:License>
    </rdf:RDF>
  </metadata>
  <g
     inkscape:label="Layer 1"
     inkscape:groupmode="layer"
     id="layer1"
     transform="translate(-9.0267224,-150.51331)">
    <path
       style="fill:#000000;stroke-width:1"
       d="m 27.433762,206.06281 -18.2158396,-10.31686 -0.0956,-0.30195 -0.0956,-0.30195 3.9501996,-6.98439 c 2.17261,-3.84141 5.10815,-9.03221 6.52343,-11.53511 1.41529,-2.5029 2.55894,-4.56504 2.54145,-4.58252 -0.0175,-0.0175 -0.73818,0.12214 -1.60154,0.31027 -1.03151,0.22478 -1.6062,0.31908 -1.67603,0.27504 -0.0584,-0.0369 -0.17491,-0.18541 -0.25882,-0.33009 l -0.15256,-0.26306 2.01967,-3.41104 c 1.11082,-1.87607 2.07105,-3.47455 2.13386,-3.55218 0.0807,-0.0997 0.65768,-0.28815 1.96647,-0.64217 1.01875,-0.27557 1.88011,-0.51824 1.91414,-0.53926 0.034,-0.021 1.74556,-3.01541 3.80343,-6.65419 l 3.74157,-6.61595 0.28884,-0.0771 c 0.28699,-0.0766 0.30252,-0.0694 2.43642,1.13628 1.18118,0.66736 2.18858,1.26529 2.23866,1.32873 0.0501,0.0634 0.11039,0.21838 0.13401,0.34429 0.0376,0.20057 -0.27159,0.78487 -2.49556,4.71572 -1.39619,2.46773 -2.52975,4.49556 -2.51903,4.50628 0.0107,0.0107 4.41019,-0.87512 9.7766,-1.96853 5.36641,-1.09341 9.81788,-1.98789 9.89215,-1.98774 0.34274,6.6e-4 0.57523,0.25756 0.78903,0.87172 0.11488,0.32999 0.24656,0.59956 0.29264,0.59904 0.0461,-5.1e-4 0.29904,-0.0684 0.56216,-0.15089 1.95095,-0.61146 4.51505,-1.09216 7.28634,-1.36599 1.73183,-0.17112 5.36021,-0.17194 7.06554,-0.002 2.88254,0.28795 5.86813,0.97501 7.54932,1.7373 l 0.44914,0.20365 0.47194,-0.28855 c 0.79804,-0.48794 1.69051,-0.91109 2.42231,-1.14848 1.12048,-0.36349 2.33622,-0.67877 2.89984,-0.75203 0.71493,-0.0929 2.9968,-0.0897 3.70038,0.005 1.48089,0.1998 3.1311,0.74921 4.6594,1.55128 0.99774,0.52362 1.54132,0.90106 2.54258,1.76547 1.3113,1.13209 1.97085,1.9124 2.82071,3.33721 1.31688,2.20776 1.8668,4.24276 1.88023,6.95785 0.004,0.78935 -0.0153,1.66703 -0.0427,1.95038 l -0.0498,0.5152 4.151458,2.72318 c 2.28331,1.49774 4.223,2.77648 4.31044,2.84163 0.15671,0.11679 0.15705,0.12171 0.0238,0.34734 -0.0744,0.12588 -0.12038,0.24281 -0.10226,0.25985 0.0181,0.017 4.22257,2.77116 9.34324,6.12028 5.12068,3.34913 9.33525,6.11172 9.3657,6.13909 0.0506,0.0455 0.37405,4.86275 0.32952,4.90727 -0.0106,0.0106 -1.09516,0.40198 -2.41008,0.86969 l -2.39078,0.85039 -6.52887,-4.35137 -6.52889,-4.35137 -0.43793,0.37939 -0.43793,0.37939 -0.0486,-0.64544 c -0.0267,-0.355 -0.0621,-0.6876 -0.0787,-0.73912 -0.0769,-0.2397 -0.27559,-0.15577 -0.91455,0.38633 -0.43681,0.3706 -0.6772,0.53085 -0.70048,0.46698 -0.0195,-0.0535 -0.0442,-0.45443 -0.0549,-0.89099 l -0.0195,-0.79374 -0.25759,0.22036 c -0.14168,0.12119 -0.28105,0.2217 -0.3097,0.22334 -0.0287,0.002 -0.0618,-0.24504 -0.0736,-0.54819 l -0.0215,-0.55118 -0.85443,0.72809 -0.85443,0.7281 -0.0467,-0.60011 c -0.0257,-0.33006 -0.0469,-0.95719 -0.0472,-1.39362 0,-0.64621 -0.0215,-0.80157 -0.11375,-0.83698 -0.0777,-0.0298 -0.33529,0.19183 -0.81982,0.70546 -0.45872,0.48626 -0.74402,0.73454 -0.81349,0.70788 -0.0588,-0.0226 -1.961798,-1.21666 -4.228818,-2.65353 -2.26701,-1.43686 -4.14915,-2.61248 -4.18252,-2.61248 -0.0334,0 -0.33656,0.17149 -0.67373,0.38109 -1.3689,0.85098 -3.03423,1.50312 -4.69779,1.83967 -0.74189,0.15008 -1.05086,0.17075 -2.50238,0.16743 -1.50382,-0.003 -1.74066,-0.0218 -2.57755,-0.19942 -2.21337,-0.46982 -4.18886,-1.35425 -5.84957,-2.61886 -0.78813,-0.60015 -2.29782,-2.13915 -2.75063,-2.80403 -1.31163,-1.92593 -1.89393,-3.23212 -2.29268,-5.14282 -0.1125,-0.53912 -0.22169,-0.99735 -0.24263,-1.01829 -0.0209,-0.0209 -0.5624,0.0774 -1.20324,0.21845 -2.915,0.64177 -4.80441,0.85769 -8.09474,0.92503 l -2.21921,0.0454 2.4567,6.83332 c 2.35174,6.54138 2.45218,6.84204 2.35095,7.0378 -0.0582,0.11248 -0.0871,0.22314 -0.0643,0.24593 0.0228,0.0228 -0.83001,1.58506 -1.89511,3.47171 l -1.93654,3.43029 -0.39909,-0.0216 -0.3991,-0.0216 -0.5239,-1.341 c -0.28815,-0.73755 -0.54265,-1.34198 -0.56556,-1.34319 -0.0229,-0.001 -2.47125,4.2951 -5.44075,9.54734 -2.9695,5.25223 -5.86247,10.36701 -6.42882,11.36617 -0.85233,1.50368 -1.06251,1.82444 -1.22,1.86187 -0.10464,0.0249 -0.23994,0.0578 -0.30066,0.0731 -0.0607,0.0153 -8.30753,-4.61474 -18.32625,-10.28901 z m 20.78877,-31.36858 c 0.23797,-0.062 0.6328,-0.2193 0.87741,-0.34959 0.45975,-0.2449 1.29709,-0.96155 1.2965,-1.10963 -2.2e-4,-0.0462 -0.31324,-0.24328 -0.69569,-0.43787 -2.45861,-1.25095 -3.79692,-3.00206 -3.82114,-4.99975 -0.008,-0.6814 -0.016,-0.71455 -0.15615,-0.67136 -0.56456,0.174 -1.46306,0.92703 -1.87841,1.57429 -1.0036,1.56398 -0.73156,3.71867 0.63482,5.02797 0.39525,0.37874 1.03757,0.74574 1.64606,0.94049 0.51464,0.16472 1.51527,0.17687 2.0966,0.0255 z m 15.09093,-1.80279 c 2.53624,-0.12353 4.74183,-0.41329 6.98555,-0.91773 1.30558,-0.29353 1.17527,-0.16889 1.28124,-1.22548 0.16678,-1.66291 0.56007,-3.05564 1.29597,-4.58923 0.71925,-1.49893 1.22372,-2.26011 2.26566,-3.41859 0.27471,-0.30544 0.49948,-0.57324 0.49948,-0.59511 0,-0.053 -1.28641,-0.46779 -2.02398,-0.65258 -0.91522,-0.22931 -2.46782,-0.50077 -3.67997,-0.64342 -1.38909,-0.16346 -5.59637,-0.18612 -7.06554,-0.038 -2.38189,0.24006 -4.78835,0.66604 -6.46129,1.14375 -0.47724,0.13627 -0.8831,0.26315 -0.90189,0.28194 -0.0188,0.0188 0.8222,2.41589 1.86887,5.32688 l 1.90303,5.29272 0.91245,0.0403 c 0.50184,0.0222 1.06148,0.0469 1.24364,0.0551 0.18216,0.008 1.02671,-0.0191 1.87678,-0.0605 z m -12.10709,-2.25065 c 0,-0.8985 -0.50337,-2.00252 -1.21769,-2.67073 -0.42216,-0.39491 -1.38071,-0.96467 -1.62294,-0.96467 -0.1409,0 -0.27327,0.56896 -0.22104,0.95006 0.0989,0.72176 0.57046,1.41635 1.38921,2.04636 0.43322,0.33335 1.49802,0.97795 1.61548,0.97795 0.0313,0 0.057,-0.15254 0.057,-0.33897 z m 29.48066,0.0439 c 1.77423,-0.59986 2.63245,-2.81618 1.7097,-4.41525 l -0.23359,-0.4048 -0.0596,0.3312 c -0.15651,0.87052 -0.23392,1.13201 -0.49371,1.6677 -0.43927,0.90579 -1.08531,1.68509 -2.04935,2.47206 -0.253,0.20653 -0.46,0.40284 -0.46,0.43625 0,0.12582 1.14215,0.0631 1.5865,-0.0872 z m -2.68083,-2.03275 c 1.35145,-1.03323 2.03998,-2.35623 1.73786,-3.33929 -0.0969,-0.31548 -0.11373,-0.3302 -0.35347,-0.31013 -0.37571,0.0314 -0.97246,0.33129 -1.34768,0.67716 -0.89755,0.82734 -1.28056,2.08477 -0.96187,3.1579 l 0.11489,0.38688 0.19791,-0.12783 c 0.10885,-0.0703 0.38441,-0.27042 0.61236,-0.44469 z"
       id="path1392"
       inkscape:connector-curvature="0" />
  </g>
</svg>
