<svg xmlns="http://www.w3.org/2000/svg" width="128" height="128" viewBox="0 0 128 128">
  <title>PILLS</title>
  <path d="M96.17,66.56H72.555L84.037,55.077a20.774,20.774,0,0,0,0-29.344l-.4-.4a20.749,20.749,0,0,0-29.345,0l-18.86,18.86-18.39,18.39a20.748,20.748,0,0,0,0,29.344,19.433,19.433,0,0,0,7.884,5.191A20.779,20.779,0,0,0,43.49,108.63H96.17a20.774,20.774,0,0,0,20.75-20.75V87.3A20.769,20.769,0,0,0,96.17,66.56Zm-39.4-38.753a17.27,17.27,0,0,1,24.394,0l.4.4a17.269,17.269,0,0,1,0,24.395L67.605,66.56h-7.34L39.144,45.43ZM19.518,89.453a17.25,17.25,0,0,1,0-24.4L36.669,47.905,55.316,66.56H43.49A20.769,20.769,0,0,0,22.74,87.3a21.539,21.539,0,0,0,.508,5.15A17.871,17.871,0,0,1,19.518,89.453Zm8.254,5.531A17.555,17.555,0,0,1,26.24,87.3,17.264,17.264,0,0,1,43.49,70.06H67.74v35.07H43.49A17.282,17.282,0,0,1,27.772,94.984Zm85.648-7.1a17.269,17.269,0,0,1-17.25,17.25H71.24V70.06H96.17A17.264,17.264,0,0,1,113.42,87.3Z"/>
</svg>
