<?xml version="1.0" encoding="UTF-8"?>
<!DOCTYPE svg PUBLIC "-//W3C//DTD SVG 1.1//EN" "http://www.w3.org/Graphics/SVG/1.1/DTD/svg11.dtd">
<svg version="1.1" xmlns="http://www.w3.org/2000/svg" xmlns:xlink="http://www.w3.org/1999/xlink" x="0" y="0" width="620" height="366" viewBox="0, 0, 620, 366">
  <g id="Layer_1">
    <path d="M356.865,35.646 L409.063,41.468 L408.139,52.959 L355.941,47.137 L356.865,35.646" fill="#F3B528"/>
    <path d="M309.674,364.134 C480.235,364.134 619.347,324.124 619.347,275.067 C619.347,226.009 480.235,185.999 309.674,185.999 C139.111,185.999 0,226.009 0,275.067 C0,324.124 139.111,364.134 309.674,364.134" fill="#B3CF38"/>
    <path d="M563.236,260.358 C563.236,300.635 449.712,333.288 309.674,333.288 C169.633,333.288 56.109,300.635 56.109,260.358 L56.109,129.206 L563.236,129.206 L563.236,260.358" fill="#3899B8"/>
    <path d="M75.072,288.068 C71.248,285.391 67.961,282.636 65.248,279.812 L65.248,156.479 C65.248,153.28 67.451,150.688 70.167,150.688 C72.884,150.688 75.087,153.28 75.087,156.479 L75.087,287.63 C75.087,287.777 75.082,287.922 75.072,288.068 z M135.484,313.352 C132.115,312.435 128.834,311.495 125.645,310.525 L125.645,186.508 C125.645,183.311 127.848,180.717 130.564,180.717 C133.281,180.717 135.484,183.311 135.484,186.508 L135.484,313.352 z M222.547,328.868 C219.231,328.518 215.955,328.145 212.706,327.758 L212.706,204.282 C212.706,201.084 214.91,198.491 217.627,198.491 C220.344,198.491 222.547,201.084 222.547,204.282 L222.547,328.868 z M320.32,333.219 C317.055,333.257 313.776,333.281 310.48,333.284 L310.48,210.41 C310.48,207.211 312.684,204.619 315.4,204.619 C318.117,204.619 320.32,207.211 320.32,210.41 L320.32,333.219 z M418.075,326.301 C414.83,326.742 411.554,327.168 408.235,327.573 L408.235,204.282 C408.235,201.084 410.438,198.491 413.155,198.491 C415.872,198.491 418.075,201.084 418.075,204.282 L418.075,326.301 z M505.138,306.814 C501.97,307.917 498.681,308.987 495.297,310.034 L495.297,186.508 C495.297,183.311 497.501,180.717 500.218,180.717 C502.935,180.717 505.138,183.311 505.138,186.508 L505.138,306.814 z M563.236,260.358 C563.236,266.465 560.611,272.395 555.695,278.064 L555.695,156.479 C555.695,153.28 557.897,150.688 560.614,150.688 C561.579,150.688 562.477,151.014 563.236,151.579 L563.236,260.358" fill="#2586A6"/>
    <path d="M563.236,260.358 C563.236,300.635 449.712,333.288 309.674,333.288 C250.742,333.288 196.51,327.504 153.457,317.805 C240.121,328.657 320.396,323.796 395.932,304.996 C457.444,289.686 459.017,222.687 399.978,221.582 C357.028,220.777 302.192,213.691 276.074,201.501 L334.447,129.206 L563.236,129.206 L563.236,260.358" fill="#2B8DAD"/>
    <path d="M320.32,213.917 C316.961,213.309 313.675,212.667 310.48,211.991 L310.48,210.41 C310.48,207.211 312.684,204.619 315.4,204.619 C318.117,204.619 320.32,207.211 320.32,210.41 L320.32,213.917 z M418.075,224.455 C415.063,223.463 411.786,222.704 408.235,222.213 L408.235,204.282 C408.235,201.084 410.438,198.491 413.155,198.491 C415.872,198.491 418.075,201.084 418.075,204.282 L418.075,224.455 z M222.547,328.868 C219.235,328.518 215.954,328.149 212.706,327.762 L212.706,322.838 C215.996,322.983 219.275,323.101 222.547,323.2 L222.547,328.868 z M320.32,333.219 C317.055,333.257 313.776,333.281 310.48,333.284 L310.48,320.003 C313.77,319.659 317.05,319.292 320.32,318.898 L320.32,333.219 z M418.075,326.301 C414.83,326.742 411.554,327.168 408.235,327.573 L408.235,300.938 C411.782,299.455 415.067,297.782 418.075,295.945 L418.075,326.301 z M505.138,306.814 C501.97,307.917 498.681,308.987 495.297,310.034 L495.297,186.508 C495.297,183.311 497.501,180.717 500.218,180.717 C502.935,180.717 505.138,183.311 505.138,186.508 L505.138,306.814 z M563.236,260.358 C563.236,266.465 560.611,272.395 555.695,278.064 L555.695,156.479 C555.695,153.28 557.897,150.688 560.614,150.688 C561.579,150.688 562.477,151.014 563.236,151.579 L563.236,260.358" fill="#217897"/>
    <path d="M563.236,260.358 C563.236,289.307 504.59,314.319 419.604,326.096 L419.604,326.094 C463.874,317.003 502.168,301.713 528.362,273.876 C538.75,262.835 544.104,248.656 544.104,232.181 C544.104,225.742 544.104,219.302 544.104,212.864 C544.104,205.129 541.493,198.474 536.491,193.46 C531.489,188.446 525.491,186.472 519.005,187.704 C496.479,191.981 474.415,192.54 452.813,189.413 L488.918,129.206 L563.236,129.206 L563.236,260.358" fill="#28819F"/>
    <path d="M505.138,189.874 C501.848,190.278 498.566,190.602 495.297,190.845 L495.297,186.508 C495.297,183.311 497.501,180.717 500.218,180.717 C502.935,180.717 505.138,183.311 505.138,186.508 L505.138,189.874 z M505.138,306.817 C501.969,307.918 498.682,308.992 495.297,310.038 L495.297,299.56 C498.675,297.629 501.958,295.597 505.138,293.458 L505.138,306.817 z M563.236,260.358 C563.236,266.467 560.616,272.4 555.695,278.072 L555.695,156.479 C555.695,153.28 557.897,150.688 560.614,150.688 C561.579,150.688 562.477,151.014 563.236,151.579 L563.236,260.358" fill="#20718D"/>
    <path d="M309.674,202.135 C449.331,202.135 563.236,169.375 563.236,129.206 C563.236,89.038 449.331,56.276 309.674,56.276 C170.016,56.276 56.109,89.038 56.109,129.206 C56.109,169.375 170.016,202.135 309.674,202.135" fill="#3899B8"/>
    <path d="M336.489,56.683 C339.788,56.783 343.067,56.902 346.328,57.039 L346.328,79.917 L390.312,82.521 L390.312,60.044 C393.624,60.364 396.9,60.705 400.15,61.062 L400.15,106.138 C400.15,109.999 390.312,109.999 390.312,106.138 L390.312,94.115 L346.328,91.511 L346.328,100.254 C346.328,104.115 336.489,104.115 336.489,100.254 L336.489,56.683" fill="#2D85A1"/>
    <path d="M309.674,195.397 C446.179,195.397 557.511,165.664 557.511,129.206 C557.511,92.749 446.179,63.016 309.674,63.016 C173.168,63.016 61.835,92.749 61.835,129.206 C61.835,165.664 173.168,195.397 309.674,195.397" fill="#62B3C9"/>
    <path d="M336.489,63.402 C339.788,63.497 343.069,63.609 346.328,63.738 L346.328,79.917 L390.312,82.521 L390.312,66.602 C393.622,66.906 396.905,67.227 400.15,67.566 L400.15,106.138 C400.15,109.999 390.312,109.999 390.312,106.138 L390.312,94.115 L346.328,91.511 L346.328,100.254 C346.328,104.115 336.489,104.115 336.489,100.254 L336.489,63.402" fill="#3899B8"/>
    <path d="M552.36,142.69 C529.042,172.78 429.25,195.397 309.674,195.397 C190.097,195.397 90.304,172.78 66.986,142.69 C90.304,112.6 190.097,89.982 309.674,89.982 C429.25,89.982 529.042,112.6 552.36,142.69" fill="#7CCBE5"/>
    <path d="M552.36,142.69 C529.042,172.78 429.25,195.397 309.674,195.397 C255.068,195.397 204.595,190.678 163.642,182.689 C147.74,173.955 138.812,164.148 138.812,153.783 C138.812,123.422 215.354,97.838 319.709,90.038 C434.799,91.262 529.698,113.446 552.36,142.69" fill="#A3D8E9"/>
    <path d="M398.956,179.64 C460.268,179.64 510.276,166.285 510.276,149.909 C510.276,133.534 460.268,120.179 398.956,120.179 C337.643,120.179 287.633,133.534 287.633,149.909 C287.633,166.285 337.643,179.64 398.956,179.64" fill="#BCE2EC"/>
    <path d="M343.044,96.773 L346.173,90.697 L335.807,89.679 L343.044,96.773 z M397.027,101.848 L400.15,94.534 L389.785,93.517 L397.027,101.848" fill="#7CCBE5"/>
    <path d="M129.756,309.386 C129.756,312.583 127.553,315.176 124.837,315.176 C122.121,315.176 119.917,312.583 119.917,309.386 L119.917,178.234 C119.917,175.037 122.121,172.445 124.837,172.445 C127.553,172.445 129.756,175.037 129.756,178.234 L129.756,309.386 z M216.818,327.159 C216.818,330.357 214.615,332.95 211.899,332.95 C209.183,332.95 206.979,330.357 206.979,327.159 L206.979,196.008 C206.979,192.81 209.183,190.216 211.899,190.216 C214.615,190.216 216.818,192.81 216.818,196.008 L216.818,327.159 z M314.592,333.288 C314.592,336.484 312.389,339.077 309.674,339.077 C306.956,339.077 304.753,336.484 304.753,333.288 L304.753,202.135 C304.753,198.938 306.956,196.345 309.674,196.345 C312.389,196.345 314.592,198.938 314.592,202.135 L314.592,333.288 z M402.508,327.159 C402.508,330.357 404.712,332.95 407.429,332.95 C410.144,332.95 412.347,330.357 412.347,327.159 L412.347,196.008 C412.347,192.81 410.144,190.216 407.429,190.216 C404.712,190.216 402.508,192.81 402.508,196.008 L402.508,327.159 z M489.57,309.386 C489.57,312.583 491.773,315.176 494.49,315.176 C497.207,315.176 499.409,312.583 499.409,309.386 L499.409,178.234 C499.409,175.037 497.207,172.445 494.49,172.445 C491.773,172.445 489.57,175.037 489.57,178.234 L489.57,309.386 z M549.967,279.356 C549.967,282.554 552.171,285.147 554.888,285.147 C557.604,285.147 559.808,282.554 559.808,279.356 L559.808,148.205 C559.808,145.007 557.604,142.414 554.888,142.414 C552.171,142.414 549.967,145.007 549.967,148.205 L549.967,279.356 z M69.359,279.356 C69.359,282.554 67.156,285.147 64.44,285.147 C61.723,285.147 59.52,282.554 59.52,279.356 L59.52,148.205 C59.52,145.007 61.723,142.414 64.44,142.414 C67.156,142.414 69.359,145.007 69.359,148.205 L69.359,279.356" fill="#FFFFFE"/>
    <path d="M343.205,75.626 L387.187,78.23 L387.187,34.208 C387.187,22.613 390.182,14.841 394.012,11.152 C395.998,9.241 398.254,8.282 400.593,8.28 C402.932,8.28 405.188,9.235 407.174,11.148 C410.998,14.833 413.986,22.597 413.986,34.208 L413.986,62.715 L404.146,61.507 L404.146,34.208 C404.146,26.451 402.744,21.835 400.949,20.106 C400.749,19.914 400.629,19.817 400.593,19.817 C400.561,19.817 400.44,19.915 400.239,20.109 C398.436,21.845 397.027,26.466 397.027,34.208 L397.027,101.848 C397.027,105.708 387.187,105.709 387.187,101.848 L387.187,89.824 L343.205,87.221 L343.205,95.964 C343.205,99.824 333.364,99.825 333.364,95.964 L333.364,28.324 C333.364,16.729 336.359,8.957 340.189,5.268 C342.176,3.356 344.432,2.398 346.772,2.396 C349.109,2.396 351.365,3.35 353.352,5.265 C357.176,8.948 360.164,16.712 360.164,28.324 L360.164,57.723 L350.323,57.209 L350.323,28.324 C350.323,20.567 348.922,15.952 347.127,14.221 C346.927,14.03 346.807,13.933 346.772,13.933 C346.738,13.933 346.618,14.031 346.416,14.226 C344.615,15.961 343.205,20.582 343.205,28.324 L343.205,75.626" fill="#F8C823"/>
  </g>
</svg>
