<?xml version="1.0" encoding="UTF-8"?>
<!DOCTYPE svg PUBLIC "-//W3C//DTD SVG 1.1//EN" "http://www.w3.org/Graphics/SVG/1.1/DTD/svg11.dtd">
<svg version="1.1" xmlns="http://www.w3.org/2000/svg" xmlns:xlink="http://www.w3.org/1999/xlink" x="0" y="0" width="515" height="455" viewBox="0, 0, 515, 455">
  <g id="Layer_1">
    <g>
      <path d="M376.32,64.656 C375.07,49.961 365.891,17.312 345.937,16.555 C317.117,15.508 272.625,62.484 272.625,62.484 L230.234,67.992 L225.867,123.735 L321.336,170.125 L376.32,64.656 z" fill="#B4B5B4"/>
      <path d="M376.32,64.656 C375.07,49.961 365.891,17.312 345.937,16.555 C317.117,15.508 272.625,62.484 272.625,62.484 L230.234,67.992 L225.867,123.735 L321.336,170.125 L376.32,64.656 z" fill-opacity="0" stroke="#1A1919" stroke-width="2.5" stroke-linecap="round" stroke-linejoin="round"/>
    </g>
    <g>
      <path d="M185.359,66.062 L213.156,5.227 C213.156,5.227 272.977,7.594 279.227,34.461 C283.25,51.789 240.969,106.547 240.969,106.547 L150.43,233.539 L91.102,225.445 L88.516,192.594 L153.609,116.836 L185.359,66.062 z" fill="#FFFFFE"/>
      <path d="M185.359,66.062 L213.156,5.227 C213.156,5.227 272.977,7.594 279.227,34.461 C283.25,51.789 240.969,106.547 240.969,106.547 L150.43,233.539 L91.102,225.445 L88.516,192.594 L153.609,116.836 L185.359,66.062 z" fill-opacity="0" stroke="#1A1919" stroke-width="2.5" stroke-linecap="round" stroke-linejoin="round"/>
    </g>
    <g>
      <path d="M4.437,276.648 C3.266,287.953 27.664,330.984 60.047,337.274 C92.609,343.617 175.938,322.75 202.289,304.391 C218.203,293.336 238.875,255.055 258.25,246.68 C277.641,238.289 357.43,197.227 374.133,174.867 C390.852,152.476 376.148,118.086 376.148,118.086 L242.172,220.562 L77.516,273.789 L4.437,276.648 z" fill="#9F9292"/>
      <path d="M4.437,276.648 C3.266,287.953 27.664,330.984 60.047,337.274 C92.609,343.617 175.938,322.75 202.289,304.391 C218.203,293.336 238.875,255.055 258.25,246.68 C277.641,238.289 357.43,197.227 374.133,174.867 C390.852,152.476 376.148,118.086 376.148,118.086 L242.172,220.562 L77.516,273.789 L4.437,276.648 z" fill-opacity="0" stroke="#1A1919" stroke-width="2.5" stroke-linecap="round" stroke-linejoin="round"/>
    </g>
    <g>
      <path d="M367.898,37.164 C340.937,81.992 306.594,106.039 288.547,100.57 C287.602,100.274 286.68,99.82 285.75,99.492 C280.094,111.992 272.977,126.805 270.539,127.883 C266.25,129.781 249.672,120.688 246.312,123.656 C242.969,126.601 163.414,242.336 135.297,250.125 C107.258,257.859 65.984,209.906 61.859,201.453 C60.906,199.477 62.297,195.555 64.922,190.711 C31.93,219.867 -1.492,255.125 5.258,273.586 C18.031,308.555 71.883,324.477 140.617,303.719 C210.023,282.789 212.273,243.531 233.367,232.125 C254.516,220.719 358.352,175.664 370.164,149.359 C381.977,123.086 383.469,49.242 367.898,37.164 z" fill="#FFFFFF"/>
      <path d="M367.898,37.164 C340.937,81.992 306.594,106.039 288.547,100.57 C287.602,100.274 286.68,99.82 285.75,99.492 C280.094,111.992 272.977,126.805 270.539,127.883 C266.25,129.781 249.672,120.688 246.312,123.656 C242.969,126.601 163.414,242.336 135.297,250.125 C107.258,257.859 65.984,209.906 61.859,201.453 C60.906,199.477 62.297,195.555 64.922,190.711 C31.93,219.867 -1.492,255.125 5.258,273.586 C18.031,308.555 71.883,324.477 140.617,303.719 C210.023,282.789 212.273,243.531 233.367,232.125 C254.516,220.719 358.352,175.664 370.164,149.359 C381.977,123.086 383.469,49.242 367.898,37.164 z" fill-opacity="0" stroke="#1A1919" stroke-width="2.5" stroke-linecap="round" stroke-linejoin="round"/>
    </g>
    <g>
      <path d="M199.656,185.617 L259.375,219.352 C267.844,215.258 277.453,210.555 287.484,205.492 L216.281,164.047 C211.062,170.961 205.453,178.258 199.656,185.617 z" fill="#FFFFFF"/>
      <path d="M199.656,185.617 L259.375,219.352 C267.844,215.258 277.453,210.555 287.484,205.492 L216.281,164.047 C211.062,170.961 205.453,178.258 199.656,185.617 z" fill-opacity="0" stroke="#1A1919" stroke-width="2.5" stroke-linecap="round" stroke-linejoin="round"/>
    </g>
    <g>
      <path d="M135.297,250.125 C107.258,257.859 65.984,209.906 61.859,201.453 C60.906,199.477 62.297,195.555 64.922,190.711 C31.93,219.867 -1.492,255.125 5.258,273.586 C18.031,308.555 71.883,324.477 140.617,303.719 C210.023,282.789 212.273,243.531 233.367,232.125 C234.281,231.648 235.547,231.008 236.75,230.406 L184.641,204.149 C165.414,227.203 146.359,247.047 135.297,250.125 z" fill="#FFFFFF"/>
      <path d="M135.297,250.125 C107.258,257.859 65.984,209.906 61.859,201.453 C60.906,199.477 62.297,195.555 64.922,190.711 C31.93,219.867 -1.492,255.125 5.258,273.586 C18.031,308.555 71.883,324.477 140.617,303.719 C210.023,282.789 212.273,243.531 233.367,232.125 C234.281,231.648 235.547,231.008 236.75,230.406 L184.641,204.149 C165.414,227.203 146.359,247.047 135.297,250.125 z" fill-opacity="0" stroke="#1A1919" stroke-width="2.5" stroke-linecap="round" stroke-linejoin="round"/>
    </g>
    <g>
      <path d="M184.641,204.149 L236.75,230.406 C242.039,227.711 249.922,223.922 259.375,219.352 L199.656,185.617 C194.734,191.867 189.68,198.086 184.641,204.149 z" fill="#AB2430"/>
      <path d="M184.641,204.149 L236.75,230.406 C242.039,227.711 249.922,223.922 259.375,219.352 L199.656,185.617 C194.734,191.867 189.68,198.086 184.641,204.149 z" fill-opacity="0" stroke="#1A1919" stroke-width="2.5" stroke-linecap="round" stroke-linejoin="round"/>
    </g>
    <g>
      <path d="M216.281,164.047 L287.484,205.492 C294.641,201.899 301.898,198.109 309.109,194.211 L230.594,144.812 C226.398,150.516 221.555,157.023 216.281,164.047 z" fill="#AB2430"/>
      <path d="M216.281,164.047 L287.484,205.492 C294.641,201.899 301.898,198.109 309.109,194.211 L230.594,144.812 C226.398,150.516 221.555,157.023 216.281,164.047 z" fill-opacity="0" stroke="#1A1919" stroke-width="2.5" stroke-linecap="round" stroke-linejoin="round"/>
    </g>
    <g>
      <path d="M61.859,201.453 C65.984,209.906 107.258,257.859 135.297,250.125 C163.414,242.336 241.766,139.039 245.125,136.07 C248.484,133.102 265.062,142.242 269.359,140.359 C271.805,139.258 280.094,111.992 285.75,99.492 C268.992,93.141 254.695,77.383 242.992,78.336 C230.648,79.367 147.484,208.649 131.336,218.664 C115.211,228.664 87.398,200.742 89.516,194.648 C91.641,188.555 142.117,150.82 150.703,140.399 C159.305,129.945 197.461,65.602 197.461,65.602 C197.461,65.602 187.844,62.211 176.164,66.258 C158.961,72.195 149.555,106.266 123.211,143.711 C123.211,143.711 94.227,164.813 64.922,190.711 C62.297,195.555 60.906,199.477 61.859,201.453 z" fill="#FFFFFF"/>
      <path d="M61.859,201.453 C65.984,209.906 107.258,257.859 135.297,250.125 C163.414,242.336 241.766,139.039 245.125,136.07 C248.484,133.102 265.062,142.242 269.359,140.359 C271.805,139.258 280.094,111.992 285.75,99.492 C268.992,93.141 254.695,77.383 242.992,78.336 C230.648,79.367 147.484,208.649 131.336,218.664 C115.211,228.664 87.398,200.742 89.516,194.648 C91.641,188.555 142.117,150.82 150.703,140.399 C159.305,129.945 197.461,65.602 197.461,65.602 C197.461,65.602 187.844,62.211 176.164,66.258 C158.961,72.195 149.555,106.266 123.211,143.711 C123.211,143.711 94.227,164.813 64.922,190.711 C62.297,195.555 60.906,199.477 61.859,201.453 z" fill-opacity="0" stroke="#1A1919" stroke-width="2.5" stroke-linecap="round" stroke-linejoin="round"/>
    </g>
    <g>
      <path d="M141.203,222.797 C139.859,205.063 106.336,184.867 92.172,184.898 C90.836,184.813 89.773,184.914 89.172,185.086 L89.18,185.101 C85.906,185.883 82.781,183.82 82.172,180.516 C81.586,177.211 83.734,173.875 87,173.094 C89.109,172.562 91.234,172.469 93.406,172.555 C113.352,174.32 148.031,192.555 153.227,220.438 C153.695,223.797 151.383,227.07 148.102,227.719 C147.586,227.82 147.094,227.859 146.594,227.82 C143.875,227.68 141.602,225.648 141.203,222.797 z" fill="#FFFFFF"/>
      <path d="M141.203,222.797 C139.859,205.063 106.336,184.867 92.172,184.898 C90.836,184.813 89.773,184.914 89.172,185.086 L89.18,185.101 C85.906,185.883 82.781,183.82 82.172,180.516 C81.586,177.211 83.734,173.875 87,173.094 C89.109,172.562 91.234,172.469 93.406,172.555 C113.352,174.32 148.031,192.555 153.227,220.438 C153.695,223.797 151.383,227.07 148.102,227.719 C147.586,227.82 147.094,227.859 146.594,227.82 C143.875,227.68 141.602,225.648 141.203,222.797 z" fill-opacity="0" stroke="#1A1919" stroke-width="2.5" stroke-linecap="round" stroke-linejoin="round"/>
    </g>
    <g>
      <path d="M162.445,172.25 C162.422,172.25 156.641,170.133 149.344,167.906 C142.016,165.719 133.156,163.445 127.141,163.187 C124.555,163.008 122.641,163.453 122.641,163.531 C119.594,165.047 116.031,163.797 114.719,160.726 C113.43,157.672 114.82,153.961 117.898,152.445 C121.445,150.797 124.766,150.711 128.383,150.836 C143.836,151.726 166.859,160.539 167.156,160.602 C170.242,161.758 171.703,165.328 170.398,168.539 C169.328,171.156 166.781,172.75 164.188,172.617 C163.617,172.586 163.016,172.461 162.445,172.25 z" fill="#FFFFFF"/>
      <path d="M162.445,172.25 C162.422,172.25 156.641,170.133 149.344,167.906 C142.016,165.719 133.156,163.445 127.141,163.187 C124.555,163.008 122.641,163.453 122.641,163.531 C119.594,165.047 116.031,163.797 114.719,160.726 C113.43,157.672 114.82,153.961 117.898,152.445 C121.445,150.797 124.766,150.711 128.383,150.836 C143.836,151.726 166.859,160.539 167.156,160.602 C170.242,161.758 171.703,165.328 170.398,168.539 C169.328,171.156 166.781,172.75 164.188,172.617 C163.617,172.586 163.016,172.461 162.445,172.25 z" fill-opacity="0" stroke="#1A1919" stroke-width="2.5" stroke-linecap="round" stroke-linejoin="round"/>
    </g>
    <g>
      <path d="M161.711,198.149 C161.68,191.008 157.586,176.578 153.391,164.742 C149.25,152.82 145.133,143.101 145.133,143.101 C143.836,140.016 145.266,136.312 148.344,134.828 C151.406,133.32 154.984,134.586 156.273,137.648 C156.328,138.117 173.273,176.922 173.875,197.328 L173.875,197.352 C173.953,200.758 171.258,203.727 167.906,203.945 C167.656,203.977 167.422,203.969 167.195,203.945 C164.156,203.805 161.758,201.313 161.711,198.149 z" fill="#FFFFFF"/>
      <path d="M161.711,198.149 C161.68,191.008 157.586,176.578 153.391,164.742 C149.25,152.82 145.133,143.101 145.133,143.101 C143.836,140.016 145.266,136.312 148.344,134.828 C151.406,133.32 154.984,134.586 156.273,137.648 C156.328,138.117 173.273,176.922 173.875,197.328 L173.875,197.352 C173.953,200.758 171.258,203.727 167.906,203.945 C167.656,203.977 167.422,203.969 167.195,203.945 C164.156,203.805 161.758,201.313 161.711,198.149 z" fill-opacity="0" stroke="#1A1919" stroke-width="2.5" stroke-linecap="round" stroke-linejoin="round"/>
    </g>
    <g>
      <path d="M189.781,134.992 C185.906,132.953 171.773,127.414 160.648,126.992 C155.477,126.711 151.187,127.625 148.898,129.211 L148.891,129.234 C146.023,131.156 142.313,130.453 140.594,127.617 C138.852,124.789 139.789,120.945 142.625,119.031 C148.547,115.102 155.336,114.383 161.859,114.656 C176.016,115.367 190.312,121.195 195.711,123.852 C198.656,125.383 199.719,129.086 198.055,132.156 C196.852,134.461 194.477,135.75 192.133,135.617 C191.328,135.586 190.531,135.375 189.781,134.992 z" fill="#FFFFFF"/>
      <path d="M189.781,134.992 C185.906,132.953 171.773,127.414 160.648,126.992 C155.477,126.711 151.187,127.625 148.898,129.211 L148.891,129.234 C146.023,131.156 142.313,130.453 140.594,127.617 C138.852,124.789 139.789,120.945 142.625,119.031 C148.547,115.102 155.336,114.383 161.859,114.656 C176.016,115.367 190.312,121.195 195.711,123.852 C198.656,125.383 199.719,129.086 198.055,132.156 C196.852,134.461 194.477,135.75 192.133,135.617 C191.328,135.586 190.531,135.375 189.781,134.992 z" fill-opacity="0" stroke="#1A1919" stroke-width="2.5" stroke-linecap="round" stroke-linejoin="round"/>
    </g>
    <g>
      <path d="M188.195,163.789 C186.469,161.781 186.312,158.883 187.625,156.625 C187.609,153.508 184.188,141.289 180.492,130.274 C176.641,117.789 172.445,106.695 172.891,98.539 C173.117,96.781 173.445,94.414 176.117,92.055 C178.789,89.883 182.586,90.242 184.594,92.828 C186.117,94.813 186.156,97.515 184.914,99.672 C184.984,102.883 188.383,114.945 192.047,125.851 C195.922,138.375 200.156,149.539 199.719,157.75 C199.516,159.352 199.227,161.687 196.789,164.078 C195.477,165.242 193.836,165.82 192.242,165.742 C190.719,165.648 189.258,165.015 188.195,163.789 z" fill="#FFFFFF"/>
      <path d="M188.195,163.789 C186.469,161.781 186.312,158.883 187.625,156.625 C187.609,153.508 184.188,141.289 180.492,130.274 C176.641,117.789 172.445,106.695 172.891,98.539 C173.117,96.781 173.445,94.414 176.117,92.055 C178.789,89.883 182.586,90.242 184.594,92.828 C186.117,94.813 186.156,97.515 184.914,99.672 C184.984,102.883 188.383,114.945 192.047,125.851 C195.922,138.375 200.156,149.539 199.719,157.75 C199.516,159.352 199.227,161.687 196.789,164.078 C195.477,165.242 193.836,165.82 192.242,165.742 C190.719,165.648 189.258,165.015 188.195,163.789 z" fill-opacity="0" stroke="#1A1919" stroke-width="2.5" stroke-linecap="round" stroke-linejoin="round"/>
    </g>
    <g>
      <path d="M209.797,131.992 C207.094,130.836 205.75,127.883 206.437,125.024 C206.352,124.656 206.117,124.055 205.766,123.266 C205.023,121.711 203.75,119.586 202.141,117.25 C198.914,112.555 194.359,106.93 189.758,101.602 C180.57,90.961 171.25,81.508 171.234,81.508 C168.93,79.156 169.023,75.273 171.453,72.789 C173.875,70.305 177.711,70.18 180.023,72.524 C180.125,72.672 201.414,94.07 212.273,109.82 C215.758,115.43 218.805,119.148 218.672,125.563 C218.586,126.422 218.422,127.406 217.93,128.531 C216.797,131.062 214.273,132.547 211.766,132.43 C211.102,132.398 210.437,132.258 209.797,131.992 z" fill="#FFFFFF"/>
      <path d="M209.797,131.992 C207.094,130.836 205.75,127.883 206.437,125.024 C206.352,124.656 206.117,124.055 205.766,123.266 C205.023,121.711 203.75,119.586 202.141,117.25 C198.914,112.555 194.359,106.93 189.758,101.602 C180.57,90.961 171.25,81.508 171.234,81.508 C168.93,79.156 169.023,75.273 171.453,72.789 C173.875,70.305 177.711,70.18 180.023,72.524 C180.125,72.672 201.414,94.07 212.273,109.82 C215.758,115.43 218.805,119.148 218.672,125.563 C218.586,126.422 218.422,127.406 217.93,128.531 C216.797,131.062 214.273,132.547 211.766,132.43 C211.102,132.398 210.437,132.258 209.797,131.992 z" fill-opacity="0" stroke="#1A1919" stroke-width="2.5" stroke-linecap="round" stroke-linejoin="round"/>
    </g>
    <g>
      <path d="M161.047,94.836 C160.32,91.57 162.367,88.164 165.625,87.195 C173.07,85.14 199.023,81.117 220.516,81.969 C231.477,82.664 241.094,83.64 247.562,90.047 C249.813,92.445 249.594,96.375 247.055,98.805 C244.539,101.219 240.648,101.164 238.383,98.758 C237.305,97.008 229.219,94.547 219.32,94.32 C200.031,93.414 173.234,97.555 168.297,99.07 C167.641,99.258 166.984,99.336 166.359,99.305 C163.836,99.187 161.648,97.445 161.047,94.836 z" fill="#FFFFFF"/>
      <path d="M161.047,94.836 C160.32,91.57 162.367,88.164 165.625,87.195 C173.07,85.14 199.023,81.117 220.516,81.969 C231.477,82.664 241.094,83.64 247.562,90.047 C249.813,92.445 249.594,96.375 247.055,98.805 C244.539,101.219 240.648,101.164 238.383,98.758 C237.305,97.008 229.219,94.547 219.32,94.32 C200.031,93.414 173.234,97.555 168.297,99.07 C167.641,99.258 166.984,99.336 166.359,99.305 C163.836,99.187 161.648,97.445 161.047,94.836 z" fill-opacity="0" stroke="#1A1919" stroke-width="2.5" stroke-linecap="round" stroke-linejoin="round"/>
    </g>
    <g>
      <path d="M379.039,99.469 C380.203,72.133 376.961,44.203 367.898,37.164 C353.219,61.555 336.406,79.539 321.148,90.258 C332.188,97.148 354.367,107.539 379.039,99.469 z" fill="#978C8A"/>
      <path d="M379.039,99.469 C380.203,72.133 376.961,44.203 367.898,37.164 C353.219,61.555 336.406,79.539 321.148,90.258 C332.188,97.148 354.367,107.539 379.039,99.469 z" fill-opacity="0" stroke="#1A1919" stroke-width="2.5" stroke-linecap="round" stroke-linejoin="round"/>
    </g>
    <g>
      <path d="M503.758,176.242 C502.453,160.984 492.945,126.601 472.227,124.711 C442.195,121.969 395.773,168.57 395.773,168.57 L351.117,172.07 L346.906,230.086 L447.031,282.469 L503.758,176.242 z" fill="#B4B5B4"/>
      <path d="M503.758,176.242 C502.453,160.984 492.945,126.601 472.227,124.711 C442.195,121.969 395.773,168.57 395.773,168.57 L351.117,172.07 L346.906,230.086 L447.031,282.469 L503.758,176.242 z" fill-opacity="0" stroke="#1A1919" stroke-width="2.5" stroke-linecap="round" stroke-linejoin="round"/>
    </g>
    <g>
      <path d="M303.484,167.648 L332.562,105.18 C332.562,105.18 395.875,111.164 402.57,139.656 C406.875,157.961 362.719,212.883 362.719,212.883 L267.953,341.039 L204.406,330.281 L201.18,295.805 L270.109,219.352 L303.484,167.648 z" fill="#FFFFFE"/>
      <path d="M303.484,167.648 L332.562,105.18 C332.562,105.18 395.875,111.164 402.57,139.656 C406.875,157.961 362.719,212.883 362.719,212.883 L267.953,341.039 L204.406,330.281 L201.18,295.805 L270.109,219.352 L303.484,167.648 z" fill-opacity="0" stroke="#1A1919" stroke-width="2.5" stroke-linecap="round" stroke-linejoin="round"/>
    </g>
    <g>
      <path d="M111.492,380.555 C110.414,392.359 137.609,438.07 172.609,445.602 C207.609,453.117 295.859,434.125 323.453,416.086 C340.078,405.242 361.492,366.601 381.687,358.695 C401.859,350.797 484.367,311.805 501.531,289.594 C518.695,267.383 503.602,231.383 503.602,231.383 L364.719,331.18 L190.469,380.195 L111.492,380.555 z" fill="#9F9292"/>
      <path d="M111.492,380.555 C110.414,392.359 137.609,438.07 172.609,445.602 C207.609,453.117 295.859,434.125 323.453,416.086 C340.078,405.242 361.492,366.601 381.687,358.695 C401.859,350.797 484.367,311.805 501.531,289.594 C518.695,267.383 503.602,231.383 503.602,231.383 L364.719,331.18 L190.469,380.195 L111.492,380.555 z" fill-opacity="0" stroke="#1A1919" stroke-width="2.5" stroke-linecap="round" stroke-linejoin="round"/>
    </g>
    <g>
      <path d="M495.031,147.32 C467.141,192.383 431.508,215.61 412.633,209.031 C411.641,208.688 410.68,208.172 409.695,207.75 C403.844,220.477 396.469,235.508 393.906,236.531 C389.422,238.289 371.977,228.031 368.461,230.961 C364.945,233.875 281.828,350.664 252,357.672 C222.156,364.68 177.133,312.992 172.547,303.953 C171.492,301.82 172.93,297.758 175.687,292.797 C140.398,322.047 104.648,357.758 112.328,377.391 C126.797,414.39 185.133,432.695 258.273,413.399 C331.406,394.125 333.469,353.758 355.555,342.781 C377.641,331.844 485.297,289.734 497.445,263.258 C509.594,236.789 511.125,160.688 495.031,147.32 z" fill="#FFFFFF"/>
      <path d="M495.031,147.32 C467.141,192.383 431.508,215.61 412.633,209.031 C411.641,208.688 410.68,208.172 409.695,207.75 C403.844,220.477 396.469,235.508 393.906,236.531 C389.422,238.289 371.977,228.031 368.461,230.961 C364.945,233.875 281.828,350.664 252,357.672 C222.156,364.68 177.133,312.992 172.547,303.953 C171.492,301.82 172.93,297.758 175.687,292.797 C140.398,322.047 104.648,357.758 112.328,377.391 C126.797,414.39 185.133,432.695 258.273,413.399 C331.406,394.125 333.469,353.758 355.555,342.781 C377.641,331.844 485.297,289.734 497.445,263.258 C509.594,236.789 511.125,160.688 495.031,147.32 z" fill-opacity="0" stroke="#1A1919" stroke-width="2.5" stroke-linecap="round" stroke-linejoin="round"/>
    </g>
    <g>
      <path d="M319.695,293.273 L382.719,330.617 C391.539,326.734 401.539,322.274 411.977,317.469 L337.078,271.57 C331.625,278.531 325.766,285.875 319.695,293.273 z" fill="#FFFFFF"/>
      <path d="M319.695,293.273 L382.719,330.617 C391.539,326.734 401.539,322.274 411.977,317.469 L337.078,271.57 C331.625,278.531 325.766,285.875 319.695,293.273 z" fill-opacity="0" stroke="#1A1919" stroke-width="2.5" stroke-linecap="round" stroke-linejoin="round"/>
    </g>
    <g>
      <path d="M252,357.672 C222.156,364.68 177.133,312.992 172.547,303.953 C171.492,301.82 172.93,297.758 175.687,292.797 C140.398,322.047 104.648,357.758 112.328,377.391 C126.797,414.39 185.133,432.695 258.273,413.399 C331.406,394.125 333.469,353.758 355.555,342.781 C356.508,342.32 357.828,341.703 359.094,341.109 L303.969,311.883 C283.797,335.055 263.766,354.906 252,357.672 z" fill="#FFFFFF"/>
      <path d="M252,357.672 C222.156,364.68 177.133,312.992 172.547,303.953 C171.492,301.82 172.93,297.758 175.687,292.797 C140.398,322.047 104.648,357.758 112.328,377.391 C126.797,414.39 185.133,432.695 258.273,413.399 C331.406,394.125 333.469,353.758 355.555,342.781 C356.508,342.32 357.828,341.703 359.094,341.109 L303.969,311.883 C283.797,335.055 263.766,354.906 252,357.672 z" fill-opacity="0" stroke="#1A1919" stroke-width="2.5" stroke-linecap="round" stroke-linejoin="round"/>
    </g>
    <g>
      <path d="M303.969,311.883 L359.094,341.109 C364.617,338.555 372.852,334.937 382.719,330.617 L319.695,293.273 C314.539,299.555 309.242,305.797 303.969,311.883 z" fill="#AB2430"/>
      <path d="M303.969,311.883 L359.094,341.109 C364.617,338.555 372.852,334.937 382.719,330.617 L319.695,293.273 C314.539,299.555 309.242,305.797 303.969,311.883 z" fill-opacity="0" stroke="#1A1919" stroke-width="2.5" stroke-linecap="round" stroke-linejoin="round"/>
    </g>
    <g>
      <path d="M337.078,271.57 L411.977,317.469 C419.398,314.047 426.938,310.453 434.422,306.758 L352.055,252.211 C347.656,257.977 342.602,264.516 337.078,271.57 z" fill="#AB2430"/>
      <path d="M337.078,271.57 L411.977,317.469 C419.398,314.047 426.938,310.453 434.422,306.758 L352.055,252.211 C347.656,257.977 342.602,264.516 337.078,271.57 z" fill-opacity="0" stroke="#1A1919" stroke-width="2.5" stroke-linecap="round" stroke-linejoin="round"/>
    </g>
    <g>
      <path d="M172.547,303.953 C177.133,312.992 222.156,364.68 252,357.672 C281.828,350.664 363.773,246.758 367.289,243.812 C370.805,240.899 388.25,251.141 392.734,249.39 C395.297,248.367 403.844,220.477 409.695,207.75 C392.117,200.32 377,183.149 364.672,183.563 C351.648,184 264.547,315.023 247.43,324.828 C230.312,334.602 200.094,304.274 202.289,297.984 C204.484,291.695 258.172,254.43 267.25,243.899 C276.312,233.375 316.359,167.805 316.359,167.805 C316.359,167.805 306.094,163.742 293.687,167.367 C275.359,172.719 265.641,208.07 237.844,246.078 C237.844,246.078 206.953,266.898 175.687,292.797 C172.93,297.758 171.492,301.82 172.547,303.953 z" fill="#FFFFFF"/>
      <path d="M172.547,303.953 C177.133,312.992 222.156,364.68 252,357.672 C281.828,350.664 363.773,246.758 367.289,243.812 C370.805,240.899 388.25,251.141 392.734,249.39 C395.297,248.367 403.844,220.477 409.695,207.75 C392.117,200.32 377,183.149 364.672,183.563 C351.648,184 264.547,315.023 247.43,324.828 C230.312,334.602 200.094,304.274 202.289,297.984 C204.484,291.695 258.172,254.43 267.25,243.899 C276.312,233.375 316.359,167.805 316.359,167.805 C316.359,167.805 306.094,163.742 293.687,167.367 C275.359,172.719 265.641,208.07 237.844,246.078 C237.844,246.078 206.953,266.898 175.687,292.797 C172.93,297.758 171.492,301.82 172.547,303.953 z" fill-opacity="0" stroke="#1A1919" stroke-width="2.5" stroke-linecap="round" stroke-linejoin="round"/>
    </g>
    <g>
      <path d="M258.008,329.508 C256.375,310.992 220.25,288.477 205.008,287.883 C203.578,287.742 202.43,287.805 201.797,287.945 L201.797,287.977 C198.273,288.648 194.883,286.351 194.187,282.852 C193.5,279.36 195.773,275.945 199.281,275.258 C201.547,274.82 203.844,274.813 206.18,274.992 C227.641,277.726 264.953,298.289 270.773,327.524 C271.32,331.039 268.891,334.351 265.398,334.898 C264.852,334.984 264.32,334.992 263.797,334.961 C260.906,334.68 258.461,332.492 258.008,329.508 z" fill="#FFFFFF"/>
      <path d="M258.008,329.508 C256.375,310.992 220.25,288.477 205.008,287.883 C203.578,287.742 202.43,287.805 201.797,287.945 L201.797,287.977 C198.273,288.648 194.883,286.351 194.187,282.852 C193.5,279.36 195.773,275.945 199.281,275.258 C201.547,274.82 203.844,274.813 206.18,274.992 C227.641,277.726 264.953,298.289 270.773,327.524 C271.32,331.039 268.891,334.351 265.398,334.898 C264.852,334.984 264.32,334.992 263.797,334.961 C260.906,334.68 258.461,332.492 258.008,329.508 z" fill-opacity="0" stroke="#1A1919" stroke-width="2.5" stroke-linecap="round" stroke-linejoin="round"/>
    </g>
    <g>
      <path d="M280.102,277.726 C280.078,277.726 273.891,275.273 266.086,272.617 C258.234,270.008 248.742,267.226 242.297,266.687 C239.523,266.375 237.477,266.774 237.469,266.844 C234.219,268.289 230.391,266.82 228.945,263.563 C227.508,260.289 228.969,256.461 232.258,255.008 C236.039,253.43 239.594,253.5 243.477,253.805 C260.023,255.437 284.68,265.711 284.992,265.773 C288.289,267.125 289.875,270.922 288.516,274.211 C287.406,276.899 284.711,278.453 281.961,278.211 C281.344,278.133 280.711,277.992 280.102,277.726 z" fill="#FFFFFF"/>
      <path d="M280.102,277.726 C280.078,277.726 273.891,275.273 266.086,272.617 C258.234,270.008 248.742,267.226 242.297,266.687 C239.523,266.375 237.477,266.774 237.469,266.844 C234.219,268.289 230.391,266.82 228.945,263.563 C227.508,260.289 228.969,256.461 232.258,255.008 C236.039,253.43 239.594,253.5 243.477,253.805 C260.023,255.437 284.68,265.711 284.992,265.773 C288.289,267.125 289.875,270.922 288.516,274.211 C287.406,276.899 284.711,278.453 281.961,278.211 C281.344,278.133 280.711,277.992 280.102,277.726 z" fill-opacity="0" stroke="#1A1919" stroke-width="2.5" stroke-linecap="round" stroke-linejoin="round"/>
    </g>
    <g>
      <path d="M279.578,304.695 C279.477,297.25 274.969,282.039 270.375,269.492 C265.828,256.844 261.312,246.477 261.312,246.477 C259.898,243.188 261.391,239.383 264.664,237.961 C267.922,236.531 271.742,238.039 273.164,241.313 C273.227,241.789 291.664,283.086 292.492,304.351 L292.492,304.383 C292.602,307.914 289.773,310.906 286.219,310.992 C285.961,311 285.711,310.992 285.469,310.961 C282.234,310.672 279.656,307.992 279.578,304.695 z" fill="#FFFFFF"/>
      <path d="M279.578,304.695 C279.477,297.25 274.969,282.039 270.375,269.492 C265.828,256.844 261.312,246.477 261.312,246.477 C259.898,243.188 261.391,239.383 264.664,237.961 C267.922,236.531 271.742,238.039 273.164,241.313 C273.227,241.789 291.664,283.086 292.492,304.351 L292.492,304.383 C292.602,307.914 289.773,310.906 286.219,310.992 C285.961,311 285.711,310.992 285.469,310.961 C282.234,310.672 279.656,307.992 279.578,304.695 z" fill-opacity="0" stroke="#1A1919" stroke-width="2.5" stroke-linecap="round" stroke-linejoin="round"/>
    </g>
    <g>
      <path d="M308.797,240.094 C304.672,237.773 289.594,231.32 277.719,230.336 C272.195,229.805 267.625,230.539 265.195,232.102 L265.187,232.133 C262.148,234.023 258.156,233.086 256.297,230.016 C254.398,226.969 255.359,222.984 258.375,221.117 C264.672,217.305 271.914,216.852 278.891,217.461 C293.984,218.914 309.242,225.695 315,228.758 C318.133,230.484 319.297,234.398 317.562,237.539 C316.297,239.859 313.789,241.102 311.289,240.875 C310.445,240.773 309.602,240.524 308.797,240.094 z" fill="#FFFFFF"/>
      <path d="M308.797,240.094 C304.672,237.773 289.594,231.32 277.719,230.336 C272.195,229.805 267.625,230.539 265.195,232.102 L265.187,232.133 C262.148,234.023 258.156,233.086 256.297,230.016 C254.398,226.969 255.359,222.984 258.375,221.117 C264.672,217.305 271.914,216.852 278.891,217.461 C293.984,218.914 309.242,225.695 315,228.758 C318.133,230.484 319.297,234.398 317.562,237.539 C316.297,239.859 313.789,241.102 311.289,240.875 C310.445,240.773 309.602,240.524 308.797,240.094 z" fill-opacity="0" stroke="#1A1919" stroke-width="2.5" stroke-linecap="round" stroke-linejoin="round"/>
    </g>
    <g>
      <path d="M307.367,270.047 C305.523,267.906 305.344,264.883 306.703,262.562 C306.664,259.32 302.922,246.398 298.883,234.735 C294.664,221.476 290.086,209.648 290.484,201.109 C290.711,199.281 291.047,196.813 293.875,194.492 C296.695,192.328 300.758,192.899 302.914,195.727 C304.547,197.867 304.617,200.719 303.312,202.93 C303.414,206.289 307.133,219.086 311.125,230.672 C315.352,243.922 319.922,255.75 319.531,264.289 C319.32,265.953 319.039,268.367 316.484,270.742 C315.102,271.914 313.359,272.414 311.687,272.273 C310.07,272.125 308.516,271.383 307.367,270.047 z" fill="#FFFFFF"/>
      <path d="M307.367,270.047 C305.523,267.906 305.344,264.883 306.703,262.562 C306.664,259.32 302.922,246.398 298.883,234.735 C294.664,221.476 290.086,209.648 290.484,201.109 C290.711,199.281 291.047,196.813 293.875,194.492 C296.695,192.328 300.758,192.899 302.914,195.727 C304.547,197.867 304.617,200.719 303.312,202.93 C303.414,206.289 307.133,219.086 311.125,230.672 C315.352,243.922 319.922,255.75 319.531,264.289 C319.32,265.953 319.039,268.367 316.484,270.742 C315.102,271.914 313.359,272.414 311.687,272.273 C310.07,272.125 308.516,271.383 307.367,270.047 z" fill-opacity="0" stroke="#1A1919" stroke-width="2.5" stroke-linecap="round" stroke-linejoin="round"/>
    </g>
    <g>
      <path d="M329.984,237.906 C327.109,236.578 325.672,233.445 326.375,230.508 C326.273,230.094 326.023,229.445 325.648,228.633 C324.852,226.945 323.484,224.68 321.75,222.164 C318.305,217.094 313.414,210.976 308.477,205.172 C298.602,193.555 288.578,183.149 288.555,183.149 C286.078,180.563 286.148,176.461 288.711,173.992 C291.273,171.524 295.367,171.586 297.844,174.18 C297.969,174.336 320.789,197.883 332.437,214.883 C336.172,220.914 339.422,224.945 339.328,231.633 C339.242,232.523 339.07,233.539 338.562,234.68 C337.375,237.258 334.734,238.711 332.07,238.453 C331.367,238.398 330.664,238.219 329.984,237.906 z" fill="#FFFFFF"/>
      <path d="M329.984,237.906 C327.109,236.578 325.672,233.445 326.375,230.508 C326.273,230.094 326.023,229.445 325.648,228.633 C324.852,226.945 323.484,224.68 321.75,222.164 C318.305,217.094 313.414,210.976 308.477,205.172 C298.602,193.555 288.578,183.149 288.555,183.149 C286.078,180.563 286.148,176.461 288.711,173.992 C291.273,171.524 295.367,171.586 297.844,174.18 C297.969,174.336 320.789,197.883 332.437,214.883 C336.172,220.914 339.422,224.945 339.328,231.633 C339.242,232.523 339.07,233.539 338.562,234.68 C337.375,237.258 334.734,238.711 332.07,238.453 C331.367,238.398 330.664,238.219 329.984,237.906 z" fill-opacity="0" stroke="#1A1919" stroke-width="2.5" stroke-linecap="round" stroke-linejoin="round"/>
    </g>
    <g>
      <path d="M277.82,196.633 C277,193.172 279.164,189.664 282.633,188.836 C290.555,187.07 318.148,184.187 340.945,186.164 C352.531,187.477 362.711,189.008 369.562,196.023 C371.945,198.648 371.734,202.719 369.086,205.117 C366.445,207.516 362.344,207.281 359.953,204.664 C358.797,202.75 350.242,199.789 339.773,199.047 C319.328,197.117 290.859,200.094 285.609,201.43 C284.906,201.601 284.203,201.648 283.539,201.586 C280.844,201.344 278.477,199.398 277.82,196.633 z" fill="#FFFFFF"/>
      <path d="M277.82,196.633 C277,193.172 279.164,189.664 282.633,188.836 C290.555,187.07 318.148,184.187 340.945,186.164 C352.531,187.477 362.711,189.008 369.562,196.023 C371.945,198.648 371.734,202.719 369.086,205.117 C366.445,207.516 362.344,207.281 359.953,204.664 C358.797,202.75 350.242,199.789 339.773,199.047 C319.328,197.117 290.859,200.094 285.609,201.43 C284.906,201.601 284.203,201.648 283.539,201.586 C280.844,201.344 278.477,199.398 277.82,196.633 z" fill-opacity="0" stroke="#1A1919" stroke-width="2.5" stroke-linecap="round" stroke-linejoin="round"/>
    </g>
    <g>
      <path d="M506.57,212.336 C507.766,184.203 504.414,155.125 495.031,147.32 C479.852,171.852 462.437,189.617 446.609,199.937 C458.102,207.633 481.102,219.437 506.57,212.336 z" fill="#978C8A"/>
      <path d="M506.57,212.336 C507.766,184.203 504.414,155.125 495.031,147.32 C479.852,171.852 462.437,189.617 446.609,199.937 C458.102,207.633 481.102,219.437 506.57,212.336 z" fill-opacity="0" stroke="#1A1919" stroke-width="2.5" stroke-linecap="round" stroke-linejoin="round"/>
    </g>
  </g>
</svg>
